<svg width="1440" height="669" viewBox="0 0 1440 669" fill="none" xmlns="http://www.w3.org/2000/svg">
<path d="M1126.84 369.818C1126.84 369.818 1117.27 346.382 1117.99 329.713" stroke="#0088FF" stroke-width="1.57216"/>
<path d="M1383.26 474.3C1290.03 507.351 1188.01 459.573 1155.4 367.583C1122.79 275.594 1171.93 174.229 1265.16 141.178" stroke="white" stroke-width="7.86079"/>
<path d="M1383.26 474.3C1290.03 507.351 1188.01 459.573 1155.4 367.583C1122.79 275.594 1171.93 174.229 1265.16 141.178" stroke="white" stroke-width="7.86079"/>
<path d="M1297.07 420.574C1268.9 414.428 1245.26 398.857 1228.81 377.959C1207.93 351.441 1198.61 316.346 1206.32 281.049C1220.09 217.936 1283.05 178.075 1346.94 192.019" stroke="white" stroke-width="7.86079"/>
<path d="M1346.94 192.019C1283.05 178.075 1220.09 217.936 1206.32 281.049C1198.61 316.346 1207.93 351.441 1228.81 377.959" stroke="white" stroke-width="7.86079"/>
<path d="M1215.72 404.15C1162.25 341.993 1169.3 248.261 1231.45 194.793" stroke="#0088FF" stroke-width="14.1494" stroke-linejoin="round"/>
<path d="M1207.98 341.37L1103.11 378.549L1109.67 397.055" stroke="#0088FF" stroke-width="1.57216"/>
<path d="M1097.48 425.048C1101.38 436.049 1113.46 441.806 1124.46 437.905C1135.46 434.005 1141.22 421.926 1137.32 410.925C1133.42 399.924 1121.34 394.167 1110.34 398.067C1099.34 401.967 1093.58 414.047 1097.48 425.048Z" stroke="#0088FF" stroke-width="2.35824"/>
<path d="M1103.09 423.06C1105.89 430.964 1114.57 435.099 1122.48 432.297C1130.38 429.495 1134.51 420.817 1131.71 412.913C1128.91 405.009 1120.23 400.873 1112.33 403.675C1104.42 406.477 1100.29 415.156 1103.09 423.06Z" stroke="white" stroke-width="2.35824"/>
<path d="M1103.12 255.756C1105.92 263.66 1114.6 267.796 1122.51 264.994C1130.41 262.192 1134.54 253.513 1131.74 245.609C1128.94 237.705 1120.26 233.57 1112.36 236.372C1104.45 239.174 1100.32 247.852 1103.12 255.756Z" stroke="white" stroke-width="2.35824"/>
<path d="M1108.7 420.986C1110.4 425.792 1115.68 428.307 1120.49 426.603C1125.29 424.899 1127.81 419.622 1126.1 414.815C1124.4 410.009 1119.12 407.494 1114.32 409.198C1109.51 410.902 1107 416.179 1108.7 420.986Z" stroke="white" stroke-width="2.35824"/>
<path d="M1152.97 612.665C1154.45 616.858 1159.06 619.052 1163.25 617.566C1167.44 616.079 1169.63 611.475 1168.15 607.283C1166.66 603.09 1162.06 600.896 1157.87 602.383C1153.67 603.869 1151.48 608.473 1152.97 612.665Z" stroke="white" stroke-width="4.71648"/>
<path d="M1129.7 598.985C1131.19 603.177 1135.79 605.371 1139.98 603.885C1144.18 602.399 1146.37 597.795 1144.89 593.602C1143.4 589.41 1138.79 587.216 1134.6 588.702C1130.41 590.188 1128.22 594.792 1129.7 598.985Z" stroke="white" stroke-width="4.71648"/>
<path d="M1201.7 611.985C1203.19 616.177 1207.79 618.371 1211.98 616.885C1216.18 615.399 1218.37 610.795 1216.89 606.602C1215.4 602.41 1210.79 600.216 1206.6 601.702C1202.41 603.188 1200.22 607.792 1201.7 611.985Z" stroke="white" stroke-width="4.71648"/>
<path d="M1225.7 626.985C1227.19 631.177 1231.79 633.371 1235.98 631.885C1240.18 630.399 1242.37 625.795 1240.89 621.602C1239.4 617.41 1234.79 615.216 1230.6 616.702C1226.41 618.188 1224.22 622.792 1225.7 626.985Z" stroke="white" stroke-width="4.71648"/>
<path d="M1251.7 638.985C1253.19 643.177 1257.79 645.371 1261.98 643.885C1266.18 642.399 1268.37 637.795 1266.89 633.602C1265.4 629.41 1260.79 627.216 1256.6 628.702C1252.41 630.188 1250.22 634.792 1251.7 638.985Z" stroke="white" stroke-width="4.71648"/>
<path d="M1177.7 627.985C1179.19 632.177 1183.79 634.371 1187.98 632.885C1192.18 631.399 1194.37 626.795 1192.89 622.602C1191.4 618.41 1186.79 616.216 1182.6 617.702C1178.41 619.188 1176.22 623.792 1177.7 627.985Z" stroke="white" stroke-width="4.71648"/>
<path d="M1108.73 253.768C1110.43 258.574 1115.71 261.089 1120.52 259.385C1125.32 257.681 1127.84 252.404 1126.13 247.597C1124.43 242.791 1119.15 240.276 1114.35 241.98C1109.54 243.684 1107.02 248.961 1108.73 253.768Z" stroke="white" stroke-width="2.35824"/>
<path d="M1112.33 324.46C1113.48 327.718 1117.06 329.423 1120.32 328.268C1123.57 327.113 1125.28 323.536 1124.12 320.278C1122.97 317.02 1119.39 315.315 1116.13 316.47C1112.88 317.625 1111.17 321.202 1112.33 324.46Z" stroke="#0088FF" stroke-width="2.35824"/>
<path d="M1111.84 189.535C1112.99 192.793 1116.57 194.498 1119.83 193.343C1123.09 192.188 1124.79 188.611 1123.64 185.353C1122.48 182.095 1118.91 180.39 1115.65 181.545C1112.39 182.7 1110.69 186.277 1111.84 189.535Z" stroke="white" stroke-width="2.35824"/>
<line y1="-0.39304" x2="47.4295" y2="-0.39304" transform="matrix(-0.773628 0.633641 0.633641 0.773628 1154.62 445.51)" stroke="white" stroke-width="0.786079"/>
<line y1="-0.39304" x2="47.8457" y2="-0.39304" transform="matrix(-0.758587 0.651571 0.651571 0.758587 1158.65 449.762)" stroke="white" stroke-width="0.786079"/>
<line y1="-0.39304" x2="47.19" y2="-0.39304" transform="matrix(-0.736933 0.675966 0.675966 0.736933 1162.13 454.213)" stroke="white" stroke-width="0.786079"/>
<line y1="-0.39304" x2="47.1262" y2="-0.39304" transform="matrix(-0.717593 0.696463 0.696463 0.717593 1166.16 458.465)" stroke="white" stroke-width="0.786079"/>
<line y1="-0.39304" x2="47.0999" y2="-0.39304" transform="matrix(-0.697644 0.716444 0.716444 0.697644 1170.19 462.717)" stroke="white" stroke-width="0.786079"/>
<line y1="-0.39304" x2="46.8361" y2="-0.39304" transform="matrix(-0.685355 0.728209 0.728209 0.685355 1174.22 466.969)" stroke="white" stroke-width="0.786079"/>
<line y1="-0.39304" x2="46.3498" y2="-0.39304" transform="matrix(-0.659768 0.75147 0.75147 0.659768 1178.26 471.221)" stroke="white" stroke-width="0.786079"/>
<line y1="-0.39304" x2="46.4299" y2="-0.39304" transform="matrix(-0.637986 0.770048 0.770048 0.637986 1182.65 474.713)" stroke="white" stroke-width="0.786079"/>
<line y1="-0.39304" x2="46.4299" y2="-0.39304" transform="matrix(-0.637986 0.770048 0.770048 0.637986 1187.8 478.568)" stroke="white" stroke-width="0.786079"/>
<line y1="-0.39304" x2="46.5479" y2="-0.39304" transform="matrix(-0.615778 0.78792 0.78792 0.615778 1192.2 482.06)" stroke="white" stroke-width="0.786079"/>
<line y1="-0.39304" x2="46.212" y2="-0.39304" transform="matrix(-0.587377 0.809313 0.809313 0.587377 1196.59 485.553)" stroke="white" stroke-width="0.786079"/>
<line y1="-0.39304" x2="45.459" y2="-0.39304" transform="matrix(-0.551351 0.834273 0.834273 0.551351 1200.99 489.045)" stroke="white" stroke-width="0.786079"/>
<line y1="-0.39304" x2="46.1852" y2="-0.39304" transform="matrix(-0.534071 0.845439 0.845439 0.534071 1206.5 492.14)" stroke="white" stroke-width="0.786079"/>
<line y1="-0.39304" x2="45.7191" y2="-0.39304" transform="matrix(-0.52725 0.84971 0.84971 0.52725 1211.46 495.433)" stroke="white" stroke-width="0.786079"/>
<line y1="-0.39304" x2="45.1777" y2="-0.39304" transform="matrix(-0.504341 0.863505 0.863505 0.504341 1216.42 498.727)" stroke="white" stroke-width="0.786079"/>
<line y1="-0.39304" x2="45.5095" y2="-0.39304" transform="matrix(-0.479603 0.877486 0.877486 0.479603 1221.73 501.261)" stroke="white" stroke-width="0.786079"/>
<line y1="-0.39304" x2="45.0364" y2="-0.39304" transform="matrix(-0.455322 0.890327 0.890327 0.455322 1227.05 503.795)" stroke="white" stroke-width="0.786079"/>
<line y1="-0.39304" x2="44.598" y2="-0.39304" transform="matrix(-0.43019 0.902738 0.902738 0.43019 1232.37 506.329)" stroke="white" stroke-width="0.786079"/>
<line y1="-0.39304" x2="44.6059" y2="-0.39304" transform="matrix(-0.413084 0.910693 0.910693 0.413084 1237.69 508.863)" stroke="white" stroke-width="0.786079"/>
<line y1="-0.39304" x2="44.2273" y2="-0.39304" transform="matrix(-0.386765 0.922179 0.922179 0.386765 1243 511.397)" stroke="white" stroke-width="0.786079"/>
<line y1="-0.39304" x2="44.2753" y2="-0.39304" transform="matrix(-0.369188 0.929355 0.929355 0.369188 1248.68 513.171)" stroke="white" stroke-width="0.786079"/>
<line y1="-0.39304" x2="44.3393" y2="-0.39304" transform="matrix(-0.351524 0.936179 0.936179 0.351524 1254.36 514.945)" stroke="white" stroke-width="0.786079"/>
<line y1="-0.39304" x2="43.211" y2="-0.39304" transform="matrix(-0.321767 0.946819 0.946819 0.321767 1259.68 517.479)" stroke="white" stroke-width="0.786079"/>
<line y1="-0.39304" x2="43.7929" y2="-0.39304" transform="matrix(-0.295605 0.95531 0.95531 0.295605 1265.16 518.693)" stroke="white" stroke-width="0.786079"/>
<line y1="-0.39304" x2="43.5782" y2="-0.39304" transform="matrix(-0.266762 0.963763 0.963763 0.266762 1270.64 519.906)" stroke="white" stroke-width="0.786079"/>
<line y1="-0.39304" x2="42.5796" y2="-0.39304" transform="matrix(-0.233505 0.972356 0.972356 0.233505 1275.76 521.88)" stroke="white" stroke-width="0.786079"/>
<line y1="-0.39304" x2="42.7622" y2="-0.39304" transform="matrix(-0.214744 0.97667 0.97667 0.214744 1281.8 522.894)" stroke="white" stroke-width="0.786079"/>
<line y1="-0.39304" x2="42.9604" y2="-0.39304" transform="matrix(-0.196071 0.98059 0.98059 0.196071 1287.84 523.909)" stroke="white" stroke-width="0.786079"/>
<line y1="-0.39304" x2="42.0736" y2="-0.39304" transform="matrix(-0.160216 0.987082 0.987082 0.160216 1293.32 525.122)" stroke="white" stroke-width="0.786079"/>
<line y1="-0.39304" x2="42.3169" y2="-0.39304" transform="matrix(-0.141344 0.989961 0.989961 0.141344 1299.16 525.576)" stroke="white" stroke-width="0.786079"/>
<line y1="-0.39304" x2="42.3127" y2="-0.39304" transform="matrix(-0.110151 0.993915 0.993915 0.110151 1305.01 526.03)" stroke="white" stroke-width="0.786079"/>
<line y1="-0.39304" x2="41.8077" y2="-0.39304" transform="matrix(-0.0846537 0.996411 0.996411 0.0846537 1310.85 526.484)" stroke="white" stroke-width="0.786079"/>
<line y1="-0.39304" x2="41.3307" y2="-0.39304" transform="matrix(-0.0584929 0.998288 0.998288 0.0584929 1316.69 526.938)" stroke="white" stroke-width="0.786079"/>
<line y1="-0.39304" x2="41.4377" y2="-0.39304" transform="matrix(-0.0264762 0.99965 0.99965 0.0264762 1322.34 526.831)" stroke="white" stroke-width="0.786079"/>
<line y1="-0.39304" x2="41.5869" y2="-0.39304" transform="matrix(0.00537012 0.999986 0.999986 -0.00537012 1327.98 526.724)" stroke="white" stroke-width="0.786079"/>
<line y1="-0.39304" x2="41.2106" y2="-0.39304" transform="matrix(0.0326359 0.999467 0.999467 -0.0326359 1333.62 526.617)" stroke="white" stroke-width="0.786079"/>
<line y1="-0.39304" x2="41.0341" y2="-0.39304" transform="matrix(0.0464433 0.998921 0.998921 -0.0464433 1339.83 526.312)" stroke="white" stroke-width="0.786079"/>
<line y1="-0.39304" x2="40.8656" y2="-0.39304" transform="matrix(0.0603582 0.998177 0.998177 -0.0603582 1346.03 526.006)" stroke="white" stroke-width="0.786079"/>
<line y1="-0.39304" x2="40.9867" y2="-0.39304" transform="matrix(0.106079 0.994358 0.994358 -0.106079 1351.28 524.777)" stroke="white" stroke-width="0.786079"/>
<line y1="-0.39304" x2="41.3093" y2="-0.39304" transform="matrix(0.137215 0.990542 0.990542 -0.137215 1356.72 524.109)" stroke="white" stroke-width="0.786079"/>
<line y1="-0.39304" x2="41.672" y2="-0.39304" transform="matrix(0.167707 0.985837 0.985837 -0.167707 1362.53 522.682)" stroke="white" stroke-width="0.786079"/>
<line y1="-0.39304" x2="40.8135" y2="-0.39304" transform="matrix(0.207586 0.978217 0.978217 -0.207586 1367.98 522.014)" stroke="white" stroke-width="0.786079"/>
<line y1="-0.39304" x2="45.5096" y2="-0.39304" transform="matrix(0.532734 -0.846283 -0.846283 -0.532734 1436.38 132.297)" stroke="white" stroke-width="0.786079"/>
<line y1="-0.39304" x2="45.0364" y2="-0.39304" transform="matrix(0.50929 -0.860595 -0.860595 -0.50929 1431.23 129.44)" stroke="white" stroke-width="0.786079"/>
<line y1="-0.39304" x2="44.598" y2="-0.39304" transform="matrix(0.484971 -0.874531 -0.874531 -0.484971 1426.07 126.583)" stroke="white" stroke-width="0.786079"/>
<line y1="-0.39304" x2="44.6059" y2="-0.39304" transform="matrix(0.468387 -0.883524 -0.883524 -0.468387 1420.92 123.727)" stroke="white" stroke-width="0.786079"/>
<line y1="-0.39304" x2="44.2273" y2="-0.39304" transform="matrix(0.442825 -0.896608 -0.896608 -0.442825 1415.77 120.87)" stroke="white" stroke-width="0.786079"/>
<line y1="-0.39304" x2="44.2753" y2="-0.39304" transform="matrix(0.425724 -0.904853 -0.904853 -0.425724 1410.21 118.749)" stroke="white" stroke-width="0.786079"/>
<line y1="-0.39304" x2="44.3393" y2="-0.39304" transform="matrix(0.408513 -0.912753 -0.912753 -0.408513 1404.65 116.629)" stroke="white" stroke-width="0.786079"/>
<line y1="-0.39304" x2="43.211" y2="-0.39304" transform="matrix(0.379468 -0.925205 -0.925205 -0.379468 1399.5 113.772)" stroke="white" stroke-width="0.786079"/>
<line y1="-0.39304" x2="43.7929" y2="-0.39304" transform="matrix(0.353879 -0.935291 -0.935291 -0.353879 1394.11 112.223)" stroke="white" stroke-width="0.786079"/>
<line y1="-0.39304" x2="43.5782" y2="-0.39304" transform="matrix(0.325611 -0.945504 -0.945504 -0.325611 1388.71 110.675)" stroke="white" stroke-width="0.786079"/>
<line y1="-0.39304" x2="42.5796" y2="-0.39304" transform="matrix(0.292946 -0.956129 -0.956129 -0.292946 1383.72 108.39)" stroke="white" stroke-width="0.786079"/>
<line y1="-0.39304" x2="42.7622" y2="-0.39304" transform="matrix(0.274487 -0.961591 -0.961591 -0.274487 1377.76 107.005)" stroke="white" stroke-width="0.786079"/>
<line y1="-0.39304" x2="42.9604" y2="-0.39304" transform="matrix(0.25609 -0.966653 -0.966653 -0.25609 1371.79 105.62)" stroke="white" stroke-width="0.786079"/>
<line y1="-0.39304" x2="42.0736" y2="-0.39304" transform="matrix(0.220703 -0.975341 -0.975341 -0.220703 1366.39 104.072)" stroke="white" stroke-width="0.786079"/>
<line y1="-0.39304" x2="42.3169" y2="-0.39304" transform="matrix(0.202044 -0.979377 -0.979377 -0.202044 1360.59 103.259)" stroke="white" stroke-width="0.786079"/>
<line y1="-0.39304" x2="42.3127" y2="-0.39304" transform="matrix(0.171154 -0.985244 -0.985244 -0.171154 1354.79 102.446)" stroke="white" stroke-width="0.786079"/>
<line y1="-0.39304" x2="41.8077" y2="-0.39304" transform="matrix(0.145859 -0.989306 -0.989306 -0.145859 1348.98 101.633)" stroke="white" stroke-width="0.786079"/>
<line y1="-0.39304" x2="41.3307" y2="-0.39304" transform="matrix(0.119863 -0.992791 -0.992791 -0.119863 1343.18 100.82)" stroke="white" stroke-width="0.786079"/>
<line y1="-0.39304" x2="41.4377" y2="-0.39304" transform="matrix(0.0879912 -0.996121 -0.996121 -0.0879912 1337.54 100.579)" stroke="white" stroke-width="0.786079"/>
<line y1="-0.39304" x2="41.5869" y2="-0.39304" transform="matrix(0.0562261 -0.998418 -0.998418 -0.0562261 1331.9 100.338)" stroke="white" stroke-width="0.786079"/>
<line y1="-0.39304" x2="41.2106" y2="-0.39304" transform="matrix(0.0289801 -0.99958 -0.99958 -0.0289801 1326.26 100.098)" stroke="white" stroke-width="0.786079"/>
<line y1="-0.39304" x2="41.0341" y2="-0.39304" transform="matrix(0.0151653 -0.999885 -0.999885 -0.0151653 1320.05 100.021)" stroke="white" stroke-width="0.786079"/>
<line y1="-0.39304" x2="40.8656" y2="-0.39304" transform="matrix(0.00123101 -0.999999 -0.999999 -0.00123101 1313.84 99.9437)" stroke="white" stroke-width="0.786079"/>
<line y1="-0.39304" x2="40.9867" y2="-0.39304" transform="matrix(-0.0446382 -0.999004 -0.999004 0.0446382 1308.52 100.847)" stroke="white" stroke-width="0.786079"/>
<line y1="-0.39304" x2="41.3093" y2="-0.39304" transform="matrix(-0.0759503 -0.997112 -0.997112 0.0759503 1303.05 101.178)" stroke="white" stroke-width="0.786079"/>
<line y1="-0.39304" x2="41.672" y2="-0.39304" transform="matrix(-0.106675 -0.994294 -0.994294 0.106675 1297.17 102.245)" stroke="white" stroke-width="0.786079"/>
<line y1="-0.39304" x2="40.8135" y2="-0.39304" transform="matrix(-0.146947 -0.989145 -0.989145 0.146947 1291.69 102.576)" stroke="white" stroke-width="0.786079"/>
<path d="M1358.81 411.632C1414.72 391.808 1443.99 330.417 1424.17 274.511C1404.35 218.606 1342.95 189.355 1287.03 209.179C1254.56 220.69 1231.08 246.215 1220.98 276.543" stroke="white" stroke-width="9.43295"/>
<path d="M1304.13 405.61C1356.08 415.221 1406 380.851 1415.62 328.844C1425.24 276.836 1390.92 226.885 1338.96 217.274C1308.79 211.693 1279.31 220.941 1258.01 239.859" stroke="#0088FF" stroke-width="4.71648"/>
<path d="M1278.81 186.212C1212.61 209.682 1177.98 282.427 1201.48 348.692C1224.97 414.958 1297.68 449.65 1363.88 426.18C1402.32 412.553 1430.12 382.312 1442.07 346.373" stroke="white" stroke-width="4.71648"/>
<path d="M1409.13 518.788L1393.99 524.156L1384.05 496.116M1384.05 496.116L1356.61 418.724C1356.61 418.724 1325.44 432.3 1292.76 421.157M1384.05 496.116C1384.05 496.116 1378.55 499.325 1369.63 499.964" stroke="#0088FF" stroke-width="1.57216"/>
<path d="M1318.63 425.559L1312.19 508.016L1325.1 508.806" stroke="white" stroke-width="1.57216"/>
<path d="M1265.29 411.327L1230.64 484.531C1230.64 484.531 1238.11 491.353 1251.51 493.546" stroke="white" stroke-width="1.57216"/>
<path d="M1231.35 383.27L1170.47 437.682L1177.86 445.164" stroke="white" stroke-width="1.57216"/>
<path d="M1211.87 258.867L1129.15 219.632M1115.3 193.042L1107.14 209.193L1129.15 219.632M1129.15 219.632L1122.99 236.086" stroke="white" stroke-width="1.57216"/>
<path d="M1287.59 183.097L1267.32 125.894M1227.87 100.106L1254.79 90.5629L1267.32 125.894M1267.32 125.894C1267.32 125.894 1283.34 117.686 1292.06 120.909" stroke="#0088FF" stroke-width="1.57216"/>
<path d="M1377.76 213.946L1405.78 153.193C1405.78 153.193 1420.95 159.493 1435.33 173.335" stroke="white" stroke-width="1.57216"/>
<path d="M1432.19 192.123C1435.87 202.504 1447.27 207.937 1457.65 204.256C1468.04 200.576 1473.47 189.176 1469.79 178.795C1466.11 168.413 1454.71 162.981 1444.33 166.661C1433.94 170.342 1428.51 181.741 1432.19 192.123Z" stroke="white" stroke-width="2.35824"/>
<path d="M1194.21 112.039C1197.51 121.336 1207.72 126.201 1217.02 122.905C1226.31 119.609 1231.18 109.4 1227.88 100.103C1224.59 90.8051 1214.38 85.94 1205.08 89.2361C1195.78 92.5323 1190.92 102.741 1194.21 112.039Z" stroke="#0088FF" stroke-width="2.35824"/>
<path d="M1292.68 124.476C1294.88 130.676 1301.69 133.92 1307.89 131.722C1314.09 129.524 1317.33 122.716 1315.14 116.516C1312.94 110.316 1306.13 107.071 1299.93 109.269C1293.73 111.467 1290.49 118.276 1292.68 124.476Z" stroke="#0088FF" stroke-width="2.35824"/>
<path d="M1251.33 499.292C1253.25 504.718 1259.21 507.557 1264.63 505.634C1270.06 503.71 1272.9 497.752 1270.97 492.326C1269.05 486.9 1263.09 484.061 1257.67 485.985C1252.24 487.908 1249.4 493.866 1251.33 499.292Z" stroke="white" stroke-width="2.35824"/>
<path d="M1325.4 510.592C1326.61 514.004 1330.36 515.79 1333.77 514.58C1337.19 513.371 1338.97 509.623 1337.76 506.211C1336.55 502.798 1332.81 501.012 1329.39 502.222C1325.98 503.432 1324.2 507.179 1325.4 510.592Z" stroke="white" stroke-width="2.35824"/>
<path d="M1362.29 500.672C1362.95 502.536 1365 503.511 1366.86 502.85C1368.73 502.189 1369.7 500.142 1369.04 498.278C1368.38 496.414 1366.33 495.439 1364.47 496.1C1362.61 496.761 1361.63 498.807 1362.29 500.672Z" stroke="#0088FF" stroke-width="2.35824"/>
<path d="M1409.02 518.511C1410.5 522.698 1415.1 524.889 1419.29 523.405C1423.47 521.921 1425.67 517.323 1424.18 513.136C1422.7 508.949 1418.1 506.758 1413.91 508.242C1409.73 509.727 1407.53 514.324 1409.02 518.511Z" stroke="#0088FF" stroke-width="2.35824"/>
<path d="M1188.89 449.828C1188.89 453.12 1186.22 455.789 1182.93 455.789C1179.64 455.789 1176.97 453.12 1176.97 449.828C1176.97 446.536 1179.64 443.867 1182.93 443.867C1186.22 443.867 1188.89 446.536 1188.89 449.828Z" stroke="white" stroke-width="2.35824"/>
<path d="M1025.27 527.319C1025.27 527.319 1017.57 534.102 1010.11 536.295" stroke="white" stroke-width="1.57216"/>
<path d="M1033.99 397.38C1062.63 433.568 1056.9 485.812 1021.19 514.069C985.485 542.326 933.323 535.897 904.685 499.709" stroke="white" stroke-width="4.71648"/>
<path d="M877.283 376.458C904.194 349.546 904.484 306.203 877.93 279.649C851.376 253.095 808.033 253.385 781.122 280.297" stroke="white" stroke-width="4.71648"/>
<path d="M1015.55 442.688C1018.44 467.92 1000.57 490.687 975.644 493.538C950.719 496.389 928.174 478.245 925.288 453.012" stroke="#0088FF" stroke-width="3.9304"/>
<path d="M879.975 460.658C872.797 409.05 908.303 361.466 959.281 354.375C1010.26 347.284 1057.4 383.372 1064.58 434.979" stroke="white" stroke-width="4.71648"/>
<path d="M1049.21 508.64C1057.46 508.64 1064.15 515.327 1064.15 523.575C1064.15 531.824 1057.46 538.511 1049.21 538.511" stroke="white" stroke-width="1.57216"/>
<path d="M794.757 322.391C792.508 342.052 806.429 359.791 825.85 362.012C845.27 364.234 862.837 350.097 865.086 330.436" stroke="#0088FF" stroke-width="3.9304"/>
<path d="M999.876 467.468C990.462 483.475 969.855 488.819 953.849 479.405" stroke="#0088FF" stroke-width="7.86079" stroke-linejoin="round"/>
<path d="M850.764 305.76C841.932 294.3 825.481 292.17 814.021 301.003" stroke="#0088FF" stroke-width="7.86079" stroke-linejoin="round"/>
<path d="M999.468 490.874L1032.69 536.672L1041.1 529.826" stroke="white" stroke-width="1.57216"/>
<path d="M1054.9 530.495C1058.9 527.332 1059.58 521.526 1056.41 517.528C1053.25 513.53 1047.44 512.854 1043.44 516.018C1039.45 519.182 1038.77 524.987 1041.93 528.985C1045.1 532.983 1050.9 533.659 1054.9 530.495Z" stroke="white" stroke-width="2.35824"/>
<path d="M1053.18 528.318C1055.97 526.106 1056.45 522.047 1054.23 519.251C1052.02 516.455 1047.96 515.983 1045.17 518.195C1042.37 520.407 1041.9 524.467 1044.11 527.262C1046.32 530.058 1050.38 530.531 1053.18 528.318Z" stroke="white" stroke-width="2.35824"/>
<path d="M1051.94 526.758C1053.88 525.228 1054.2 522.42 1052.67 520.486C1051.14 518.552 1048.34 518.225 1046.4 519.755C1044.47 521.286 1044.14 524.094 1045.67 526.027C1047.2 527.961 1050.01 528.288 1051.94 526.758Z" stroke="white" stroke-width="0.786079"/>
<path d="M1008.49 539.401C1009.65 538.481 1009.85 536.793 1008.93 535.631C1008.01 534.469 1006.32 534.272 1005.16 535.192C1004 536.112 1003.8 537.8 1004.72 538.962C1005.64 540.124 1007.33 540.321 1008.49 539.401Z" stroke="white" stroke-width="1.57216"/>
<path d="M787.246 389.137C787.246 389.137 792.898 395.327 798.999 395.327" stroke="white" stroke-width="1.57216"/>
<path d="M807.178 360.279L782.188 395.979L774.852 390.286" stroke="white" stroke-width="1.57216"/>
<path d="M756.816 391.188C751.205 386.747 750.256 378.599 754.697 372.987C759.137 367.376 767.285 366.427 772.897 370.868C778.508 375.308 779.457 383.457 775.016 389.068C770.576 394.679 762.427 395.628 756.816 391.188Z" stroke="white" stroke-width="2.35824"/>
<path d="M759.155 388.232C755.176 385.083 754.503 379.305 757.652 375.327C760.801 371.348 766.578 370.675 770.557 373.824C774.536 376.972 775.209 382.75 772.06 386.729C768.912 390.707 763.134 391.38 759.155 388.232Z" stroke="white" stroke-width="2.35824"/>
<path d="M761.007 385.892C758.32 383.766 757.866 379.865 759.992 377.178C762.118 374.491 766.02 374.037 768.706 376.163C771.393 378.289 771.847 382.191 769.721 384.877C767.595 387.564 763.694 388.018 761.007 385.892Z" stroke="white" stroke-width="0.786079"/>
<path d="M799.968 396.819C799.138 396.161 798.997 394.955 799.655 394.125C800.312 393.294 801.518 393.154 802.349 393.811C803.179 394.468 803.32 395.674 802.662 396.505C802.005 397.335 800.799 397.476 799.968 396.819Z" stroke="white" stroke-width="1.57216"/>
<path d="M1181.74 417.102L1082.97 490.883L1049.05 475.413" stroke="white" stroke-width="4.71648"/>
<path d="M885.941 286.397L948.187 237.374L970.763 267.046" stroke="white" stroke-width="4.71648"/>
<path d="M1006.24 286.397L1201.69 300.588" stroke="white" stroke-width="4.71648"/>
<path d="M846.364 326.661C846.364 335.979 838.81 343.534 829.491 343.534C820.172 343.534 812.618 335.979 812.618 326.661C812.618 317.342 820.172 309.787 829.491 309.787C838.81 309.787 846.364 317.342 846.364 326.661Z" stroke="#0088FF" stroke-width="3.14432"/>
<path d="M1005.82 284.462C1005.82 296.34 996.187 305.97 984.309 305.97C972.43 305.97 962.801 296.34 962.801 284.462C962.801 272.583 972.43 262.954 984.309 262.954C996.187 262.954 1005.82 272.583 1005.82 284.462Z" stroke="white" stroke-width="4.71648"/>
<path d="M998.863 284.462C998.863 292.5 992.347 299.016 984.309 299.016C976.271 299.016 969.755 292.5 969.755 284.462C969.755 276.424 976.271 269.908 984.309 269.908C992.347 269.908 998.863 276.424 998.863 284.462Z" stroke="white" stroke-width="3.14432"/>
<path d="M992.302 284.462C992.302 288.876 988.723 292.454 984.309 292.454C979.895 292.454 976.317 288.876 976.317 284.462C976.317 280.048 979.895 276.469 984.309 276.469C988.723 276.469 992.302 280.048 992.302 284.462Z" stroke="white" stroke-width="0.786079"/>
<path d="M1321.66 254.265V225.763" stroke="white" stroke-width="1.57216"/>
<path d="M1321.66 397.343V368.842" stroke="white" stroke-width="1.57216"/>
<path d="M1316.67 254.483L1314.19 226.09" stroke="white" stroke-width="1.57216"/>
<path d="M1329.14 397.017L1326.66 368.624" stroke="white" stroke-width="1.57216"/>
<path d="M1311.72 255.135L1306.77 227.067" stroke="white" stroke-width="1.57216"/>
<path d="M1336.56 396.04L1331.61 367.971" stroke="white" stroke-width="1.57216"/>
<path d="M1306.84 256.217L1299.46 228.687" stroke="white" stroke-width="1.57216"/>
<path d="M1343.87 394.42L1336.49 366.89" stroke="white" stroke-width="1.57216"/>
<path d="M1302.07 257.72L1292.32 230.937" stroke="white" stroke-width="1.57216"/>
<path d="M1351.01 392.17L1341.26 365.387" stroke="white" stroke-width="1.57216"/>
<path d="M1297.45 259.632L1285.41 233.801" stroke="white" stroke-width="1.57216"/>
<path d="M1357.92 389.306L1345.87 363.474" stroke="white" stroke-width="1.57216"/>
<path d="M1293.02 261.94L1278.77 237.257" stroke="white" stroke-width="1.57216"/>
<path d="M1364.56 385.85L1350.31 361.167" stroke="white" stroke-width="1.57216"/>
<path d="M1288.8 264.625L1272.46 241.278" stroke="white" stroke-width="1.57216"/>
<path d="M1370.87 381.828L1354.52 358.481" stroke="white" stroke-width="1.57216"/>
<path d="M1284.84 267.668L1266.52 245.834" stroke="white" stroke-width="1.57216"/>
<path d="M1376.81 377.272L1358.49 355.439" stroke="white" stroke-width="1.57216"/>
<path d="M1281.16 271.043L1261 250.89" stroke="white" stroke-width="1.57216"/>
<path d="M1382.33 372.216L1362.17 352.062" stroke="white" stroke-width="1.57216"/>
<path d="M1277.78 274.729L1255.94 256.408" stroke="white" stroke-width="1.57216"/>
<path d="M1387.38 366.698L1365.55 348.378" stroke="white" stroke-width="1.57216"/>
<path d="M1274.74 278.693L1251.39 262.346" stroke="white" stroke-width="1.57216"/>
<path d="M1391.94 360.761L1368.59 344.413" stroke="white" stroke-width="1.57216"/>
<path d="M1272.05 282.909L1247.37 268.658" stroke="white" stroke-width="1.57216"/>
<path d="M1395.96 354.448L1371.28 340.198" stroke="white" stroke-width="1.57216"/>
<path d="M1269.74 287.342L1243.91 275.297" stroke="white" stroke-width="1.57216"/>
<path d="M1399.42 347.81L1373.58 335.764" stroke="white" stroke-width="1.57216"/>
<path d="M1267.83 291.96L1241.05 282.211" stroke="white" stroke-width="1.57216"/>
<path d="M1402.28 340.895L1375.5 331.147" stroke="white" stroke-width="1.57216"/>
<path d="M1266.33 296.726L1238.8 289.349" stroke="white" stroke-width="1.57216"/>
<path d="M1404.53 333.757L1377 326.381" stroke="white" stroke-width="1.57216"/>
<path d="M1265.25 301.605L1237.18 296.656" stroke="white" stroke-width="1.57216"/>
<path d="M1406.15 326.451L1378.08 321.501" stroke="white" stroke-width="1.57216"/>
<path d="M1264.59 306.56L1236.2 304.076" stroke="white" stroke-width="1.57216"/>
<path d="M1407.13 319.03L1378.73 316.546" stroke="white" stroke-width="1.57216"/>
<path d="M1264.38 311.553H1235.87" stroke="white" stroke-width="1.57216"/>
<path d="M1407.45 311.553H1378.95" stroke="white" stroke-width="1.57216"/>
<path d="M1264.59 316.546L1236.2 319.03" stroke="white" stroke-width="1.57216"/>
<path d="M1407.13 304.076L1378.73 306.56" stroke="white" stroke-width="1.57216"/>
<path d="M1265.25 321.501L1237.18 326.451" stroke="white" stroke-width="1.57216"/>
<path d="M1406.15 296.656L1378.08 301.605" stroke="white" stroke-width="1.57216"/>
<path d="M1266.33 326.381L1238.8 333.757" stroke="white" stroke-width="1.57216"/>
<path d="M1404.53 289.349L1377 296.726" stroke="white" stroke-width="1.57216"/>
<path d="M1267.83 331.147L1241.05 340.895" stroke="white" stroke-width="1.57216"/>
<path d="M1402.28 282.211L1375.5 291.96" stroke="white" stroke-width="1.57216"/>
<path d="M1269.74 335.764L1243.91 347.81" stroke="white" stroke-width="1.57216"/>
<path d="M1399.42 275.297L1373.58 287.342" stroke="white" stroke-width="1.57216"/>
<path d="M1272.05 340.197L1247.37 354.448" stroke="white" stroke-width="1.57216"/>
<path d="M1395.96 268.658L1371.28 282.909" stroke="white" stroke-width="1.57216"/>
<path d="M1274.74 344.413L1251.39 360.761" stroke="white" stroke-width="1.57216"/>
<path d="M1391.94 262.346L1368.59 278.694" stroke="white" stroke-width="1.57216"/>
<path d="M1277.78 348.378L1255.94 366.698" stroke="white" stroke-width="1.57216"/>
<path d="M1387.38 256.409L1365.55 274.729" stroke="white" stroke-width="1.57216"/>
<path d="M1281.16 352.062L1261 372.216" stroke="white" stroke-width="1.57216"/>
<path d="M1382.33 250.891L1362.17 271.044" stroke="white" stroke-width="1.57216"/>
<path d="M1284.84 355.438L1266.52 377.272" stroke="white" stroke-width="1.57216"/>
<path d="M1376.81 245.834L1358.49 267.668" stroke="white" stroke-width="1.57216"/>
<path d="M1288.8 358.481L1272.46 381.829" stroke="white" stroke-width="1.57216"/>
<path d="M1370.87 241.278L1354.52 264.625" stroke="white" stroke-width="1.57216"/>
<path d="M1293.02 361.167L1278.77 385.85" stroke="white" stroke-width="1.57216"/>
<path d="M1364.56 237.257L1350.31 261.94" stroke="white" stroke-width="1.57216"/>
<path d="M1297.45 363.474L1285.41 389.305" stroke="white" stroke-width="1.57216"/>
<path d="M1357.92 233.801L1345.88 259.632" stroke="white" stroke-width="1.57216"/>
<path d="M1302.07 365.386L1292.32 392.169" stroke="white" stroke-width="1.57216"/>
<path d="M1351.01 230.937L1341.26 257.72" stroke="white" stroke-width="1.57216"/>
<path d="M1306.84 366.89L1299.46 394.42" stroke="white" stroke-width="1.57216"/>
<path d="M1343.87 228.686L1336.49 256.217" stroke="white" stroke-width="1.57216"/>
<path d="M1311.72 367.971L1306.77 396.04" stroke="white" stroke-width="1.57216"/>
<path d="M1336.56 227.067L1331.61 255.135" stroke="white" stroke-width="1.57216"/>
<path d="M1316.67 368.624L1314.19 397.017" stroke="white" stroke-width="1.57216"/>
<path d="M1329.14 226.09L1326.66 254.483" stroke="white" stroke-width="1.57216"/>
<path d="M970.33 397.363V371.862" stroke="white" stroke-width="0.786079"/>
<path d="M970.329 525.381V499.879" stroke="white" stroke-width="0.786079"/>
<path d="M965.861 397.558L963.639 372.154" stroke="white" stroke-width="0.786079"/>
<path d="M977.019 525.089L974.796 499.684" stroke="white" stroke-width="0.786079"/>
<path d="M961.428 398.142L957 373.028" stroke="white" stroke-width="0.786079"/>
<path d="M983.658 524.215L979.23 499.101" stroke="white" stroke-width="0.786079"/>
<path d="M957.062 399.11L950.462 374.477" stroke="white" stroke-width="0.786079"/>
<path d="M990.195 522.765L983.595 498.133" stroke="white" stroke-width="0.786079"/>
<path d="M952.798 400.455L944.076 376.491" stroke="white" stroke-width="0.786079"/>
<path d="M996.583 520.752L987.861 496.788" stroke="white" stroke-width="0.786079"/>
<path d="M948.666 402.166L937.888 379.054" stroke="white" stroke-width="0.786079"/>
<path d="M1002.77 518.189L991.991 495.077" stroke="white" stroke-width="0.786079"/>
<path d="M944.699 404.231L931.949 382.146" stroke="white" stroke-width="0.786079"/>
<path d="M1008.71 515.097L995.958 493.012" stroke="white" stroke-width="0.786079"/>
<path d="M940.929 406.633L926.302 385.743" stroke="white" stroke-width="0.786079"/>
<path d="M1014.36 511.499L999.729 490.61" stroke="white" stroke-width="0.786079"/>
<path d="M937.382 409.355L920.99 389.82" stroke="white" stroke-width="0.786079"/>
<path d="M1019.67 507.423L1003.28 487.887" stroke="white" stroke-width="0.786079"/>
<path d="M934.084 412.376L916.052 394.344" stroke="white" stroke-width="0.786079"/>
<path d="M1024.61 502.899L1006.57 484.866" stroke="white" stroke-width="0.786079"/>
<path d="M931.063 415.673L911.528 399.281" stroke="white" stroke-width="0.786079"/>
<path d="M1029.13 497.962L1009.59 481.569" stroke="white" stroke-width="0.786079"/>
<path d="M928.341 419.221L907.451 404.594" stroke="white" stroke-width="0.786079"/>
<path d="M1033.21 492.649L1012.32 478.022" stroke="white" stroke-width="0.786079"/>
<path d="M925.938 422.992L903.854 410.241" stroke="white" stroke-width="0.786079"/>
<path d="M1036.8 487.001L1014.72 474.25" stroke="white" stroke-width="0.786079"/>
<path d="M923.873 426.959L900.761 416.181" stroke="white" stroke-width="0.786079"/>
<path d="M1039.9 481.061L1016.78 470.284" stroke="white" stroke-width="0.786079"/>
<path d="M922.162 431.09L898.198 422.368" stroke="white" stroke-width="0.786079"/>
<path d="M1042.46 474.875L1018.5 466.153" stroke="white" stroke-width="0.786079"/>
<path d="M920.817 435.355L896.185 428.754" stroke="white" stroke-width="0.786079"/>
<path d="M1044.47 468.488L1019.84 461.888" stroke="white" stroke-width="0.786079"/>
<path d="M919.849 439.721L894.735 435.292" stroke="white" stroke-width="0.786079"/>
<path d="M1045.92 461.951L1020.81 457.522" stroke="white" stroke-width="0.786079"/>
<path d="M919.266 444.154L893.861 441.931" stroke="white" stroke-width="0.786079"/>
<path d="M1046.8 455.311L1021.39 453.089" stroke="white" stroke-width="0.786079"/>
<path d="M919.071 448.621H893.569" stroke="white" stroke-width="0.786079"/>
<path d="M1047.09 448.621H1021.59" stroke="white" stroke-width="0.786079"/>
<path d="M919.266 453.089L893.861 455.311" stroke="white" stroke-width="0.786079"/>
<path d="M1046.8 441.931L1021.39 444.154" stroke="white" stroke-width="0.786079"/>
<path d="M919.849 457.522L894.735 461.951" stroke="white" stroke-width="0.786079"/>
<path d="M1045.92 435.292L1020.81 439.721" stroke="white" stroke-width="0.786079"/>
<path d="M920.817 461.888L896.185 468.488" stroke="white" stroke-width="0.786079"/>
<path d="M1044.47 428.755L1019.84 435.355" stroke="white" stroke-width="0.786079"/>
<path d="M922.162 466.152L898.199 474.874" stroke="white" stroke-width="0.786079"/>
<path d="M1042.46 422.368L1018.5 431.09" stroke="white" stroke-width="0.786079"/>
<path d="M923.873 470.284L900.761 481.061" stroke="white" stroke-width="0.786079"/>
<path d="M1039.9 416.181L1016.78 426.959" stroke="white" stroke-width="0.786079"/>
<path d="M925.938 474.25L903.853 487.001" stroke="white" stroke-width="0.786079"/>
<path d="M1036.8 410.242L1014.72 422.992" stroke="white" stroke-width="0.786079"/>
<path d="M928.34 478.021L907.451 492.648" stroke="white" stroke-width="0.786079"/>
<path d="M1033.21 404.594L1012.32 419.221" stroke="white" stroke-width="0.786079"/>
<path d="M931.063 481.569L911.527 497.961" stroke="white" stroke-width="0.786079"/>
<path d="M1029.13 399.281L1009.59 415.673" stroke="white" stroke-width="0.786079"/>
<path d="M934.084 484.866L916.052 502.899" stroke="white" stroke-width="0.786079"/>
<path d="M1024.61 394.344L1006.57 412.377" stroke="white" stroke-width="0.786079"/>
<path d="M937.381 487.887L920.989 507.423" stroke="white" stroke-width="0.786079"/>
<path d="M1019.67 389.82L1003.28 409.356" stroke="white" stroke-width="0.786079"/>
<path d="M940.928 490.61L926.301 511.499" stroke="white" stroke-width="0.786079"/>
<path d="M1014.36 385.744L999.729 406.633" stroke="white" stroke-width="0.786079"/>
<path d="M944.699 493.012L931.949 515.097" stroke="white" stroke-width="0.786079"/>
<path d="M1008.71 382.146L995.957 404.231" stroke="white" stroke-width="0.786079"/>
<path d="M948.666 495.077L937.889 518.189" stroke="white" stroke-width="0.786079"/>
<path d="M1002.77 379.054L991.991 402.166" stroke="white" stroke-width="0.786079"/>
<path d="M952.797 496.788L944.075 520.751" stroke="white" stroke-width="0.786079"/>
<path d="M996.582 376.491L987.86 400.455" stroke="white" stroke-width="0.786079"/>
<path d="M957.061 498.133L950.461 522.765" stroke="white" stroke-width="0.786079"/>
<path d="M990.195 374.477L983.595 399.11" stroke="white" stroke-width="0.786079"/>
<path d="M961.426 499.101L956.998 524.215" stroke="white" stroke-width="0.786079"/>
<path d="M983.658 373.028L979.23 398.142" stroke="white" stroke-width="0.786079"/>
<path d="M965.861 499.684L963.638 525.089" stroke="white" stroke-width="0.786079"/>
<path d="M977.019 372.154L974.796 397.558" stroke="white" stroke-width="0.786079"/>
<path d="M830.145 286.114V265.756" stroke="white" stroke-width="0.786079"/>
<path d="M830.145 388.313V367.955" stroke="white" stroke-width="0.786079"/>
<path d="M826.58 286.27L824.805 265.989" stroke="white" stroke-width="0.786079"/>
<path d="M835.486 388.08L833.711 367.799" stroke="white" stroke-width="0.786079"/>
<path d="M823.04 286.736L819.504 266.686" stroke="white" stroke-width="0.786079"/>
<path d="M840.786 387.382L837.25 367.333" stroke="white" stroke-width="0.786079"/>
<path d="M819.554 287.508L814.285 267.844" stroke="white" stroke-width="0.786079"/>
<path d="M846.005 386.225L840.736 366.56" stroke="white" stroke-width="0.786079"/>
<path d="M816.149 288.582L809.187 269.451" stroke="white" stroke-width="0.786079"/>
<path d="M851.103 384.617L844.14 365.487" stroke="white" stroke-width="0.786079"/>
<path d="M812.851 289.948L804.248 271.497" stroke="white" stroke-width="0.786079"/>
<path d="M856.043 382.572L847.439 364.121" stroke="white" stroke-width="0.786079"/>
<path d="M809.685 291.596L799.505 273.965" stroke="white" stroke-width="0.786079"/>
<path d="M860.784 380.103L850.605 362.472" stroke="white" stroke-width="0.786079"/>
<path d="M806.675 293.514L794.998 276.837" stroke="white" stroke-width="0.786079"/>
<path d="M865.293 377.231L853.616 360.554" stroke="white" stroke-width="0.786079"/>
<path d="M803.842 295.688L790.756 280.092" stroke="white" stroke-width="0.786079"/>
<path d="M869.534 373.976L856.448 358.381" stroke="white" stroke-width="0.786079"/>
<path d="M801.211 298.098L786.816 283.703" stroke="white" stroke-width="0.786079"/>
<path d="M873.476 370.365L859.081 355.969" stroke="white" stroke-width="0.786079"/>
<path d="M798.798 300.731L783.202 287.645" stroke="white" stroke-width="0.786079"/>
<path d="M877.087 366.423L861.491 353.337" stroke="white" stroke-width="0.786079"/>
<path d="M796.625 303.563L779.949 291.886" stroke="white" stroke-width="0.786079"/>
<path d="M880.342 362.182L863.665 350.505" stroke="white" stroke-width="0.786079"/>
<path d="M794.707 306.574L777.076 296.395" stroke="white" stroke-width="0.786079"/>
<path d="M883.213 357.674L865.583 347.494" stroke="white" stroke-width="0.786079"/>
<path d="M793.058 309.741L774.607 301.137" stroke="white" stroke-width="0.786079"/>
<path d="M885.682 352.932L867.231 344.328" stroke="white" stroke-width="0.786079"/>
<path d="M791.693 313.039L772.562 306.076" stroke="white" stroke-width="0.786079"/>
<path d="M887.729 347.993L868.598 341.03" stroke="white" stroke-width="0.786079"/>
<path d="M790.619 316.443L770.954 311.174" stroke="white" stroke-width="0.786079"/>
<path d="M889.336 342.894L869.671 337.625" stroke="white" stroke-width="0.786079"/>
<path d="M789.846 319.929L769.797 316.393" stroke="white" stroke-width="0.786079"/>
<path d="M890.492 337.675L870.443 334.14" stroke="white" stroke-width="0.786079"/>
<path d="M789.38 323.468L769.1 321.693" stroke="white" stroke-width="0.786079"/>
<path d="M891.19 332.375L870.909 330.601" stroke="white" stroke-width="0.786079"/>
<path d="M789.225 327.034H768.866" stroke="white" stroke-width="0.786079"/>
<path d="M891.423 327.034H871.064" stroke="white" stroke-width="0.786079"/>
<path d="M789.38 330.601L769.1 332.375" stroke="white" stroke-width="0.786079"/>
<path d="M891.19 321.693L870.909 323.468" stroke="white" stroke-width="0.786079"/>
<path d="M789.846 334.14L769.797 337.675" stroke="white" stroke-width="0.786079"/>
<path d="M890.492 316.393L870.443 319.929" stroke="white" stroke-width="0.786079"/>
<path d="M790.619 337.625L770.954 342.894" stroke="white" stroke-width="0.786079"/>
<path d="M889.336 311.174L869.671 316.443" stroke="white" stroke-width="0.786079"/>
<path d="M791.693 341.03L772.562 347.993" stroke="white" stroke-width="0.786079"/>
<path d="M887.728 306.076L868.598 313.039" stroke="white" stroke-width="0.786079"/>
<path d="M793.058 344.328L774.607 352.932" stroke="white" stroke-width="0.786079"/>
<path d="M885.682 301.137L867.231 309.741" stroke="white" stroke-width="0.786079"/>
<path d="M794.707 347.494L777.076 357.674" stroke="white" stroke-width="0.786079"/>
<path d="M883.213 296.395L865.583 306.574" stroke="white" stroke-width="0.786079"/>
<path d="M796.625 350.505L779.949 362.182" stroke="white" stroke-width="0.786079"/>
<path d="M880.342 291.886L863.665 303.563" stroke="white" stroke-width="0.786079"/>
<path d="M798.798 353.337L783.202 366.423" stroke="white" stroke-width="0.786079"/>
<path d="M877.087 287.645L861.491 300.731" stroke="white" stroke-width="0.786079"/>
<path d="M801.21 355.969L786.815 370.365" stroke="white" stroke-width="0.786079"/>
<path d="M873.476 283.704L859.081 298.099" stroke="white" stroke-width="0.786079"/>
<path d="M803.842 358.381L790.756 373.976" stroke="white" stroke-width="0.786079"/>
<path d="M869.534 280.092L856.448 295.687" stroke="white" stroke-width="0.786079"/>
<path d="M806.674 360.554L794.997 377.231" stroke="white" stroke-width="0.786079"/>
<path d="M865.293 276.838L853.616 293.514" stroke="white" stroke-width="0.786079"/>
<path d="M809.685 362.472L799.505 380.103" stroke="white" stroke-width="0.786079"/>
<path d="M860.784 273.965L850.604 291.596" stroke="white" stroke-width="0.786079"/>
<path d="M812.851 364.121L804.248 382.571" stroke="white" stroke-width="0.786079"/>
<path d="M856.043 271.497L847.439 289.948" stroke="white" stroke-width="0.786079"/>
<path d="M816.149 365.487L809.187 384.617" stroke="white" stroke-width="0.786079"/>
<path d="M851.104 269.451L844.141 288.582" stroke="white" stroke-width="0.786079"/>
<path d="M819.554 366.56L814.285 386.225" stroke="white" stroke-width="0.786079"/>
<path d="M846.005 267.844L840.736 287.508" stroke="white" stroke-width="0.786079"/>
<path d="M823.039 367.333L819.504 387.382" stroke="white" stroke-width="0.786079"/>
<path d="M840.786 266.687L837.25 286.736" stroke="white" stroke-width="0.786079"/>
<path d="M826.579 367.799L824.804 388.08" stroke="white" stroke-width="0.786079"/>
<path d="M835.486 265.989L833.711 286.27" stroke="white" stroke-width="0.786079"/>
<path d="M1220 451.5L1160.63 544.013V603.756" stroke="white" stroke-width="9.43295"/>
<path d="M1185.36 632.5V669" stroke="white" stroke-width="4"/>
<path d="M1210 618V669" stroke="white" stroke-width="4"/>
<path d="M1234 630V669" stroke="white" stroke-width="4"/>
<path d="M1260 643V669" stroke="white" stroke-width="4"/>
<path d="M1137 603L1137 669" stroke="white" stroke-width="4"/>
<path d="M1161 618V669" stroke="white" stroke-width="9.43295"/>
<path d="M1296.04 285.766V336.901C1296.04 339.712 1298.32 341.991 1301.13 341.991C1303.94 341.991 1306.22 339.712 1306.22 336.901V317.4H1337.42V319.359C1337.42 322.261 1339.77 324.613 1342.67 324.613C1345.57 324.613 1347.92 322.261 1347.92 319.359V285.931C1347.92 283.029 1345.57 280.677 1342.67 280.677C1339.77 280.677 1337.42 283.029 1337.42 285.931V306.58H1306.22V285.766C1306.22 282.955 1303.94 280.677 1301.13 280.677C1298.32 280.677 1296.04 282.955 1296.04 285.766Z" stroke="white" stroke-width="2.35824"/>
<path d="M1342.67 341.991C1345.57 341.991 1347.92 339.642 1347.92 336.745C1347.92 333.847 1345.57 331.499 1342.67 331.499C1339.77 331.499 1337.42 333.847 1337.42 336.745C1337.42 339.642 1339.77 341.991 1342.67 341.991Z" stroke="white" stroke-width="2.35824"/>
</svg>
