<svg width="1440" height="440" viewBox="0 0 1440 440" fill="none" xmlns="http://www.w3.org/2000/svg">
<path d="M1082.94 384.411C1175.72 384.411 1250.94 310.132 1250.94 218.504C1250.94 126.876 1175.72 52.597 1082.94 52.597" stroke="#103957" stroke-width="6.97089"/>
<path d="M1152.49 326.274C1212.07 289.292 1230.75 211.606 1194.21 152.759C1157.68 93.9114 1079.77 76.186 1020.2 113.168" stroke="#103957" stroke-width="6.97089"/>
<path d="M1152.49 326.274C1212.07 289.292 1230.75 211.606 1194.21 152.759C1157.68 93.9114 1079.77 76.186 1020.2 113.168" stroke="#103957" stroke-width="6.97089"/>
<path d="M975.748 259.258C993.125 302.819 1031.63 331.557 1074.48 338.134" stroke="#0088FF" stroke-width="6.97089"/>
<path d="M1221.03 272.239C1250.28 196.744 1212.8 111.827 1137.3 82.572" stroke="#103957" stroke-width="12.5476" stroke-linejoin="round"/>
<path d="M972.798 127.997C1009.19 83.2478 1066.51 65.5495 1119.19 77.5379" stroke="#0088FF" stroke-width="12.5476" stroke-linejoin="round"/>
<path d="M1243.62 129.974C1224.93 87.9734 1186.4 63.8696 1160.5 51.7982V0.5" stroke="#103957" stroke-width="8.36507"/>
<path d="M1091.3 141.234V103.485" stroke="#103957" stroke-width="0.697089"/>
<path d="M1091.3 330.736V292.986" stroke="#103957" stroke-width="0.697089"/>
<path d="M1084.69 141.523L1081.4 103.917" stroke="#103957" stroke-width="0.697089"/>
<path d="M1101.21 330.303L1097.92 292.698" stroke="#103957" stroke-width="0.697089"/>
<path d="M1078.13 142.387L1071.57 105.211" stroke="#103957" stroke-width="0.697089"/>
<path d="M1111.04 329.009L1104.48 291.834" stroke="#103957" stroke-width="0.697089"/>
<path d="M1071.67 143.819L1061.9 107.356" stroke="#103957" stroke-width="0.697089"/>
<path d="M1120.71 326.864L1110.94 290.401" stroke="#103957" stroke-width="0.697089"/>
<path d="M1065.35 145.81L1052.44 110.337" stroke="#103957" stroke-width="0.697089"/>
<path d="M1130.17 323.883L1117.25 288.41" stroke="#103957" stroke-width="0.697089"/>
<path d="M1059.24 148.343L1043.28 114.131" stroke="#103957" stroke-width="0.697089"/>
<path d="M1139.32 320.09L1123.37 285.877" stroke="#103957" stroke-width="0.697089"/>
<path d="M1053.37 151.4L1034.49 118.708" stroke="#103957" stroke-width="0.697089"/>
<path d="M1148.12 315.513L1129.24 282.821" stroke="#103957" stroke-width="0.697089"/>
<path d="M1047.78 154.956L1026.13 124.034" stroke="#103957" stroke-width="0.697089"/>
<path d="M1156.48 310.187L1134.82 279.264" stroke="#103957" stroke-width="0.697089"/>
<path d="M1042.53 158.986L1018.27 130.068" stroke="#103957" stroke-width="0.697089"/>
<path d="M1164.34 304.153L1140.08 275.235" stroke="#103957" stroke-width="0.697089"/>
<path d="M1037.65 163.458L1010.96 136.765" stroke="#103957" stroke-width="0.697089"/>
<path d="M1171.65 297.456L1144.96 270.763" stroke="#103957" stroke-width="0.697089"/>
<path d="M1033.18 168.337L1004.26 144.072" stroke="#103957" stroke-width="0.697089"/>
<path d="M1178.35 290.147L1149.43 265.882" stroke="#103957" stroke-width="0.697089"/>
<path d="M1029.15 173.589L998.228 151.937" stroke="#103957" stroke-width="0.697089"/>
<path d="M1184.38 282.283L1153.46 260.631" stroke="#103957" stroke-width="0.697089"/>
<path d="M1025.59 179.172L992.901 160.297" stroke="#103957" stroke-width="0.697089"/>
<path d="M1189.71 273.923L1157.01 255.048" stroke="#103957" stroke-width="0.697089"/>
<path d="M1022.54 185.043L988.324 169.09" stroke="#103957" stroke-width="0.697089"/>
<path d="M1194.28 265.13L1160.07 249.177" stroke="#103957" stroke-width="0.697089"/>
<path d="M1020 191.159L984.531 178.248" stroke="#103957" stroke-width="0.697089"/>
<path d="M1198.08 255.972L1162.6 243.061" stroke="#103957" stroke-width="0.697089"/>
<path d="M1018.01 197.471L981.55 187.701" stroke="#103957" stroke-width="0.697089"/>
<path d="M1201.06 246.519L1164.59 236.748" stroke="#103957" stroke-width="0.697089"/>
<path d="M1016.58 203.934L979.404 197.379" stroke="#103957" stroke-width="0.697089"/>
<path d="M1203.2 236.841L1166.03 230.286" stroke="#103957" stroke-width="0.697089"/>
<path d="M1015.72 210.497L978.11 207.207" stroke="#103957" stroke-width="0.697089"/>
<path d="M1204.5 227.013L1166.89 223.723" stroke="#103957" stroke-width="0.697089"/>
<path d="M1015.43 217.11H977.678" stroke="#103957" stroke-width="0.697089"/>
<path d="M1204.93 217.11H1167.18" stroke="#103957" stroke-width="0.697089"/>
<path d="M1015.72 223.723L978.11 227.013" stroke="#103957" stroke-width="0.697089"/>
<path d="M1204.5 207.207L1166.89 210.497" stroke="#103957" stroke-width="0.697089"/>
<path d="M1016.58 230.285L979.404 236.841" stroke="#103957" stroke-width="0.697089"/>
<path d="M1203.2 197.379L1166.03 203.935" stroke="#103957" stroke-width="0.697089"/>
<path d="M1018.01 236.748L981.55 246.519" stroke="#103957" stroke-width="0.697089"/>
<path d="M1201.06 187.702L1164.59 197.472" stroke="#103957" stroke-width="0.697089"/>
<path d="M1020 243.06L984.53 255.971" stroke="#103957" stroke-width="0.697089"/>
<path d="M1198.08 178.248L1162.6 191.159" stroke="#103957" stroke-width="0.697089"/>
<path d="M1022.54 249.177L988.324 265.13" stroke="#103957" stroke-width="0.697089"/>
<path d="M1194.28 169.09L1160.07 185.043" stroke="#103957" stroke-width="0.697089"/>
<path d="M1025.59 255.048L992.901 273.923" stroke="#103957" stroke-width="0.697089"/>
<path d="M1189.71 160.298L1157.02 179.172" stroke="#103957" stroke-width="0.697089"/>
<path d="M1029.15 260.63L998.226 282.282" stroke="#103957" stroke-width="0.697089"/>
<path d="M1184.38 151.937L1153.46 173.589" stroke="#103957" stroke-width="0.697089"/>
<path d="M1033.18 265.882L1004.26 290.147" stroke="#103957" stroke-width="0.697089"/>
<path d="M1178.35 144.073L1149.43 168.338" stroke="#103957" stroke-width="0.697089"/>
<path d="M1037.65 270.761L1010.96 297.454" stroke="#103957" stroke-width="0.697089"/>
<path d="M1171.65 136.765L1144.96 163.458" stroke="#103957" stroke-width="0.697089"/>
<path d="M1042.53 275.234L1018.27 304.152" stroke="#103957" stroke-width="0.697089"/>
<path d="M1164.34 130.068L1140.08 158.986" stroke="#103957" stroke-width="0.697089"/>
<path d="M1047.78 279.264L1026.13 310.186" stroke="#103957" stroke-width="0.697089"/>
<path d="M1156.48 124.034L1134.82 154.956" stroke="#103957" stroke-width="0.697089"/>
<path d="M1053.36 282.82L1034.49 315.512" stroke="#103957" stroke-width="0.697089"/>
<path d="M1148.12 118.708L1129.24 151.4" stroke="#103957" stroke-width="0.697089"/>
<path d="M1059.24 285.877L1043.28 320.09" stroke="#103957" stroke-width="0.697089"/>
<path d="M1139.32 114.131L1123.37 148.343" stroke="#103957" stroke-width="0.697089"/>
<path d="M1065.35 288.41L1052.44 323.883" stroke="#103957" stroke-width="0.697089"/>
<path d="M1130.17 110.337L1117.26 145.81" stroke="#103957" stroke-width="0.697089"/>
<path d="M1071.66 290.401L1061.89 326.864" stroke="#103957" stroke-width="0.697089"/>
<path d="M1120.71 107.356L1110.94 143.819" stroke="#103957" stroke-width="0.697089"/>
<path d="M1078.13 291.834L1071.57 329.009" stroke="#103957" stroke-width="0.697089"/>
<path d="M1111.04 105.211L1104.48 142.387" stroke="#103957" stroke-width="0.697089"/>
<path d="M1084.69 292.698L1081.4 330.303" stroke="#103957" stroke-width="0.697089"/>
<path d="M1101.21 103.917L1097.92 141.523" stroke="#103957" stroke-width="0.697089"/>
<path d="M1066.56 175.285C1066.56 175.491 1066.56 181.528 1066.56 186.439C1066.56 189.904 1063.75 192.712 1060.28 192.712H1056.1C1056.1 192.712 1056.1 192.712 1056.1 192.712C1056.1 192.712 1048.08 192.712 1048.08 193.061C1048.08 194.183 1048.08 235.313 1048.08 251.287C1048.08 254.752 1050.89 257.541 1054.36 257.541H1112.91C1116.38 257.541 1119.19 254.732 1119.19 251.268V246.039M1066.56 175.285C1066.56 175.011 1099.04 175.167 1112.97 175.247C1116.41 175.267 1119.19 178.069 1119.19 181.517V194.803M1066.56 175.285L1048.08 192.712M1063.77 204.563H1087.47M1063.77 217.807H1087.47M1063.77 229.658H1087.47M1063.77 241.16H1087.47M1098.62 193.061L1135.92 211.882M1098.62 193.061L1101.41 205.26M1098.62 193.061L1109.78 188.181" stroke="#103957" stroke-width="4.18253"/>
<path d="M1103.15 240.114V210.139H1110.12V240.114H1103.15Z" stroke="#0088FF" stroke-width="2.78836"/>
<path d="M1117.1 240.114V217.807H1124.07V240.114H1117.1Z" stroke="#0088FF" stroke-width="2.78836"/>
<path d="M1130.34 240.114V224.778H1137.31V240.114H1130.34Z" stroke="#0088FF" stroke-width="2.78836"/>
<path d="M1143.59 240.114V232.446H1150.56V240.114H1143.59Z" stroke="#0088FF" stroke-width="2.78836"/>
<path d="M968.106 278.587C997.717 341.356 1075.24 372.894 1138.01 343.283" stroke="#0088FF" stroke-width="6.2738"/>
<path d="M783 302.5L720 328V357.5V404" stroke="#103957" stroke-width="8.36507"/>
<path d="M982.5 304.5L887.5 395.5L848.486 355.281" stroke="#0088FF" stroke-width="6.2738"/>
<path d="M893 403.46L901.365 411.825" stroke="#103957" stroke-width="2.09127"/>
<path d="M897.183 399.278L905.548 407.643" stroke="#103957" stroke-width="2.09127"/>
<path d="M901.365 395.095L909.73 403.46" stroke="#103957" stroke-width="2.09127"/>
<path d="M905.547 390.913L913.912 399.278" stroke="#103957" stroke-width="2.09127"/>
<path d="M909.73 386.73L918.095 395.095" stroke="#103957" stroke-width="2.09127"/>
<path d="M913.912 382.548L922.277 390.913" stroke="#103957" stroke-width="2.09127"/>
<path d="M918.095 378.365L935.173 395.444" stroke="#103957" stroke-width="2.09127"/>
<path d="M922.277 374.183L943.539 395.444" stroke="#103957" stroke-width="2.09127"/>
<path d="M926.459 370L951.903 395.444" stroke="#103957" stroke-width="2.09127"/>
<path d="M827.359 294.834C827.359 307.383 817.186 317.556 804.636 317.556C792.087 317.556 781.914 307.383 781.914 294.834C781.914 282.285 792.087 272.111 804.636 272.111C817.186 272.111 827.359 282.285 827.359 294.834Z" stroke="#103957" stroke-width="2.78836"/>
<path d="M821.276 294.834C821.276 304.024 813.826 311.474 804.636 311.474C795.446 311.474 787.996 304.024 787.996 294.834C787.996 285.644 795.446 278.194 804.636 278.194C813.826 278.194 821.276 285.644 821.276 294.834Z" stroke="#103957" stroke-width="2.09127"/>
<path d="M815.194 294.834C815.194 300.664 810.467 305.391 804.637 305.391C798.806 305.391 794.079 300.664 794.079 294.834C794.079 289.003 798.806 284.276 804.637 284.276C810.467 284.276 815.194 289.003 815.194 294.834Z" stroke="#103957" stroke-width="1.39418"/>
<path d="M803.771 264.287L803.375 249.123" stroke="#103957" stroke-width="0.697089"/>
<path d="M805.763 340.411L805.366 325.247" stroke="#103957" stroke-width="0.697089"/>
<path d="M801.118 264.473L799.401 249.401" stroke="#103957" stroke-width="0.697089"/>
<path d="M809.737 340.133L808.02 325.061" stroke="#103957" stroke-width="0.697089"/>
<path d="M798.492 264.889L795.468 250.024" stroke="#103957" stroke-width="0.697089"/>
<path d="M813.672 339.51L810.648 324.645" stroke="#103957" stroke-width="0.697089"/>
<path d="M795.91 265.532L791.602 250.987" stroke="#103957" stroke-width="0.697089"/>
<path d="M817.537 338.546L813.229 324.002" stroke="#103957" stroke-width="0.697089"/>
<path d="M793.395 266.398L787.835 252.284" stroke="#103957" stroke-width="0.697089"/>
<path d="M821.303 337.249L815.744 323.136" stroke="#103957" stroke-width="0.697089"/>
<path d="M790.965 267.48L784.197 253.904" stroke="#103957" stroke-width="0.697089"/>
<path d="M824.942 335.629L818.173 322.054" stroke="#103957" stroke-width="0.697089"/>
<path d="M788.639 268.77L780.713 255.836" stroke="#103957" stroke-width="0.697089"/>
<path d="M828.425 333.698L820.5 320.764" stroke="#103957" stroke-width="0.697089"/>
<path d="M786.433 270.257L777.41 258.063" stroke="#103957" stroke-width="0.697089"/>
<path d="M831.728 331.471L822.705 319.277" stroke="#103957" stroke-width="0.697089"/>
<path d="M784.367 271.931L774.315 260.57" stroke="#103957" stroke-width="0.697089"/>
<path d="M834.824 328.964L824.772 317.603" stroke="#103957" stroke-width="0.697089"/>
<path d="M782.452 273.778L771.449 263.336" stroke="#103957" stroke-width="0.697089"/>
<path d="M837.689 326.197L826.686 315.755" stroke="#103957" stroke-width="0.697089"/>
<path d="M780.707 275.786L768.836 266.343" stroke="#103957" stroke-width="0.697089"/>
<path d="M840.302 323.191L828.43 313.748" stroke="#103957" stroke-width="0.697089"/>
<path d="M779.144 277.938L766.495 269.565" stroke="#103957" stroke-width="0.697089"/>
<path d="M842.644 319.968L829.995 311.596" stroke="#103957" stroke-width="0.697089"/>
<path d="M777.774 280.218L764.443 272.979" stroke="#103957" stroke-width="0.697089"/>
<path d="M844.695 316.554L831.364 309.316" stroke="#103957" stroke-width="0.697089"/>
<path d="M776.608 282.609L762.697 276.56" stroke="#103957" stroke-width="0.697089"/>
<path d="M846.442 312.974L832.531 306.925" stroke="#103957" stroke-width="0.697089"/>
<path d="M775.655 285.092L761.27 280.278" stroke="#103957" stroke-width="0.697089"/>
<path d="M847.869 309.255L833.483 304.442" stroke="#103957" stroke-width="0.697089"/>
<path d="M774.922 287.648L760.172 284.107" stroke="#103957" stroke-width="0.697089"/>
<path d="M848.967 305.427L834.217 301.885" stroke="#103957" stroke-width="0.697089"/>
<path d="M774.414 290.26L759.412 288.017" stroke="#103957" stroke-width="0.697089"/>
<path d="M849.727 301.517L834.724 299.274" stroke="#103957" stroke-width="0.697089"/>
<path d="M774.136 292.905L758.995 291.979" stroke="#103957" stroke-width="0.697089"/>
<path d="M850.143 297.555L835.002 296.629" stroke="#103957" stroke-width="0.697089"/>
<path d="M774.089 295.564L758.925 295.961" stroke="#103957" stroke-width="0.697089"/>
<path d="M850.212 293.572L835.048 293.969" stroke="#103957" stroke-width="0.697089"/>
<path d="M774.275 298.218L759.204 299.935" stroke="#103957" stroke-width="0.697089"/>
<path d="M849.935 289.599L834.863 291.316" stroke="#103957" stroke-width="0.697089"/>
<path d="M774.691 300.845L759.827 303.869" stroke="#103957" stroke-width="0.697089"/>
<path d="M849.312 285.665L834.447 288.689" stroke="#103957" stroke-width="0.697089"/>
<path d="M775.335 303.426L760.79 307.734" stroke="#103957" stroke-width="0.697089"/>
<path d="M848.349 281.8L833.804 286.108" stroke="#103957" stroke-width="0.697089"/>
<path d="M776.2 305.94L762.086 311.5" stroke="#103957" stroke-width="0.697089"/>
<path d="M847.052 278.033L832.938 283.593" stroke="#103957" stroke-width="0.697089"/>
<path d="M777.282 308.371L763.707 315.139" stroke="#103957" stroke-width="0.697089"/>
<path d="M845.432 274.394L831.856 281.163" stroke="#103957" stroke-width="0.697089"/>
<path d="M778.572 310.697L765.638 318.623" stroke="#103957" stroke-width="0.697089"/>
<path d="M843.5 270.911L830.566 278.836" stroke="#103957" stroke-width="0.697089"/>
<path d="M780.059 312.903L767.865 321.925" stroke="#103957" stroke-width="0.697089"/>
<path d="M841.273 267.608L829.079 276.631" stroke="#103957" stroke-width="0.697089"/>
<path d="M781.733 314.97L770.372 325.021" stroke="#103957" stroke-width="0.697089"/>
<path d="M838.766 264.513L827.405 274.564" stroke="#103957" stroke-width="0.697089"/>
<path d="M783.58 316.883L773.138 327.886" stroke="#103957" stroke-width="0.697089"/>
<path d="M835.999 261.647L825.557 272.651" stroke="#103957" stroke-width="0.697089"/>
<path d="M785.588 318.628L776.145 330.5" stroke="#103957" stroke-width="0.697089"/>
<path d="M832.993 259.034L823.55 270.905" stroke="#103957" stroke-width="0.697089"/>
<path d="M787.739 320.191L779.367 332.84" stroke="#103957" stroke-width="0.697089"/>
<path d="M829.771 256.693L821.398 269.342" stroke="#103957" stroke-width="0.697089"/>
<path d="M790.02 321.562L782.782 334.893" stroke="#103957" stroke-width="0.697089"/>
<path d="M826.357 254.641L819.118 267.972" stroke="#103957" stroke-width="0.697089"/>
<path d="M792.411 322.728L786.362 336.639" stroke="#103957" stroke-width="0.697089"/>
<path d="M822.776 252.895L816.728 266.806" stroke="#103957" stroke-width="0.697089"/>
<path d="M794.894 323.681L790.08 338.066" stroke="#103957" stroke-width="0.697089"/>
<path d="M819.057 251.467L814.244 265.852" stroke="#103957" stroke-width="0.697089"/>
<path d="M797.452 324.414L793.91 339.164" stroke="#103957" stroke-width="0.697089"/>
<path d="M815.229 250.369L811.688 265.119" stroke="#103957" stroke-width="0.697089"/>
<path d="M800.062 324.922L797.82 339.924" stroke="#103957" stroke-width="0.697089"/>
<path d="M811.319 249.609L809.077 264.612" stroke="#103957" stroke-width="0.697089"/>
<path d="M802.706 325.2L801.78 340.341" stroke="#103957" stroke-width="0.697089"/>
<path d="M807.358 249.193L806.432 264.334" stroke="#103957" stroke-width="0.697089"/>
<path d="M861.922 277.688C871.418 309.407 853.402 342.817 821.684 352.312C795.104 360.269 767.335 348.907 753.448 326.351" stroke="#103957" stroke-width="2.78836"/>
<path d="M874.209 275.812C885.551 313.699 864.033 353.606 826.146 364.948C806.334 370.879 785.969 367.824 769.426 358.141" stroke="#0088FF" stroke-width="6.2738"/>
<path d="M755 440C755 420.118 739.106 404 719.5 404C699.894 404 684 420.118 684 440" stroke="#103957" stroke-width="5.57671"/>
<path d="M741 440C741 427.85 731.15 418 719 418C706.85 418 697 427.85 697 440" stroke="#103957" stroke-width="4.18253"/>
<path d="M757.745 308.875C765.474 334.692 792.668 349.356 818.485 341.627C844.303 333.899 858.967 306.704 851.238 280.887" stroke="#103957" stroke-width="1.39418"/>
<path d="M937 371.73L945.365 380.095" stroke="#103957" stroke-width="2.09127"/>
<path d="M941.183 367.547L949.548 375.912" stroke="#103957" stroke-width="2.09127"/>
<path d="M945.365 363.365L953.73 371.73" stroke="#103957" stroke-width="2.09127"/>
<path d="M949.547 359.182L957.912 367.548" stroke="#103957" stroke-width="2.09127"/>
<path d="M953.73 355L962.095 363.365" stroke="#103957" stroke-width="2.09127"/>
<path d="M829.709 246.934C829.709 246.934 824.047 242.117 818.68 242.796" stroke="#103957" stroke-width="1.39418"/>
<path d="M815.385 274.542L844.303 221.091L851.391 225.282" stroke="#103957" stroke-width="1.39418"/>
<path d="M867.806 221.846C873.237 225.128 874.979 232.191 871.697 237.622C868.415 243.053 861.352 244.795 855.921 241.514C850.49 238.232 848.748 231.169 852.03 225.738C855.312 220.307 862.375 218.564 867.806 221.846Z" stroke="#103957" stroke-width="2.09127"/>
<path d="M866.077 224.707C869.928 227.034 871.163 232.043 868.836 235.893C866.509 239.744 861.501 240.98 857.65 238.653C853.799 236.326 852.564 231.317 854.891 227.467C857.218 223.616 862.226 222.38 866.077 224.707Z" stroke="#103957" stroke-width="2.09127"/>
<path d="M864.708 226.972C867.309 228.543 868.143 231.925 866.572 234.525C865 237.126 861.618 237.96 859.018 236.388C856.418 234.817 855.583 231.435 857.155 228.835C858.726 226.235 862.108 225.4 864.708 226.972Z" stroke="#103957" stroke-width="0.697089"/>
<path d="M817.66 241.592C818.464 242.078 818.722 243.124 818.236 243.927C817.75 244.731 816.705 244.989 815.901 244.503C815.097 244.018 814.839 242.972 815.325 242.168C815.811 241.364 816.856 241.107 817.66 241.592Z" stroke="#103957" stroke-width="1.39418"/>
</svg>
