<svg width="1440" height="480" viewBox="0 0 1440 480" fill="none" xmlns="http://www.w3.org/2000/svg">
<g clip-path="url(#clip0)">
<path d="M194.367 323.049C194.367 323.049 182.452 302.196 181.057 286.43" stroke="#0088FF" stroke-width="1.4348"/>
<path d="M522.856 319.807C466.219 394.624 362.98 411.881 292.265 358.35C221.549 304.819 210.136 200.772 266.772 125.954" stroke="white" stroke-width="7.17401"/>
<path d="M429.218 337.289C372.948 362.219 307.368 337.369 282.742 281.785C258.116 226.2 283.769 160.93 340.04 136" stroke="white" stroke-width="7.17401"/>
<path d="M358.175 369.672C282.415 352.054 235.282 276.356 252.9 200.596" stroke="#0088FF" stroke-width="12.9132" stroke-linejoin="round"/>
<path d="M442.247 97.0002C516.618 119.781 558.44 198.537 535.66 272.908" stroke="white" stroke-width="12.9132" stroke-linejoin="round"/>
<path d="M259 290.5L173.129 334.21L181.6 350.8" stroke="#0088FF" stroke-width="1.4348"/>
<path d="M173.584 378.661C178.63 388.543 190.732 392.464 200.614 387.418C210.497 382.372 214.418 370.27 209.372 360.387C204.326 350.505 192.224 346.584 182.341 351.63C172.459 356.676 168.538 368.778 173.584 378.661Z" stroke="#0088FF" stroke-width="2.1522"/>
<path d="M178.611 376.093C182.239 383.199 190.941 386.019 198.047 382.39C205.153 378.762 207.973 370.06 204.344 362.954C200.716 355.848 192.014 353.029 184.908 356.657C177.802 360.285 174.982 368.987 178.611 376.093Z" stroke="#0088FF" stroke-width="2.1522"/>
<path d="M697.636 436.841L563.5 436.841L488.5 356" stroke="white" stroke-width="7.17401"/>
<path d="M720.496 446.741L720.496 482" stroke="white" stroke-width="7.17401"/>
<path d="M706.503 456.295C716.604 464.142 731.153 462.315 738.999 452.214C746.846 442.113 745.019 427.564 734.918 419.718C724.817 411.871 710.268 413.699 702.422 423.799C694.575 433.9 696.402 448.449 706.503 456.295Z" stroke="white" stroke-width="2.1522"/>
<path d="M713.843 444.551C718.52 448.185 725.256 447.339 728.89 442.662C732.523 437.985 731.677 431.248 727 427.615C722.323 423.982 715.586 424.828 711.953 429.505C708.32 434.182 709.166 440.918 713.843 444.551Z" stroke="white" stroke-width="3.587"/>
<path d="M183.638 373.527C185.849 377.857 191.151 379.575 195.48 377.364C199.81 375.153 201.528 369.851 199.317 365.522C197.106 361.192 191.804 359.474 187.475 361.685C183.145 363.896 181.427 369.198 183.638 373.527Z" stroke="#0088FF" stroke-width="2.1522"/>
<path d="M174.723 282.375C176.314 285.493 180.132 286.73 183.25 285.138C186.368 283.546 187.605 279.728 186.013 276.611C184.421 273.493 180.603 272.256 177.485 273.848C174.368 275.44 173.131 279.258 174.723 282.375Z" stroke="#0088FF" stroke-width="1.4348"/>
<path d="M460.032 180.294L494.196 152.869" stroke="white" stroke-width="0.717401"/>
<path d="M288.532 317.966L322.696 290.541" stroke="white" stroke-width="0.717401"/>
<path d="M454.967 174.518L486.61 144.22" stroke="white" stroke-width="0.717401"/>
<path d="M296.119 326.613L327.762 296.315" stroke="white" stroke-width="0.717401"/>
<path d="M449.418 169.207L478.3 136.266" stroke="white" stroke-width="0.717401"/>
<path d="M304.429 334.568L333.311 301.627" stroke="white" stroke-width="0.717401"/>
<path d="M443.427 164.399L469.328 129.067" stroke="white" stroke-width="0.717401"/>
<path d="M313.401 341.768L339.303 306.435" stroke="white" stroke-width="0.717401"/>
<path d="M437.038 160.132L459.761 122.677" stroke="white" stroke-width="0.717401"/>
<path d="M322.967 348.158L345.69 310.703" stroke="white" stroke-width="0.717401"/>
<path d="M430.303 156.438L449.675 117.145" stroke="white" stroke-width="0.717401"/>
<path d="M333.053 353.69L352.425 314.397" stroke="white" stroke-width="0.717401"/>
<path d="M423.271 153.344L439.145 112.512" stroke="white" stroke-width="0.717401"/>
<path d="M343.584 358.322L359.458 317.49" stroke="white" stroke-width="0.717401"/>
<path d="M415.996 150.875L428.251 108.815" stroke="white" stroke-width="0.717401"/>
<path d="M354.478 362.019L366.732 319.958" stroke="white" stroke-width="0.717401"/>
<path d="M408.536 149.051L417.078 106.083" stroke="white" stroke-width="0.717401"/>
<path d="M365.652 364.752L374.194 321.784" stroke="white" stroke-width="0.717401"/>
<path d="M400.945 147.883L405.709 104.333" stroke="white" stroke-width="0.717401"/>
<path d="M377.022 366.5L381.787 322.951" stroke="white" stroke-width="0.717401"/>
<path d="M393.276 147.381L394.227 103.582" stroke="white" stroke-width="0.717401"/>
<path d="M388.501 367.252L389.452 323.453" stroke="white" stroke-width="0.717401"/>
<path d="M385.596 147.55L382.726 103.834" stroke="white" stroke-width="0.717401"/>
<path d="M400.002 367L397.132 323.285" stroke="white" stroke-width="0.717401"/>
<path d="M377.961 148.387L371.292 105.088" stroke="white" stroke-width="0.717401"/>
<path d="M411.437 365.746L404.769 322.448" stroke="white" stroke-width="0.717401"/>
<path d="M370.426 149.886L360.009 107.333" stroke="white" stroke-width="0.717401"/>
<path d="M422.72 363.501L412.303 320.948" stroke="white" stroke-width="0.717401"/>
<path d="M363.051 152.036L348.964 110.553" stroke="white" stroke-width="0.717401"/>
<path d="M433.764 360.28L419.678 318.797" stroke="white" stroke-width="0.717401"/>
<path d="M355.893 154.821L338.245 114.724" stroke="white" stroke-width="0.717401"/>
<path d="M444.485 356.109L426.836 316.012" stroke="white" stroke-width="0.717401"/>
<path d="M349.005 158.219L327.93 119.812" stroke="white" stroke-width="0.717401"/>
<path d="M454.803 351.021L433.727 312.614" stroke="white" stroke-width="0.717401"/>
<path d="M342.436 162.206L318.093 125.782" stroke="white" stroke-width="0.717401"/>
<path d="M464.637 345.052L440.294 308.629" stroke="white" stroke-width="0.717401"/>
<path d="M336.241 166.748L308.816 132.585" stroke="white" stroke-width="0.717401"/>
<path d="M473.913 338.248L446.488 304.085" stroke="white" stroke-width="0.717401"/>
<path d="M330.467 171.813L300.169 140.17" stroke="white" stroke-width="0.717401"/>
<path d="M482.561 330.663L452.263 299.02" stroke="white" stroke-width="0.717401"/>
<path d="M325.153 177.365L292.213 148.482" stroke="white" stroke-width="0.717401"/>
<path d="M490.515 322.353L457.574 293.471" stroke="white" stroke-width="0.717401"/>
<path d="M320.348 183.353L285.015 157.452" stroke="white" stroke-width="0.717401"/>
<path d="M497.714 313.38L462.381 287.478" stroke="white" stroke-width="0.717401"/>
<path d="M316.079 189.743L278.624 167.02" stroke="white" stroke-width="0.717401"/>
<path d="M504.105 303.814L466.649 281.091" stroke="white" stroke-width="0.717401"/>
<path d="M312.385 196.479L273.091 177.106" stroke="white" stroke-width="0.717401"/>
<path d="M509.638 293.728L470.344 274.356" stroke="white" stroke-width="0.717401"/>
<path d="M309.291 203.51L268.459 187.636" stroke="white" stroke-width="0.717401"/>
<path d="M514.269 283.198L473.437 267.324" stroke="white" stroke-width="0.717401"/>
<path d="M306.824 210.782L264.764 198.527" stroke="white" stroke-width="0.717401"/>
<path d="M517.966 272.305L475.906 260.05" stroke="white" stroke-width="0.717401"/>
<path d="M304.998 218.244L262.03 209.702" stroke="white" stroke-width="0.717401"/>
<path d="M520.699 261.13L477.73 252.588" stroke="white" stroke-width="0.717401"/>
<path d="M303.831 225.839L260.281 221.074" stroke="white" stroke-width="0.717401"/>
<path d="M522.448 249.759L478.899 244.994" stroke="white" stroke-width="0.717401"/>
<path d="M303.328 233.505L259.529 232.554" stroke="white" stroke-width="0.717401"/>
<path d="M523.199 238.28L479.4 237.329" stroke="white" stroke-width="0.717401"/>
<path d="M303.497 241.184L259.782 244.054" stroke="white" stroke-width="0.717401"/>
<path d="M522.948 226.779L479.232 229.649" stroke="white" stroke-width="0.717401"/>
<path d="M304.333 248.822L261.035 255.49" stroke="white" stroke-width="0.717401"/>
<path d="M521.692 215.344L478.393 222.013" stroke="white" stroke-width="0.717401"/>
<path d="M305.834 256.356L263.281 266.773" stroke="white" stroke-width="0.717401"/>
<path d="M519.448 204.062L476.895 214.479" stroke="white" stroke-width="0.717401"/>
<path d="M307.984 263.73L266.501 277.817" stroke="white" stroke-width="0.717401"/>
<path d="M516.228 193.018L474.745 207.104" stroke="white" stroke-width="0.717401"/>
<path d="M310.769 270.89L270.671 288.538" stroke="white" stroke-width="0.717401"/>
<path d="M512.057 182.296L471.959 199.944" stroke="white" stroke-width="0.717401"/>
<path d="M314.167 277.779L275.76 298.855" stroke="white" stroke-width="0.717401"/>
<path d="M506.968 171.979L468.561 193.055" stroke="white" stroke-width="0.717401"/>
<path d="M318.153 284.345L281.729 308.688" stroke="white" stroke-width="0.717401"/>
<path d="M501 162.145L464.577 186.488" stroke="white" stroke-width="0.717401"/>
<path d="M720.259 22L720.259 58.5L525.35 168.351" stroke="white" stroke-width="7.17401"/>
<path d="M697.253 -0.999619C697.113 10.749 706.887 20.3905 719.082 20.5354C731.278 20.6803 741.278 11.2736 741.417 -0.474976" stroke="white" stroke-width="4.3044"/>
<path d="M372.833 274.463H413.48C417.046 274.463 419.937 271.599 419.937 268.033C419.937 252.343 419.937 213.294 419.937 212.219C419.937 211.883 412.198 211.883 412.198 211.883C412.198 211.883 412.198 211.883 412.198 211.883H408.561C404.995 211.883 402.105 208.994 402.105 205.428C402.105 200.766 402.105 195.253 402.105 195.06M402.105 195.06C402.105 194.798 371.363 194.944 357.706 195.021C354.157 195.042 351.3 197.925 351.3 201.474V250.089M402.105 195.06L419.937 211.883M404.796 223.322H366.777M404.796 236.107H366.777M404.796 247.547H366.777M404.796 258.65H366.777M351.3 256.818V292.482M366.777 274.463H335.487" stroke="white" stroke-width="2.8696"/>
<path d="M420.273 257.64H434.34C437.906 257.64 440.797 254.776 440.797 251.21C440.797 235.52 440.797 196.471 440.797 195.396C440.797 195.06 433.058 195.06 433.058 195.06C433.058 195.06 433.058 195.06 433.058 195.06H429.421C425.856 195.06 422.965 192.171 422.965 188.605C422.965 183.943 422.965 178.43 422.965 178.237M422.965 178.237C422.965 177.976 392.223 178.121 378.567 178.199C375.018 178.219 372.161 181.102 372.161 184.651V195.06M422.965 178.237L440.797 195.06" stroke="white" stroke-width="2.8696"/>
</g>
<defs>
<clipPath id="clip0">
<rect width="1440" height="480" fill="white"/>
</clipPath>
</defs>
</svg>
