<svg width="359" height="267" viewBox="0 0 359 267" fill="none" xmlns="http://www.w3.org/2000/svg">
<path d="M111.129 178.134C111.129 178.134 103.399 164.57 102.494 154.314" stroke="#0088FF" stroke-width="0.933403"/>
<path d="M324.233 176.025C287.491 224.695 220.515 235.92 174.639 201.098C128.763 166.276 121.358 98.5927 158.101 49.9236" stroke="white" stroke-width="4.66702"/>
<path d="M263.486 187.398C226.981 203.615 184.436 187.45 168.46 151.292C152.484 115.134 169.127 72.6757 205.632 56.4586" stroke="white" stroke-width="4.66702"/>
<path d="M217.398 208.463C168.249 197.003 137.672 147.761 149.102 98.4785" stroke="#0088FF" stroke-width="8.40063" stroke-linejoin="round"/>
<path d="M271.939 31.0888C320.187 45.9076 347.319 97.1391 332.54 145.518" stroke="white" stroke-width="8.40063" stroke-linejoin="round"/>
<path d="M153.058 156.961L97.3495 185.395L102.845 196.187" stroke="#0088FF" stroke-width="0.933403"/>
<path d="M100.909 212.64C103.263 217.263 108.909 219.096 113.517 216.737C118.126 214.377 119.955 208.717 117.601 204.094C115.247 199.47 109.601 197.637 104.993 199.997C100.385 202.356 98.5548 208.016 100.909 212.64Z" stroke="#0088FF" stroke-width="1.4001"/>
<path d="M97.6472 214.309C100.921 220.739 108.772 223.288 115.182 220.006C121.591 216.725 124.136 208.853 120.862 202.424C117.588 195.995 109.737 193.445 103.327 196.727C96.9179 200.008 94.3733 207.88 97.6472 214.309Z" stroke="#0088FF" stroke-width="1.4001"/>
<path d="M280 237.625L194.477 237.625L202.438 217.879" stroke="white" stroke-width="4.66702"/>
<path d="M286.782 244L286.782 267" stroke="white" stroke-width="4.66702"/>
<path d="M277.705 250.278C284.257 255.382 293.695 254.194 298.785 247.623C303.875 241.052 302.69 231.589 296.138 226.485C289.586 221.382 280.148 222.57 275.057 229.141C269.967 235.711 271.153 245.175 277.705 250.278Z" stroke="white" stroke-width="1.4001"/>
<path d="M282.468 242.639C285.5 245.001 289.87 244.452 292.227 241.409C294.584 238.367 294.035 233.986 291.002 231.623C287.969 229.261 283.6 229.81 281.242 232.853C278.885 235.896 279.435 240.277 282.468 242.639Z" stroke="white" stroke-width="2.33351"/>
<path d="M104.169 210.97C105.604 213.788 109.043 214.904 111.85 213.467C114.657 212.029 115.773 208.581 114.338 205.764C112.903 202.947 109.464 201.83 106.657 203.268C103.85 204.705 102.735 208.153 104.169 210.97Z" stroke="#0088FF" stroke-width="1.4001"/>
<path d="M98.3844 151.676C99.4174 153.705 101.894 154.509 103.916 153.474C105.937 152.439 106.74 149.956 105.707 147.927C104.674 145.898 102.197 145.094 100.176 146.129C98.1544 147.164 97.3513 149.647 98.3844 151.676Z" stroke="#0088FF" stroke-width="0.933403"/>
<path d="M238.778 63.9433L238.703 35.4915" stroke="white" stroke-width="0.466702"/>
<path d="M239.156 206.768L239.081 178.316" stroke="white" stroke-width="0.466702"/>
<path d="M233.79 64.163L231.233 35.8195" stroke="white" stroke-width="0.466702"/>
<path d="M246.622 206.444L244.065 178.1" stroke="white" stroke-width="0.466702"/>
<path d="M228.844 64.8129L223.826 36.7933" stroke="white" stroke-width="0.466702"/>
<path d="M254.032 205.468L249.015 177.448" stroke="white" stroke-width="0.466702"/>
<path d="M223.976 65.8924L216.535 38.41" stroke="white" stroke-width="0.466702"/>
<path d="M261.325 203.852L253.884 176.37" stroke="white" stroke-width="0.466702"/>
<path d="M219.217 67.3933L209.409 40.6572" stroke="white" stroke-width="0.466702"/>
<path d="M268.449 201.605L258.642 174.869" stroke="white" stroke-width="0.466702"/>
<path d="M214.61 69.3019L202.511 43.5157" stroke="white" stroke-width="0.466702"/>
<path d="M275.349 198.744L263.249 172.958" stroke="white" stroke-width="0.466702"/>
<path d="M210.188 71.6057L195.889 46.9656" stroke="white" stroke-width="0.466702"/>
<path d="M281.97 195.295L267.671 170.655" stroke="white" stroke-width="0.466702"/>
<path d="M205.984 74.2865L189.594 50.98" stroke="white" stroke-width="0.466702"/>
<path d="M288.264 191.281L271.873 167.975" stroke="white" stroke-width="0.466702"/>
<path d="M202.033 77.3243L183.676 55.5288" stroke="white" stroke-width="0.466702"/>
<path d="M294.182 186.735L275.825 164.939" stroke="white" stroke-width="0.466702"/>
<path d="M198.362 80.6926L178.179 60.574" stroke="white" stroke-width="0.466702"/>
<path d="M299.68 181.687L279.496 161.569" stroke="white" stroke-width="0.466702"/>
<path d="M194.998 84.3725L173.142 66.0839" stroke="white" stroke-width="0.466702"/>
<path d="M304.716 176.178L282.859 157.889" stroke="white" stroke-width="0.466702"/>
<path d="M191.971 88.331L168.607 72.0117" stroke="white" stroke-width="0.466702"/>
<path d="M309.25 170.252L285.887 153.932" stroke="white" stroke-width="0.466702"/>
<path d="M189.3 92.5365L164.607 78.3104" stroke="white" stroke-width="0.466702"/>
<path d="M313.252 163.949L288.56 149.723" stroke="white" stroke-width="0.466702"/>
<path d="M187.007 96.9623L161.174 84.9379" stroke="white" stroke-width="0.466702"/>
<path d="M316.687 157.322L290.854 145.297" stroke="white" stroke-width="0.466702"/>
<path d="M185.108 101.572L158.33 91.8409" stroke="white" stroke-width="0.466702"/>
<path d="M319.528 150.421L292.75 140.689" stroke="white" stroke-width="0.466702"/>
<path d="M183.621 106.327L156.103 98.9629" stroke="white" stroke-width="0.466702"/>
<path d="M321.756 143.297L294.237 135.933" stroke="white" stroke-width="0.466702"/>
<path d="M182.552 111.197L154.504 106.257" stroke="white" stroke-width="0.466702"/>
<path d="M323.354 136.003L295.306 131.062" stroke="white" stroke-width="0.466702"/>
<path d="M181.913 116.146L153.547 113.666" stroke="white" stroke-width="0.466702"/>
<path d="M324.31 128.594L295.944 126.114" stroke="white" stroke-width="0.466702"/>
<path d="M181.709 121.129L153.241 121.129" stroke="white" stroke-width="0.466702"/>
<path d="M324.617 121.129L296.149 121.129" stroke="white" stroke-width="0.466702"/>
<path d="M181.939 126.113L153.586 128.592" stroke="white" stroke-width="0.466702"/>
<path d="M324.271 113.667L295.918 116.147" stroke="white" stroke-width="0.466702"/>
<path d="M182.604 131.061L154.582 136.002" stroke="white" stroke-width="0.466702"/>
<path d="M323.276 106.26L295.254 111.2" stroke="white" stroke-width="0.466702"/>
<path d="M183.698 135.929L156.219 143.292" stroke="white" stroke-width="0.466702"/>
<path d="M321.64 98.9642L294.16 106.328" stroke="white" stroke-width="0.466702"/>
<path d="M185.213 140.688L158.486 150.42" stroke="white" stroke-width="0.466702"/>
<path d="M319.374 91.8393L292.647 101.571" stroke="white" stroke-width="0.466702"/>
<path d="M187.134 145.298L161.364 157.323" stroke="white" stroke-width="0.466702"/>
<path d="M316.492 84.9395L290.723 96.9639" stroke="white" stroke-width="0.466702"/>
<path d="M189.451 149.723L164.834 163.949" stroke="white" stroke-width="0.466702"/>
<path d="M313.025 78.3107L288.408 92.5367" stroke="white" stroke-width="0.466702"/>
<path d="M192.143 153.93L168.866 170.249" stroke="white" stroke-width="0.466702"/>
<path d="M308.992 72.0098L285.715 88.3292" stroke="white" stroke-width="0.466702"/>
<path d="M195.193 157.886L173.433 176.175" stroke="white" stroke-width="0.466702"/>
<path d="M304.427 66.0806L282.667 84.3693" stroke="white" stroke-width="0.466702"/>
<path d="M198.576 161.566L178.499 181.685" stroke="white" stroke-width="0.466702"/>
<path d="M299.361 60.5731L279.284 80.6918" stroke="white" stroke-width="0.466702"/>
<path d="M202.265 164.937L184.023 186.732" stroke="white" stroke-width="0.466702"/>
<path d="M293.835 55.5263L275.594 77.3218" stroke="white" stroke-width="0.466702"/>
<path d="M206.234 167.974L189.967 191.28" stroke="white" stroke-width="0.466702"/>
<path d="M287.894 50.9784L271.627 74.2849" stroke="white" stroke-width="0.466702"/>
<path d="M210.449 170.656L196.28 195.296" stroke="white" stroke-width="0.466702"/>
<path d="M281.575 46.9673L267.406 71.6074" stroke="white" stroke-width="0.466702"/>
<path d="M214.884 172.959L202.921 198.745" stroke="white" stroke-width="0.466702"/>
<path d="M274.937 43.5156L262.974 69.3018" stroke="white" stroke-width="0.466702"/>
<path d="M219.5 174.867L209.834 201.603" stroke="white" stroke-width="0.466702"/>
<path d="M268.024 40.6552L258.358 67.3912" stroke="white" stroke-width="0.466702"/>
<path d="M224.266 176.367L216.971 203.85" stroke="white" stroke-width="0.466702"/>
<path d="M260.888 38.4093L253.593 65.8917" stroke="white" stroke-width="0.466702"/>
<path d="M229.142 177.447L224.272 205.467" stroke="white" stroke-width="0.466702"/>
<path d="M253.585 36.7924L248.716 64.812" stroke="white" stroke-width="0.466702"/>
<path d="M234.093 178.099L231.687 206.442" stroke="white" stroke-width="0.466702"/>
<path d="M246.172 35.8178L243.766 64.1614" stroke="white" stroke-width="0.466702"/>
<path d="M226.909 146.53H253.266C255.586 146.53 257.467 144.667 257.467 142.347C257.467 132.14 257.467 106.739 257.467 106.04C257.467 105.821 252.447 105.821 252.447 105.821C252.447 105.821 252.447 105.821 252.447 105.821H250.099C247.779 105.821 245.898 103.942 245.898 101.622C245.898 98.5894 245.898 95.0039 245.898 94.8783M245.898 94.8783C245.898 94.7081 225.972 94.8026 217.106 94.853C214.798 94.8662 212.939 96.7419 212.939 99.0508V130.675M245.898 94.8783L257.467 105.821M247.645 113.263H222.98M247.645 121.58H222.98M247.645 129.021H222.98M247.645 136.244H222.98M212.939 135.052V158.251M222.98 146.53H202.681" stroke="white" stroke-width="1.86681"/>
<path d="M257.685 135.586H266.8C269.119 135.586 271 133.723 271 131.403C271 121.196 271 95.7953 271 95.0962C271 94.8774 265.98 94.8774 265.98 94.8774C265.98 94.8774 265.98 94.8774 265.98 94.8774H263.632C261.312 94.8774 259.432 92.998 259.432 90.6782C259.432 87.6454 259.432 84.0598 259.432 83.9342M259.432 83.9342C259.432 83.764 239.505 83.8585 230.64 83.9089C228.331 83.9221 226.473 85.7978 226.473 88.1067V94.8774M259.432 83.9342L271 94.8774" stroke="white" stroke-width="1.86681"/>
</svg>
