<svg width="360" height="265" viewBox="0 0 360 265" fill="none" xmlns="http://www.w3.org/2000/svg">
<g clip-path="url(#clip0)">
<path d="M252.081 244.271C191.45 244.271 142.298 195.732 142.298 135.855C142.298 75.9783 191.45 27.4386 252.081 27.4386" stroke="#103957" stroke-width="6.47727"/>
<path d="M296.166 208.102C335.096 183.935 347.303 133.17 323.431 94.7141C299.558 56.2587 248.647 44.6756 209.717 68.8425" stroke="#103957" stroke-width="6.47727"/>
<path d="M296.166 208.102C335.096 183.935 347.303 133.17 323.431 94.7141C299.558 56.2587 248.647 44.6756 209.717 68.8425" stroke="#103957" stroke-width="6.47727"/>
<path d="M287.735 226.119C236.758 245.194 180.158 219.837 161.316 169.482C142.473 119.127 168.523 62.8425 219.5 43.7673" stroke="#103957" stroke-width="10.3636"/>
<path d="M131 195.04C138.934 216.041 156.195 234.873 177.995 247.056" stroke="#0088FF" stroke-width="6.47727"/>
<path d="M340.952 172.792C360.07 123.458 335.574 67.9664 286.24 48.8488" stroke="#0088FF" stroke-width="6" stroke-linejoin="round"/>
<path d="M194.228 78.454C155.963 117.174 161.885 174.571 208.349 206.914" stroke="#0088FF" stroke-width="8" stroke-linejoin="round"/>
<path d="M171.37 42.3174C144.459 64.4196 133.543 92.1969 131.703 107.53" stroke="#103957" stroke-width="11.6591" stroke-linejoin="round"/>
<path d="M79.5 246.5V202.256L110.866 187.326" stroke="#103957" stroke-width="7.77273"/>
<path d="M138.812 182.135C138.812 190.123 132.336 196.599 124.347 196.599C116.359 196.599 109.883 190.123 109.883 182.135C109.883 174.147 116.359 167.671 124.347 167.671C132.336 167.671 138.812 174.147 138.812 182.135Z" stroke="#103957" stroke-width="2.59091"/>
<path d="M93.5206 268.292C94.1661 266.571 94.5191 264.706 94.5191 262.76C94.5191 254.056 87.4633 247 78.7595 247C70.0558 247 63 254.056 63 262.76C63 264.706 63.353 266.571 63.9985 268.292" stroke="#103957" stroke-width="5.18182"/>
<path d="M134.933 182.135C134.933 187.982 130.194 192.721 124.348 192.721C118.502 192.721 113.763 187.982 113.763 182.135C113.763 176.289 118.502 171.55 124.348 171.55C130.194 171.55 134.933 176.289 134.933 182.135Z" stroke="#0088FF" stroke-width="1.94318"/>
<path d="M131.054 182.135C131.054 185.839 128.052 188.842 124.348 188.842C120.644 188.842 117.641 185.839 117.641 182.135C117.641 178.431 120.644 175.429 124.348 175.429C128.052 175.429 131.054 178.431 131.054 182.135Z" stroke="#0088FF" stroke-width="1.29545"/>
<path d="M82.545 262.716C82.545 264.894 80.7796 266.659 78.6019 266.659C76.4241 266.659 74.6587 264.894 74.6587 262.716C74.6587 260.538 76.4241 258.773 78.6019 258.773C80.7796 258.773 82.545 260.538 82.545 262.716Z" stroke="#103957" stroke-width="2.59091"/>
<path d="M256.182 87.1829V62.5146" stroke="#103957" stroke-width="0.647727"/>
<path d="M256.181 211.018V186.35" stroke="#103957" stroke-width="0.647727"/>
<path d="M251.861 87.3717L249.711 62.7972" stroke="#103957" stroke-width="0.647727"/>
<path d="M262.652 210.735L260.502 186.161" stroke="#103957" stroke-width="0.647727"/>
<path d="M247.572 87.9361L243.289 63.6426" stroke="#103957" stroke-width="0.647727"/>
<path d="M269.074 209.89L264.791 185.596" stroke="#103957" stroke-width="0.647727"/>
<path d="M243.348 88.8724L236.963 65.0447" stroke="#103957" stroke-width="0.647727"/>
<path d="M275.399 208.488L269.014 184.66" stroke="#103957" stroke-width="0.647727"/>
<path d="M239.224 90.1727L230.787 66.9921" stroke="#103957" stroke-width="0.647727"/>
<path d="M281.577 206.54L273.14 183.359" stroke="#103957" stroke-width="0.647727"/>
<path d="M235.227 91.8286L224.801 69.4716" stroke="#103957" stroke-width="0.647727"/>
<path d="M287.561 204.061L277.136 181.704" stroke="#103957" stroke-width="0.647727"/>
<path d="M231.389 93.826L219.055 72.4626" stroke="#103957" stroke-width="0.647727"/>
<path d="M293.307 201.07L280.973 179.707" stroke="#103957" stroke-width="0.647727"/>
<path d="M227.741 96.1501L213.592 75.943" stroke="#103957" stroke-width="0.647727"/>
<path d="M298.77 197.59L284.621 177.382" stroke="#103957" stroke-width="0.647727"/>
<path d="M224.311 98.7824L208.454 79.8854" stroke="#103957" stroke-width="0.647727"/>
<path d="M303.909 193.646L288.052 174.749" stroke="#103957" stroke-width="0.647727"/>
<path d="M221.12 101.705L203.677 84.2623" stroke="#103957" stroke-width="0.647727"/>
<path d="M308.685 189.27L291.242 171.827" stroke="#103957" stroke-width="0.647727"/>
<path d="M218.198 104.895L199.301 89.0382" stroke="#103957" stroke-width="0.647727"/>
<path d="M313.062 184.494L294.165 168.638" stroke="#103957" stroke-width="0.647727"/>
<path d="M215.565 108.326L195.358 94.1765" stroke="#103957" stroke-width="0.647727"/>
<path d="M317.004 179.355L296.797 165.206" stroke="#103957" stroke-width="0.647727"/>
<path d="M213.242 111.974L191.878 99.6398" stroke="#103957" stroke-width="0.647727"/>
<path d="M320.485 173.892L299.122 161.558" stroke="#103957" stroke-width="0.647727"/>
<path d="M211.243 115.811L188.886 105.386" stroke="#103957" stroke-width="0.647727"/>
<path d="M323.476 168.146L301.119 157.721" stroke="#103957" stroke-width="0.647727"/>
<path d="M209.588 119.808L186.408 111.371" stroke="#103957" stroke-width="0.647727"/>
<path d="M325.955 162.162L302.774 153.725" stroke="#103957" stroke-width="0.647727"/>
<path d="M208.288 123.933L184.46 117.548" stroke="#103957" stroke-width="0.647727"/>
<path d="M327.903 155.984L304.075 149.599" stroke="#103957" stroke-width="0.647727"/>
<path d="M207.351 128.156L183.058 123.873" stroke="#103957" stroke-width="0.647727"/>
<path d="M329.304 149.66L305.011 145.376" stroke="#103957" stroke-width="0.647727"/>
<path d="M206.786 132.445L182.212 130.295" stroke="#103957" stroke-width="0.647727"/>
<path d="M330.15 143.238L305.575 141.088" stroke="#103957" stroke-width="0.647727"/>
<path d="M206.598 136.766H181.93" stroke="#103957" stroke-width="0.647727"/>
<path d="M330.433 136.766H305.765" stroke="#103957" stroke-width="0.647727"/>
<path d="M206.786 141.087L182.212 143.237" stroke="#103957" stroke-width="0.647727"/>
<path d="M330.15 130.295L305.575 132.445" stroke="#103957" stroke-width="0.647727"/>
<path d="M207.351 145.376L183.058 149.659" stroke="#103957" stroke-width="0.647727"/>
<path d="M329.304 123.873L305.011 128.156" stroke="#103957" stroke-width="0.647727"/>
<path d="M208.288 149.599L184.46 155.984" stroke="#103957" stroke-width="0.647727"/>
<path d="M327.903 117.548L304.075 123.933" stroke="#103957" stroke-width="0.647727"/>
<path d="M209.588 153.723L186.407 162.16" stroke="#103957" stroke-width="0.647727"/>
<path d="M325.955 111.371L302.774 119.808" stroke="#103957" stroke-width="0.647727"/>
<path d="M211.243 157.721L188.886 168.146" stroke="#103957" stroke-width="0.647727"/>
<path d="M323.476 105.386L301.119 115.811" stroke="#103957" stroke-width="0.647727"/>
<path d="M213.241 161.558L191.878 173.892" stroke="#103957" stroke-width="0.647727"/>
<path d="M320.485 99.6403L299.122 111.974" stroke="#103957" stroke-width="0.647727"/>
<path d="M215.565 165.206L195.358 179.355" stroke="#103957" stroke-width="0.647727"/>
<path d="M317.004 94.1773L296.797 108.326" stroke="#103957" stroke-width="0.647727"/>
<path d="M218.197 168.636L199.3 184.493" stroke="#103957" stroke-width="0.647727"/>
<path d="M313.061 89.0383L294.164 104.895" stroke="#103957" stroke-width="0.647727"/>
<path d="M221.119 171.826L203.676 189.269" stroke="#103957" stroke-width="0.647727"/>
<path d="M308.686 84.2626L291.243 101.706" stroke="#103957" stroke-width="0.647727"/>
<path d="M224.31 174.749L208.453 193.646" stroke="#103957" stroke-width="0.647727"/>
<path d="M303.908 79.8862L288.052 98.7832" stroke="#103957" stroke-width="0.647727"/>
<path d="M227.741 177.383L213.592 197.59" stroke="#103957" stroke-width="0.647727"/>
<path d="M298.77 75.9429L284.621 96.15" stroke="#103957" stroke-width="0.647727"/>
<path d="M231.39 179.707L219.056 201.07" stroke="#103957" stroke-width="0.647727"/>
<path d="M293.307 72.4626L280.973 93.8259" stroke="#103957" stroke-width="0.647727"/>
<path d="M235.225 181.703L224.8 204.061" stroke="#103957" stroke-width="0.647727"/>
<path d="M287.561 69.4714L277.136 91.8285" stroke="#103957" stroke-width="0.647727"/>
<path d="M239.223 183.359L230.786 206.54" stroke="#103957" stroke-width="0.647727"/>
<path d="M281.577 66.9926L273.14 90.1732" stroke="#103957" stroke-width="0.647727"/>
<path d="M243.348 184.66L236.964 208.488" stroke="#103957" stroke-width="0.647727"/>
<path d="M275.399 65.0448L269.015 88.8726" stroke="#103957" stroke-width="0.647727"/>
<path d="M247.571 185.596L243.287 209.89" stroke="#103957" stroke-width="0.647727"/>
<path d="M269.074 63.6426L264.79 87.9362" stroke="#103957" stroke-width="0.647727"/>
<path d="M251.86 186.161L249.71 210.735" stroke="#103957" stroke-width="0.647727"/>
<path d="M262.653 62.7972L260.503 87.3716" stroke="#103957" stroke-width="0.647727"/>
<path d="M243.126 127.972C243.716 127.972 244.281 128.491 244.281 129.243C244.281 129.995 243.716 130.514 243.126 130.514C242.537 130.514 241.972 129.995 241.972 129.243C241.972 128.491 242.537 127.972 243.126 127.972ZM262.779 129.243C262.779 129.995 262.214 130.514 261.625 130.514C261.035 130.514 260.47 129.995 260.47 129.243C260.47 128.491 261.035 127.972 261.625 127.972C262.214 127.972 262.779 128.491 262.779 129.243ZM272.028 129.243C272.028 129.995 271.463 130.514 270.874 130.514C270.284 130.514 269.719 129.995 269.719 129.243C269.719 128.491 270.284 127.972 270.874 127.972C271.463 127.972 272.028 128.491 272.028 129.243ZM243.126 137.729C243.716 137.729 244.281 138.248 244.281 139C244.281 139.752 243.716 140.271 243.126 140.271C242.537 140.271 241.972 139.752 241.972 139C241.972 138.248 242.537 137.729 243.126 137.729ZM241.972 148.757C241.972 148.005 242.537 147.486 243.126 147.486C243.716 147.486 244.281 148.005 244.281 148.757C244.281 149.509 243.716 150.028 243.126 150.028C242.537 150.028 241.972 149.509 241.972 148.757ZM253.53 129.243C253.53 129.995 252.965 130.514 252.375 130.514C251.786 130.514 251.221 129.995 251.221 129.243C251.221 128.491 251.786 127.972 252.375 127.972C252.965 127.972 253.53 128.491 253.53 129.243ZM252.375 140.271C251.786 140.271 251.221 139.752 251.221 139C251.221 138.248 251.786 137.729 252.375 137.729C252.965 137.729 253.53 138.248 253.53 139C253.53 139.752 252.965 140.271 252.375 140.271ZM252.375 147.486C252.965 147.486 253.53 148.005 253.53 148.757C253.53 149.509 252.965 150.028 252.375 150.028C251.786 150.028 251.221 149.509 251.221 148.757C251.221 148.005 251.786 147.486 252.375 147.486ZM261.625 140.271C261.035 140.271 260.47 139.752 260.47 139C260.47 138.248 261.035 137.729 261.625 137.729C262.214 137.729 262.779 138.248 262.779 139C262.779 139.752 262.214 140.271 261.625 140.271Z" stroke="#103957" stroke-width="1.94318"/>
<path d="M248.42 160.502H242.33C235.891 160.502 230.671 155.282 230.671 148.843V124.26C230.671 117.821 235.891 112.601 242.33 112.601H271.19C277.629 112.601 282.849 117.821 282.849 124.26V135.269M249.061 166.062L261.892 153.018C265.527 148.955 267.238 155.798 270.018 153.659C272.798 151.521 281.566 142.539 281.566 142.539" stroke="#103957" stroke-width="2"/>
<path d="M243.074 105.331V113.002V122.866" stroke="#0088FF" stroke-width="4.53409"/>
<path d="M252.163 105.331V113.002V122.866" stroke="#0088FF" stroke-width="4.53409"/>
<path d="M261.732 105.331V113.002V122.866" stroke="#0088FF" stroke-width="4.53409"/>
<path d="M271.3 105.331V113.002V122.866" stroke="#0088FF" stroke-width="4.53409"/>
<path d="M270 142H282V153" stroke="#103957" stroke-width="2"/>
<path d="M111.094 113.302L133.346 117.525" stroke="#103957" stroke-width="2.59091"/>
<path d="M109.955 124.007L131.883 126.411" stroke="#103957" stroke-width="2.59091"/>
<path d="M109.499 135.387L131.201 135.387" stroke="#103957" stroke-width="2.59091"/>
<path d="M109.955 146.1L131.307 144.389" stroke="#103957" stroke-width="2.59091"/>
<path d="M110.866 156.805L132.199 153.346" stroke="#103957" stroke-width="2.59091"/>
</g>
<defs>
<clipPath id="clip0">
<rect width="360" height="265" fill="white"/>
</clipPath>
</defs>
</svg>
