<svg width="1440" height="441" viewBox="0 0 1440 441" fill="none" xmlns="http://www.w3.org/2000/svg">
<path d="M1099.35 375.577C1005.75 375.577 929.863 300.638 929.863 208.197C929.863 115.756 1005.75 40.8175 1099.35 40.8175" stroke="#103957" stroke-width="10"/>
<path d="M1167.41 319.736C1227.52 282.426 1246.36 204.051 1209.51 144.681C1172.65 85.3116 1094.05 67.4289 1033.95 104.739" stroke="#103957" stroke-width="10"/>
<path d="M1167.41 319.736C1227.52 282.426 1246.36 204.051 1209.51 144.681C1172.65 85.3116 1094.05 67.4289 1033.95 104.739" stroke="#103957" stroke-width="10"/>
<path d="M1154.4 347.552C1075.7 377.002 988.315 337.853 959.225 260.112C930.135 182.371 970.352 95.4762 1049.05 66.0269" stroke="#103957" stroke-width="16"/>
<path d="M912.984 299.469C931.35 351.022 985.773 394.911 1047.66 403.35" stroke="#0088FF" stroke-width="10"/>
<path d="M1236.56 265.222C1266.07 189.057 1228.26 103.387 1152.09 73.8717" stroke="#103957" stroke-width="18" stroke-linejoin="round"/>
<path d="M1236.56 265.222C1266.07 189.057 1228.26 103.387 1152.09 73.8717" stroke="#0088FF" stroke-width="18" stroke-linejoin="round"/>
<path d="M1010.04 119.578C950.961 179.357 960.104 267.969 1031.84 317.902" stroke="#0088FF" stroke-width="18" stroke-linejoin="round"/>
<path d="M974.747 63.7881C933.2 97.9108 916.347 140.795 913.507 164.467" stroke="#103957" stroke-width="18" stroke-linejoin="round"/>
<path d="M936 170L720 104.5V37.6887" stroke="#103957" stroke-width="12"/>
<path d="M720 406.5V349L881.337 287.661" stroke="#103957" stroke-width="12"/>
<path d="M924.482 279.647C924.482 291.98 914.484 301.978 902.151 301.978C889.819 301.978 879.821 291.98 879.821 279.647C879.821 267.314 889.819 257.317 902.151 257.317C914.484 257.317 924.482 267.314 924.482 279.647Z" stroke="#103957" stroke-width="4"/>
<path d="M743.119 437.872C744.116 435.214 744.661 432.336 744.661 429.331C744.661 415.893 733.768 405 720.331 405C706.893 405 696 415.893 696 429.331C696 432.336 696.545 435.214 697.542 437.872" stroke="#103957" stroke-width="8"/>
<path d="M918.494 279.648C918.494 288.673 911.177 295.99 902.151 295.99C893.126 295.99 885.809 288.673 885.809 279.648C885.809 270.622 893.126 263.305 902.151 263.305C911.177 263.305 918.494 270.622 918.494 279.648Z" stroke="#0088FF" stroke-width="3"/>
<path d="M912.505 279.648C912.505 285.366 907.87 290.002 902.151 290.002C896.433 290.002 891.797 285.366 891.797 279.648C891.797 273.929 896.433 269.293 902.151 269.293C907.87 269.293 912.505 273.929 912.505 279.648Z" stroke="#0088FF" stroke-width="2"/>
<path d="M726.175 429.263C726.175 432.625 723.45 435.351 720.088 435.351C716.726 435.351 714 432.625 714 429.263C714 425.901 716.726 423.175 720.088 423.175C723.45 423.175 726.175 425.901 726.175 429.263Z" stroke="#103957" stroke-width="4"/>
<path d="M727.708 15.3542C727.708 19.4159 724.416 22.7085 720.354 22.7085C716.293 22.7085 713 19.4159 713 15.3542C713 11.2926 716.293 8 720.354 8C724.416 8 727.708 11.2926 727.708 15.3542Z" stroke="#103957" stroke-width="8"/>
<path d="M1105.68 133.054V94.97" stroke="#103957"/>
<path d="M1105.68 324.238V286.154" stroke="#103957"/>
<path d="M1099.01 133.346L1095.69 95.4061" stroke="#103957"/>
<path d="M1115.67 323.802L1112.35 285.862" stroke="#103957"/>
<path d="M1092.39 134.217L1085.78 96.7113" stroke="#103957"/>
<path d="M1125.59 322.496L1118.97 284.991" stroke="#103957"/>
<path d="M1085.87 135.663L1076.01 98.876" stroke="#103957"/>
<path d="M1135.35 320.332L1125.5 283.545" stroke="#103957"/>
<path d="M1079.5 137.67L1066.48 101.883" stroke="#103957"/>
<path d="M1144.89 317.325L1131.86 281.537" stroke="#103957"/>
<path d="M1073.33 140.226L1057.24 105.71" stroke="#103957"/>
<path d="M1154.13 313.498L1138.03 278.982" stroke="#103957"/>
<path d="M1067.41 143.31L1048.37 110.328" stroke="#103957"/>
<path d="M1163 308.88L1143.96 275.898" stroke="#103957"/>
<path d="M1061.78 146.898L1039.93 115.701" stroke="#103957"/>
<path d="M1171.43 303.507L1149.59 272.31" stroke="#103957"/>
<path d="M1056.48 150.963L1032 121.789" stroke="#103957"/>
<path d="M1179.37 297.419L1154.89 268.244" stroke="#103957"/>
<path d="M1051.55 155.475L1024.62 128.546" stroke="#103957"/>
<path d="M1186.74 290.663L1159.81 263.733" stroke="#103957"/>
<path d="M1047.04 160.399L1017.87 135.919" stroke="#103957"/>
<path d="M1193.5 283.289L1164.32 258.809" stroke="#103957"/>
<path d="M1042.98 165.696L1011.78 143.852" stroke="#103957"/>
<path d="M1199.58 275.355L1168.39 253.511" stroke="#103957"/>
<path d="M1039.39 171.329L1006.41 152.287" stroke="#103957"/>
<path d="M1204.96 266.921L1171.98 247.879" stroke="#103957"/>
<path d="M1036.3 177.253L1001.79 161.158" stroke="#103957"/>
<path d="M1209.58 258.05L1175.06 241.955" stroke="#103957"/>
<path d="M1033.75 183.423L997.962 170.397" stroke="#103957"/>
<path d="M1213.4 248.811L1177.62 235.785" stroke="#103957"/>
<path d="M1031.74 189.791L994.955 179.934" stroke="#103957"/>
<path d="M1216.41 239.273L1179.62 229.417" stroke="#103957"/>
<path d="M1030.3 196.311L992.79 189.698" stroke="#103957"/>
<path d="M1218.57 229.51L1181.07 222.897" stroke="#103957"/>
<path d="M1029.42 202.932L991.484 199.613" stroke="#103957"/>
<path d="M1219.88 219.595L1181.94 216.276" stroke="#103957"/>
<path d="M1029.13 209.604H991.048" stroke="#103957"/>
<path d="M1220.32 209.604H1182.23" stroke="#103957"/>
<path d="M1029.42 216.275L991.484 219.594" stroke="#103957"/>
<path d="M1219.88 199.613L1181.94 202.932" stroke="#103957"/>
<path d="M1030.3 222.896L992.79 229.51" stroke="#103957"/>
<path d="M1218.57 189.698L1181.07 196.311" stroke="#103957"/>
<path d="M1031.74 229.416L994.955 239.273" stroke="#103957"/>
<path d="M1216.41 179.935L1179.62 189.792" stroke="#103957"/>
<path d="M1033.75 235.784L997.961 248.81" stroke="#103957"/>
<path d="M1213.4 170.397L1177.62 183.422" stroke="#103957"/>
<path d="M1036.3 241.954L1001.79 258.05" stroke="#103957"/>
<path d="M1209.58 161.157L1175.06 177.253" stroke="#103957"/>
<path d="M1039.39 247.878L1006.41 266.92" stroke="#103957"/>
<path d="M1204.96 152.287L1171.98 171.329" stroke="#103957"/>
<path d="M1042.98 253.511L1011.78 275.355" stroke="#103957"/>
<path d="M1199.58 143.853L1168.39 165.697" stroke="#103957"/>
<path d="M1047.04 258.808L1017.87 283.288" stroke="#103957"/>
<path d="M1193.5 135.919L1164.32 160.399" stroke="#103957"/>
<path d="M1051.55 263.731L1024.62 290.661" stroke="#103957"/>
<path d="M1186.74 128.546L1159.81 155.476" stroke="#103957"/>
<path d="M1056.48 268.244L1032 297.419" stroke="#103957"/>
<path d="M1179.37 121.789L1154.89 150.964" stroke="#103957"/>
<path d="M1061.77 272.309L1039.93 303.506" stroke="#103957"/>
<path d="M1171.43 115.701L1149.59 146.898" stroke="#103957"/>
<path d="M1067.41 275.898L1048.37 308.88" stroke="#103957"/>
<path d="M1163 110.328L1143.96 143.31" stroke="#103957"/>
<path d="M1073.33 278.981L1057.24 313.497" stroke="#103957"/>
<path d="M1154.13 105.71L1138.03 140.226" stroke="#103957"/>
<path d="M1079.5 281.537L1066.47 317.325" stroke="#103957"/>
<path d="M1144.89 101.883L1131.86 137.671" stroke="#103957"/>
<path d="M1085.87 283.545L1076.01 320.332" stroke="#103957"/>
<path d="M1135.35 98.876L1125.5 135.663" stroke="#103957"/>
<path d="M1092.39 284.991L1085.78 322.496" stroke="#103957"/>
<path d="M1125.59 96.7114L1118.97 134.217" stroke="#103957"/>
<path d="M1099.01 285.862L1095.69 323.802" stroke="#103957"/>
<path d="M1115.67 95.4061L1112.35 133.346" stroke="#103957"/>
<path d="M755.734 0C755.734 19.8088 739.676 35.8671 719.867 35.8671C700.058 35.8671 684 19.8088 684 0" stroke="#103957" stroke-width="8"/>
<path d="M1085.29 196.747C1086.26 196.747 1087.04 197.53 1087.04 198.497C1087.04 199.463 1086.26 200.246 1085.29 200.246C1084.32 200.246 1083.54 199.463 1083.54 198.497C1083.54 197.53 1084.32 196.747 1085.29 196.747ZM1115.31 198.497C1115.31 199.463 1114.53 200.246 1113.56 200.246C1112.6 200.246 1111.81 199.463 1111.81 198.497C1111.81 197.53 1112.6 196.747 1113.56 196.747C1114.53 196.747 1115.31 197.53 1115.31 198.497ZM1129.45 198.497C1129.45 199.463 1128.67 200.246 1127.7 200.246C1126.73 200.246 1125.95 199.463 1125.95 198.497C1125.95 197.53 1126.73 196.747 1127.7 196.747C1128.67 196.747 1129.45 197.53 1129.45 198.497ZM1085.29 210.884C1086.26 210.884 1087.04 211.667 1087.04 212.633C1087.04 213.6 1086.26 214.383 1085.29 214.383C1084.32 214.383 1083.54 213.6 1083.54 212.633C1083.54 211.667 1084.32 210.884 1085.29 210.884ZM1083.54 226.77C1083.54 225.804 1084.32 225.021 1085.29 225.021C1086.26 225.021 1087.04 225.804 1087.04 226.77C1087.04 227.737 1086.26 228.52 1085.29 228.52C1084.32 228.52 1083.54 227.737 1083.54 226.77ZM1101.18 198.497C1101.18 199.463 1100.39 200.246 1099.43 200.246C1098.46 200.246 1097.68 199.463 1097.68 198.497C1097.68 197.53 1098.46 196.747 1099.43 196.747C1100.39 196.747 1101.18 197.53 1101.18 198.497ZM1099.43 214.383C1098.46 214.383 1097.68 213.6 1097.68 212.633C1097.68 211.667 1098.46 210.884 1099.43 210.884C1100.39 210.884 1101.18 211.667 1101.18 212.633C1101.18 213.6 1100.39 214.383 1099.43 214.383ZM1099.43 225.021C1100.39 225.021 1101.18 225.804 1101.18 226.77C1101.18 227.737 1100.39 228.52 1099.43 228.52C1098.46 228.52 1097.68 227.737 1097.68 226.77C1097.68 225.804 1098.46 225.021 1099.43 225.021ZM1113.56 214.383C1112.6 214.383 1111.81 213.6 1111.81 212.633C1111.81 211.667 1112.6 210.884 1113.56 210.884C1114.53 210.884 1115.31 211.667 1115.31 212.633C1115.31 213.6 1114.53 214.383 1113.56 214.383Z" stroke="#103957" stroke-width="3"/>
<path d="M1093.7 246.249H1084.3C1074.36 246.249 1066.3 238.19 1066.3 228.249V190.296C1066.3 180.355 1074.36 172.296 1084.3 172.296H1128.85C1138.8 172.296 1146.85 180.355 1146.85 190.296V207.292M1094.69 254.833L1114.5 234.694C1120.11 228.421 1122.75 238.986 1127.05 235.684C1131.34 232.383 1144.87 218.517 1144.87 218.517" stroke="#103957" stroke-width="6"/>
<path d="M1085.45 161.071V172.915V188.143" stroke="#0088FF" stroke-width="7"/>
<path d="M1099.48 161.071V172.915V188.143" stroke="#0088FF" stroke-width="7"/>
<path d="M1114.25 161.071V172.915V188.143" stroke="#0088FF" stroke-width="7"/>
<path d="M1129.03 161.071V172.915V188.143" stroke="#0088FF" stroke-width="7"/>
<path d="M1129.03 216.536H1146.85V233.703" stroke="#103957" stroke-width="6"/>
<path d="M881.689 173.379L916.042 179.899" stroke="#103957" stroke-width="4"/>
<path d="M879.931 189.906L913.784 193.616" stroke="#103957" stroke-width="4"/>
<path d="M879.227 207.475L912.731 207.475" stroke="#103957" stroke-width="4"/>
<path d="M879.93 224.015L912.894 221.372" stroke="#103957" stroke-width="4"/>
<path d="M881.337 240.542L914.271 235.202" stroke="#103957" stroke-width="4"/>
</svg>
