<svg width="1439" height="441" viewBox="0 0 1439 441" fill="none" xmlns="http://www.w3.org/2000/svg">
<path d="M513 322L552 372.144L717 372.144V440" stroke="white" stroke-width="6.77605"/>
<path d="M745 440L745 431.491L745 398.162H540L494 339" stroke="white" stroke-width="5.42084"/>
<path d="M701 371.206L701 440.5" stroke="white" stroke-width="3.38803"/>
<path d="M223.567 382.477C223.567 382.477 237.987 396.407 250.515 400.841" stroke="#0088FF" stroke-width="1.35521"/>
<path d="M296 296.87L209.951 397.142L198.263 386.867" stroke="#0088FF" stroke-width="1.35521"/>
<path d="M173.964 387.341C167.05 381.262 166.451 370.818 172.622 364.013C178.793 357.208 189.401 356.615 196.315 362.694C203.23 368.773 203.829 379.217 197.658 386.022C191.487 392.827 180.879 393.42 173.964 387.341Z" stroke="#0088FF" stroke-width="2.03282"/>
<path d="M177.126 383.854C172.168 379.495 171.739 372.006 176.163 367.126C180.588 362.247 188.194 361.822 193.153 366.181C198.112 370.54 198.54 378.03 194.116 382.909C189.691 387.788 182.085 388.213 177.126 383.854Z" stroke="#0088FF" stroke-width="2.03282"/>
<path d="M180.289 380.367C177.286 377.727 177.027 373.193 179.705 370.24C182.383 367.287 186.988 367.028 189.991 369.668C192.994 372.308 193.252 376.842 190.574 379.795C187.896 382.748 183.291 383.007 180.289 380.367Z" stroke="#0088FF" stroke-width="2.03282"/>
<path d="M252.513 406.709C250.348 404.806 250.162 401.537 252.093 399.408C254.024 397.278 257.344 397.092 259.508 398.995C261.673 400.898 261.86 404.167 259.929 406.297C257.998 408.426 254.678 408.612 252.513 406.709Z" stroke="#0088FF" stroke-width="1.35521"/>
<path d="M529.733 298.139C477.642 371.448 375.327 389.486 301.207 338.428C227.086 287.371 209.228 186.552 261.319 113.244" stroke="white" stroke-width="7.74957"/>
<path d="M477.623 88.206C542.354 137.782 554.327 229.237 504.366 292.476C478.773 324.871 441.892 343.578 403.302 347.455" stroke="white" stroke-width="7.74957"/>
<path d="M361.669 335.299C289.003 317.732 244.561 245.491 262.403 173.946" stroke="#0088FF" stroke-width="13.9492" stroke-linejoin="round"/>
<path d="M341 78.7829C415 53.1835 497 71.8908 530.083 156.026" stroke="white" stroke-width="13.9492" stroke-linejoin="round"/>
<path d="M460.607 50.43C545.323 82.1923 587.849 175.559 555.589 258.971" stroke="white" stroke-width="13.9492" stroke-linejoin="round"/>
<path d="M458.632 157.721L488.84 133.846" stroke="white" stroke-width="0.764096"/>
<path d="M306.99 277.576L337.198 253.701" stroke="white" stroke-width="0.764096"/>
<path d="M454.156 152.695L482.135 126.318" stroke="white" stroke-width="0.764096"/>
<path d="M313.699 285.105L341.678 258.729" stroke="white" stroke-width="0.764096"/>
<path d="M449.246 148.069L474.784 119.392" stroke="white" stroke-width="0.764096"/>
<path d="M321.047 292.03L346.585 263.353" stroke="white" stroke-width="0.764096"/>
<path d="M443.949 143.883L466.851 113.124" stroke="white" stroke-width="0.764096"/>
<path d="M328.981 298.298L351.883 267.538" stroke="white" stroke-width="0.764096"/>
<path d="M438.3 140.169L458.392 107.561" stroke="white" stroke-width="0.764096"/>
<path d="M337.438 303.861L357.53 271.253" stroke="white" stroke-width="0.764096"/>
<path d="M432.346 136.953L449.476 102.745" stroke="white" stroke-width="0.764096"/>
<path d="M346.357 308.677L363.486 274.469" stroke="white" stroke-width="0.764096"/>
<path d="M426.127 134.26L440.163 98.712" stroke="white" stroke-width="0.764096"/>
<path d="M355.667 312.709L369.703 277.162" stroke="white" stroke-width="0.764096"/>
<path d="M419.695 132.111L430.531 95.4938" stroke="white" stroke-width="0.764096"/>
<path d="M365.298 315.928L376.134 279.311" stroke="white" stroke-width="0.764096"/>
<path d="M413.098 130.522L420.651 93.1143" stroke="white" stroke-width="0.764096"/>
<path d="M375.18 318.307L382.733 280.9" stroke="white" stroke-width="0.764096"/>
<path d="M406.388 129.505L410.601 91.5919" stroke="white" stroke-width="0.764096"/>
<path d="M385.233 319.83L389.446 281.917" stroke="white" stroke-width="0.764096"/>
<path d="M399.606 129.068L400.447 90.9376" stroke="white" stroke-width="0.764096"/>
<path d="M395.384 320.484L396.226 282.354" stroke="white" stroke-width="0.764096"/>
<path d="M392.816 129.215L390.279 91.1573" stroke="white" stroke-width="0.764096"/>
<path d="M405.553 320.265L403.016 282.207" stroke="white" stroke-width="0.764096"/>
<path d="M386.063 129.944L380.167 92.2487" stroke="white" stroke-width="0.764096"/>
<path d="M415.664 319.173L409.768 281.478" stroke="white" stroke-width="0.764096"/>
<path d="M379.401 131.249L370.19 94.2034" stroke="white" stroke-width="0.764096"/>
<path d="M425.641 317.218L416.43 280.173" stroke="white" stroke-width="0.764096"/>
<path d="M372.881 133.121L360.426 97.0063" stroke="white" stroke-width="0.764096"/>
<path d="M435.406 314.415L422.951 278.301" stroke="white" stroke-width="0.764096"/>
<path d="M366.55 135.546L350.945 100.638" stroke="white" stroke-width="0.764096"/>
<path d="M444.886 310.784L429.281 275.876" stroke="white" stroke-width="0.764096"/>
<path d="M360.459 138.503L341.824 105.067" stroke="white" stroke-width="0.764096"/>
<path d="M454.005 306.354L435.37 272.918" stroke="white" stroke-width="0.764096"/>
<path d="M354.654 141.972L333.129 110.263" stroke="white" stroke-width="0.764096"/>
<path d="M462.702 301.158L441.178 269.448" stroke="white" stroke-width="0.764096"/>
<path d="M349.175 145.929L324.926 116.187" stroke="white" stroke-width="0.764096"/>
<path d="M470.906 295.234L446.657 265.492" stroke="white" stroke-width="0.764096"/>
<path d="M344.067 150.339L317.278 122.791" stroke="white" stroke-width="0.764096"/>
<path d="M478.552 288.631L451.762 261.083" stroke="white" stroke-width="0.764096"/>
<path d="M339.371 155.171L310.245 130.027" stroke="white" stroke-width="0.764096"/>
<path d="M485.585 281.395L456.459 256.251" stroke="white" stroke-width="0.764096"/>
<path d="M335.121 160.387L303.879 137.838" stroke="white" stroke-width="0.764096"/>
<path d="M491.952 273.584L460.71 251.035" stroke="white" stroke-width="0.764096"/>
<path d="M331.348 165.947L298.229 146.165" stroke="white" stroke-width="0.764096"/>
<path d="M497.602 265.256L464.483 245.473" stroke="white" stroke-width="0.764096"/>
<path d="M328.081 171.812L293.337 154.947" stroke="white" stroke-width="0.764096"/>
<path d="M502.492 256.475L467.749 239.61" stroke="white" stroke-width="0.764096"/>
<path d="M325.347 177.932L289.243 164.112" stroke="white" stroke-width="0.764096"/>
<path d="M506.589 247.308L470.485 233.488" stroke="white" stroke-width="0.764096"/>
<path d="M323.163 184.266L285.973 173.598" stroke="white" stroke-width="0.764096"/>
<path d="M509.858 237.824L472.667 227.155" stroke="white" stroke-width="0.764096"/>
<path d="M321.55 190.761L283.557 183.325" stroke="white" stroke-width="0.764096"/>
<path d="M512.274 228.096L474.281 220.659" stroke="white" stroke-width="0.764096"/>
<path d="M320.516 197.373L282.01 193.225" stroke="white" stroke-width="0.764096"/>
<path d="M513.82 218.197L475.313 214.049" stroke="white" stroke-width="0.764096"/>
<path d="M320.073 204.047L281.345 203.218" stroke="white" stroke-width="0.764096"/>
<path d="M514.484 208.204L475.756 207.375" stroke="white" stroke-width="0.764096"/>
<path d="M320.223 210.732L281.57 213.23" stroke="white" stroke-width="0.764096"/>
<path d="M514.262 198.191L475.608 200.689" stroke="white" stroke-width="0.764096"/>
<path d="M320.963 217.381L282.678 223.186" stroke="white" stroke-width="0.764096"/>
<path d="M513.153 188.236L474.868 194.041" stroke="white" stroke-width="0.764096"/>
<path d="M322.289 223.939L284.663 233.008" stroke="white" stroke-width="0.764096"/>
<path d="M511.167 178.413L473.542 187.482" stroke="white" stroke-width="0.764096"/>
<path d="M324.19 230.36L287.51 242.624" stroke="white" stroke-width="0.764096"/>
<path d="M508.321 168.799L471.642 181.062" stroke="white" stroke-width="0.764096"/>
<path d="M326.652 236.593L291.198 251.957" stroke="white" stroke-width="0.764096"/>
<path d="M504.633 159.465L469.179 174.829" stroke="white" stroke-width="0.764096"/>
<path d="M329.656 242.59L295.697 260.938" stroke="white" stroke-width="0.764096"/>
<path d="M500.133 150.483L466.174 168.831" stroke="white" stroke-width="0.764096"/>
<path d="M333.18 248.307L300.974 269.499" stroke="white" stroke-width="0.764096"/>
<path d="M494.856 141.922L462.65 163.114" stroke="white" stroke-width="0.764096"/>
<path d="M720 34.9683L719.999 71.3984L526.5 154.596" stroke="white" stroke-width="6.77605"/>
<path d="M397.439 208.136V212.466M397.439 181.866V186.774M397.439 234.117V240.468M402.716 245.087H444.701V234.117M392.454 245.087H361.017L288 331.331" stroke="white" stroke-width="2.71042"/>
<path d="M385.125 160.505H363.774C361.154 160.505 359.03 162.628 359.03 165.248V177.123C359.03 179.743 361.154 181.867 363.774 181.867H431.104C433.724 181.867 435.847 179.743 435.847 177.123V165.248C435.847 162.628 433.724 160.505 431.104 160.505H392.748" stroke="white" stroke-width="1.35521"/>
<path d="M373.397 207.848H363.774C361.154 207.848 359.03 205.724 359.03 203.104V191.229C359.03 188.609 361.154 186.486 363.774 186.486H431.104C433.724 186.486 435.847 188.609 435.847 191.229V203.104C435.847 205.724 433.724 207.848 431.104 207.848H379.847" stroke="white" stroke-width="1.35521"/>
<path d="M411.805 167.144V174.361M419.428 166.856V174.361" stroke="white" stroke-width="2.03282"/>
<path d="M394.579 167.294H425.514C426.45 167.294 427.208 168.053 427.208 168.988V172.805C427.208 173.741 426.45 174.499 425.514 174.499H394.579C393.643 174.499 392.885 173.741 392.885 172.805V168.988C392.885 168.053 393.643 167.294 394.579 167.294Z" stroke="white" stroke-width="2.03282"/>
<path d="M388.845 170.897C388.845 171.469 388.37 171.951 387.763 171.951C387.156 171.951 386.682 171.469 386.682 170.897C386.682 170.324 387.156 169.842 387.763 169.842C388.37 169.842 388.845 170.324 388.845 170.897Z" stroke="white" stroke-width="1.35521"/>
<path d="M401.654 245.087C401.654 247.348 399.787 249.216 397.439 249.216C395.091 249.216 393.223 247.348 393.223 245.087C393.223 242.826 395.091 240.957 397.439 240.957C399.787 240.957 401.654 242.826 401.654 245.087Z" stroke="white" stroke-width="2.71042"/>
<path d="M381.313 160.504V166.566M375.743 160.504V166.566M370.172 160.504V166.566" stroke="white" stroke-width="2.03282"/>
<path d="M411.805 191.97V199.187M419.428 191.681V199.187" stroke="white" stroke-width="2.03282"/>
<path d="M394.579 192.12H425.514C426.449 192.12 427.208 192.878 427.208 193.814V197.631C427.208 198.566 426.449 199.325 425.514 199.325H394.579C393.643 199.325 392.885 198.566 392.885 197.631V193.814C392.885 192.878 393.643 192.12 394.579 192.12Z" stroke="white" stroke-width="2.03282"/>
<path d="M388.845 195.723C388.845 196.295 388.37 196.777 387.763 196.777C387.156 196.777 386.682 196.295 386.682 195.723C386.682 195.15 387.156 194.668 387.763 194.668C388.37 194.668 388.845 195.15 388.845 195.723Z" stroke="white" stroke-width="1.35521"/>
<path d="M381.313 185.997V192.06M375.743 185.997V192.06M370.172 185.997V192.06" stroke="white" stroke-width="2.03282"/>
<path d="M415.91 233.829H363.773C361.153 233.829 359.03 231.705 359.03 229.085V217.21C359.03 214.59 361.153 212.467 363.773 212.467H431.104C433.723 212.467 435.847 214.59 435.847 217.21V229.086C435.847 231.705 433.723 233.829 431.104 233.829H422.067" stroke="white" stroke-width="1.35521"/>
<path d="M411.805 217.95V225.167M419.428 217.662V225.167" stroke="white" stroke-width="2.03282"/>
<path d="M394.579 218.101H425.514C426.45 218.101 427.208 218.859 427.208 219.795V223.612C427.208 224.547 426.45 225.306 425.514 225.306H394.579C393.643 225.306 392.885 224.547 392.885 223.612V219.795C392.885 218.859 393.643 218.101 394.579 218.101Z" stroke="white" stroke-width="2.03282"/>
<path d="M388.845 221.703C388.845 222.276 388.37 222.758 387.763 222.758C387.156 222.758 386.682 222.276 386.682 221.703C386.682 221.131 387.156 220.649 387.763 220.649C388.37 220.649 388.845 221.131 388.845 221.703Z" stroke="white" stroke-width="1.35521"/>
<path d="M381.313 211.978V218.04M375.743 211.978V218.04M370.172 211.978V218.04" stroke="white" stroke-width="2.03282"/>
<path d="M729.939 24.9219C729.939 30.0995 725.667 34.3532 720.326 34.3532C714.986 34.3532 710.714 30.0995 710.714 24.9219C710.714 19.7444 714.986 15.4907 720.326 15.4907C725.667 15.4907 729.939 19.7444 729.939 24.9219Z" stroke="white" stroke-width="4.27213"/>
<path d="M701 1.00024C703.977 8.39202 711.304 13.6192 719.871 13.6192C728.438 13.6192 735.765 8.39202 738.742 1.00024" stroke="white" stroke-width="4.27213"/>
</svg>
