<svg width="360" height="265" viewBox="0 0 360 265" fill="none" xmlns="http://www.w3.org/2000/svg">
<g clip-path="url(#clip0)">
<path d="M271 204L305.152 241.402H224.358V268.333" stroke="white" stroke-width="4.41788"/>
<path d="M93.4429 235.889C93.4429 235.889 102.844 244.971 111.013 247.862" stroke="#0088FF" stroke-width="0.883576"/>
<path d="M140.668 180.075L84.565 245.45L76.945 238.752" stroke="#0088FF" stroke-width="0.883576"/>
<path d="M61.1029 239.061C56.5947 235.097 56.2044 228.288 60.2278 223.851C64.2512 219.414 71.1673 219.028 75.6755 222.991C80.1838 226.954 80.574 233.764 76.5506 238.201C72.5272 242.637 65.6111 243.024 61.1029 239.061Z" stroke="#0088FF" stroke-width="1.32536"/>
<path d="M63.1634 236.787C59.9304 233.945 59.6509 229.062 62.5356 225.881C65.4204 222.7 70.3796 222.422 73.6125 225.264C76.8455 228.107 77.125 232.99 74.2403 236.171C71.3555 239.352 66.3963 239.629 63.1634 236.787Z" stroke="#0088FF" stroke-width="1.32536"/>
<path d="M65.2263 234.514C63.2686 232.793 63.0999 229.836 64.8459 227.911C66.592 225.986 69.5943 225.817 71.552 227.538C73.5097 229.259 73.6784 232.215 71.9324 234.141C70.1863 236.066 67.184 236.235 65.2263 234.514Z" stroke="#0088FF" stroke-width="1.32536"/>
<path d="M112.315 251.688C110.903 250.447 110.782 248.316 112.04 246.928C113.299 245.54 115.464 245.418 116.875 246.659C118.287 247.9 118.409 250.031 117.15 251.419C115.891 252.808 113.726 252.929 112.315 251.688Z" stroke="#0088FF" stroke-width="0.883576"/>
<path d="M293.06 180.902C259.098 228.698 192.39 240.459 144.065 207.17C95.7392 173.881 84.0959 108.149 118.059 60.353" stroke="white" stroke-width="5.0526"/>
<path d="M259.084 44.0289C301.288 76.3519 309.094 135.979 276.52 177.21C259.834 198.331 235.788 210.527 210.628 213.055" stroke="white" stroke-width="5.0526"/>
<path d="M183.483 205.13C136.107 193.676 107.131 146.577 118.764 99.9298" stroke="#0088FF" stroke-width="9.09469" stroke-linejoin="round"/>
<path d="M170.008 37.8852C218.255 21.1948 271.718 33.3917 293.287 88.2465" stroke="white" stroke-width="9.09469" stroke-linejoin="round"/>
<path d="M247.989 19.3994C303.223 40.1079 330.949 100.982 309.916 155.365" stroke="white" stroke-width="9.09469" stroke-linejoin="round"/>
<path d="M246.703 89.3515L266.397 73.785" stroke="white" stroke-width="0.498179"/>
<path d="M147.833 167.496L167.528 151.929" stroke="white" stroke-width="0.498179"/>
<path d="M243.785 86.0754L262.027 68.8781" stroke="white" stroke-width="0.498179"/>
<path d="M152.208 172.404L170.45 155.207" stroke="white" stroke-width="0.498179"/>
<path d="M240.584 83.0588L257.234 64.3616" stroke="white" stroke-width="0.498179"/>
<path d="M157 176.919L173.65 158.222" stroke="white" stroke-width="0.498179"/>
<path d="M237.13 80.3299L252.062 60.275" stroke="white" stroke-width="0.498179"/>
<path d="M162.171 181.006L177.103 160.951" stroke="white" stroke-width="0.498179"/>
<path d="M233.448 77.9078L246.547 56.6478" stroke="white" stroke-width="0.498179"/>
<path d="M167.687 184.633L180.787 163.373" stroke="white" stroke-width="0.498179"/>
<path d="M229.564 75.8113L240.732 53.5082" stroke="white" stroke-width="0.498179"/>
<path d="M173.501 187.773L184.669 165.47" stroke="white" stroke-width="0.498179"/>
<path d="M225.51 74.0552L234.661 50.8785" stroke="white" stroke-width="0.498179"/>
<path d="M179.571 190.401L188.723 167.225" stroke="white" stroke-width="0.498179"/>
<path d="M221.318 72.6543L228.383 48.7805" stroke="white" stroke-width="0.498179"/>
<path d="M185.851 192.5L192.916 168.626" stroke="white" stroke-width="0.498179"/>
<path d="M217.016 71.6182L221.94 47.229" stroke="white" stroke-width="0.498179"/>
<path d="M192.294 194.051L197.218 169.662" stroke="white" stroke-width="0.498179"/>
<path d="M212.64 70.9554L215.387 46.2365" stroke="white" stroke-width="0.498179"/>
<path d="M198.846 195.044L201.593 170.325" stroke="white" stroke-width="0.498179"/>
<path d="M208.219 70.6704L208.767 45.8098" stroke="white" stroke-width="0.498179"/>
<path d="M205.467 195.471L206.015 170.61" stroke="white" stroke-width="0.498179"/>
<path d="M203.793 70.7662L202.138 45.9531" stroke="white" stroke-width="0.498179"/>
<path d="M212.095 195.328L210.441 170.515" stroke="white" stroke-width="0.498179"/>
<path d="M199.39 71.2413L195.546 46.6647" stroke="white" stroke-width="0.498179"/>
<path d="M218.688 194.616L214.844 170.039" stroke="white" stroke-width="0.498179"/>
<path d="M195.045 72.0923L189.04 47.9391" stroke="white" stroke-width="0.498179"/>
<path d="M225.193 193.341L219.188 169.188" stroke="white" stroke-width="0.498179"/>
<path d="M190.797 73.3119L182.677 49.7659" stroke="white" stroke-width="0.498179"/>
<path d="M231.56 191.514L223.439 167.968" stroke="white" stroke-width="0.498179"/>
<path d="M186.666 74.8936L176.492 52.134" stroke="white" stroke-width="0.498179"/>
<path d="M237.739 189.146L227.565 166.387" stroke="white" stroke-width="0.498179"/>
<path d="M182.696 76.8217L170.546 55.0219" stroke="white" stroke-width="0.498179"/>
<path d="M243.687 186.258L231.537 164.458" stroke="white" stroke-width="0.498179"/>
<path d="M178.912 79.083L164.878 58.4087" stroke="white" stroke-width="0.498179"/>
<path d="M249.355 182.87L235.322 162.196" stroke="white" stroke-width="0.498179"/>
<path d="M175.339 81.6631L159.529 62.2717" stroke="white" stroke-width="0.498179"/>
<path d="M254.705 179.008L238.895 159.617" stroke="white" stroke-width="0.498179"/>
<path d="M172.007 84.5385L154.541 66.5776" stroke="white" stroke-width="0.498179"/>
<path d="M259.689 174.702L242.223 156.742" stroke="white" stroke-width="0.498179"/>
<path d="M168.946 87.6885L149.957 71.2948" stroke="white" stroke-width="0.498179"/>
<path d="M264.275 169.985L245.285 153.592" stroke="white" stroke-width="0.498179"/>
<path d="M166.175 91.0898L145.806 76.3881" stroke="white" stroke-width="0.498179"/>
<path d="M268.426 164.892L248.057 150.191" stroke="white" stroke-width="0.498179"/>
<path d="M163.715 94.7149L142.122 81.817" stroke="white" stroke-width="0.498179"/>
<path d="M272.111 159.463L250.518 146.565" stroke="white" stroke-width="0.498179"/>
<path d="M161.586 98.5387L138.934 87.5428" stroke="white" stroke-width="0.498179"/>
<path d="M275.3 153.738L252.647 142.742" stroke="white" stroke-width="0.498179"/>
<path d="M159.802 102.529L136.263 93.5193" stroke="white" stroke-width="0.498179"/>
<path d="M277.97 147.761L254.431 138.751" stroke="white" stroke-width="0.498179"/>
<path d="M158.379 106.659L134.131 99.7029" stroke="white" stroke-width="0.498179"/>
<path d="M280.101 141.577L255.854 134.621" stroke="white" stroke-width="0.498179"/>
<path d="M157.327 110.894L132.556 106.045" stroke="white" stroke-width="0.498179"/>
<path d="M281.677 135.235L256.906 130.386" stroke="white" stroke-width="0.498179"/>
<path d="M156.653 115.203L131.547 112.498" stroke="white" stroke-width="0.498179"/>
<path d="M282.683 128.781L257.578 126.077" stroke="white" stroke-width="0.498179"/>
<path d="M156.364 119.555L131.114 119.015" stroke="white" stroke-width="0.498179"/>
<path d="M283.117 122.265L257.867 121.725" stroke="white" stroke-width="0.498179"/>
<path d="M156.463 123.914L131.261 125.543" stroke="white" stroke-width="0.498179"/>
<path d="M282.972 115.737L257.771 117.366" stroke="white" stroke-width="0.498179"/>
<path d="M156.944 128.249L131.983 132.034" stroke="white" stroke-width="0.498179"/>
<path d="M282.248 109.246L257.287 113.032" stroke="white" stroke-width="0.498179"/>
<path d="M157.809 132.525L133.278 138.438" stroke="white" stroke-width="0.498179"/>
<path d="M280.955 102.843L256.423 108.755" stroke="white" stroke-width="0.498179"/>
<path d="M159.048 136.711L135.134 144.707" stroke="white" stroke-width="0.498179"/>
<path d="M279.1 96.574L255.185 104.569" stroke="white" stroke-width="0.498179"/>
<path d="M160.654 140.773L137.538 150.79" stroke="white" stroke-width="0.498179"/>
<path d="M276.695 90.4884L253.579 100.506" stroke="white" stroke-width="0.498179"/>
<path d="M162.611 144.683L140.47 156.645" stroke="white" stroke-width="0.498179"/>
<path d="M273.762 84.6326L251.621 96.5953" stroke="white" stroke-width="0.498179"/>
<path d="M164.91 148.412L143.912 162.229" stroke="white" stroke-width="0.498179"/>
<path d="M270.32 79.0508L249.322 92.8679" stroke="white" stroke-width="0.498179"/>
<path d="M326.158 52.884L326.158 71.1972L290.952 87.3144" stroke="white" stroke-width="4.41788"/>
<path d="M206.806 122.221V125.044M206.806 105.094V108.293M206.806 139.16V143.301M210.247 146.313H237.621V139.16M203.557 146.313H183.06L135.454 202.542" stroke="white" stroke-width="1.76715"/>
<path d="M198.778 91.1664H184.858C183.15 91.1664 181.765 92.5509 181.765 94.2589V102.002C181.765 103.71 183.15 105.094 184.858 105.094H228.756C230.464 105.094 231.849 103.71 231.849 102.002V94.2589C231.849 92.5509 230.464 91.1664 228.756 91.1664H203.748" stroke="white" stroke-width="0.883576"/>
<path d="M191.132 122.033H184.858C183.15 122.033 181.765 120.649 181.765 118.941V111.198C181.765 109.49 183.15 108.106 184.858 108.106H228.756C230.464 108.106 231.849 109.49 231.849 111.198V118.941C231.849 120.649 230.464 122.033 228.756 122.033H195.337" stroke="white" stroke-width="0.883576"/>
<path d="M216.173 95.4953V100.201M221.143 95.3071V100.201" stroke="white" stroke-width="1.32536"/>
<path d="M204.941 95.593H225.111C225.721 95.593 226.215 96.0875 226.215 96.6975V99.186C226.215 99.7959 225.721 100.29 225.111 100.29H204.941C204.331 100.29 203.837 99.7959 203.837 99.186V96.6975C203.837 96.0875 204.331 95.593 204.941 95.593Z" stroke="white" stroke-width="1.32536"/>
<path d="M201.203 97.9418C201.203 98.315 200.894 98.6293 200.498 98.6293C200.102 98.6293 199.793 98.315 199.793 97.9418C199.793 97.5685 200.102 97.2543 200.498 97.2543C200.894 97.2543 201.203 97.5685 201.203 97.9418Z" stroke="white" stroke-width="0.883576"/>
<path d="M209.555 146.312C209.555 147.787 208.337 149.005 206.806 149.005C205.275 149.005 204.058 147.787 204.058 146.312C204.058 144.838 205.275 143.62 206.806 143.62C208.337 143.62 209.555 144.838 209.555 146.312Z" stroke="white" stroke-width="1.76715"/>
<path d="M196.292 91.166V95.1185M192.66 91.166V95.1185M189.028 91.166V95.1185" stroke="white" stroke-width="1.32536"/>
<path d="M216.173 111.681V116.386M221.143 111.493V116.386" stroke="white" stroke-width="1.32536"/>
<path d="M204.941 111.779H225.111C225.721 111.779 226.215 112.273 226.215 112.883V115.372C226.215 115.982 225.721 116.476 225.111 116.476H204.941C204.331 116.476 203.837 115.982 203.837 115.372V112.883C203.837 112.273 204.331 111.779 204.941 111.779Z" stroke="white" stroke-width="1.32536"/>
<path d="M201.203 114.128C201.203 114.501 200.894 114.815 200.498 114.815C200.102 114.815 199.793 114.501 199.793 114.128C199.793 113.755 200.102 113.44 200.498 113.44C200.894 113.44 201.203 113.755 201.203 114.128Z" stroke="white" stroke-width="0.883576"/>
<path d="M196.292 107.787V111.74M192.66 107.787V111.74M189.028 107.787V111.74" stroke="white" stroke-width="1.32536"/>
<path d="M218.85 138.973H184.858C183.15 138.973 181.765 137.588 181.765 135.88V128.137C181.765 126.429 183.15 125.045 184.858 125.045H228.756C230.464 125.045 231.849 126.429 231.849 128.137V135.88C231.849 137.588 230.464 138.973 228.756 138.973H222.864" stroke="white" stroke-width="0.883576"/>
<path d="M216.173 128.62V133.326M221.143 128.432V133.326" stroke="white" stroke-width="1.32536"/>
<path d="M204.941 128.718H225.111C225.721 128.718 226.215 129.213 226.215 129.823V132.311C226.215 132.921 225.721 133.416 225.111 133.416H204.941C204.331 133.416 203.837 132.921 203.837 132.311V129.823C203.837 129.213 204.331 128.718 204.941 128.718Z" stroke="white" stroke-width="1.32536"/>
<path d="M201.203 131.067C201.203 131.44 200.894 131.755 200.498 131.755C200.102 131.755 199.793 131.44 199.793 131.067C199.793 130.694 200.102 130.38 200.498 130.38C200.894 130.38 201.203 130.694 201.203 131.067Z" stroke="white" stroke-width="0.883576"/>
<path d="M196.292 124.726V128.679M192.66 124.726V128.679M189.028 124.726V128.679" stroke="white" stroke-width="1.32536"/>
<path d="M332.005 46.4215C332.005 49.7972 329.22 52.5705 325.738 52.5705C322.256 52.5705 319.471 49.7972 319.471 46.4215C319.471 43.0458 322.256 40.2724 325.738 40.2724C329.22 40.2724 332.005 43.0458 332.005 46.4215Z" stroke="white" stroke-width="2.78536"/>
<path d="M313.77 51.8068C315.71 56.6261 320.488 60.0341 326.073 60.0341C331.659 60.0341 336.436 56.6261 338.377 51.8068" stroke="white" stroke-width="2.78536"/>
</g>
<defs>
<clipPath id="clip0">
<rect width="360" height="265" fill="white"/>
</clipPath>
</defs>
</svg>
