<svg width="356" height="265" viewBox="0 0 356 265" fill="none" xmlns="http://www.w3.org/2000/svg">
<path d="M99.6563 254.921C99.6563 257.205 97.7796 259.08 95.4362 259.08C93.0929 259.08 91.2162 257.205 91.2162 254.921C91.2162 252.637 93.0929 250.762 95.4362 250.762C97.7796 250.762 99.6563 252.637 99.6563 254.921Z" stroke="#103957" stroke-width="2.34447"/>
<path d="M251.278 229.054C209.943 229.054 173.791 207.385 154.089 175.048M251.278 8.39624C188.868 8.39624 138.275 57.7921 138.275 118.725C138.275 120.747 138.33 122.756 138.44 124.751" stroke="#103957" stroke-width="4.68895"/>
<path d="M296.657 192.246C336.729 167.653 349.294 115.992 324.722 76.858C300.149 37.7242 247.744 25.9368 207.672 50.53" stroke="#103957" stroke-width="4.68895"/>
<path d="M296.657 192.246C336.729 167.653 349.294 115.992 324.722 76.858C300.149 37.7242 247.744 25.9368 207.672 50.53" stroke="#103957" stroke-width="4.68895"/>
<path d="M287.98 210.581C240.44 228.168 188.149 208.639 164.315 166.704M217.743 25.0125C174.547 40.9927 148.739 82.6346 151.785 125.446" stroke="#103957" stroke-width="7.50231"/>
<path d="M342.758 156.313C362.437 106.108 337.223 49.6382 286.441 30.1833" stroke="#103957" stroke-width="8.4401" stroke-linejoin="round"/>
<path d="M342.758 156.313C362.437 106.108 337.223 49.6382 286.441 30.1833" stroke="#0088FF" stroke-width="8.4401" stroke-linejoin="round"/>
<path d="M292.758 197.791C260.062 210.874 224.427 205.381 197.825 186.327" stroke="#0088FF" stroke-width="8.4401" stroke-linejoin="round"/>
<path d="M95.2975 244.669V186.382L120.863 164.836M79.4492 265V251.078C79.4492 245.899 83.6478 241.7 88.8271 241.7H95.2975H101.768C106.947 241.7 111.146 245.899 111.146 251.078V265" stroke="#103957" stroke-width="5.62673"/>
<path d="M170.16 150.479C170.16 164.656 158.529 176.186 144.137 176.186C129.744 176.186 118.113 164.656 118.113 150.479C118.113 136.302 129.744 124.773 144.137 124.773C158.529 124.773 170.16 136.302 170.16 150.479Z" stroke="#103957" stroke-width="3.75116"/>
<path d="M163.361 150.247C163.361 160.604 154.866 169.014 144.37 169.014C133.875 169.014 125.38 160.604 125.38 150.247C125.38 139.891 133.875 131.481 144.37 131.481C154.866 131.481 163.361 139.891 163.361 150.247Z" stroke="#103957" stroke-width="1.40668"/>
<path d="M155.155 150.247C155.155 156.104 150.347 160.888 144.37 160.888C138.394 160.888 133.586 156.104 133.586 150.247C133.586 144.391 138.394 139.607 144.37 139.607C150.347 139.607 155.155 144.391 155.155 150.247Z" stroke="#103957" stroke-width="3.75116"/>
<path d="M255.5 69.1938V44.0903" stroke="#103957" stroke-width="0.468895"/>
<path d="M255.5 195.213V170.11" stroke="#103957" stroke-width="0.468895"/>
<path d="M251.051 69.3861L248.838 44.3782" stroke="#103957" stroke-width="0.468895"/>
<path d="M262.16 194.925L259.947 169.917" stroke="#103957" stroke-width="0.468895"/>
<path d="M246.637 69.9603L242.228 45.2383" stroke="#103957" stroke-width="0.468895"/>
<path d="M268.772 194.065L264.362 169.343" stroke="#103957" stroke-width="0.468895"/>
<path d="M242.29 70.9131L235.718 46.665" stroke="#103957" stroke-width="0.468895"/>
<path d="M275.281 192.639L268.709 168.391" stroke="#103957" stroke-width="0.468895"/>
<path d="M238.045 72.2362L229.36 48.6467" stroke="#103957" stroke-width="0.468895"/>
<path d="M281.641 190.655L272.956 167.066" stroke="#103957" stroke-width="0.468895"/>
<path d="M233.931 73.9211L223.2 51.1697" stroke="#103957" stroke-width="0.468895"/>
<path d="M287.8 188.133L277.069 165.382" stroke="#103957" stroke-width="0.468895"/>
<path d="M229.98 75.9531L217.284 54.2129" stroke="#103957" stroke-width="0.468895"/>
<path d="M293.715 185.089L281.019 163.349" stroke="#103957" stroke-width="0.468895"/>
<path d="M226.224 78.3186L211.66 57.7551" stroke="#103957" stroke-width="0.468895"/>
<path d="M299.338 181.548L284.773 160.984" stroke="#103957" stroke-width="0.468895"/>
<path d="M222.693 80.9989L206.371 61.7686" stroke="#103957" stroke-width="0.468895"/>
<path d="M304.627 177.535L288.306 158.305" stroke="#103957" stroke-width="0.468895"/>
<path d="M219.411 83.9715L201.456 66.2207" stroke="#103957" stroke-width="0.468895"/>
<path d="M309.543 173.081L291.588 155.331" stroke="#103957" stroke-width="0.468895"/>
<path d="M216.404 87.2167L196.953 71.0806" stroke="#103957" stroke-width="0.468895"/>
<path d="M314.049 168.221L294.598 152.085" stroke="#103957" stroke-width="0.468895"/>
<path d="M213.693 90.7095L192.894 76.3108" stroke="#103957" stroke-width="0.468895"/>
<path d="M318.107 162.992L297.308 148.593" stroke="#103957" stroke-width="0.468895"/>
<path d="M211.3 94.4228L189.31 81.8711" stroke="#103957" stroke-width="0.468895"/>
<path d="M321.69 157.432L299.7 144.88" stroke="#103957" stroke-width="0.468895"/>
<path d="M209.243 98.3274L186.23 87.7183" stroke="#103957" stroke-width="0.468895"/>
<path d="M324.769 151.585L301.756 140.976" stroke="#103957" stroke-width="0.468895"/>
<path d="M207.538 102.393L183.678 93.8071" stroke="#103957" stroke-width="0.468895"/>
<path d="M327.321 145.495L303.46 136.909" stroke="#103957" stroke-width="0.468895"/>
<path d="M206.201 106.592L181.674 100.095" stroke="#103957" stroke-width="0.468895"/>
<path d="M329.327 139.208L304.8 132.711" stroke="#103957" stroke-width="0.468895"/>
<path d="M205.237 110.889L180.23 106.53" stroke="#103957" stroke-width="0.468895"/>
<path d="M330.767 132.772L305.761 128.413" stroke="#103957" stroke-width="0.468895"/>
<path d="M204.656 115.254L179.36 113.066" stroke="#103957" stroke-width="0.468895"/>
<path d="M331.639 126.237L306.344 124.049" stroke="#103957" stroke-width="0.468895"/>
<path d="M204.462 119.651H179.07" stroke="#103957" stroke-width="0.468895"/>
<path d="M331.93 119.652H306.538" stroke="#103957" stroke-width="0.468895"/>
<path d="M204.656 124.048L179.36 126.236" stroke="#103957" stroke-width="0.468895"/>
<path d="M331.639 113.066L306.344 115.253" stroke="#103957" stroke-width="0.468895"/>
<path d="M205.237 128.413L180.23 132.772" stroke="#103957" stroke-width="0.468895"/>
<path d="M330.766 106.531L305.76 110.89" stroke="#103957" stroke-width="0.468895"/>
<path d="M206.201 132.711L181.674 139.208" stroke="#103957" stroke-width="0.468895"/>
<path d="M329.326 100.095L304.799 106.592" stroke="#103957" stroke-width="0.468895"/>
<path d="M207.54 136.909L183.68 145.494" stroke="#103957" stroke-width="0.468895"/>
<path d="M327.32 93.8084L303.459 102.394" stroke="#103957" stroke-width="0.468895"/>
<path d="M209.243 140.976L186.23 151.585" stroke="#103957" stroke-width="0.468895"/>
<path d="M324.769 87.7173L301.756 98.3264" stroke="#103957" stroke-width="0.468895"/>
<path d="M211.3 144.88L189.31 157.432" stroke="#103957" stroke-width="0.468895"/>
<path d="M321.69 81.8707L299.7 94.4224" stroke="#103957" stroke-width="0.468895"/>
<path d="M213.692 148.593L192.893 162.992" stroke="#103957" stroke-width="0.468895"/>
<path d="M318.107 76.3115L297.308 90.7102" stroke="#103957" stroke-width="0.468895"/>
<path d="M216.4 152.084L196.948 168.22" stroke="#103957" stroke-width="0.468895"/>
<path d="M314.048 71.0816L294.597 87.2178" stroke="#103957" stroke-width="0.468895"/>
<path d="M219.411 155.33L201.456 173.081" stroke="#103957" stroke-width="0.468895"/>
<path d="M309.544 66.2214L291.589 83.9722" stroke="#103957" stroke-width="0.468895"/>
<path d="M222.692 158.303L206.37 177.533" stroke="#103957" stroke-width="0.468895"/>
<path d="M304.628 61.7682L288.307 80.9985" stroke="#103957" stroke-width="0.468895"/>
<path d="M226.225 160.984L211.661 181.547" stroke="#103957" stroke-width="0.468895"/>
<path d="M299.34 57.7548L284.775 78.3184" stroke="#103957" stroke-width="0.468895"/>
<path d="M229.981 163.35L217.285 185.09" stroke="#103957" stroke-width="0.468895"/>
<path d="M293.714 54.2134L281.018 75.9536" stroke="#103957" stroke-width="0.468895"/>
<path d="M233.929 165.381L223.198 188.133" stroke="#103957" stroke-width="0.468895"/>
<path d="M287.801 51.1695L277.07 73.9209" stroke="#103957" stroke-width="0.468895"/>
<path d="M238.042 167.065L229.357 190.655" stroke="#103957" stroke-width="0.468895"/>
<path d="M281.642 48.6476L272.957 72.2371" stroke="#103957" stroke-width="0.468895"/>
<path d="M242.29 168.39L235.718 192.638" stroke="#103957" stroke-width="0.468895"/>
<path d="M275.281 46.6648L268.709 70.9128" stroke="#103957" stroke-width="0.468895"/>
<path d="M246.638 169.343L242.229 194.065" stroke="#103957" stroke-width="0.468895"/>
<path d="M268.771 45.2379L264.361 69.96" stroke="#103957" stroke-width="0.468895"/>
<path d="M251.051 169.918L248.838 194.926" stroke="#103957" stroke-width="0.468895"/>
<path d="M262.16 44.3779L259.947 69.3857" stroke="#103957" stroke-width="0.468895"/>
<path d="M232.218 92.7544H275.456" stroke="#103957" stroke-width="1.87558"/>
<path d="M248.731 89.124H259.089M232.218 143.438H275.785" stroke="#103957" stroke-width="1.87558"/>
<path d="M275.786 133.708V141.748C275.786 149.258 269.698 155.346 262.188 155.346H245.653C238.143 155.346 232.055 149.258 232.055 141.748V93.1901V93.1901C232.055 88.859 235.566 85.3479 239.897 85.3479H266.284V85.3479C271.532 85.3479 275.786 89.6023 275.786 94.8503V101.708" stroke="#103957" stroke-width="1.87558"/>
<path d="M257.75 148.956C257.75 150.097 256.663 151.214 255.071 151.214C253.479 151.214 252.392 150.097 252.392 148.956C252.392 147.816 253.479 146.699 255.071 146.699C256.663 146.699 257.75 147.816 257.75 148.956Z" stroke="#103957" stroke-width="1.87558"/>
<path d="M260.168 129.787H258.865C255.499 129.787 252.77 127.058 252.77 123.691V114.97C252.77 111.603 255.499 108.874 258.865 108.874H281.528C284.894 108.874 287.623 111.603 287.623 114.97V123.691C287.623 127.058 284.894 129.787 281.528 129.787H264.771" stroke="#103957" stroke-width="1.87558"/>
<path d="M258.688 108.489V108.489C258.688 106.456 260.336 104.808 262.369 104.808H287.446C290.812 104.808 293.541 107.537 293.541 110.903V120.092C293.541 123.361 290.892 126.011 287.623 126.011V126.011" stroke="#103957" stroke-width="1.87558"/>
<path d="M260.167 129.045V137.536L265.58 129.459" stroke="#103957" stroke-width="1.87558"/>
<path d="M256.878 112.796H264.934M283.512 112.796H267.893M256.878 116.136H271.674M283.512 116.136H274.634M256.878 119.04H268.715M271.346 119.04H283.512M256.878 122.09H264.934M256.878 125.43H271.674M267.893 122.09H283.512M274.634 125.43H283.512" stroke="#0088FF" stroke-width="0.937789"/>
<path d="M174.849 125.91C174.849 127.55 173.5 128.907 171.801 128.907C170.103 128.907 168.753 127.55 168.753 125.91C168.753 124.27 170.103 122.913 171.801 122.913C173.5 122.913 174.849 124.27 174.849 125.91Z" stroke="#0088FF" stroke-width="2.81337"/>
<path d="M174.849 112.466C174.849 114.107 173.5 115.464 171.801 115.464C170.103 115.464 168.753 114.107 168.753 112.466C168.753 110.826 170.103 109.469 171.801 109.469C173.5 109.469 174.849 110.826 174.849 112.466Z" stroke="#0088FF" stroke-width="2.81337"/>
<path d="M176.256 99.9505C176.256 101.591 174.907 102.948 173.208 102.948C171.51 102.948 170.161 101.591 170.161 99.9505C170.161 98.3103 171.51 96.9533 173.208 96.9533C174.907 96.9533 176.256 98.3103 176.256 99.9505Z" stroke="#0088FF" stroke-width="2.81337"/>
<path d="M180.476 87.8975C180.476 89.5377 179.127 90.8947 177.428 90.8947C175.73 90.8947 174.38 89.5377 174.38 87.8975C174.38 86.2573 175.73 84.9003 177.428 84.9003C179.127 84.9003 180.476 86.2573 180.476 87.8975Z" stroke="#0088FF" stroke-width="2.81337"/>
<path d="M186.572 76.3084C186.572 77.9486 185.222 79.3056 183.524 79.3056C181.825 79.3056 180.476 77.9486 180.476 76.3084C180.476 74.6682 181.825 73.3112 183.524 73.3112C185.222 73.3112 186.572 74.6682 186.572 76.3084Z" stroke="#0088FF" stroke-width="2.81337"/>
<path d="M194.542 66.1099C194.542 67.7501 193.193 69.1071 191.495 69.1071C189.796 69.1071 188.447 67.7501 188.447 66.1099C188.447 64.4697 189.796 63.1127 191.495 63.1127C193.193 63.1127 194.542 64.4697 194.542 66.1099Z" stroke="#0088FF" stroke-width="2.81337"/>
<path d="M153.567 204.508C153.567 204.508 160.999 213.989 168.09 217.644" stroke="#103957" stroke-width="0.813979"/>
<path d="M178.489 182.93L144.256 212.178L138.148 205.1" stroke="#103957" stroke-width="0.813979"/>
<path d="M123.645 203.434C120.033 199.248 120.536 192.958 124.772 189.384C129.008 185.811 135.37 186.311 138.983 190.497C142.595 194.683 142.092 200.973 137.856 204.546C133.62 208.119 127.258 207.62 123.645 203.434Z" stroke="#103957" stroke-width="1.22097"/>
<path d="M125.814 201.604C123.224 198.603 123.584 194.092 126.622 191.53C129.66 188.967 134.222 189.326 136.812 192.327C139.403 195.328 139.042 199.839 136.004 202.402C132.966 204.964 128.404 204.606 125.814 201.604Z" stroke="#103957" stroke-width="1.22097"/>
<path d="M127.986 199.774C126.418 197.957 126.636 195.226 128.476 193.674C130.315 192.122 133.078 192.34 134.646 194.157C136.214 195.973 135.996 198.705 134.156 200.257C132.316 201.808 129.554 201.591 127.986 199.774Z" stroke="#103957" stroke-width="1.22097"/>
<path d="M168.795 221.312C167.664 220.002 167.821 218.033 169.147 216.914C170.474 215.795 172.465 215.952 173.596 217.262C174.726 218.572 174.569 220.541 173.243 221.66C171.917 222.779 169.925 222.622 168.795 221.312Z" stroke="#103957" stroke-width="0.813979"/>
<path d="M200.076 228.785C200.076 228.785 190.048 225.496 184.959 220.797" stroke="#0088FF" stroke-width="0.813979"/>
<path d="M203.615 191.27L172.68 241.056L179.714 245.213" stroke="#0088FF" stroke-width="0.813979"/>
<path d="M183.308 257.211C187.435 259.65 192.775 258.318 195.238 254.245C197.701 250.172 196.36 244.891 192.233 242.452C188.106 240.013 182.766 241.345 180.303 245.418C177.84 249.491 179.181 254.772 183.308 257.211Z" stroke="#0088FF" stroke-width="1.22097"/>
<path d="M184.583 255.104C187.533 256.847 191.348 255.894 193.107 252.985C194.867 250.075 193.909 246.302 190.96 244.559C188.01 242.815 184.195 243.768 182.436 246.678C180.676 249.587 181.634 253.36 184.583 255.104Z" stroke="#0088FF" stroke-width="1.22097"/>
<path d="M185.856 252.997C187.628 254.044 189.919 253.471 190.974 251.725C192.03 249.98 191.456 247.714 189.684 246.666C187.911 245.619 185.621 246.192 184.565 247.937C183.51 249.683 184.083 251.949 185.856 252.997Z" stroke="#0088FF" stroke-width="1.22097"/>
<path d="M201.495 231.939C202.886 232.468 204.445 231.782 204.978 230.411C205.512 229.04 204.822 227.498 203.43 226.968C202.039 226.439 200.48 227.125 199.947 228.496C199.413 229.867 200.104 231.41 201.495 231.939Z" stroke="#0088FF" stroke-width="0.813979"/>
</svg>
