<svg width="1440" height="440" viewBox="0 0 1440 440" fill="none" xmlns="http://www.w3.org/2000/svg">
<path d="M545.227 217C545.227 308.185 473.542 382.104 385.114 382.104C296.686 382.104 225 308.185 225 217" stroke="white" stroke-width="7.76447"/>
<path d="M330.543 134.411C376.188 104.373 438.085 117.851 468.794 164.515C499.502 211.179 487.394 273.359 441.749 303.397" stroke="white" stroke-width="7.76447"/>
<path d="M386 35C488.725 35 572 118.723 572 222C572 325.277 488.725 409 386 409" stroke="#0088FF" stroke-width="6"/>
<path d="M402 342C321.501 358.5 255.501 289.5 262 211.5" stroke="#0088FF" stroke-width="13.9761" stroke-linejoin="round"/>
<path d="M393.5 82.0002C478.764 89.8117 531.312 155.737 523.5 241" stroke="white" stroke-width="13.9761" stroke-linejoin="round"/>
<path d="M415.5 62.5005C477.988 72.3652 520.18 106.969 538.401 169.813" stroke="white" stroke-width="7.76447" stroke-linejoin="round"/>
<path d="M197.24 360.771C197.24 360.771 180.222 345.08 174.351 331" stroke="#0088FF" stroke-width="1.55289"/>
<path d="M279.001 298.5L182.871 371.646L194 386" stroke="#0088FF" stroke-width="1.55289"/>
<path d="M193.162 415.366C200.626 422.927 212.806 423.006 220.367 415.543C227.928 408.079 228.007 395.899 220.543 388.337C213.08 380.776 200.899 380.697 193.338 388.161C185.777 395.625 185.698 407.805 193.162 415.366Z" stroke="#0088FF" stroke-width="2.32934"/>
<path d="M197.034 411.545C202.387 416.967 211.122 417.024 216.545 411.671C221.968 406.318 222.024 397.583 216.671 392.16C211.319 386.737 202.583 386.681 197.16 392.034C191.738 397.387 191.681 406.122 197.034 411.545Z" stroke="#0088FF" stroke-width="2.32934"/>
<path d="M200.905 407.723C204.147 411.008 209.438 411.042 212.722 407.8C216.007 404.558 216.041 399.267 212.799 395.983C209.557 392.698 204.266 392.664 200.981 395.906C197.697 399.148 197.663 404.439 200.905 407.723Z" stroke="#0088FF" stroke-width="2.32934"/>
<path d="M167.331 329.849C169.668 332.217 173.482 332.242 175.85 329.904C178.218 327.567 178.242 323.753 175.905 321.385C173.568 319.017 169.754 318.993 167.386 321.33C165.018 323.667 164.993 327.481 167.331 329.849Z" stroke="#0088FF" stroke-width="1.55289"/>
<path d="M381.561 139.202V96.978" stroke="white" stroke-width="0.776447"/>
<path d="M381.561 351.169V308.944" stroke="white" stroke-width="0.776447"/>
<path d="M374.165 139.525L370.485 97.4609" stroke="white" stroke-width="0.776447"/>
<path d="M392.638 350.685L388.958 308.621" stroke="white" stroke-width="0.776447"/>
<path d="M366.823 140.491L359.491 98.9084" stroke="white" stroke-width="0.776447"/>
<path d="M403.631 349.238L396.298 307.655" stroke="white" stroke-width="0.776447"/>
<path d="M359.595 142.094L348.667 101.308" stroke="white" stroke-width="0.776447"/>
<path d="M414.455 346.838L403.527 306.053" stroke="white" stroke-width="0.776447"/>
<path d="M352.533 144.32L338.092 104.642" stroke="white" stroke-width="0.776447"/>
<path d="M425.03 343.504L410.589 303.826" stroke="white" stroke-width="0.776447"/>
<path d="M345.693 147.154L327.849 108.886" stroke="white" stroke-width="0.776447"/>
<path d="M435.274 339.261L417.429 300.993" stroke="white" stroke-width="0.776447"/>
<path d="M339.126 150.572L318.014 114.005" stroke="white" stroke-width="0.776447"/>
<path d="M445.108 334.141L423.996 297.574" stroke="white" stroke-width="0.776447"/>
<path d="M332.881 154.551L308.662 119.963" stroke="white" stroke-width="0.776447"/>
<path d="M454.46 328.184L430.241 293.596" stroke="white" stroke-width="0.776447"/>
<path d="M327.007 159.058L299.865 126.712" stroke="white" stroke-width="0.776447"/>
<path d="M463.256 321.434L436.115 289.088" stroke="white" stroke-width="0.776447"/>
<path d="M321.548 164.06L291.69 134.203" stroke="white" stroke-width="0.776447"/>
<path d="M471.431 313.943L441.574 284.086" stroke="white" stroke-width="0.776447"/>
<path d="M316.546 169.519L284.201 142.377" stroke="white" stroke-width="0.776447"/>
<path d="M478.921 305.77L446.575 278.628" stroke="white" stroke-width="0.776447"/>
<path d="M316.546 169.519L284.201 142.377" stroke="white" stroke-width="0.776447"/>
<path d="M478.921 305.77L446.575 278.628" stroke="white" stroke-width="0.776447"/>
<path d="M312.038 175.393L277.45 151.174" stroke="white" stroke-width="0.776447"/>
<path d="M485.672 296.972L451.083 272.753" stroke="white" stroke-width="0.776447"/>
<path d="M308.061 181.637L271.493 160.525" stroke="white" stroke-width="0.776447"/>
<path d="M491.628 287.621L455.061 266.509" stroke="white" stroke-width="0.776447"/>
<path d="M304.641 188.205L266.373 170.361" stroke="white" stroke-width="0.776447"/>
<path d="M496.748 277.786L458.48 259.941" stroke="white" stroke-width="0.776447"/>
<path d="M301.808 195.044L262.13 180.603" stroke="white" stroke-width="0.776447"/>
<path d="M500.991 267.543L461.313 253.101" stroke="white" stroke-width="0.776447"/>
<path d="M299.582 202.105L258.796 191.177" stroke="white" stroke-width="0.776447"/>
<path d="M504.325 256.968L463.539 246.04" stroke="white" stroke-width="0.776447"/>
<path d="M297.979 209.333L256.396 202.001" stroke="white" stroke-width="0.776447"/>
<path d="M506.725 246.143L465.142 238.811" stroke="white" stroke-width="0.776447"/>
<path d="M297.013 216.676L254.949 212.996" stroke="white" stroke-width="0.776447"/>
<path d="M508.174 235.15L466.11 231.469" stroke="white" stroke-width="0.776447"/>
<path d="M296.689 224.073L254.465 224.073" stroke="white" stroke-width="0.776447"/>
<path d="M508.656 224.073L466.432 224.073" stroke="white" stroke-width="0.776447"/>
<path d="M297.012 231.469L254.949 235.149" stroke="white" stroke-width="0.776447"/>
<path d="M508.173 212.996L466.109 216.677" stroke="white" stroke-width="0.776447"/>
<path d="M297.978 238.81L256.396 246.142" stroke="white" stroke-width="0.776447"/>
<path d="M506.725 202.004L465.142 209.336" stroke="white" stroke-width="0.776447"/>
<path d="M299.581 246.038L258.795 256.967" stroke="white" stroke-width="0.776447"/>
<path d="M504.325 191.179L463.54 202.107" stroke="white" stroke-width="0.776447"/>
<path d="M301.808 253.1L262.13 267.542" stroke="white" stroke-width="0.776447"/>
<path d="M500.991 180.604L461.313 195.046" stroke="white" stroke-width="0.776447"/>
<path d="M304.641 259.941L266.373 277.786" stroke="white" stroke-width="0.776447"/>
<path d="M496.748 170.36L458.48 188.205" stroke="white" stroke-width="0.776447"/>
<path d="M308.06 266.509L271.493 287.621" stroke="white" stroke-width="0.776447"/>
<path d="M491.628 160.525L455.061 181.638" stroke="white" stroke-width="0.776447"/>
<path d="M312.038 272.753L277.45 296.972" stroke="white" stroke-width="0.776447"/>
<path d="M485.671 151.175L451.083 175.394" stroke="white" stroke-width="0.776447"/>
<path d="M316.545 278.627L284.2 305.769" stroke="white" stroke-width="0.776447"/>
<path d="M478.921 142.378L446.575 169.519" stroke="white" stroke-width="0.776447"/>
<path d="M321.548 284.086L291.69 313.943" stroke="white" stroke-width="0.776447"/>
<path d="M471.429 134.204L441.572 164.061" stroke="white" stroke-width="0.776447"/>
<path d="M327.007 289.089L299.866 321.434" stroke="white" stroke-width="0.776447"/>
<path d="M463.257 126.713L436.115 159.058" stroke="white" stroke-width="0.776447"/>
<path d="M332.88 293.595L308.661 328.183" stroke="white" stroke-width="0.776447"/>
<path d="M454.46 119.962L430.241 154.55" stroke="white" stroke-width="0.776447"/>
<path d="M339.124 297.573L318.012 334.14" stroke="white" stroke-width="0.776447"/>
<path d="M445.109 114.005L423.997 150.572" stroke="white" stroke-width="0.776447"/>
<path d="M345.692 300.993L327.848 339.261" stroke="white" stroke-width="0.776447"/>
<path d="M435.274 108.886L417.429 147.154" stroke="white" stroke-width="0.776447"/>
<path d="M352.532 303.826L338.09 343.504" stroke="white" stroke-width="0.776447"/>
<path d="M425.029 104.643L410.588 144.321" stroke="white" stroke-width="0.776447"/>
<path d="M359.594 306.052L348.665 346.838" stroke="white" stroke-width="0.776447"/>
<path d="M414.455 101.308L403.526 142.094" stroke="white" stroke-width="0.776447"/>
<path d="M366.822 307.654L359.49 349.237" stroke="white" stroke-width="0.776447"/>
<path d="M403.631 98.9078L396.299 140.491" stroke="white" stroke-width="0.776447"/>
<path d="M374.163 308.622L370.482 350.685" stroke="white" stroke-width="0.776447"/>
<path d="M392.637 97.4616L388.957 139.525" stroke="white" stroke-width="0.776447"/>
<path d="M482.5 348L512.184 386.05H720V440" stroke="white" stroke-width="7.76447"/>
<path d="M719.589 0V87.6027L519 180.5" stroke="white" stroke-width="7.76447"/>
<path d="M708 0L708 79.2158L517 167" stroke="white" stroke-width="3.10579"/>
<path d="M363.769 185.779L338.24 185.779C335.904 185.779 334.01 187.673 334.01 190.01L334.009 199.999L331.399 199.979C328.462 199.956 326.069 202.33 326.069 205.267L326.069 208.835C326.069 211.684 328.326 214.021 331.173 214.12L334.009 214.219L334.009 228.434L350.62 228.434L350.62 235.189C350.62 238.11 352.988 240.477 355.909 240.477L357.484 240.477C360.404 240.477 362.772 238.11 362.772 235.189L362.772 228.434L378.047 228.434L378.152 214.219L371.191 214.08C367.341 214.004 364.26 210.861 364.26 207.01V207.01C364.26 203.104 367.426 199.938 371.332 199.938L378.152 199.938L378.152 189.912C378.152 187.572 376.251 185.676 373.911 185.682L363.769 185.706" stroke="white" stroke-width="1.55289"/>
<path d="M346.405 232.114H334.038V271.161C334.038 273.066 335.579 274.611 337.484 274.616L348.558 274.641L349.341 274.643L349.333 275.425L349.306 278.023C349.28 280.529 351.301 282.576 353.807 282.582L357.705 282.592C360.134 282.598 362.131 280.679 362.224 278.252L362.332 275.422L362.361 274.674L363.11 274.676L376.88 274.709L376.919 258.897L376.921 258.121L377.698 258.123L384.735 258.14C387.226 258.146 389.251 256.131 389.257 253.639L389.261 252.081C389.268 249.589 387.252 247.564 384.76 247.558L377.724 247.541L376.948 247.539L376.95 246.763L376.986 232.278L367.071 232.158L366.968 236.223C366.848 240.952 362.976 244.721 358.246 244.712L355.087 244.707C350.274 244.698 346.381 240.786 346.394 235.973L346.405 232.114Z" stroke="white" stroke-width="1.55289"/>
<path d="M380.925 261.719V274.42H419.974C421.878 274.42 423.423 272.878 423.428 270.974L423.452 260.891L423.454 260.108L424.237 260.116L426.835 260.143C429.341 260.169 431.388 258.148 431.394 255.642L431.403 251.745C431.409 249.316 429.491 247.318 427.064 247.225L424.234 247.117L423.485 247.088L423.487 246.339L423.52 232.569L407.709 232.53L406.933 232.528L406.934 231.751L406.951 224.714C406.957 222.223 404.942 220.198 402.451 220.192L400.893 220.188C398.401 220.182 396.376 222.197 396.37 224.689L396.353 231.725L396.351 232.501L395.574 232.499L381.091 232.463L380.968 244.114L385.032 244.217C389.768 244.337 393.531 248.265 393.521 252.99C393.511 257.796 389.606 261.743 384.788 261.73L380.925 261.719Z" stroke="white" stroke-width="1.55289"/>
<path d="M412.3 222.915L423.324 229.222L442.714 195.328C443.66 193.675 443.089 191.568 441.439 190.618L432.699 185.59L432.02 185.2L432.416 184.525L433.73 182.283C434.997 180.121 434.259 177.34 432.087 176.091L428.708 174.147C426.603 172.936 423.916 173.609 422.63 175.67L421.131 178.072L420.735 178.708L420.085 178.334L408.15 171.468L400.264 185.172L399.877 185.845L399.204 185.458L393.104 181.949C390.944 180.707 388.186 181.45 386.943 183.61L386.166 184.96C384.924 187.12 385.667 189.879 387.827 191.121L393.926 194.63L394.599 195.017L394.212 195.69L386.988 208.244L397.04 214.136L399.148 210.659C401.603 206.608 406.882 205.292 410.978 207.648C415.144 210.043 416.632 215.392 414.227 219.568L412.3 222.915Z" stroke="#0088FF" stroke-width="1.55289"/>
</svg>
