<svg width="360" height="265" viewBox="0 0 360 265" fill="none" xmlns="http://www.w3.org/2000/svg">
<g clip-path="url(#clip0)">
<path d="M322.93 129.473C322.93 184.851 279.394 229.744 225.69 229.744C171.985 229.744 128.449 184.851 128.449 129.473" stroke="white" stroke-width="4.71556"/>
<path d="M192.548 79.3138C220.27 61.071 257.861 69.2567 276.512 97.5971C295.162 125.938 287.808 163.701 260.086 181.944" stroke="white" stroke-width="4.71556"/>
<path d="M226.229 18.9391C288.617 18.9391 339.192 69.786 339.192 132.509C339.192 195.232 288.617 246.079 226.229 246.079" stroke="#0088FF" stroke-width="3.64395"/>
<path d="M235.946 205.388C187.057 215.409 146.973 173.504 150.92 126.132" stroke="#0088FF" stroke-width="8.48801" stroke-linejoin="round"/>
<path d="M230.784 47.4836C282.567 52.2277 314.48 92.2658 309.736 144.048" stroke="white" stroke-width="8.48801" stroke-linejoin="round"/>
<path d="M244.144 35.6408C282.095 41.6319 307.719 62.6475 318.785 100.814" stroke="white" stroke-width="4.71556" stroke-linejoin="round"/>
<path d="M111.59 216.788C111.59 216.788 101.254 207.259 97.688 198.708" stroke="#0088FF" stroke-width="0.943113"/>
<path d="M161.246 178.97L102.864 223.393L109.623 232.111" stroke="#0088FF" stroke-width="0.943113"/>
<path d="M109.113 249.945C113.646 254.537 121.043 254.585 125.635 250.052C130.227 245.519 130.275 238.122 125.742 233.53C121.209 228.938 113.812 228.89 109.22 233.423C104.628 237.956 104.58 245.353 109.113 249.945Z" stroke="#0088FF" stroke-width="1.41467"/>
<path d="M111.464 247.625C114.715 250.918 120.02 250.952 123.313 247.701C126.607 244.45 126.641 239.145 123.39 235.852C120.139 232.558 114.834 232.524 111.541 235.775C108.247 239.026 108.213 244.331 111.464 247.625Z" stroke="#0088FF" stroke-width="1.41467"/>
<path d="M113.816 245.304C115.785 247.299 118.999 247.319 120.993 245.35C122.988 243.381 123.009 240.168 121.04 238.174C119.071 236.179 115.857 236.158 113.863 238.127C111.868 240.096 111.847 243.309 113.816 245.304Z" stroke="#0088FF" stroke-width="1.41467"/>
<path d="M93.4258 198.009C94.8453 199.447 97.1618 199.462 98.5998 198.042C100.038 196.623 100.053 194.306 98.6333 192.868C97.2138 191.43 94.8973 191.415 93.4593 192.835C92.0213 194.254 92.0063 196.571 93.4258 198.009Z" stroke="#0088FF" stroke-width="0.943113"/>
<path d="M223.533 82.2241V56.5801" stroke="white" stroke-width="0.471556"/>
<path d="M223.533 210.956V185.312" stroke="white" stroke-width="0.471556"/>
<path d="M219.042 82.4199L216.807 56.8735" stroke="white" stroke-width="0.471556"/>
<path d="M230.26 210.663L228.025 185.117" stroke="white" stroke-width="0.471556"/>
<path d="M214.582 83.0066L210.129 57.7522" stroke="white" stroke-width="0.471556"/>
<path d="M236.934 209.784L232.481 184.529" stroke="white" stroke-width="0.471556"/>
<path d="M210.192 83.9804L203.555 59.2102" stroke="white" stroke-width="0.471556"/>
<path d="M243.511 208.327L236.874 183.557" stroke="white" stroke-width="0.471556"/>
<path d="M205.904 85.3321L197.133 61.2346" stroke="white" stroke-width="0.471556"/>
<path d="M249.933 206.301L241.163 182.204" stroke="white" stroke-width="0.471556"/>
<path d="M201.751 87.0531L190.913 63.8118" stroke="white" stroke-width="0.471556"/>
<path d="M256.155 203.724L245.317 180.483" stroke="white" stroke-width="0.471556"/>
<path d="M197.76 89.1295L184.938 66.9211" stroke="white" stroke-width="0.471556"/>
<path d="M262.126 200.615L249.304 178.407" stroke="white" stroke-width="0.471556"/>
<path d="M193.968 91.5454L179.259 70.5391" stroke="white" stroke-width="0.471556"/>
<path d="M267.805 196.997L253.096 175.991" stroke="white" stroke-width="0.471556"/>
<path d="M190.401 94.2831L173.917 74.6387" stroke="white" stroke-width="0.471556"/>
<path d="M273.148 192.898L256.665 173.253" stroke="white" stroke-width="0.471556"/>
<path d="M187.084 97.321L168.951 79.188" stroke="white" stroke-width="0.471556"/>
<path d="M278.113 188.349L259.979 170.216" stroke="white" stroke-width="0.471556"/>
<path d="M184.047 100.636L164.403 84.1523" stroke="white" stroke-width="0.471556"/>
<path d="M282.661 183.385L263.017 166.901" stroke="white" stroke-width="0.471556"/>
<path d="M184.047 100.636L164.403 84.1523" stroke="white" stroke-width="0.471556"/>
<path d="M282.661 183.385L263.017 166.901" stroke="white" stroke-width="0.471556"/>
<path d="M181.31 104.203L160.303 89.4944" stroke="white" stroke-width="0.471556"/>
<path d="M286.761 178.042L265.755 163.333" stroke="white" stroke-width="0.471556"/>
<path d="M178.895 107.995L156.687 95.1726" stroke="white" stroke-width="0.471556"/>
<path d="M290.38 172.362L268.172 159.54" stroke="white" stroke-width="0.471556"/>
<path d="M176.818 111.985L153.577 101.147" stroke="white" stroke-width="0.471556"/>
<path d="M293.49 166.389L270.249 155.552" stroke="white" stroke-width="0.471556"/>
<path d="M175.097 116.138L151 107.367" stroke="white" stroke-width="0.471556"/>
<path d="M296.067 160.168L271.97 151.398" stroke="white" stroke-width="0.471556"/>
<path d="M173.745 120.426L148.975 113.789" stroke="white" stroke-width="0.471556"/>
<path d="M298.091 153.746L273.321 147.109" stroke="white" stroke-width="0.471556"/>
<path d="M172.77 124.816L147.516 120.363" stroke="white" stroke-width="0.471556"/>
<path d="M299.546 147.172L274.292 142.719" stroke="white" stroke-width="0.471556"/>
<path d="M172.184 129.276L146.637 127.041" stroke="white" stroke-width="0.471556"/>
<path d="M300.426 140.496L274.88 138.26" stroke="white" stroke-width="0.471556"/>
<path d="M171.988 133.768L146.344 133.768" stroke="white" stroke-width="0.471556"/>
<path d="M300.721 133.768L275.077 133.768" stroke="white" stroke-width="0.471556"/>
<path d="M172.184 138.259L146.637 140.494" stroke="white" stroke-width="0.471556"/>
<path d="M300.425 127.041L274.879 129.276" stroke="white" stroke-width="0.471556"/>
<path d="M172.77 142.718L147.515 147.171" stroke="white" stroke-width="0.471556"/>
<path d="M299.546 120.365L274.292 124.818" stroke="white" stroke-width="0.471556"/>
<path d="M173.744 147.107L148.974 153.745" stroke="white" stroke-width="0.471556"/>
<path d="M298.091 113.791L273.321 120.428" stroke="white" stroke-width="0.471556"/>
<path d="M175.096 151.397L150.999 160.168" stroke="white" stroke-width="0.471556"/>
<path d="M296.066 107.368L271.968 116.139" stroke="white" stroke-width="0.471556"/>
<path d="M176.818 155.552L153.577 166.389" stroke="white" stroke-width="0.471556"/>
<path d="M293.49 101.147L270.249 111.984" stroke="white" stroke-width="0.471556"/>
<path d="M178.893 159.54L156.685 172.362" stroke="white" stroke-width="0.471556"/>
<path d="M290.38 95.1739L268.171 107.996" stroke="white" stroke-width="0.471556"/>
<path d="M181.31 163.333L160.303 178.042" stroke="white" stroke-width="0.471556"/>
<path d="M286.761 89.4951L265.755 104.204" stroke="white" stroke-width="0.471556"/>
<path d="M184.046 166.9L164.402 183.384" stroke="white" stroke-width="0.471556"/>
<path d="M282.661 84.1526L263.017 100.636" stroke="white" stroke-width="0.471556"/>
<path d="M187.084 170.215L168.951 188.348" stroke="white" stroke-width="0.471556"/>
<path d="M278.113 79.188L259.98 97.321" stroke="white" stroke-width="0.471556"/>
<path d="M190.401 173.254L173.917 192.898" stroke="white" stroke-width="0.471556"/>
<path d="M273.147 74.6388L256.664 94.2832" stroke="white" stroke-width="0.471556"/>
<path d="M193.968 175.991L179.259 196.997" stroke="white" stroke-width="0.471556"/>
<path d="M267.807 70.5391L253.098 91.5454" stroke="white" stroke-width="0.471556"/>
<path d="M197.759 178.406L184.937 200.615" stroke="white" stroke-width="0.471556"/>
<path d="M262.127 66.9208L249.305 89.1292" stroke="white" stroke-width="0.471556"/>
<path d="M201.75 180.484L190.912 203.725" stroke="white" stroke-width="0.471556"/>
<path d="M256.155 63.8119L245.317 87.0532" stroke="white" stroke-width="0.471556"/>
<path d="M205.901 182.203L197.13 206.301" stroke="white" stroke-width="0.471556"/>
<path d="M249.933 61.2348L241.162 85.3323" stroke="white" stroke-width="0.471556"/>
<path d="M210.191 183.556L203.554 208.326" stroke="white" stroke-width="0.471556"/>
<path d="M243.511 59.21L236.874 83.9802" stroke="white" stroke-width="0.471556"/>
<path d="M214.581 184.529L210.128 209.783" stroke="white" stroke-width="0.471556"/>
<path d="M236.935 57.7522L232.482 83.0066" stroke="white" stroke-width="0.471556"/>
<path d="M219.04 185.116L216.805 210.663" stroke="white" stroke-width="0.471556"/>
<path d="M230.26 56.8738L228.025 82.4202" stroke="white" stroke-width="0.471556"/>
<path d="M366 232.141H302.862L284.835 209.032" stroke="white" stroke-width="4.71556"/>
<path d="M212.726 110.511L197.222 110.511C195.803 110.511 194.652 111.661 194.652 113.08L194.652 119.147L193.066 119.135C191.283 119.121 189.83 120.563 189.83 122.347L189.83 124.513C189.83 126.244 191.201 127.663 192.93 127.723L194.652 127.783L194.652 136.416L204.74 136.416L204.74 140.519C204.74 142.293 206.178 143.731 207.952 143.731L208.909 143.731C210.682 143.731 212.12 142.293 212.12 140.519L212.12 136.416L221.397 136.416L221.461 127.783L217.233 127.699C214.895 127.652 213.024 125.744 213.024 123.405V123.405C213.024 121.033 214.947 119.11 217.319 119.11L221.461 119.11L221.461 113.021C221.461 111.6 220.307 110.448 218.885 110.452L212.726 110.467" stroke="white" stroke-width="0.943113"/>
<path d="M202.18 138.651H194.669V162.366C194.669 163.522 195.606 164.461 196.762 164.464L203.488 164.479L203.964 164.48L203.959 164.955L203.942 166.533C203.926 168.055 205.154 169.298 206.676 169.302L209.043 169.308C210.518 169.311 211.731 168.146 211.788 166.672L211.853 164.954L211.871 164.499L212.326 164.5L220.688 164.52L220.713 154.917L220.714 154.446L221.185 154.447L225.459 154.457C226.972 154.461 228.202 153.237 228.206 151.724L228.208 150.778C228.212 149.264 226.988 148.034 225.474 148.031L221.201 148.021L220.73 148.02L220.731 147.548L220.753 138.751L214.731 138.678L214.669 141.147C214.596 144.019 212.244 146.308 209.372 146.302L207.453 146.299C204.53 146.294 202.166 143.918 202.174 140.995L202.18 138.651Z" stroke="white" stroke-width="0.943113"/>
<path d="M223.146 156.631V164.344H246.861C248.017 164.344 248.956 163.408 248.959 162.252L248.974 156.128L248.975 155.653L249.45 155.657L251.028 155.674C252.55 155.69 253.793 154.462 253.797 152.94L253.802 150.573C253.806 149.098 252.641 147.885 251.167 147.828L249.448 147.763L248.994 147.745L248.995 147.29L249.015 138.928L239.412 138.904L238.941 138.902L238.942 138.431L238.952 134.157C238.956 132.644 237.732 131.414 236.219 131.41L235.273 131.408C233.759 131.404 232.529 132.628 232.525 134.142L232.515 138.415L232.514 138.886L232.043 138.885L223.246 138.863L223.172 145.939L225.64 146.002C228.516 146.074 230.802 148.46 230.795 151.33C230.789 154.248 228.418 156.646 225.491 156.637L223.146 156.631Z" stroke="white" stroke-width="0.943113"/>
<path d="M242.2 133.065L248.895 136.895L260.672 116.31C261.246 115.306 260.899 114.027 259.897 113.45L254.589 110.396L254.177 110.159L254.417 109.749L255.215 108.388C255.984 107.074 255.536 105.386 254.217 104.627L252.165 103.447C250.886 102.711 249.255 103.12 248.474 104.371L247.564 105.83L247.323 106.216L246.928 105.989L239.679 101.819L234.89 110.142L234.655 110.551L234.246 110.316L230.542 108.185C229.23 107.43 227.555 107.882 226.8 109.194L226.329 110.013C225.574 111.325 226.025 113.001 227.337 113.755L231.041 115.886L231.45 116.121L231.215 116.53L226.828 124.154L232.933 127.733L234.212 125.621C235.704 123.161 238.909 122.362 241.397 123.792C243.928 125.247 244.831 128.496 243.371 131.032L242.2 133.065Z" stroke="#0088FF" stroke-width="0.943113"/>
</g>
<defs>
<clipPath id="clip0">
<rect width="360" height="265" fill="white"/>
</clipPath>
</defs>
</svg>
