<svg width="359" height="121" viewBox="0 0 359 121" fill="none" xmlns="http://www.w3.org/2000/svg">
<path d="M185.658 42.3882C185.658 45.5196 183.119 48.058 179.988 48.058C176.857 48.058 174.318 45.5196 174.318 42.3882C174.318 39.2569 176.857 36.7184 179.988 36.7184C183.119 36.7184 185.658 39.2569 185.658 42.3882Z" stroke="#103957" stroke-width="1.07996"/>
<path d="M180.258 78.57C193.028 78.57 204.18 71.7305 210.166 61.5576" stroke="#0088FF" stroke-width="5.3998"/>
<path d="M244.922 68.3483C244.922 68.3483 241.288 81.6956 235.438 88.6877" stroke="#0088FF" stroke-width="1.07996"/>
<path d="M206.718 52.3781L256.936 72.8972L261.526 59.9378" stroke="#0088FF" stroke-width="1.07996"/>
<path d="M276.19 49.4511C276.19 43.1648 271.094 38.0687 264.808 38.0687C258.521 38.0687 253.425 43.1648 253.425 49.4511C253.425 55.7375 258.521 60.8336 264.808 60.8336C271.094 60.8336 276.19 55.7375 276.19 49.4511Z" stroke="#0088FF" stroke-width="1.61994"/>
<path d="M272.838 47.1538L272.958 47.8114C273.653 51.619 271.612 55.3986 268.047 56.9064V56.9064C264.394 58.4517 260.158 57.1834 257.955 53.8848L257.842 53.715" stroke="#103957" stroke-width="2.15992"/>
<path d="M236.247 92.8796C236.846 91.0278 235.831 89.0409 233.979 88.4418C232.127 87.8427 230.14 88.8582 229.541 90.71C228.942 92.5619 229.958 94.5488 231.809 95.1479C233.661 95.747 235.648 94.7314 236.247 92.8796Z" stroke="#0088FF" stroke-width="1.07996"/>
<path d="M207.483 41.9244C207.483 57.0357 195.233 69.2859 180.121 69.2859C165.01 69.2859 152.76 57.0357 152.76 41.9244C152.76 26.813 165.01 14.5628 180.121 14.5628C195.233 14.5628 207.483 26.813 207.483 41.9244Z" stroke="#103957" stroke-width="3.23988"/>
<path d="M180.258 0V15.1319" stroke="#103957" stroke-width="5.3998"/>
<path d="M192.301 42.2839C192.301 49.0381 186.825 54.5135 180.071 54.5135C173.317 54.5135 167.842 49.0381 167.842 42.2839C167.842 35.5297 173.317 30.0543 180.071 30.0543C186.825 30.0543 192.301 35.5297 192.301 42.2839Z" stroke="#0088FF" stroke-width="3.23988"/>
<path d="M116 53.9466L137.146 50.218" stroke="#103957" stroke-width="0.53998"/>
<path d="M117.219 59.4515L137.96 53.894" stroke="#103957" stroke-width="0.53998"/>
<path d="M118.916 64.8288L139.094 57.4849" stroke="#103957" stroke-width="0.53998"/>
<path d="M121.074 70.0382L140.534 60.9636" stroke="#103957" stroke-width="0.53998"/>
<path d="M123.677 75.0393L142.272 64.3032" stroke="#103957" stroke-width="0.53998"/>
<path d="M126.707 79.7945L144.296 67.4785" stroke="#103957" stroke-width="0.53998"/>
<path d="M130.138 84.2676L146.587 70.4656" stroke="#103957" stroke-width="0.53998"/>
<path d="M133.948 88.4248L149.131 73.2417" stroke="#103957" stroke-width="0.53998"/>
<path d="M138.105 92.2341L151.907 75.7854" stroke="#103957" stroke-width="0.53998"/>
<path d="M142.578 95.6664L154.894 78.0774" stroke="#103957" stroke-width="0.53998"/>
<path d="M147.333 98.6961L158.069 80.1006" stroke="#103957" stroke-width="0.53998"/>
<path d="M152.335 101.299L161.409 81.8389" stroke="#103957" stroke-width="0.53998"/>
<path d="M157.544 103.457L164.888 83.2798" stroke="#103957" stroke-width="0.53998"/>
<path d="M162.921 105.153L168.479 84.4121" stroke="#103957" stroke-width="0.53998"/>
<path d="M168.426 106.373L172.154 85.2271" stroke="#103957" stroke-width="0.53998"/>
<path d="M174.016 107.109L175.888 85.7185" stroke="#103957" stroke-width="0.53998"/>
<path d="M179.649 107.355L179.649 85.8826" stroke="#103957" stroke-width="0.53998"/>
<path d="M185.283 107.109L183.411 85.7185" stroke="#103957" stroke-width="0.53998"/>
<path d="M190.872 106.373L187.144 85.2271" stroke="#103957" stroke-width="0.53998"/>
<path d="M196.378 105.153L190.82 84.4124" stroke="#103957" stroke-width="0.53998"/>
<path d="M201.755 103.457L194.411 83.2798" stroke="#103957" stroke-width="0.53998"/>
<path d="M206.963 101.299L197.889 81.8389" stroke="#103957" stroke-width="0.53998"/>
<path d="M211.965 98.6961L201.229 80.1006" stroke="#103957" stroke-width="0.53998"/>
<path d="M216.721 95.6664L204.405 78.0774" stroke="#103957" stroke-width="0.53998"/>
<path d="M221.194 92.2341L207.392 75.7854" stroke="#103957" stroke-width="0.53998"/>
<path d="M225.351 88.4248L210.168 73.2417" stroke="#103957" stroke-width="0.53998"/>
<path d="M229.16 84.2676L212.711 70.4656" stroke="#103957" stroke-width="0.53998"/>
</svg>
