<svg width="359" height="414" viewBox="0 0 359 414" fill="none" xmlns="http://www.w3.org/2000/svg">
<path d="M190.254 228.365C190.254 228.365 184.344 213.893 184.788 203.6" stroke="#0088FF" stroke-width="0.970818"/>
<path d="M348.592 292.883C291.023 313.293 228.029 283.789 207.891 226.985C187.753 170.181 218.097 107.588 275.666 87.1786" stroke="white" stroke-width="4.85409"/>
<path d="M348.592 292.883C291.023 313.293 228.029 283.789 207.891 226.985C187.753 170.181 218.097 107.588 275.666 87.1786" stroke="white" stroke-width="4.85409"/>
<path d="M295.37 259.707C277.981 255.912 263.382 246.297 253.22 233.392C240.326 217.017 234.575 195.346 239.332 173.55C247.837 134.577 286.716 109.963 326.17 118.573" stroke="white" stroke-width="4.85409"/>
<path d="M326.17 118.573C286.716 109.963 247.837 134.577 239.332 173.55C234.575 195.346 240.326 217.017 253.22 233.392" stroke="white" stroke-width="4.85409"/>
<path d="M245.138 249.565C212.122 211.183 216.471 153.303 254.854 120.286" stroke="#0088FF" stroke-width="8.73736" stroke-linejoin="round"/>
<path d="M240.357 210.798L175.599 233.756L179.65 245.184" stroke="#0088FF" stroke-width="0.970818"/>
<path d="M172.126 262.47C174.534 269.263 181.994 272.818 188.787 270.409C195.58 268.001 199.135 260.542 196.726 253.749C194.318 246.956 186.859 243.401 180.065 245.809C173.272 248.217 169.718 255.677 172.126 262.47Z" stroke="#0088FF" stroke-width="1.45623"/>
<path d="M175.589 261.242C177.319 266.123 182.678 268.677 187.559 266.946C192.44 265.216 194.993 259.857 193.263 254.976C191.533 250.096 186.174 247.542 181.293 249.272C176.413 251.002 173.859 256.362 175.589 261.242Z" stroke="white" stroke-width="1.45623"/>
<path d="M175.608 157.931C177.338 162.812 182.697 165.366 187.578 163.635C192.458 161.905 195.012 156.546 193.282 151.665C191.551 146.785 186.192 144.231 181.312 145.961C176.431 147.691 173.877 153.05 175.608 157.931Z" stroke="white" stroke-width="1.45623"/>
<path d="M179.051 259.961C180.103 262.929 183.362 264.483 186.33 263.43C189.298 262.378 190.851 259.119 189.799 256.151C188.747 253.183 185.488 251.63 182.52 252.682C179.552 253.734 177.999 256.993 179.051 259.961Z" stroke="white" stroke-width="1.45623"/>
<path d="M206.387 378.325C207.305 380.914 210.147 382.269 212.736 381.351C215.325 380.433 216.68 377.59 215.762 375.001C214.844 372.412 212.002 371.057 209.413 371.975C206.824 372.893 205.469 375.736 206.387 378.325Z" stroke="white" stroke-width="2.91245"/>
<path d="M179.071 156.703C180.123 159.671 183.382 161.224 186.35 160.172C189.318 159.12 190.871 155.861 189.819 152.893C188.766 149.925 185.507 148.372 182.539 149.424C179.571 150.476 178.018 153.735 179.071 156.703Z" stroke="white" stroke-width="1.45623"/>
<path d="M181.293 200.356C182.006 202.368 184.215 203.421 186.227 202.707C188.238 201.994 189.291 199.785 188.578 197.774C187.865 195.762 185.656 194.709 183.644 195.422C181.632 196.136 180.58 198.345 181.293 200.356Z" stroke="#0088FF" stroke-width="1.45623"/>
<path d="M180.991 117.039C181.704 119.051 183.913 120.104 185.925 119.391C187.937 118.677 188.989 116.468 188.276 114.457C187.563 112.445 185.354 111.392 183.342 112.105C181.331 112.819 180.278 115.028 180.991 117.039Z" stroke="white" stroke-width="1.45623"/>
<line y1="-0.242705" x2="29.288" y2="-0.242705" transform="matrix(-0.773628 0.633641 0.633641 0.773628 207.41 275.105)" stroke="white" stroke-width="0.485409"/>
<line y1="-0.242705" x2="29.545" y2="-0.242705" transform="matrix(-0.758587 0.651571 0.651571 0.758587 209.899 277.731)" stroke="white" stroke-width="0.485409"/>
<line y1="-0.242705" x2="29.1401" y2="-0.242705" transform="matrix(-0.736933 0.675966 0.675966 0.736933 212.044 280.479)" stroke="white" stroke-width="0.485409"/>
<line y1="-0.242705" x2="29.1007" y2="-0.242705" transform="matrix(-0.717593 0.696463 0.696463 0.717593 214.534 283.105)" stroke="white" stroke-width="0.485409"/>
<line y1="-0.242705" x2="29.0845" y2="-0.242705" transform="matrix(-0.697644 0.716444 0.716444 0.697644 217.024 285.731)" stroke="white" stroke-width="0.485409"/>
<line y1="-0.242705" x2="28.9216" y2="-0.242705" transform="matrix(-0.685355 0.728209 0.728209 0.685355 219.514 288.356)" stroke="white" stroke-width="0.485409"/>
<line y1="-0.242705" x2="28.6213" y2="-0.242705" transform="matrix(-0.659768 0.75147 0.75147 0.659768 222.004 290.982)" stroke="white" stroke-width="0.485409"/>
<line y1="-0.242705" x2="28.6708" y2="-0.242705" transform="matrix(-0.637986 0.770048 0.770048 0.637986 224.717 293.139)" stroke="white" stroke-width="0.485409"/>
<line y1="-0.242705" x2="28.6707" y2="-0.242705" transform="matrix(-0.637986 0.770048 0.770048 0.637986 227.901 295.519)" stroke="white" stroke-width="0.485409"/>
<line y1="-0.242705" x2="28.7436" y2="-0.242705" transform="matrix(-0.615778 0.78792 0.78792 0.615778 230.614 297.675)" stroke="white" stroke-width="0.485409"/>
<line y1="-0.242705" x2="28.5362" y2="-0.242705" transform="matrix(-0.587377 0.809313 0.809313 0.587377 233.328 299.832)" stroke="white" stroke-width="0.485409"/>
<line y1="-0.242705" x2="28.0712" y2="-0.242705" transform="matrix(-0.551351 0.834273 0.834273 0.551351 236.042 301.988)" stroke="white" stroke-width="0.485409"/>
<line y1="-0.242705" x2="28.5197" y2="-0.242705" transform="matrix(-0.534071 0.845439 0.845439 0.534071 239.448 303.9)" stroke="white" stroke-width="0.485409"/>
<line y1="-0.242705" x2="28.2318" y2="-0.242705" transform="matrix(-0.52725 0.84971 0.84971 0.52725 242.508 305.933)" stroke="white" stroke-width="0.485409"/>
<line y1="-0.242705" x2="27.8975" y2="-0.242705" transform="matrix(-0.504341 0.863505 0.863505 0.504341 245.568 307.967)" stroke="white" stroke-width="0.485409"/>
<line y1="-0.242705" x2="28.1024" y2="-0.242705" transform="matrix(-0.479603 0.877486 0.877486 0.479603 248.852 309.532)" stroke="white" stroke-width="0.485409"/>
<line y1="-0.242705" x2="27.8103" y2="-0.242705" transform="matrix(-0.455322 0.890327 0.890327 0.455322 252.135 311.097)" stroke="white" stroke-width="0.485409"/>
<line y1="-0.242705" x2="27.5396" y2="-0.242705" transform="matrix(-0.43019 0.902738 0.902738 0.43019 255.418 312.661)" stroke="white" stroke-width="0.485409"/>
<line y1="-0.242705" x2="27.5445" y2="-0.242705" transform="matrix(-0.413084 0.910693 0.910693 0.413084 258.702 314.226)" stroke="white" stroke-width="0.485409"/>
<line y1="-0.242705" x2="27.3107" y2="-0.242705" transform="matrix(-0.386765 0.922179 0.922179 0.386765 261.985 315.791)" stroke="white" stroke-width="0.485409"/>
<line y1="-0.242705" x2="27.3403" y2="-0.242705" transform="matrix(-0.369188 0.929355 0.929355 0.369188 265.493 316.887)" stroke="white" stroke-width="0.485409"/>
<line y1="-0.242705" x2="27.3798" y2="-0.242705" transform="matrix(-0.351524 0.936179 0.936179 0.351524 269 317.982)" stroke="white" stroke-width="0.485409"/>
<line y1="-0.242705" x2="26.6831" y2="-0.242705" transform="matrix(-0.321767 0.946819 0.946819 0.321767 272.283 319.547)" stroke="white" stroke-width="0.485409"/>
<line y1="-0.242705" x2="27.0424" y2="-0.242705" transform="matrix(-0.295605 0.95531 0.95531 0.295605 275.668 320.296)" stroke="white" stroke-width="0.485409"/>
<line y1="-0.242705" x2="26.9098" y2="-0.242705" transform="matrix(-0.266762 0.963763 0.963763 0.266762 279.052 321.046)" stroke="white" stroke-width="0.485409"/>
<line y1="-0.242705" x2="26.2932" y2="-0.242705" transform="matrix(-0.233505 0.972356 0.972356 0.233505 282.213 322.264)" stroke="white" stroke-width="0.485409"/>
<line y1="-0.242705" x2="26.4059" y2="-0.242705" transform="matrix(-0.214744 0.97667 0.97667 0.214744 285.944 322.891)" stroke="white" stroke-width="0.485409"/>
<line y1="-0.242705" x2="26.5283" y2="-0.242705" transform="matrix(-0.196071 0.98059 0.98059 0.196071 289.674 323.517)" stroke="white" stroke-width="0.485409"/>
<line y1="-0.242705" x2="25.9807" y2="-0.242705" transform="matrix(-0.160216 0.987082 0.987082 0.160216 293.059 324.267)" stroke="white" stroke-width="0.485409"/>
<line y1="-0.242705" x2="26.131" y2="-0.242705" transform="matrix(-0.141344 0.989961 0.989961 0.141344 296.666 324.547)" stroke="white" stroke-width="0.485409"/>
<line y1="-0.242705" x2="26.1284" y2="-0.242705" transform="matrix(-0.110151 0.993915 0.993915 0.110151 300.273 324.827)" stroke="white" stroke-width="0.485409"/>
<line y1="-0.242705" x2="25.8165" y2="-0.242705" transform="matrix(-0.0846537 0.996411 0.996411 0.0846537 303.881 325.107)" stroke="white" stroke-width="0.485409"/>
<line y1="-0.242705" x2="25.522" y2="-0.242705" transform="matrix(-0.0584929 0.998288 0.998288 0.0584929 307.49 325.388)" stroke="white" stroke-width="0.485409"/>
<line y1="-0.242705" x2="25.588" y2="-0.242705" transform="matrix(-0.0264762 0.99965 0.99965 0.0264762 310.974 325.322)" stroke="white" stroke-width="0.485409"/>
<line y1="-0.242705" x2="25.6802" y2="-0.242705" transform="matrix(0.00537012 0.999986 0.999986 -0.00537012 314.46 325.256)" stroke="white" stroke-width="0.485409"/>
<line y1="-0.242705" x2="25.4478" y2="-0.242705" transform="matrix(0.0326359 0.999467 0.999467 -0.0326359 317.945 325.19)" stroke="white" stroke-width="0.485409"/>
<line y1="-0.242705" x2="25.3389" y2="-0.242705" transform="matrix(0.0464433 0.998921 0.998921 -0.0464433 321.776 325.001)" stroke="white" stroke-width="0.485409"/>
<line y1="-0.242705" x2="25.2347" y2="-0.242705" transform="matrix(0.0603582 0.998177 0.998177 -0.0603582 325.607 324.812)" stroke="white" stroke-width="0.485409"/>
<line y1="-0.242705" x2="25.3095" y2="-0.242705" transform="matrix(0.106079 0.994358 0.994358 -0.106079 328.847 324.053)" stroke="white" stroke-width="0.485409"/>
<line y1="-0.242705" x2="25.5088" y2="-0.242705" transform="matrix(0.137215 0.990542 0.990542 -0.137215 332.21 323.641)" stroke="white" stroke-width="0.485409"/>
<line y1="-0.242705" x2="25.7327" y2="-0.242705" transform="matrix(0.167707 0.985837 0.985837 -0.167707 335.795 322.76)" stroke="white" stroke-width="0.485409"/>
<line y1="-0.242705" x2="25.2026" y2="-0.242705" transform="matrix(0.207586 0.978217 0.978217 -0.207586 339.156 322.347)" stroke="white" stroke-width="0.485409"/>
<line y1="-0.242704" x2="26.6831" y2="-0.242704" transform="matrix(0.379468 -0.925205 -0.925205 -0.379468 358.625 70.2551)" stroke="white" stroke-width="0.485409"/>
<line y1="-0.242704" x2="27.0424" y2="-0.242704" transform="matrix(0.353879 -0.935291 -0.935291 -0.353879 355.293 69.2987)" stroke="white" stroke-width="0.485409"/>
<line y1="-0.242705" x2="26.9098" y2="-0.242705" transform="matrix(0.325611 -0.945504 -0.945504 -0.325611 351.961 68.3423)" stroke="white" stroke-width="0.485409"/>
<line y1="-0.242705" x2="26.2932" y2="-0.242705" transform="matrix(0.292946 -0.956129 -0.956129 -0.292946 348.883 66.9316)" stroke="white" stroke-width="0.485409"/>
<line y1="-0.242705" x2="26.4059" y2="-0.242705" transform="matrix(0.274487 -0.961591 -0.961591 -0.274487 345.197 66.0764)" stroke="white" stroke-width="0.485409"/>
<line y1="-0.242705" x2="26.5283" y2="-0.242705" transform="matrix(0.25609 -0.966653 -0.966653 -0.25609 341.512 65.2213)" stroke="white" stroke-width="0.485409"/>
<line y1="-0.242705" x2="25.9807" y2="-0.242705" transform="matrix(0.220703 -0.975341 -0.975341 -0.220703 338.179 64.2649)" stroke="white" stroke-width="0.485409"/>
<line y1="-0.242705" x2="26.131" y2="-0.242705" transform="matrix(0.202044 -0.979377 -0.979377 -0.202044 334.597 63.763)" stroke="white" stroke-width="0.485409"/>
<line y1="-0.242705" x2="26.1284" y2="-0.242705" transform="matrix(0.171154 -0.985244 -0.985244 -0.171154 331.013 63.261)" stroke="white" stroke-width="0.485409"/>
<line y1="-0.242705" x2="25.8165" y2="-0.242705" transform="matrix(0.145859 -0.989306 -0.989306 -0.145859 327.429 62.7591)" stroke="white" stroke-width="0.485409"/>
<line y1="-0.242704" x2="25.522" y2="-0.242704" transform="matrix(0.119863 -0.992791 -0.992791 -0.119863 323.846 62.2571)" stroke="white" stroke-width="0.485409"/>
<line y1="-0.242704" x2="25.588" y2="-0.242704" transform="matrix(0.0879912 -0.996121 -0.996121 -0.0879912 320.363 62.1084)" stroke="white" stroke-width="0.485409"/>
<line y1="-0.242705" x2="25.6802" y2="-0.242705" transform="matrix(0.0562261 -0.998418 -0.998418 -0.0562261 316.88 61.9597)" stroke="white" stroke-width="0.485409"/>
<line y1="-0.242704" x2="25.4478" y2="-0.242704" transform="matrix(0.0289801 -0.99958 -0.99958 -0.0289801 313.397 61.811)" stroke="white" stroke-width="0.485409"/>
<line y1="-0.242704" x2="25.3389" y2="-0.242704" transform="matrix(0.0151653 -0.999885 -0.999885 -0.0151653 309.562 61.7634)" stroke="white" stroke-width="0.485409"/>
<line y1="-0.242704" x2="25.2347" y2="-0.242704" transform="matrix(0.00123101 -0.999999 -0.999999 -0.00123101 305.726 61.7159)" stroke="white" stroke-width="0.485409"/>
<line y1="-0.242705" x2="25.3095" y2="-0.242705" transform="matrix(-0.0446382 -0.999004 -0.999004 0.0446382 302.446 62.2736)" stroke="white" stroke-width="0.485409"/>
<line y1="-0.242704" x2="25.5088" y2="-0.242704" transform="matrix(-0.0759503 -0.997112 -0.997112 0.0759503 299.065 62.4781)" stroke="white" stroke-width="0.485409"/>
<line y1="-0.242705" x2="25.7327" y2="-0.242705" transform="matrix(-0.106675 -0.994294 -0.994294 0.106675 295.432 63.137)" stroke="white" stroke-width="0.485409"/>
<line y1="-0.242705" x2="25.2026" y2="-0.242705" transform="matrix(-0.146947 -0.989145 -0.989145 0.146947 292.05 63.3414)" stroke="white" stroke-width="0.485409"/>
<path d="M333.496 254.185C368.025 241.944 386.095 204.035 373.857 169.513C361.618 134.99 323.705 116.928 289.175 129.169C269.126 136.277 254.626 152.039 248.386 170.767" stroke="white" stroke-width="5.82491"/>
<path d="M299.731 250.467C331.815 256.401 362.641 235.178 368.581 203.063C374.521 170.948 353.327 140.103 321.243 134.168C302.613 130.722 284.408 136.432 271.252 148.115" stroke="#0088FF" stroke-width="2.91245"/>
<path d="M284.097 114.987C243.216 129.48 221.836 174.4 236.343 215.32C250.849 256.239 295.75 277.662 336.63 263.169C360.367 254.754 377.53 236.08 384.91 213.887" stroke="white" stroke-width="2.91245"/>
<path d="M364.57 320.355L355.22 323.67L349.081 306.355M349.081 306.355L332.139 258.565C332.139 258.565 312.891 266.948 292.714 260.067M349.081 306.355C349.081 306.355 345.691 308.336 340.178 308.731" stroke="#0088FF" stroke-width="0.970818"/>
<path d="M308.686 262.786L304.711 313.703L312.681 314.191" stroke="white" stroke-width="0.970818"/>
<path d="M275.747 253.997L254.349 299.201C254.349 299.201 258.961 303.414 267.238 304.768" stroke="white" stroke-width="0.970818"/>
<path d="M254.792 236.672L217.195 270.272L221.757 274.892" stroke="white" stroke-width="0.970818"/>
<path d="M242.762 159.852L191.681 135.624M183.131 119.205L178.091 129.178L191.681 135.624M191.681 135.624L187.877 145.785" stroke="white" stroke-width="0.970818"/>
<path d="M289.521 113.063L276.998 77.7404M252.641 61.8162L269.264 55.9232L276.998 77.7404M276.998 77.7404C276.998 77.7404 286.896 72.672 292.28 74.6618" stroke="#0088FF" stroke-width="0.970818"/>
<path d="M345.198 132.113L362.5 94.5979C362.5 94.5979 371.87 98.4877 380.748 107.035" stroke="white" stroke-width="0.970818"/>
<path d="M231.858 69.1848C233.893 74.9261 240.197 77.9303 245.939 75.8949C251.68 73.8595 254.684 67.5553 252.649 61.814C250.613 56.0728 244.309 53.0686 238.568 55.1039C232.827 57.1393 229.822 63.4435 231.858 69.1848Z" stroke="#0088FF" stroke-width="1.45623"/>
<path d="M292.664 76.8647C294.021 80.6934 298.225 82.6968 302.054 81.3394C305.882 79.9821 307.886 75.778 306.528 71.9493C305.171 68.1207 300.967 66.1172 297.138 67.4746C293.31 68.8319 291.306 73.036 292.664 76.8647Z" stroke="#0088FF" stroke-width="1.45623"/>
<path d="M267.125 308.316C268.313 311.667 271.992 313.42 275.343 312.232C278.693 311.044 280.446 307.365 279.259 304.015C278.071 300.664 274.392 298.911 271.041 300.099C267.691 301.287 265.937 304.966 267.125 308.316Z" stroke="white" stroke-width="1.45623"/>
<path d="M312.87 315.294C313.617 317.401 315.931 318.504 318.039 317.757C320.146 317.01 321.249 314.696 320.502 312.588C319.754 310.481 317.44 309.378 315.333 310.125C313.226 310.872 312.123 313.186 312.87 315.294Z" stroke="white" stroke-width="1.45623"/>
<path d="M335.647 309.168C336.055 310.319 337.319 310.921 338.47 310.513C339.621 310.105 340.224 308.841 339.815 307.69C339.407 306.539 338.143 305.937 336.992 306.345C335.841 306.753 335.239 308.017 335.647 309.168Z" stroke="#0088FF" stroke-width="1.45623"/>
<path d="M228.571 277.772C228.571 279.805 226.922 281.453 224.89 281.453C222.857 281.453 221.209 279.805 221.209 277.772C221.209 275.739 222.857 274.091 224.89 274.091C226.922 274.091 228.571 275.739 228.571 277.772Z" stroke="white" stroke-width="1.45623"/>
<path d="M127.533 325.623C127.533 325.623 122.782 329.811 118.17 331.166" stroke="white" stroke-width="0.970818"/>
<path d="M132.921 245.385C150.606 267.731 147.067 299.992 125.017 317.441C102.968 334.89 70.7573 330.92 53.0732 308.573" stroke="white" stroke-width="2.91245"/>
<path d="M36.1516 232.465C52.7698 215.847 52.9488 189.083 36.5514 172.685C20.1541 156.288 -6.61032 156.467 -23.2285 173.085" stroke="white" stroke-width="2.91245"/>
<path d="M121.532 273.363C123.314 288.944 112.282 303.002 96.8906 304.763C81.4993 306.524 67.5772 295.32 65.7949 279.738" stroke="#0088FF" stroke-width="2.42704"/>
<path d="M37.814 284.459C33.3813 252.591 55.3069 223.207 86.7861 218.829C118.265 214.45 147.378 236.735 151.811 268.603" stroke="white" stroke-width="2.91245"/>
<path d="M142.319 314.088C147.413 314.088 151.542 318.218 151.542 323.311C151.542 328.405 147.413 332.534 142.319 332.534" stroke="white" stroke-width="0.970818"/>
<path d="M-14.8083 199.079C-16.197 211.219 -7.60102 222.173 4.3914 223.545C16.3838 224.917 27.2314 216.187 28.6201 204.047" stroke="#0088FF" stroke-width="2.42704"/>
<path d="M111.854 288.665C106.041 298.549 93.3157 301.849 83.4316 296.036" stroke="#0088FF" stroke-width="4.85409" stroke-linejoin="round"/>
<path d="M19.7779 188.809C14.3237 181.732 4.16543 180.417 -2.91113 185.871" stroke="#0088FF" stroke-width="4.85409" stroke-linejoin="round"/>
<path d="M111.602 303.118L132.115 331.398L137.308 327.171" stroke="white" stroke-width="0.970818"/>
<path d="M145.832 327.584C148.301 325.631 148.718 322.046 146.765 319.577C144.811 317.108 141.226 316.691 138.757 318.644C136.289 320.598 135.871 324.183 137.825 326.652C139.778 329.12 143.363 329.538 145.832 327.584Z" stroke="white" stroke-width="1.45623"/>
<path d="M144.768 326.24C146.494 324.874 146.786 322.367 145.42 320.641C144.054 318.915 141.547 318.623 139.82 319.989C138.094 321.355 137.802 323.862 139.168 325.588C140.534 327.314 143.041 327.606 144.768 326.24Z" stroke="white" stroke-width="1.45623"/>
<path d="M144.005 325.276C145.199 324.331 145.401 322.597 144.456 321.403C143.511 320.209 141.777 320.007 140.583 320.952C139.389 321.897 139.187 323.631 140.132 324.825C141.077 326.019 142.811 326.221 144.005 325.276Z" stroke="white" stroke-width="0.485409"/>
<path d="M117.174 333.084C117.892 332.516 118.013 331.473 117.445 330.756C116.877 330.038 115.835 329.916 115.117 330.484C114.399 331.052 114.278 332.095 114.846 332.813C115.414 333.53 116.456 333.652 117.174 333.084Z" stroke="white" stroke-width="0.970818"/>
<path d="M224.153 257.563L163.161 303.124L142.218 293.571" stroke="white" stroke-width="2.91245"/>
<path d="M41.4985 176.852L79.9359 146.58L93.877 164.902" stroke="white" stroke-width="2.91245"/>
<path d="M115.784 176.852L236.474 185.615" stroke="white" stroke-width="2.91245"/>
<path d="M17.0604 201.715C17.0604 207.47 12.3955 212.134 6.64108 212.134C0.88667 212.134 -3.77821 207.47 -3.77821 201.715C-3.77821 195.961 0.88667 191.296 6.64108 191.296C12.3955 191.296 17.0604 195.961 17.0604 201.715Z" stroke="#0088FF" stroke-width="1.94164"/>
<path d="M115.522 175.657C115.522 182.992 109.576 188.938 102.241 188.938C94.9055 188.938 88.9592 182.992 88.9592 175.657C88.9592 168.322 94.9055 162.376 102.241 162.376C109.576 162.376 115.522 168.322 115.522 175.657Z" stroke="white" stroke-width="2.91245"/>
<path d="M111.228 175.657C111.228 180.62 107.205 184.644 102.241 184.644C97.2777 184.644 93.254 180.62 93.254 175.657C93.254 170.694 97.2777 166.67 102.241 166.67C107.205 166.67 111.228 170.694 111.228 175.657Z" stroke="white" stroke-width="1.94164"/>
<path d="M107.176 175.657C107.176 178.383 104.966 180.592 102.241 180.592C99.5149 180.592 97.3052 178.383 97.3052 175.657C97.3052 172.931 99.5149 170.722 102.241 170.722C104.966 170.722 107.176 172.931 107.176 175.657Z" stroke="white" stroke-width="0.485409"/>
<path d="M310.56 157.01V139.41" stroke="white" stroke-width="0.970818"/>
<path d="M310.559 245.362V227.762" stroke="white" stroke-width="0.970818"/>
<path d="M307.475 157.145L305.941 139.612" stroke="white" stroke-width="0.970818"/>
<path d="M315.176 245.161L313.642 227.628" stroke="white" stroke-width="0.970818"/>
<path d="M304.418 157.548L301.361 140.215" stroke="white" stroke-width="0.970818"/>
<path d="M319.758 244.557L316.702 227.225" stroke="white" stroke-width="0.970818"/>
<path d="M301.404 158.215L296.849 141.215" stroke="white" stroke-width="0.970818"/>
<path d="M324.27 243.557L319.715 226.557" stroke="white" stroke-width="0.970818"/>
<path d="M298.461 159.144L292.441 142.605" stroke="white" stroke-width="0.970818"/>
<path d="M328.679 242.167L322.659 225.629" stroke="white" stroke-width="0.970818"/>
<path d="M295.608 160.325L288.17 144.374" stroke="white" stroke-width="0.970818"/>
<path d="M332.948 240.399L325.51 224.448" stroke="white" stroke-width="0.970818"/>
<path d="M292.874 161.749L284.074 146.507" stroke="white" stroke-width="0.970818"/>
<path d="M337.049 238.265L328.249 223.023" stroke="white" stroke-width="0.970818"/>
<path d="M290.269 163.408L280.174 148.991" stroke="white" stroke-width="0.970818"/>
<path d="M340.946 235.782L330.852 221.365" stroke="white" stroke-width="0.970818"/>
<path d="M287.819 165.287L276.506 151.804" stroke="white" stroke-width="0.970818"/>
<path d="M344.61 232.968L333.297 219.486" stroke="white" stroke-width="0.970818"/>
<path d="M285.546 167.371L273.101 154.926" stroke="white" stroke-width="0.970818"/>
<path d="M348.02 229.845L335.575 217.4" stroke="white" stroke-width="0.970818"/>
<path d="M283.459 169.647L269.977 158.334" stroke="white" stroke-width="0.970818"/>
<path d="M351.141 226.438L337.658 215.125" stroke="white" stroke-width="0.970818"/>
<path d="M281.584 172.095L267.167 162" stroke="white" stroke-width="0.970818"/>
<path d="M353.955 222.772L339.538 212.677" stroke="white" stroke-width="0.970818"/>
<path d="M279.926 174.698L264.684 165.898" stroke="white" stroke-width="0.970818"/>
<path d="M356.439 218.874L341.197 210.074" stroke="white" stroke-width="0.970818"/>
<path d="M278.498 177.436L262.547 169.998" stroke="white" stroke-width="0.970818"/>
<path d="M358.573 214.775L342.622 207.337" stroke="white" stroke-width="0.970818"/>
<path d="M277.317 180.286L260.778 174.266" stroke="white" stroke-width="0.970818"/>
<path d="M360.339 210.505L343.801 204.486" stroke="white" stroke-width="0.970818"/>
<path d="M276.389 183.23L259.389 178.675" stroke="white" stroke-width="0.970818"/>
<path d="M361.73 206.098L344.729 201.542" stroke="white" stroke-width="0.970818"/>
<path d="M275.72 186.242L258.388 183.186" stroke="white" stroke-width="0.970818"/>
<path d="M362.729 201.585L345.396 198.529" stroke="white" stroke-width="0.970818"/>
<path d="M275.32 189.303L257.787 187.769" stroke="white" stroke-width="0.970818"/>
<path d="M363.334 197.003L345.801 195.469" stroke="white" stroke-width="0.970818"/>
<path d="M275.183 192.386H257.583" stroke="white" stroke-width="0.970818"/>
<path d="M363.536 192.386H345.936" stroke="white" stroke-width="0.970818"/>
<path d="M275.32 195.47L257.787 197.003" stroke="white" stroke-width="0.970818"/>
<path d="M363.334 187.769L345.801 189.303" stroke="white" stroke-width="0.970818"/>
<path d="M275.72 198.529L258.388 201.585" stroke="white" stroke-width="0.970818"/>
<path d="M362.729 183.187L345.396 186.243" stroke="white" stroke-width="0.970818"/>
<path d="M276.39 201.542L259.39 206.097" stroke="white" stroke-width="0.970818"/>
<path d="M361.731 178.675L344.73 183.23" stroke="white" stroke-width="0.970818"/>
<path d="M277.316 204.486L260.777 210.505" stroke="white" stroke-width="0.970818"/>
<path d="M360.338 174.267L343.8 180.287" stroke="white" stroke-width="0.970818"/>
<path d="M278.499 207.336L262.548 214.774" stroke="white" stroke-width="0.970818"/>
<path d="M358.573 169.998L342.622 177.436" stroke="white" stroke-width="0.970818"/>
<path d="M279.924 210.074L264.682 218.874" stroke="white" stroke-width="0.970818"/>
<path d="M356.439 165.898L341.197 174.698" stroke="white" stroke-width="0.970818"/>
<path d="M281.581 212.677L267.164 222.772" stroke="white" stroke-width="0.970818"/>
<path d="M353.955 162L339.538 172.095" stroke="white" stroke-width="0.970818"/>
<path d="M283.459 215.126L269.977 226.439" stroke="white" stroke-width="0.970818"/>
<path d="M351.141 158.334L337.658 169.647" stroke="white" stroke-width="0.970818"/>
<path d="M285.546 217.4L273.101 229.845" stroke="white" stroke-width="0.970818"/>
<path d="M348.021 154.927L335.576 167.372" stroke="white" stroke-width="0.970818"/>
<path d="M287.819 219.485L276.506 232.967" stroke="white" stroke-width="0.970818"/>
<path d="M344.611 151.804L333.298 165.287" stroke="white" stroke-width="0.970818"/>
<path d="M290.268 221.365L280.173 235.782" stroke="white" stroke-width="0.970818"/>
<path d="M340.946 148.991L330.851 163.408" stroke="white" stroke-width="0.970818"/>
<path d="M292.873 223.023L284.073 238.265" stroke="white" stroke-width="0.970818"/>
<path d="M337.048 146.508L328.248 161.75" stroke="white" stroke-width="0.970818"/>
<path d="M295.61 224.448L288.172 240.399" stroke="white" stroke-width="0.970818"/>
<path d="M332.949 144.374L325.511 160.325" stroke="white" stroke-width="0.970818"/>
<path d="M298.463 225.629L292.443 242.168" stroke="white" stroke-width="0.970818"/>
<path d="M328.68 142.605L322.66 159.144" stroke="white" stroke-width="0.970818"/>
<path d="M301.403 226.557L296.848 243.557" stroke="white" stroke-width="0.970818"/>
<path d="M324.27 141.215L319.715 158.216" stroke="white" stroke-width="0.970818"/>
<path d="M304.417 227.225L301.36 244.557" stroke="white" stroke-width="0.970818"/>
<path d="M319.758 140.215L316.702 157.548" stroke="white" stroke-width="0.970818"/>
<path d="M307.476 227.628L305.942 245.161" stroke="white" stroke-width="0.970818"/>
<path d="M315.175 139.612L313.641 157.145" stroke="white" stroke-width="0.970818"/>
<path d="M93.6064 245.375V229.627" stroke="white" stroke-width="0.485409"/>
<path d="M93.6064 324.426V308.679" stroke="white" stroke-width="0.485409"/>
<path d="M90.849 245.495L89.4766 229.807" stroke="white" stroke-width="0.485409"/>
<path d="M97.7387 324.246L96.3662 308.558" stroke="white" stroke-width="0.485409"/>
<path d="M88.1144 245.855L85.3799 230.347" stroke="white" stroke-width="0.485409"/>
<path d="M101.839 323.706L99.1045 308.198" stroke="white" stroke-width="0.485409"/>
<path d="M85.4156 246.453L81.3398 231.242" stroke="white" stroke-width="0.485409"/>
<path d="M105.876 322.811L101.8 307.6" stroke="white" stroke-width="0.485409"/>
<path d="M82.7824 247.283L77.3965 232.486" stroke="white" stroke-width="0.485409"/>
<path d="M109.82 321.567L104.435 306.77" stroke="white" stroke-width="0.485409"/>
<path d="M80.2303 248.34L73.5752 234.068" stroke="white" stroke-width="0.485409"/>
<path d="M113.639 319.985L106.984 305.713" stroke="white" stroke-width="0.485409"/>
<path d="M77.7809 249.615L69.9072 235.977" stroke="white" stroke-width="0.485409"/>
<path d="M117.304 318.076L109.431 304.438" stroke="white" stroke-width="0.485409"/>
<path d="M75.4542 251.098L66.4219 238.198" stroke="white" stroke-width="0.485409"/>
<path d="M120.796 315.854L111.764 302.955" stroke="white" stroke-width="0.485409"/>
<path d="M73.2638 252.778L63.1416 240.715" stroke="white" stroke-width="0.485409"/>
<path d="M124.073 313.337L113.951 301.274" stroke="white" stroke-width="0.485409"/>
<path d="M71.2269 254.645L60.0918 243.51" stroke="white" stroke-width="0.485409"/>
<path d="M127.123 310.543L115.988 299.408" stroke="white" stroke-width="0.485409"/>
<path d="M69.361 256.681L57.2979 246.558" stroke="white" stroke-width="0.485409"/>
<path d="M129.917 307.494L117.854 297.372" stroke="white" stroke-width="0.485409"/>
<path d="M67.6807 258.871L54.7812 249.838" stroke="white" stroke-width="0.485409"/>
<path d="M132.435 304.214L119.535 295.182" stroke="white" stroke-width="0.485409"/>
<path d="M66.1962 261.199L52.5586 253.326" stroke="white" stroke-width="0.485409"/>
<path d="M134.655 300.726L121.018 292.853" stroke="white" stroke-width="0.485409"/>
<path d="M64.9214 263.648L50.6494 256.993" stroke="white" stroke-width="0.485409"/>
<path d="M136.566 297.059L122.294 290.404" stroke="white" stroke-width="0.485409"/>
<path d="M63.8631 266.201L49.0654 260.815" stroke="white" stroke-width="0.485409"/>
<path d="M138.147 293.238L123.35 287.852" stroke="white" stroke-width="0.485409"/>
<path d="M63.034 268.833L47.8232 264.757" stroke="white" stroke-width="0.485409"/>
<path d="M139.391 289.295L124.181 285.219" stroke="white" stroke-width="0.485409"/>
<path d="M62.4358 271.53L46.9277 268.796" stroke="white" stroke-width="0.485409"/>
<path d="M140.288 285.257L124.78 282.523" stroke="white" stroke-width="0.485409"/>
<path d="M62.0761 274.268L46.3887 272.896" stroke="white" stroke-width="0.485409"/>
<path d="M140.827 281.158L125.14 279.785" stroke="white" stroke-width="0.485409"/>
<path d="M61.9554 277.027H46.208" stroke="white" stroke-width="0.485409"/>
<path d="M141.008 277.027H125.261" stroke="white" stroke-width="0.485409"/>
<path d="M62.0761 279.785L46.3887 281.158" stroke="white" stroke-width="0.485409"/>
<path d="M140.827 272.896L125.14 274.268" stroke="white" stroke-width="0.485409"/>
<path d="M62.4358 282.522L46.9277 285.256" stroke="white" stroke-width="0.485409"/>
<path d="M140.288 268.796L124.78 271.53" stroke="white" stroke-width="0.485409"/>
<path d="M63.034 285.219L47.8232 289.295" stroke="white" stroke-width="0.485409"/>
<path d="M139.391 264.759L124.181 268.835" stroke="white" stroke-width="0.485409"/>
<path d="M63.8631 287.852L49.0654 293.238" stroke="white" stroke-width="0.485409"/>
<path d="M138.146 260.815L123.349 266.201" stroke="white" stroke-width="0.485409"/>
<path d="M64.9204 290.403L50.6484 297.058" stroke="white" stroke-width="0.485409"/>
<path d="M136.566 256.995L122.294 263.65" stroke="white" stroke-width="0.485409"/>
<path d="M66.1952 292.852L52.5576 300.726" stroke="white" stroke-width="0.485409"/>
<path d="M134.654 253.327L121.017 261.201" stroke="white" stroke-width="0.485409"/>
<path d="M67.6807 295.181L54.7812 304.214" stroke="white" stroke-width="0.485409"/>
<path d="M132.437 249.839L119.537 258.872" stroke="white" stroke-width="0.485409"/>
<path d="M69.361 297.372L57.2979 307.494" stroke="white" stroke-width="0.485409"/>
<path d="M129.919 246.559L117.855 256.681" stroke="white" stroke-width="0.485409"/>
<path d="M71.2269 299.408L60.0918 310.543" stroke="white" stroke-width="0.485409"/>
<path d="M127.124 243.51L115.989 254.645" stroke="white" stroke-width="0.485409"/>
<path d="M73.2628 301.274L63.1406 313.337" stroke="white" stroke-width="0.485409"/>
<path d="M124.075 240.717L113.953 252.78" stroke="white" stroke-width="0.485409"/>
<path d="M75.4542 302.955L66.4219 315.854" stroke="white" stroke-width="0.485409"/>
<path d="M120.796 238.199L111.764 251.099" stroke="white" stroke-width="0.485409"/>
<path d="M77.7809 304.438L69.9072 318.075" stroke="white" stroke-width="0.485409"/>
<path d="M117.307 235.978L109.434 249.615" stroke="white" stroke-width="0.485409"/>
<path d="M80.2313 305.713L73.5762 319.985" stroke="white" stroke-width="0.485409"/>
<path d="M113.639 234.068L106.984 248.34" stroke="white" stroke-width="0.485409"/>
<path d="M82.7804 306.769L77.3945 321.567" stroke="white" stroke-width="0.485409"/>
<path d="M109.819 232.486L104.433 247.283" stroke="white" stroke-width="0.485409"/>
<path d="M85.4146 307.6L81.3389 322.811" stroke="white" stroke-width="0.485409"/>
<path d="M105.876 231.242L101.8 246.453" stroke="white" stroke-width="0.485409"/>
<path d="M88.1115 308.198L85.377 323.706" stroke="white" stroke-width="0.485409"/>
<path d="M101.837 230.347L99.1025 245.855" stroke="white" stroke-width="0.485409"/>
<path d="M90.849 308.558L89.4766 324.246" stroke="white" stroke-width="0.485409"/>
<path d="M97.7377 229.808L96.3652 245.495" stroke="white" stroke-width="0.485409"/>
<path d="M7.04395 176.677V164.106" stroke="white" stroke-width="0.485409"/>
<path d="M7.04297 239.786V227.214" stroke="white" stroke-width="0.485409"/>
<path d="M4.84079 176.773L3.74512 164.25" stroke="white" stroke-width="0.485409"/>
<path d="M10.3398 239.642L9.24414 227.118" stroke="white" stroke-width="0.485409"/>
<path d="M2.65664 177.061L0.473633 164.681" stroke="white" stroke-width="0.485409"/>
<path d="M13.6146 239.211L11.4316 226.83" stroke="white" stroke-width="0.485409"/>
<path d="M0.503721 177.538L-2.75 165.395" stroke="white" stroke-width="0.485409"/>
<path d="M16.8377 238.496L13.584 226.353" stroke="white" stroke-width="0.485409"/>
<path d="M19.9852 237.504L15.6855 225.69" stroke="white" stroke-width="0.485409"/>
<path d="M23.0356 236.24L17.7227 224.847" stroke="white" stroke-width="0.485409"/>
<path d="M25.9634 234.716L19.6777 223.829" stroke="white" stroke-width="0.485409"/>
<path d="M28.7478 232.943L21.5371 222.645" stroke="white" stroke-width="0.485409"/>
<path d="M31.3659 230.933L23.2852 221.303" stroke="white" stroke-width="0.485409"/>
<path d="M33.8014 228.703L24.9121 219.813" stroke="white" stroke-width="0.485409"/>
<path d="M36.0306 226.269L26.4004 218.188" stroke="white" stroke-width="0.485409"/>
<path d="M38.0401 223.65L27.7422 216.439" stroke="white" stroke-width="0.485409"/>
<path d="M39.8139 220.866L28.9268 214.58" stroke="white" stroke-width="0.485409"/>
<path d="M41.3399 217.938L29.9463 212.625" stroke="white" stroke-width="0.485409"/>
<path d="M42.6004 214.888L30.7871 210.588" stroke="white" stroke-width="0.485409"/>
<path d="M43.5962 211.739L31.4531 208.486" stroke="white" stroke-width="0.485409"/>
<path d="M44.3101 208.517L31.9297 206.334" stroke="white" stroke-width="0.485409"/>
<path d="M44.7404 205.244L32.2168 204.148" stroke="white" stroke-width="0.485409"/>
<path d="M44.8839 201.946H32.3125" stroke="white" stroke-width="0.485409"/>
<path d="M44.7404 198.648L32.2168 199.743" stroke="white" stroke-width="0.485409"/>
<path d="M44.3101 195.375L31.9297 197.558" stroke="white" stroke-width="0.485409"/>
<path d="M43.5952 192.152L31.4521 195.406" stroke="white" stroke-width="0.485409"/>
<path d="M42.6004 189.004L30.7871 193.303" stroke="white" stroke-width="0.485409"/>
<path d="M41.3389 185.954L29.9453 191.267" stroke="white" stroke-width="0.485409"/>
<path d="M39.8139 183.026L28.9268 189.312" stroke="white" stroke-width="0.485409"/>
<path d="M38.0391 180.242L27.7412 187.452" stroke="white" stroke-width="0.485409"/>
<path d="M36.0316 177.623L26.4014 185.704" stroke="white" stroke-width="0.485409"/>
<path d="M33.8005 175.189L24.9111 184.078" stroke="white" stroke-width="0.485409"/>
<path d="M31.3669 172.959L23.2861 182.589" stroke="white" stroke-width="0.485409"/>
<path d="M28.7468 170.949L21.5361 181.247" stroke="white" stroke-width="0.485409"/>
<path d="M25.9625 169.175L19.6768 180.063" stroke="white" stroke-width="0.485409"/>
<path d="M23.0346 167.651L17.7217 179.045" stroke="white" stroke-width="0.485409"/>
<path d="M19.9852 166.388L15.6855 178.201" stroke="white" stroke-width="0.485409"/>
<path d="M0.502744 226.353L-2.75098 238.496" stroke="white" stroke-width="0.485409"/>
<path d="M16.8367 165.395L13.583 177.538" stroke="white" stroke-width="0.485409"/>
<path d="M2.65566 226.83L0.472656 239.211" stroke="white" stroke-width="0.485409"/>
<path d="M13.6137 164.681L11.4307 177.061" stroke="white" stroke-width="0.485409"/>
<path d="M4.84079 227.118L3.74512 239.642" stroke="white" stroke-width="0.485409"/>
<path d="M10.3398 164.25L9.24414 176.773" stroke="white" stroke-width="0.485409"/>
<path d="M247.781 278.804L211.118 335.932V372.823" stroke="white" stroke-width="5.82491"/>
<path d="M294.738 176.463V208.039C294.738 209.775 296.145 211.182 297.881 211.182C299.617 211.182 301.024 209.775 301.024 208.039V195.996H320.287V197.206C320.287 198.998 321.739 200.451 323.531 200.451C325.323 200.451 326.775 198.998 326.775 197.206V176.564C326.775 174.772 325.323 173.32 323.531 173.32C321.739 173.32 320.287 174.772 320.287 176.564V189.315H301.024V176.463C301.024 174.727 299.617 173.32 297.881 173.32C296.145 173.32 294.738 174.727 294.738 176.463Z" stroke="white" stroke-width="1.45623"/>
<path d="M323.531 211.182C325.32 211.182 326.775 209.731 326.775 207.942C326.775 206.153 325.32 204.703 323.531 204.703C321.742 204.703 320.287 206.153 320.287 207.942C320.287 209.731 321.742 211.182 323.531 211.182Z" stroke="white" stroke-width="1.45623"/>
</svg>
