<svg width="360" height="217" viewBox="0 0 360 217" fill="none" xmlns="http://www.w3.org/2000/svg">
<path d="M322.219 249.67C385.243 249.67 436.334 199.215 436.334 136.976C436.334 74.7369 385.243 24.282 322.219 24.282" stroke="white" stroke-width="4.73505"/>
<path d="M369.464 210.18C409.93 185.059 422.619 132.291 397.805 92.3181C372.991 52.3453 320.07 40.3051 279.604 65.4257" stroke="white" stroke-width="4.73505"/>
<path d="M369.464 210.18C409.93 185.059 422.619 132.291 397.805 92.3181C372.991 52.3453 320.07 40.3051 279.604 65.4257" stroke="white" stroke-width="4.73505"/>
<path d="M249.409 164.659C261.213 194.248 287.37 213.768 316.475 218.236" stroke="#0088FF" stroke-width="4.73505"/>
<path d="M416.019 173.476C435.891 122.195 410.429 64.5146 359.148 44.6426" stroke="white" stroke-width="8.52309" stroke-linejoin="round"/>
<path d="M247.406 75.4983C272.124 45.1019 311.062 33.0802 346.842 41.2234" stroke="#0088FF" stroke-width="8.52309" stroke-linejoin="round"/>
<path d="M257.586 198.533L215.68 240.201L205.974 230.731" stroke="#0088FF" stroke-width="4.26155"/>
<path d="M191.623 189.672C191.623 198.196 184.712 205.106 176.188 205.106C167.664 205.106 160.754 198.196 160.754 189.672C160.754 181.147 167.664 174.237 176.188 174.237C184.712 174.237 191.623 181.147 191.623 189.672Z" stroke="white" stroke-width="1.89402"/>
<path d="M187.491 189.672C187.491 195.914 182.431 200.974 176.188 200.974C169.946 200.974 164.886 195.914 164.886 189.672C164.886 183.429 169.946 178.369 176.188 178.369C182.431 178.369 187.491 183.429 187.491 189.672Z" stroke="white" stroke-width="1.42052"/>
<path d="M183.359 189.672C183.359 193.632 180.149 196.843 176.188 196.843C172.228 196.843 169.017 193.632 169.017 189.672C169.017 185.711 172.228 182.501 176.188 182.501C180.149 182.501 183.359 185.711 183.359 189.672Z" stroke="white" stroke-width="0.94701"/>
<path d="M175.601 168.922L175.332 158.622" stroke="white" stroke-width="0.473505"/>
<path d="M176.954 220.63L176.684 210.33" stroke="white" stroke-width="0.473505"/>
<path d="M173.8 169.048L172.633 158.81" stroke="white" stroke-width="0.473505"/>
<path d="M179.653 220.441L178.487 210.204" stroke="white" stroke-width="0.473505"/>
<path d="M172.014 169.331L169.96 159.234" stroke="white" stroke-width="0.473505"/>
<path d="M182.326 220.018L180.271 209.921" stroke="white" stroke-width="0.473505"/>
<path d="M170.261 169.768L167.335 159.888" stroke="white" stroke-width="0.473505"/>
<path d="M184.951 219.363L182.025 209.484" stroke="white" stroke-width="0.473505"/>
<path d="M168.553 170.356L164.777 160.769" stroke="white" stroke-width="0.473505"/>
<path d="M187.509 218.482L183.733 208.896" stroke="white" stroke-width="0.473505"/>
<path d="M166.902 171.091L162.305 161.869" stroke="white" stroke-width="0.473505"/>
<path d="M189.981 217.382L185.384 208.161" stroke="white" stroke-width="0.473505"/>
<path d="M165.322 171.967L159.938 163.181" stroke="white" stroke-width="0.473505"/>
<path d="M192.347 216.07L186.964 207.285" stroke="white" stroke-width="0.473505"/>
<path d="M163.824 172.977L157.695 164.694" stroke="white" stroke-width="0.473505"/>
<path d="M194.59 214.557L188.462 206.275" stroke="white" stroke-width="0.473505"/>
<path d="M162.42 174.114L155.592 166.397" stroke="white" stroke-width="0.473505"/>
<path d="M196.693 212.855L189.866 205.138" stroke="white" stroke-width="0.473505"/>
<path d="M161.12 175.369L153.646 168.276" stroke="white" stroke-width="0.473505"/>
<path d="M198.64 210.975L191.166 203.883" stroke="white" stroke-width="0.473505"/>
<path d="M159.935 176.733L151.871 170.318" stroke="white" stroke-width="0.473505"/>
<path d="M200.415 208.933L192.351 202.519" stroke="white" stroke-width="0.473505"/>
<path d="M158.873 178.195L150.28 172.507" stroke="white" stroke-width="0.473505"/>
<path d="M202.005 206.744L193.413 201.057" stroke="white" stroke-width="0.473505"/>
<path d="M157.942 179.743L148.887 174.827" stroke="white" stroke-width="0.473505"/>
<path d="M203.398 204.425L194.343 199.509" stroke="white" stroke-width="0.473505"/>
<path d="M157.15 181.367L147.701 177.258" stroke="white" stroke-width="0.473505"/>
<path d="M204.585 201.993L195.135 197.884" stroke="white" stroke-width="0.473505"/>
<path d="M156.502 183.054L146.731 179.784" stroke="white" stroke-width="0.473505"/>
<path d="M205.554 199.467L195.783 196.198" stroke="white" stroke-width="0.473505"/>
<path d="M156.004 184.791L145.985 182.385" stroke="white" stroke-width="0.473505"/>
<path d="M206.3 196.867L196.281 194.461" stroke="white" stroke-width="0.473505"/>
<path d="M155.66 186.564L145.469 185.041" stroke="white" stroke-width="0.473505"/>
<path d="M206.817 194.211L196.626 192.688" stroke="white" stroke-width="0.473505"/>
<path d="M155.471 188.36L145.186 187.731" stroke="white" stroke-width="0.473505"/>
<path d="M207.099 191.52L196.815 190.891" stroke="white" stroke-width="0.473505"/>
<path d="M155.439 190.168L145.139 190.437" stroke="white" stroke-width="0.473505"/>
<path d="M207.147 188.815L196.846 189.084" stroke="white" stroke-width="0.473505"/>
<path d="M155.565 191.97L145.328 193.136" stroke="white" stroke-width="0.473505"/>
<path d="M206.958 186.116L196.72 187.282" stroke="white" stroke-width="0.473505"/>
<path d="M155.848 193.755L145.751 195.809" stroke="white" stroke-width="0.473505"/>
<path d="M206.535 183.443L196.438 185.497" stroke="white" stroke-width="0.473505"/>
<path d="M156.285 195.508L146.405 198.434" stroke="white" stroke-width="0.473505"/>
<path d="M205.88 180.818L196.001 183.744" stroke="white" stroke-width="0.473505"/>
<path d="M156.873 197.216L147.286 200.992" stroke="white" stroke-width="0.473505"/>
<path d="M204.999 178.26L195.412 182.036" stroke="white" stroke-width="0.473505"/>
<path d="M157.607 198.866L148.386 203.464" stroke="white" stroke-width="0.473505"/>
<path d="M203.899 175.788L194.678 180.385" stroke="white" stroke-width="0.473505"/>
<path d="M158.484 200.447L149.698 205.831" stroke="white" stroke-width="0.473505"/>
<path d="M202.587 173.421L193.802 178.805" stroke="white" stroke-width="0.473505"/>
<path d="M159.494 201.945L151.211 208.073" stroke="white" stroke-width="0.473505"/>
<path d="M201.074 171.178L192.791 177.307" stroke="white" stroke-width="0.473505"/>
<path d="M160.631 203.349L152.914 210.176" stroke="white" stroke-width="0.473505"/>
<path d="M199.372 169.075L191.654 175.903" stroke="white" stroke-width="0.473505"/>
<path d="M161.886 204.649L154.793 212.123" stroke="white" stroke-width="0.473505"/>
<path d="M197.492 167.129L190.399 174.603" stroke="white" stroke-width="0.473505"/>
<path d="M163.249 205.834L156.835 213.898" stroke="white" stroke-width="0.473505"/>
<path d="M195.45 165.354L189.036 173.418" stroke="white" stroke-width="0.473505"/>
<path d="M164.711 206.896L159.024 215.488" stroke="white" stroke-width="0.473505"/>
<path d="M193.261 163.764L187.574 172.356" stroke="white" stroke-width="0.473505"/>
<path d="M166.26 207.827L161.343 216.882" stroke="white" stroke-width="0.473505"/>
<path d="M190.942 162.37L186.025 171.425" stroke="white" stroke-width="0.473505"/>
<path d="M167.883 208.619L163.775 218.068" stroke="white" stroke-width="0.473505"/>
<path d="M188.51 161.184L184.401 170.633" stroke="white" stroke-width="0.473505"/>
<path d="M169.571 209.266L166.301 219.038" stroke="white" stroke-width="0.473505"/>
<path d="M185.984 160.214L182.715 169.986" stroke="white" stroke-width="0.473505"/>
<path d="M171.307 209.764L168.901 219.783" stroke="white" stroke-width="0.473505"/>
<path d="M183.384 159.468L180.978 169.487" stroke="white" stroke-width="0.473505"/>
<path d="M173.08 210.109L171.557 220.3" stroke="white" stroke-width="0.473505"/>
<path d="M180.728 158.952L179.204 169.143" stroke="white" stroke-width="0.473505"/>
<path d="M174.878 210.298L174.249 220.583" stroke="white" stroke-width="0.473505"/>
<path d="M178.037 158.669L177.407 168.954" stroke="white" stroke-width="0.473505"/>
<path d="M327.901 84.4895V58.8479" stroke="white" stroke-width="0.473505"/>
<path d="M327.902 213.211V187.569" stroke="white" stroke-width="0.473505"/>
<path d="M323.409 84.6856L321.175 59.1415" stroke="white" stroke-width="0.473505"/>
<path d="M334.628 212.917L332.394 187.373" stroke="white" stroke-width="0.473505"/>
<path d="M318.952 85.2725L314.499 60.0204" stroke="white" stroke-width="0.473505"/>
<path d="M341.304 212.038L336.851 186.786" stroke="white" stroke-width="0.473505"/>
<path d="M314.562 86.2456L307.925 61.4777" stroke="white" stroke-width="0.473505"/>
<path d="M347.878 210.581L341.241 185.813" stroke="white" stroke-width="0.473505"/>
<path d="M310.274 87.5977L301.504 63.5024" stroke="white" stroke-width="0.473505"/>
<path d="M354.299 208.556L345.529 184.461" stroke="white" stroke-width="0.473505"/>
<path d="M306.12 89.3183L295.283 66.0791" stroke="white" stroke-width="0.473505"/>
<path d="M360.52 205.979L349.683 182.74" stroke="white" stroke-width="0.473505"/>
<path d="M302.133 91.3938L289.312 69.1875" stroke="white" stroke-width="0.473505"/>
<path d="M366.492 202.87L353.671 180.664" stroke="white" stroke-width="0.473505"/>
<path d="M298.34 93.8097L283.633 72.8053" stroke="white" stroke-width="0.473505"/>
<path d="M372.171 199.252L357.463 178.248" stroke="white" stroke-width="0.473505"/>
<path d="M294.773 96.5475L278.29 76.9048" stroke="white" stroke-width="0.473505"/>
<path d="M291.458 99.5846L273.327 81.4532" stroke="white" stroke-width="0.473505"/>
<path d="M288.42 102.9L268.777 86.418" stroke="white" stroke-width="0.473505"/>
<path d="M285.683 106.467L264.678 91.7598" stroke="white" stroke-width="0.473505"/>
<path d="M283.267 110.259L261.06 97.4384" stroke="white" stroke-width="0.473505"/>
<path d="M281.191 114.248L257.952 103.411" stroke="white" stroke-width="0.473505"/>
<path d="M279.47 118.402L255.375 109.632" stroke="white" stroke-width="0.473505"/>
<path d="M278.118 122.69L253.35 116.053" stroke="white" stroke-width="0.473505"/>
<path d="M277.145 127.079L251.893 122.627" stroke="white" stroke-width="0.473505"/>
<path d="M276.558 131.537L251.014 129.302" stroke="white" stroke-width="0.473505"/>
<path d="M276.362 136.029H250.72" stroke="white" stroke-width="0.473505"/>
<path d="M276.558 140.521L251.014 142.756" stroke="white" stroke-width="0.473505"/>
<path d="M277.145 144.979L251.893 149.432" stroke="white" stroke-width="0.473505"/>
<path d="M278.118 149.368L253.35 156.004" stroke="white" stroke-width="0.473505"/>
<path d="M279.47 153.657L255.375 162.427" stroke="white" stroke-width="0.473505"/>
<path d="M281.191 157.811L257.952 168.647" stroke="white" stroke-width="0.473505"/>
<path d="M283.267 161.799L261.06 174.62" stroke="white" stroke-width="0.473505"/>
<path d="M285.682 165.59L264.677 180.297" stroke="white" stroke-width="0.473505"/>
<path d="M288.419 169.158L268.777 185.64" stroke="white" stroke-width="0.473505"/>
<path d="M291.458 172.473L273.326 190.605" stroke="white" stroke-width="0.473505"/>
<path d="M294.773 175.511L278.29 195.153" stroke="white" stroke-width="0.473505"/>
<path d="M298.34 178.248L283.632 199.252" stroke="white" stroke-width="0.473505"/>
<path d="M372.171 72.806L357.463 93.8104" stroke="white" stroke-width="0.473505"/>
<path d="M302.132 180.664L289.311 202.87" stroke="white" stroke-width="0.473505"/>
<path d="M366.492 69.1882L353.671 91.3945" stroke="white" stroke-width="0.473505"/>
<path d="M306.118 182.739L295.282 205.979" stroke="white" stroke-width="0.473505"/>
<path d="M360.52 66.0792L349.683 89.3184" stroke="white" stroke-width="0.473505"/>
<path d="M310.274 184.461L301.504 208.556" stroke="white" stroke-width="0.473505"/>
<path d="M354.299 63.5023L345.529 87.5975" stroke="white" stroke-width="0.473505"/>
<path d="M314.561 185.813L307.925 210.58" stroke="white" stroke-width="0.473505"/>
<path d="M347.878 61.4777L341.241 86.2457" stroke="white" stroke-width="0.473505"/>
<path d="M318.951 186.786L314.499 212.038" stroke="white" stroke-width="0.473505"/>
<path d="M341.304 60.0203L336.851 85.2724" stroke="white" stroke-width="0.473505"/>
<path d="M323.41 187.373L321.175 212.917" stroke="white" stroke-width="0.473505"/>
<path d="M334.628 59.1417L332.394 84.6857" stroke="white" stroke-width="0.473505"/>
<path d="M304 115.316V158.684C304 161.067 305.933 163 308.316 163C310.7 163 312.633 161.067 312.633 158.684V142.144H339.089V143.806C339.089 146.267 341.083 148.262 343.544 148.262C346.005 148.262 348 146.267 348 143.806V115.456C348 112.995 346.005 111 343.544 111C341.083 111 339.089 112.995 339.089 115.456V132.968H312.633V115.316C312.633 112.933 310.7 111 308.316 111C305.933 111 304 112.933 304 115.316Z" stroke="white" stroke-width="1.6"/>
<path d="M343.544 163C346.002 163 348 161.008 348 158.551C348 156.094 346.002 154.102 343.544 154.102C341.087 154.102 339.089 156.094 339.089 158.551C339.089 161.008 341.087 163 343.544 163Z" stroke="white" stroke-width="1.6"/>
<path d="M223.446 176.751C231.15 202.486 216.534 229.593 190.799 237.297C177.341 241.326 163.508 239.251 152.271 232.673" stroke="#0088FF" stroke-width="4.26155"/>
<path d="M244.218 177.788C264.332 220.424 316.99 241.847 359.626 221.734" stroke="#0088FF" stroke-width="4.26155"/>
<path d="M144.336 199.209C149.586 216.746 168.058 226.707 185.595 221.457C203.132 216.207 213.092 197.735 207.843 180.198" stroke="white" stroke-width="0.94701"/>
<path d="M217.734 188.825C217.61 211.798 198.887 230.322 175.914 230.198C152.942 230.075 134.418 211.352 134.542 188.379L113 188.379L82 140L-1.12302 140" stroke="white" stroke-width="1.8769"/>
<path d="M193.22 157.135C193.22 157.135 189.374 153.863 185.728 154.325" stroke="white" stroke-width="0.94701"/>
<path d="M183.49 175.888L203.133 139.581L207.947 142.428" stroke="white" stroke-width="0.94701"/>
<path d="M219.097 140.094C222.786 142.323 223.97 147.121 221.741 150.81C219.511 154.499 214.714 155.683 211.025 153.453C207.336 151.224 206.152 146.426 208.381 142.737C210.611 139.048 215.408 137.865 219.097 140.094Z" stroke="white" stroke-width="1.42052"/>
<path d="M217.923 142.037C220.539 143.618 221.378 147.02 219.797 149.636C218.216 152.251 214.815 153.091 212.199 151.51C209.583 149.929 208.744 146.527 210.325 143.912C211.905 141.296 215.307 140.457 217.923 142.037Z" stroke="white" stroke-width="1.42052"/>
<path d="M216.994 143.576C218.76 144.643 219.326 146.94 218.259 148.706C217.192 150.473 214.895 151.039 213.128 149.972C211.362 148.905 210.795 146.608 211.863 144.841C212.93 143.075 215.227 142.508 216.994 143.576Z" stroke="white" stroke-width="0.473505"/>
<path d="M185.035 153.507C185.581 153.837 185.757 154.547 185.427 155.093C185.097 155.639 184.387 155.814 183.841 155.484C183.295 155.154 183.119 154.444 183.449 153.898C183.779 153.352 184.489 153.177 185.035 153.507Z" stroke="white" stroke-width="0.94701"/>
</svg>
