<svg width="1440" height="540" viewBox="0 0 1440 540" fill="none" xmlns="http://www.w3.org/2000/svg">
<path d="M1254.39 465.296C1371.92 465.296 1467.19 371.208 1467.19 255.146C1467.19 139.083 1371.92 44.9958 1254.39 44.9958" stroke="white" stroke-width="8.82983"/>
<path d="M1342.49 391.654C1417.96 344.81 1441.62 246.408 1395.34 171.868C1349.07 97.3273 1250.39 74.8751 1174.93 121.719" stroke="white" stroke-width="8.82983"/>
<path d="M1342.49 391.654C1417.96 344.81 1441.62 246.408 1395.34 171.868C1349.07 97.3273 1250.39 74.8751 1174.93 121.719" stroke="white" stroke-width="8.82983"/>
<path d="M1118.62 306.767C1140.63 361.945 1189.41 398.346 1243.68 406.677" stroke="#0088FF" stroke-width="8.82983"/>
<path d="M1429.31 323.21C1466.36 227.582 1418.88 120.021 1323.26 82.9639" stroke="white" stroke-width="15.8937" stroke-linejoin="round"/>
<path d="M1114.88 140.503C1160.98 83.82 1233.59 61.4021 1300.31 76.5875" stroke="#0088FF" stroke-width="15.8937" stroke-linejoin="round"/>
<path d="M1133.87 369.934L1055.72 447.637L1037.62 429.977" stroke="#0088FF" stroke-width="7.94685"/>
<path d="M1059.25 455.583L1069.85 466.178" stroke="white" stroke-width="2.64895"/>
<path d="M1064.55 450.285L1075.15 460.881" stroke="white" stroke-width="2.64895"/>
<path d="M1064.55 450.285L1075.15 460.881" stroke="white" stroke-width="2.64895"/>
<path d="M1069.85 444.987L1080.45 455.583" stroke="white" stroke-width="2.64895"/>
<path d="M1069.85 444.987L1080.45 455.583" stroke="white" stroke-width="2.64895"/>
<path d="M1075.15 439.689L1085.74 450.285" stroke="white" stroke-width="2.64895"/>
<path d="M1075.15 439.689L1085.74 450.285" stroke="white" stroke-width="2.64895"/>
<path d="M1080.45 434.391L1091.04 444.987" stroke="white" stroke-width="2.64895"/>
<path d="M1080.45 434.391L1091.04 444.987" stroke="white" stroke-width="2.64895"/>
<path d="M1085.74 429.093L1096.34 439.689" stroke="white" stroke-width="2.64895"/>
<path d="M1085.74 429.093L1096.34 439.689" stroke="white" stroke-width="2.64895"/>
<path d="M1091.04 423.795L1112.67 445.428" stroke="white" stroke-width="2.64895"/>
<path d="M1096.34 418.497L1123.27 445.428" stroke="white" stroke-width="2.64895"/>
<path d="M1101.64 413.199L1133.87 445.428" stroke="white" stroke-width="2.64895"/>
<path d="M1010.86 353.41C1010.86 369.306 997.973 382.192 982.077 382.192C966.182 382.192 953.296 369.306 953.296 353.41C953.296 337.515 966.182 324.629 982.077 324.629C997.973 324.629 1010.86 337.515 1010.86 353.41Z" stroke="white" stroke-width="3.53193"/>
<path d="M1003.15 353.411C1003.15 365.051 993.718 374.488 982.078 374.488C970.437 374.488 961 365.051 961 353.411C961 341.77 970.437 332.334 982.078 332.334C993.718 332.334 1003.15 341.77 1003.15 353.411Z" stroke="white" stroke-width="2.64895"/>
<path d="M995.45 353.411C995.45 360.796 989.463 366.784 982.077 366.784C974.692 366.784 968.705 360.796 968.705 353.411C968.705 346.025 974.692 340.038 982.077 340.038C989.463 340.038 995.45 346.025 995.45 353.411Z" stroke="white" stroke-width="1.76597"/>
<path d="M980.982 314.718L980.48 295.51" stroke="white" stroke-width="0.882983"/>
<path d="M983.506 411.141L983.003 391.933" stroke="white" stroke-width="0.882983"/>
<path d="M977.621 314.953L975.447 295.862" stroke="white" stroke-width="0.882983"/>
<path d="M988.539 410.789L986.364 391.698" stroke="white" stroke-width="0.882983"/>
<path d="M974.294 315.48L970.463 296.651" stroke="white" stroke-width="0.882983"/>
<path d="M993.522 410L989.692 391.171" stroke="white" stroke-width="0.882983"/>
<path d="M971.024 316.295L965.568 297.871" stroke="white" stroke-width="0.882983"/>
<path d="M998.418 408.779L992.961 390.356" stroke="white" stroke-width="0.882983"/>
<path d="M967.839 317.392L960.797 299.514" stroke="white" stroke-width="0.882983"/>
<path d="M1003.19 407.137L996.147 389.259" stroke="white" stroke-width="0.882983"/>
<path d="M964.761 318.762L956.188 301.566" stroke="white" stroke-width="0.882983"/>
<path d="M1007.8 405.085L999.225 387.889" stroke="white" stroke-width="0.882983"/>
<path d="M961.814 320.395L951.775 304.012" stroke="white" stroke-width="0.882983"/>
<path d="M1012.21 402.639L1002.17 386.256" stroke="white" stroke-width="0.882983"/>
<path d="M959.021 322.279L947.592 306.833" stroke="white" stroke-width="0.882983"/>
<path d="M1016.39 399.817L1004.96 384.372" stroke="white" stroke-width="0.882983"/>
<path d="M956.402 324.4L943.671 310.009" stroke="white" stroke-width="0.882983"/>
<path d="M1020.31 396.642L1007.58 382.251" stroke="white" stroke-width="0.882983"/>
<path d="M953.979 326.74L940.041 313.513" stroke="white" stroke-width="0.882983"/>
<path d="M1023.94 393.137L1010.01 379.911" stroke="white" stroke-width="0.882983"/>
<path d="M951.768 329.283L936.731 317.321" stroke="white" stroke-width="0.882983"/>
<path d="M1027.25 389.33L1012.22 377.368" stroke="white" stroke-width="0.882983"/>
<path d="M949.788 332.008L933.765 321.403" stroke="white" stroke-width="0.882983"/>
<path d="M1030.22 385.248L1014.2 374.642" stroke="white" stroke-width="0.882983"/>
<path d="M948.052 334.896L931.167 325.728" stroke="white" stroke-width="0.882983"/>
<path d="M1032.82 380.923L1015.93 371.754" stroke="white" stroke-width="0.882983"/>
<path d="M946.575 337.925L928.955 330.263" stroke="white" stroke-width="0.882983"/>
<path d="M1035.03 376.388L1017.41 368.726" stroke="white" stroke-width="0.882983"/>
<path d="M945.368 341.07L927.146 334.973" stroke="white" stroke-width="0.882983"/>
<path d="M1036.84 371.678L1018.62 365.581" stroke="white" stroke-width="0.882983"/>
<path d="M944.439 344.309L925.756 339.823" stroke="white" stroke-width="0.882983"/>
<path d="M1038.23 366.828L1019.55 362.342" stroke="white" stroke-width="0.882983"/>
<path d="M943.796 347.616L924.793 344.776" stroke="white" stroke-width="0.882983"/>
<path d="M1039.19 361.875L1020.19 359.035" stroke="white" stroke-width="0.882983"/>
<path d="M943.444 350.967L924.265 349.794" stroke="white" stroke-width="0.882983"/>
<path d="M1039.72 356.857L1020.54 355.684" stroke="white" stroke-width="0.882983"/>
<path d="M943.385 354.336L924.177 354.838" stroke="white" stroke-width="0.882983"/>
<path d="M1039.81 351.812L1020.6 352.315" stroke="white" stroke-width="0.882983"/>
<path d="M943.62 357.697L924.529 359.872" stroke="white" stroke-width="0.882983"/>
<path d="M1039.46 346.779L1020.37 348.954" stroke="white" stroke-width="0.882983"/>
<path d="M944.147 361.025L925.318 364.855" stroke="white" stroke-width="0.882983"/>
<path d="M1038.67 341.796L1019.84 345.626" stroke="white" stroke-width="0.882983"/>
<path d="M944.962 364.294L926.539 369.751" stroke="white" stroke-width="0.882983"/>
<path d="M1037.45 336.9L1019.02 342.357" stroke="white" stroke-width="0.882983"/>
<path d="M946.059 367.479L928.181 374.521" stroke="white" stroke-width="0.882983"/>
<path d="M1035.8 332.13L1017.93 339.171" stroke="white" stroke-width="0.882983"/>
<path d="M947.429 370.557L930.233 379.13" stroke="white" stroke-width="0.882983"/>
<path d="M1033.75 327.52L1016.56 336.093" stroke="white" stroke-width="0.882983"/>
<path d="M949.063 373.504L932.679 383.543" stroke="white" stroke-width="0.882983"/>
<path d="M1031.31 323.107L1014.92 333.147" stroke="white" stroke-width="0.882983"/>
<path d="M950.947 376.297L935.501 387.726" stroke="white" stroke-width="0.882983"/>
<path d="M1028.48 318.924L1013.04 330.353" stroke="white" stroke-width="0.882983"/>
<path d="M953.067 378.916L938.676 391.647" stroke="white" stroke-width="0.882983"/>
<path d="M1025.31 315.003L1010.92 327.735" stroke="white" stroke-width="0.882983"/>
<path d="M955.407 381.34L942.181 395.277" stroke="white" stroke-width="0.882983"/>
<path d="M1021.8 311.374L1008.58 325.311" stroke="white" stroke-width="0.882983"/>
<path d="M957.95 383.55L945.989 398.587" stroke="white" stroke-width="0.882983"/>
<path d="M1018 308.064L1006.04 323.101" stroke="white" stroke-width="0.882983"/>
<path d="M960.676 385.531L950.07 401.553" stroke="white" stroke-width="0.882983"/>
<path d="M1013.92 305.098L1003.31 321.12" stroke="white" stroke-width="0.882983"/>
<path d="M963.564 387.266L954.395 404.152" stroke="white" stroke-width="0.882983"/>
<path d="M1009.59 302.499L1000.42 319.385" stroke="white" stroke-width="0.882983"/>
<path d="M966.592 388.743L958.93 406.364" stroke="white" stroke-width="0.882983"/>
<path d="M1005.06 300.287L997.393 317.908" stroke="white" stroke-width="0.882983"/>
<path d="M969.738 389.95L963.64 408.172" stroke="white" stroke-width="0.882983"/>
<path d="M1000.35 298.479L994.248 316.7" stroke="white" stroke-width="0.882983"/>
<path d="M972.976 390.879L968.49 409.563" stroke="white" stroke-width="0.882983"/>
<path d="M995.495 297.088L991.009 315.772" stroke="white" stroke-width="0.882983"/>
<path d="M976.284 391.522L973.443 410.525" stroke="white" stroke-width="0.882983"/>
<path d="M990.542 296.125L987.702 315.129" stroke="white" stroke-width="0.882983"/>
<path d="M979.634 391.874L978.461 411.053" stroke="white" stroke-width="0.882983"/>
<path d="M985.525 295.598L984.351 314.776" stroke="white" stroke-width="0.882983"/>
<path d="M1264.99 157.27V109.454" stroke="white" stroke-width="0.882983"/>
<path d="M1264.99 397.306V349.49" stroke="white" stroke-width="0.882983"/>
<path d="M1256.61 157.635L1252.45 110.001" stroke="white" stroke-width="0.882983"/>
<path d="M1277.53 396.758L1273.37 349.124" stroke="white" stroke-width="0.882983"/>
<path d="M1248.3 158.73L1240 111.64" stroke="white" stroke-width="0.882983"/>
<path d="M1289.98 395.119L1281.68 348.03" stroke="white" stroke-width="0.882983"/>
<path d="M1240.11 160.544L1227.74 114.358" stroke="white" stroke-width="0.882983"/>
<path d="M1302.24 392.402L1289.86 346.215" stroke="white" stroke-width="0.882983"/>
<path d="M1232.12 163.066L1215.76 118.133" stroke="white" stroke-width="0.882983"/>
<path d="M1314.22 388.626L1297.86 343.694" stroke="white" stroke-width="0.882983"/>
<path d="M1224.37 166.274L1204.16 122.938" stroke="white" stroke-width="0.882983"/>
<path d="M1325.82 383.821L1305.61 340.485" stroke="white" stroke-width="0.882983"/>
<path d="M1216.93 170.146L1193.03 128.736" stroke="white" stroke-width="0.882983"/>
<path d="M1336.95 378.024L1313.04 336.614" stroke="white" stroke-width="0.882983"/>
<path d="M1209.86 174.651L1182.44 135.482" stroke="white" stroke-width="0.882983"/>
<path d="M1347.54 371.277L1320.12 332.109" stroke="white" stroke-width="0.882983"/>
<path d="M1203.21 179.755L1172.48 143.126" stroke="white" stroke-width="0.882983"/>
<path d="M1357.5 363.634L1326.77 327.005" stroke="white" stroke-width="0.882983"/>
<path d="M1197.03 185.42L1163.22 151.609" stroke="white" stroke-width="0.882983"/>
<path d="M1366.76 355.151L1332.95 321.34" stroke="white" stroke-width="0.882983"/>
<path d="M1191.36 191.601L1154.74 160.866" stroke="white" stroke-width="0.882983"/>
<path d="M1375.24 345.894L1338.61 315.158" stroke="white" stroke-width="0.882983"/>
<path d="M1186.26 198.253L1147.09 170.827" stroke="white" stroke-width="0.882983"/>
<path d="M1382.89 335.933L1343.72 308.506" stroke="white" stroke-width="0.882983"/>
<path d="M1181.76 205.325L1140.35 181.417" stroke="white" stroke-width="0.882983"/>
<path d="M1389.63 325.343L1348.22 301.435" stroke="white" stroke-width="0.882983"/>
<path d="M1177.88 212.762L1134.55 192.554" stroke="white" stroke-width="0.882983"/>
<path d="M1395.43 314.206L1352.1 293.998" stroke="white" stroke-width="0.882983"/>
<path d="M1174.68 220.508L1129.74 204.154" stroke="white" stroke-width="0.882983"/>
<path d="M1400.24 302.605L1355.3 286.251" stroke="white" stroke-width="0.882983"/>
<path d="M1172.15 228.505L1125.97 216.129" stroke="white" stroke-width="0.882983"/>
<path d="M1404.01 290.631L1357.82 278.255" stroke="white" stroke-width="0.882983"/>
<path d="M1170.34 236.69L1123.25 228.387" stroke="white" stroke-width="0.882983"/>
<path d="M1406.73 278.372L1359.64 270.069" stroke="white" stroke-width="0.882983"/>
<path d="M1169.25 245.003L1121.61 240.836" stroke="white" stroke-width="0.882983"/>
<path d="M1408.37 265.924L1360.73 261.756" stroke="white" stroke-width="0.882983"/>
<path d="M1168.88 253.38H1121.06" stroke="white" stroke-width="0.882983"/>
<path d="M1408.92 253.38H1361.1" stroke="white" stroke-width="0.882983"/>
<path d="M1169.25 261.756L1121.61 265.924" stroke="white" stroke-width="0.882983"/>
<path d="M1408.37 240.836L1360.73 245.003" stroke="white" stroke-width="0.882983"/>
<path d="M1170.34 270.069L1123.25 278.372" stroke="white" stroke-width="0.882983"/>
<path d="M1406.73 228.387L1359.64 236.69" stroke="white" stroke-width="0.882983"/>
<path d="M1172.15 278.255L1125.97 290.631" stroke="white" stroke-width="0.882983"/>
<path d="M1404.01 216.129L1357.82 228.505" stroke="white" stroke-width="0.882983"/>
<path d="M1174.68 286.25L1129.74 302.604" stroke="white" stroke-width="0.882983"/>
<path d="M1400.24 204.154L1355.3 220.508" stroke="white" stroke-width="0.882983"/>
<path d="M1177.88 293.998L1134.55 314.205" stroke="white" stroke-width="0.882983"/>
<path d="M1395.43 192.554L1352.1 212.762" stroke="white" stroke-width="0.882983"/>
<path d="M1181.76 301.435L1140.35 325.343" stroke="white" stroke-width="0.882983"/>
<path d="M1389.63 181.417L1348.22 205.325" stroke="white" stroke-width="0.882983"/>
<path d="M1186.26 308.505L1147.09 335.931" stroke="white" stroke-width="0.882983"/>
<path d="M1382.89 170.827L1343.72 198.253" stroke="white" stroke-width="0.882983"/>
<path d="M1191.36 315.157L1154.74 345.893" stroke="white" stroke-width="0.882983"/>
<path d="M1375.24 160.866L1338.61 191.601" stroke="white" stroke-width="0.882983"/>
<path d="M1197.03 321.339L1163.22 355.151" stroke="white" stroke-width="0.882983"/>
<path d="M1366.76 151.609L1332.95 185.42" stroke="white" stroke-width="0.882983"/>
<path d="M1203.21 327.004L1172.48 363.634" stroke="white" stroke-width="0.882983"/>
<path d="M1357.5 143.126L1326.77 179.755" stroke="white" stroke-width="0.882983"/>
<path d="M1209.86 332.109L1182.44 371.277" stroke="white" stroke-width="0.882983"/>
<path d="M1347.54 135.482L1320.12 174.651" stroke="white" stroke-width="0.882983"/>
<path d="M1216.93 336.614L1193.03 378.024" stroke="white" stroke-width="0.882983"/>
<path d="M1336.95 128.736L1313.04 170.146" stroke="white" stroke-width="0.882983"/>
<path d="M1224.37 340.485L1204.16 383.821" stroke="white" stroke-width="0.882983"/>
<path d="M1325.82 122.939L1305.61 166.275" stroke="white" stroke-width="0.882983"/>
<path d="M1232.12 343.694L1215.76 388.626" stroke="white" stroke-width="0.882983"/>
<path d="M1314.22 118.133L1297.86 163.066" stroke="white" stroke-width="0.882983"/>
<path d="M1240.11 346.215L1227.74 392.402" stroke="white" stroke-width="0.882983"/>
<path d="M1302.24 114.358L1289.86 160.544" stroke="white" stroke-width="0.882983"/>
<path d="M1248.3 348.03L1240 395.119" stroke="white" stroke-width="0.882983"/>
<path d="M1289.98 111.64L1281.68 158.73" stroke="white" stroke-width="0.882983"/>
<path d="M1256.61 349.124L1252.45 396.758" stroke="white" stroke-width="0.882983"/>
<path d="M1277.53 110.001L1273.37 157.635" stroke="white" stroke-width="0.882983"/>
<path d="M1233.64 200.401C1233.64 200.661 1233.64 208.308 1233.64 214.529C1233.64 218.918 1230.09 222.475 1225.7 222.475H1220.4C1220.4 222.475 1220.4 222.475 1220.4 222.475C1220.4 222.475 1210.24 222.475 1210.24 222.917C1210.24 224.339 1210.24 276.437 1210.24 296.671C1210.24 301.06 1213.8 304.593 1218.19 304.593H1292.36C1296.75 304.593 1300.31 301.035 1300.31 296.646V290.023M1233.64 200.401C1233.64 200.054 1274.78 200.252 1292.43 200.353C1296.8 200.378 1300.31 203.927 1300.31 208.295V225.124M1233.64 200.401L1210.24 222.475M1230.11 237.486H1260.13M1230.11 254.263H1260.13M1230.11 269.273H1260.13M1230.11 283.843H1260.13M1274.26 222.917L1321.5 246.757M1274.26 222.917L1277.79 238.369M1274.26 222.917L1288.39 216.736" stroke="white" stroke-width="3.09511"/>
<path d="M1280 282.518V244.55H1288.83V282.518H1280Z" stroke="#0088FF" stroke-width="3.53193"/>
<path d="M1297.66 282.518V254.263H1306.49V282.518H1297.66Z" stroke="#0088FF" stroke-width="3.53193"/>
<path d="M1314.44 282.518V263.092H1323.27V282.518H1314.44Z" stroke="#0088FF" stroke-width="3.53193"/>
<path d="M1331.21 282.518V272.805H1340.04V282.518H1331.21Z" stroke="#0088FF" stroke-width="3.53193"/>
<path d="M1070.2 329.317C1084.57 377.306 1057.31 427.856 1009.32 442.222C984.228 449.734 958.432 445.865 937.477 433.6" stroke="#0088FF" stroke-width="7.94685"/>
<path d="M1108.94 331.25C1146.45 410.758 1244.64 450.707 1324.15 413.199" stroke="#0088FF" stroke-width="7.94685"/>
<path d="M922.681 371.197C932.471 403.899 966.917 422.473 999.619 412.683C1032.32 402.893 1050.9 368.447 1041.11 335.745" stroke="white" stroke-width="1.76597"/>
<path d="M1059.55 351.833C1059.32 394.672 1024.41 429.214 981.567 428.984C938.727 428.754 904.186 393.84 904.415 351L842 351L703.999 76.0001L-17.0005 76.0001" stroke="white" stroke-width="3.5"/>
<path d="M1013.84 292.737C1013.84 292.737 1006.67 286.636 999.867 287.496" stroke="white" stroke-width="1.76597"/>
<path d="M995.694 327.708L1032.32 260.002L1041.3 265.312" stroke="white" stroke-width="1.76597"/>
<path d="M1062.09 260.96C1068.97 265.117 1071.18 274.063 1067.02 280.943C1062.87 287.822 1053.92 290.029 1047.04 285.872C1040.16 281.715 1037.95 272.768 1042.11 265.889C1046.27 259.009 1055.21 256.803 1062.09 260.96Z" stroke="white" stroke-width="2.64895"/>
<path d="M1059.9 264.583C1064.78 267.531 1066.35 273.875 1063.4 278.753C1060.45 283.63 1054.11 285.195 1049.23 282.248C1044.35 279.3 1042.79 272.956 1045.73 268.078C1048.68 263.201 1055.03 261.636 1059.9 264.583Z" stroke="white" stroke-width="2.64895"/>
<path d="M1058.17 267.452C1061.46 269.442 1062.52 273.726 1060.53 277.02C1058.54 280.313 1054.26 281.37 1050.96 279.38C1047.67 277.389 1046.61 273.105 1048.6 269.812C1050.59 266.518 1054.88 265.461 1058.17 267.452Z" stroke="white" stroke-width="0.882983"/>
<path d="M998.576 285.971C999.594 286.587 999.92 287.911 999.305 288.929C998.69 289.947 997.366 290.274 996.347 289.659C995.329 289.043 995.003 287.719 995.618 286.701C996.233 285.683 997.557 285.356 998.576 285.971Z" stroke="white" stroke-width="1.76597"/>
</svg>
