<svg width="360" height="213" viewBox="0 0 360 213" fill="none" xmlns="http://www.w3.org/2000/svg">
<g clip-path="url(#clip0)">
<path d="M303.821 242.477C366.845 242.477 417.936 192.022 417.936 129.783C417.936 67.5438 366.845 17.0889 303.821 17.0889" stroke="white" stroke-width="4.73505"/>
<path d="M351.066 202.987C391.532 177.866 404.221 125.098 379.407 85.125C354.592 45.1522 301.672 33.112 261.206 58.2325" stroke="white" stroke-width="4.73505"/>
<path d="M351.066 202.987C391.532 177.866 404.221 125.098 379.407 85.125C354.592 45.1522 301.672 33.112 261.206 58.2325" stroke="white" stroke-width="4.73505"/>
<path d="M231.011 157.466C242.815 187.055 268.972 206.575 298.077 211.043" stroke="#0088FF" stroke-width="4.73505"/>
<path d="M397.621 166.283C417.493 115.002 392.031 57.3214 340.75 37.4495" stroke="white" stroke-width="8.52309" stroke-linejoin="round"/>
<path d="M229.008 68.3052C253.726 37.9088 292.664 25.8871 328.444 34.0303" stroke="#0088FF" stroke-width="8.52309" stroke-linejoin="round"/>
<path d="M239.187 191.339L197.282 233.008L187.575 223.538" stroke="#0088FF" stroke-width="4.26155"/>
<path d="M173.225 182.478C173.225 191.003 166.314 197.913 157.79 197.913C149.266 197.913 142.356 191.003 142.356 182.478C142.356 173.954 149.266 167.044 157.79 167.044C166.314 167.044 173.225 173.954 173.225 182.478Z" stroke="white" stroke-width="1.89402"/>
<path d="M169.093 182.479C169.093 188.721 164.032 193.781 157.79 193.781C151.548 193.781 146.487 188.721 146.487 182.479C146.487 176.236 151.548 171.176 157.79 171.176C164.032 171.176 169.093 176.236 169.093 182.479Z" stroke="white" stroke-width="1.42052"/>
<path d="M164.961 182.479C164.961 186.439 161.751 189.65 157.79 189.65C153.83 189.65 150.619 186.439 150.619 182.479C150.619 178.518 153.83 175.307 157.79 175.307C161.751 175.307 164.961 178.518 164.961 182.479Z" stroke="white" stroke-width="0.94701"/>
<path d="M157.203 161.729L156.934 151.429" stroke="white" stroke-width="0.473505"/>
<path d="M158.556 213.437L158.286 203.136" stroke="white" stroke-width="0.473505"/>
<path d="M155.402 161.855L154.235 151.617" stroke="white" stroke-width="0.473505"/>
<path d="M161.255 213.248L160.089 203.011" stroke="white" stroke-width="0.473505"/>
<path d="M153.616 162.138L151.562 152.041" stroke="white" stroke-width="0.473505"/>
<path d="M163.927 212.825L161.873 202.728" stroke="white" stroke-width="0.473505"/>
<path d="M151.863 162.575L148.937 152.695" stroke="white" stroke-width="0.473505"/>
<path d="M166.553 212.17L163.626 202.291" stroke="white" stroke-width="0.473505"/>
<path d="M150.155 163.163L146.379 153.576" stroke="white" stroke-width="0.473505"/>
<path d="M169.111 211.289L165.335 201.702" stroke="white" stroke-width="0.473505"/>
<path d="M148.504 163.898L143.907 154.676" stroke="white" stroke-width="0.473505"/>
<path d="M171.583 210.189L166.986 200.968" stroke="white" stroke-width="0.473505"/>
<path d="M146.924 164.774L141.54 155.988" stroke="white" stroke-width="0.473505"/>
<path d="M173.949 208.877L168.566 200.092" stroke="white" stroke-width="0.473505"/>
<path d="M145.426 165.784L139.297 157.501" stroke="white" stroke-width="0.473505"/>
<path d="M176.192 207.364L170.064 199.082" stroke="white" stroke-width="0.473505"/>
<path d="M144.022 166.921L137.194 159.204" stroke="white" stroke-width="0.473505"/>
<path d="M178.295 205.662L171.468 197.944" stroke="white" stroke-width="0.473505"/>
<path d="M142.722 168.176L135.248 161.083" stroke="white" stroke-width="0.473505"/>
<path d="M180.242 203.782L172.768 196.689" stroke="white" stroke-width="0.473505"/>
<path d="M141.537 169.54L133.473 163.125" stroke="white" stroke-width="0.473505"/>
<path d="M182.017 201.74L173.953 195.326" stroke="white" stroke-width="0.473505"/>
<path d="M140.474 171.001L131.882 165.314" stroke="white" stroke-width="0.473505"/>
<path d="M183.607 199.551L175.015 193.864" stroke="white" stroke-width="0.473505"/>
<path d="M139.544 172.55L130.489 167.634" stroke="white" stroke-width="0.473505"/>
<path d="M185 197.232L175.945 192.315" stroke="white" stroke-width="0.473505"/>
<path d="M138.752 174.174L129.303 170.065" stroke="white" stroke-width="0.473505"/>
<path d="M186.187 194.8L176.737 190.691" stroke="white" stroke-width="0.473505"/>
<path d="M138.104 175.861L128.333 172.591" stroke="white" stroke-width="0.473505"/>
<path d="M187.156 192.274L177.385 189.005" stroke="white" stroke-width="0.473505"/>
<path d="M137.606 177.598L127.587 175.192" stroke="white" stroke-width="0.473505"/>
<path d="M187.902 189.674L177.883 187.268" stroke="white" stroke-width="0.473505"/>
<path d="M137.262 179.371L127.071 177.848" stroke="white" stroke-width="0.473505"/>
<path d="M188.419 187.018L178.228 185.494" stroke="white" stroke-width="0.473505"/>
<path d="M137.073 181.167L126.788 180.538" stroke="white" stroke-width="0.473505"/>
<path d="M188.701 184.327L178.417 183.698" stroke="white" stroke-width="0.473505"/>
<path d="M137.041 182.974L126.741 183.244" stroke="white" stroke-width="0.473505"/>
<path d="M188.749 181.621L178.448 181.891" stroke="white" stroke-width="0.473505"/>
<path d="M137.167 184.777L126.929 185.943" stroke="white" stroke-width="0.473505"/>
<path d="M188.56 178.922L178.322 180.089" stroke="white" stroke-width="0.473505"/>
<path d="M137.45 186.562L127.353 188.616" stroke="white" stroke-width="0.473505"/>
<path d="M188.137 176.25L178.04 178.304" stroke="white" stroke-width="0.473505"/>
<path d="M137.887 188.315L128.007 191.241" stroke="white" stroke-width="0.473505"/>
<path d="M187.482 173.625L177.603 176.551" stroke="white" stroke-width="0.473505"/>
<path d="M138.475 190.023L128.888 193.799" stroke="white" stroke-width="0.473505"/>
<path d="M186.601 171.066L177.014 174.843" stroke="white" stroke-width="0.473505"/>
<path d="M139.209 191.673L129.988 196.27" stroke="white" stroke-width="0.473505"/>
<path d="M185.501 168.595L176.28 173.192" stroke="white" stroke-width="0.473505"/>
<path d="M140.086 193.254L131.3 198.637" stroke="white" stroke-width="0.473505"/>
<path d="M184.189 166.228L175.404 171.612" stroke="white" stroke-width="0.473505"/>
<path d="M141.096 194.751L132.813 200.88" stroke="white" stroke-width="0.473505"/>
<path d="M182.676 163.985L174.393 170.114" stroke="white" stroke-width="0.473505"/>
<path d="M142.233 196.156L134.516 202.983" stroke="white" stroke-width="0.473505"/>
<path d="M180.974 161.882L173.256 168.71" stroke="white" stroke-width="0.473505"/>
<path d="M143.488 197.456L136.395 204.93" stroke="white" stroke-width="0.473505"/>
<path d="M179.094 159.936L172.001 167.41" stroke="white" stroke-width="0.473505"/>
<path d="M144.851 198.641L138.437 206.704" stroke="white" stroke-width="0.473505"/>
<path d="M177.052 158.161L170.638 166.225" stroke="white" stroke-width="0.473505"/>
<path d="M146.313 199.703L140.626 208.295" stroke="white" stroke-width="0.473505"/>
<path d="M174.863 156.571L169.176 165.163" stroke="white" stroke-width="0.473505"/>
<path d="M147.862 200.633L142.945 209.689" stroke="white" stroke-width="0.473505"/>
<path d="M172.544 155.177L167.627 164.232" stroke="white" stroke-width="0.473505"/>
<path d="M149.485 201.425L145.377 210.875" stroke="white" stroke-width="0.473505"/>
<path d="M170.112 153.991L166.003 163.44" stroke="white" stroke-width="0.473505"/>
<path d="M151.173 202.073L147.903 211.844" stroke="white" stroke-width="0.473505"/>
<path d="M167.586 153.021L164.317 162.792" stroke="white" stroke-width="0.473505"/>
<path d="M152.909 202.571L150.503 212.59" stroke="white" stroke-width="0.473505"/>
<path d="M164.986 152.275L162.58 162.294" stroke="white" stroke-width="0.473505"/>
<path d="M154.682 202.916L153.159 213.106" stroke="white" stroke-width="0.473505"/>
<path d="M162.329 151.759L160.806 161.949" stroke="white" stroke-width="0.473505"/>
<path d="M156.48 203.105L155.85 213.389" stroke="white" stroke-width="0.473505"/>
<path d="M159.639 151.476L159.009 161.761" stroke="white" stroke-width="0.473505"/>
<path d="M309.503 77.2964V51.6548" stroke="white" stroke-width="0.473505"/>
<path d="M309.504 206.017V180.376" stroke="white" stroke-width="0.473505"/>
<path d="M305.011 77.4924L302.777 51.9484" stroke="white" stroke-width="0.473505"/>
<path d="M316.23 205.724L313.995 180.18" stroke="white" stroke-width="0.473505"/>
<path d="M300.554 78.0794L296.101 52.8273" stroke="white" stroke-width="0.473505"/>
<path d="M322.906 204.845L318.453 179.593" stroke="white" stroke-width="0.473505"/>
<path d="M296.164 79.0526L289.527 54.2847" stroke="white" stroke-width="0.473505"/>
<path d="M329.48 203.387L322.843 178.62" stroke="white" stroke-width="0.473505"/>
<path d="M291.876 80.4046L283.106 56.3093" stroke="white" stroke-width="0.473505"/>
<path d="M335.901 201.363L327.131 177.268" stroke="white" stroke-width="0.473505"/>
<path d="M287.722 82.1252L276.885 58.886" stroke="white" stroke-width="0.473505"/>
<path d="M342.122 198.786L331.285 175.547" stroke="white" stroke-width="0.473505"/>
<path d="M283.735 84.2006L270.914 61.9943" stroke="white" stroke-width="0.473505"/>
<path d="M348.094 195.677L335.273 173.471" stroke="white" stroke-width="0.473505"/>
<path d="M279.942 86.6166L265.235 65.6122" stroke="white" stroke-width="0.473505"/>
<path d="M353.773 192.059L339.065 171.055" stroke="white" stroke-width="0.473505"/>
<path d="M276.375 89.3543L259.892 69.7117" stroke="white" stroke-width="0.473505"/>
<path d="M359.115 187.96L342.633 168.318" stroke="white" stroke-width="0.473505"/>
<path d="M273.06 92.3914L254.929 74.26" stroke="white" stroke-width="0.473505"/>
<path d="M364.079 183.411L345.948 165.28" stroke="white" stroke-width="0.473505"/>
<path d="M270.022 95.707L250.379 79.2249" stroke="white" stroke-width="0.473505"/>
<path d="M368.628 178.447L348.985 161.965" stroke="white" stroke-width="0.473505"/>
<path d="M267.285 99.2741L246.28 84.5667" stroke="white" stroke-width="0.473505"/>
<path d="M372.727 173.105L351.722 158.398" stroke="white" stroke-width="0.473505"/>
<path d="M264.869 103.066L242.662 90.2452" stroke="white" stroke-width="0.473505"/>
<path d="M376.345 167.427L354.138 154.606" stroke="white" stroke-width="0.473505"/>
<path d="M262.793 107.055L239.554 96.2179" stroke="white" stroke-width="0.473505"/>
<path d="M379.454 161.454L356.214 150.618" stroke="white" stroke-width="0.473505"/>
<path d="M261.072 111.209L236.977 102.439" stroke="white" stroke-width="0.473505"/>
<path d="M382.03 155.234L357.935 146.464" stroke="white" stroke-width="0.473505"/>
<path d="M259.72 115.497L234.952 108.86" stroke="white" stroke-width="0.473505"/>
<path d="M384.055 148.812L359.287 142.175" stroke="white" stroke-width="0.473505"/>
<path d="M258.747 119.886L233.495 115.434" stroke="white" stroke-width="0.473505"/>
<path d="M258.16 124.344L232.616 122.109" stroke="white" stroke-width="0.473505"/>
<path d="M257.964 128.836H232.322" stroke="white" stroke-width="0.473505"/>
<path d="M258.16 133.328L232.616 135.563" stroke="white" stroke-width="0.473505"/>
<path d="M258.747 137.786L233.495 142.239" stroke="white" stroke-width="0.473505"/>
<path d="M259.72 142.175L234.952 148.811" stroke="white" stroke-width="0.473505"/>
<path d="M384.055 108.86L359.287 115.497" stroke="white" stroke-width="0.473505"/>
<path d="M261.072 146.464L236.977 155.234" stroke="white" stroke-width="0.473505"/>
<path d="M382.03 102.438L357.935 111.208" stroke="white" stroke-width="0.473505"/>
<path d="M262.793 150.617L239.554 161.454" stroke="white" stroke-width="0.473505"/>
<path d="M379.453 96.2176L356.214 107.054" stroke="white" stroke-width="0.473505"/>
<path d="M264.869 154.606L242.662 167.427" stroke="white" stroke-width="0.473505"/>
<path d="M376.345 90.2453L354.138 103.066" stroke="white" stroke-width="0.473505"/>
<path d="M267.284 158.397L246.279 173.104" stroke="white" stroke-width="0.473505"/>
<path d="M372.727 84.5666L351.722 99.274" stroke="white" stroke-width="0.473505"/>
<path d="M270.021 161.964L250.379 178.447" stroke="white" stroke-width="0.473505"/>
<path d="M368.628 79.2249L348.985 95.707" stroke="white" stroke-width="0.473505"/>
<path d="M273.059 165.28L254.928 183.411" stroke="white" stroke-width="0.473505"/>
<path d="M364.079 74.2607L345.948 92.3921" stroke="white" stroke-width="0.473505"/>
<path d="M276.375 168.318L259.892 187.96" stroke="white" stroke-width="0.473505"/>
<path d="M359.115 69.7116L342.633 89.3542" stroke="white" stroke-width="0.473505"/>
<path d="M279.942 171.055L265.234 192.059" stroke="white" stroke-width="0.473505"/>
<path d="M353.773 65.6129L339.065 86.6173" stroke="white" stroke-width="0.473505"/>
<path d="M283.734 173.471L270.913 195.677" stroke="white" stroke-width="0.473505"/>
<path d="M348.094 61.9951L335.273 84.2014" stroke="white" stroke-width="0.473505"/>
<path d="M287.721 175.546L276.884 198.785" stroke="white" stroke-width="0.473505"/>
<path d="M342.122 58.886L331.285 82.1252" stroke="white" stroke-width="0.473505"/>
<path d="M291.876 177.268L283.106 201.363" stroke="white" stroke-width="0.473505"/>
<path d="M335.901 56.3092L327.131 80.4044" stroke="white" stroke-width="0.473505"/>
<path d="M296.163 178.619L289.527 203.387" stroke="white" stroke-width="0.473505"/>
<path d="M329.48 54.2847L322.843 79.0526" stroke="white" stroke-width="0.473505"/>
<path d="M300.553 179.593L296.101 204.845" stroke="white" stroke-width="0.473505"/>
<path d="M322.906 52.8273L318.453 78.0793" stroke="white" stroke-width="0.473505"/>
<path d="M305.012 180.18L302.777 205.724" stroke="white" stroke-width="0.473505"/>
<path d="M316.23 51.9485L313.995 77.4926" stroke="white" stroke-width="0.473505"/>
<path d="M205.048 169.558C212.752 195.293 198.136 222.4 172.401 230.104C158.943 234.133 145.11 232.058 133.873 225.48" stroke="#0088FF" stroke-width="4.26155"/>
<path d="M225.82 170.595C245.934 213.231 298.592 234.654 341.228 214.541" stroke="#0088FF" stroke-width="4.26155"/>
<path d="M125.938 192.016C131.188 209.553 149.66 219.514 167.197 214.264C184.734 209.014 194.694 190.542 189.444 173.005" stroke="white" stroke-width="0.94701"/>
<path d="M199.336 181.632C199.212 204.605 180.489 223.129 157.516 223.005C134.543 222.882 116.02 204.159 116.143 181.186L94.6019 181.186L63.6019 132.807L-19.5211 132.807" stroke="white" stroke-width="1.8769"/>
<path d="M174.822 149.942C174.822 149.942 170.976 146.67 167.33 147.132" stroke="white" stroke-width="0.94701"/>
<path d="M165.092 168.695L184.735 132.388L189.549 135.235" stroke="white" stroke-width="0.94701"/>
<path d="M200.699 132.901C204.388 135.13 205.572 139.928 203.342 143.617C201.113 147.306 196.316 148.49 192.626 146.26C188.937 144.031 187.754 139.233 189.983 135.544C192.212 131.855 197.01 130.672 200.699 132.901Z" stroke="white" stroke-width="1.42052"/>
<path d="M199.525 134.844C202.141 136.425 202.98 139.827 201.399 142.443C199.818 145.058 196.417 145.897 193.801 144.317C191.185 142.736 190.346 139.334 191.927 136.718C193.507 134.103 196.909 133.264 199.525 134.844Z" stroke="white" stroke-width="1.42052"/>
<path d="M198.595 136.383C200.362 137.45 200.928 139.747 199.861 141.513C198.794 143.28 196.497 143.846 194.73 142.779C192.964 141.712 192.397 139.414 193.465 137.648C194.532 135.882 196.829 135.315 198.595 136.383Z" stroke="white" stroke-width="0.473505"/>
<path d="M166.637 146.314C167.183 146.644 167.359 147.354 167.029 147.9C166.699 148.446 165.988 148.621 165.442 148.291C164.896 147.961 164.721 147.251 165.051 146.705C165.381 146.159 166.091 145.984 166.637 146.314Z" stroke="white" stroke-width="0.94701"/>
<path d="M284.602 104.538V152.075C284.602 154.689 286.72 156.807 289.333 156.807C291.947 156.807 294.065 154.689 294.065 152.075V133.946H323.064V135.768C323.064 138.465 325.251 140.652 327.949 140.652C330.646 140.652 332.833 138.465 332.833 135.768V104.691C332.833 101.994 330.646 99.8069 327.949 99.8069C325.251 99.8069 323.064 101.994 323.064 104.691V123.887H294.065V104.538C294.065 101.925 291.947 99.8069 289.333 99.8069C286.72 99.8069 284.602 101.925 284.602 104.538Z" stroke="white" stroke-width="1.5"/>
<path d="M327.949 156.807C330.642 156.807 332.833 154.623 332.833 151.93C332.833 149.236 330.642 147.053 327.949 147.053C325.255 147.053 323.064 149.236 323.064 151.93C323.064 154.623 325.255 156.807 327.949 156.807Z" stroke="white" stroke-width="1.5"/>
</g>
<defs>
<clipPath id="clip0">
<rect width="360" height="213" fill="white"/>
</clipPath>
</defs>
</svg>
