<svg width="697" height="1113" viewBox="0 0 697 1113" fill="none" xmlns="http://www.w3.org/2000/svg">
<path d="M354.417 636.898C354.417 636.898 342.278 607.174 343.19 586.033" stroke="#0088FF" stroke-width="2.46652"/>
<path d="M679.627 769.41C561.388 811.328 432.006 750.731 390.645 634.063C349.284 517.395 411.607 388.835 529.846 346.917" stroke="white" stroke-width="12.3326"/>
<path d="M679.627 769.41C561.388 811.328 432.006 750.731 390.645 634.063C349.284 517.395 411.607 388.835 529.846 346.917" stroke="white" stroke-width="12.3326"/>
<path d="M492.786 889.541C374.985 851.01 291.334 756.586 262.305 646M707.089 234.354C582.766 193.69 452.339 225.723 362.817 307" stroke="white" stroke-width="2"/>
<path d="M570.313 701.27C534.598 693.476 504.614 673.727 483.743 647.222C457.259 613.59 445.448 569.08 455.217 524.313C472.686 444.267 552.538 393.713 633.573 411.397" stroke="white" stroke-width="12.3326"/>
<path d="M633.573 411.397C552.538 393.713 472.686 444.267 455.217 524.313C445.448 569.08 457.259 613.59 483.743 647.222" stroke="white" stroke-width="12.3326"/>
<path d="M467.142 680.44C399.33 601.607 408.263 482.728 487.096 414.916" stroke="#0088FF" stroke-width="22.1986" stroke-linejoin="round"/>
<path d="M437.5 607.5L324.315 647.97L332.636 671.442" stroke="#0088FF" stroke-width="2.46652"/>
<path d="M317.518 706.827C322.399 720.595 337.517 727.799 351.285 722.918C365.053 718.037 372.257 702.919 367.376 689.151C362.495 675.383 347.377 668.179 333.609 673.06C319.841 677.941 312.637 693.059 317.518 706.827Z" stroke="#0088FF" stroke-width="3.69977"/>
<path d="M324.631 704.305C328.119 714.145 338.924 719.293 348.763 715.805C358.603 712.317 363.752 701.512 360.263 691.673C356.775 681.833 345.971 676.684 336.131 680.173C326.291 683.661 321.142 694.465 324.631 704.305Z" stroke="white" stroke-width="3.69977"/>
<path d="M324.668 492.116C328.157 501.956 338.961 507.105 348.801 503.616C358.64 500.128 363.789 489.323 360.301 479.484C356.813 469.644 346.008 464.495 336.168 467.984C326.329 471.472 321.18 482.277 324.668 492.116Z" stroke="white" stroke-width="3.69977"/>
<path d="M331.743 701.675C333.839 707.586 340.33 710.679 346.242 708.583C352.153 706.488 355.246 699.997 353.151 694.085C351.055 688.174 344.564 685.081 338.652 687.176C332.741 689.272 329.648 695.763 331.743 701.675Z" stroke="white" stroke-width="3.69977"/>
<path d="M331.781 489.595C333.877 495.506 340.368 498.599 346.279 496.504C352.191 494.408 355.284 487.917 353.188 482.005C351.093 476.094 344.601 473.001 338.69 475.096C332.779 477.192 329.685 483.683 331.781 489.595Z" stroke="white" stroke-width="3.69977"/>
<path d="M336.344 579.253C337.743 583.2 342.078 585.266 346.025 583.866C349.972 582.467 352.038 578.132 350.638 574.185C349.239 570.238 344.905 568.172 340.957 569.572C337.01 570.971 334.944 575.305 336.344 579.253Z" stroke="#0088FF" stroke-width="3.69977"/>
<path d="M335.727 408.129C337.127 412.076 341.461 414.142 345.408 412.742C349.356 411.343 351.421 407.009 350.022 403.061C348.622 399.114 344.288 397.048 340.341 398.448C336.393 399.847 334.328 404.182 335.727 408.129Z" stroke="white" stroke-width="3.69977"/>
<line y1="-0.616629" x2="60.154" y2="-0.616629" transform="matrix(-0.773628 0.633641 0.633641 0.773628 389.652 732.897)" stroke="white" stroke-width="1.23326"/>
<line y1="-0.616629" x2="60.6818" y2="-0.616629" transform="matrix(-0.758587 0.651571 0.651571 0.758587 394.766 738.289)" stroke="white" stroke-width="1.23326"/>
<line y1="-0.616629" x2="59.8503" y2="-0.616629" transform="matrix(-0.736933 0.675966 0.675966 0.736933 399.169 743.934)" stroke="white" stroke-width="1.23326"/>
<line y1="-0.616629" x2="59.7693" y2="-0.616629" transform="matrix(-0.717593 0.696463 0.696463 0.717593 404.284 749.327)" stroke="white" stroke-width="1.23326"/>
<line y1="-0.616629" x2="59.736" y2="-0.616629" transform="matrix(-0.697644 0.716444 0.716444 0.697644 409.398 754.72)" stroke="white" stroke-width="1.23326"/>
<line y1="-0.616629" x2="59.4014" y2="-0.616629" transform="matrix(-0.685355 0.728209 0.728209 0.685355 414.513 760.113)" stroke="white" stroke-width="1.23326"/>
<line y1="-0.616629" x2="58.7846" y2="-0.616629" transform="matrix(-0.659768 0.75147 0.75147 0.659768 419.627 765.506)" stroke="white" stroke-width="1.23326"/>
<line y1="-0.616629" x2="58.8862" y2="-0.616629" transform="matrix(-0.637986 0.770048 0.770048 0.637986 425.201 769.935)" stroke="white" stroke-width="1.23326"/>
<line y1="-0.616629" x2="58.8862" y2="-0.616629" transform="matrix(-0.637986 0.770048 0.770048 0.637986 431.738 774.823)" stroke="white" stroke-width="1.23326"/>
<line y1="-0.616629" x2="59.0359" y2="-0.616629" transform="matrix(-0.615778 0.78792 0.78792 0.615778 437.311 779.253)" stroke="white" stroke-width="1.23326"/>
<line y1="-0.616629" x2="58.6099" y2="-0.616629" transform="matrix(-0.587377 0.809313 0.809313 0.587377 442.885 783.682)" stroke="white" stroke-width="1.23326"/>
<line y1="-0.616629" x2="57.6548" y2="-0.616629" transform="matrix(-0.551351 0.834273 0.834273 0.551351 448.458 788.111)" stroke="white" stroke-width="1.23326"/>
<line y1="-0.616629" x2="58.5759" y2="-0.616629" transform="matrix(-0.534071 0.845439 0.845439 0.534071 455.455 792.036)" stroke="white" stroke-width="1.23326"/>
<line y1="-0.616629" x2="57.9847" y2="-0.616629" transform="matrix(-0.52725 0.84971 0.84971 0.52725 461.74 796.214)" stroke="white" stroke-width="1.23326"/>
<line y1="-0.616629" x2="57.2981" y2="-0.616629" transform="matrix(-0.504341 0.863505 0.863505 0.504341 468.025 800.391)" stroke="white" stroke-width="1.23326"/>
<line y1="-0.616629" x2="57.719" y2="-0.616629" transform="matrix(-0.479603 0.877486 0.877486 0.479603 474.768 803.605)" stroke="white" stroke-width="1.23326"/>
<line y1="-0.616629" x2="57.1189" y2="-0.616629" transform="matrix(-0.455322 0.890327 0.890327 0.455322 481.512 806.818)" stroke="white" stroke-width="1.23326"/>
<line y1="-0.616629" x2="56.5629" y2="-0.616629" transform="matrix(-0.43019 0.902738 0.902738 0.43019 488.256 810.032)" stroke="white" stroke-width="1.23326"/>
<line y1="-0.616629" x2="56.573" y2="-0.616629" transform="matrix(-0.413084 0.910693 0.910693 0.413084 495 813.246)" stroke="white" stroke-width="1.23326"/>
<line y1="-0.616629" x2="56.0928" y2="-0.616629" transform="matrix(-0.386765 0.922179 0.922179 0.386765 501.746 816.46)" stroke="white" stroke-width="1.23326"/>
<line y1="-0.616629" x2="56.1536" y2="-0.616629" transform="matrix(-0.369188 0.929355 0.929355 0.369188 508.949 818.71)" stroke="white" stroke-width="1.23326"/>
<line y1="-0.616629" x2="56.2347" y2="-0.616629" transform="matrix(-0.351524 0.936179 0.936179 0.351524 516.152 820.96)" stroke="white" stroke-width="1.23326"/>
<line y1="-0.616629" x2="54.8038" y2="-0.616629" transform="matrix(-0.321767 0.946819 0.946819 0.321767 522.896 824.174)" stroke="white" stroke-width="1.23326"/>
<line y1="-0.616629" x2="55.5418" y2="-0.616629" transform="matrix(-0.295605 0.95531 0.95531 0.295605 529.847 825.713)" stroke="white" stroke-width="1.23326"/>
<line y1="-0.616629" x2="55.2694" y2="-0.616629" transform="matrix(-0.266762 0.963763 0.963763 0.266762 536.799 827.252)" stroke="white" stroke-width="1.23326"/>
<line y1="-0.616629" x2="54.003" y2="-0.616629" transform="matrix(-0.233505 0.972356 0.972356 0.233505 543.291 829.755)" stroke="white" stroke-width="1.23326"/>
<line y1="-0.616629" x2="54.2345" y2="-0.616629" transform="matrix(-0.214744 0.97667 0.97667 0.214744 550.953 831.042)" stroke="white" stroke-width="1.23326"/>
<line y1="-0.616629" x2="54.4859" y2="-0.616629" transform="matrix(-0.196071 0.98059 0.98059 0.196071 558.615 832.329)" stroke="white" stroke-width="1.23326"/>
<line y1="-0.616629" x2="53.3612" y2="-0.616629" transform="matrix(-0.160216 0.987082 0.987082 0.160216 565.566 833.868)" stroke="white" stroke-width="1.23326"/>
<line y1="-0.616629" x2="53.6698" y2="-0.616629" transform="matrix(-0.141344 0.989961 0.989961 0.141344 572.976 834.443)" stroke="white" stroke-width="1.23326"/>
<line y1="-0.616629" x2="53.6645" y2="-0.616629" transform="matrix(-0.110151 0.993915 0.993915 0.110151 580.386 835.019)" stroke="white" stroke-width="1.23326"/>
<line y1="-0.616629" x2="53.024" y2="-0.616629" transform="matrix(-0.0846537 0.996411 0.996411 0.0846537 587.796 835.595)" stroke="white" stroke-width="1.23326"/>
<line y1="-0.616629" x2="52.4191" y2="-0.616629" transform="matrix(-0.0584929 0.998288 0.998288 0.0584929 595.206 836.17)" stroke="white" stroke-width="1.23326"/>
<line y1="-0.616629" x2="52.5547" y2="-0.616629" transform="matrix(-0.0264762 0.99965 0.99965 0.0264762 602.364 836.035)" stroke="white" stroke-width="1.23326"/>
<line y1="-0.616629" x2="52.744" y2="-0.616629" transform="matrix(0.00537012 0.999986 0.999986 -0.00537012 609.522 835.899)" stroke="white" stroke-width="1.23326"/>
<line y1="-0.616629" x2="52.2667" y2="-0.616629" transform="matrix(0.0326359 0.999467 0.999467 -0.0326359 616.68 835.763)" stroke="white" stroke-width="1.23326"/>
<line y1="-0.616629" x2="52.0429" y2="-0.616629" transform="matrix(0.0464433 0.998921 0.998921 -0.0464433 624.549 835.376)" stroke="white" stroke-width="1.23326"/>
<line y1="-0.616629" x2="51.8291" y2="-0.616629" transform="matrix(0.0603582 0.998177 0.998177 -0.0603582 632.418 834.988)" stroke="white" stroke-width="1.23326"/>
<line y1="-0.616629" x2="51.9827" y2="-0.616629" transform="matrix(0.106079 0.994358 0.994358 -0.106079 639.072 833.43)" stroke="white" stroke-width="1.23326"/>
<line y1="-0.616629" x2="52.3919" y2="-0.616629" transform="matrix(0.137215 0.990542 0.990542 -0.137215 645.977 832.583)" stroke="white" stroke-width="1.23326"/>
<line y1="-0.616629" x2="52.8518" y2="-0.616629" transform="matrix(0.167707 0.985837 0.985837 -0.167707 653.342 830.772)" stroke="white" stroke-width="1.23326"/>
<line y1="-0.616629" x2="51.7631" y2="-0.616629" transform="matrix(0.207586 0.978217 0.978217 -0.207586 660.248 829.926)" stroke="white" stroke-width="1.23326"/>
<line y1="-0.616629" x2="55.5418" y2="-0.616629" transform="matrix(0.353879 -0.935291 -0.935291 -0.353879 693.389 310.195)" stroke="white" stroke-width="1.23326"/>
<line y1="-0.616629" x2="55.2694" y2="-0.616629" transform="matrix(0.325611 -0.945504 -0.945504 -0.325611 686.546 308.231)" stroke="white" stroke-width="1.23326"/>
<line y1="-0.616629" x2="54.003" y2="-0.616629" transform="matrix(0.292946 -0.956129 -0.956129 -0.292946 680.221 305.333)" stroke="white" stroke-width="1.23326"/>
<line y1="-0.616629" x2="54.2345" y2="-0.616629" transform="matrix(0.274487 -0.961591 -0.961591 -0.274487 672.652 303.577)" stroke="white" stroke-width="1.23326"/>
<line y1="-0.616629" x2="54.486" y2="-0.616629" transform="matrix(0.25609 -0.966653 -0.966653 -0.25609 665.084 301.821)" stroke="white" stroke-width="1.23326"/>
<line y1="-0.616629" x2="53.3612" y2="-0.616629" transform="matrix(0.220703 -0.975341 -0.975341 -0.220703 658.241 299.856)" stroke="white" stroke-width="1.23326"/>
<line y1="-0.616629" x2="53.6698" y2="-0.616629" transform="matrix(0.202044 -0.979377 -0.979377 -0.202044 650.88 298.825)" stroke="white" stroke-width="1.23326"/>
<line y1="-0.616629" x2="53.6645" y2="-0.616629" transform="matrix(0.171154 -0.985244 -0.985244 -0.171154 643.52 297.795)" stroke="white" stroke-width="1.23326"/>
<line y1="-0.616629" x2="53.024" y2="-0.616629" transform="matrix(0.145859 -0.989306 -0.989306 -0.145859 636.16 296.764)" stroke="white" stroke-width="1.23326"/>
<line y1="-0.616629" x2="52.4191" y2="-0.616629" transform="matrix(0.119863 -0.992791 -0.992791 -0.119863 628.799 295.733)" stroke="white" stroke-width="1.23326"/>
<line y1="-0.616629" x2="52.5547" y2="-0.616629" transform="matrix(0.0879912 -0.996121 -0.996121 -0.0879912 621.646 295.427)" stroke="white" stroke-width="1.23326"/>
<line y1="-0.616629" x2="52.744" y2="-0.616629" transform="matrix(0.0562261 -0.998418 -0.998418 -0.0562261 614.494 295.122)" stroke="white" stroke-width="1.23326"/>
<line y1="-0.616629" x2="52.2667" y2="-0.616629" transform="matrix(0.0289801 -0.99958 -0.99958 -0.0289801 607.341 294.816)" stroke="white" stroke-width="1.23326"/>
<line y1="-0.616629" x2="52.0429" y2="-0.616629" transform="matrix(0.0151653 -0.999885 -0.999885 -0.0151653 599.463 294.719)" stroke="white" stroke-width="1.23326"/>
<line y1="-0.616629" x2="51.8291" y2="-0.616629" transform="matrix(0.00123101 -0.999999 -0.999999 -0.00123101 591.585 294.621)" stroke="white" stroke-width="1.23326"/>
<line y1="-0.616629" x2="51.9827" y2="-0.616629" transform="matrix(-0.0446382 -0.999004 -0.999004 0.0446382 584.848 295.766)" stroke="white" stroke-width="1.23326"/>
<line y1="-0.616629" x2="52.3919" y2="-0.616629" transform="matrix(-0.0759503 -0.997112 -0.997112 0.0759503 577.903 296.186)" stroke="white" stroke-width="1.23326"/>
<line y1="-0.616629" x2="52.8518" y2="-0.616629" transform="matrix(-0.106675 -0.994294 -0.994294 0.106675 570.441 297.54)" stroke="white" stroke-width="1.23326"/>
<line y1="-0.616629" x2="51.7631" y2="-0.616629" transform="matrix(-0.146947 -0.989145 -0.989145 0.146947 563.496 297.96)" stroke="white" stroke-width="1.23326"/>
<path d="M648.618 689.929C719.537 664.787 756.651 586.925 731.514 516.021C706.377 445.117 628.508 408.019 557.589 433.161C516.41 447.76 486.629 480.133 473.814 518.597" stroke="white" stroke-width="8"/>
<path d="M579.269 682.292C645.167 694.481 708.478 650.891 720.679 584.93C732.88 518.97 689.35 455.617 623.452 443.428C585.189 436.351 547.798 448.079 520.778 472.073" stroke="#0088FF" stroke-width="7.39955"/>
<path d="M547.158 404.033C463.195 433.799 419.283 526.061 449.078 610.104C478.873 694.148 571.092 738.148 655.055 708.381C703.809 691.097 739.058 652.743 754.216 607.162" stroke="white" stroke-width="4"/>
<path d="M712.441 825.834L693.237 832.642L680.629 797.079M680.629 797.079L645.832 698.924C645.832 698.924 617.408 711.303 583.5 706.453M680.629 797.079C680.629 797.079 673.665 801.149 662.343 801.96" stroke="#0088FF" stroke-width="2.46652"/>
<path d="M597 715.5L589.5 812.172L605.869 813.174" stroke="white" stroke-width="2.46652"/>
<path d="M530.012 689.542L486.064 782.387C486.064 782.387 495.536 791.038 512.536 793.819" stroke="white" stroke-width="2.46652"/>
<path d="M486.97 653.959L409.751 722.969L419.12 732.458" stroke="white" stroke-width="2.46652"/>
<path d="M462.261 496.18L357.347 446.418M339.787 412.695L329.434 433.179L357.347 446.418M357.347 446.418L349.533 467.287" stroke="white" stroke-width="2.46652"/>
<path d="M558.302 400.082L532.582 327.532M482.555 294.826L516.696 282.723L532.582 327.532M532.582 327.532C532.582 327.532 552.911 317.123 563.968 321.209" stroke="#0088FF" stroke-width="2.46652"/>
<path d="M672.655 439.207L708.191 362.156C708.191 362.156 727.437 370.145 745.671 387.7" stroke="white" stroke-width="2.46652"/>
<path d="M440.198 309.842C444.313 321.449 457.058 327.523 468.666 323.408C480.273 319.293 486.347 306.547 482.232 294.94C478.117 283.333 465.371 277.259 453.764 281.374C442.157 285.489 436.083 298.234 440.198 309.842Z" stroke="#0088FF" stroke-width="3.69977"/>
<path d="M565.091 325.615C567.813 333.294 576.245 337.313 583.924 334.59C591.604 331.868 595.622 323.436 592.899 315.757C590.177 308.077 581.745 304.059 574.066 306.782C566.387 309.504 562.368 317.936 565.091 325.615Z" stroke="#0088FF" stroke-width="3.69977"/>
<path d="M512.637 800.989C515.011 807.686 522.365 811.191 529.062 808.817C535.759 806.442 539.263 799.089 536.889 792.391C534.515 785.694 527.161 782.19 520.464 784.564C513.767 786.938 510.262 794.292 512.637 800.989Z" stroke="white" stroke-width="3.69977"/>
<path d="M606.591 815.32C608.06 819.464 612.61 821.632 616.754 820.163C620.897 818.694 623.066 814.144 621.597 810C620.128 805.857 615.578 803.688 611.434 805.157C607.29 806.626 605.122 811.176 606.591 815.32Z" stroke="white" stroke-width="3.69977"/>
<path d="M653.373 802.738C654.145 804.918 656.539 806.059 658.718 805.286C660.898 804.513 662.039 802.12 661.266 799.94C660.493 797.761 658.1 796.62 655.92 797.393C653.741 798.165 652.6 800.559 653.373 802.738Z" stroke="#0088FF" stroke-width="3.69977"/>
<path d="M432.758 738.373C432.758 742.352 429.532 745.579 425.552 745.579C421.572 745.579 418.346 742.352 418.346 738.373C418.346 734.393 421.572 731.167 425.552 731.167C429.532 731.167 432.758 734.393 432.758 738.373Z" stroke="white" stroke-width="3.69977"/>
<path d="M408 1023.42C425.402 980.111 474.154 958.92 516.89 976.091C559.626 993.262 580.163 1042.29 562.76 1085.6" stroke="white" stroke-width="4"/>
<path d="M171 823.646C232.325 789.048 309.745 810.108 343.921 870.685C361.56 901.95 364.233 937.631 354.258 969.597" stroke="white" stroke-width="4"/>
<path d="M99.0002 588.871C130.507 597.238 158.315 618.38 174.016 649.578C192.571 686.445 189.774 728.527 170.287 762" stroke="white" stroke-width="4"/>
<path d="M198.507 337.868C207.726 354.994 212.727 374.27 212.711 394C212.7 407.339 210.395 420.885 205.549 434.114C191.352 472.869 158.745 499.617 121 508.304" stroke="white" stroke-width="4"/>
<path d="M188.593 397C197.341 418.867 186.706 443.684 164.839 452.432" stroke="white" stroke-width="4" stroke-linejoin="round"/>
<path d="M181 666L386 615" stroke="white" stroke-width="4"/>
<path d="M322 842L445 720" stroke="white" stroke-width="4"/>
<path d="M509 972L556.5 776" stroke="white" stroke-width="4"/>
<path d="M189 429.999L386 500.999" stroke="white" stroke-width="4"/>
<path d="M305 249L451 395M501 150L577 411" stroke="white" stroke-width="4"/>
<path d="M601.51 490.343V454.195" stroke="white" stroke-width="2.46652"/>
<path d="M601.51 671.807V635.659" stroke="white" stroke-width="2.46652"/>
<path d="M595.178 490.62L592.027 454.609" stroke="white" stroke-width="2.46652"/>
<path d="M610.993 671.393L607.842 635.383" stroke="white" stroke-width="2.46652"/>
<path d="M588.893 491.447L582.616 455.848" stroke="white" stroke-width="2.46652"/>
<path d="M620.404 670.154L614.126 634.555" stroke="white" stroke-width="2.46652"/>
<path d="M582.705 492.819L573.349 457.903" stroke="white" stroke-width="2.46652"/>
<path d="M629.671 668.1L620.315 633.183" stroke="white" stroke-width="2.46652"/>
<path d="M576.66 494.725L564.296 460.757" stroke="white" stroke-width="2.46652"/>
<path d="M638.723 665.246L626.36 631.277" stroke="white" stroke-width="2.46652"/>
<path d="M570.803 497.151L555.526 464.389" stroke="white" stroke-width="2.46652"/>
<path d="M647.493 661.613L632.216 628.852" stroke="white" stroke-width="2.46652"/>
<path d="M565.181 500.078L547.107 468.772" stroke="white" stroke-width="2.46652"/>
<path d="M655.913 657.23L637.839 625.925" stroke="white" stroke-width="2.46652"/>
<path d="M559.835 503.483L539.101 473.873" stroke="white" stroke-width="2.46652"/>
<path d="M663.918 652.13L643.185 622.519" stroke="white" stroke-width="2.46652"/>
<path d="M554.806 507.342L531.571 479.651" stroke="white" stroke-width="2.46652"/>
<path d="M671.449 646.352L648.214 618.66" stroke="white" stroke-width="2.46652"/>
<path d="M550.133 511.624L524.572 486.064" stroke="white" stroke-width="2.46652"/>
<path d="M678.447 639.939L652.886 614.378" stroke="white" stroke-width="2.46652"/>
<path d="M545.851 516.298L518.16 493.062" stroke="white" stroke-width="2.46652"/>
<path d="M684.86 632.94L657.169 609.705" stroke="white" stroke-width="2.46652"/>
<path d="M541.992 521.326L512.381 500.593" stroke="white" stroke-width="2.46652"/>
<path d="M690.638 625.41L661.028 604.676" stroke="white" stroke-width="2.46652"/>
<path d="M538.586 526.672L507.281 508.598" stroke="white" stroke-width="2.46652"/>
<path d="M695.738 617.404L664.433 599.33" stroke="white" stroke-width="2.46652"/>
<path d="M535.659 532.295L502.898 517.018" stroke="white" stroke-width="2.46652"/>
<path d="M700.121 608.985L667.36 593.708" stroke="white" stroke-width="2.46652"/>
<path d="M533.234 538.151L499.266 525.787" stroke="white" stroke-width="2.46652"/>
<path d="M703.754 600.215L669.786 587.852" stroke="white" stroke-width="2.46652"/>
<path d="M531.328 544.196L496.411 534.84" stroke="white" stroke-width="2.46652"/>
<path d="M706.608 591.162L671.692 581.807" stroke="white" stroke-width="2.46652"/>
<path d="M529.955 550.384L494.356 544.107" stroke="white" stroke-width="2.46652"/>
<path d="M708.663 581.895L673.064 575.618" stroke="white" stroke-width="2.46652"/>
<path d="M529.128 556.669L493.118 553.518" stroke="white" stroke-width="2.46652"/>
<path d="M709.902 572.484L673.891 569.334" stroke="white" stroke-width="2.46652"/>
<path d="M528.852 563.001H492.704" stroke="white" stroke-width="2.46652"/>
<path d="M710.316 563.001H674.168" stroke="white" stroke-width="2.46652"/>
<path d="M529.128 569.334L493.118 572.484" stroke="white" stroke-width="2.46652"/>
<path d="M709.902 553.518L673.891 556.669" stroke="white" stroke-width="2.46652"/>
<path d="M529.955 575.618L494.356 581.895" stroke="white" stroke-width="2.46652"/>
<path d="M708.663 544.107L673.064 550.384" stroke="white" stroke-width="2.46652"/>
<path d="M531.328 581.807L496.411 591.162" stroke="white" stroke-width="2.46652"/>
<path d="M706.608 534.84L671.692 544.196" stroke="white" stroke-width="2.46652"/>
<path d="M533.234 587.852L499.266 600.215" stroke="white" stroke-width="2.46652"/>
<path d="M703.754 525.787L669.786 538.151" stroke="white" stroke-width="2.46652"/>
<path d="M535.659 593.708L502.898 608.985" stroke="white" stroke-width="2.46652"/>
<path d="M700.121 517.018L667.36 532.295" stroke="white" stroke-width="2.46652"/>
<path d="M538.586 599.33L507.281 617.404" stroke="white" stroke-width="2.46652"/>
<path d="M695.738 508.598L664.433 526.672" stroke="white" stroke-width="2.46652"/>
<path d="M541.992 604.676L512.381 625.41" stroke="white" stroke-width="2.46652"/>
<path d="M690.638 500.593L661.028 521.326" stroke="white" stroke-width="2.46652"/>
<path d="M545.85 609.704L518.159 632.939" stroke="white" stroke-width="2.46652"/>
<path d="M684.86 493.062L657.169 516.298" stroke="white" stroke-width="2.46652"/>
<path d="M550.133 614.378L524.572 639.939" stroke="white" stroke-width="2.46652"/>
<path d="M678.447 486.064L652.886 511.624" stroke="white" stroke-width="2.46652"/>
<path d="M554.806 618.66L531.571 646.352" stroke="white" stroke-width="2.46652"/>
<path d="M671.449 479.651L648.214 507.342" stroke="white" stroke-width="2.46652"/>
<path d="M559.834 622.519L539.1 652.13" stroke="white" stroke-width="2.46652"/>
<path d="M663.918 473.873L643.185 503.483" stroke="white" stroke-width="2.46652"/>
<path d="M565.18 625.925L547.106 657.23" stroke="white" stroke-width="2.46652"/>
<path d="M655.913 468.772L637.839 500.078" stroke="white" stroke-width="2.46652"/>
<path d="M570.803 628.851L555.526 661.613" stroke="white" stroke-width="2.46652"/>
<path d="M647.493 464.39L632.216 497.151" stroke="white" stroke-width="2.46652"/>
<path d="M576.659 631.277L564.296 665.246" stroke="white" stroke-width="2.46652"/>
<path d="M638.723 460.757L626.36 494.725" stroke="white" stroke-width="2.46652"/>
<path d="M582.704 633.183L573.348 668.1" stroke="white" stroke-width="2.46652"/>
<path d="M629.671 457.903L620.315 492.819" stroke="white" stroke-width="2.46652"/>
<path d="M588.893 634.555L582.616 670.154" stroke="white" stroke-width="2.46652"/>
<path d="M620.404 455.848L614.126 491.447" stroke="white" stroke-width="2.46652"/>
<path d="M595.177 635.383L592.026 671.393" stroke="white" stroke-width="2.46652"/>
<path d="M610.993 454.609L607.842 490.62" stroke="white" stroke-width="2.46652"/>
<path d="M239.206 853.043V816" stroke="white" stroke-width="1.23326"/>
<path d="M239.206 1039V1001.96" stroke="white" stroke-width="1.23326"/>
<path d="M232.716 853.327L229.487 816.424" stroke="white" stroke-width="1.23326"/>
<path d="M248.923 1038.58L245.695 1001.67" stroke="white" stroke-width="1.23326"/>
<path d="M226.278 854.174L219.845 817.694" stroke="white" stroke-width="1.23326"/>
<path d="M258.567 1037.31L252.135 1000.83" stroke="white" stroke-width="1.23326"/>
<path d="M219.935 855.58L210.348 819.799" stroke="white" stroke-width="1.23326"/>
<path d="M268.064 1035.2L258.477 999.42" stroke="white" stroke-width="1.23326"/>
<path d="M213.739 857.534L201.07 822.724" stroke="white" stroke-width="1.23326"/>
<path d="M277.341 1032.28L264.671 997.466" stroke="white" stroke-width="1.23326"/>
<path d="M207.739 860.019L192.084 826.447" stroke="white" stroke-width="1.23326"/>
<path d="M286.328 1028.55L270.673 994.981" stroke="white" stroke-width="1.23326"/>
<path d="M201.977 863.018L183.455 830.938" stroke="white" stroke-width="1.23326"/>
<path d="M294.956 1024.06L276.434 991.981" stroke="white" stroke-width="1.23326"/>
<path d="M196.501 866.507L175.254 836.163" stroke="white" stroke-width="1.23326"/>
<path d="M303.159 1018.84L281.912 988.491" stroke="white" stroke-width="1.23326"/>
<path d="M191.346 870.462L167.535 842.086" stroke="white" stroke-width="1.23326"/>
<path d="M310.877 1012.91L287.066 984.537" stroke="white" stroke-width="1.23326"/>
<path d="M186.557 874.851L160.363 848.658" stroke="white" stroke-width="1.23326"/>
<path d="M318.048 1006.34L291.855 980.149" stroke="white" stroke-width="1.23326"/>
<path d="M182.168 879.64L153.792 855.829" stroke="white" stroke-width="1.23326"/>
<path d="M324.619 999.171L296.243 975.36" stroke="white" stroke-width="1.23326"/>
<path d="M178.214 884.793L147.87 863.546" stroke="white" stroke-width="1.23326"/>
<path d="M330.542 991.454L300.198 970.207" stroke="white" stroke-width="1.23326"/>
<path d="M174.718 890.272L142.638 871.751" stroke="white" stroke-width="1.23326"/>
<path d="M335.762 983.251L303.682 964.729" stroke="white" stroke-width="1.23326"/>
<path d="M171.719 896.033L138.147 880.378" stroke="white" stroke-width="1.23326"/>
<path d="M340.253 974.622L306.681 958.967" stroke="white" stroke-width="1.23326"/>
<path d="M169.239 902.034L134.43 889.365" stroke="white" stroke-width="1.23326"/>
<path d="M343.982 965.635L309.172 952.966" stroke="white" stroke-width="1.23326"/>
<path d="M167.286 908.229L131.505 898.642" stroke="white" stroke-width="1.23326"/>
<path d="M346.906 956.358L311.125 946.771" stroke="white" stroke-width="1.23326"/>
<path d="M165.88 914.571L129.4 908.138" stroke="white" stroke-width="1.23326"/>
<path d="M349.011 946.862L312.531 940.429" stroke="white" stroke-width="1.23326"/>
<path d="M165.032 921.011L128.13 917.782" stroke="white" stroke-width="1.23326"/>
<path d="M350.281 937.218L313.379 933.989" stroke="white" stroke-width="1.23326"/>
<path d="M164.749 927.5H127.706" stroke="white" stroke-width="1.23326"/>
<path d="M350.706 927.5H313.662" stroke="white" stroke-width="1.23326"/>
<path d="M165.032 933.989L128.13 937.218" stroke="white" stroke-width="1.23326"/>
<path d="M350.281 917.782L313.379 921.011" stroke="white" stroke-width="1.23326"/>
<path d="M165.88 940.429L129.4 946.862" stroke="white" stroke-width="1.23326"/>
<path d="M349.011 908.138L312.531 914.571" stroke="white" stroke-width="1.23326"/>
<path d="M167.286 946.771L131.505 956.358" stroke="white" stroke-width="1.23326"/>
<path d="M346.906 898.642L311.125 908.229" stroke="white" stroke-width="1.23326"/>
<path d="M169.239 952.965L134.43 965.634" stroke="white" stroke-width="1.23326"/>
<path d="M343.982 889.365L309.172 902.034" stroke="white" stroke-width="1.23326"/>
<path d="M171.719 958.968L138.147 974.623" stroke="white" stroke-width="1.23326"/>
<path d="M340.253 880.379L306.681 896.034" stroke="white" stroke-width="1.23326"/>
<path d="M174.718 964.729L142.637 983.25" stroke="white" stroke-width="1.23326"/>
<path d="M335.762 871.751L303.681 890.273" stroke="white" stroke-width="1.23326"/>
<path d="M178.214 970.206L147.87 991.453" stroke="white" stroke-width="1.23326"/>
<path d="M330.541 863.546L300.197 884.793" stroke="white" stroke-width="1.23326"/>
<path d="M182.168 975.359L153.791 999.17" stroke="white" stroke-width="1.23326"/>
<path d="M324.619 855.829L296.243 879.64" stroke="white" stroke-width="1.23326"/>
<path d="M186.556 980.148L160.362 1006.34" stroke="white" stroke-width="1.23326"/>
<path d="M318.048 848.657L291.854 874.851" stroke="white" stroke-width="1.23326"/>
<path d="M191.345 984.537L167.534 1012.91" stroke="white" stroke-width="1.23326"/>
<path d="M310.877 842.086L287.066 870.463" stroke="white" stroke-width="1.23326"/>
<path d="M196.499 988.491L175.252 1018.84" stroke="white" stroke-width="1.23326"/>
<path d="M303.159 836.165L281.912 866.509" stroke="white" stroke-width="1.23326"/>
<path d="M201.977 991.981L183.455 1024.06" stroke="white" stroke-width="1.23326"/>
<path d="M294.955 830.938L276.434 863.018" stroke="white" stroke-width="1.23326"/>
<path d="M207.737 994.98L192.082 1028.55" stroke="white" stroke-width="1.23326"/>
<path d="M286.328 826.447L270.673 860.019" stroke="white" stroke-width="1.23326"/>
<path d="M213.74 997.466L201.07 1032.28" stroke="white" stroke-width="1.23326"/>
<path d="M277.341 822.724L264.671 857.533" stroke="white" stroke-width="1.23326"/>
<path d="M219.935 999.42L210.347 1035.2" stroke="white" stroke-width="1.23326"/>
<path d="M268.064 819.799L258.477 855.58" stroke="white" stroke-width="1.23326"/>
<path d="M226.276 1000.83L219.844 1037.31" stroke="white" stroke-width="1.23326"/>
<path d="M258.567 817.694L252.135 854.174" stroke="white" stroke-width="1.23326"/>
<path d="M232.717 1001.67L229.488 1038.58" stroke="white" stroke-width="1.23326"/>
<path d="M248.924 816.424L245.696 853.326" stroke="white" stroke-width="1.23326"/>
<path d="M394.498 115.57C430.182 159.299 494.088 166.206 537.236 130.996C560.099 112.339 568.658 89.4891 570 61.9664" stroke="white" stroke-width="3"/>
<path d="M327.116 215.699C307.726 267.905 249.116 294.297 196.206 274.646" stroke="white" stroke-width="3"/>
<path d="M569.015 530.296V595.15C569.015 598.715 571.905 601.605 575.47 601.605C579.035 601.605 581.925 598.715 581.925 595.15V570.416H621.489V572.902C621.489 576.582 624.472 579.565 628.152 579.565C631.832 579.565 634.815 576.582 634.815 572.902V530.505C634.815 526.825 631.832 523.841 628.152 523.841C624.472 523.841 621.489 526.825 621.489 530.505V556.693H581.925V530.296C581.925 526.731 579.035 523.841 575.47 523.841C571.905 523.841 569.015 526.731 569.015 530.296Z" stroke="white" stroke-width="3.69977"/>
<path d="M628.152 601.605C631.827 601.605 634.815 598.626 634.815 594.951C634.815 591.277 631.827 588.298 628.152 588.298C624.477 588.298 621.489 591.277 621.489 594.951C621.489 598.626 624.477 601.605 628.152 601.605Z" stroke="white" stroke-width="3.69977"/>
<path d="M194.078 265.019L205.14 236.621" stroke="white" stroke-width="0.710946"/>
<path d="M202.098 267.994L210.495 238.608" stroke="white" stroke-width="0.710946"/>
<path d="M210.31 270.296L215.979 240.145" stroke="white" stroke-width="0.710946"/>
<path d="M218.651 271.908L221.549 241.221" stroke="white" stroke-width="0.710946"/>
<path d="M227.059 272.817L227.164 241.828" stroke="white" stroke-width="0.710946"/>
<path d="M235.47 273.015L232.78 241.961" stroke="white" stroke-width="0.710946"/>
<path d="M243.818 272.503L238.355 241.618" stroke="white" stroke-width="0.710946"/>
<path d="M252.042 271.283L243.847 240.804" stroke="white" stroke-width="0.710946"/>
<path d="M260.078 269.364L249.213 239.523" stroke="white" stroke-width="0.710946"/>
<path d="M267.864 266.763L254.412 237.786" stroke="white" stroke-width="0.710946"/>
<path d="M275.343 263.497L259.407 235.605" stroke="white" stroke-width="0.710946"/>
<path d="M282.457 259.592L264.157 232.997" stroke="white" stroke-width="0.710946"/>
<path d="M289.152 255.078L268.628 229.983" stroke="white" stroke-width="0.710946"/>
<path d="M295.376 249.99L272.784 226.585" stroke="white" stroke-width="0.710946"/>
<path d="M301.083 244.365L276.595 222.829" stroke="white" stroke-width="0.710946"/>
<path d="M306.229 238.246L280.031 218.743" stroke="white" stroke-width="0.710946"/>
<path d="M310.774 231.681L283.067 214.359" stroke="white" stroke-width="0.710946"/>
<path d="M314.685 224.72L285.678 209.71" stroke="white" stroke-width="0.710946"/>
<path d="M317.932 217.414L287.846 204.832" stroke="white" stroke-width="0.710946"/>
<path d="M320.49 209.82L289.554 199.761" stroke="white" stroke-width="0.710946"/>
<path d="M322.338 201.996L290.789 194.536" stroke="white" stroke-width="0.710946"/>
<path d="M323.464 194L291.541 189.197" stroke="white" stroke-width="0.710946"/>
<path d="M323.858 185.895L291.804 183.784" stroke="white" stroke-width="0.710946"/>
<path d="M323.519 177.741L291.577 178.339" stroke="white" stroke-width="0.710946"/>
<path d="M322.448 169.601L290.862 172.904" stroke="white" stroke-width="0.710946"/>
<path d="M320.653 161.537L289.663 167.518" stroke="white" stroke-width="0.710946"/>
<path d="M318.147 153.61L287.99 162.225" stroke="white" stroke-width="0.710946"/>
<path d="M12.2174 403.61L42.6733 402.501" stroke="white" stroke-width="0.710946"/>
<path d="M12.667 412.152L42.9736 408.205" stroke="white" stroke-width="0.710946"/>
<path d="M13.8105 420.603L43.7373 413.849" stroke="white" stroke-width="0.710946"/>
<path d="M15.6394 428.899L44.9585 419.389" stroke="white" stroke-width="0.710946"/>
<path d="M18.1401 436.978L46.6284 424.784" stroke="white" stroke-width="0.710946"/>
<path d="M21.2934 444.778L48.7341 429.992" stroke="white" stroke-width="0.710946"/>
<path d="M25.0754 452.238L51.2598 434.974" stroke="white" stroke-width="0.710946"/>
<path d="M29.4565 459.304L54.1851 439.692" stroke="white" stroke-width="0.710946"/>
<path d="M34.4051 465.92L57.4897 444.11" stroke="white" stroke-width="0.710946"/>
<path d="M39.8814 472.036L61.1465 448.194" stroke="white" stroke-width="0.710946"/>
<path d="M45.846 477.606L65.1296 451.914" stroke="white" stroke-width="0.710946"/>
<path d="M52.2523 482.587L69.4077 455.24" stroke="white" stroke-width="0.710946"/>
<path d="M59.0513 486.943L73.948 458.149" stroke="white" stroke-width="0.710946"/>
<path d="M66.191 490.638L78.7156 460.616" stroke="white" stroke-width="0.710946"/>
<path d="M73.6185 493.646L83.6755 462.625" stroke="white" stroke-width="0.710946"/>
<path d="M81.2755 495.943L88.7886 464.159" stroke="white" stroke-width="0.710946"/>
<path d="M89.1052 497.512L94.0171 465.206" stroke="white" stroke-width="0.710946"/>
<path d="M97.047 498.341L99.3203 465.76" stroke="white" stroke-width="0.710946"/>
<path d="M105.041 498.424L104.658 465.815" stroke="white" stroke-width="0.710946"/>
<path d="M113.027 497.759L109.991 465.372" stroke="white" stroke-width="0.710946"/>
<path d="M120.942 496.353L115.277 464.433" stroke="white" stroke-width="0.710946"/>
<path d="M128.728 494.215L120.476 463.005" stroke="white" stroke-width="0.710946"/>
<path d="M136.325 491.362L125.549 461.1" stroke="white" stroke-width="0.710946"/>
<path d="M143.676 487.817L130.458 458.732" stroke="white" stroke-width="0.710946"/>
<path d="M150.723 483.605L135.164 455.92" stroke="white" stroke-width="0.710946"/>
<path d="M157.415 478.759L139.633 452.684" stroke="white" stroke-width="0.710946"/>
<path d="M163.698 473.315L143.828 449.048" stroke="white" stroke-width="0.710946"/>
<path d="M446.742 13.1655C446.742 13.3987 446.742 20.6372 446.742 26.0197C446.742 29.2066 444.158 31.7897 440.971 31.7897H435.567C435.567 31.7897 435.567 31.7897 435.567 31.7897C435.567 31.7897 427 31.7897 427 32.1622C427 33.3847 427 78.9918 427 95.3257C427 98.5126 429.584 101.071 432.77 101.071H497.216C500.403 101.071 502.986 98.488 502.986 95.301V88.7795M446.742 13.1655C446.742 12.8666 482.971 13.0475 497.276 13.1306C500.448 13.149 502.986 15.7259 502.986 18.8979V34.0245M446.742 13.1655L427 31.7897M443.762 44.4541H469.091M443.762 58.6084H469.091M443.762 71.2728H469.091M443.762 83.5648H469.091M481.01 32.1622L520.866 52.2762M481.01 32.1622L483.99 45.1989M481.01 32.1622L492.929 26.9473" stroke="white" stroke-width="1.5534"/>
<path d="M485.645 82.6549V50.2062H493.51V82.6549H485.645Z" stroke="#0088FF" stroke-width="2.56464"/>
<path d="M500.544 82.6549V58.4008H508.409V82.6549H500.544Z" stroke="#0088FF" stroke-width="2.56464"/>
<path d="M514.698 82.6549V65.8504H522.563V82.6549H514.698Z" stroke="#0088FF" stroke-width="2.56464"/>
<path d="M528.853 82.655V74.0451H536.718V82.655H528.853Z" stroke="#0088FF" stroke-width="2.56464"/>
<path d="M211.03 211.236L246.277 211.236C249.818 211.236 252.689 208.375 252.689 204.834C252.689 190.524 252.689 157.121 252.689 156.186C252.689 155.889 245.845 155.889 245.845 155.889C245.845 155.889 245.845 155.889 245.845 155.889L243.33 155.889C239.789 155.889 236.918 153.019 236.918 149.477C236.918 145.522 236.918 141.172 236.918 141.011M236.918 141.011C236.918 140.783 210.728 140.903 198.338 140.972C194.813 140.992 191.985 143.856 191.985 147.381L191.985 189.679M236.918 141.011L252.689 155.889M239.298 166.006L205.674 166.006M239.298 177.314L205.674 177.314M239.298 187.431L205.674 187.431M239.298 197.251L205.674 197.251M191.985 195.63L191.985 227.172M205.674 211.236L178 211.236" stroke="white" stroke-width="2.04389"/>
<path d="M252.987 196.358L264.726 196.358C268.267 196.358 271.138 193.497 271.138 189.956C271.138 175.645 271.138 142.243 271.138 141.308C271.138 141.011 264.294 141.011 264.294 141.011C264.294 141.011 264.294 141.011 264.294 141.011L261.78 141.011C258.238 141.011 255.367 138.141 255.367 134.599C255.367 130.644 255.367 126.293 255.367 126.132M255.367 126.132C255.367 125.905 229.177 126.025 216.788 126.094C213.263 126.114 210.435 128.977 210.435 132.502L210.435 141.011M255.367 126.132L271.138 141.011" stroke="white" stroke-width="2.04389"/>
<path d="M87.8623 391.545C89.26 391.545 90.4324 392.711 90.4324 394.2C90.4324 395.689 89.26 396.855 87.8623 396.855C86.4647 396.855 85.2922 395.689 85.2922 394.2C85.2922 392.711 86.4647 391.545 87.8623 391.545ZM121.492 394.2C121.492 395.689 120.32 396.855 118.922 396.855C117.524 396.855 116.352 395.689 116.352 394.2C116.352 392.711 117.524 391.545 118.922 391.545C120.32 391.545 121.492 392.711 121.492 394.2ZM137.022 394.2C137.022 395.689 135.85 396.855 134.452 396.855C133.054 396.855 131.882 395.689 131.882 394.2C131.882 392.711 133.054 391.545 134.452 391.545C135.85 391.545 137.022 392.711 137.022 394.2ZM87.8623 407.443C89.26 407.443 90.4324 408.609 90.4324 410.098C90.4324 411.587 89.26 412.753 87.8623 412.753C86.4647 412.753 85.2922 411.587 85.2922 410.098C85.2922 408.609 86.4647 407.443 87.8623 407.443ZM85.2922 425.996C85.2922 424.507 86.4647 423.341 87.8623 423.341C89.26 423.341 90.4324 424.507 90.4324 425.996C90.4324 427.485 89.26 428.651 87.8623 428.651C86.4647 428.651 85.2922 427.485 85.2922 425.996ZM105.962 394.2C105.962 395.689 104.79 396.855 103.392 396.855C101.995 396.855 100.822 395.689 100.822 394.2C100.822 392.711 101.995 391.545 103.392 391.545C104.79 391.545 105.962 392.711 105.962 394.2ZM103.392 412.753C101.995 412.753 100.822 411.587 100.822 410.098C100.822 408.609 101.995 407.443 103.392 407.443C104.79 407.443 105.962 408.609 105.962 410.098C105.962 411.587 104.79 412.753 103.392 412.753ZM103.392 423.341C104.79 423.341 105.962 424.507 105.962 425.996C105.962 427.485 104.79 428.651 103.392 428.651C101.995 428.651 100.822 427.485 100.822 425.996C100.822 424.507 101.995 423.341 103.392 423.341ZM118.922 412.753C117.524 412.753 116.352 411.587 116.352 410.098C116.352 408.609 117.524 407.443 118.922 407.443C120.32 407.443 121.492 408.609 121.492 410.098C121.492 411.587 120.32 412.753 118.922 412.753Z" stroke="white" stroke-width="2"/>
<path d="M97.1021 433.57H80.9063C73.2261 433.57 67 427.344 67 419.664V366.237C67 358.557 73.2261 352.331 80.9063 352.331H141.587C149.267 352.331 155.493 358.557 155.493 366.237V390.775M98.1901 443L119.951 420.877C126.116 413.986 129.018 425.592 133.732 421.965C138.447 418.338 153.317 403.106 153.317 403.106" stroke="white" stroke-width="3"/>
<path d="M88.0352 340V353.011V369.739" stroke="#0088FF" stroke-width="4"/>
<path d="M103.452 340V353.011V369.739" stroke="#0088FF" stroke-width="4"/>
<path d="M119.68 340V353.011V369.739" stroke="#0088FF" stroke-width="4"/>
<path d="M135.909 340V353.011V369.739" stroke="#0088FF" stroke-width="4"/>
<path d="M135.908 400.93H155.493V419.789" stroke="white" stroke-width="3"/>
<path d="M239.827 937.942L239.827 942.846M239.827 908.192L239.827 913.75M239.827 967.365L239.827 974.558M245.711 979.789L266.838 979.789M234.269 979.789L213.193 979.789" stroke="white" stroke-width="2.08163"/>
<path d="M226.096 884L202.289 884C199.368 884 197 886.368 197 889.289L197 902.903C197 905.824 199.368 908.192 202.289 908.192L277.365 908.192C280.286 908.192 282.654 905.824 282.654 902.903L282.654 889.289C282.654 886.368 280.286 884 277.365 884L234.596 884" stroke="white" stroke-width="2.08163"/>
<path d="M213.019 937.615L202.289 937.615C199.368 937.615 197 935.248 197 932.327L197 918.712C197 915.791 199.368 913.423 202.289 913.423L277.365 913.423C280.286 913.423 282.654 915.791 282.654 918.712L282.654 932.327C282.654 935.248 280.286 937.615 277.365 937.615L220.212 937.615" stroke="white" stroke-width="2.08163"/>
<path d="M255.846 891.519L255.846 899.692M264.346 891.192L264.346 899.692" stroke="white" stroke-width="2.08163"/>
<path d="M236.637 891.579L271.131 891.579C272.226 891.579 273.113 892.466 273.113 893.561L273.113 897.978C273.113 899.072 272.226 899.959 271.131 899.959L236.637 899.959C235.543 899.959 234.656 899.072 234.656 897.978L234.656 893.561C234.656 892.466 235.543 891.579 236.637 891.579Z" stroke="white" stroke-width="2.08163"/>
<path d="M229.959 895.769C229.959 896.278 229.547 896.69 229.038 896.69C228.53 896.69 228.117 896.278 228.117 895.769C228.117 895.261 228.53 894.848 229.038 894.848C229.547 894.848 229.959 895.261 229.959 895.769Z" stroke="white" stroke-width="2.08163"/>
<path d="M244.997 979.788C244.997 982.644 242.682 984.959 239.827 984.959C236.971 984.959 234.656 982.644 234.656 979.788C234.656 976.933 236.971 974.618 239.827 974.618C242.682 974.618 244.997 976.933 244.997 979.788Z" stroke="white" stroke-width="2.08163"/>
<path d="M221.846 884L221.846 890.865M215.634 884L215.634 890.865M209.423 884L209.423 890.865" stroke="white" stroke-width="2.08163"/>
<path d="M255.846 919.635L255.846 927.808M264.346 919.308L264.346 927.808" stroke="white" stroke-width="2.08163"/>
<path d="M236.637 919.695L271.131 919.695C272.226 919.695 273.113 920.582 273.113 921.676L273.113 926.093C273.113 927.187 272.226 928.075 271.131 928.075L236.637 928.075C235.543 928.075 234.656 927.187 234.656 926.093L234.656 921.676C234.656 920.582 235.543 919.695 236.637 919.695Z" stroke="white" stroke-width="2.08163"/>
<path d="M229.959 923.885C229.959 924.393 229.547 924.805 229.038 924.805C228.53 924.805 228.117 924.393 228.117 923.885C228.117 923.376 228.53 922.964 229.038 922.964C229.547 922.964 229.959 923.376 229.959 923.885Z" stroke="white" stroke-width="2.08163"/>
<path d="M221.846 912.871L221.846 919.736M215.634 912.871L215.634 919.736M209.423 912.871L209.423 919.736" stroke="white" stroke-width="2.08163"/>
<path d="M260.423 967.038L202.289 967.038C199.368 967.038 197 964.671 197 961.75L197 948.135C197 945.214 199.368 942.846 202.289 942.846L277.365 942.846C280.286 942.846 282.654 945.214 282.654 948.135L282.654 961.75C282.654 964.671 280.286 967.038 277.365 967.038L267.288 967.038" stroke="white" stroke-width="2.08163"/>
<path d="M255.846 949.058L255.846 957.231M264.346 948.731L264.346 957.231" stroke="white" stroke-width="2.08163"/>
<path d="M236.637 949.118L271.131 949.118C272.226 949.118 273.113 950.005 273.113 951.099L273.113 955.516C273.113 956.611 272.226 957.498 271.131 957.498L236.637 957.498C235.543 957.498 234.656 956.611 234.656 955.516L234.656 951.099C234.656 950.005 235.543 949.118 236.637 949.118Z" stroke="white" stroke-width="2.08163"/>
<path d="M229.959 953.308C229.959 953.816 229.547 954.228 229.038 954.228C228.53 954.228 228.117 953.816 228.117 953.308C228.117 952.799 228.53 952.387 229.038 952.387C229.547 952.387 229.959 952.799 229.959 953.308Z" stroke="white" stroke-width="2.08163"/>
<path d="M221.846 942.294L221.846 949.159M215.634 942.294L215.634 949.159M209.423 942.294L209.423 949.159" stroke="white" stroke-width="2.08163"/>
<path d="M66.2292 652.44H126.483" stroke="white" stroke-width="2.61366"/>
<path d="M89.2411 647.322H103.674M66.2292 723.88H126.941" stroke="white" stroke-width="2.61366"/>
<path d="M126.941 710.165V721.716C126.941 732.182 118.457 740.665 107.992 740.665H84.949C74.4837 740.665 66 732.182 66 721.716V653.054V653.054C66 646.949 70.949 642 77.0538 642H113.699V642C121.012 642 126.941 647.929 126.941 655.242V665.061" stroke="white" stroke-width="2.61366"/>
<path d="M101.808 731.659C101.808 733.29 100.279 734.855 98.0744 734.855C95.8702 734.855 94.341 733.29 94.341 731.659C94.341 730.028 95.8702 728.462 98.0744 728.462C100.279 728.462 101.808 730.028 101.808 731.659Z" stroke="white" stroke-width="2.61366"/>
<path d="M105.177 704.638H103.361C98.67 704.638 94.8669 700.835 94.8669 696.144V683.656C94.8669 678.964 98.67 675.161 103.361 675.161H134.942C139.633 675.161 143.436 678.964 143.436 683.656V696.144C143.436 700.835 139.633 704.638 134.942 704.638H111.591" stroke="white" stroke-width="2.61366"/>
<path d="M103.115 674.618V674.618C103.115 671.753 105.438 669.43 108.303 669.43H143.19C147.881 669.43 151.684 673.233 151.684 677.924V691.068C151.684 695.623 147.991 699.316 143.436 699.316V699.316" stroke="white" stroke-width="2.61366"/>
<path d="M105.177 703.593V715.561L112.719 704.177" stroke="white" stroke-width="2.61366"/>
<path d="M100.594 680.688H111.82M137.709 680.688H115.944M100.594 685.397H121.214M137.709 685.397H125.337M100.594 689.491H117.09M120.755 689.491H137.709M100.594 693.789H111.82M100.594 698.497H121.214M115.944 693.789H137.709M125.337 698.497H137.709" stroke="#0088FF" stroke-width="1.30683"/>
<path d="M463.152 1021.41L439.392 1021.41C437.217 1021.41 435.454 1023.18 435.454 1025.35L435.454 1034.65L433.024 1034.63C430.291 1034.61 428.064 1036.82 428.064 1039.55L428.064 1042.87C428.064 1045.52 430.165 1047.7 432.815 1047.79L435.454 1047.88L435.454 1061.11L450.914 1061.11L450.914 1067.4C450.914 1070.12 453.118 1072.32 455.836 1072.32L457.302 1072.32C460.02 1072.32 462.224 1070.12 462.224 1067.4L462.224 1061.11L476.441 1061.11L476.538 1047.88L470.059 1047.75C466.476 1047.68 463.609 1044.76 463.609 1041.17V1041.17C463.609 1037.54 466.555 1034.59 470.191 1034.59L476.538 1034.59L476.538 1025.26C476.538 1023.08 474.769 1021.32 472.591 1021.32L463.152 1021.34" stroke="white" stroke-width="2"/>
<path d="M446.712 1064.81L435.758 1064.81L435.758 1100.88C435.758 1102.5 437.069 1103.81 438.688 1103.82L448.996 1103.84L450.004 1103.84L449.993 1104.85L449.968 1107.27C449.945 1109.45 451.702 1111.23 453.88 1111.23L457.508 1111.24C459.62 1111.24 461.356 1109.58 461.437 1107.47L461.537 1104.83L461.574 1103.87L462.539 1103.87L475.077 1103.9L475.114 1089.46L475.116 1088.46L476.116 1088.47L482.665 1088.48C484.831 1088.49 486.591 1086.74 486.597 1084.57L486.6 1083.12C486.606 1080.95 484.854 1079.19 482.688 1079.19L476.14 1079.17L475.139 1079.17L475.142 1078.17L475.175 1064.96L466.495 1064.86L466.406 1068.37C466.291 1072.92 462.564 1076.55 458.011 1076.54L455.071 1076.53C450.438 1076.53 446.69 1072.76 446.703 1068.13L446.712 1064.81Z" stroke="white" stroke-width="2"/>
<path d="M479.397 1092.37L479.397 1103.63L515.462 1103.63C517.082 1103.63 518.396 1102.32 518.4 1100.7L518.423 1091.32L518.425 1090.31L519.433 1090.32L521.851 1090.35C524.029 1090.37 525.809 1088.61 525.814 1086.43L525.823 1082.81C525.828 1080.7 524.16 1078.96 522.051 1078.88L519.417 1078.78L518.453 1078.74L518.455 1077.78L518.485 1065.24L504.047 1065.2L503.047 1065.2L503.049 1064.2L503.065 1057.65C503.07 1055.48 501.319 1053.72 499.153 1053.72L497.703 1053.71C495.537 1053.71 493.776 1055.46 493.771 1057.63L493.755 1064.18L493.753 1065.18L492.753 1065.17L479.548 1065.14L479.439 1075.44L482.949 1075.52C487.509 1075.64 491.13 1079.42 491.12 1083.97C491.11 1088.59 487.353 1092.39 482.714 1092.38L479.397 1092.37Z" stroke="white" stroke-width="2"/>
<path d="M508.7 1055.87L518.478 1061.47L536.387 1030.16C537.191 1028.76 536.706 1026.96 535.302 1026.16L527.167 1021.48L526.294 1020.97L526.803 1020.1L528.026 1018.02C529.127 1016.14 528.486 1013.72 526.598 1012.64L523.453 1010.83C521.623 1009.77 519.288 1010.36 518.17 1012.15L516.775 1014.39L516.264 1015.2L515.428 1014.72L504.56 1008.47L497.358 1020.99L496.86 1021.85L495.993 1021.35L490.316 1018.09C488.439 1017.01 486.041 1017.65 484.961 1019.53L484.238 1020.79C483.157 1022.67 483.804 1025.06 485.682 1026.14L491.358 1029.41L492.225 1029.91L491.726 1030.77L485.14 1042.22L494.023 1047.43L495.842 1044.43C498.207 1040.52 503.287 1039.26 507.228 1041.53C511.237 1043.83 512.67 1048.98 510.355 1053L508.7 1055.87Z" stroke="#0088FF" stroke-width="2"/>
</svg>
