<svg width="319" height="268" viewBox="0 0 319 268" fill="none" xmlns="http://www.w3.org/2000/svg">
<path d="M109.931 243.98C109.931 243.98 105.104 232.16 105.467 223.754" stroke="#0088FF" stroke-width="0.980791"/>
<path d="M239.248 296.672C192.231 313.34 140.784 289.244 124.337 242.852C107.89 196.46 132.672 145.339 179.689 128.671" stroke="white" stroke-width="4.90395"/>
<path d="M239.248 296.672C192.231 313.34 140.784 289.244 124.337 242.852C107.89 196.46 132.672 145.339 179.689 128.671" stroke="white" stroke-width="4.90395"/>
<path d="M250.168 83.9111C200.732 67.7412 148.869 80.4789 113.271 112.798" stroke="white" stroke-width="0.795285"/>
<path d="M195.781 269.577C181.579 266.477 169.656 258.624 161.356 248.085C150.825 234.711 146.129 217.012 150.013 199.211C156.96 167.382 188.712 147.279 220.935 154.311" stroke="white" stroke-width="4.90395"/>
<path d="M220.935 154.311C188.712 147.279 156.96 167.382 150.013 199.211C146.129 217.012 150.825 234.711 161.356 248.085" stroke="white" stroke-width="4.90395"/>
<path d="M154.755 261.294C127.79 229.947 131.343 182.675 162.69 155.71" stroke="#0088FF" stroke-width="8.82712" stroke-linejoin="round"/>
<path d="M142.968 232.29L97.9608 248.383L101.27 257.716" stroke="#0088FF" stroke-width="0.980791"/>
<path d="M95.2582 271.786C97.1991 277.261 103.211 280.126 108.685 278.185C114.16 276.244 117.025 270.232 115.084 264.758C113.143 259.283 107.131 256.418 101.657 258.359C96.1821 260.3 93.3174 266.311 95.2582 271.786Z" stroke="#0088FF" stroke-width="1.47119"/>
<path d="M98.087 270.783C99.4741 274.696 103.77 276.744 107.683 275.356C111.596 273.969 113.643 269.673 112.256 265.76C110.869 261.848 106.573 259.8 102.66 261.187C98.7472 262.574 96.6998 266.871 98.087 270.783Z" stroke="white" stroke-width="1.47119"/>
<path d="M98.1014 186.408C99.4885 190.321 103.785 192.368 107.697 190.981C111.61 189.594 113.657 185.298 112.27 181.385C110.883 177.472 106.587 175.425 102.674 176.812C98.7616 178.199 96.7142 182.496 98.1014 186.408Z" stroke="white" stroke-width="1.47119"/>
<path d="M100.915 269.738C101.748 272.088 104.329 273.318 106.68 272.485C109.031 271.651 110.261 269.07 109.427 266.72C108.594 264.369 106.013 263.139 103.662 263.972C101.312 264.806 100.082 267.387 100.915 269.738Z" stroke="white" stroke-width="1.47119"/>
<path d="M100.93 185.405C101.763 187.756 104.344 188.986 106.695 188.153C109.046 187.319 110.276 184.738 109.442 182.388C108.609 180.037 106.028 178.807 103.677 179.64C101.326 180.474 100.096 183.055 100.93 185.405Z" stroke="white" stroke-width="1.47119"/>
<path d="M102.744 221.057C103.301 222.627 105.024 223.448 106.594 222.892C108.164 222.335 108.985 220.612 108.428 219.042C107.872 217.473 106.148 216.651 104.579 217.208C103.009 217.764 102.188 219.488 102.744 221.057Z" stroke="#0088FF" stroke-width="1.47119"/>
<path d="M102.499 153.011C103.055 154.581 104.779 155.402 106.349 154.846C107.918 154.289 108.74 152.566 108.183 150.996C107.627 149.427 105.903 148.605 104.333 149.162C102.764 149.718 101.943 151.442 102.499 153.011Z" stroke="white" stroke-width="1.47119"/>
<line y1="-0.245198" x2="21.4939" y2="-0.245198" transform="matrix(0.897729 0.440548 0.622467 -0.782646 266.435 267.983)" stroke="white" stroke-width="0.490395"/>
<line y1="-0.245198" x2="21.6584" y2="-0.245198" transform="matrix(0.90931 0.41612 0.59956 -0.80033 267.894 265.948)" stroke="white" stroke-width="0.490395"/>
<line y1="-0.245198" x2="21.6584" y2="-0.245198" transform="matrix(0.90931 0.41612 0.59956 -0.80033 269.485 263.58)" stroke="white" stroke-width="0.490395"/>
<line y1="-0.245198" x2="21.8385" y2="-0.245198" transform="matrix(0.920059 0.391779 0.575952 -0.817484 270.945 261.546)" stroke="white" stroke-width="0.490395"/>
<line y1="-0.245198" x2="21.8323" y2="-0.245198" transform="matrix(0.932402 0.361424 0.545385 -0.838185 272.404 259.51)" stroke="white" stroke-width="0.490395"/>
<line y1="-0.245198" x2="21.6539" y2="-0.245198" transform="matrix(0.94604 0.324051 0.505998 -0.862535 273.863 257.476)" stroke="white" stroke-width="0.490395"/>
<line y1="-0.245198" x2="22.0818" y2="-0.245198" transform="matrix(0.951858 0.306539 0.486864 -0.873478 275.053 255.024)" stroke="white" stroke-width="0.490395"/>
<line y1="-0.245198" x2="21.8902" y2="-0.245198" transform="matrix(0.954035 0.299695 0.479267 -0.877669 276.378 252.78)" stroke="white" stroke-width="0.490395"/>
<line y1="-0.245198" x2="21.7314" y2="-0.245198" transform="matrix(0.960875 0.276984 0.453577 -0.891217 277.702 250.536)" stroke="white" stroke-width="0.490395"/>
<line y1="-0.245198" x2="21.9947" y2="-0.245198" transform="matrix(0.96749 0.252908 0.425536 -0.904942 278.625 248.208)" stroke="white" stroke-width="0.490395"/>
<line y1="-0.245198" x2="21.8613" y2="-0.245198" transform="matrix(0.973262 0.229698 0.397715 -0.917509 279.548 245.881)" stroke="white" stroke-width="0.490395"/>
<line y1="-0.245198" x2="21.7406" y2="-0.245198" transform="matrix(0.978535 0.206083 0.368621 -0.92958 280.471 243.552)" stroke="white" stroke-width="0.490395"/>
<line y1="-0.245198" x2="21.804" y2="-0.245198" transform="matrix(0.98174 0.190231 0.348648 -0.937254 281.395 241.224)" stroke="white" stroke-width="0.490395"/>
<line y1="-0.245198" x2="21.7047" y2="-0.245198" transform="matrix(0.986097 0.166169 0.317666 -0.948203 282.318 238.896)" stroke="white" stroke-width="0.490395"/>
<line y1="-0.245198" x2="21.7823" y2="-0.245198" transform="matrix(0.988639 0.150308 0.296811 -0.954936 282.84 236.483)" stroke="white" stroke-width="0.490395"/>
<line y1="-0.245198" x2="21.8655" y2="-0.245198" transform="matrix(0.99091 0.134526 0.275727 -0.961236 283.362 234.07)" stroke="white" stroke-width="0.490395"/>
<line y1="-0.245198" x2="21.3882" y2="-0.245198" transform="matrix(0.994121 0.108275 0.239945 -0.970787 284.285 231.742)" stroke="white" stroke-width="0.490395"/>
<line y1="-0.245198" x2="21.7406" y2="-0.245198" transform="matrix(0.996337 0.0855174 0.208234 -0.978079 284.54 229.454)" stroke="white" stroke-width="0.490395"/>
<line y1="-0.245198" x2="21.6981" y2="-0.245198" transform="matrix(0.998153 0.0607453 0.173032 -0.984916 284.795 227.165)" stroke="white" stroke-width="0.490395"/>
<line y1="-0.245198" x2="21.2651" y2="-0.245198" transform="matrix(0.99947 0.0325597 0.132175 -0.991226 285.451 224.961)" stroke="white" stroke-width="0.490395"/>
<line y1="-0.245198" x2="21.3887" y2="-0.245198" transform="matrix(0.999859 0.0168222 0.109022 -0.994039 285.572 222.464)" stroke="white" stroke-width="0.490395"/>
<line y1="-0.245198" x2="21.5176" y2="-0.245198" transform="matrix(0.999999 0.00126513 0.0859168 -0.996302 285.692 219.966)" stroke="white" stroke-width="0.490395"/>
<line y1="-0.245198" x2="21.1218" y2="-0.245198" transform="matrix(0.999599 -0.0283334 0.0414217 -0.999142 285.948 217.678)" stroke="white" stroke-width="0.490395"/>
<line y1="-0.245198" x2="21.2656" y2="-0.245198" transform="matrix(0.999041 -0.0437812 0.0179574 -0.999839 285.801 215.305)" stroke="white" stroke-width="0.490395"/>
<line y1="-0.245198" x2="21.2933" y2="-0.245198" transform="matrix(0.997607 -0.0691379 -0.0208501 -0.999783 285.655 212.932)" stroke="white" stroke-width="0.490395"/>
<line y1="-0.245198" x2="21.0568" y2="-0.245198" transform="matrix(0.995967 -0.0897195 -0.0525595 -0.998618 285.509 210.559)" stroke="white" stroke-width="0.490395"/>
<line y1="-0.245198" x2="20.8305" y2="-0.245198" transform="matrix(0.993852 -0.110718 -0.0850447 -0.996377 285.363 208.185)" stroke="white" stroke-width="0.490395"/>
<line y1="-0.245198" x2="20.8954" y2="-0.245198" transform="matrix(0.990671 -0.136276 -0.124681 -0.992197 284.95 205.936)" stroke="white" stroke-width="0.490395"/>
<line y1="-0.245198" x2="20.9732" y2="-0.245198" transform="matrix(0.986861 -0.161573 -0.163914 -0.986475 284.537 203.687)" stroke="white" stroke-width="0.490395"/>
<line y1="-0.245198" x2="20.7796" y2="-0.245198" transform="matrix(0.983085 -0.183151 -0.197301 -0.980343 284.124 201.438)" stroke="white" stroke-width="0.490395"/>
<line y1="-0.245198" x2="20.6867" y2="-0.245198" transform="matrix(0.980991 -0.194057 -0.214123 -0.976807 283.576 198.981)" stroke="white" stroke-width="0.490395"/>
<line y1="-0.245198" x2="20.5952" y2="-0.245198" transform="matrix(0.978755 -0.205035 -0.231011 -0.972951 283.029 196.523)" stroke="white" stroke-width="0.490395"/>
<line y1="-0.245198" x2="20.6292" y2="-0.245198" transform="matrix(0.970514 -0.241048 -0.285974 -0.958238 282.082 194.522)" stroke="white" stroke-width="0.490395"/>
<line y1="-0.245198" x2="20.7635" y2="-0.245198" transform="matrix(0.964097 -0.26555 -0.322873 -0.946442 281.403 192.397)" stroke="white" stroke-width="0.490395"/>
<line y1="-0.245198" x2="20.911" y2="-0.245198" transform="matrix(0.957161 -0.289556 -0.35853 -0.933518 280.322 190.187)" stroke="white" stroke-width="0.490395"/>
<line y1="-0.245198" x2="20.4252" y2="-0.245198" transform="matrix(0.947078 -0.321003 -0.404363 -0.914599 279.642 188.062)" stroke="white" stroke-width="0.490395"/>
<line y1="-0.245198" x2="23.9198" y2="-0.245198" transform="matrix(0.811183 -0.584792 -0.584792 -0.811183 298.088 154.34)" stroke="white" stroke-width="0.490395"/>
<line y1="-0.245198" x2="24.1297" y2="-0.245198" transform="matrix(0.797276 -0.603616 -0.603616 -0.797276 296.19 152.074)" stroke="white" stroke-width="0.490395"/>
<line y1="-0.245198" x2="23.799" y2="-0.245198" transform="matrix(0.777164 -0.629298 -0.629298 -0.777164 294.581 149.726)" stroke="white" stroke-width="0.490395"/>
<line y1="-0.245198" x2="23.7668" y2="-0.245198" transform="matrix(0.759123 -0.650947 -0.650947 -0.759123 292.683 147.46)" stroke="white" stroke-width="0.490395"/>
<line y1="-0.245198" x2="23.7535" y2="-0.245198" transform="matrix(0.740443 -0.672119 -0.672119 -0.740443 290.786 145.195)" stroke="white" stroke-width="0.490395"/>
<line y1="-0.245198" x2="23.6205" y2="-0.245198" transform="matrix(0.728902 -0.684618 -0.684618 -0.728902 288.888 142.929)" stroke="white" stroke-width="0.490395"/>
<line y1="-0.245198" x2="23.3752" y2="-0.245198" transform="matrix(0.704796 -0.70941 -0.70941 -0.704796 286.99 140.664)" stroke="white" stroke-width="0.490395"/>
<line y1="-0.245198" x2="23.4156" y2="-0.245198" transform="matrix(0.6842 -0.729295 -0.729295 -0.6842 284.886 138.769)" stroke="white" stroke-width="0.490395"/>
<line y1="-0.245198" x2="23.4156" y2="-0.245198" transform="matrix(0.6842 -0.729295 -0.729295 -0.6842 282.412 136.669)" stroke="white" stroke-width="0.490395"/>
<line y1="-0.245198" x2="23.4752" y2="-0.245198" transform="matrix(0.663134 -0.748501 -0.748501 -0.663134 280.308 134.775)" stroke="white" stroke-width="0.490395"/>
<line y1="-0.245198" x2="23.3058" y2="-0.245198" transform="matrix(0.636105 -0.771602 -0.771602 -0.636105 278.204 132.88)" stroke="white" stroke-width="0.490395"/>
<line y1="-0.245198" x2="22.926" y2="-0.245198" transform="matrix(0.601685 -0.798734 -0.798734 -0.601685 276.101 130.985)" stroke="white" stroke-width="0.490395"/>
<line y1="-0.245198" x2="23.2923" y2="-0.245198" transform="matrix(0.585126 -0.810943 -0.810943 -0.585126 273.42 129.256)" stroke="white" stroke-width="0.490395"/>
<line y1="-0.245198" x2="23.0572" y2="-0.245198" transform="matrix(0.57858 -0.815626 -0.815626 -0.57858 271.028 127.445)" stroke="white" stroke-width="0.490395"/>
<line y1="-0.245198" x2="22.7842" y2="-0.245198" transform="matrix(0.556564 -0.830805 -0.830805 -0.556564 268.636 125.633)" stroke="white" stroke-width="0.490395"/>
<line y1="-0.245198" x2="22.9515" y2="-0.245198" transform="matrix(0.532734 -0.846283 -0.846283 -0.532734 266.038 124.192)" stroke="white" stroke-width="0.490395"/>
<line y1="-0.245198" x2="22.7129" y2="-0.245198" transform="matrix(0.50929 -0.860595 -0.860595 -0.50929 263.44 122.752)" stroke="white" stroke-width="0.490395"/>
<line y1="-0.245198" x2="22.4918" y2="-0.245198" transform="matrix(0.484971 -0.874531 -0.874531 -0.484971 260.842 121.311)" stroke="white" stroke-width="0.490395"/>
<line y1="-0.245198" x2="22.4958" y2="-0.245198" transform="matrix(0.468387 -0.883524 -0.883524 -0.468387 258.244 119.87)" stroke="white" stroke-width="0.490395"/>
<line y1="-0.245198" x2="22.3049" y2="-0.245198" transform="matrix(0.442825 -0.896608 -0.896608 -0.442825 255.647 118.43)" stroke="white" stroke-width="0.490395"/>
<line y1="-0.245198" x2="22.3291" y2="-0.245198" transform="matrix(0.425724 -0.904853 -0.904853 -0.425724 252.843 117.36)" stroke="white" stroke-width="0.490395"/>
<line y1="-0.245198" x2="22.3613" y2="-0.245198" transform="matrix(0.408513 -0.912753 -0.912753 -0.408513 250.039 116.29)" stroke="white" stroke-width="0.490395"/>
<line y1="-0.245198" x2="21.7923" y2="-0.245198" transform="matrix(0.379468 -0.925205 -0.925205 -0.379468 247.441 114.85)" stroke="white" stroke-width="0.490395"/>
<line y1="-0.245198" x2="22.0858" y2="-0.245198" transform="matrix(0.353879 -0.935291 -0.935291 -0.353879 244.72 114.069)" stroke="white" stroke-width="0.490395"/>
<line y1="-0.245198" x2="21.9775" y2="-0.245198" transform="matrix(0.325611 -0.945504 -0.945504 -0.325611 241.999 113.288)" stroke="white" stroke-width="0.490395"/>
<line y1="-0.245198" x2="21.4739" y2="-0.245198" transform="matrix(0.292946 -0.956129 -0.956129 -0.292946 239.484 112.135)" stroke="white" stroke-width="0.490395"/>
<line y1="-0.245198" x2="21.5659" y2="-0.245198" transform="matrix(0.274487 -0.961591 -0.961591 -0.274487 236.474 111.437)" stroke="white" stroke-width="0.490395"/>
<line y1="-0.245198" x2="21.6659" y2="-0.245198" transform="matrix(0.25609 -0.966653 -0.966653 -0.25609 233.465 110.739)" stroke="white" stroke-width="0.490395"/>
<line y1="-0.245198" x2="21.2187" y2="-0.245198" transform="matrix(0.220703 -0.975341 -0.975341 -0.220703 230.744 109.958)" stroke="white" stroke-width="0.490395"/>
<line y1="-0.245198" x2="21.3414" y2="-0.245198" transform="matrix(0.202044 -0.979377 -0.979377 -0.202044 227.817 109.548)" stroke="white" stroke-width="0.490395"/>
<line y1="-0.245198" x2="21.3393" y2="-0.245198" transform="matrix(0.171154 -0.985244 -0.985244 -0.171154 224.89 109.138)" stroke="white" stroke-width="0.490395"/>
<line y1="-0.245198" x2="21.0846" y2="-0.245198" transform="matrix(0.145859 -0.989306 -0.989306 -0.145859 221.963 108.728)" stroke="white" stroke-width="0.490395"/>
<line y1="-0.245198" x2="20.844" y2="-0.245198" transform="matrix(0.119863 -0.992791 -0.992791 -0.119863 219.037 108.318)" stroke="white" stroke-width="0.490395"/>
<line y1="-0.245198" x2="20.898" y2="-0.245198" transform="matrix(0.0879912 -0.996121 -0.996121 -0.0879912 216.192 108.196)" stroke="white" stroke-width="0.490395"/>
<line y1="-0.245198" x2="20.9732" y2="-0.245198" transform="matrix(0.0562261 -0.998418 -0.998418 -0.0562261 213.348 108.075)" stroke="white" stroke-width="0.490395"/>
<line y1="-0.245198" x2="20.7835" y2="-0.245198" transform="matrix(0.0289801 -0.99958 -0.99958 -0.0289801 210.504 107.953)" stroke="white" stroke-width="0.490395"/>
<line y1="-0.245198" x2="20.6945" y2="-0.245198" transform="matrix(0.0151653 -0.999885 -0.999885 -0.0151653 207.371 107.915)" stroke="white" stroke-width="0.490395"/>
<line y1="-0.245198" x2="20.6094" y2="-0.245198" transform="matrix(0.00123101 -0.999999 -0.999999 -0.00123101 204.239 107.876)" stroke="white" stroke-width="0.490395"/>
<line y1="-0.245198" x2="20.6705" y2="-0.245198" transform="matrix(-0.0446382 -0.999004 -0.999004 0.0446382 201.56 108.331)" stroke="white" stroke-width="0.490395"/>
<line y1="-0.245198" x2="20.8332" y2="-0.245198" transform="matrix(-0.0759503 -0.997112 -0.997112 0.0759503 198.798 108.498)" stroke="white" stroke-width="0.490395"/>
<line y1="-0.245198" x2="21.0161" y2="-0.245198" transform="matrix(-0.106675 -0.994294 -0.994294 0.106675 195.831 109.037)" stroke="white" stroke-width="0.490395"/>
<line y1="-0.245198" x2="20.5832" y2="-0.245198" transform="matrix(-0.146947 -0.989145 -0.989145 0.146947 193.069 109.203)" stroke="white" stroke-width="0.490395"/>
<path d="M226.918 265.067C255.118 255.069 269.876 224.108 259.881 195.914C249.885 167.719 218.921 152.968 190.721 162.965C174.346 168.77 162.504 181.643 157.408 196.938" stroke="white" stroke-width="3.18114"/>
<path d="M199.342 262.03C225.545 266.877 250.721 249.544 255.572 223.315C260.424 197.087 243.114 171.895 216.911 167.048C201.696 164.234 186.827 168.897 176.083 178.438" stroke="#0088FF" stroke-width="2.94237"/>
<path d="M191.698 286.426C231.38 293.767 269.468 267.719 276.769 228.247C284.07 188.776 257.82 150.828 218.138 143.487C195.096 139.225 172.593 146.22 156.341 160.563" stroke="#0088FF" stroke-width="2.94237"/>
<path d="M186.573 151.383C153.186 163.219 135.724 199.906 147.572 233.325C159.42 266.745 196.09 284.241 229.477 272.404C248.864 265.532 262.881 250.28 268.908 232.156" stroke="white" stroke-width="1.59057"/>
<path d="M252.297 319.109L244.66 321.816L239.647 307.674M239.647 307.674L225.81 268.644C225.81 268.644 214.507 273.566 201.024 271.638M239.647 307.674C239.647 307.674 236.878 309.293 232.375 309.615" stroke="#0088FF" stroke-width="0.980791"/>
<path d="M179.755 264.913L162.28 301.832C162.28 301.832 166.046 305.272 172.806 306.378" stroke="white" stroke-width="0.980791"/>
<path d="M162.64 250.764L131.934 278.205L135.66 281.978" stroke="white" stroke-width="0.980791"/>
<path d="M152.814 188.024L111.096 168.237M104.113 154.827L99.9965 162.972L111.096 168.237M111.096 168.237L107.989 176.535" stroke="white" stroke-width="0.980791"/>
<path d="M191.004 149.812L180.777 120.963M160.884 107.958L174.46 103.145L180.777 120.963M180.777 120.963C180.777 120.963 188.861 116.824 193.257 118.449" stroke="#0088FF" stroke-width="0.980791"/>
<path d="M236.476 165.369L250.607 134.73C250.607 134.73 258.259 137.907 265.51 144.888" stroke="white" stroke-width="0.980791"/>
<path d="M264.061 154.316C265.891 159.478 271.56 162.18 276.722 160.35C281.884 158.519 284.586 152.851 282.756 147.689C280.925 142.526 275.257 139.825 270.095 141.655C264.932 143.485 262.231 149.154 264.061 154.316Z" stroke="white" stroke-width="1.47119"/>
<path d="M144.041 113.928C145.677 118.544 150.745 120.959 155.361 119.323C159.976 117.686 162.392 112.618 160.755 108.003C159.119 103.387 154.051 100.972 149.435 102.608C144.82 104.245 142.404 109.313 144.041 113.928Z" stroke="#0088FF" stroke-width="1.47119"/>
<path d="M193.704 120.2C194.786 123.254 198.139 124.852 201.193 123.769C204.246 122.687 205.844 119.334 204.762 116.28C203.679 113.227 200.326 111.629 197.273 112.711C194.219 113.794 192.621 117.147 193.704 120.2Z" stroke="#0088FF" stroke-width="1.47119"/>
<path d="M195.305 32C199.846 49.9965 189.132 68.218 171.375 72.6989C153.618 77.1797 135.541 66.2231 131 48.2266" stroke="white" stroke-width="1.59057"/>
<path d="M55.4068 191.556C62.1236 195.809 67.0448 202.763 68.4133 211.17C70.0306 221.105 66.2991 230.69 59.3154 237.05" stroke="white" stroke-width="1.59057"/>
<path d="M68.9999 214.5L147 210" stroke="white" stroke-width="1.59057"/>
<path d="M258.5 189L332.5 150.5" stroke="white" stroke-width="1.59057"/>
<path d="M198 154.5L173 72.5" stroke="white" stroke-width="1.59057"/>
<path d="M77.5 156.5L125.5 179" stroke="white" stroke-width="1.59057"/>
<path d="M106 105L148.336 147.791M247 69.5001L217.5 154.5" stroke="white" stroke-width="1.59057"/>
<path d="M208.185 185.703V171.329" stroke="white" stroke-width="0.980791"/>
<path d="M208.185 257.862V243.487" stroke="white" stroke-width="0.980791"/>
<path d="M205.668 185.813L204.416 171.494" stroke="white" stroke-width="0.980791"/>
<path d="M211.956 257.697L210.703 243.377" stroke="white" stroke-width="0.980791"/>
<path d="M203.169 186.142L200.673 171.987" stroke="white" stroke-width="0.980791"/>
<path d="M215.699 257.204L213.203 243.048" stroke="white" stroke-width="0.980791"/>
<path d="M200.708 186.688L196.988 172.804" stroke="white" stroke-width="0.980791"/>
<path d="M219.384 256.387L215.663 242.503" stroke="white" stroke-width="0.980791"/>
<path d="M198.304 187.445L193.388 173.938" stroke="white" stroke-width="0.980791"/>
<path d="M222.983 255.252L218.067 241.745" stroke="white" stroke-width="0.980791"/>
<path d="M195.975 188.41L189.901 175.383" stroke="white" stroke-width="0.980791"/>
<path d="M226.471 253.808L220.396 240.781" stroke="white" stroke-width="0.980791"/>
<path d="M193.74 189.574L186.553 177.126" stroke="white" stroke-width="0.980791"/>
<path d="M229.819 252.065L222.632 239.616" stroke="white" stroke-width="0.980791"/>
<path d="M191.614 190.928L183.369 179.154" stroke="white" stroke-width="0.980791"/>
<path d="M233.002 250.036L224.758 238.262" stroke="white" stroke-width="0.980791"/>
<path d="M189.615 192.462L180.376 181.451" stroke="white" stroke-width="0.980791"/>
<path d="M235.996 247.739L226.757 236.728" stroke="white" stroke-width="0.980791"/>
<path d="M187.757 194.164L177.593 184" stroke="white" stroke-width="0.980791"/>
<path d="M238.779 245.189L228.615 235.025" stroke="white" stroke-width="0.980791"/>
<path d="M186.054 196.023L175.043 186.783" stroke="white" stroke-width="0.980791"/>
<path d="M241.329 242.406L230.318 233.167" stroke="white" stroke-width="0.980791"/>
<path d="M184.519 198.024L172.744 189.779" stroke="white" stroke-width="0.980791"/>
<path d="M243.627 239.411L231.853 231.167" stroke="white" stroke-width="0.980791"/>
<path d="M183.165 200.149L170.716 192.962" stroke="white" stroke-width="0.980791"/>
<path d="M245.655 236.228L233.207 229.041" stroke="white" stroke-width="0.980791"/>
<path d="M182.001 202.385L168.973 196.31" stroke="white" stroke-width="0.980791"/>
<path d="M247.398 232.88L234.37 226.805" stroke="white" stroke-width="0.980791"/>
<path d="M181.036 204.714L167.529 199.797" stroke="white" stroke-width="0.980791"/>
<path d="M248.842 229.393L235.335 224.477" stroke="white" stroke-width="0.980791"/>
<path d="M180.278 207.117L166.394 203.397" stroke="white" stroke-width="0.980791"/>
<path d="M249.978 225.793L236.093 222.073" stroke="white" stroke-width="0.980791"/>
<path d="M179.733 209.578L165.577 207.082" stroke="white" stroke-width="0.980791"/>
<path d="M250.794 222.108L236.638 219.612" stroke="white" stroke-width="0.980791"/>
<path d="M179.404 212.077L165.084 210.824" stroke="white" stroke-width="0.980791"/>
<path d="M251.287 218.366L236.968 217.113" stroke="white" stroke-width="0.980791"/>
<path d="M179.294 214.595H164.92" stroke="white" stroke-width="0.980791"/>
<path d="M251.451 214.595H237.077" stroke="white" stroke-width="0.980791"/>
<path d="M179.404 217.112L165.084 218.365" stroke="white" stroke-width="0.980791"/>
<path d="M251.287 210.824L236.968 212.077" stroke="white" stroke-width="0.980791"/>
<path d="M179.733 219.612L165.577 222.108" stroke="white" stroke-width="0.980791"/>
<path d="M250.794 207.082L236.638 209.578" stroke="white" stroke-width="0.980791"/>
<path d="M180.278 222.073L166.394 225.793" stroke="white" stroke-width="0.980791"/>
<path d="M249.978 203.397L236.093 207.117" stroke="white" stroke-width="0.980791"/>
<path d="M181.036 224.477L167.529 229.393" stroke="white" stroke-width="0.980791"/>
<path d="M248.842 199.798L235.335 204.714" stroke="white" stroke-width="0.980791"/>
<path d="M182.001 226.806L168.973 232.88" stroke="white" stroke-width="0.980791"/>
<path d="M247.398 196.31L234.37 202.385" stroke="white" stroke-width="0.980791"/>
<path d="M183.164 229.041L170.716 236.228" stroke="white" stroke-width="0.980791"/>
<path d="M245.655 192.962L233.207 200.149" stroke="white" stroke-width="0.980791"/>
<path d="M184.518 231.166L172.744 239.411" stroke="white" stroke-width="0.980791"/>
<path d="M243.627 189.779L231.853 198.023" stroke="white" stroke-width="0.980791"/>
<path d="M186.053 233.166L175.042 242.406" stroke="white" stroke-width="0.980791"/>
<path d="M241.33 186.784L230.318 196.024" stroke="white" stroke-width="0.980791"/>
<path d="M187.756 235.025L177.592 245.189" stroke="white" stroke-width="0.980791"/>
<path d="M238.779 184.002L228.615 194.166" stroke="white" stroke-width="0.980791"/>
<path d="M189.614 236.728L180.375 247.739" stroke="white" stroke-width="0.980791"/>
<path d="M235.997 181.452L226.757 192.463" stroke="white" stroke-width="0.980791"/>
<path d="M191.614 238.262L183.369 250.036" stroke="white" stroke-width="0.980791"/>
<path d="M233.002 179.154L224.758 190.928" stroke="white" stroke-width="0.980791"/>
<path d="M193.738 239.616L186.551 252.064" stroke="white" stroke-width="0.980791"/>
<path d="M229.819 177.126L222.632 189.574" stroke="white" stroke-width="0.980791"/>
<path d="M195.975 240.78L189.9 253.807" stroke="white" stroke-width="0.980791"/>
<path d="M226.471 175.383L220.396 188.41" stroke="white" stroke-width="0.980791"/>
<path d="M198.303 241.745L193.387 255.252" stroke="white" stroke-width="0.980791"/>
<path d="M222.983 173.939L218.067 187.446" stroke="white" stroke-width="0.980791"/>
<path d="M200.708 242.503L196.988 256.387" stroke="white" stroke-width="0.980791"/>
<path d="M219.383 172.804L215.663 186.688" stroke="white" stroke-width="0.980791"/>
<path d="M203.168 243.048L200.672 257.204" stroke="white" stroke-width="0.980791"/>
<path d="M215.699 171.987L213.203 186.142" stroke="white" stroke-width="0.980791"/>
<path d="M205.668 243.377L204.415 257.697" stroke="white" stroke-width="0.980791"/>
<path d="M211.956 171.494L210.704 185.813" stroke="white" stroke-width="0.980791"/>
<path d="M219.314 39.2975C223.914 61.2644 245.213 75.3929 266.888 70.8545C278.373 68.4497 285.575 61.9477 291.084 52.4758" stroke="white" stroke-width="1.19293"/>
<path d="M119.075 87.4929C111.365 108.252 88.0586 118.747 67.0196 110.933" stroke="white" stroke-width="1.19293"/>
<path d="M78.6982 125.614C86.1931 146.452 75.1487 169.502 54.0299 177.098" stroke="white" stroke-width="1.19293"/>
<path d="M195.264 201.59V227.379C195.264 228.796 196.413 229.946 197.831 229.946C199.249 229.946 200.398 228.796 200.398 227.379V217.544H216.13V218.532C216.13 219.995 217.316 221.181 218.779 221.181C220.243 221.181 221.429 219.995 221.429 218.532V201.673C221.429 200.21 220.243 199.023 218.779 199.023C217.316 199.023 216.13 200.21 216.13 201.673V212.087H200.398V201.59C200.398 200.173 199.249 199.023 197.831 199.023C196.413 199.023 195.264 200.173 195.264 201.59Z" stroke="white" stroke-width="1.47119"/>
<path d="M218.779 229.946C220.241 229.946 221.429 228.761 221.429 227.3C221.429 225.839 220.241 224.654 218.779 224.654C217.318 224.654 216.13 225.839 216.13 227.3C216.13 228.761 217.318 229.946 218.779 229.946Z" stroke="white" stroke-width="1.47119"/>
<path d="M66.1734 107.105L70.572 95.8128" stroke="white" stroke-width="0.282702"/>
<path d="M69.3622 108.288L72.7014 96.6027" stroke="white" stroke-width="0.282702"/>
<path d="M72.6279 109.203L74.8823 97.214" stroke="white" stroke-width="0.282702"/>
<path d="M75.9445 109.844L77.0969 97.6422" stroke="white" stroke-width="0.282702"/>
<path d="M79.2882 110.206L79.3298 97.8832" stroke="white" stroke-width="0.282702"/>
<path d="M82.6324 110.285L81.563 97.9362" stroke="white" stroke-width="0.282702"/>
<path d="M85.9521 110.081L83.7798 97.7997" stroke="white" stroke-width="0.282702"/>
<path d="M89.2221 109.596L85.9634 97.476" stroke="white" stroke-width="0.282702"/>
<path d="M92.4175 108.833L88.0972 96.9666" stroke="white" stroke-width="0.282702"/>
<path d="M95.5138 107.799L90.1648 96.276" stroke="white" stroke-width="0.282702"/>
<path d="M98.4879 106.5L92.1509 95.4085" stroke="white" stroke-width="0.282702"/>
<path d="M101.317 104.947L94.0398 94.3716" stroke="white" stroke-width="0.282702"/>
<path d="M103.979 103.152L95.8174 93.173" stroke="white" stroke-width="0.282702"/>
<path d="M106.454 101.128L97.4702 91.8217" stroke="white" stroke-width="0.282702"/>
<path d="M108.723 98.892L98.9856 90.3284" stroke="white" stroke-width="0.282702"/>
<path d="M110.769 96.459L100.352 88.7037" stroke="white" stroke-width="0.282702"/>
<path d="M112.577 93.8485L101.559 86.9604" stroke="white" stroke-width="0.282702"/>
<path d="M114.132 91.0804L102.597 85.1121" stroke="white" stroke-width="0.282702"/>
<path d="M115.423 88.1752L103.459 83.172" stroke="white" stroke-width="0.282702"/>
<path d="M116.44 85.1553L104.139 81.1553" stroke="white" stroke-width="0.282702"/>
<path d="M117.175 82.0442L104.63 79.0779" stroke="white" stroke-width="0.282702"/>
<path d="M117.623 78.8648L104.928 76.9547" stroke="white" stroke-width="0.282702"/>
<path d="M117.779 75.6419L105.033 74.8026" stroke="white" stroke-width="0.282702"/>
<path d="M117.644 72.3996L104.943 72.6374" stroke="white" stroke-width="0.282702"/>
<path d="M117.219 69.1628L104.659 70.476" stroke="white" stroke-width="0.282702"/>
<path d="M116.505 65.956L104.182 68.3345" stroke="white" stroke-width="0.282702"/>
<path d="M115.508 62.8041L103.517 66.2299" stroke="white" stroke-width="0.282702"/>
<path d="M4.8582 138.231L16.9688 137.79" stroke="white" stroke-width="0.282702"/>
<path d="M5.03692 141.627L17.0881 140.058" stroke="white" stroke-width="0.282702"/>
<path d="M5.49169 144.988L17.3918 142.302" stroke="white" stroke-width="0.282702"/>
<path d="M6.21867 148.287L17.8772 144.505" stroke="white" stroke-width="0.282702"/>
<path d="M7.21308 151.5L18.5413 146.65" stroke="white" stroke-width="0.282702"/>
<path d="M8.46681 154.601L19.3784 148.721" stroke="white" stroke-width="0.282702"/>
<path d="M9.97106 157.567L20.3831 150.702" stroke="white" stroke-width="0.282702"/>
<path d="M11.713 160.377L21.5461 152.578" stroke="white" stroke-width="0.282702"/>
<path d="M13.6807 163.008L22.8601 154.335" stroke="white" stroke-width="0.282702"/>
<path d="M15.8583 165.44L24.3142 155.959" stroke="white" stroke-width="0.282702"/>
<path d="M18.2302 167.655L25.8982 157.438" stroke="white" stroke-width="0.282702"/>
<path d="M20.7774 169.636L27.5991 158.761" stroke="white" stroke-width="0.282702"/>
<path d="M23.4812 171.367L29.4048 159.918" stroke="white" stroke-width="0.282702"/>
<path d="M26.3203 172.836L31.3005 160.898" stroke="white" stroke-width="0.282702"/>
<path d="M29.2738 174.033L33.2729 161.697" stroke="white" stroke-width="0.282702"/>
<path d="M32.3186 174.946L35.3062 162.307" stroke="white" stroke-width="0.282702"/>
<path d="M35.4321 175.57L37.3853 162.724" stroke="white" stroke-width="0.282702"/>
<path d="M38.5899 175.9L39.4939 162.944" stroke="white" stroke-width="0.282702"/>
<path d="M41.7686 175.933L41.6165 162.966" stroke="white" stroke-width="0.282702"/>
<path d="M44.9443 175.669L43.7373 162.79" stroke="white" stroke-width="0.282702"/>
<path d="M48.0919 175.109L45.8391 162.416" stroke="white" stroke-width="0.282702"/>
<path d="M51.1876 174.259L47.9062 161.849" stroke="white" stroke-width="0.282702"/>
<path d="M54.2086 173.125L49.9236 161.091" stroke="white" stroke-width="0.282702"/>
<path d="M57.1317 171.715L51.8757 160.15" stroke="white" stroke-width="0.282702"/>
<path d="M59.9336 170.04L53.7466 159.031" stroke="white" stroke-width="0.282702"/>
<path d="M62.5946 168.113L55.5237 157.744" stroke="white" stroke-width="0.282702"/>
<path d="M65.0929 165.948L57.1919 156.299" stroke="white" stroke-width="0.282702"/>
<path d="M245.85 22.0658C245.85 22.1585 245.85 25.0369 245.85 27.1772C245.85 28.4444 244.823 29.4716 243.556 29.4716H241.407C241.407 29.4716 241.407 29.4716 241.407 29.4716C241.407 29.4716 238 29.4716 238 29.6197C238 30.1058 238 48.2411 238 54.7362C238 56.0034 239.027 57.0209 240.295 57.0209H265.921C267.188 57.0209 268.215 55.9936 268.215 54.7264V52.1331M245.85 22.0658C245.85 21.947 260.256 22.0189 265.945 22.0519C267.206 22.0593 268.215 23.0839 268.215 24.3453V30.3602M245.85 22.0658L238 29.4716M244.665 34.5075H254.737M244.665 40.1358H254.737M244.665 45.1717H254.737M244.665 50.0595H254.737M259.477 29.6197L275.325 37.6179M259.477 29.6197L260.662 34.8037M259.477 29.6197L264.216 27.546" stroke="white" stroke-width="0.617696"/>
<path d="M261.32 49.6978V36.7948H264.447V49.6978H261.32Z" stroke="#0088FF" stroke-width="1.01981"/>
<path d="M267.244 49.6979V40.0535H270.372V49.6979H267.244Z" stroke="#0088FF" stroke-width="1.01981"/>
<path d="M272.872 49.6982V43.016H276V49.6982H272.872Z" stroke="#0088FF" stroke-width="1.01981"/>
<path d="M278.501 50.0422V46.6185H281.629V50.0422H278.501Z" stroke="#0088FF" stroke-width="1.01981"/>
<path d="M73.134 85.8936L87.1496 85.8936C88.5579 85.8936 89.6995 84.7561 89.6995 83.3479C89.6995 77.6575 89.6995 64.3751 89.6995 64.0035C89.6995 63.8852 86.978 63.8852 86.978 63.8852C86.978 63.8852 86.978 63.8852 86.978 63.8852L85.9781 63.8852C84.5698 63.8852 83.4282 62.744 83.4282 61.3358C83.4282 59.7631 83.4282 58.0331 83.4282 57.969M83.4282 57.969C83.4282 57.8786 73.0141 57.9262 68.0873 57.9538C66.6857 57.9617 65.5612 59.1003 65.5612 60.502L65.5612 77.3217M83.4282 57.969L89.6995 63.8852M84.3748 67.9082L71.0041 67.9082M84.3748 72.4046L71.0041 72.4046M84.3748 76.4276L71.0041 76.4276M84.3748 80.3324L71.0041 80.3324M65.5612 79.6882L65.5612 92.2306M71.0041 85.8936L59.9999 85.8936" stroke="white" stroke-width="0.812736"/>
<path d="M89.8178 79.9773L94.4858 79.9773C95.8941 79.9773 97.0356 78.8397 97.0356 77.4315C97.0356 71.7411 97.0356 58.4588 97.0356 58.0872C97.0356 57.9688 94.3142 57.9688 94.3142 57.9688C94.3142 57.9688 94.3142 57.9688 94.3142 57.9688L93.3142 57.9688C91.906 57.9688 90.7644 56.8276 90.7644 55.4194C90.7644 53.8467 90.7644 52.1167 90.7644 52.0526M90.7644 52.0526C90.7644 51.9623 80.3503 52.0099 75.4235 52.0374C74.0219 52.0453 72.8974 53.1839 72.8974 54.5856L72.8974 57.9688M90.7644 52.0526L97.0356 57.9688" stroke="white" stroke-width="0.812736"/>
<path d="M35.4196 132.398C35.9754 132.398 36.4416 132.861 36.4416 133.453C36.4416 134.045 35.9754 134.509 35.4196 134.509C34.8638 134.509 34.3976 134.045 34.3976 133.453C34.3976 132.861 34.8638 132.398 35.4196 132.398ZM48.7923 133.453C48.7923 134.045 48.3261 134.509 47.7703 134.509C47.2145 134.509 46.7483 134.045 46.7483 133.453C46.7483 132.861 47.2145 132.398 47.7703 132.398C48.3261 132.398 48.7923 132.861 48.7923 133.453ZM54.9676 133.453C54.9676 134.045 54.5014 134.509 53.9457 134.509C53.3899 134.509 52.9237 134.045 52.9237 133.453C52.9237 132.861 53.3899 132.398 53.9457 132.398C54.5014 132.398 54.9676 132.861 54.9676 133.453ZM35.4196 138.719C35.9754 138.719 36.4416 139.183 36.4416 139.775C36.4416 140.367 35.9754 140.831 35.4196 140.831C34.8638 140.831 34.3976 140.367 34.3976 139.775C34.3976 139.183 34.8638 138.719 35.4196 138.719ZM34.3976 146.097C34.3976 145.505 34.8638 145.041 35.4196 145.041C35.9754 145.041 36.4416 145.505 36.4416 146.097C36.4416 146.689 35.9754 147.152 35.4196 147.152C34.8638 147.152 34.3976 146.689 34.3976 146.097ZM42.6169 133.453C42.6169 134.045 42.1507 134.509 41.595 134.509C41.0392 134.509 40.573 134.045 40.573 133.453C40.573 132.861 41.0392 132.398 41.595 132.398C42.1507 132.398 42.6169 132.861 42.6169 133.453ZM41.595 140.831C41.0392 140.831 40.573 140.367 40.573 139.775C40.573 139.183 41.0392 138.719 41.595 138.719C42.1507 138.719 42.6169 139.183 42.6169 139.775C42.6169 140.367 42.1507 140.831 41.595 140.831ZM41.595 145.041C42.1507 145.041 42.6169 145.505 42.6169 146.097C42.6169 146.689 42.1507 147.152 41.595 147.152C41.0392 147.152 40.573 146.689 40.573 146.097C40.573 145.505 41.0392 145.041 41.595 145.041ZM47.7703 140.831C47.2145 140.831 46.7483 140.367 46.7483 139.775C46.7483 139.183 47.2145 138.719 47.7703 138.719C48.3261 138.719 48.7923 139.183 48.7923 139.775C48.7923 140.367 48.3261 140.831 47.7703 140.831Z" stroke="white" stroke-width="0.795285"/>
<path d="M38.9699 154.208H32.5297C29.4757 154.208 27 151.732 27 148.678V127.433C27 124.379 29.4758 121.903 32.5297 121.903H56.6588C59.7128 121.903 62.1885 124.379 62.1885 127.433V137.19M39.4025 157.957L48.0554 149.16C50.5071 146.42 51.6608 151.035 53.5356 149.593C55.4104 148.151 61.3232 142.093 61.3232 142.093" stroke="white" stroke-width="1.19293"/>
<path d="M35.3643 117V122.174V128.826" stroke="#0088FF" stroke-width="1.59057"/>
<path d="M41.4946 117V122.174V128.826" stroke="#0088FF" stroke-width="1.59057"/>
<path d="M47.9478 117V122.174V128.826" stroke="#0088FF" stroke-width="1.59057"/>
<path d="M54.4011 117V122.174V128.826" stroke="#0088FF" stroke-width="1.59057"/>
<path d="M54.4009 141.228H62.1885V148.727" stroke="white" stroke-width="1.19293"/>
<path d="M149.091 26.1511H173.05" stroke="white" stroke-width="1.0393"/>
<path d="M158.242 24.1162H163.981M149.091 54.5589H173.233" stroke="white" stroke-width="1.0393"/>
<path d="M173.233 49.1053V53.6986C173.233 57.8601 169.859 61.2336 165.698 61.2336H156.535C152.373 61.2336 149 57.8601 149 53.6986V26.3955V26.3955C149 23.9679 150.968 22 153.395 22H167.967V22C170.875 22 173.233 24.3574 173.233 27.2655V31.17" stroke="white" stroke-width="1.0393"/>
<path d="M163.239 57.6519C163.239 58.3005 162.63 58.923 161.754 58.923C160.877 58.923 160.269 58.3005 160.269 57.6519C160.269 57.0034 160.877 56.3809 161.754 56.3809C162.63 56.3809 163.239 57.0034 163.239 57.6519Z" stroke="white" stroke-width="1.0393"/>
<path d="M164.578 46.9075H163.856C161.991 46.9075 160.479 45.3953 160.479 43.5298V38.564C160.479 36.6985 161.991 35.1863 163.856 35.1863H176.414C178.28 35.1863 179.792 36.6985 179.792 38.564V43.5298C179.792 45.3952 178.28 46.9075 176.414 46.9075H167.129" stroke="white" stroke-width="1.0393"/>
<path d="M163.758 34.9703V34.9703C163.758 33.8308 164.682 32.9071 165.821 32.9071H179.694C181.559 32.9071 183.071 34.4194 183.071 36.2848V41.5115C183.071 43.3228 181.603 44.7911 179.792 44.7911V44.7911" stroke="white" stroke-width="1.0393"/>
<path d="M164.578 46.4918V51.2509L167.577 46.724" stroke="white" stroke-width="1.0393"/>
<path d="M162.756 37.384H167.22M177.514 37.384H168.86M162.756 39.2562H170.955M177.514 39.2562H172.595M162.756 40.8841H169.315M170.773 40.8841H177.514M162.756 42.5935H167.22M162.756 44.4656H170.955M168.86 42.5935H177.514M172.595 44.4656H177.514" stroke="#0088FF" stroke-width="0.51965"/>
<path d="M27.9778 203.503L18.5298 203.503C17.6651 203.503 16.9641 204.204 16.9641 205.069L16.9641 208.765L15.9978 208.758C14.911 208.75 14.0255 209.628 14.0255 210.715L14.0255 212.035C14.0255 213.09 14.8607 213.955 15.9145 213.991L16.964 214.028L16.964 219.289L23.1116 219.289L23.1116 221.789C23.1116 222.87 23.9879 223.746 25.0688 223.746L25.6516 223.746C26.7326 223.746 27.6088 222.87 27.6088 221.789L27.6088 219.289L33.2621 219.289L33.3008 214.028L30.7246 213.977C29.2997 213.948 28.1595 212.785 28.1595 211.36V211.36C28.1595 209.914 29.3313 208.743 30.7768 208.743L33.3008 208.743L33.3008 205.032C33.3008 204.166 32.5974 203.465 31.7312 203.467L27.9778 203.476" stroke="white" stroke-width="0.795285"/>
<path d="M21.441 220.761L17.0849 220.761L17.0849 235.102C17.0849 235.746 17.6063 236.268 18.2504 236.27L22.3489 236.279L22.7498 236.28L22.7456 236.681L22.7356 237.643C22.7265 238.509 23.4251 239.216 24.2913 239.218L25.7339 239.222C26.5734 239.224 27.2639 238.561 27.296 237.722L27.336 236.675L27.3507 236.291L27.7343 236.292L32.7201 236.304L32.7345 230.563L32.7355 230.165L33.1331 230.166L35.7375 230.172C36.5987 230.174 37.2986 229.478 37.3007 228.617L37.3022 228.04C37.3043 227.179 36.6077 226.479 35.7464 226.477L33.1425 226.471L32.7448 226.47L32.7458 226.072L32.7589 220.82L29.3074 220.778L29.2721 222.174C29.2264 223.984 27.7442 225.427 25.9337 225.423L24.7647 225.421C22.9225 225.418 21.4323 223.921 21.4374 222.079L21.441 220.761Z" stroke="white" stroke-width="0.795285"/>
<path d="M34.4374 231.718L34.4374 236.198L48.7787 236.198C49.4227 236.198 49.9452 235.676 49.9468 235.032L49.9558 231.301L49.9568 230.9L50.3576 230.904L51.3191 230.914C52.1853 230.923 52.8929 230.224 52.8949 229.358L52.8984 227.916C52.9004 227.076 52.2374 226.386 51.3984 226.354L50.3512 226.313L49.9678 226.299L49.9687 225.915L49.9807 220.929L44.2393 220.915L43.8417 220.914L43.8426 220.516L43.8489 217.912C43.8509 217.051 43.1545 216.351 42.2932 216.349L41.7167 216.347C40.8554 216.345 40.1553 217.042 40.1533 217.903L40.1471 220.507L40.1461 220.905L39.7484 220.904L34.4976 220.891L34.4544 224.985L35.8499 225.02C37.6634 225.066 39.1029 226.569 39.099 228.377C39.095 230.216 37.6013 231.727 35.7563 231.722L34.4374 231.718Z" stroke="white" stroke-width="0.795285"/>
<path d="M46.0893 217.206L49.9775 219.43L57.0989 206.982C57.4187 206.423 57.2257 205.71 56.6675 205.389L53.4329 203.528L53.0855 203.328L53.2881 202.983L53.7743 202.153C54.2122 201.406 53.9572 200.445 53.2064 200.013L51.956 199.293C51.2282 198.875 50.2997 199.107 49.8552 199.82L49.3004 200.709L49.0973 201.034L48.7648 200.843L44.4431 198.357L41.5796 203.333L41.3813 203.678L41.0367 203.48L38.7792 202.181C38.0326 201.751 37.0793 202.008 36.6498 202.755L36.3623 203.255C35.9327 204.001 36.1897 204.955 36.9364 205.384L39.1934 206.683L39.5382 206.881L39.3398 207.226L36.721 211.777L40.2531 213.847L40.9766 212.653C41.917 211.102 43.937 210.599 45.5043 211.5C47.0982 212.417 47.668 214.464 46.7474 216.063L46.0893 217.206Z" stroke="#0088FF" stroke-width="0.795285"/>
</svg>
