<svg width="359" height="265" viewBox="0 0 359 265" fill="none" xmlns="http://www.w3.org/2000/svg">
<path d="M246.162 231C301.51 231 346.378 186.228 346.378 131C346.378 75.7715 301.51 31 246.162 31" stroke="#103957" stroke-width="4.42854"/>
<path d="M287.497 196.303C323.043 174.099 334.189 127.457 312.392 92.1254C290.595 56.7937 244.109 46.1515 208.563 68.3553" stroke="#103957" stroke-width="4.42854"/>
<path d="M287.497 196.303C323.043 174.099 334.189 127.457 312.392 92.1254C290.595 56.7937 244.109 46.1515 208.563 68.3553" stroke="#103957" stroke-width="4.42854"/>
<path d="M182.042 156.067C192.41 182.221 215.387 199.475 240.953 203.423" stroke="#0088FF" stroke-width="4.42854"/>
<path d="M328.393 163.861C345.849 118.534 323.483 67.5502 278.438 49.9855" stroke="#103957" stroke-width="7.97137" stroke-linejoin="round"/>
<path d="M180.282 77.2584C201.995 50.3913 236.199 39.7653 267.628 46.9631" stroke="#0088FF" stroke-width="7.97137" stroke-linejoin="round"/>
<path d="M250.99 85.206V62.5415" stroke="#103957" stroke-width="0.442854"/>
<path d="M250.99 198.982V176.317" stroke="#103957" stroke-width="0.442854"/>
<path d="M247.044 85.3789L245.081 62.8011" stroke="#103957" stroke-width="0.442854"/>
<path d="M256.9 198.722L254.937 176.144" stroke="#103957" stroke-width="0.442854"/>
<path d="M243.132 85.8977L239.221 63.5775" stroke="#103957" stroke-width="0.442854"/>
<path d="M262.763 197.945L258.852 175.625" stroke="#103957" stroke-width="0.442854"/>
<path d="M239.273 86.7583L233.443 64.8661" stroke="#103957" stroke-width="0.442854"/>
<path d="M268.539 196.657L262.709 174.765" stroke="#103957" stroke-width="0.442854"/>
<path d="M235.506 87.9532L227.803 66.6556" stroke="#103957" stroke-width="0.442854"/>
<path d="M274.179 194.867L266.476 173.57" stroke="#103957" stroke-width="0.442854"/>
<path d="M231.858 89.4742L222.339 68.9332" stroke="#103957" stroke-width="0.442854"/>
<path d="M279.644 192.59L270.125 172.049" stroke="#103957" stroke-width="0.442854"/>
<path d="M228.354 91.3093L217.092 71.6813" stroke="#103957" stroke-width="0.442854"/>
<path d="M284.891 189.842L273.629 170.214" stroke="#103957" stroke-width="0.442854"/>
<path d="M225.022 93.4446L212.103 74.879" stroke="#103957" stroke-width="0.442854"/>
<path d="M289.877 186.644L276.958 168.079" stroke="#103957" stroke-width="0.442854"/>
<path d="M221.889 95.8641L207.411 78.5021" stroke="#103957" stroke-width="0.442854"/>
<path d="M294.569 183.021L280.091 165.659" stroke="#103957" stroke-width="0.442854"/>
<path d="M218.979 98.5478L203.052 82.5216" stroke="#103957" stroke-width="0.442854"/>
<path d="M298.931 179.001L283.004 162.974" stroke="#103957" stroke-width="0.442854"/>
<path d="M216.311 101.478L199.057 86.9098" stroke="#103957" stroke-width="0.442854"/>
<path d="M302.928 174.612L285.674 160.044" stroke="#103957" stroke-width="0.442854"/>
<path d="M213.906 104.632L195.455 91.6324" stroke="#103957" stroke-width="0.442854"/>
<path d="M306.527 169.891L288.076 156.891" stroke="#103957" stroke-width="0.442854"/>
<path d="M211.783 107.984L192.276 96.6516" stroke="#103957" stroke-width="0.442854"/>
<path d="M309.706 164.872L290.2 153.539" stroke="#103957" stroke-width="0.442854"/>
<path d="M209.959 111.508L189.546 101.929" stroke="#103957" stroke-width="0.442854"/>
<path d="M312.434 159.593L292.021 150.014" stroke="#103957" stroke-width="0.442854"/>
<path d="M208.448 115.181L187.282 107.429" stroke="#103957" stroke-width="0.442854"/>
<path d="M314.7 154.094L293.534 146.343" stroke="#103957" stroke-width="0.442854"/>
<path d="M207.26 118.971L185.504 113.105" stroke="#103957" stroke-width="0.442854"/>
<path d="M316.478 148.418L294.722 142.552" stroke="#103957" stroke-width="0.442854"/>
<path d="M206.404 122.851L184.223 118.915" stroke="#103957" stroke-width="0.442854"/>
<path d="M317.757 142.608L295.575 138.672" stroke="#103957" stroke-width="0.442854"/>
<path d="M205.89 126.791L183.453 124.815" stroke="#103957" stroke-width="0.442854"/>
<path d="M318.528 136.707L296.091 134.732" stroke="#103957" stroke-width="0.442854"/>
<path d="M205.718 130.762H183.194" stroke="#103957" stroke-width="0.442854"/>
<path d="M318.787 130.762H296.263" stroke="#103957" stroke-width="0.442854"/>
<path d="M205.89 134.732L183.453 136.707" stroke="#103957" stroke-width="0.442854"/>
<path d="M318.528 124.816L296.091 126.791" stroke="#103957" stroke-width="0.442854"/>
<path d="M206.404 138.672L184.223 142.607" stroke="#103957" stroke-width="0.442854"/>
<path d="M317.757 118.915L295.575 122.851" stroke="#103957" stroke-width="0.442854"/>
<path d="M207.26 142.552L185.504 148.418" stroke="#103957" stroke-width="0.442854"/>
<path d="M316.478 113.105L294.722 118.971" stroke="#103957" stroke-width="0.442854"/>
<path d="M208.448 146.342L187.282 154.094" stroke="#103957" stroke-width="0.442854"/>
<path d="M314.699 107.429L293.533 115.181" stroke="#103957" stroke-width="0.442854"/>
<path d="M209.959 150.014L189.546 159.593" stroke="#103957" stroke-width="0.442854"/>
<path d="M312.435 101.93L292.021 111.509" stroke="#103957" stroke-width="0.442854"/>
<path d="M211.783 153.538L192.276 164.87" stroke="#103957" stroke-width="0.442854"/>
<path d="M309.707 96.6513L290.201 107.984" stroke="#103957" stroke-width="0.442854"/>
<path d="M213.905 156.89L195.454 169.889" stroke="#103957" stroke-width="0.442854"/>
<path d="M306.527 91.6321L288.076 104.632" stroke="#103957" stroke-width="0.442854"/>
<path d="M216.309 160.044L199.055 174.613" stroke="#103957" stroke-width="0.442854"/>
<path d="M302.926 86.9106L285.672 101.479" stroke="#103957" stroke-width="0.442854"/>
<path d="M218.978 162.974L203.051 179" stroke="#103957" stroke-width="0.442854"/>
<path d="M298.931 82.5229L283.004 98.5491" stroke="#103957" stroke-width="0.442854"/>
<path d="M221.889 165.659L207.411 183.021" stroke="#103957" stroke-width="0.442854"/>
<path d="M294.568 78.5021L280.09 95.8641" stroke="#103957" stroke-width="0.442854"/>
<path d="M225.021 168.078L212.102 186.644" stroke="#103957" stroke-width="0.442854"/>
<path d="M289.877 74.8789L276.958 93.4445" stroke="#103957" stroke-width="0.442854"/>
<path d="M228.355 170.214L217.093 189.842" stroke="#103957" stroke-width="0.442854"/>
<path d="M284.891 71.6813L273.629 91.3093" stroke="#103957" stroke-width="0.442854"/>
<path d="M231.857 172.048L222.338 192.589" stroke="#103957" stroke-width="0.442854"/>
<path d="M279.643 68.9335L270.124 89.4745" stroke="#103957" stroke-width="0.442854"/>
<path d="M235.506 173.57L227.803 194.867" stroke="#103957" stroke-width="0.442854"/>
<path d="M274.178 66.6559L266.475 87.9536" stroke="#103957" stroke-width="0.442854"/>
<path d="M239.275 174.765L233.445 196.657" stroke="#103957" stroke-width="0.442854"/>
<path d="M268.54 64.8661L262.71 86.7583" stroke="#103957" stroke-width="0.442854"/>
<path d="M243.13 175.625L239.219 197.945" stroke="#103957" stroke-width="0.442854"/>
<path d="M262.764 63.578L258.853 85.8982" stroke="#103957" stroke-width="0.442854"/>
<path d="M247.044 176.144L245.081 198.722" stroke="#103957" stroke-width="0.442854"/>
<path d="M256.899 62.8013L254.936 85.3792" stroke="#103957" stroke-width="0.442854"/>
<path d="M236.224 105.65C236.224 105.77 236.224 109.222 236.224 112.129C236.224 114.33 234.44 116.113 232.239 116.113H229.985C229.985 116.113 229.985 116.113 229.985 116.113C229.985 116.113 225.202 116.113 225.202 116.322C225.202 116.991 225.202 141.328 225.202 151.067C225.202 153.268 226.987 155.036 229.188 155.036H263.641C265.843 155.036 267.627 153.252 267.627 151.051V148.13M236.224 105.65C236.224 105.487 255.234 105.578 263.673 105.626C265.863 105.638 267.627 107.418 267.627 109.609V117.369M236.224 105.65L225.202 116.113M234.561 123.228H248.702M234.561 131.18H248.702M234.561 138.295H248.702M234.561 145.201H248.702M255.357 116.322L277.61 127.623M255.357 116.322L257.021 123.647M255.357 116.322L262.012 113.393" stroke="#103957" stroke-width="2.65712"/>
<path d="M258.114 144.524V126.625H262.166V144.524H258.114Z" stroke="#0088FF" stroke-width="1.77142"/>
<path d="M266.434 144.524V131.229H270.485V144.524H266.434Z" stroke="#0088FF" stroke-width="1.77142"/>
<path d="M274.335 144.524V135.414H278.387V144.524H274.335Z" stroke="#0088FF" stroke-width="1.77142"/>
<path d="M282.237 144.524V140.018H286.289V144.524H282.237Z" stroke="#0088FF" stroke-width="1.77142"/>
<path d="M177.481 167.672C195.149 205.358 241.404 224.294 278.856 206.515" stroke="#0088FF" stroke-width="3.98569"/>
<path d="M67.0335 182.029L29.4434 197.339V215.051V242.969" stroke="#103957" stroke-width="5.31425"/>
<path d="M186.071 183.23L129.388 237.866L106.109 213.718" stroke="#0088FF" stroke-width="3.98569"/>
<path d="M132.668 242.645L137.659 247.667" stroke="#103957" stroke-width="1.32856"/>
<path d="M135.164 240.134L140.155 245.156" stroke="#103957" stroke-width="1.32856"/>
<path d="M137.661 237.623L142.652 242.645" stroke="#103957" stroke-width="1.32856"/>
<path d="M140.154 235.112L145.145 240.134" stroke="#103957" stroke-width="1.32856"/>
<path d="M142.651 232.6L147.643 237.623" stroke="#103957" stroke-width="1.32856"/>
<path d="M145.146 230.089L150.138 235.112" stroke="#103957" stroke-width="1.32856"/>
<path d="M147.642 227.578L157.832 237.832" stroke="#103957" stroke-width="1.32856"/>
<path d="M150.138 225.067L162.824 237.832" stroke="#103957" stroke-width="1.32856"/>
<path d="M152.631 222.556L167.812 237.832" stroke="#103957" stroke-width="1.32856"/>
<path d="M93.4481 177.426C93.4481 184.939 87.397 191.02 79.9442 191.02C72.4915 191.02 66.4404 184.939 66.4404 177.426C66.4404 169.913 72.4915 163.833 79.9442 163.833C87.397 163.833 93.4481 169.913 93.4481 177.426Z" stroke="#103957" stroke-width="1.77142"/>
<path d="M89.833 177.426C89.833 182.928 85.402 187.38 79.9449 187.38C74.4878 187.38 70.0569 182.928 70.0569 177.426C70.0569 171.925 74.4878 167.472 79.9449 167.472C85.402 167.472 89.833 171.925 89.833 177.426Z" stroke="#103957" stroke-width="1.32856"/>
<path d="M86.2169 177.426C86.2169 180.916 83.4061 183.741 79.9446 183.741C76.4831 183.741 73.6723 180.916 73.6723 177.426C73.6723 173.937 76.4831 171.112 79.9446 171.112C83.4061 171.112 86.2169 173.937 86.2169 177.426Z" stroke="#103957" stroke-width="0.885708"/>
<path d="M79.4292 159.087L79.1924 149.982" stroke="#103957" stroke-width="0.442854"/>
<path d="M80.6167 204.791L80.3799 195.686" stroke="#103957" stroke-width="0.442854"/>
<path d="M77.8446 159.197L76.8203 150.149" stroke="#103957" stroke-width="0.442854"/>
<path d="M82.9863 204.623L81.9619 195.575" stroke="#103957" stroke-width="0.442854"/>
<path d="M76.2759 159.447L74.4717 150.523" stroke="#103957" stroke-width="0.442854"/>
<path d="M85.3335 204.249L83.5293 195.325" stroke="#103957" stroke-width="0.442854"/>
<path d="M74.7384 159.833L72.168 151.101" stroke="#103957" stroke-width="0.442854"/>
<path d="M87.6388 203.671L85.0684 194.939" stroke="#103957" stroke-width="0.442854"/>
<path d="M73.236 160.354L69.9189 151.88" stroke="#103957" stroke-width="0.442854"/>
<path d="M89.8883 202.892L86.5713 194.419" stroke="#103957" stroke-width="0.442854"/>
<path d="M71.7845 161.003L67.7461 152.853" stroke="#103957" stroke-width="0.442854"/>
<path d="M92.0569 201.92L88.0186 193.769" stroke="#103957" stroke-width="0.442854"/>
<path d="M70.4009 161.776L65.6719 154.011" stroke="#103957" stroke-width="0.442854"/>
<path d="M94.1372 200.76L89.4082 192.995" stroke="#103957" stroke-width="0.442854"/>
<path d="M69.0819 162.67L63.6982 155.349" stroke="#103957" stroke-width="0.442854"/>
<path d="M96.1082 199.423L90.7246 192.102" stroke="#103957" stroke-width="0.442854"/>
<path d="M67.8478 163.676L61.8506 156.855" stroke="#103957" stroke-width="0.442854"/>
<path d="M97.9533 197.918L91.9561 191.097" stroke="#103957" stroke-width="0.442854"/>
<path d="M66.7059 164.784L60.1406 158.515" stroke="#103957" stroke-width="0.442854"/>
<path d="M99.6639 196.257L93.0986 189.987" stroke="#103957" stroke-width="0.442854"/>
<path d="M65.6663 165.99L58.583 160.32" stroke="#103957" stroke-width="0.442854"/>
<path d="M101.225 194.452L94.1416 188.782" stroke="#103957" stroke-width="0.442854"/>
<path d="M64.7339 167.282L57.1865 162.255" stroke="#103957" stroke-width="0.442854"/>
<path d="M102.622 192.517L95.0742 187.49" stroke="#103957" stroke-width="0.442854"/>
<path d="M63.915 168.651L55.9609 164.305" stroke="#103957" stroke-width="0.442854"/>
<path d="M103.846 190.467L95.8916 186.121" stroke="#103957" stroke-width="0.442854"/>
<path d="M63.2202 170.086L54.9199 166.455" stroke="#103957" stroke-width="0.442854"/>
<path d="M104.888 188.318L96.5879 184.686" stroke="#103957" stroke-width="0.442854"/>
<path d="M62.6506 171.577L54.0674 168.687" stroke="#103957" stroke-width="0.442854"/>
<path d="M105.739 186.085L97.1562 183.195" stroke="#103957" stroke-width="0.442854"/>
<path d="M62.213 173.112L53.4121 170.986" stroke="#103957" stroke-width="0.442854"/>
<path d="M106.394 183.786L97.5928 181.66" stroke="#103957" stroke-width="0.442854"/>
<path d="M61.9105 174.678L52.959 173.332" stroke="#103957" stroke-width="0.442854"/>
<path d="M106.847 181.439L97.8955 180.092" stroke="#103957" stroke-width="0.442854"/>
<path d="M61.7437 176.275L52.71 175.712" stroke="#103957" stroke-width="0.442854"/>
<path d="M107.095 179.06L98.0605 178.504" stroke="#103957" stroke-width="0.442854"/>
<path d="M61.7172 177.865L52.6689 178.103" stroke="#103957" stroke-width="0.442854"/>
<path d="M107.137 176.669L98.0889 176.907" stroke="#103957" stroke-width="0.442854"/>
<path d="M61.8268 179.458L52.834 180.489" stroke="#103957" stroke-width="0.442854"/>
<path d="M106.971 174.283L97.9785 175.314" stroke="#103957" stroke-width="0.442854"/>
<path d="M62.0754 181.035L53.2061 182.851" stroke="#103957" stroke-width="0.442854"/>
<path d="M106.6 171.921L97.7305 173.737" stroke="#103957" stroke-width="0.442854"/>
<path d="M62.4605 182.585L53.7822 185.172" stroke="#103957" stroke-width="0.442854"/>
<path d="M106.025 169.601L97.3467 172.187" stroke="#103957" stroke-width="0.442854"/>
<path d="M62.975 184.093L54.5537 187.431" stroke="#103957" stroke-width="0.442854"/>
<path d="M105.252 167.339L96.8311 170.677" stroke="#103957" stroke-width="0.442854"/>
<path d="M63.6226 185.554L55.5225 189.617" stroke="#103957" stroke-width="0.442854"/>
<path d="M104.286 165.155L96.1855 169.218" stroke="#103957" stroke-width="0.442854"/>
<path d="M64.3921 186.951L56.6748 191.709" stroke="#103957" stroke-width="0.442854"/>
<path d="M103.132 163.063L95.415 167.822" stroke="#103957" stroke-width="0.442854"/>
<path d="M65.2787 188.274L58.0029 193.691" stroke="#103957" stroke-width="0.442854"/>
<path d="M101.803 161.08L94.5273 166.497" stroke="#103957" stroke-width="0.442854"/>
<path d="M66.2779 189.516L59.499 195.551" stroke="#103957" stroke-width="0.442854"/>
<path d="M100.308 159.222L93.5293 165.256" stroke="#103957" stroke-width="0.442854"/>
<path d="M67.3749 190.662L61.1445 197.268" stroke="#103957" stroke-width="0.442854"/>
<path d="M98.6542 157.501L92.4238 164.108" stroke="#103957" stroke-width="0.442854"/>
<path d="M68.5769 191.712L62.9424 198.839" stroke="#103957" stroke-width="0.442854"/>
<path d="M96.864 155.932L91.2295 163.06" stroke="#103957" stroke-width="0.442854"/>
<path d="M69.8609 192.651L64.8652 200.246" stroke="#103957" stroke-width="0.442854"/>
<path d="M94.9391 154.527L89.9434 162.121" stroke="#103957" stroke-width="0.442854"/>
<path d="M71.2222 193.474L66.9033 201.477" stroke="#103957" stroke-width="0.442854"/>
<path d="M92.9029 153.295L88.584 161.299" stroke="#103957" stroke-width="0.442854"/>
<path d="M72.6483 194.174L69.0391 202.526" stroke="#103957" stroke-width="0.442854"/>
<path d="M90.7665 152.246L87.1572 160.598" stroke="#103957" stroke-width="0.442854"/>
<path d="M74.1309 194.746L71.2588 203.383" stroke="#103957" stroke-width="0.442854"/>
<path d="M88.5479 151.389L85.6758 160.026" stroke="#103957" stroke-width="0.442854"/>
<path d="M75.656 195.186L73.543 204.042" stroke="#103957" stroke-width="0.442854"/>
<path d="M86.2615 150.73L84.1484 159.586" stroke="#103957" stroke-width="0.442854"/>
<path d="M77.2129 195.492L75.875 204.498" stroke="#103957" stroke-width="0.442854"/>
<path d="M83.9306 150.274L82.5928 159.281" stroke="#103957" stroke-width="0.442854"/>
<path d="M78.7929 195.659L78.2402 204.749" stroke="#103957" stroke-width="0.442854"/>
<path d="M81.5673 150.024L81.0146 159.114" stroke="#103957" stroke-width="0.442854"/>
<path d="M114.125 167.132C119.791 186.176 109.041 206.235 90.1158 211.936C74.2563 216.714 57.6878 209.892 49.4018 196.349" stroke="#103957" stroke-width="1.77142"/>
<path d="M121.456 166.006C128.223 188.753 115.384 212.713 92.7782 219.522C80.9568 223.083 68.8057 221.249 58.9347 215.435" stroke="#0088FF" stroke-width="3.98569"/>
<path d="M50.3274 264.583C50.3274 252.646 40.844 242.969 29.1456 242.969C17.4473 242.969 7.96387 252.646 7.96387 264.583" stroke="#103957" stroke-width="3.54283"/>
<path d="M41.9761 264.583C41.9761 257.288 36.0991 251.375 28.8494 251.375C21.5997 251.375 15.7227 257.288 15.7227 264.583" stroke="#103957" stroke-width="2.65712"/>
<path d="M51.9656 185.857C56.5771 201.357 72.8032 210.161 88.2077 205.521C103.612 200.881 112.361 184.553 107.75 169.053" stroke="#103957" stroke-width="0.885708"/>
<path d="M158.921 223.594L163.912 228.617" stroke="#103957" stroke-width="1.32856"/>
<path d="M161.417 221.083L166.408 226.105" stroke="#103957" stroke-width="1.32856"/>
<path d="M163.913 218.572L168.904 223.594" stroke="#103957" stroke-width="1.32856"/>
<path d="M166.407 216.061L171.398 221.083" stroke="#103957" stroke-width="1.32856"/>
<path d="M168.903 213.55L173.894 218.572" stroke="#103957" stroke-width="1.32856"/>
<path d="M94.903 148.667C94.903 148.667 91.5245 145.775 88.3223 146.183" stroke="#103957" stroke-width="0.885708"/>
<path d="M86.3573 165.243L103.611 133.151L107.841 135.668" stroke="#103957" stroke-width="0.885708"/>
<path d="M117.615 133.638C120.836 135.596 121.871 139.813 119.923 143.057C117.975 146.3 113.784 147.339 110.563 145.38C107.342 143.422 106.307 139.205 108.255 135.961C110.203 132.718 114.394 131.679 117.615 133.638Z" stroke="#103957" stroke-width="1.32856"/>
<path d="M116.583 135.355C118.862 136.741 119.594 139.724 118.216 142.019C116.838 144.313 113.873 145.048 111.594 143.663C109.316 142.277 108.583 139.294 109.962 136.999C111.34 134.705 114.305 133.97 116.583 135.355Z" stroke="#103957" stroke-width="1.32856"/>
<path d="M115.78 136.693C117.325 137.633 117.821 139.655 116.887 141.21C115.953 142.766 113.943 143.265 112.397 142.325C110.852 141.385 110.356 139.363 111.29 137.807C112.224 136.252 114.234 135.753 115.78 136.693Z" stroke="#103957" stroke-width="0.442854"/>
<path d="M87.7007 145.482C88.1676 145.766 88.3182 146.378 88.0353 146.849C87.7524 147.32 87.1441 147.47 86.6772 147.186C86.2103 146.902 86.0597 146.291 86.3426 145.82C86.6255 145.348 87.2338 145.198 87.7007 145.482Z" stroke="#103957" stroke-width="0.885708"/>
</svg>
