<svg width="1440" height="442" viewBox="0 0 1440 442" fill="none" xmlns="http://www.w3.org/2000/svg" style="">
<path d="M194.367 304.049C194.367 304.049 182.452 283.196 181.057 267.43" stroke="#0088FF" stroke-width="1.4348" class="VOJRUEYx_0"></path>
<path d="M522.856 300.807C466.219 375.624 362.98 392.881 292.265 339.35C221.549 285.819 210.136 181.772 266.772 106.954" stroke="white" stroke-width="7.17401" class="VOJRUEYx_1"></path>
<path d="M429.218 318.289C372.948 343.219 307.368 318.369 282.742 262.785C258.116 207.2 283.769 141.93 340.04 117" stroke="white" stroke-width="7.17401" class="VOJRUEYx_2"></path>
<path d="M358.175 350.672C282.415 333.054 235.282 257.356 252.9 181.596" stroke="#0088FF" stroke-width="12.9132" stroke-linejoin="round" class="VOJRUEYx_3"></path>
<path d="M442.247 78C516.618 100.78 558.44 179.537 535.66 253.908" stroke="white" stroke-width="12.9132" stroke-linejoin="round" class="VOJRUEYx_4"></path>
<path d="M259 271.5L173.129 315.209L181.6 331.799" stroke="#0088FF" stroke-width="1.4348" class="VOJRUEYx_5"></path>
<path d="M173.584 359.66C178.63 369.543 190.732 373.464 200.614 368.418C210.497 363.372 214.418 351.27 209.372 341.387C204.326 331.505 192.224 327.584 182.341 332.63C172.459 337.676 168.538 349.778 173.584 359.66Z" stroke="#0088FF" stroke-width="2.1522" class="VOJRUEYx_6"></path>
<path d="M178.611 357.093C182.239 364.199 190.941 367.019 198.047 363.39C205.153 359.762 207.973 351.06 204.344 343.954C200.716 336.848 192.014 334.028 184.908 337.657C177.802 341.285 174.982 349.987 178.611 357.093Z" stroke="#0088FF" stroke-width="2.1522" class="VOJRUEYx_7"></path>
<path d="M697.635 395.84L563.5 395.84L498.5 326.5" stroke="white" stroke-width="7.17401" class="VOJRUEYx_8"></path>
<path d="M720.496 405.74L720.496 441.718" stroke="white" stroke-width="7.17401" class="VOJRUEYx_9"></path>
<path d="M706.503 415.295C716.604 423.142 731.153 421.314 738.999 411.214C746.846 401.113 745.019 386.564 734.918 378.717C724.817 370.871 710.268 372.698 702.422 382.799C694.575 392.899 696.402 407.449 706.503 415.295Z" stroke="white" stroke-width="2.1522" class="VOJRUEYx_10"></path>
<path d="M713.843 403.551C718.52 407.184 725.256 406.338 728.89 401.661C732.523 396.984 731.677 390.248 727 386.614C722.323 382.981 715.586 383.827 711.953 388.504C708.32 393.181 709.166 399.918 713.843 403.551Z" stroke="white" stroke-width="3.587" class="VOJRUEYx_11"></path>
<path d="M183.638 354.527C185.849 358.856 191.151 360.574 195.48 358.363C199.81 356.153 201.528 350.851 199.317 346.521C197.106 342.192 191.804 340.474 187.475 342.685C183.145 344.895 181.427 350.197 183.638 354.527Z" stroke="#0088FF" stroke-width="2.1522" class="VOJRUEYx_12"></path>
<path d="M174.723 263.375C176.314 266.493 180.132 267.73 183.25 266.138C186.368 264.546 187.605 260.728 186.013 257.61C184.421 254.493 180.603 253.256 177.485 254.848C174.368 256.439 173.131 260.257 174.723 263.375Z" stroke="#0088FF" stroke-width="1.4348" class="VOJRUEYx_13"></path>
<path d="M460.032 161.294L494.196 133.869" stroke="white" stroke-width="0.717401" class="VOJRUEYx_14"></path>
<path d="M288.532 298.966L322.696 271.541" stroke="white" stroke-width="0.717401" class="VOJRUEYx_15"></path>
<path d="M454.967 155.518L486.61 125.22" stroke="white" stroke-width="0.717401" class="VOJRUEYx_16"></path>
<path d="M296.119 307.613L327.762 277.315" stroke="white" stroke-width="0.717401" class="VOJRUEYx_17"></path>
<path d="M449.418 150.207L478.3 117.266" stroke="white" stroke-width="0.717401" class="VOJRUEYx_18"></path>
<path d="M304.429 315.568L333.311 282.627" stroke="white" stroke-width="0.717401" class="VOJRUEYx_19"></path>
<path d="M443.427 145.399L469.328 110.067" stroke="white" stroke-width="0.717401" class="VOJRUEYx_20"></path>
<path d="M313.401 322.768L339.303 287.435" stroke="white" stroke-width="0.717401" class="VOJRUEYx_21"></path>
<path d="M437.038 141.132L459.761 103.677" stroke="white" stroke-width="0.717401" class="VOJRUEYx_22"></path>
<path d="M322.967 329.158L345.69 291.703" stroke="white" stroke-width="0.717401" class="VOJRUEYx_23"></path>
<path d="M430.303 137.438L449.675 98.1449" stroke="white" stroke-width="0.717401" class="VOJRUEYx_24"></path>
<path d="M333.053 334.69L352.425 295.397" stroke="white" stroke-width="0.717401" class="VOJRUEYx_25"></path>
<path d="M423.271 134.344L439.145 93.5121" stroke="white" stroke-width="0.717401" class="VOJRUEYx_26"></path>
<path d="M343.584 339.322L359.458 298.49" stroke="white" stroke-width="0.717401" class="VOJRUEYx_27"></path>
<path d="M415.996 131.875L428.251 89.815" stroke="white" stroke-width="0.717401" class="VOJRUEYx_28"></path>
<path d="M354.478 343.019L366.732 300.958" stroke="white" stroke-width="0.717401" class="VOJRUEYx_29"></path>
<path d="M408.536 130.051L417.078 87.0828" stroke="white" stroke-width="0.717401" class="VOJRUEYx_30"></path>
<path d="M365.652 345.752L374.194 302.784" stroke="white" stroke-width="0.717401" class="VOJRUEYx_31"></path>
<path d="M400.945 128.883L405.709 85.3334" stroke="white" stroke-width="0.717401" class="VOJRUEYx_32"></path>
<path d="M377.022 347.5L381.787 303.951" stroke="white" stroke-width="0.717401" class="VOJRUEYx_33"></path>
<path d="M393.276 128.381L394.227 84.5822" stroke="white" stroke-width="0.717401" class="VOJRUEYx_34"></path>
<path d="M388.501 348.252L389.452 304.453" stroke="white" stroke-width="0.717401" class="VOJRUEYx_35"></path>
<path d="M385.596 128.549L382.726 84.8343" stroke="white" stroke-width="0.717401" class="VOJRUEYx_36"></path>
<path d="M400.002 348L397.132 304.285" stroke="white" stroke-width="0.717401" class="VOJRUEYx_37"></path>
<path d="M377.961 129.387L371.292 86.0878" stroke="white" stroke-width="0.717401" class="VOJRUEYx_38"></path>
<path d="M411.437 346.746L404.769 303.448" stroke="white" stroke-width="0.717401" class="VOJRUEYx_39"></path>
<path d="M370.426 130.886L360.009 88.3333" stroke="white" stroke-width="0.717401" class="VOJRUEYx_40"></path>
<path d="M422.72 344.501L412.303 301.948" stroke="white" stroke-width="0.717401" class="VOJRUEYx_41"></path>
<path d="M363.051 133.036L348.964 91.5532" stroke="white" stroke-width="0.717401" class="VOJRUEYx_42"></path>
<path d="M433.764 341.28L419.678 299.797" stroke="white" stroke-width="0.717401" class="VOJRUEYx_43"></path>
<path d="M355.893 135.821L338.245 95.7236" stroke="white" stroke-width="0.717401" class="VOJRUEYx_44"></path>
<path d="M444.485 337.109L426.836 297.012" stroke="white" stroke-width="0.717401" class="VOJRUEYx_45"></path>
<path d="M349.005 139.219L327.93 100.812" stroke="white" stroke-width="0.717401" class="VOJRUEYx_46"></path>
<path d="M454.803 332.021L433.727 293.614" stroke="white" stroke-width="0.717401" class="VOJRUEYx_47"></path>
<path d="M342.436 143.206L318.093 106.782" stroke="white" stroke-width="0.717401" class="VOJRUEYx_48"></path>
<path d="M464.637 326.052L440.294 289.629" stroke="white" stroke-width="0.717401" class="VOJRUEYx_49"></path>
<path d="M336.241 147.748L308.816 113.585" stroke="white" stroke-width="0.717401" class="VOJRUEYx_50"></path>
<path d="M473.913 319.248L446.488 285.085" stroke="white" stroke-width="0.717401" class="VOJRUEYx_51"></path>
<path d="M330.467 152.813L300.169 121.17" stroke="white" stroke-width="0.717401" class="VOJRUEYx_52"></path>
<path d="M482.561 311.663L452.263 280.02" stroke="white" stroke-width="0.717401" class="VOJRUEYx_53"></path>
<path d="M325.153 158.365L292.213 129.482" stroke="white" stroke-width="0.717401" class="VOJRUEYx_54"></path>
<path d="M490.515 303.353L457.574 274.471" stroke="white" stroke-width="0.717401" class="VOJRUEYx_55"></path>
<path d="M320.348 164.353L285.015 138.452" stroke="white" stroke-width="0.717401" class="VOJRUEYx_56"></path>
<path d="M497.714 294.38L462.381 268.478" stroke="white" stroke-width="0.717401" class="VOJRUEYx_57"></path>
<path d="M316.079 170.743L278.624 148.02" stroke="white" stroke-width="0.717401" class="VOJRUEYx_58"></path>
<path d="M504.105 284.814L466.649 262.091" stroke="white" stroke-width="0.717401" class="VOJRUEYx_59"></path>
<path d="M312.385 177.479L273.091 158.106" stroke="white" stroke-width="0.717401" class="VOJRUEYx_60"></path>
<path d="M509.638 274.728L470.344 255.356" stroke="white" stroke-width="0.717401" class="VOJRUEYx_61"></path>
<path d="M309.291 184.51L268.459 168.636" stroke="white" stroke-width="0.717401" class="VOJRUEYx_62"></path>
<path d="M514.269 264.198L473.437 248.324" stroke="white" stroke-width="0.717401" class="VOJRUEYx_63"></path>
<path d="M306.824 191.782L264.764 179.527" stroke="white" stroke-width="0.717401" class="VOJRUEYx_64"></path>
<path d="M517.966 253.305L475.906 241.05" stroke="white" stroke-width="0.717401" class="VOJRUEYx_65"></path>
<path d="M304.998 199.244L262.03 190.702" stroke="white" stroke-width="0.717401" class="VOJRUEYx_66"></path>
<path d="M520.699 242.13L477.73 233.588" stroke="white" stroke-width="0.717401" class="VOJRUEYx_67"></path>
<path d="M303.831 206.839L260.281 202.074" stroke="white" stroke-width="0.717401" class="VOJRUEYx_68"></path>
<path d="M522.448 230.759L478.899 225.994" stroke="white" stroke-width="0.717401" class="VOJRUEYx_69"></path>
<path d="M303.328 214.505L259.529 213.554" stroke="white" stroke-width="0.717401" class="VOJRUEYx_70"></path>
<path d="M523.199 219.28L479.4 218.329" stroke="white" stroke-width="0.717401" class="VOJRUEYx_71"></path>
<path d="M303.497 222.184L259.782 225.054" stroke="white" stroke-width="0.717401" class="VOJRUEYx_72"></path>
<path d="M522.948 207.779L479.232 210.649" stroke="white" stroke-width="0.717401" class="VOJRUEYx_73"></path>
<path d="M304.333 229.822L261.035 236.49" stroke="white" stroke-width="0.717401" class="VOJRUEYx_74"></path>
<path d="M521.692 196.344L478.393 203.013" stroke="white" stroke-width="0.717401" class="VOJRUEYx_75"></path>
<path d="M305.834 237.356L263.281 247.773" stroke="white" stroke-width="0.717401" class="VOJRUEYx_76"></path>
<path d="M519.448 185.062L476.895 195.479" stroke="white" stroke-width="0.717401" class="VOJRUEYx_77"></path>
<path d="M307.984 244.73L266.501 258.817" stroke="white" stroke-width="0.717401" class="VOJRUEYx_78"></path>
<path d="M516.228 174.018L474.745 188.104" stroke="white" stroke-width="0.717401" class="VOJRUEYx_79"></path>
<path d="M310.769 251.89L270.671 269.538" stroke="white" stroke-width="0.717401" class="VOJRUEYx_80"></path>
<path d="M512.057 163.296L471.959 180.944" stroke="white" stroke-width="0.717401" class="VOJRUEYx_81"></path>
<path d="M314.167 258.779L275.76 279.855" stroke="white" stroke-width="0.717401" class="VOJRUEYx_82"></path>
<path d="M506.968 152.979L468.561 174.055" stroke="white" stroke-width="0.717401" class="VOJRUEYx_83"></path>
<path d="M318.153 265.345L281.729 289.688" stroke="white" stroke-width="0.717401" class="VOJRUEYx_84"></path>
<path d="M501 143.145L464.577 167.488" stroke="white" stroke-width="0.717401" class="VOJRUEYx_85"></path>
<path d="M720.259 23L720.259 59.5L525.351 149.351" stroke="white" stroke-width="7.17401" class="VOJRUEYx_86"></path>
<path d="M697.253 1.00002C697.113 12.7486 706.887 22.3901 719.082 22.535C731.278 22.6799 741.278 13.2732 741.417 1.52466" stroke="white" stroke-width="4.3044" class="VOJRUEYx_87"></path>
<path d="M372.833 255.463H413.48C417.046 255.463 419.937 252.599 419.937 249.033C419.937 233.343 419.937 194.294 419.937 193.219C419.937 192.883 412.198 192.883 412.198 192.883C412.198 192.883 412.198 192.883 412.198 192.883H408.561C404.995 192.883 402.105 189.994 402.105 186.428C402.105 181.766 402.105 176.253 402.105 176.06M402.105 176.06C402.105 175.798 371.363 175.944 357.706 176.021C354.157 176.042 351.3 178.925 351.3 182.474V231.089M402.105 176.06L419.937 192.883M404.796 204.322H366.777M404.796 217.107H366.777M404.796 228.547H366.777M404.796 239.65H366.777M351.3 237.818V273.482M366.777 255.463H335.487" stroke="white" stroke-width="2.8696" class="VOJRUEYx_88"></path>
<path d="M420.273 238.64H434.34C437.906 238.64 440.797 235.776 440.797 232.21C440.797 216.52 440.797 177.471 440.797 176.396C440.797 176.06 433.058 176.06 433.058 176.06C433.058 176.06 433.058 176.06 433.058 176.06H429.421C425.856 176.06 422.965 173.171 422.965 169.605C422.965 164.943 422.965 159.43 422.965 159.237M422.965 159.237C422.965 158.976 392.223 159.121 378.567 159.199C375.018 159.219 372.161 162.102 372.161 165.651V176.06M422.965 159.237L440.797 176.06" stroke="white" stroke-width="2.8696" class="VOJRUEYx_89"></path>
<style data-made-with="vivus-instant">.VOJRUEYx_0{stroke-dasharray:40 42;stroke-dashoffset:41;animation:VOJRUEYx_draw 2000ms ease-in-out 0ms forwards;}.VOJRUEYx_1{stroke-dasharray:520 522;stroke-dashoffset:521;animation:VOJRUEYx_draw 2000ms ease-in-out 11ms forwards;}.VOJRUEYx_2{stroke-dasharray:349 351;stroke-dashoffset:350;animation:VOJRUEYx_draw 2000ms ease-in-out 22ms forwards;}.VOJRUEYx_3{stroke-dasharray:222 224;stroke-dashoffset:223;animation:VOJRUEYx_draw 2000ms ease-in-out 33ms forwards;}.VOJRUEYx_4{stroke-dasharray:222 224;stroke-dashoffset:223;animation:VOJRUEYx_draw 2000ms ease-in-out 44ms forwards;}.VOJRUEYx_5{stroke-dasharray:115 117;stroke-dashoffset:116;animation:VOJRUEYx_draw 2000ms ease-in-out 56ms forwards;}.VOJRUEYx_6{stroke-dasharray:127 129;stroke-dashoffset:128;animation:VOJRUEYx_draw 2000ms ease-in-out 67ms forwards;}.VOJRUEYx_7{stroke-dasharray:91 93;stroke-dashoffset:92;animation:VOJRUEYx_draw 2000ms ease-in-out 78ms forwards;}.VOJRUEYx_8{stroke-dasharray:230 232;stroke-dashoffset:231;animation:VOJRUEYx_draw 2000ms ease-in-out 89ms forwards;}.VOJRUEYx_9{stroke-dasharray:36 38;stroke-dashoffset:37;animation:VOJRUEYx_draw 2000ms ease-in-out 101ms forwards;}.VOJRUEYx_10{stroke-dasharray:146 148;stroke-dashoffset:147;animation:VOJRUEYx_draw 2000ms ease-in-out 112ms forwards;}.VOJRUEYx_11{stroke-dasharray:68 70;stroke-dashoffset:69;animation:VOJRUEYx_draw 2000ms ease-in-out 123ms forwards;}.VOJRUEYx_12{stroke-dasharray:56 58;stroke-dashoffset:57;animation:VOJRUEYx_draw 2000ms ease-in-out 134ms forwards;}.VOJRUEYx_13{stroke-dasharray:40 42;stroke-dashoffset:41;animation:VOJRUEYx_draw 2000ms ease-in-out 146ms forwards;}.VOJRUEYx_14{stroke-dasharray:44 46;stroke-dashoffset:45;animation:VOJRUEYx_draw 2000ms ease-in-out 157ms forwards;}.VOJRUEYx_15{stroke-dasharray:44 46;stroke-dashoffset:45;animation:VOJRUEYx_draw 2000ms ease-in-out 168ms forwards;}.VOJRUEYx_16{stroke-dasharray:44 46;stroke-dashoffset:45;animation:VOJRUEYx_draw 2000ms ease-in-out 179ms forwards;}.VOJRUEYx_17{stroke-dasharray:44 46;stroke-dashoffset:45;animation:VOJRUEYx_draw 2000ms ease-in-out 191ms forwards;}.VOJRUEYx_18{stroke-dasharray:44 46;stroke-dashoffset:45;animation:VOJRUEYx_draw 2000ms ease-in-out 202ms forwards;}.VOJRUEYx_19{stroke-dasharray:44 46;stroke-dashoffset:45;animation:VOJRUEYx_draw 2000ms ease-in-out 213ms forwards;}.VOJRUEYx_20{stroke-dasharray:44 46;stroke-dashoffset:45;animation:VOJRUEYx_draw 2000ms ease-in-out 224ms forwards;}.VOJRUEYx_21{stroke-dasharray:44 46;stroke-dashoffset:45;animation:VOJRUEYx_draw 2000ms ease-in-out 235ms forwards;}.VOJRUEYx_22{stroke-dasharray:44 46;stroke-dashoffset:45;animation:VOJRUEYx_draw 2000ms ease-in-out 247ms forwards;}.VOJRUEYx_23{stroke-dasharray:44 46;stroke-dashoffset:45;animation:VOJRUEYx_draw 2000ms ease-in-out 258ms forwards;}.VOJRUEYx_24{stroke-dasharray:44 46;stroke-dashoffset:45;animation:VOJRUEYx_draw 2000ms ease-in-out 269ms forwards;}.VOJRUEYx_25{stroke-dasharray:44 46;stroke-dashoffset:45;animation:VOJRUEYx_draw 2000ms ease-in-out 280ms forwards;}.VOJRUEYx_26{stroke-dasharray:44 46;stroke-dashoffset:45;animation:VOJRUEYx_draw 2000ms ease-in-out 292ms forwards;}.VOJRUEYx_27{stroke-dasharray:44 46;stroke-dashoffset:45;animation:VOJRUEYx_draw 2000ms ease-in-out 303ms forwards;}.VOJRUEYx_28{stroke-dasharray:44 46;stroke-dashoffset:45;animation:VOJRUEYx_draw 2000ms ease-in-out 314ms forwards;}.VOJRUEYx_29{stroke-dasharray:44 46;stroke-dashoffset:45;animation:VOJRUEYx_draw 2000ms ease-in-out 325ms forwards;}.VOJRUEYx_30{stroke-dasharray:44 46;stroke-dashoffset:45;animation:VOJRUEYx_draw 2000ms ease-in-out 337ms forwards;}.VOJRUEYx_31{stroke-dasharray:44 46;stroke-dashoffset:45;animation:VOJRUEYx_draw 2000ms ease-in-out 348ms forwards;}.VOJRUEYx_32{stroke-dasharray:44 46;stroke-dashoffset:45;animation:VOJRUEYx_draw 2000ms ease-in-out 359ms forwards;}.VOJRUEYx_33{stroke-dasharray:44 46;stroke-dashoffset:45;animation:VOJRUEYx_draw 2000ms ease-in-out 370ms forwards;}.VOJRUEYx_34{stroke-dasharray:44 46;stroke-dashoffset:45;animation:VOJRUEYx_draw 2000ms ease-in-out 382ms forwards;}.VOJRUEYx_35{stroke-dasharray:44 46;stroke-dashoffset:45;animation:VOJRUEYx_draw 2000ms ease-in-out 393ms forwards;}.VOJRUEYx_36{stroke-dasharray:44 46;stroke-dashoffset:45;animation:VOJRUEYx_draw 2000ms ease-in-out 404ms forwards;}.VOJRUEYx_37{stroke-dasharray:44 46;stroke-dashoffset:45;animation:VOJRUEYx_draw 2000ms ease-in-out 415ms forwards;}.VOJRUEYx_38{stroke-dasharray:44 46;stroke-dashoffset:45;animation:VOJRUEYx_draw 2000ms ease-in-out 426ms forwards;}.VOJRUEYx_39{stroke-dasharray:44 46;stroke-dashoffset:45;animation:VOJRUEYx_draw 2000ms ease-in-out 438ms forwards;}.VOJRUEYx_40{stroke-dasharray:44 46;stroke-dashoffset:45;animation:VOJRUEYx_draw 2000ms ease-in-out 449ms forwards;}.VOJRUEYx_41{stroke-dasharray:44 46;stroke-dashoffset:45;animation:VOJRUEYx_draw 2000ms ease-in-out 460ms forwards;}.VOJRUEYx_42{stroke-dasharray:44 46;stroke-dashoffset:45;animation:VOJRUEYx_draw 2000ms ease-in-out 471ms forwards;}.VOJRUEYx_43{stroke-dasharray:44 46;stroke-dashoffset:45;animation:VOJRUEYx_draw 2000ms ease-in-out 483ms forwards;}.VOJRUEYx_44{stroke-dasharray:44 46;stroke-dashoffset:45;animation:VOJRUEYx_draw 2000ms ease-in-out 494ms forwards;}.VOJRUEYx_45{stroke-dasharray:44 46;stroke-dashoffset:45;animation:VOJRUEYx_draw 2000ms ease-in-out 505ms forwards;}.VOJRUEYx_46{stroke-dasharray:44 46;stroke-dashoffset:45;animation:VOJRUEYx_draw 2000ms ease-in-out 516ms forwards;}.VOJRUEYx_47{stroke-dasharray:44 46;stroke-dashoffset:45;animation:VOJRUEYx_draw 2000ms ease-in-out 528ms forwards;}.VOJRUEYx_48{stroke-dasharray:44 46;stroke-dashoffset:45;animation:VOJRUEYx_draw 2000ms ease-in-out 539ms forwards;}.VOJRUEYx_49{stroke-dasharray:44 46;stroke-dashoffset:45;animation:VOJRUEYx_draw 2000ms ease-in-out 550ms forwards;}.VOJRUEYx_50{stroke-dasharray:44 46;stroke-dashoffset:45;animation:VOJRUEYx_draw 2000ms ease-in-out 561ms forwards;}.VOJRUEYx_51{stroke-dasharray:44 46;stroke-dashoffset:45;animation:VOJRUEYx_draw 2000ms ease-in-out 573ms forwards;}.VOJRUEYx_52{stroke-dasharray:44 46;stroke-dashoffset:45;animation:VOJRUEYx_draw 2000ms ease-in-out 584ms forwards;}.VOJRUEYx_53{stroke-dasharray:44 46;stroke-dashoffset:45;animation:VOJRUEYx_draw 2000ms ease-in-out 595ms forwards;}.VOJRUEYx_54{stroke-dasharray:44 46;stroke-dashoffset:45;animation:VOJRUEYx_draw 2000ms ease-in-out 606ms forwards;}.VOJRUEYx_55{stroke-dasharray:44 46;stroke-dashoffset:45;animation:VOJRUEYx_draw 2000ms ease-in-out 617ms forwards;}.VOJRUEYx_56{stroke-dasharray:44 46;stroke-dashoffset:45;animation:VOJRUEYx_draw 2000ms ease-in-out 629ms forwards;}.VOJRUEYx_57{stroke-dasharray:44 46;stroke-dashoffset:45;animation:VOJRUEYx_draw 2000ms ease-in-out 640ms forwards;}.VOJRUEYx_58{stroke-dasharray:44 46;stroke-dashoffset:45;animation:VOJRUEYx_draw 2000ms ease-in-out 651ms forwards;}.VOJRUEYx_59{stroke-dasharray:44 46;stroke-dashoffset:45;animation:VOJRUEYx_draw 2000ms ease-in-out 662ms forwards;}.VOJRUEYx_60{stroke-dasharray:44 46;stroke-dashoffset:45;animation:VOJRUEYx_draw 2000ms ease-in-out 674ms forwards;}.VOJRUEYx_61{stroke-dasharray:44 46;stroke-dashoffset:45;animation:VOJRUEYx_draw 2000ms ease-in-out 685ms forwards;}.VOJRUEYx_62{stroke-dasharray:44 46;stroke-dashoffset:45;animation:VOJRUEYx_draw 2000ms ease-in-out 696ms forwards;}.VOJRUEYx_63{stroke-dasharray:44 46;stroke-dashoffset:45;animation:VOJRUEYx_draw 2000ms ease-in-out 707ms forwards;}.VOJRUEYx_64{stroke-dasharray:44 46;stroke-dashoffset:45;animation:VOJRUEYx_draw 2000ms ease-in-out 719ms forwards;}.VOJRUEYx_65{stroke-dasharray:44 46;stroke-dashoffset:45;animation:VOJRUEYx_draw 2000ms ease-in-out 730ms forwards;}.VOJRUEYx_66{stroke-dasharray:44 46;stroke-dashoffset:45;animation:VOJRUEYx_draw 2000ms ease-in-out 741ms forwards;}.VOJRUEYx_67{stroke-dasharray:44 46;stroke-dashoffset:45;animation:VOJRUEYx_draw 2000ms ease-in-out 752ms forwards;}.VOJRUEYx_68{stroke-dasharray:44 46;stroke-dashoffset:45;animation:VOJRUEYx_draw 2000ms ease-in-out 764ms forwards;}.VOJRUEYx_69{stroke-dasharray:44 46;stroke-dashoffset:45;animation:VOJRUEYx_draw 2000ms ease-in-out 775ms forwards;}.VOJRUEYx_70{stroke-dasharray:44 46;stroke-dashoffset:45;animation:VOJRUEYx_draw 2000ms ease-in-out 786ms forwards;}.VOJRUEYx_71{stroke-dasharray:44 46;stroke-dashoffset:45;animation:VOJRUEYx_draw 2000ms ease-in-out 797ms forwards;}.VOJRUEYx_72{stroke-dasharray:44 46;stroke-dashoffset:45;animation:VOJRUEYx_draw 2000ms ease-in-out 808ms forwards;}.VOJRUEYx_73{stroke-dasharray:44 46;stroke-dashoffset:45;animation:VOJRUEYx_draw 2000ms ease-in-out 820ms forwards;}.VOJRUEYx_74{stroke-dasharray:44 46;stroke-dashoffset:45;animation:VOJRUEYx_draw 2000ms ease-in-out 831ms forwards;}.VOJRUEYx_75{stroke-dasharray:44 46;stroke-dashoffset:45;animation:VOJRUEYx_draw 2000ms ease-in-out 842ms forwards;}.VOJRUEYx_76{stroke-dasharray:44 46;stroke-dashoffset:45;animation:VOJRUEYx_draw 2000ms ease-in-out 853ms forwards;}.VOJRUEYx_77{stroke-dasharray:44 46;stroke-dashoffset:45;animation:VOJRUEYx_draw 2000ms ease-in-out 865ms forwards;}.VOJRUEYx_78{stroke-dasharray:44 46;stroke-dashoffset:45;animation:VOJRUEYx_draw 2000ms ease-in-out 876ms forwards;}.VOJRUEYx_79{stroke-dasharray:44 46;stroke-dashoffset:45;animation:VOJRUEYx_draw 2000ms ease-in-out 887ms forwards;}.VOJRUEYx_80{stroke-dasharray:44 46;stroke-dashoffset:45;animation:VOJRUEYx_draw 2000ms ease-in-out 898ms forwards;}.VOJRUEYx_81{stroke-dasharray:44 46;stroke-dashoffset:45;animation:VOJRUEYx_draw 2000ms ease-in-out 910ms forwards;}.VOJRUEYx_82{stroke-dasharray:44 46;stroke-dashoffset:45;animation:VOJRUEYx_draw 2000ms ease-in-out 921ms forwards;}.VOJRUEYx_83{stroke-dasharray:44 46;stroke-dashoffset:45;animation:VOJRUEYx_draw 2000ms ease-in-out 932ms forwards;}.VOJRUEYx_84{stroke-dasharray:44 46;stroke-dashoffset:45;animation:VOJRUEYx_draw 2000ms ease-in-out 943ms forwards;}.VOJRUEYx_85{stroke-dasharray:44 46;stroke-dashoffset:45;animation:VOJRUEYx_draw 2000ms ease-in-out 955ms forwards;}.VOJRUEYx_86{stroke-dasharray:252 254;stroke-dashoffset:253;animation:VOJRUEYx_draw 2000ms ease-in-out 966ms forwards;}.VOJRUEYx_87{stroke-dasharray:69 71;stroke-dashoffset:70;animation:VOJRUEYx_draw 2000ms ease-in-out 977ms forwards;}.VOJRUEYx_88{stroke-dasharray:486 488;stroke-dashoffset:487;animation:VOJRUEYx_draw 2000ms ease-in-out 988ms forwards;}.VOJRUEYx_89{stroke-dasharray:202 204;stroke-dashoffset:203;animation:VOJRUEYx_draw 2000ms ease-in-out 1000ms forwards;}@keyframes VOJRUEYx_draw{100%{stroke-dashoffset:0;}}@keyframes VOJRUEYx_fade{0%{stroke-opacity:1;}94.44444444444444%{stroke-opacity:1;}100%{stroke-opacity:0;}}</style></svg>
