<svg width="359" height="267" viewBox="0 0 359 267" fill="none" xmlns="http://www.w3.org/2000/svg" style="">
<path d="M111.129 178.134C111.129 178.134 103.399 164.57 102.494 154.314" stroke="#0088FF" stroke-width="0.933403" class="oGQkjsWf_0"></path>
<path d="M324.233 176.025C287.491 224.695 220.515 235.92 174.639 201.098C128.763 166.276 121.358 98.5927 158.101 49.9236" stroke="white" stroke-width="4.66702" class="oGQkjsWf_1"></path>
<path d="M263.486 187.398C226.981 203.615 184.436 187.45 168.46 151.292C152.484 115.134 169.127 72.6757 205.632 56.4586" stroke="white" stroke-width="4.66702" class="oGQkjsWf_2"></path>
<path d="M217.398 208.463C168.249 197.003 137.672 147.761 149.102 98.4785" stroke="#0088FF" stroke-width="8.40063" stroke-linejoin="round" class="oGQkjsWf_3"></path>
<path d="M271.939 31.0888C320.187 45.9076 347.319 97.1391 332.54 145.518" stroke="white" stroke-width="8.40063" stroke-linejoin="round" class="oGQkjsWf_4"></path>
<path d="M153.058 156.961L97.3495 185.395L102.845 196.187" stroke="#0088FF" stroke-width="0.933403" class="oGQkjsWf_5"></path>
<path d="M100.909 212.64C103.263 217.263 108.909 219.096 113.517 216.737C118.126 214.377 119.955 208.717 117.601 204.094C115.247 199.47 109.601 197.637 104.993 199.997C100.385 202.356 98.5548 208.016 100.909 212.64Z" stroke="#0088FF" stroke-width="1.4001" class="oGQkjsWf_6"></path>
<path d="M97.6472 214.309C100.921 220.739 108.772 223.288 115.182 220.006C121.591 216.725 124.136 208.853 120.862 202.424C117.588 195.995 109.737 193.445 103.327 196.727C96.9179 200.008 94.3733 207.88 97.6472 214.309Z" stroke="#0088FF" stroke-width="1.4001" class="oGQkjsWf_7"></path>
<path d="M280 237.625L194.477 237.625L202.438 217.879" stroke="white" stroke-width="4.66702" class="oGQkjsWf_8"></path>
<path d="M286.782 244L286.782 267" stroke="white" stroke-width="4.66702" class="oGQkjsWf_9"></path>
<path d="M277.705 250.278C284.257 255.382 293.695 254.194 298.785 247.623C303.875 241.052 302.69 231.589 296.138 226.485C289.586 221.382 280.148 222.57 275.057 229.141C269.967 235.711 271.153 245.175 277.705 250.278Z" stroke="white" stroke-width="1.4001" class="oGQkjsWf_10"></path>
<path d="M282.468 242.639C285.5 245.001 289.87 244.452 292.227 241.409C294.584 238.367 294.035 233.986 291.002 231.623C287.969 229.261 283.6 229.81 281.242 232.853C278.885 235.896 279.435 240.277 282.468 242.639Z" stroke="white" stroke-width="2.33351" class="oGQkjsWf_11"></path>
<path d="M104.169 210.97C105.604 213.788 109.043 214.904 111.85 213.467C114.657 212.029 115.773 208.581 114.338 205.764C112.903 202.947 109.464 201.83 106.657 203.268C103.85 204.705 102.735 208.153 104.169 210.97Z" stroke="#0088FF" stroke-width="1.4001" class="oGQkjsWf_12"></path>
<path d="M98.3844 151.676C99.4174 153.705 101.894 154.509 103.916 153.474C105.937 152.439 106.74 149.956 105.707 147.927C104.674 145.898 102.197 145.094 100.176 146.129C98.1544 147.164 97.3513 149.647 98.3844 151.676Z" stroke="#0088FF" stroke-width="0.933403" class="oGQkjsWf_13"></path>
<path d="M238.778 63.9433L238.703 35.4915" stroke="white" stroke-width="0.466702" class="oGQkjsWf_14"></path>
<path d="M239.156 206.768L239.081 178.316" stroke="white" stroke-width="0.466702" class="oGQkjsWf_15"></path>
<path d="M233.79 64.163L231.233 35.8195" stroke="white" stroke-width="0.466702" class="oGQkjsWf_16"></path>
<path d="M246.622 206.444L244.065 178.1" stroke="white" stroke-width="0.466702" class="oGQkjsWf_17"></path>
<path d="M228.844 64.8129L223.826 36.7933" stroke="white" stroke-width="0.466702" class="oGQkjsWf_18"></path>
<path d="M254.032 205.468L249.015 177.448" stroke="white" stroke-width="0.466702" class="oGQkjsWf_19"></path>
<path d="M223.976 65.8924L216.535 38.41" stroke="white" stroke-width="0.466702" class="oGQkjsWf_20"></path>
<path d="M261.325 203.852L253.884 176.37" stroke="white" stroke-width="0.466702" class="oGQkjsWf_21"></path>
<path d="M219.217 67.3933L209.409 40.6572" stroke="white" stroke-width="0.466702" class="oGQkjsWf_22"></path>
<path d="M268.449 201.605L258.642 174.869" stroke="white" stroke-width="0.466702" class="oGQkjsWf_23"></path>
<path d="M214.61 69.3019L202.511 43.5157" stroke="white" stroke-width="0.466702" class="oGQkjsWf_24"></path>
<path d="M275.349 198.744L263.249 172.958" stroke="white" stroke-width="0.466702" class="oGQkjsWf_25"></path>
<path d="M210.188 71.6057L195.889 46.9656" stroke="white" stroke-width="0.466702" class="oGQkjsWf_26"></path>
<path d="M281.97 195.295L267.671 170.655" stroke="white" stroke-width="0.466702" class="oGQkjsWf_27"></path>
<path d="M205.984 74.2865L189.594 50.98" stroke="white" stroke-width="0.466702" class="oGQkjsWf_28"></path>
<path d="M288.264 191.281L271.873 167.975" stroke="white" stroke-width="0.466702" class="oGQkjsWf_29"></path>
<path d="M202.033 77.3243L183.676 55.5288" stroke="white" stroke-width="0.466702" class="oGQkjsWf_30"></path>
<path d="M294.182 186.735L275.825 164.939" stroke="white" stroke-width="0.466702" class="oGQkjsWf_31"></path>
<path d="M198.362 80.6926L178.179 60.574" stroke="white" stroke-width="0.466702" class="oGQkjsWf_32"></path>
<path d="M299.68 181.687L279.496 161.569" stroke="white" stroke-width="0.466702" class="oGQkjsWf_33"></path>
<path d="M194.998 84.3725L173.142 66.0839" stroke="white" stroke-width="0.466702" class="oGQkjsWf_34"></path>
<path d="M304.716 176.178L282.859 157.889" stroke="white" stroke-width="0.466702" class="oGQkjsWf_35"></path>
<path d="M191.971 88.331L168.607 72.0117" stroke="white" stroke-width="0.466702" class="oGQkjsWf_36"></path>
<path d="M309.25 170.252L285.887 153.932" stroke="white" stroke-width="0.466702" class="oGQkjsWf_37"></path>
<path d="M189.3 92.5365L164.607 78.3104" stroke="white" stroke-width="0.466702" class="oGQkjsWf_38"></path>
<path d="M313.252 163.949L288.56 149.723" stroke="white" stroke-width="0.466702" class="oGQkjsWf_39"></path>
<path d="M187.007 96.9623L161.174 84.9379" stroke="white" stroke-width="0.466702" class="oGQkjsWf_40"></path>
<path d="M316.687 157.322L290.854 145.297" stroke="white" stroke-width="0.466702" class="oGQkjsWf_41"></path>
<path d="M185.108 101.572L158.33 91.8409" stroke="white" stroke-width="0.466702" class="oGQkjsWf_42"></path>
<path d="M319.528 150.421L292.75 140.689" stroke="white" stroke-width="0.466702" class="oGQkjsWf_43"></path>
<path d="M183.621 106.327L156.103 98.9629" stroke="white" stroke-width="0.466702" class="oGQkjsWf_44"></path>
<path d="M321.756 143.297L294.237 135.933" stroke="white" stroke-width="0.466702" class="oGQkjsWf_45"></path>
<path d="M182.552 111.197L154.504 106.257" stroke="white" stroke-width="0.466702" class="oGQkjsWf_46"></path>
<path d="M323.354 136.003L295.306 131.062" stroke="white" stroke-width="0.466702" class="oGQkjsWf_47"></path>
<path d="M181.913 116.146L153.547 113.666" stroke="white" stroke-width="0.466702" class="oGQkjsWf_48"></path>
<path d="M324.31 128.594L295.944 126.114" stroke="white" stroke-width="0.466702" class="oGQkjsWf_49"></path>
<path d="M181.709 121.129L153.241 121.129" stroke="white" stroke-width="0.466702" class="oGQkjsWf_50"></path>
<path d="M324.617 121.129L296.149 121.129" stroke="white" stroke-width="0.466702" class="oGQkjsWf_51"></path>
<path d="M181.939 126.113L153.586 128.592" stroke="white" stroke-width="0.466702" class="oGQkjsWf_52"></path>
<path d="M324.271 113.667L295.918 116.147" stroke="white" stroke-width="0.466702" class="oGQkjsWf_53"></path>
<path d="M182.604 131.061L154.582 136.002" stroke="white" stroke-width="0.466702" class="oGQkjsWf_54"></path>
<path d="M323.276 106.26L295.254 111.2" stroke="white" stroke-width="0.466702" class="oGQkjsWf_55"></path>
<path d="M183.698 135.929L156.219 143.292" stroke="white" stroke-width="0.466702" class="oGQkjsWf_56"></path>
<path d="M321.64 98.9642L294.16 106.328" stroke="white" stroke-width="0.466702" class="oGQkjsWf_57"></path>
<path d="M185.213 140.688L158.486 150.42" stroke="white" stroke-width="0.466702" class="oGQkjsWf_58"></path>
<path d="M319.374 91.8393L292.647 101.571" stroke="white" stroke-width="0.466702" class="oGQkjsWf_59"></path>
<path d="M187.134 145.298L161.364 157.323" stroke="white" stroke-width="0.466702" class="oGQkjsWf_60"></path>
<path d="M316.492 84.9395L290.723 96.9639" stroke="white" stroke-width="0.466702" class="oGQkjsWf_61"></path>
<path d="M189.451 149.723L164.834 163.949" stroke="white" stroke-width="0.466702" class="oGQkjsWf_62"></path>
<path d="M313.025 78.3107L288.408 92.5367" stroke="white" stroke-width="0.466702" class="oGQkjsWf_63"></path>
<path d="M192.143 153.93L168.866 170.249" stroke="white" stroke-width="0.466702" class="oGQkjsWf_64"></path>
<path d="M308.992 72.0098L285.715 88.3292" stroke="white" stroke-width="0.466702" class="oGQkjsWf_65"></path>
<path d="M195.193 157.886L173.433 176.175" stroke="white" stroke-width="0.466702" class="oGQkjsWf_66"></path>
<path d="M304.427 66.0806L282.667 84.3693" stroke="white" stroke-width="0.466702" class="oGQkjsWf_67"></path>
<path d="M198.576 161.566L178.499 181.685" stroke="white" stroke-width="0.466702" class="oGQkjsWf_68"></path>
<path d="M299.361 60.5731L279.284 80.6918" stroke="white" stroke-width="0.466702" class="oGQkjsWf_69"></path>
<path d="M202.265 164.937L184.023 186.732" stroke="white" stroke-width="0.466702" class="oGQkjsWf_70"></path>
<path d="M293.835 55.5263L275.594 77.3218" stroke="white" stroke-width="0.466702" class="oGQkjsWf_71"></path>
<path d="M206.234 167.974L189.967 191.28" stroke="white" stroke-width="0.466702" class="oGQkjsWf_72"></path>
<path d="M287.894 50.9784L271.627 74.2849" stroke="white" stroke-width="0.466702" class="oGQkjsWf_73"></path>
<path d="M210.449 170.656L196.28 195.296" stroke="white" stroke-width="0.466702" class="oGQkjsWf_74"></path>
<path d="M281.575 46.9673L267.406 71.6074" stroke="white" stroke-width="0.466702" class="oGQkjsWf_75"></path>
<path d="M214.884 172.959L202.921 198.745" stroke="white" stroke-width="0.466702" class="oGQkjsWf_76"></path>
<path d="M274.937 43.5156L262.974 69.3018" stroke="white" stroke-width="0.466702" class="oGQkjsWf_77"></path>
<path d="M219.5 174.867L209.834 201.603" stroke="white" stroke-width="0.466702" class="oGQkjsWf_78"></path>
<path d="M268.024 40.6552L258.358 67.3912" stroke="white" stroke-width="0.466702" class="oGQkjsWf_79"></path>
<path d="M224.266 176.367L216.971 203.85" stroke="white" stroke-width="0.466702" class="oGQkjsWf_80"></path>
<path d="M260.888 38.4093L253.593 65.8917" stroke="white" stroke-width="0.466702" class="oGQkjsWf_81"></path>
<path d="M229.142 177.447L224.272 205.467" stroke="white" stroke-width="0.466702" class="oGQkjsWf_82"></path>
<path d="M253.585 36.7924L248.716 64.812" stroke="white" stroke-width="0.466702" class="oGQkjsWf_83"></path>
<path d="M234.093 178.099L231.687 206.442" stroke="white" stroke-width="0.466702" class="oGQkjsWf_84"></path>
<path d="M246.172 35.8178L243.766 64.1614" stroke="white" stroke-width="0.466702" class="oGQkjsWf_85"></path>
<path d="M226.909 146.53H253.266C255.586 146.53 257.467 144.667 257.467 142.347C257.467 132.14 257.467 106.739 257.467 106.04C257.467 105.821 252.447 105.821 252.447 105.821C252.447 105.821 252.447 105.821 252.447 105.821H250.099C247.779 105.821 245.898 103.942 245.898 101.622C245.898 98.5894 245.898 95.0039 245.898 94.8783M245.898 94.8783C245.898 94.7081 225.972 94.8026 217.106 94.853C214.798 94.8662 212.939 96.7419 212.939 99.0508V130.675M245.898 94.8783L257.467 105.821M247.645 113.263H222.98M247.645 121.58H222.98M247.645 129.021H222.98M247.645 136.244H222.98M212.939 135.052V158.251M222.98 146.53H202.681" stroke="white" stroke-width="1.86681" class="oGQkjsWf_86"></path>
<path d="M257.685 135.586H266.8C269.119 135.586 271 133.723 271 131.403C271 121.196 271 95.7953 271 95.0962C271 94.8774 265.98 94.8774 265.98 94.8774C265.98 94.8774 265.98 94.8774 265.98 94.8774H263.632C261.312 94.8774 259.432 92.998 259.432 90.6782C259.432 87.6454 259.432 84.0598 259.432 83.9342M259.432 83.9342C259.432 83.764 239.505 83.8585 230.64 83.9089C228.331 83.9221 226.473 85.7978 226.473 88.1067V94.8774M259.432 83.9342L271 94.8774" stroke="white" stroke-width="1.86681" class="oGQkjsWf_87"></path>
<style data-made-with="vivus-instant">.oGQkjsWf_0{stroke-dasharray:26 28;stroke-dashoffset:27;animation:oGQkjsWf_draw 2000ms ease-in-out 0ms forwards;}.oGQkjsWf_1{stroke-dasharray:338 340;stroke-dashoffset:339;animation:oGQkjsWf_draw 2000ms ease-in-out 11ms forwards;}.oGQkjsWf_2{stroke-dasharray:227 229;stroke-dashoffset:228;animation:oGQkjsWf_draw 2000ms ease-in-out 22ms forwards;}.oGQkjsWf_3{stroke-dasharray:144 146;stroke-dashoffset:145;animation:oGQkjsWf_draw 2000ms ease-in-out 34ms forwards;}.oGQkjsWf_4{stroke-dasharray:144 146;stroke-dashoffset:145;animation:oGQkjsWf_draw 2000ms ease-in-out 45ms forwards;}.oGQkjsWf_5{stroke-dasharray:75 77;stroke-dashoffset:76;animation:oGQkjsWf_draw 2000ms ease-in-out 57ms forwards;}.oGQkjsWf_6{stroke-dasharray:59 61;stroke-dashoffset:60;animation:oGQkjsWf_draw 2000ms ease-in-out 68ms forwards;}.oGQkjsWf_7{stroke-dasharray:83 85;stroke-dashoffset:84;animation:oGQkjsWf_draw 2000ms ease-in-out 80ms forwards;}.oGQkjsWf_8{stroke-dasharray:107 109;stroke-dashoffset:108;animation:oGQkjsWf_draw 2000ms ease-in-out 91ms forwards;}.oGQkjsWf_9{stroke-dasharray:23 25;stroke-dashoffset:24;animation:oGQkjsWf_draw 2000ms ease-in-out 103ms forwards;}.oGQkjsWf_10{stroke-dasharray:95 97;stroke-dashoffset:96;animation:oGQkjsWf_draw 2000ms ease-in-out 114ms forwards;}.oGQkjsWf_11{stroke-dasharray:44 46;stroke-dashoffset:45;animation:oGQkjsWf_draw 2000ms ease-in-out 126ms forwards;}.oGQkjsWf_12{stroke-dasharray:36 38;stroke-dashoffset:37;animation:oGQkjsWf_draw 2000ms ease-in-out 137ms forwards;}.oGQkjsWf_13{stroke-dasharray:26 28;stroke-dashoffset:27;animation:oGQkjsWf_draw 2000ms ease-in-out 149ms forwards;}.oGQkjsWf_14{stroke-dasharray:29 31;stroke-dashoffset:30;animation:oGQkjsWf_draw 2000ms ease-in-out 160ms forwards;}.oGQkjsWf_15{stroke-dasharray:29 31;stroke-dashoffset:30;animation:oGQkjsWf_draw 2000ms ease-in-out 172ms forwards;}.oGQkjsWf_16{stroke-dasharray:29 31;stroke-dashoffset:30;animation:oGQkjsWf_draw 2000ms ease-in-out 183ms forwards;}.oGQkjsWf_17{stroke-dasharray:29 31;stroke-dashoffset:30;animation:oGQkjsWf_draw 2000ms ease-in-out 195ms forwards;}.oGQkjsWf_18{stroke-dasharray:29 31;stroke-dashoffset:30;animation:oGQkjsWf_draw 2000ms ease-in-out 206ms forwards;}.oGQkjsWf_19{stroke-dasharray:29 31;stroke-dashoffset:30;animation:oGQkjsWf_draw 2000ms ease-in-out 218ms forwards;}.oGQkjsWf_20{stroke-dasharray:29 31;stroke-dashoffset:30;animation:oGQkjsWf_draw 2000ms ease-in-out 229ms forwards;}.oGQkjsWf_21{stroke-dasharray:29 31;stroke-dashoffset:30;animation:oGQkjsWf_draw 2000ms ease-in-out 241ms forwards;}.oGQkjsWf_22{stroke-dasharray:29 31;stroke-dashoffset:30;animation:oGQkjsWf_draw 2000ms ease-in-out 252ms forwards;}.oGQkjsWf_23{stroke-dasharray:29 31;stroke-dashoffset:30;animation:oGQkjsWf_draw 2000ms ease-in-out 264ms forwards;}.oGQkjsWf_24{stroke-dasharray:29 31;stroke-dashoffset:30;animation:oGQkjsWf_draw 2000ms ease-in-out 275ms forwards;}.oGQkjsWf_25{stroke-dasharray:29 31;stroke-dashoffset:30;animation:oGQkjsWf_draw 2000ms ease-in-out 287ms forwards;}.oGQkjsWf_26{stroke-dasharray:29 31;stroke-dashoffset:30;animation:oGQkjsWf_draw 2000ms ease-in-out 298ms forwards;}.oGQkjsWf_27{stroke-dasharray:29 31;stroke-dashoffset:30;animation:oGQkjsWf_draw 2000ms ease-in-out 310ms forwards;}.oGQkjsWf_28{stroke-dasharray:29 31;stroke-dashoffset:30;animation:oGQkjsWf_draw 2000ms ease-in-out 321ms forwards;}.oGQkjsWf_29{stroke-dasharray:29 31;stroke-dashoffset:30;animation:oGQkjsWf_draw 2000ms ease-in-out 333ms forwards;}.oGQkjsWf_30{stroke-dasharray:29 31;stroke-dashoffset:30;animation:oGQkjsWf_draw 2000ms ease-in-out 344ms forwards;}.oGQkjsWf_31{stroke-dasharray:29 31;stroke-dashoffset:30;animation:oGQkjsWf_draw 2000ms ease-in-out 356ms forwards;}.oGQkjsWf_32{stroke-dasharray:29 31;stroke-dashoffset:30;animation:oGQkjsWf_draw 2000ms ease-in-out 367ms forwards;}.oGQkjsWf_33{stroke-dasharray:29 31;stroke-dashoffset:30;animation:oGQkjsWf_draw 2000ms ease-in-out 379ms forwards;}.oGQkjsWf_34{stroke-dasharray:29 31;stroke-dashoffset:30;animation:oGQkjsWf_draw 2000ms ease-in-out 390ms forwards;}.oGQkjsWf_35{stroke-dasharray:29 31;stroke-dashoffset:30;animation:oGQkjsWf_draw 2000ms ease-in-out 402ms forwards;}.oGQkjsWf_36{stroke-dasharray:29 31;stroke-dashoffset:30;animation:oGQkjsWf_draw 2000ms ease-in-out 413ms forwards;}.oGQkjsWf_37{stroke-dasharray:29 31;stroke-dashoffset:30;animation:oGQkjsWf_draw 2000ms ease-in-out 425ms forwards;}.oGQkjsWf_38{stroke-dasharray:29 31;stroke-dashoffset:30;animation:oGQkjsWf_draw 2000ms ease-in-out 436ms forwards;}.oGQkjsWf_39{stroke-dasharray:29 31;stroke-dashoffset:30;animation:oGQkjsWf_draw 2000ms ease-in-out 448ms forwards;}.oGQkjsWf_40{stroke-dasharray:29 31;stroke-dashoffset:30;animation:oGQkjsWf_draw 2000ms ease-in-out 459ms forwards;}.oGQkjsWf_41{stroke-dasharray:29 31;stroke-dashoffset:30;animation:oGQkjsWf_draw 2000ms ease-in-out 471ms forwards;}.oGQkjsWf_42{stroke-dasharray:29 31;stroke-dashoffset:30;animation:oGQkjsWf_draw 2000ms ease-in-out 482ms forwards;}.oGQkjsWf_43{stroke-dasharray:29 31;stroke-dashoffset:30;animation:oGQkjsWf_draw 2000ms ease-in-out 494ms forwards;}.oGQkjsWf_44{stroke-dasharray:29 31;stroke-dashoffset:30;animation:oGQkjsWf_draw 2000ms ease-in-out 505ms forwards;}.oGQkjsWf_45{stroke-dasharray:29 31;stroke-dashoffset:30;animation:oGQkjsWf_draw 2000ms ease-in-out 517ms forwards;}.oGQkjsWf_46{stroke-dasharray:29 31;stroke-dashoffset:30;animation:oGQkjsWf_draw 2000ms ease-in-out 528ms forwards;}.oGQkjsWf_47{stroke-dasharray:29 31;stroke-dashoffset:30;animation:oGQkjsWf_draw 2000ms ease-in-out 540ms forwards;}.oGQkjsWf_48{stroke-dasharray:29 31;stroke-dashoffset:30;animation:oGQkjsWf_draw 2000ms ease-in-out 551ms forwards;}.oGQkjsWf_49{stroke-dasharray:29 31;stroke-dashoffset:30;animation:oGQkjsWf_draw 2000ms ease-in-out 563ms forwards;}.oGQkjsWf_50{stroke-dasharray:29 31;stroke-dashoffset:30;animation:oGQkjsWf_draw 2000ms ease-in-out 574ms forwards;}.oGQkjsWf_51{stroke-dasharray:29 31;stroke-dashoffset:30;animation:oGQkjsWf_draw 2000ms ease-in-out 586ms forwards;}.oGQkjsWf_52{stroke-dasharray:29 31;stroke-dashoffset:30;animation:oGQkjsWf_draw 2000ms ease-in-out 597ms forwards;}.oGQkjsWf_53{stroke-dasharray:29 31;stroke-dashoffset:30;animation:oGQkjsWf_draw 2000ms ease-in-out 609ms forwards;}.oGQkjsWf_54{stroke-dasharray:29 31;stroke-dashoffset:30;animation:oGQkjsWf_draw 2000ms ease-in-out 620ms forwards;}.oGQkjsWf_55{stroke-dasharray:29 31;stroke-dashoffset:30;animation:oGQkjsWf_draw 2000ms ease-in-out 632ms forwards;}.oGQkjsWf_56{stroke-dasharray:29 31;stroke-dashoffset:30;animation:oGQkjsWf_draw 2000ms ease-in-out 643ms forwards;}.oGQkjsWf_57{stroke-dasharray:29 31;stroke-dashoffset:30;animation:oGQkjsWf_draw 2000ms ease-in-out 655ms forwards;}.oGQkjsWf_58{stroke-dasharray:29 31;stroke-dashoffset:30;animation:oGQkjsWf_draw 2000ms ease-in-out 666ms forwards;}.oGQkjsWf_59{stroke-dasharray:29 31;stroke-dashoffset:30;animation:oGQkjsWf_draw 2000ms ease-in-out 678ms forwards;}.oGQkjsWf_60{stroke-dasharray:29 31;stroke-dashoffset:30;animation:oGQkjsWf_draw 2000ms ease-in-out 689ms forwards;}.oGQkjsWf_61{stroke-dasharray:29 31;stroke-dashoffset:30;animation:oGQkjsWf_draw 2000ms ease-in-out 701ms forwards;}.oGQkjsWf_62{stroke-dasharray:29 31;stroke-dashoffset:30;animation:oGQkjsWf_draw 2000ms ease-in-out 712ms forwards;}.oGQkjsWf_63{stroke-dasharray:29 31;stroke-dashoffset:30;animation:oGQkjsWf_draw 2000ms ease-in-out 724ms forwards;}.oGQkjsWf_64{stroke-dasharray:29 31;stroke-dashoffset:30;animation:oGQkjsWf_draw 2000ms ease-in-out 735ms forwards;}.oGQkjsWf_65{stroke-dasharray:29 31;stroke-dashoffset:30;animation:oGQkjsWf_draw 2000ms ease-in-out 747ms forwards;}.oGQkjsWf_66{stroke-dasharray:29 31;stroke-dashoffset:30;animation:oGQkjsWf_draw 2000ms ease-in-out 758ms forwards;}.oGQkjsWf_67{stroke-dasharray:29 31;stroke-dashoffset:30;animation:oGQkjsWf_draw 2000ms ease-in-out 770ms forwards;}.oGQkjsWf_68{stroke-dasharray:29 31;stroke-dashoffset:30;animation:oGQkjsWf_draw 2000ms ease-in-out 781ms forwards;}.oGQkjsWf_69{stroke-dasharray:29 31;stroke-dashoffset:30;animation:oGQkjsWf_draw 2000ms ease-in-out 793ms forwards;}.oGQkjsWf_70{stroke-dasharray:29 31;stroke-dashoffset:30;animation:oGQkjsWf_draw 2000ms ease-in-out 804ms forwards;}.oGQkjsWf_71{stroke-dasharray:29 31;stroke-dashoffset:30;animation:oGQkjsWf_draw 2000ms ease-in-out 816ms forwards;}.oGQkjsWf_72{stroke-dasharray:29 31;stroke-dashoffset:30;animation:oGQkjsWf_draw 2000ms ease-in-out 827ms forwards;}.oGQkjsWf_73{stroke-dasharray:29 31;stroke-dashoffset:30;animation:oGQkjsWf_draw 2000ms ease-in-out 839ms forwards;}.oGQkjsWf_74{stroke-dasharray:29 31;stroke-dashoffset:30;animation:oGQkjsWf_draw 2000ms ease-in-out 850ms forwards;}.oGQkjsWf_75{stroke-dasharray:29 31;stroke-dashoffset:30;animation:oGQkjsWf_draw 2000ms ease-in-out 862ms forwards;}.oGQkjsWf_76{stroke-dasharray:29 31;stroke-dashoffset:30;animation:oGQkjsWf_draw 2000ms ease-in-out 873ms forwards;}.oGQkjsWf_77{stroke-dasharray:29 31;stroke-dashoffset:30;animation:oGQkjsWf_draw 2000ms ease-in-out 885ms forwards;}.oGQkjsWf_78{stroke-dasharray:29 31;stroke-dashoffset:30;animation:oGQkjsWf_draw 2000ms ease-in-out 896ms forwards;}.oGQkjsWf_79{stroke-dasharray:29 31;stroke-dashoffset:30;animation:oGQkjsWf_draw 2000ms ease-in-out 908ms forwards;}.oGQkjsWf_80{stroke-dasharray:29 31;stroke-dashoffset:30;animation:oGQkjsWf_draw 2000ms ease-in-out 919ms forwards;}.oGQkjsWf_81{stroke-dasharray:29 31;stroke-dashoffset:30;animation:oGQkjsWf_draw 2000ms ease-in-out 931ms forwards;}.oGQkjsWf_82{stroke-dasharray:29 31;stroke-dashoffset:30;animation:oGQkjsWf_draw 2000ms ease-in-out 942ms forwards;}.oGQkjsWf_83{stroke-dasharray:29 31;stroke-dashoffset:30;animation:oGQkjsWf_draw 2000ms ease-in-out 954ms forwards;}.oGQkjsWf_84{stroke-dasharray:29 31;stroke-dashoffset:30;animation:oGQkjsWf_draw 2000ms ease-in-out 965ms forwards;}.oGQkjsWf_85{stroke-dasharray:29 31;stroke-dashoffset:30;animation:oGQkjsWf_draw 2000ms ease-in-out 977ms forwards;}.oGQkjsWf_86{stroke-dasharray:316 318;stroke-dashoffset:317;animation:oGQkjsWf_draw 2000ms ease-in-out 988ms forwards;}.oGQkjsWf_87{stroke-dasharray:131 133;stroke-dashoffset:132;animation:oGQkjsWf_draw 2000ms ease-in-out 999ms forwards;}@keyframes oGQkjsWf_draw{100%{stroke-dashoffset:0;}}@keyframes oGQkjsWf_fade{0%{stroke-opacity:1;}94.44444444444444%{stroke-opacity:1;}100%{stroke-opacity:0;}}</style></svg>
