<svg width="435" height="288" viewBox="0 0 435 288" fill="none" xmlns="http://www.w3.org/2000/svg" style="">
<path d="M116.679 197.134C116.679 197.134 108.949 183.57 108.044 173.314" stroke="#0088FF" stroke-width="0.933403" class="FBPUkVBJ_0"></path>
<path d="M329.783 195.025C293.04 243.695 226.065 254.92 180.189 220.098C134.313 185.276 126.908 117.593 163.65 68.9236" stroke="white" stroke-width="4.66702" class="FBPUkVBJ_1"></path>
<path d="M269.036 206.398C232.531 222.615 189.986 206.45 174.01 170.292C158.034 134.134 174.676 91.6757 211.182 75.4586" stroke="white" stroke-width="4.66702" class="FBPUkVBJ_2"></path>
<path d="M222.948 227.463C173.8 216.003 143.222 166.761 154.652 117.479" stroke="#0088FF" stroke-width="8.40063" stroke-linejoin="round" class="FBPUkVBJ_3"></path>
<path d="M277.489 50.0888C325.737 64.9076 352.868 116.139 338.09 164.518" stroke="white" stroke-width="8.40063" stroke-linejoin="round" class="FBPUkVBJ_4"></path>
<path d="M158.608 175.961L102.899 204.395L108.395 215.187" stroke="#0088FF" stroke-width="0.933403" class="FBPUkVBJ_5"></path>
<path d="M103.198 233.309C106.472 239.739 114.323 242.288 120.732 239.006C127.142 235.725 129.686 227.853 126.413 221.424C123.139 214.995 115.288 212.445 108.878 215.727C102.469 219.008 99.9241 226.88 103.198 233.309Z" stroke="#0088FF" stroke-width="1.4001" class="FBPUkVBJ_6"></path>
<path d="M106.46 231.64C108.814 236.263 114.46 238.096 119.068 235.737C123.676 233.377 125.506 227.717 123.152 223.094C120.798 218.47 115.152 216.637 110.544 218.997C105.935 221.356 104.106 227.016 106.46 231.64Z" stroke="#0088FF" stroke-width="1.4001" class="FBPUkVBJ_7"></path>
<path d="M287.046 256.625L200.027 256.625L207.988 236.879" stroke="white" stroke-width="4.66702" class="FBPUkVBJ_8"></path>
<path d="M292.332 263.063L292.333 286" stroke="white" stroke-width="4.66702" class="FBPUkVBJ_9"></path>
<path d="M283.256 269.278C289.807 274.382 299.245 273.194 304.336 266.623C309.426 260.052 308.24 250.589 301.689 245.485C295.137 240.382 285.699 241.57 280.608 248.141C275.518 254.711 276.704 264.175 283.256 269.278Z" stroke="white" stroke-width="1.4001" class="FBPUkVBJ_10"></path>
<path d="M288.017 261.639C291.05 264.001 295.42 263.452 297.777 260.409C300.134 257.367 299.584 252.986 296.552 250.623C293.519 248.261 289.149 248.81 286.792 251.853C284.435 254.896 284.985 259.277 288.017 261.639Z" stroke="white" stroke-width="2.33351" class="FBPUkVBJ_11"></path>
<path d="M109.72 229.97C111.155 232.788 114.594 233.904 117.401 232.467C120.208 231.029 121.323 227.581 119.889 224.764C118.454 221.947 115.015 220.83 112.208 222.268C109.401 223.705 108.285 227.153 109.72 229.97Z" stroke="#0088FF" stroke-width="1.4001" class="FBPUkVBJ_12"></path>
<path d="M103.935 170.676C104.968 172.705 107.445 173.509 109.467 172.474C111.488 171.439 112.291 168.956 111.258 166.927C110.225 164.898 107.748 164.094 105.727 165.129C103.705 166.164 102.902 168.647 103.935 170.676Z" stroke="#0088FF" stroke-width="0.933403" class="FBPUkVBJ_13"></path>
<path d="M289.029 104.272L311.192 86.4318" stroke="white" stroke-width="0.466702" class="FBPUkVBJ_14"></path>
<path d="M177.77 193.829L199.934 175.988" stroke="white" stroke-width="0.466702" class="FBPUkVBJ_15"></path>
<path d="M285.74 100.515L306.269 80.8058" stroke="white" stroke-width="0.466702" class="FBPUkVBJ_16"></path>
<path d="M182.688 199.454L203.217 179.744" stroke="white" stroke-width="0.466702" class="FBPUkVBJ_17"></path>
<path d="M282.141 97.0602L300.879 75.6317" stroke="white" stroke-width="0.466702" class="FBPUkVBJ_18"></path>
<path d="M188.081 204.628L206.818 183.2" stroke="white" stroke-width="0.466702" class="FBPUkVBJ_19"></path>
<path d="M278.256 93.9343L295.06 70.9498" stroke="white" stroke-width="0.466702" class="FBPUkVBJ_20"></path>
<path d="M193.9 209.312L210.704 186.327" stroke="white" stroke-width="0.466702" class="FBPUkVBJ_21"></path>
<path d="M274.11 91.1575L288.852 66.792" stroke="white" stroke-width="0.466702" class="FBPUkVBJ_22"></path>
<path d="M200.106 213.469L214.848 189.103" stroke="white" stroke-width="0.466702" class="FBPUkVBJ_23"></path>
<path d="M269.741 88.7542L282.309 63.193" stroke="white" stroke-width="0.466702" class="FBPUkVBJ_24"></path>
<path d="M206.652 217.068L219.22 191.506" stroke="white" stroke-width="0.466702" class="FBPUkVBJ_25"></path>
<path d="M265.179 86.7418L275.478 60.1796" stroke="white" stroke-width="0.466702" class="FBPUkVBJ_26"></path>
<path d="M213.484 220.081L223.782 193.518" stroke="white" stroke-width="0.466702" class="FBPUkVBJ_27"></path>
<path d="M260.459 85.1358L268.409 57.7745" stroke="white" stroke-width="0.466702" class="FBPUkVBJ_28"></path>
<path d="M220.549 222.485L228.499 195.124" stroke="white" stroke-width="0.466702" class="FBPUkVBJ_29"></path>
<path d="M255.618 83.9495L261.16 55.9976" stroke="white" stroke-width="0.466702" class="FBPUkVBJ_30"></path>
<path d="M227.797 224.264L233.339 196.312" stroke="white" stroke-width="0.466702" class="FBPUkVBJ_31"></path>
<path d="M250.695 83.1892L253.786 54.8593" stroke="white" stroke-width="0.466702" class="FBPUkVBJ_32"></path>
<path d="M235.174 225.401L238.266 197.071" stroke="white" stroke-width="0.466702" class="FBPUkVBJ_33"></path>
<path d="M245.72 82.8629L246.337 54.3706" stroke="white" stroke-width="0.466702" class="FBPUkVBJ_34"></path>
<path d="M242.623 225.89L243.24 197.397" stroke="white" stroke-width="0.466702" class="FBPUkVBJ_35"></path>
<path d="M240.737 82.9735L238.875 54.5356" stroke="white" stroke-width="0.466702" class="FBPUkVBJ_36"></path>
<path d="M250.082 225.726L248.221 197.288" stroke="white" stroke-width="0.466702" class="FBPUkVBJ_37"></path>
<path d="M235.785 83.517L231.458 55.35" stroke="white" stroke-width="0.466702" class="FBPUkVBJ_38"></path>
<path d="M257.503 224.91L253.177 196.743" stroke="white" stroke-width="0.466702" class="FBPUkVBJ_39"></path>
<path d="M230.897 84.4925L224.139 56.8108" stroke="white" stroke-width="0.466702" class="FBPUkVBJ_40"></path>
<path d="M264.823 223.45L258.064 195.768" stroke="white" stroke-width="0.466702" class="FBPUkVBJ_41"></path>
<path d="M226.111 85.8912L216.973 58.9054" stroke="white" stroke-width="0.466702" class="FBPUkVBJ_42"></path>
<path d="M271.986 221.355L262.848 194.369" stroke="white" stroke-width="0.466702" class="FBPUkVBJ_43"></path>
<path d="M221.47 87.7018L210.021 61.6173" stroke="white" stroke-width="0.466702" class="FBPUkVBJ_44"></path>
<path d="M278.94 218.642L267.49 192.557" stroke="white" stroke-width="0.466702" class="FBPUkVBJ_45"></path>
<path d="M217 89.9114L203.327 64.9277" stroke="white" stroke-width="0.466702" class="FBPUkVBJ_46"></path>
<path d="M285.633 215.331L271.96 190.347" stroke="white" stroke-width="0.466702" class="FBPUkVBJ_47"></path>
<path d="M212.738 92.5056L196.945 68.8119" stroke="white" stroke-width="0.466702" class="FBPUkVBJ_48"></path>
<path d="M292.015 211.448L276.223 187.754" stroke="white" stroke-width="0.466702" class="FBPUkVBJ_49"></path>
<path d="M208.72 95.4604L190.929 73.2369" stroke="white" stroke-width="0.466702" class="FBPUkVBJ_50"></path>
<path d="M298.034 207.022L280.242 184.798" stroke="white" stroke-width="0.466702" class="FBPUkVBJ_51"></path>
<path d="M204.973 98.7542L185.317 78.1702" stroke="white" stroke-width="0.466702" class="FBPUkVBJ_52"></path>
<path d="M303.642 202.088L283.986 181.504" stroke="white" stroke-width="0.466702" class="FBPUkVBJ_53"></path>
<path d="M201.526 102.366L180.156 83.5784" stroke="white" stroke-width="0.466702" class="FBPUkVBJ_54"></path>
<path d="M308.804 196.682L287.434 177.894" stroke="white" stroke-width="0.466702" class="FBPUkVBJ_55"></path>
<path d="M198.41 106.262L175.487 89.4128" stroke="white" stroke-width="0.466702" class="FBPUkVBJ_56"></path>
<path d="M313.476 190.845L290.554 173.996" stroke="white" stroke-width="0.466702" class="FBPUkVBJ_57"></path>
<path d="M195.641 110.419L171.341 95.6372" stroke="white" stroke-width="0.466702" class="FBPUkVBJ_58"></path>
<path d="M317.621 184.623L293.321 169.841" stroke="white" stroke-width="0.466702" class="FBPUkVBJ_59"></path>
<path d="M193.242 114.8L167.75 102.198" stroke="white" stroke-width="0.466702" class="FBPUkVBJ_60"></path>
<path d="M321.207 178.062L295.715 165.459" stroke="white" stroke-width="0.466702" class="FBPUkVBJ_61"></path>
<path d="M191.237 119.375L164.746 109.048" stroke="white" stroke-width="0.466702" class="FBPUkVBJ_62"></path>
<path d="M324.214 171.212L297.724 160.885" stroke="white" stroke-width="0.466702" class="FBPUkVBJ_63"></path>
<path d="M189.636 124.105L162.349 116.133" stroke="white" stroke-width="0.466702" class="FBPUkVBJ_64"></path>
<path d="M326.613 164.126L299.326 156.153" stroke="white" stroke-width="0.466702" class="FBPUkVBJ_65"></path>
<path d="M188.452 128.958L160.575 123.401" stroke="white" stroke-width="0.466702" class="FBPUkVBJ_66"></path>
<path d="M328.388 156.856L300.512 151.299" stroke="white" stroke-width="0.466702" class="FBPUkVBJ_67"></path>
<path d="M187.694 133.899L159.44 130.8" stroke="white" stroke-width="0.466702" class="FBPUkVBJ_68"></path>
<path d="M329.522 149.459L301.269 146.36" stroke="white" stroke-width="0.466702" class="FBPUkVBJ_69"></path>
<path d="M187.369 138.886L158.954 138.267" stroke="white" stroke-width="0.466702" class="FBPUkVBJ_70"></path>
<path d="M330.009 141.992L301.594 141.373" stroke="white" stroke-width="0.466702" class="FBPUkVBJ_71"></path>
<path d="M187.478 143.882L159.117 145.749" stroke="white" stroke-width="0.466702" class="FBPUkVBJ_72"></path>
<path d="M329.845 134.511L301.484 136.378" stroke="white" stroke-width="0.466702" class="FBPUkVBJ_73"></path>
<path d="M188.019 148.849L159.929 153.188" stroke="white" stroke-width="0.466702" class="FBPUkVBJ_74"></path>
<path d="M329.028 127.072L300.938 131.41" stroke="white" stroke-width="0.466702" class="FBPUkVBJ_75"></path>
<path d="M188.992 153.75L161.386 160.527" stroke="white" stroke-width="0.466702" class="FBPUkVBJ_76"></path>
<path d="M327.573 119.733L299.967 126.509" stroke="white" stroke-width="0.466702" class="FBPUkVBJ_77"></path>
<path d="M190.388 158.547L163.476 167.71" stroke="white" stroke-width="0.466702" class="FBPUkVBJ_78"></path>
<path d="M325.487 112.549L298.574 121.712" stroke="white" stroke-width="0.466702" class="FBPUkVBJ_79"></path>
<path d="M192.195 163.205L166.182 174.685" stroke="white" stroke-width="0.466702" class="FBPUkVBJ_80"></path>
<path d="M322.779 105.574L296.766 117.055" stroke="white" stroke-width="0.466702" class="FBPUkVBJ_81"></path>
<path d="M194.399 167.686L169.482 181.396" stroke="white" stroke-width="0.466702" class="FBPUkVBJ_82"></path>
<path d="M319.478 98.8626L294.562 112.573" stroke="white" stroke-width="0.466702" class="FBPUkVBJ_83"></path>
<path d="M196.985 171.958L173.354 187.793" stroke="white" stroke-width="0.466702" class="FBPUkVBJ_84"></path>
<path d="M315.605 92.4658L291.975 108.301" stroke="white" stroke-width="0.466702" class="FBPUkVBJ_85"></path>
<path d="M232.459 165.53H258.816C261.136 165.53 263.017 163.667 263.017 161.347C263.017 151.14 263.017 125.739 263.017 125.04C263.017 124.821 257.996 124.821 257.996 124.821C257.996 124.821 257.996 124.821 257.996 124.821H255.649C253.329 124.821 251.448 122.942 251.448 120.622C251.448 117.589 251.448 114.004 251.448 113.878M251.448 113.878C251.448 113.708 231.521 113.802 222.656 113.853C220.347 113.866 218.489 115.742 218.489 118.051V149.675M251.448 113.878L263.017 124.821M253.194 132.263H228.53M253.194 140.58H228.53M253.194 148.021H228.53M253.194 155.243H228.53M218.489 154.052V177.251M228.53 165.53H208.231" stroke="white" stroke-width="1.86681" class="FBPUkVBJ_86"></path>
<path d="M263.235 154.586H272.349C274.669 154.586 276.55 152.723 276.55 150.403C276.55 140.196 276.55 114.795 276.55 114.096C276.55 113.877 271.53 113.877 271.53 113.877C271.53 113.877 271.53 113.877 271.53 113.877H269.182C266.862 113.877 264.981 111.998 264.981 109.678C264.981 106.645 264.981 103.06 264.981 102.934M264.981 102.934C264.981 102.764 245.055 102.858 236.189 102.909C233.881 102.922 232.022 104.798 232.022 107.107V113.877M264.981 102.934L276.55 113.877" stroke="white" stroke-width="1.86681" class="FBPUkVBJ_87"></path>
<style data-made-with="vivus-instant">.FBPUkVBJ_0{stroke-dasharray:26 28;stroke-dashoffset:27;animation:FBPUkVBJ_draw 2000ms ease-in-out 0ms forwards;}.FBPUkVBJ_1{stroke-dasharray:338 340;stroke-dashoffset:339;animation:FBPUkVBJ_draw 2000ms ease-in-out 11ms forwards;}.FBPUkVBJ_2{stroke-dasharray:227 229;stroke-dashoffset:228;animation:FBPUkVBJ_draw 2000ms ease-in-out 22ms forwards;}.FBPUkVBJ_3{stroke-dasharray:144 146;stroke-dashoffset:145;animation:FBPUkVBJ_draw 2000ms ease-in-out 34ms forwards;}.FBPUkVBJ_4{stroke-dasharray:144 146;stroke-dashoffset:145;animation:FBPUkVBJ_draw 2000ms ease-in-out 45ms forwards;}.FBPUkVBJ_5{stroke-dasharray:75 77;stroke-dashoffset:76;animation:FBPUkVBJ_draw 2000ms ease-in-out 57ms forwards;}.FBPUkVBJ_6{stroke-dasharray:83 85;stroke-dashoffset:84;animation:FBPUkVBJ_draw 2000ms ease-in-out 68ms forwards;}.FBPUkVBJ_7{stroke-dasharray:59 61;stroke-dashoffset:60;animation:FBPUkVBJ_draw 2000ms ease-in-out 80ms forwards;}.FBPUkVBJ_8{stroke-dasharray:109 111;stroke-dashoffset:110;animation:FBPUkVBJ_draw 2000ms ease-in-out 91ms forwards;}.FBPUkVBJ_9{stroke-dasharray:23 25;stroke-dashoffset:24;animation:FBPUkVBJ_draw 2000ms ease-in-out 103ms forwards;}.FBPUkVBJ_10{stroke-dasharray:95 97;stroke-dashoffset:96;animation:FBPUkVBJ_draw 2000ms ease-in-out 114ms forwards;}.FBPUkVBJ_11{stroke-dasharray:44 46;stroke-dashoffset:45;animation:FBPUkVBJ_draw 2000ms ease-in-out 126ms forwards;}.FBPUkVBJ_12{stroke-dasharray:36 38;stroke-dashoffset:37;animation:FBPUkVBJ_draw 2000ms ease-in-out 137ms forwards;}.FBPUkVBJ_13{stroke-dasharray:26 28;stroke-dashoffset:27;animation:FBPUkVBJ_draw 2000ms ease-in-out 149ms forwards;}.FBPUkVBJ_14{stroke-dasharray:29 31;stroke-dashoffset:30;animation:FBPUkVBJ_draw 2000ms ease-in-out 160ms forwards;}.FBPUkVBJ_15{stroke-dasharray:29 31;stroke-dashoffset:30;animation:FBPUkVBJ_draw 2000ms ease-in-out 172ms forwards;}.FBPUkVBJ_16{stroke-dasharray:29 31;stroke-dashoffset:30;animation:FBPUkVBJ_draw 2000ms ease-in-out 183ms forwards;}.FBPUkVBJ_17{stroke-dasharray:29 31;stroke-dashoffset:30;animation:FBPUkVBJ_draw 2000ms ease-in-out 195ms forwards;}.FBPUkVBJ_18{stroke-dasharray:29 31;stroke-dashoffset:30;animation:FBPUkVBJ_draw 2000ms ease-in-out 206ms forwards;}.FBPUkVBJ_19{stroke-dasharray:29 31;stroke-dashoffset:30;animation:FBPUkVBJ_draw 2000ms ease-in-out 218ms forwards;}.FBPUkVBJ_20{stroke-dasharray:29 31;stroke-dashoffset:30;animation:FBPUkVBJ_draw 2000ms ease-in-out 229ms forwards;}.FBPUkVBJ_21{stroke-dasharray:29 31;stroke-dashoffset:30;animation:FBPUkVBJ_draw 2000ms ease-in-out 241ms forwards;}.FBPUkVBJ_22{stroke-dasharray:29 31;stroke-dashoffset:30;animation:FBPUkVBJ_draw 2000ms ease-in-out 252ms forwards;}.FBPUkVBJ_23{stroke-dasharray:29 31;stroke-dashoffset:30;animation:FBPUkVBJ_draw 2000ms ease-in-out 264ms forwards;}.FBPUkVBJ_24{stroke-dasharray:29 31;stroke-dashoffset:30;animation:FBPUkVBJ_draw 2000ms ease-in-out 275ms forwards;}.FBPUkVBJ_25{stroke-dasharray:29 31;stroke-dashoffset:30;animation:FBPUkVBJ_draw 2000ms ease-in-out 287ms forwards;}.FBPUkVBJ_26{stroke-dasharray:29 31;stroke-dashoffset:30;animation:FBPUkVBJ_draw 2000ms ease-in-out 298ms forwards;}.FBPUkVBJ_27{stroke-dasharray:29 31;stroke-dashoffset:30;animation:FBPUkVBJ_draw 2000ms ease-in-out 310ms forwards;}.FBPUkVBJ_28{stroke-dasharray:29 31;stroke-dashoffset:30;animation:FBPUkVBJ_draw 2000ms ease-in-out 321ms forwards;}.FBPUkVBJ_29{stroke-dasharray:29 31;stroke-dashoffset:30;animation:FBPUkVBJ_draw 2000ms ease-in-out 333ms forwards;}.FBPUkVBJ_30{stroke-dasharray:29 31;stroke-dashoffset:30;animation:FBPUkVBJ_draw 2000ms ease-in-out 344ms forwards;}.FBPUkVBJ_31{stroke-dasharray:29 31;stroke-dashoffset:30;animation:FBPUkVBJ_draw 2000ms ease-in-out 356ms forwards;}.FBPUkVBJ_32{stroke-dasharray:29 31;stroke-dashoffset:30;animation:FBPUkVBJ_draw 2000ms ease-in-out 367ms forwards;}.FBPUkVBJ_33{stroke-dasharray:29 31;stroke-dashoffset:30;animation:FBPUkVBJ_draw 2000ms ease-in-out 379ms forwards;}.FBPUkVBJ_34{stroke-dasharray:29 31;stroke-dashoffset:30;animation:FBPUkVBJ_draw 2000ms ease-in-out 390ms forwards;}.FBPUkVBJ_35{stroke-dasharray:29 31;stroke-dashoffset:30;animation:FBPUkVBJ_draw 2000ms ease-in-out 402ms forwards;}.FBPUkVBJ_36{stroke-dasharray:29 31;stroke-dashoffset:30;animation:FBPUkVBJ_draw 2000ms ease-in-out 413ms forwards;}.FBPUkVBJ_37{stroke-dasharray:29 31;stroke-dashoffset:30;animation:FBPUkVBJ_draw 2000ms ease-in-out 425ms forwards;}.FBPUkVBJ_38{stroke-dasharray:29 31;stroke-dashoffset:30;animation:FBPUkVBJ_draw 2000ms ease-in-out 436ms forwards;}.FBPUkVBJ_39{stroke-dasharray:29 31;stroke-dashoffset:30;animation:FBPUkVBJ_draw 2000ms ease-in-out 448ms forwards;}.FBPUkVBJ_40{stroke-dasharray:29 31;stroke-dashoffset:30;animation:FBPUkVBJ_draw 2000ms ease-in-out 459ms forwards;}.FBPUkVBJ_41{stroke-dasharray:29 31;stroke-dashoffset:30;animation:FBPUkVBJ_draw 2000ms ease-in-out 471ms forwards;}.FBPUkVBJ_42{stroke-dasharray:29 31;stroke-dashoffset:30;animation:FBPUkVBJ_draw 2000ms ease-in-out 482ms forwards;}.FBPUkVBJ_43{stroke-dasharray:29 31;stroke-dashoffset:30;animation:FBPUkVBJ_draw 2000ms ease-in-out 494ms forwards;}.FBPUkVBJ_44{stroke-dasharray:29 31;stroke-dashoffset:30;animation:FBPUkVBJ_draw 2000ms ease-in-out 505ms forwards;}.FBPUkVBJ_45{stroke-dasharray:29 31;stroke-dashoffset:30;animation:FBPUkVBJ_draw 2000ms ease-in-out 517ms forwards;}.FBPUkVBJ_46{stroke-dasharray:29 31;stroke-dashoffset:30;animation:FBPUkVBJ_draw 2000ms ease-in-out 528ms forwards;}.FBPUkVBJ_47{stroke-dasharray:29 31;stroke-dashoffset:30;animation:FBPUkVBJ_draw 2000ms ease-in-out 540ms forwards;}.FBPUkVBJ_48{stroke-dasharray:29 31;stroke-dashoffset:30;animation:FBPUkVBJ_draw 2000ms ease-in-out 551ms forwards;}.FBPUkVBJ_49{stroke-dasharray:29 31;stroke-dashoffset:30;animation:FBPUkVBJ_draw 2000ms ease-in-out 563ms forwards;}.FBPUkVBJ_50{stroke-dasharray:29 31;stroke-dashoffset:30;animation:FBPUkVBJ_draw 2000ms ease-in-out 574ms forwards;}.FBPUkVBJ_51{stroke-dasharray:29 31;stroke-dashoffset:30;animation:FBPUkVBJ_draw 2000ms ease-in-out 586ms forwards;}.FBPUkVBJ_52{stroke-dasharray:29 31;stroke-dashoffset:30;animation:FBPUkVBJ_draw 2000ms ease-in-out 597ms forwards;}.FBPUkVBJ_53{stroke-dasharray:29 31;stroke-dashoffset:30;animation:FBPUkVBJ_draw 2000ms ease-in-out 609ms forwards;}.FBPUkVBJ_54{stroke-dasharray:29 31;stroke-dashoffset:30;animation:FBPUkVBJ_draw 2000ms ease-in-out 620ms forwards;}.FBPUkVBJ_55{stroke-dasharray:29 31;stroke-dashoffset:30;animation:FBPUkVBJ_draw 2000ms ease-in-out 632ms forwards;}.FBPUkVBJ_56{stroke-dasharray:29 31;stroke-dashoffset:30;animation:FBPUkVBJ_draw 2000ms ease-in-out 643ms forwards;}.FBPUkVBJ_57{stroke-dasharray:29 31;stroke-dashoffset:30;animation:FBPUkVBJ_draw 2000ms ease-in-out 655ms forwards;}.FBPUkVBJ_58{stroke-dasharray:29 31;stroke-dashoffset:30;animation:FBPUkVBJ_draw 2000ms ease-in-out 666ms forwards;}.FBPUkVBJ_59{stroke-dasharray:29 31;stroke-dashoffset:30;animation:FBPUkVBJ_draw 2000ms ease-in-out 678ms forwards;}.FBPUkVBJ_60{stroke-dasharray:29 31;stroke-dashoffset:30;animation:FBPUkVBJ_draw 2000ms ease-in-out 689ms forwards;}.FBPUkVBJ_61{stroke-dasharray:29 31;stroke-dashoffset:30;animation:FBPUkVBJ_draw 2000ms ease-in-out 701ms forwards;}.FBPUkVBJ_62{stroke-dasharray:29 31;stroke-dashoffset:30;animation:FBPUkVBJ_draw 2000ms ease-in-out 712ms forwards;}.FBPUkVBJ_63{stroke-dasharray:29 31;stroke-dashoffset:30;animation:FBPUkVBJ_draw 2000ms ease-in-out 724ms forwards;}.FBPUkVBJ_64{stroke-dasharray:29 31;stroke-dashoffset:30;animation:FBPUkVBJ_draw 2000ms ease-in-out 735ms forwards;}.FBPUkVBJ_65{stroke-dasharray:29 31;stroke-dashoffset:30;animation:FBPUkVBJ_draw 2000ms ease-in-out 747ms forwards;}.FBPUkVBJ_66{stroke-dasharray:29 31;stroke-dashoffset:30;animation:FBPUkVBJ_draw 2000ms ease-in-out 758ms forwards;}.FBPUkVBJ_67{stroke-dasharray:29 31;stroke-dashoffset:30;animation:FBPUkVBJ_draw 2000ms ease-in-out 770ms forwards;}.FBPUkVBJ_68{stroke-dasharray:29 31;stroke-dashoffset:30;animation:FBPUkVBJ_draw 2000ms ease-in-out 781ms forwards;}.FBPUkVBJ_69{stroke-dasharray:29 31;stroke-dashoffset:30;animation:FBPUkVBJ_draw 2000ms ease-in-out 793ms forwards;}.FBPUkVBJ_70{stroke-dasharray:29 31;stroke-dashoffset:30;animation:FBPUkVBJ_draw 2000ms ease-in-out 804ms forwards;}.FBPUkVBJ_71{stroke-dasharray:29 31;stroke-dashoffset:30;animation:FBPUkVBJ_draw 2000ms ease-in-out 816ms forwards;}.FBPUkVBJ_72{stroke-dasharray:29 31;stroke-dashoffset:30;animation:FBPUkVBJ_draw 2000ms ease-in-out 827ms forwards;}.FBPUkVBJ_73{stroke-dasharray:29 31;stroke-dashoffset:30;animation:FBPUkVBJ_draw 2000ms ease-in-out 839ms forwards;}.FBPUkVBJ_74{stroke-dasharray:29 31;stroke-dashoffset:30;animation:FBPUkVBJ_draw 2000ms ease-in-out 850ms forwards;}.FBPUkVBJ_75{stroke-dasharray:29 31;stroke-dashoffset:30;animation:FBPUkVBJ_draw 2000ms ease-in-out 862ms forwards;}.FBPUkVBJ_76{stroke-dasharray:29 31;stroke-dashoffset:30;animation:FBPUkVBJ_draw 2000ms ease-in-out 873ms forwards;}.FBPUkVBJ_77{stroke-dasharray:29 31;stroke-dashoffset:30;animation:FBPUkVBJ_draw 2000ms ease-in-out 885ms forwards;}.FBPUkVBJ_78{stroke-dasharray:29 31;stroke-dashoffset:30;animation:FBPUkVBJ_draw 2000ms ease-in-out 896ms forwards;}.FBPUkVBJ_79{stroke-dasharray:29 31;stroke-dashoffset:30;animation:FBPUkVBJ_draw 2000ms ease-in-out 908ms forwards;}.FBPUkVBJ_80{stroke-dasharray:29 31;stroke-dashoffset:30;animation:FBPUkVBJ_draw 2000ms ease-in-out 919ms forwards;}.FBPUkVBJ_81{stroke-dasharray:29 31;stroke-dashoffset:30;animation:FBPUkVBJ_draw 2000ms ease-in-out 931ms forwards;}.FBPUkVBJ_82{stroke-dasharray:29 31;stroke-dashoffset:30;animation:FBPUkVBJ_draw 2000ms ease-in-out 942ms forwards;}.FBPUkVBJ_83{stroke-dasharray:29 31;stroke-dashoffset:30;animation:FBPUkVBJ_draw 2000ms ease-in-out 954ms forwards;}.FBPUkVBJ_84{stroke-dasharray:29 31;stroke-dashoffset:30;animation:FBPUkVBJ_draw 2000ms ease-in-out 965ms forwards;}.FBPUkVBJ_85{stroke-dasharray:29 31;stroke-dashoffset:30;animation:FBPUkVBJ_draw 2000ms ease-in-out 977ms forwards;}.FBPUkVBJ_86{stroke-dasharray:316 318;stroke-dashoffset:317;animation:FBPUkVBJ_draw 2000ms ease-in-out 988ms forwards;}.FBPUkVBJ_87{stroke-dasharray:131 133;stroke-dashoffset:132;animation:FBPUkVBJ_draw 2000ms ease-in-out 999ms forwards;}@keyframes FBPUkVBJ_draw{100%{stroke-dashoffset:0;}}@keyframes FBPUkVBJ_fade{0%{stroke-opacity:1;}94.44444444444444%{stroke-opacity:1;}100%{stroke-opacity:0;}}</style></svg>
