<svg width="1440" height="440" viewBox="0 0 1440 440" fill="none" xmlns="http://www.w3.org/2000/svg" style="">
<path d="M1099.35 375.577C1005.75 375.577 929.863 300.638 929.863 208.197C929.863 115.756 1005.75 40.8175 1099.35 40.8175" stroke="#103957" stroke-width="10" class="GrdFNAzL_0"></path>
<path d="M1167.41 319.736C1227.52 282.426 1246.36 204.051 1209.51 144.681C1172.65 85.3116 1094.05 67.4289 1033.95 104.739" stroke="#103957" stroke-width="10" class="GrdFNAzL_1"></path>
<path d="M1167.41 319.736C1227.52 282.426 1246.36 204.051 1209.51 144.681C1172.65 85.3116 1094.05 67.4289 1033.95 104.739" stroke="#103957" stroke-width="10" class="GrdFNAzL_2"></path>
<path d="M1154.4 347.552C1075.7 377.002 988.315 337.853 959.225 260.112C930.135 182.371 970.352 95.4762 1049.05 66.0269" stroke="#103957" stroke-width="16" class="GrdFNAzL_3"></path>
<path d="M912.984 299.469C931.35 351.022 985.773 394.911 1047.66 403.35" stroke="#0088FF" stroke-width="10" class="GrdFNAzL_4"></path>
<path d="M1236.56 265.222C1266.07 189.057 1228.26 103.387 1152.09 73.8717" stroke="#103957" stroke-width="18" stroke-linejoin="round" class="GrdFNAzL_5"></path>
<path d="M1236.56 265.222C1266.07 189.057 1228.26 103.387 1152.09 73.8717" stroke="#0088FF" stroke-width="18" stroke-linejoin="round" class="GrdFNAzL_6"></path>
<path d="M1010.04 119.578C950.961 179.357 960.104 267.969 1031.84 317.902" stroke="#0088FF" stroke-width="18" stroke-linejoin="round" class="GrdFNAzL_7"></path>
<path d="M974.747 63.7881C933.2 97.9108 916.347 140.795 913.507 164.467" stroke="#103957" stroke-width="18" stroke-linejoin="round" class="GrdFNAzL_8"></path>
<path d="M936 170L720 104.5V37.6887" stroke="#103957" stroke-width="12" class="GrdFNAzL_9"></path>
<path d="M720 406.5V349L881.337 287.661" stroke="#103957" stroke-width="12" class="GrdFNAzL_10"></path>
<path d="M924.482 279.647C924.482 291.98 914.484 301.978 902.151 301.978C889.819 301.978 879.821 291.98 879.821 279.647C879.821 267.314 889.819 257.317 902.151 257.317C914.484 257.317 924.482 267.314 924.482 279.647Z" stroke="#103957" stroke-width="4" class="GrdFNAzL_11"></path>
<path d="M743.119 437.872C744.116 435.214 744.661 432.336 744.661 429.331C744.661 415.893 733.768 405 720.331 405C706.893 405 696 415.893 696 429.331C696 432.336 696.545 435.214 697.542 437.872" stroke="#103957" stroke-width="8" class="GrdFNAzL_12"></path>
<path d="M918.494 279.648C918.494 288.673 911.177 295.99 902.151 295.99C893.126 295.99 885.809 288.673 885.809 279.648C885.809 270.622 893.126 263.305 902.151 263.305C911.177 263.305 918.494 270.622 918.494 279.648Z" stroke="#0088FF" stroke-width="3" class="GrdFNAzL_13"></path>
<path d="M912.505 279.648C912.505 285.366 907.87 290.002 902.151 290.002C896.433 290.002 891.797 285.366 891.797 279.648C891.797 273.929 896.433 269.293 902.151 269.293C907.87 269.293 912.505 273.929 912.505 279.648Z" stroke="#0088FF" stroke-width="2" class="GrdFNAzL_14"></path>
<path d="M726.175 429.263C726.175 432.625 723.45 435.351 720.088 435.351C716.726 435.351 714 432.625 714 429.263C714 425.901 716.726 423.175 720.088 423.175C723.45 423.175 726.175 425.901 726.175 429.263Z" stroke="#103957" stroke-width="4" class="GrdFNAzL_15"></path>
<path d="M727.708 15.3542C727.708 19.4159 724.416 22.7085 720.354 22.7085C716.293 22.7085 713 19.4159 713 15.3542C713 11.2926 716.293 8 720.354 8C724.416 8 727.708 11.2926 727.708 15.3542Z" stroke="#103957" stroke-width="8" class="GrdFNAzL_16"></path>
<path d="M1105.68 133.054V94.97" stroke="#103957" class="GrdFNAzL_17"></path>
<path d="M1105.68 324.238V286.154" stroke="#103957" class="GrdFNAzL_18"></path>
<path d="M1099.01 133.346L1095.69 95.4061" stroke="#103957" class="GrdFNAzL_19"></path>
<path d="M1115.67 323.802L1112.35 285.862" stroke="#103957" class="GrdFNAzL_20"></path>
<path d="M1092.39 134.217L1085.78 96.7113" stroke="#103957" class="GrdFNAzL_21"></path>
<path d="M1125.59 322.496L1118.97 284.991" stroke="#103957" class="GrdFNAzL_22"></path>
<path d="M1085.87 135.663L1076.01 98.876" stroke="#103957" class="GrdFNAzL_23"></path>
<path d="M1135.35 320.332L1125.5 283.545" stroke="#103957" class="GrdFNAzL_24"></path>
<path d="M1079.5 137.67L1066.48 101.883" stroke="#103957" class="GrdFNAzL_25"></path>
<path d="M1144.89 317.325L1131.86 281.537" stroke="#103957" class="GrdFNAzL_26"></path>
<path d="M1073.33 140.226L1057.24 105.71" stroke="#103957" class="GrdFNAzL_27"></path>
<path d="M1154.13 313.498L1138.03 278.982" stroke="#103957" class="GrdFNAzL_28"></path>
<path d="M1067.41 143.31L1048.37 110.328" stroke="#103957" class="GrdFNAzL_29"></path>
<path d="M1163 308.88L1143.96 275.898" stroke="#103957" class="GrdFNAzL_30"></path>
<path d="M1061.78 146.898L1039.93 115.701" stroke="#103957" class="GrdFNAzL_31"></path>
<path d="M1171.43 303.507L1149.59 272.31" stroke="#103957" class="GrdFNAzL_32"></path>
<path d="M1056.48 150.963L1032 121.789" stroke="#103957" class="GrdFNAzL_33"></path>
<path d="M1179.37 297.419L1154.89 268.244" stroke="#103957" class="GrdFNAzL_34"></path>
<path d="M1051.55 155.475L1024.62 128.546" stroke="#103957" class="GrdFNAzL_35"></path>
<path d="M1186.74 290.663L1159.81 263.733" stroke="#103957" class="GrdFNAzL_36"></path>
<path d="M1047.04 160.399L1017.87 135.919" stroke="#103957" class="GrdFNAzL_37"></path>
<path d="M1193.5 283.289L1164.32 258.809" stroke="#103957" class="GrdFNAzL_38"></path>
<path d="M1042.98 165.696L1011.78 143.852" stroke="#103957" class="GrdFNAzL_39"></path>
<path d="M1199.58 275.355L1168.39 253.511" stroke="#103957" class="GrdFNAzL_40"></path>
<path d="M1039.39 171.329L1006.41 152.287" stroke="#103957" class="GrdFNAzL_41"></path>
<path d="M1204.96 266.921L1171.98 247.879" stroke="#103957" class="GrdFNAzL_42"></path>
<path d="M1036.3 177.253L1001.79 161.158" stroke="#103957" class="GrdFNAzL_43"></path>
<path d="M1209.58 258.05L1175.06 241.955" stroke="#103957" class="GrdFNAzL_44"></path>
<path d="M1033.75 183.423L997.962 170.397" stroke="#103957" class="GrdFNAzL_45"></path>
<path d="M1213.4 248.811L1177.62 235.785" stroke="#103957" class="GrdFNAzL_46"></path>
<path d="M1031.74 189.791L994.955 179.934" stroke="#103957" class="GrdFNAzL_47"></path>
<path d="M1216.41 239.273L1179.62 229.417" stroke="#103957" class="GrdFNAzL_48"></path>
<path d="M1030.3 196.311L992.79 189.698" stroke="#103957" class="GrdFNAzL_49"></path>
<path d="M1218.57 229.51L1181.07 222.897" stroke="#103957" class="GrdFNAzL_50"></path>
<path d="M1029.42 202.932L991.484 199.613" stroke="#103957" class="GrdFNAzL_51"></path>
<path d="M1219.88 219.595L1181.94 216.276" stroke="#103957" class="GrdFNAzL_52"></path>
<path d="M1029.13 209.604H991.048" stroke="#103957" class="GrdFNAzL_53"></path>
<path d="M1220.32 209.604H1182.23" stroke="#103957" class="GrdFNAzL_54"></path>
<path d="M1029.42 216.275L991.484 219.594" stroke="#103957" class="GrdFNAzL_55"></path>
<path d="M1219.88 199.613L1181.94 202.932" stroke="#103957" class="GrdFNAzL_56"></path>
<path d="M1030.3 222.896L992.79 229.51" stroke="#103957" class="GrdFNAzL_57"></path>
<path d="M1218.57 189.698L1181.07 196.311" stroke="#103957" class="GrdFNAzL_58"></path>
<path d="M1031.74 229.416L994.955 239.273" stroke="#103957" class="GrdFNAzL_59"></path>
<path d="M1216.41 179.935L1179.62 189.792" stroke="#103957" class="GrdFNAzL_60"></path>
<path d="M1033.75 235.784L997.961 248.81" stroke="#103957" class="GrdFNAzL_61"></path>
<path d="M1213.4 170.397L1177.62 183.422" stroke="#103957" class="GrdFNAzL_62"></path>
<path d="M1036.3 241.954L1001.79 258.05" stroke="#103957" class="GrdFNAzL_63"></path>
<path d="M1209.58 161.157L1175.06 177.253" stroke="#103957" class="GrdFNAzL_64"></path>
<path d="M1039.39 247.878L1006.41 266.92" stroke="#103957" class="GrdFNAzL_65"></path>
<path d="M1204.96 152.287L1171.98 171.329" stroke="#103957" class="GrdFNAzL_66"></path>
<path d="M1042.98 253.511L1011.78 275.355" stroke="#103957" class="GrdFNAzL_67"></path>
<path d="M1199.58 143.853L1168.39 165.697" stroke="#103957" class="GrdFNAzL_68"></path>
<path d="M1047.04 258.808L1017.87 283.288" stroke="#103957" class="GrdFNAzL_69"></path>
<path d="M1193.5 135.919L1164.32 160.399" stroke="#103957" class="GrdFNAzL_70"></path>
<path d="M1051.55 263.731L1024.62 290.661" stroke="#103957" class="GrdFNAzL_71"></path>
<path d="M1186.74 128.546L1159.81 155.476" stroke="#103957" class="GrdFNAzL_72"></path>
<path d="M1056.48 268.244L1032 297.419" stroke="#103957" class="GrdFNAzL_73"></path>
<path d="M1179.37 121.789L1154.89 150.964" stroke="#103957" class="GrdFNAzL_74"></path>
<path d="M1061.77 272.309L1039.93 303.506" stroke="#103957" class="GrdFNAzL_75"></path>
<path d="M1171.43 115.701L1149.59 146.898" stroke="#103957" class="GrdFNAzL_76"></path>
<path d="M1067.41 275.898L1048.37 308.88" stroke="#103957" class="GrdFNAzL_77"></path>
<path d="M1163 110.328L1143.96 143.31" stroke="#103957" class="GrdFNAzL_78"></path>
<path d="M1073.33 278.981L1057.24 313.497" stroke="#103957" class="GrdFNAzL_79"></path>
<path d="M1154.13 105.71L1138.03 140.226" stroke="#103957" class="GrdFNAzL_80"></path>
<path d="M1079.5 281.537L1066.47 317.325" stroke="#103957" class="GrdFNAzL_81"></path>
<path d="M1144.89 101.883L1131.86 137.671" stroke="#103957" class="GrdFNAzL_82"></path>
<path d="M1085.87 283.545L1076.01 320.332" stroke="#103957" class="GrdFNAzL_83"></path>
<path d="M1135.35 98.876L1125.5 135.663" stroke="#103957" class="GrdFNAzL_84"></path>
<path d="M1092.39 284.991L1085.78 322.496" stroke="#103957" class="GrdFNAzL_85"></path>
<path d="M1125.59 96.7114L1118.97 134.217" stroke="#103957" class="GrdFNAzL_86"></path>
<path d="M1099.01 285.862L1095.69 323.802" stroke="#103957" class="GrdFNAzL_87"></path>
<path d="M1115.67 95.4061L1112.35 133.346" stroke="#103957" class="GrdFNAzL_88"></path>
<path d="M755.734 0C755.734 19.8088 739.676 35.8671 719.867 35.8671C700.058 35.8671 684 19.8088 684 0" stroke="#103957" stroke-width="8" class="GrdFNAzL_89"></path>
<path d="M1085.29 196.747C1086.26 196.747 1087.04 197.53 1087.04 198.497C1087.04 199.463 1086.26 200.246 1085.29 200.246C1084.32 200.246 1083.54 199.463 1083.54 198.497C1083.54 197.53 1084.32 196.747 1085.29 196.747ZM1115.31 198.497C1115.31 199.463 1114.53 200.246 1113.56 200.246C1112.6 200.246 1111.81 199.463 1111.81 198.497C1111.81 197.53 1112.6 196.747 1113.56 196.747C1114.53 196.747 1115.31 197.53 1115.31 198.497ZM1129.45 198.497C1129.45 199.463 1128.67 200.246 1127.7 200.246C1126.73 200.246 1125.95 199.463 1125.95 198.497C1125.95 197.53 1126.73 196.747 1127.7 196.747C1128.67 196.747 1129.45 197.53 1129.45 198.497ZM1085.29 210.884C1086.26 210.884 1087.04 211.667 1087.04 212.633C1087.04 213.6 1086.26 214.383 1085.29 214.383C1084.32 214.383 1083.54 213.6 1083.54 212.633C1083.54 211.667 1084.32 210.884 1085.29 210.884ZM1083.54 226.77C1083.54 225.804 1084.32 225.021 1085.29 225.021C1086.26 225.021 1087.04 225.804 1087.04 226.77C1087.04 227.737 1086.26 228.52 1085.29 228.52C1084.32 228.52 1083.54 227.737 1083.54 226.77ZM1101.18 198.497C1101.18 199.463 1100.39 200.246 1099.43 200.246C1098.46 200.246 1097.68 199.463 1097.68 198.497C1097.68 197.53 1098.46 196.747 1099.43 196.747C1100.39 196.747 1101.18 197.53 1101.18 198.497ZM1099.43 214.383C1098.46 214.383 1097.68 213.6 1097.68 212.633C1097.68 211.667 1098.46 210.884 1099.43 210.884C1100.39 210.884 1101.18 211.667 1101.18 212.633C1101.18 213.6 1100.39 214.383 1099.43 214.383ZM1099.43 225.021C1100.39 225.021 1101.18 225.804 1101.18 226.77C1101.18 227.737 1100.39 228.52 1099.43 228.52C1098.46 228.52 1097.68 227.737 1097.68 226.77C1097.68 225.804 1098.46 225.021 1099.43 225.021ZM1113.56 214.383C1112.6 214.383 1111.81 213.6 1111.81 212.633C1111.81 211.667 1112.6 210.884 1113.56 210.884C1114.53 210.884 1115.31 211.667 1115.31 212.633C1115.31 213.6 1114.53 214.383 1113.56 214.383Z" stroke="#103957" stroke-width="3" class="GrdFNAzL_90"></path>
<path d="M1093.7 246.249H1084.3C1074.36 246.249 1066.3 238.19 1066.3 228.249V190.296C1066.3 180.355 1074.36 172.296 1084.3 172.296H1128.85C1138.8 172.296 1146.85 180.355 1146.85 190.296V207.292M1094.69 254.833L1114.5 234.694C1120.11 228.421 1122.75 238.986 1127.05 235.684C1131.34 232.383 1144.87 218.517 1144.87 218.517" stroke="#103957" stroke-width="6" class="GrdFNAzL_91"></path>
<path d="M1085.45 161.071V172.915V188.143" stroke="#0088FF" stroke-width="7" class="GrdFNAzL_92"></path>
<path d="M1099.48 161.071V172.915V188.143" stroke="#0088FF" stroke-width="7" class="GrdFNAzL_93"></path>
<path d="M1114.25 161.071V172.915V188.143" stroke="#0088FF" stroke-width="7" class="GrdFNAzL_94"></path>
<path d="M1129.03 161.071V172.915V188.143" stroke="#0088FF" stroke-width="7" class="GrdFNAzL_95"></path>
<path d="M1129.03 216.536H1146.85V233.703" stroke="#103957" stroke-width="6" class="GrdFNAzL_96"></path>
<path d="M881.689 173.379L916.042 179.899" stroke="#103957" stroke-width="4" class="GrdFNAzL_97"></path>
<path d="M879.931 189.906L913.784 193.616" stroke="#103957" stroke-width="4" class="GrdFNAzL_98"></path>
<path d="M879.227 207.475L912.731 207.475" stroke="#103957" stroke-width="4" class="GrdFNAzL_99"></path>
<path d="M879.93 224.015L912.894 221.372" stroke="#103957" stroke-width="4" class="GrdFNAzL_100"></path>
<path d="M881.337 240.542L914.271 235.202" stroke="#103957" stroke-width="4" class="GrdFNAzL_101"></path>
<style data-made-with="vivus-instant">.GrdFNAzL_0{stroke-dasharray:530 532;stroke-dashoffset:531;animation:GrdFNAzL_draw 2000ms ease-in-out 0ms forwards;}.GrdFNAzL_1{stroke-dasharray:401 403;stroke-dashoffset:402;animation:GrdFNAzL_draw 2000ms ease-in-out 9ms forwards;}.GrdFNAzL_2{stroke-dasharray:401 403;stroke-dashoffset:402;animation:GrdFNAzL_draw 2000ms ease-in-out 19ms forwards;}.GrdFNAzL_3{stroke-dasharray:476 478;stroke-dashoffset:477;animation:GrdFNAzL_draw 2000ms ease-in-out 29ms forwards;}.GrdFNAzL_4{stroke-dasharray:179 181;stroke-dashoffset:180;animation:GrdFNAzL_draw 2000ms ease-in-out 39ms forwards;}.GrdFNAzL_5{stroke-dasharray:233 235;stroke-dashoffset:234;animation:GrdFNAzL_draw 2000ms ease-in-out 49ms forwards;}.GrdFNAzL_6{stroke-dasharray:233 235;stroke-dashoffset:234;animation:GrdFNAzL_draw 2000ms ease-in-out 59ms forwards;}.GrdFNAzL_7{stroke-dasharray:230 232;stroke-dashoffset:231;animation:GrdFNAzL_draw 2000ms ease-in-out 69ms forwards;}.GrdFNAzL_8{stroke-dasharray:121 123;stroke-dashoffset:122;animation:GrdFNAzL_draw 2000ms ease-in-out 79ms forwards;}.GrdFNAzL_9{stroke-dasharray:293 295;stroke-dashoffset:294;animation:GrdFNAzL_draw 2000ms ease-in-out 89ms forwards;}.GrdFNAzL_10{stroke-dasharray:231 233;stroke-dashoffset:232;animation:GrdFNAzL_draw 2000ms ease-in-out 99ms forwards;}.GrdFNAzL_11{stroke-dasharray:141 143;stroke-dashoffset:142;animation:GrdFNAzL_draw 2000ms ease-in-out 108ms forwards;}.GrdFNAzL_12{stroke-dasharray:94 96;stroke-dashoffset:95;animation:GrdFNAzL_draw 2000ms ease-in-out 118ms forwards;}.GrdFNAzL_13{stroke-dasharray:103 105;stroke-dashoffset:104;animation:GrdFNAzL_draw 2000ms ease-in-out 128ms forwards;}.GrdFNAzL_14{stroke-dasharray:66 68;stroke-dashoffset:67;animation:GrdFNAzL_draw 2000ms ease-in-out 138ms forwards;}.GrdFNAzL_15{stroke-dasharray:39 41;stroke-dashoffset:40;animation:GrdFNAzL_draw 2000ms ease-in-out 148ms forwards;}.GrdFNAzL_16{stroke-dasharray:47 49;stroke-dashoffset:48;animation:GrdFNAzL_draw 2000ms ease-in-out 158ms forwards;}.GrdFNAzL_17{stroke-dasharray:39 41;stroke-dashoffset:40;animation:GrdFNAzL_draw 2000ms ease-in-out 168ms forwards;}.GrdFNAzL_18{stroke-dasharray:39 41;stroke-dashoffset:40;animation:GrdFNAzL_draw 2000ms ease-in-out 178ms forwards;}.GrdFNAzL_19{stroke-dasharray:39 41;stroke-dashoffset:40;animation:GrdFNAzL_draw 2000ms ease-in-out 188ms forwards;}.GrdFNAzL_20{stroke-dasharray:39 41;stroke-dashoffset:40;animation:GrdFNAzL_draw 2000ms ease-in-out 198ms forwards;}.GrdFNAzL_21{stroke-dasharray:39 41;stroke-dashoffset:40;animation:GrdFNAzL_draw 2000ms ease-in-out 207ms forwards;}.GrdFNAzL_22{stroke-dasharray:39 41;stroke-dashoffset:40;animation:GrdFNAzL_draw 2000ms ease-in-out 217ms forwards;}.GrdFNAzL_23{stroke-dasharray:39 41;stroke-dashoffset:40;animation:GrdFNAzL_draw 2000ms ease-in-out 227ms forwards;}.GrdFNAzL_24{stroke-dasharray:39 41;stroke-dashoffset:40;animation:GrdFNAzL_draw 2000ms ease-in-out 237ms forwards;}.GrdFNAzL_25{stroke-dasharray:39 41;stroke-dashoffset:40;animation:GrdFNAzL_draw 2000ms ease-in-out 247ms forwards;}.GrdFNAzL_26{stroke-dasharray:39 41;stroke-dashoffset:40;animation:GrdFNAzL_draw 2000ms ease-in-out 257ms forwards;}.GrdFNAzL_27{stroke-dasharray:39 41;stroke-dashoffset:40;animation:GrdFNAzL_draw 2000ms ease-in-out 267ms forwards;}.GrdFNAzL_28{stroke-dasharray:39 41;stroke-dashoffset:40;animation:GrdFNAzL_draw 2000ms ease-in-out 277ms forwards;}.GrdFNAzL_29{stroke-dasharray:39 41;stroke-dashoffset:40;animation:GrdFNAzL_draw 2000ms ease-in-out 287ms forwards;}.GrdFNAzL_30{stroke-dasharray:39 41;stroke-dashoffset:40;animation:GrdFNAzL_draw 2000ms ease-in-out 297ms forwards;}.GrdFNAzL_31{stroke-dasharray:39 41;stroke-dashoffset:40;animation:GrdFNAzL_draw 2000ms ease-in-out 306ms forwards;}.GrdFNAzL_32{stroke-dasharray:39 41;stroke-dashoffset:40;animation:GrdFNAzL_draw 2000ms ease-in-out 316ms forwards;}.GrdFNAzL_33{stroke-dasharray:39 41;stroke-dashoffset:40;animation:GrdFNAzL_draw 2000ms ease-in-out 326ms forwards;}.GrdFNAzL_34{stroke-dasharray:39 41;stroke-dashoffset:40;animation:GrdFNAzL_draw 2000ms ease-in-out 336ms forwards;}.GrdFNAzL_35{stroke-dasharray:39 41;stroke-dashoffset:40;animation:GrdFNAzL_draw 2000ms ease-in-out 346ms forwards;}.GrdFNAzL_36{stroke-dasharray:39 41;stroke-dashoffset:40;animation:GrdFNAzL_draw 2000ms ease-in-out 356ms forwards;}.GrdFNAzL_37{stroke-dasharray:39 41;stroke-dashoffset:40;animation:GrdFNAzL_draw 2000ms ease-in-out 366ms forwards;}.GrdFNAzL_38{stroke-dasharray:39 41;stroke-dashoffset:40;animation:GrdFNAzL_draw 2000ms ease-in-out 376ms forwards;}.GrdFNAzL_39{stroke-dasharray:39 41;stroke-dashoffset:40;animation:GrdFNAzL_draw 2000ms ease-in-out 386ms forwards;}.GrdFNAzL_40{stroke-dasharray:39 41;stroke-dashoffset:40;animation:GrdFNAzL_draw 2000ms ease-in-out 396ms forwards;}.GrdFNAzL_41{stroke-dasharray:39 41;stroke-dashoffset:40;animation:GrdFNAzL_draw 2000ms ease-in-out 405ms forwards;}.GrdFNAzL_42{stroke-dasharray:39 41;stroke-dashoffset:40;animation:GrdFNAzL_draw 2000ms ease-in-out 415ms forwards;}.GrdFNAzL_43{stroke-dasharray:39 41;stroke-dashoffset:40;animation:GrdFNAzL_draw 2000ms ease-in-out 425ms forwards;}.GrdFNAzL_44{stroke-dasharray:39 41;stroke-dashoffset:40;animation:GrdFNAzL_draw 2000ms ease-in-out 435ms forwards;}.GrdFNAzL_45{stroke-dasharray:39 41;stroke-dashoffset:40;animation:GrdFNAzL_draw 2000ms ease-in-out 445ms forwards;}.GrdFNAzL_46{stroke-dasharray:39 41;stroke-dashoffset:40;animation:GrdFNAzL_draw 2000ms ease-in-out 455ms forwards;}.GrdFNAzL_47{stroke-dasharray:39 41;stroke-dashoffset:40;animation:GrdFNAzL_draw 2000ms ease-in-out 465ms forwards;}.GrdFNAzL_48{stroke-dasharray:39 41;stroke-dashoffset:40;animation:GrdFNAzL_draw 2000ms ease-in-out 475ms forwards;}.GrdFNAzL_49{stroke-dasharray:39 41;stroke-dashoffset:40;animation:GrdFNAzL_draw 2000ms ease-in-out 485ms forwards;}.GrdFNAzL_50{stroke-dasharray:39 41;stroke-dashoffset:40;animation:GrdFNAzL_draw 2000ms ease-in-out 495ms forwards;}.GrdFNAzL_51{stroke-dasharray:39 41;stroke-dashoffset:40;animation:GrdFNAzL_draw 2000ms ease-in-out 504ms forwards;}.GrdFNAzL_52{stroke-dasharray:39 41;stroke-dashoffset:40;animation:GrdFNAzL_draw 2000ms ease-in-out 514ms forwards;}.GrdFNAzL_53{stroke-dasharray:39 41;stroke-dashoffset:40;animation:GrdFNAzL_draw 2000ms ease-in-out 524ms forwards;}.GrdFNAzL_54{stroke-dasharray:39 41;stroke-dashoffset:40;animation:GrdFNAzL_draw 2000ms ease-in-out 534ms forwards;}.GrdFNAzL_55{stroke-dasharray:39 41;stroke-dashoffset:40;animation:GrdFNAzL_draw 2000ms ease-in-out 544ms forwards;}.GrdFNAzL_56{stroke-dasharray:39 41;stroke-dashoffset:40;animation:GrdFNAzL_draw 2000ms ease-in-out 554ms forwards;}.GrdFNAzL_57{stroke-dasharray:39 41;stroke-dashoffset:40;animation:GrdFNAzL_draw 2000ms ease-in-out 564ms forwards;}.GrdFNAzL_58{stroke-dasharray:39 41;stroke-dashoffset:40;animation:GrdFNAzL_draw 2000ms ease-in-out 574ms forwards;}.GrdFNAzL_59{stroke-dasharray:39 41;stroke-dashoffset:40;animation:GrdFNAzL_draw 2000ms ease-in-out 584ms forwards;}.GrdFNAzL_60{stroke-dasharray:39 41;stroke-dashoffset:40;animation:GrdFNAzL_draw 2000ms ease-in-out 594ms forwards;}.GrdFNAzL_61{stroke-dasharray:39 41;stroke-dashoffset:40;animation:GrdFNAzL_draw 2000ms ease-in-out 603ms forwards;}.GrdFNAzL_62{stroke-dasharray:39 41;stroke-dashoffset:40;animation:GrdFNAzL_draw 2000ms ease-in-out 613ms forwards;}.GrdFNAzL_63{stroke-dasharray:39 41;stroke-dashoffset:40;animation:GrdFNAzL_draw 2000ms ease-in-out 623ms forwards;}.GrdFNAzL_64{stroke-dasharray:39 41;stroke-dashoffset:40;animation:GrdFNAzL_draw 2000ms ease-in-out 633ms forwards;}.GrdFNAzL_65{stroke-dasharray:39 41;stroke-dashoffset:40;animation:GrdFNAzL_draw 2000ms ease-in-out 643ms forwards;}.GrdFNAzL_66{stroke-dasharray:39 41;stroke-dashoffset:40;animation:GrdFNAzL_draw 2000ms ease-in-out 653ms forwards;}.GrdFNAzL_67{stroke-dasharray:39 41;stroke-dashoffset:40;animation:GrdFNAzL_draw 2000ms ease-in-out 663ms forwards;}.GrdFNAzL_68{stroke-dasharray:39 41;stroke-dashoffset:40;animation:GrdFNAzL_draw 2000ms ease-in-out 673ms forwards;}.GrdFNAzL_69{stroke-dasharray:39 41;stroke-dashoffset:40;animation:GrdFNAzL_draw 2000ms ease-in-out 683ms forwards;}.GrdFNAzL_70{stroke-dasharray:39 41;stroke-dashoffset:40;animation:GrdFNAzL_draw 2000ms ease-in-out 693ms forwards;}.GrdFNAzL_71{stroke-dasharray:39 41;stroke-dashoffset:40;animation:GrdFNAzL_draw 2000ms ease-in-out 702ms forwards;}.GrdFNAzL_72{stroke-dasharray:39 41;stroke-dashoffset:40;animation:GrdFNAzL_draw 2000ms ease-in-out 712ms forwards;}.GrdFNAzL_73{stroke-dasharray:39 41;stroke-dashoffset:40;animation:GrdFNAzL_draw 2000ms ease-in-out 722ms forwards;}.GrdFNAzL_74{stroke-dasharray:39 41;stroke-dashoffset:40;animation:GrdFNAzL_draw 2000ms ease-in-out 732ms forwards;}.GrdFNAzL_75{stroke-dasharray:39 41;stroke-dashoffset:40;animation:GrdFNAzL_draw 2000ms ease-in-out 742ms forwards;}.GrdFNAzL_76{stroke-dasharray:39 41;stroke-dashoffset:40;animation:GrdFNAzL_draw 2000ms ease-in-out 752ms forwards;}.GrdFNAzL_77{stroke-dasharray:39 41;stroke-dashoffset:40;animation:GrdFNAzL_draw 2000ms ease-in-out 762ms forwards;}.GrdFNAzL_78{stroke-dasharray:39 41;stroke-dashoffset:40;animation:GrdFNAzL_draw 2000ms ease-in-out 772ms forwards;}.GrdFNAzL_79{stroke-dasharray:39 41;stroke-dashoffset:40;animation:GrdFNAzL_draw 2000ms ease-in-out 782ms forwards;}.GrdFNAzL_80{stroke-dasharray:39 41;stroke-dashoffset:40;animation:GrdFNAzL_draw 2000ms ease-in-out 792ms forwards;}.GrdFNAzL_81{stroke-dasharray:39 41;stroke-dashoffset:40;animation:GrdFNAzL_draw 2000ms ease-in-out 801ms forwards;}.GrdFNAzL_82{stroke-dasharray:39 41;stroke-dashoffset:40;animation:GrdFNAzL_draw 2000ms ease-in-out 811ms forwards;}.GrdFNAzL_83{stroke-dasharray:39 41;stroke-dashoffset:40;animation:GrdFNAzL_draw 2000ms ease-in-out 821ms forwards;}.GrdFNAzL_84{stroke-dasharray:39 41;stroke-dashoffset:40;animation:GrdFNAzL_draw 2000ms ease-in-out 831ms forwards;}.GrdFNAzL_85{stroke-dasharray:39 41;stroke-dashoffset:40;animation:GrdFNAzL_draw 2000ms ease-in-out 841ms forwards;}.GrdFNAzL_86{stroke-dasharray:39 41;stroke-dashoffset:40;animation:GrdFNAzL_draw 2000ms ease-in-out 851ms forwards;}.GrdFNAzL_87{stroke-dasharray:39 41;stroke-dashoffset:40;animation:GrdFNAzL_draw 2000ms ease-in-out 861ms forwards;}.GrdFNAzL_88{stroke-dasharray:39 41;stroke-dashoffset:40;animation:GrdFNAzL_draw 2000ms ease-in-out 871ms forwards;}.GrdFNAzL_89{stroke-dasharray:113 115;stroke-dashoffset:114;animation:GrdFNAzL_draw 2000ms ease-in-out 881ms forwards;}.GrdFNAzL_90{stroke-dasharray:99 101;stroke-dashoffset:100;animation:GrdFNAzL_draw 2000ms ease-in-out 891ms forwards;}.GrdFNAzL_91{stroke-dasharray:262 264;stroke-dashoffset:263;animation:GrdFNAzL_draw 2000ms ease-in-out 900ms forwards;}.GrdFNAzL_92{stroke-dasharray:28 30;stroke-dashoffset:29;animation:GrdFNAzL_draw 2000ms ease-in-out 910ms forwards;}.GrdFNAzL_93{stroke-dasharray:28 30;stroke-dashoffset:29;animation:GrdFNAzL_draw 2000ms ease-in-out 920ms forwards;}.GrdFNAzL_94{stroke-dasharray:28 30;stroke-dashoffset:29;animation:GrdFNAzL_draw 2000ms ease-in-out 930ms forwards;}.GrdFNAzL_95{stroke-dasharray:28 30;stroke-dashoffset:29;animation:GrdFNAzL_draw 2000ms ease-in-out 940ms forwards;}.GrdFNAzL_96{stroke-dasharray:35 37;stroke-dashoffset:36;animation:GrdFNAzL_draw 2000ms ease-in-out 950ms forwards;}.GrdFNAzL_97{stroke-dasharray:35 37;stroke-dashoffset:36;animation:GrdFNAzL_draw 2000ms ease-in-out 960ms forwards;}.GrdFNAzL_98{stroke-dasharray:35 37;stroke-dashoffset:36;animation:GrdFNAzL_draw 2000ms ease-in-out 970ms forwards;}.GrdFNAzL_99{stroke-dasharray:34 36;stroke-dashoffset:35;animation:GrdFNAzL_draw 2000ms ease-in-out 980ms forwards;}.GrdFNAzL_100{stroke-dasharray:34 36;stroke-dashoffset:35;animation:GrdFNAzL_draw 2000ms ease-in-out 990ms forwards;}.GrdFNAzL_101{stroke-dasharray:34 36;stroke-dashoffset:35;animation:GrdFNAzL_draw 2000ms ease-in-out 1000ms forwards;}@keyframes GrdFNAzL_draw{100%{stroke-dashoffset:0;}}@keyframes GrdFNAzL_fade{0%{stroke-opacity:1;}94.44444444444444%{stroke-opacity:1;}100%{stroke-opacity:0;}}</style></svg>
