<svg width="384" height="302" viewBox="0 0 384 302" fill="none" xmlns="http://www.w3.org/2000/svg" style="">
<path d="M256.081 259.271C195.45 259.271 146.298 210.732 146.298 150.855C146.298 90.9783 195.45 42.4386 256.081 42.4386" stroke="#103957" stroke-width="6.47727" class="KOGORGlE_0"></path>
<path d="M300.166 223.102C339.096 198.935 351.303 148.17 327.431 109.714C303.558 71.2587 252.647 59.6756 213.717 83.8425" stroke="#103957" stroke-width="6.47727" class="KOGORGlE_1"></path>
<path d="M300.166 223.102C339.096 198.935 351.303 148.17 327.431 109.714C303.558 71.2587 252.647 59.6756 213.717 83.8425" stroke="#103957" stroke-width="6.47727" class="KOGORGlE_2"></path>
<path d="M291.735 241.119C240.758 260.194 184.158 234.837 165.316 184.482C146.473 134.127 172.523 77.8425 223.5 58.7673" stroke="#103957" stroke-width="10.3636" class="KOGORGlE_3"></path>
<path d="M135.364 209.974C147.26 243.366 182.512 271.794 222.599 277.261" stroke="#0088FF" stroke-width="6.47727" class="KOGORGlE_4"></path>
<path d="M344.952 187.792C364.07 138.458 339.574 82.9664 290.24 63.8488" stroke="#0088FF" stroke-width="6" stroke-linejoin="round" class="KOGORGlE_5"></path>
<path d="M198.228 93.454C159.963 132.174 165.885 189.571 212.349 221.914" stroke="#0088FF" stroke-width="8" stroke-linejoin="round" class="KOGORGlE_6"></path>
<path d="M175.37 57.3174C148.459 79.4196 137.543 107.197 135.703 122.53" stroke="#103957" stroke-width="11.6591" stroke-linejoin="round" class="KOGORGlE_7"></path>
<path d="M83.5 261.5V217.256L114.866 202.326" stroke="#103957" stroke-width="7.77273" class="KOGORGlE_8"></path>
<path d="M142.812 197.135C142.812 205.123 136.336 211.599 128.347 211.599C120.359 211.599 113.883 205.123 113.883 197.135C113.883 189.147 120.359 182.671 128.347 182.671C136.336 182.671 142.812 189.147 142.812 197.135Z" stroke="#103957" stroke-width="2.59091" class="KOGORGlE_9"></path>
<path d="M97.5206 283.292C98.1661 281.571 98.5191 279.706 98.5191 277.76C98.5191 269.056 91.4633 262 82.7595 262C74.0558 262 67 269.056 67 277.76C67 279.706 67.353 281.571 67.9985 283.292" stroke="#103957" stroke-width="5.18182" class="KOGORGlE_10"></path>
<path d="M138.933 197.135C138.933 202.982 134.194 207.721 128.348 207.721C122.502 207.721 117.763 202.982 117.763 197.135C117.763 191.289 122.502 186.55 128.348 186.55C134.194 186.55 138.933 191.289 138.933 197.135Z" stroke="#0088FF" stroke-width="1.94318" class="KOGORGlE_11"></path>
<path d="M135.054 197.135C135.054 200.839 132.052 203.842 128.348 203.842C124.644 203.842 121.641 200.839 121.641 197.135C121.641 193.431 124.644 190.429 128.348 190.429C132.052 190.429 135.054 193.431 135.054 197.135Z" stroke="#0088FF" stroke-width="1.29545" class="KOGORGlE_12"></path>
<path d="M86.545 277.716C86.545 279.894 84.7796 281.659 82.6019 281.659C80.4241 281.659 78.6587 279.894 78.6587 277.716C78.6587 275.538 80.4241 273.773 82.6019 273.773C84.7796 273.773 86.545 275.538 86.545 277.716Z" stroke="#103957" stroke-width="2.59091" class="KOGORGlE_13"></path>
<path d="M260.182 102.183V77.5146" stroke="#103957" stroke-width="0.647727" class="KOGORGlE_14"></path>
<path d="M260.181 226.018V201.35" stroke="#103957" stroke-width="0.647727" class="KOGORGlE_15"></path>
<path d="M255.861 102.372L253.711 77.7972" stroke="#103957" stroke-width="0.647727" class="KOGORGlE_16"></path>
<path d="M266.652 225.735L264.502 201.161" stroke="#103957" stroke-width="0.647727" class="KOGORGlE_17"></path>
<path d="M251.573 102.936L247.289 78.6426" stroke="#103957" stroke-width="0.647727" class="KOGORGlE_18"></path>
<path d="M273.075 224.89L268.791 200.596" stroke="#103957" stroke-width="0.647727" class="KOGORGlE_19"></path>
<path d="M247.348 103.872L240.964 80.0447" stroke="#103957" stroke-width="0.647727" class="KOGORGlE_20"></path>
<path d="M279.399 223.488L273.015 199.66" stroke="#103957" stroke-width="0.647727" class="KOGORGlE_21"></path>
<path d="M243.223 105.173L234.786 81.9921" stroke="#103957" stroke-width="0.647727" class="KOGORGlE_22"></path>
<path d="M285.576 221.54L277.139 198.359" stroke="#103957" stroke-width="0.647727" class="KOGORGlE_23"></path>
<path d="M239.226 106.829L228.801 84.4716" stroke="#103957" stroke-width="0.647727" class="KOGORGlE_24"></path>
<path d="M291.561 219.061L281.136 196.704" stroke="#103957" stroke-width="0.647727" class="KOGORGlE_25"></path>
<path d="M235.39 108.826L223.056 87.4626" stroke="#103957" stroke-width="0.647727" class="KOGORGlE_26"></path>
<path d="M297.307 216.07L284.973 194.707" stroke="#103957" stroke-width="0.647727" class="KOGORGlE_27"></path>
<path d="M231.742 111.15L217.593 90.943" stroke="#103957" stroke-width="0.647727" class="KOGORGlE_28"></path>
<path d="M302.771 212.59L288.622 192.382" stroke="#103957" stroke-width="0.647727" class="KOGORGlE_29"></path>
<path d="M228.311 113.782L212.454 94.8854" stroke="#103957" stroke-width="0.647727" class="KOGORGlE_30"></path>
<path d="M307.909 208.646L292.053 189.749" stroke="#103957" stroke-width="0.647727" class="KOGORGlE_31"></path>
<path d="M225.121 116.705L207.678 99.2623" stroke="#103957" stroke-width="0.647727" class="KOGORGlE_32"></path>
<path d="M312.685 204.27L295.242 186.827" stroke="#103957" stroke-width="0.647727" class="KOGORGlE_33"></path>
<path d="M222.199 119.895L203.302 104.038" stroke="#103957" stroke-width="0.647727" class="KOGORGlE_34"></path>
<path d="M317.062 199.494L298.165 183.638" stroke="#103957" stroke-width="0.647727" class="KOGORGlE_35"></path>
<path d="M219.566 123.326L199.359 109.177" stroke="#103957" stroke-width="0.647727" class="KOGORGlE_36"></path>
<path d="M321.005 194.355L300.798 180.206" stroke="#103957" stroke-width="0.647727" class="KOGORGlE_37"></path>
<path d="M217.241 126.974L195.878 114.64" stroke="#103957" stroke-width="0.647727" class="KOGORGlE_38"></path>
<path d="M324.485 188.892L303.122 176.558" stroke="#103957" stroke-width="0.647727" class="KOGORGlE_39"></path>
<path d="M215.244 130.811L192.887 120.386" stroke="#103957" stroke-width="0.647727" class="KOGORGlE_40"></path>
<path d="M327.476 183.146L305.119 172.721" stroke="#103957" stroke-width="0.647727" class="KOGORGlE_41"></path>
<path d="M213.589 134.808L190.408 126.371" stroke="#103957" stroke-width="0.647727" class="KOGORGlE_42"></path>
<path d="M329.955 177.162L306.774 168.725" stroke="#103957" stroke-width="0.647727" class="KOGORGlE_43"></path>
<path d="M212.288 138.933L188.46 132.548" stroke="#103957" stroke-width="0.647727" class="KOGORGlE_44"></path>
<path d="M331.903 170.984L308.075 164.599" stroke="#103957" stroke-width="0.647727" class="KOGORGlE_45"></path>
<path d="M211.351 143.156L187.058 138.873" stroke="#103957" stroke-width="0.647727" class="KOGORGlE_46"></path>
<path d="M333.304 164.66L309.011 160.376" stroke="#103957" stroke-width="0.647727" class="KOGORGlE_47"></path>
<path d="M210.786 147.445L186.212 145.295" stroke="#103957" stroke-width="0.647727" class="KOGORGlE_48"></path>
<path d="M334.15 158.238L309.575 156.088" stroke="#103957" stroke-width="0.647727" class="KOGORGlE_49"></path>
<path d="M210.598 151.766H185.93" stroke="#103957" stroke-width="0.647727" class="KOGORGlE_50"></path>
<path d="M334.434 151.766H309.766" stroke="#103957" stroke-width="0.647727" class="KOGORGlE_51"></path>
<path d="M210.786 156.087L186.212 158.237" stroke="#103957" stroke-width="0.647727" class="KOGORGlE_52"></path>
<path d="M334.15 145.295L309.575 147.445" stroke="#103957" stroke-width="0.647727" class="KOGORGlE_53"></path>
<path d="M211.351 160.376L187.058 164.659" stroke="#103957" stroke-width="0.647727" class="KOGORGlE_54"></path>
<path d="M333.304 138.873L309.011 143.156" stroke="#103957" stroke-width="0.647727" class="KOGORGlE_55"></path>
<path d="M212.288 164.599L188.46 170.984" stroke="#103957" stroke-width="0.647727" class="KOGORGlE_56"></path>
<path d="M331.903 132.548L308.075 138.933" stroke="#103957" stroke-width="0.647727" class="KOGORGlE_57"></path>
<path d="M213.588 168.723L190.407 177.16" stroke="#103957" stroke-width="0.647727" class="KOGORGlE_58"></path>
<path d="M329.955 126.371L306.774 134.808" stroke="#103957" stroke-width="0.647727" class="KOGORGlE_59"></path>
<path d="M215.244 172.721L192.887 183.146" stroke="#103957" stroke-width="0.647727" class="KOGORGlE_60"></path>
<path d="M327.476 120.386L305.119 130.811" stroke="#103957" stroke-width="0.647727" class="KOGORGlE_61"></path>
<path d="M217.241 176.558L195.878 188.892" stroke="#103957" stroke-width="0.647727" class="KOGORGlE_62"></path>
<path d="M324.485 114.64L303.122 126.974" stroke="#103957" stroke-width="0.647727" class="KOGORGlE_63"></path>
<path d="M219.565 180.206L199.358 194.355" stroke="#103957" stroke-width="0.647727" class="KOGORGlE_64"></path>
<path d="M321.005 109.177L300.798 123.326" stroke="#103957" stroke-width="0.647727" class="KOGORGlE_65"></path>
<path d="M222.198 183.636L203.301 199.493" stroke="#103957" stroke-width="0.647727" class="KOGORGlE_66"></path>
<path d="M317.062 104.038L298.165 119.895" stroke="#103957" stroke-width="0.647727" class="KOGORGlE_67"></path>
<path d="M225.119 186.826L207.676 204.269" stroke="#103957" stroke-width="0.647727" class="KOGORGlE_68"></path>
<path d="M312.685 99.2626L295.242 116.706" stroke="#103957" stroke-width="0.647727" class="KOGORGlE_69"></path>
<path d="M228.31 189.749L212.453 208.646" stroke="#103957" stroke-width="0.647727" class="KOGORGlE_70"></path>
<path d="M307.908 94.8862L292.052 113.783" stroke="#103957" stroke-width="0.647727" class="KOGORGlE_71"></path>
<path d="M231.741 192.383L217.592 212.59" stroke="#103957" stroke-width="0.647727" class="KOGORGlE_72"></path>
<path d="M302.769 90.9429L288.62 111.15" stroke="#103957" stroke-width="0.647727" class="KOGORGlE_73"></path>
<path d="M235.39 194.707L223.056 216.07" stroke="#103957" stroke-width="0.647727" class="KOGORGlE_74"></path>
<path d="M297.307 87.4626L284.973 108.826" stroke="#103957" stroke-width="0.647727" class="KOGORGlE_75"></path>
<path d="M239.225 196.703L228.8 219.061" stroke="#103957" stroke-width="0.647727" class="KOGORGlE_76"></path>
<path d="M291.561 84.4714L281.136 106.828" stroke="#103957" stroke-width="0.647727" class="KOGORGlE_77"></path>
<path d="M243.223 198.359L234.786 221.54" stroke="#103957" stroke-width="0.647727" class="KOGORGlE_78"></path>
<path d="M285.577 81.9926L277.14 105.173" stroke="#103957" stroke-width="0.647727" class="KOGORGlE_79"></path>
<path d="M247.348 199.66L240.964 223.488" stroke="#103957" stroke-width="0.647727" class="KOGORGlE_80"></path>
<path d="M279.399 80.0448L273.015 103.873" stroke="#103957" stroke-width="0.647727" class="KOGORGlE_81"></path>
<path d="M251.571 200.596L247.287 224.89" stroke="#103957" stroke-width="0.647727" class="KOGORGlE_82"></path>
<path d="M273.074 78.6426L268.79 102.936" stroke="#103957" stroke-width="0.647727" class="KOGORGlE_83"></path>
<path d="M255.86 201.161L253.71 225.735" stroke="#103957" stroke-width="0.647727" class="KOGORGlE_84"></path>
<path d="M266.653 77.7972L264.503 102.372" stroke="#103957" stroke-width="0.647727" class="KOGORGlE_85"></path>
<path d="M247.193 141.972C247.847 141.972 248.414 142.52 248.414 143.243C248.414 143.966 247.847 144.514 247.193 144.514C246.539 144.514 245.972 143.966 245.972 143.243C245.972 142.52 246.539 141.972 247.193 141.972ZM267.49 143.243C267.49 143.966 266.923 144.514 266.269 144.514C265.615 144.514 265.048 143.966 265.048 143.243C265.048 142.52 265.615 141.972 266.269 141.972C266.923 141.972 267.49 142.52 267.49 143.243ZM277.028 143.243C277.028 143.966 276.461 144.514 275.807 144.514C275.153 144.514 274.586 143.966 274.586 143.243C274.586 142.52 275.153 141.972 275.807 141.972C276.461 141.972 277.028 142.52 277.028 143.243ZM247.193 151.729C247.847 151.729 248.414 152.277 248.414 153C248.414 153.723 247.847 154.271 247.193 154.271C246.539 154.271 245.972 153.723 245.972 153C245.972 152.277 246.539 151.729 247.193 151.729ZM245.972 162.757C245.972 162.034 246.539 161.486 247.193 161.486C247.847 161.486 248.414 162.034 248.414 162.757C248.414 163.48 247.847 164.028 247.193 164.028C246.539 164.028 245.972 163.48 245.972 162.757ZM257.952 143.243C257.952 143.966 257.385 144.514 256.731 144.514C256.077 144.514 255.51 143.966 255.51 143.243C255.51 142.52 256.077 141.972 256.731 141.972C257.385 141.972 257.952 142.52 257.952 143.243ZM256.731 154.271C256.077 154.271 255.51 153.723 255.51 153C255.51 152.277 256.077 151.729 256.731 151.729C257.385 151.729 257.952 152.277 257.952 153C257.952 153.723 257.385 154.271 256.731 154.271ZM256.731 161.486C257.385 161.486 257.952 162.034 257.952 162.757C257.952 163.48 257.385 164.028 256.731 164.028C256.077 164.028 255.51 163.48 255.51 162.757C255.51 162.034 256.077 161.486 256.731 161.486ZM266.269 154.271C265.615 154.271 265.048 153.723 265.048 153C265.048 152.277 265.615 151.729 266.269 151.729C266.923 151.729 267.49 152.277 267.49 153C267.49 153.723 266.923 154.271 266.269 154.271Z" stroke="#103957" stroke-width="1.94318" class="KOGORGlE_86"></path>
<path d="M252.42 175.502H246.33C239.891 175.502 234.671 170.282 234.671 163.843V139.26C234.671 132.821 239.891 127.601 246.33 127.601H275.19C281.629 127.601 286.849 132.821 286.849 139.26V150.269M253.061 181.062L265.892 168.018C269.527 163.955 271.238 170.798 274.018 168.659C276.798 166.521 285.566 157.539 285.566 157.539" stroke="#103957" stroke-width="2" class="KOGORGlE_87"></path>
<path d="M247.074 120.33V128.002V137.866" stroke="#0088FF" stroke-width="4.53409" class="KOGORGlE_88"></path>
<path d="M256.164 120.33V128.002V137.866" stroke="#0088FF" stroke-width="4.53409" class="KOGORGlE_89"></path>
<path d="M265.732 120.33V128.002V137.866" stroke="#0088FF" stroke-width="4.53409" class="KOGORGlE_90"></path>
<path d="M275.301 120.33V128.002V137.866" stroke="#0088FF" stroke-width="4.53409" class="KOGORGlE_91"></path>
<path d="M274 157H286V168" stroke="#103957" stroke-width="2" class="KOGORGlE_92"></path>
<path d="M115.094 128.302L137.346 132.525" stroke="#103957" stroke-width="2.59091" class="KOGORGlE_93"></path>
<path d="M113.955 139.007L135.883 141.411" stroke="#103957" stroke-width="2.59091" class="KOGORGlE_94"></path>
<path d="M113.499 150.387L135.201 150.387" stroke="#103957" stroke-width="2.59091" class="KOGORGlE_95"></path>
<path d="M113.955 161.1L135.307 159.389" stroke="#103957" stroke-width="2.59091" class="KOGORGlE_96"></path>
<path d="M114.866 171.805L136.198 168.346" stroke="#103957" stroke-width="2.59091" class="KOGORGlE_97"></path>
<style data-made-with="vivus-instant">.KOGORGlE_0{stroke-dasharray:343 345;stroke-dashoffset:344;animation:KOGORGlE_draw 2000ms ease-in-out 0ms forwards;}.KOGORGlE_1{stroke-dasharray:260 262;stroke-dashoffset:261;animation:KOGORGlE_draw 2000ms ease-in-out 10ms forwards;}.KOGORGlE_2{stroke-dasharray:260 262;stroke-dashoffset:261;animation:KOGORGlE_draw 2000ms ease-in-out 20ms forwards;}.KOGORGlE_3{stroke-dasharray:308 310;stroke-dashoffset:309;animation:KOGORGlE_draw 2000ms ease-in-out 30ms forwards;}.KOGORGlE_4{stroke-dasharray:116 118;stroke-dashoffset:117;animation:KOGORGlE_draw 2000ms ease-in-out 41ms forwards;}.KOGORGlE_5{stroke-dasharray:151 153;stroke-dashoffset:152;animation:KOGORGlE_draw 2000ms ease-in-out 51ms forwards;}.KOGORGlE_6{stroke-dasharray:149 151;stroke-dashoffset:150;animation:KOGORGlE_draw 2000ms ease-in-out 61ms forwards;}.KOGORGlE_7{stroke-dasharray:78 80;stroke-dashoffset:79;animation:KOGORGlE_draw 2000ms ease-in-out 72ms forwards;}.KOGORGlE_8{stroke-dasharray:79 81;stroke-dashoffset:80;animation:KOGORGlE_draw 2000ms ease-in-out 82ms forwards;}.KOGORGlE_9{stroke-dasharray:91 93;stroke-dashoffset:92;animation:KOGORGlE_draw 2000ms ease-in-out 92ms forwards;}.KOGORGlE_10{stroke-dasharray:61 63;stroke-dashoffset:62;animation:KOGORGlE_draw 2000ms ease-in-out 103ms forwards;}.KOGORGlE_11{stroke-dasharray:67 69;stroke-dashoffset:68;animation:KOGORGlE_draw 2000ms ease-in-out 113ms forwards;}.KOGORGlE_12{stroke-dasharray:43 45;stroke-dashoffset:44;animation:KOGORGlE_draw 2000ms ease-in-out 123ms forwards;}.KOGORGlE_13{stroke-dasharray:25 27;stroke-dashoffset:26;animation:KOGORGlE_draw 2000ms ease-in-out 134ms forwards;}.KOGORGlE_14{stroke-dasharray:25 27;stroke-dashoffset:26;animation:KOGORGlE_draw 2000ms ease-in-out 144ms forwards;}.KOGORGlE_15{stroke-dasharray:25 27;stroke-dashoffset:26;animation:KOGORGlE_draw 2000ms ease-in-out 154ms forwards;}.KOGORGlE_16{stroke-dasharray:25 27;stroke-dashoffset:26;animation:KOGORGlE_draw 2000ms ease-in-out 164ms forwards;}.KOGORGlE_17{stroke-dasharray:25 27;stroke-dashoffset:26;animation:KOGORGlE_draw 2000ms ease-in-out 175ms forwards;}.KOGORGlE_18{stroke-dasharray:25 27;stroke-dashoffset:26;animation:KOGORGlE_draw 2000ms ease-in-out 185ms forwards;}.KOGORGlE_19{stroke-dasharray:25 27;stroke-dashoffset:26;animation:KOGORGlE_draw 2000ms ease-in-out 195ms forwards;}.KOGORGlE_20{stroke-dasharray:25 27;stroke-dashoffset:26;animation:KOGORGlE_draw 2000ms ease-in-out 206ms forwards;}.KOGORGlE_21{stroke-dasharray:25 27;stroke-dashoffset:26;animation:KOGORGlE_draw 2000ms ease-in-out 216ms forwards;}.KOGORGlE_22{stroke-dasharray:25 27;stroke-dashoffset:26;animation:KOGORGlE_draw 2000ms ease-in-out 226ms forwards;}.KOGORGlE_23{stroke-dasharray:25 27;stroke-dashoffset:26;animation:KOGORGlE_draw 2000ms ease-in-out 237ms forwards;}.KOGORGlE_24{stroke-dasharray:25 27;stroke-dashoffset:26;animation:KOGORGlE_draw 2000ms ease-in-out 247ms forwards;}.KOGORGlE_25{stroke-dasharray:25 27;stroke-dashoffset:26;animation:KOGORGlE_draw 2000ms ease-in-out 257ms forwards;}.KOGORGlE_26{stroke-dasharray:25 27;stroke-dashoffset:26;animation:KOGORGlE_draw 2000ms ease-in-out 268ms forwards;}.KOGORGlE_27{stroke-dasharray:25 27;stroke-dashoffset:26;animation:KOGORGlE_draw 2000ms ease-in-out 278ms forwards;}.KOGORGlE_28{stroke-dasharray:25 27;stroke-dashoffset:26;animation:KOGORGlE_draw 2000ms ease-in-out 288ms forwards;}.KOGORGlE_29{stroke-dasharray:25 27;stroke-dashoffset:26;animation:KOGORGlE_draw 2000ms ease-in-out 298ms forwards;}.KOGORGlE_30{stroke-dasharray:25 27;stroke-dashoffset:26;animation:KOGORGlE_draw 2000ms ease-in-out 309ms forwards;}.KOGORGlE_31{stroke-dasharray:25 27;stroke-dashoffset:26;animation:KOGORGlE_draw 2000ms ease-in-out 319ms forwards;}.KOGORGlE_32{stroke-dasharray:25 27;stroke-dashoffset:26;animation:KOGORGlE_draw 2000ms ease-in-out 329ms forwards;}.KOGORGlE_33{stroke-dasharray:25 27;stroke-dashoffset:26;animation:KOGORGlE_draw 2000ms ease-in-out 340ms forwards;}.KOGORGlE_34{stroke-dasharray:25 27;stroke-dashoffset:26;animation:KOGORGlE_draw 2000ms ease-in-out 350ms forwards;}.KOGORGlE_35{stroke-dasharray:25 27;stroke-dashoffset:26;animation:KOGORGlE_draw 2000ms ease-in-out 360ms forwards;}.KOGORGlE_36{stroke-dasharray:25 27;stroke-dashoffset:26;animation:KOGORGlE_draw 2000ms ease-in-out 371ms forwards;}.KOGORGlE_37{stroke-dasharray:25 27;stroke-dashoffset:26;animation:KOGORGlE_draw 2000ms ease-in-out 381ms forwards;}.KOGORGlE_38{stroke-dasharray:25 27;stroke-dashoffset:26;animation:KOGORGlE_draw 2000ms ease-in-out 391ms forwards;}.KOGORGlE_39{stroke-dasharray:25 27;stroke-dashoffset:26;animation:KOGORGlE_draw 2000ms ease-in-out 402ms forwards;}.KOGORGlE_40{stroke-dasharray:25 27;stroke-dashoffset:26;animation:KOGORGlE_draw 2000ms ease-in-out 412ms forwards;}.KOGORGlE_41{stroke-dasharray:25 27;stroke-dashoffset:26;animation:KOGORGlE_draw 2000ms ease-in-out 422ms forwards;}.KOGORGlE_42{stroke-dasharray:25 27;stroke-dashoffset:26;animation:KOGORGlE_draw 2000ms ease-in-out 432ms forwards;}.KOGORGlE_43{stroke-dasharray:25 27;stroke-dashoffset:26;animation:KOGORGlE_draw 2000ms ease-in-out 443ms forwards;}.KOGORGlE_44{stroke-dasharray:25 27;stroke-dashoffset:26;animation:KOGORGlE_draw 2000ms ease-in-out 453ms forwards;}.KOGORGlE_45{stroke-dasharray:25 27;stroke-dashoffset:26;animation:KOGORGlE_draw 2000ms ease-in-out 463ms forwards;}.KOGORGlE_46{stroke-dasharray:25 27;stroke-dashoffset:26;animation:KOGORGlE_draw 2000ms ease-in-out 474ms forwards;}.KOGORGlE_47{stroke-dasharray:25 27;stroke-dashoffset:26;animation:KOGORGlE_draw 2000ms ease-in-out 484ms forwards;}.KOGORGlE_48{stroke-dasharray:25 27;stroke-dashoffset:26;animation:KOGORGlE_draw 2000ms ease-in-out 494ms forwards;}.KOGORGlE_49{stroke-dasharray:25 27;stroke-dashoffset:26;animation:KOGORGlE_draw 2000ms ease-in-out 505ms forwards;}.KOGORGlE_50{stroke-dasharray:25 27;stroke-dashoffset:26;animation:KOGORGlE_draw 2000ms ease-in-out 515ms forwards;}.KOGORGlE_51{stroke-dasharray:25 27;stroke-dashoffset:26;animation:KOGORGlE_draw 2000ms ease-in-out 525ms forwards;}.KOGORGlE_52{stroke-dasharray:25 27;stroke-dashoffset:26;animation:KOGORGlE_draw 2000ms ease-in-out 536ms forwards;}.KOGORGlE_53{stroke-dasharray:25 27;stroke-dashoffset:26;animation:KOGORGlE_draw 2000ms ease-in-out 546ms forwards;}.KOGORGlE_54{stroke-dasharray:25 27;stroke-dashoffset:26;animation:KOGORGlE_draw 2000ms ease-in-out 556ms forwards;}.KOGORGlE_55{stroke-dasharray:25 27;stroke-dashoffset:26;animation:KOGORGlE_draw 2000ms ease-in-out 567ms forwards;}.KOGORGlE_56{stroke-dasharray:25 27;stroke-dashoffset:26;animation:KOGORGlE_draw 2000ms ease-in-out 577ms forwards;}.KOGORGlE_57{stroke-dasharray:25 27;stroke-dashoffset:26;animation:KOGORGlE_draw 2000ms ease-in-out 587ms forwards;}.KOGORGlE_58{stroke-dasharray:25 27;stroke-dashoffset:26;animation:KOGORGlE_draw 2000ms ease-in-out 597ms forwards;}.KOGORGlE_59{stroke-dasharray:25 27;stroke-dashoffset:26;animation:KOGORGlE_draw 2000ms ease-in-out 608ms forwards;}.KOGORGlE_60{stroke-dasharray:25 27;stroke-dashoffset:26;animation:KOGORGlE_draw 2000ms ease-in-out 618ms forwards;}.KOGORGlE_61{stroke-dasharray:25 27;stroke-dashoffset:26;animation:KOGORGlE_draw 2000ms ease-in-out 628ms forwards;}.KOGORGlE_62{stroke-dasharray:25 27;stroke-dashoffset:26;animation:KOGORGlE_draw 2000ms ease-in-out 639ms forwards;}.KOGORGlE_63{stroke-dasharray:25 27;stroke-dashoffset:26;animation:KOGORGlE_draw 2000ms ease-in-out 649ms forwards;}.KOGORGlE_64{stroke-dasharray:25 27;stroke-dashoffset:26;animation:KOGORGlE_draw 2000ms ease-in-out 659ms forwards;}.KOGORGlE_65{stroke-dasharray:25 27;stroke-dashoffset:26;animation:KOGORGlE_draw 2000ms ease-in-out 670ms forwards;}.KOGORGlE_66{stroke-dasharray:25 27;stroke-dashoffset:26;animation:KOGORGlE_draw 2000ms ease-in-out 680ms forwards;}.KOGORGlE_67{stroke-dasharray:25 27;stroke-dashoffset:26;animation:KOGORGlE_draw 2000ms ease-in-out 690ms forwards;}.KOGORGlE_68{stroke-dasharray:25 27;stroke-dashoffset:26;animation:KOGORGlE_draw 2000ms ease-in-out 701ms forwards;}.KOGORGlE_69{stroke-dasharray:25 27;stroke-dashoffset:26;animation:KOGORGlE_draw 2000ms ease-in-out 711ms forwards;}.KOGORGlE_70{stroke-dasharray:25 27;stroke-dashoffset:26;animation:KOGORGlE_draw 2000ms ease-in-out 721ms forwards;}.KOGORGlE_71{stroke-dasharray:25 27;stroke-dashoffset:26;animation:KOGORGlE_draw 2000ms ease-in-out 731ms forwards;}.KOGORGlE_72{stroke-dasharray:25 27;stroke-dashoffset:26;animation:KOGORGlE_draw 2000ms ease-in-out 742ms forwards;}.KOGORGlE_73{stroke-dasharray:25 27;stroke-dashoffset:26;animation:KOGORGlE_draw 2000ms ease-in-out 752ms forwards;}.KOGORGlE_74{stroke-dasharray:25 27;stroke-dashoffset:26;animation:KOGORGlE_draw 2000ms ease-in-out 762ms forwards;}.KOGORGlE_75{stroke-dasharray:25 27;stroke-dashoffset:26;animation:KOGORGlE_draw 2000ms ease-in-out 773ms forwards;}.KOGORGlE_76{stroke-dasharray:25 27;stroke-dashoffset:26;animation:KOGORGlE_draw 2000ms ease-in-out 783ms forwards;}.KOGORGlE_77{stroke-dasharray:25 27;stroke-dashoffset:26;animation:KOGORGlE_draw 2000ms ease-in-out 793ms forwards;}.KOGORGlE_78{stroke-dasharray:25 27;stroke-dashoffset:26;animation:KOGORGlE_draw 2000ms ease-in-out 804ms forwards;}.KOGORGlE_79{stroke-dasharray:25 27;stroke-dashoffset:26;animation:KOGORGlE_draw 2000ms ease-in-out 814ms forwards;}.KOGORGlE_80{stroke-dasharray:25 27;stroke-dashoffset:26;animation:KOGORGlE_draw 2000ms ease-in-out 824ms forwards;}.KOGORGlE_81{stroke-dasharray:25 27;stroke-dashoffset:26;animation:KOGORGlE_draw 2000ms ease-in-out 835ms forwards;}.KOGORGlE_82{stroke-dasharray:25 27;stroke-dashoffset:26;animation:KOGORGlE_draw 2000ms ease-in-out 845ms forwards;}.KOGORGlE_83{stroke-dasharray:25 27;stroke-dashoffset:26;animation:KOGORGlE_draw 2000ms ease-in-out 855ms forwards;}.KOGORGlE_84{stroke-dasharray:25 27;stroke-dashoffset:26;animation:KOGORGlE_draw 2000ms ease-in-out 865ms forwards;}.KOGORGlE_85{stroke-dasharray:25 27;stroke-dashoffset:26;animation:KOGORGlE_draw 2000ms ease-in-out 876ms forwards;}.KOGORGlE_86{stroke-dasharray:71 73;stroke-dashoffset:72;animation:KOGORGlE_draw 2000ms ease-in-out 886ms forwards;}.KOGORGlE_87{stroke-dasharray:170 172;stroke-dashoffset:171;animation:KOGORGlE_draw 2000ms ease-in-out 896ms forwards;}.KOGORGlE_88{stroke-dasharray:18 20;stroke-dashoffset:19;animation:KOGORGlE_draw 2000ms ease-in-out 907ms forwards;}.KOGORGlE_89{stroke-dasharray:18 20;stroke-dashoffset:19;animation:KOGORGlE_draw 2000ms ease-in-out 917ms forwards;}.KOGORGlE_90{stroke-dasharray:18 20;stroke-dashoffset:19;animation:KOGORGlE_draw 2000ms ease-in-out 927ms forwards;}.KOGORGlE_91{stroke-dasharray:18 20;stroke-dashoffset:19;animation:KOGORGlE_draw 2000ms ease-in-out 938ms forwards;}.KOGORGlE_92{stroke-dasharray:23 25;stroke-dashoffset:24;animation:KOGORGlE_draw 2000ms ease-in-out 948ms forwards;}.KOGORGlE_93{stroke-dasharray:23 25;stroke-dashoffset:24;animation:KOGORGlE_draw 2000ms ease-in-out 958ms forwards;}.KOGORGlE_94{stroke-dasharray:23 25;stroke-dashoffset:24;animation:KOGORGlE_draw 2000ms ease-in-out 969ms forwards;}.KOGORGlE_95{stroke-dasharray:22 24;stroke-dashoffset:23;animation:KOGORGlE_draw 2000ms ease-in-out 979ms forwards;}.KOGORGlE_96{stroke-dasharray:22 24;stroke-dashoffset:23;animation:KOGORGlE_draw 2000ms ease-in-out 989ms forwards;}.KOGORGlE_97{stroke-dasharray:22 24;stroke-dashoffset:23;animation:KOGORGlE_draw 2000ms ease-in-out 1000ms forwards;}@keyframes KOGORGlE_draw{100%{stroke-dashoffset:0;}}@keyframes KOGORGlE_fade{0%{stroke-opacity:1;}94.44444444444444%{stroke-opacity:1;}100%{stroke-opacity:0;}}</style></svg>
