<svg width="363" height="289" viewBox="0 0 363 289" fill="none" xmlns="http://www.w3.org/2000/svg" style="">
<path d="M288.912 222.93L320.152 257.402H239.358V284.333" stroke="white" stroke-width="4.41788" class="WUfMPpkw_0"></path>
<path d="M108.443 251.889C108.443 251.889 117.844 260.971 126.013 263.862" stroke="#0088FF" stroke-width="0.883576" class="WUfMPpkw_1"></path>
<path d="M155.668 196.075L99.5645 261.45L91.9445 254.752" stroke="#0088FF" stroke-width="0.883576" class="WUfMPpkw_2"></path>
<path d="M76.1034 255.061C71.5951 251.097 71.2049 244.288 75.2283 239.851C79.2517 235.414 86.1678 235.028 90.676 238.991C95.1842 242.954 95.5745 249.764 91.5511 254.201C87.5277 258.637 80.6116 259.024 76.1034 255.061Z" stroke="#0088FF" stroke-width="1.32536" class="WUfMPpkw_3"></path>
<path d="M78.1638 252.787C74.9309 249.945 74.6514 245.062 77.5361 241.881C80.4208 238.7 85.3801 238.422 88.613 241.264C91.846 244.107 92.1255 248.99 89.2407 252.171C86.356 255.352 81.3968 255.629 78.1638 252.787Z" stroke="#0088FF" stroke-width="1.32536" class="WUfMPpkw_4"></path>
<path d="M80.2263 250.514C78.2686 248.793 78.0999 245.836 79.8459 243.911C81.592 241.986 84.5943 241.817 86.552 243.538C88.5097 245.259 88.6784 248.215 86.9324 250.141C85.1863 252.066 82.184 252.235 80.2263 250.514Z" stroke="#0088FF" stroke-width="1.32536" class="WUfMPpkw_5"></path>
<path d="M127.315 267.688C125.903 266.447 125.782 264.316 127.04 262.928C128.299 261.54 130.464 261.418 131.875 262.659C133.287 263.9 133.409 266.031 132.15 267.419C130.891 268.808 128.726 268.929 127.315 267.688Z" stroke="#0088FF" stroke-width="0.883576" class="WUfMPpkw_6"></path>
<path d="M308.06 196.902C274.098 244.698 207.39 256.459 159.065 223.17C110.739 189.881 99.0959 124.149 133.059 76.353" stroke="white" stroke-width="5.0526" class="WUfMPpkw_7"></path>
<path d="M274.084 60.0289C316.288 92.3519 324.094 151.979 291.52 193.21C274.834 214.331 250.788 226.527 225.628 229.055" stroke="white" stroke-width="5.0526" class="WUfMPpkw_8"></path>
<path d="M198.483 221.13C151.107 209.676 122.131 162.577 133.764 115.93" stroke="#0088FF" stroke-width="9.09469" stroke-linejoin="round" class="WUfMPpkw_9"></path>
<path d="M185.008 53.8852C233.255 37.1948 286.718 49.3917 308.287 104.246" stroke="white" stroke-width="9.09469" stroke-linejoin="round" class="WUfMPpkw_10"></path>
<path d="M262.989 35.3994C318.223 56.1079 345.949 116.982 324.916 171.365" stroke="white" stroke-width="9.09469" stroke-linejoin="round" class="WUfMPpkw_11"></path>
<path d="M261.703 105.352L281.397 89.785" stroke="white" stroke-width="0.498179" class="WUfMPpkw_12"></path>
<path d="M162.833 183.496L182.528 167.929" stroke="white" stroke-width="0.498179" class="WUfMPpkw_13"></path>
<path d="M258.784 102.075L277.026 84.8781" stroke="white" stroke-width="0.498179" class="WUfMPpkw_14"></path>
<path d="M167.207 188.404L185.449 171.207" stroke="white" stroke-width="0.498179" class="WUfMPpkw_15"></path>
<path d="M255.583 99.0588L272.233 80.3616" stroke="white" stroke-width="0.498179" class="WUfMPpkw_16"></path>
<path d="M171.999 192.919L188.649 174.222" stroke="white" stroke-width="0.498179" class="WUfMPpkw_17"></path>
<path d="M252.13 96.3299L267.062 76.275" stroke="white" stroke-width="0.498179" class="WUfMPpkw_18"></path>
<path d="M177.172 197.006L192.104 176.951" stroke="white" stroke-width="0.498179" class="WUfMPpkw_19"></path>
<path d="M248.448 93.9078L261.548 72.6478" stroke="white" stroke-width="0.498179" class="WUfMPpkw_20"></path>
<path d="M182.687 200.633L195.787 179.373" stroke="white" stroke-width="0.498179" class="WUfMPpkw_21"></path>
<path d="M244.564 91.8113L255.732 69.5082" stroke="white" stroke-width="0.498179" class="WUfMPpkw_22"></path>
<path d="M188.502 203.773L199.67 181.47" stroke="white" stroke-width="0.498179" class="WUfMPpkw_23"></path>
<path d="M240.51 90.0552L249.661 66.8785" stroke="white" stroke-width="0.498179" class="WUfMPpkw_24"></path>
<path d="M194.571 206.401L203.723 183.225" stroke="white" stroke-width="0.498179" class="WUfMPpkw_25"></path>
<path d="M236.318 88.6543L243.383 64.7805" stroke="white" stroke-width="0.498179" class="WUfMPpkw_26"></path>
<path d="M200.851 208.5L207.916 184.626" stroke="white" stroke-width="0.498179" class="WUfMPpkw_27"></path>
<path d="M232.017 87.6182L236.941 63.229" stroke="white" stroke-width="0.498179" class="WUfMPpkw_28"></path>
<path d="M207.294 210.051L212.219 185.662" stroke="white" stroke-width="0.498179" class="WUfMPpkw_29"></path>
<path d="M227.64 86.9554L230.387 62.2365" stroke="white" stroke-width="0.498179" class="WUfMPpkw_30"></path>
<path d="M213.846 211.044L216.593 186.325" stroke="white" stroke-width="0.498179" class="WUfMPpkw_31"></path>
<path d="M223.219 86.6704L223.768 61.8098" stroke="white" stroke-width="0.498179" class="WUfMPpkw_32"></path>
<path d="M220.467 211.471L221.016 186.61" stroke="white" stroke-width="0.498179" class="WUfMPpkw_33"></path>
<path d="M218.792 86.7662L217.138 61.9531" stroke="white" stroke-width="0.498179" class="WUfMPpkw_34"></path>
<path d="M227.095 211.328L225.44 186.515" stroke="white" stroke-width="0.498179" class="WUfMPpkw_35"></path>
<path d="M214.39 87.2413L210.546 62.6647" stroke="white" stroke-width="0.498179" class="WUfMPpkw_36"></path>
<path d="M233.688 210.616L229.844 186.039" stroke="white" stroke-width="0.498179" class="WUfMPpkw_37"></path>
<path d="M210.045 88.0923L204.04 63.9391" stroke="white" stroke-width="0.498179" class="WUfMPpkw_38"></path>
<path d="M240.193 209.341L234.188 185.188" stroke="white" stroke-width="0.498179" class="WUfMPpkw_39"></path>
<path d="M205.796 89.3119L197.676 65.7659" stroke="white" stroke-width="0.498179" class="WUfMPpkw_40"></path>
<path d="M246.56 207.514L238.439 183.968" stroke="white" stroke-width="0.498179" class="WUfMPpkw_41"></path>
<path d="M201.666 90.8936L191.492 68.134" stroke="white" stroke-width="0.498179" class="WUfMPpkw_42"></path>
<path d="M252.739 205.146L242.565 182.387" stroke="white" stroke-width="0.498179" class="WUfMPpkw_43"></path>
<path d="M197.697 92.8217L185.547 71.0219" stroke="white" stroke-width="0.498179" class="WUfMPpkw_44"></path>
<path d="M258.687 202.258L246.537 180.458" stroke="white" stroke-width="0.498179" class="WUfMPpkw_45"></path>
<path d="M193.911 95.083L179.878 74.4087" stroke="white" stroke-width="0.498179" class="WUfMPpkw_46"></path>
<path d="M264.355 198.87L250.321 178.196" stroke="white" stroke-width="0.498179" class="WUfMPpkw_47"></path>
<path d="M190.339 97.6631L174.529 78.2717" stroke="white" stroke-width="0.498179" class="WUfMPpkw_48"></path>
<path d="M269.705 195.008L253.895 175.617" stroke="white" stroke-width="0.498179" class="WUfMPpkw_49"></path>
<path d="M187.007 100.539L169.541 82.5776" stroke="white" stroke-width="0.498179" class="WUfMPpkw_50"></path>
<path d="M274.689 190.702L257.223 172.742" stroke="white" stroke-width="0.498179" class="WUfMPpkw_51"></path>
<path d="M183.947 103.688L164.957 87.2948" stroke="white" stroke-width="0.498179" class="WUfMPpkw_52"></path>
<path d="M279.275 185.985L260.285 169.592" stroke="white" stroke-width="0.498179" class="WUfMPpkw_53"></path>
<path d="M181.174 107.09L160.806 92.3881" stroke="white" stroke-width="0.498179" class="WUfMPpkw_54"></path>
<path d="M283.425 180.892L263.057 166.191" stroke="white" stroke-width="0.498179" class="WUfMPpkw_55"></path>
<path d="M178.715 110.715L157.122 97.817" stroke="white" stroke-width="0.498179" class="WUfMPpkw_56"></path>
<path d="M287.111 175.463L265.519 162.565" stroke="white" stroke-width="0.498179" class="WUfMPpkw_57"></path>
<path d="M176.586 114.539L153.934 103.543" stroke="white" stroke-width="0.498179" class="WUfMPpkw_58"></path>
<path d="M290.3 169.738L267.647 158.742" stroke="white" stroke-width="0.498179" class="WUfMPpkw_59"></path>
<path d="M174.802 118.529L151.263 109.519" stroke="white" stroke-width="0.498179" class="WUfMPpkw_60"></path>
<path d="M292.97 163.761L269.431 154.751" stroke="white" stroke-width="0.498179" class="WUfMPpkw_61"></path>
<path d="M173.378 122.659L149.131 115.703" stroke="white" stroke-width="0.498179" class="WUfMPpkw_62"></path>
<path d="M295.1 157.577L270.853 150.621" stroke="white" stroke-width="0.498179" class="WUfMPpkw_63"></path>
<path d="M172.327 126.894L147.557 122.045" stroke="white" stroke-width="0.498179" class="WUfMPpkw_64"></path>
<path d="M296.678 151.235L271.907 146.386" stroke="white" stroke-width="0.498179" class="WUfMPpkw_65"></path>
<path d="M171.654 131.203L146.548 128.498" stroke="white" stroke-width="0.498179" class="WUfMPpkw_66"></path>
<path d="M297.684 144.781L272.578 142.077" stroke="white" stroke-width="0.498179" class="WUfMPpkw_67"></path>
<path d="M171.364 135.555L146.114 135.015" stroke="white" stroke-width="0.498179" class="WUfMPpkw_68"></path>
<path d="M298.117 138.265L272.867 137.725" stroke="white" stroke-width="0.498179" class="WUfMPpkw_69"></path>
<path d="M171.463 139.914L146.262 141.543" stroke="white" stroke-width="0.498179" class="WUfMPpkw_70"></path>
<path d="M297.973 131.737L272.771 133.366" stroke="white" stroke-width="0.498179" class="WUfMPpkw_71"></path>
<path d="M171.945 144.249L146.983 148.034" stroke="white" stroke-width="0.498179" class="WUfMPpkw_72"></path>
<path d="M297.249 125.246L272.288 129.032" stroke="white" stroke-width="0.498179" class="WUfMPpkw_73"></path>
<path d="M172.81 148.525L148.278 154.438" stroke="white" stroke-width="0.498179" class="WUfMPpkw_74"></path>
<path d="M295.955 118.843L271.424 124.755" stroke="white" stroke-width="0.498179" class="WUfMPpkw_75"></path>
<path d="M174.048 152.711L150.134 160.707" stroke="white" stroke-width="0.498179" class="WUfMPpkw_76"></path>
<path d="M294.099 112.574L270.185 120.569" stroke="white" stroke-width="0.498179" class="WUfMPpkw_77"></path>
<path d="M175.653 156.773L152.537 166.79" stroke="white" stroke-width="0.498179" class="WUfMPpkw_78"></path>
<path d="M291.694 106.488L268.578 116.506" stroke="white" stroke-width="0.498179" class="WUfMPpkw_79"></path>
<path d="M177.611 160.683L155.47 172.645" stroke="white" stroke-width="0.498179" class="WUfMPpkw_80"></path>
<path d="M288.761 100.633L266.62 112.595" stroke="white" stroke-width="0.498179" class="WUfMPpkw_81"></path>
<path d="M179.909 164.412L158.911 178.229" stroke="white" stroke-width="0.498179" class="WUfMPpkw_82"></path>
<path d="M285.319 95.0508L264.321 108.868" stroke="white" stroke-width="0.498179" class="WUfMPpkw_83"></path>
<path d="M341.158 68.884L341.158 87.1972L305.952 103.314" stroke="white" stroke-width="4.41788" class="WUfMPpkw_84"></path>
<path d="M221.806 138.221V141.044M221.806 121.094V124.293M221.806 155.16V159.301M225.247 162.313H252.621V155.16M218.557 162.313H198.06L150.454 218.542" stroke="white" stroke-width="1.76715" class="WUfMPpkw_85"></path>
<path d="M213.778 107.166H199.857C198.149 107.166 196.765 108.551 196.765 110.259V118.002C196.765 119.71 198.149 121.094 199.857 121.094H243.756C245.464 121.094 246.848 119.71 246.848 118.002V110.259C246.848 108.551 245.464 107.166 243.756 107.166H218.748" stroke="white" stroke-width="0.883576" class="WUfMPpkw_86"></path>
<path d="M206.131 138.033H199.857C198.149 138.033 196.765 136.649 196.765 134.941V127.198C196.765 125.49 198.149 124.106 199.857 124.106H243.756C245.464 124.106 246.848 125.49 246.848 127.198V134.941C246.848 136.649 245.464 138.033 243.756 138.033H210.337" stroke="white" stroke-width="0.883576" class="WUfMPpkw_87"></path>
<path d="M231.173 111.495V116.201M236.143 111.307V116.201" stroke="white" stroke-width="1.32536" class="WUfMPpkw_88"></path>
<path d="M219.941 111.593H240.11C240.72 111.593 241.215 112.087 241.215 112.697V115.186C241.215 115.796 240.72 116.29 240.11 116.29H219.941C219.331 116.29 218.837 115.796 218.837 115.186V112.697C218.837 112.087 219.331 111.593 219.941 111.593Z" stroke="white" stroke-width="1.32536" class="WUfMPpkw_89"></path>
<path d="M216.204 113.942C216.204 114.315 215.894 114.629 215.499 114.629C215.103 114.629 214.793 114.315 214.793 113.942C214.793 113.569 215.103 113.254 215.499 113.254C215.894 113.254 216.204 113.569 216.204 113.942Z" stroke="white" stroke-width="0.883576" class="WUfMPpkw_90"></path>
<path d="M224.554 162.312C224.554 163.787 223.337 165.005 221.806 165.005C220.275 165.005 219.057 163.787 219.057 162.312C219.057 160.838 220.275 159.62 221.806 159.62C223.337 159.62 224.554 160.838 224.554 162.312Z" stroke="white" stroke-width="1.76715" class="WUfMPpkw_91"></path>
<path d="M211.292 107.166V111.118M207.66 107.166V111.118M204.028 107.166V111.118" stroke="white" stroke-width="1.32536" class="WUfMPpkw_92"></path>
<path d="M231.173 127.681V132.386M236.143 127.493V132.386" stroke="white" stroke-width="1.32536" class="WUfMPpkw_93"></path>
<path d="M219.941 127.779H240.11C240.72 127.779 241.215 128.273 241.215 128.883V131.372C241.215 131.982 240.72 132.476 240.11 132.476H219.941C219.331 132.476 218.837 131.982 218.837 131.372V128.883C218.837 128.273 219.331 127.779 219.941 127.779Z" stroke="white" stroke-width="1.32536" class="WUfMPpkw_94"></path>
<path d="M216.204 130.128C216.204 130.501 215.894 130.815 215.499 130.815C215.103 130.815 214.793 130.501 214.793 130.128C214.793 129.755 215.103 129.44 215.499 129.44C215.894 129.44 216.204 129.755 216.204 130.128Z" stroke="white" stroke-width="0.883576" class="WUfMPpkw_95"></path>
<path d="M211.292 123.787V127.74M207.66 123.787V127.74M204.028 123.787V127.74" stroke="white" stroke-width="1.32536" class="WUfMPpkw_96"></path>
<path d="M233.849 154.973H199.857C198.149 154.973 196.765 153.588 196.765 151.88V144.137C196.765 142.429 198.149 141.045 199.857 141.045H243.756C245.464 141.045 246.848 142.429 246.848 144.137V151.88C246.848 153.588 245.464 154.973 243.756 154.973H237.864" stroke="white" stroke-width="0.883576" class="WUfMPpkw_97"></path>
<path d="M231.173 144.62V149.326M236.143 144.432V149.326" stroke="white" stroke-width="1.32536" class="WUfMPpkw_98"></path>
<path d="M219.941 144.718H240.11C240.72 144.718 241.215 145.213 241.215 145.823V148.311C241.215 148.921 240.72 149.416 240.11 149.416H219.941C219.331 149.416 218.837 148.921 218.837 148.311V145.823C218.837 145.213 219.331 144.718 219.941 144.718Z" stroke="white" stroke-width="1.32536" class="WUfMPpkw_99"></path>
<path d="M216.204 147.067C216.204 147.44 215.894 147.755 215.499 147.755C215.103 147.755 214.793 147.44 214.793 147.067C214.793 146.694 215.103 146.38 215.499 146.38C215.894 146.38 216.204 146.694 216.204 147.067Z" stroke="white" stroke-width="0.883576" class="WUfMPpkw_100"></path>
<path d="M211.292 140.726V144.679M207.66 140.726V144.679M204.028 140.726V144.679" stroke="white" stroke-width="1.32536" class="WUfMPpkw_101"></path>
<path d="M347.005 62.4215C347.005 65.7972 344.22 68.5705 340.738 68.5705C337.256 68.5705 334.471 65.7972 334.471 62.4215C334.471 59.0458 337.256 56.2724 340.738 56.2724C344.22 56.2724 347.005 59.0458 347.005 62.4215Z" stroke="white" stroke-width="2.78536" class="WUfMPpkw_102"></path>
<path d="M328.77 67.8068C330.71 72.6261 335.488 76.0341 341.073 76.0341C346.659 76.0341 351.436 72.6261 353.377 67.8068" stroke="white" stroke-width="2.78536" class="WUfMPpkw_103"></path>
<style data-made-with="vivus-instant">.WUfMPpkw_0{stroke-dasharray:155 157;stroke-dashoffset:156;animation:WUfMPpkw_draw 2000ms ease-in-out 0ms forwards;}.WUfMPpkw_1{stroke-dasharray:22 24;stroke-dashoffset:23;animation:WUfMPpkw_draw 2000ms ease-in-out 9ms forwards;}.WUfMPpkw_2{stroke-dasharray:97 99;stroke-dashoffset:98;animation:WUfMPpkw_draw 2000ms ease-in-out 19ms forwards;}.WUfMPpkw_3{stroke-dasharray:69 71;stroke-dashoffset:70;animation:WUfMPpkw_draw 2000ms ease-in-out 29ms forwards;}.WUfMPpkw_4{stroke-dasharray:49 51;stroke-dashoffset:50;animation:WUfMPpkw_draw 2000ms ease-in-out 38ms forwards;}.WUfMPpkw_5{stroke-dasharray:30 32;stroke-dashoffset:31;animation:WUfMPpkw_draw 2000ms ease-in-out 48ms forwards;}.WUfMPpkw_6{stroke-dasharray:22 24;stroke-dashoffset:23;animation:WUfMPpkw_draw 2000ms ease-in-out 58ms forwards;}.WUfMPpkw_7{stroke-dasharray:334 336;stroke-dashoffset:335;animation:WUfMPpkw_draw 2000ms ease-in-out 67ms forwards;}.WUfMPpkw_8{stroke-dasharray:227 229;stroke-dashoffset:228;animation:WUfMPpkw_draw 2000ms ease-in-out 77ms forwards;}.WUfMPpkw_9{stroke-dasharray:138 140;stroke-dashoffset:139;animation:WUfMPpkw_draw 2000ms ease-in-out 87ms forwards;}.WUfMPpkw_10{stroke-dasharray:149 151;stroke-dashoffset:150;animation:WUfMPpkw_draw 2000ms ease-in-out 97ms forwards;}.WUfMPpkw_11{stroke-dasharray:167 169;stroke-dashoffset:168;animation:WUfMPpkw_draw 2000ms ease-in-out 106ms forwards;}.WUfMPpkw_12{stroke-dasharray:26 28;stroke-dashoffset:27;animation:WUfMPpkw_draw 2000ms ease-in-out 116ms forwards;}.WUfMPpkw_13{stroke-dasharray:26 28;stroke-dashoffset:27;animation:WUfMPpkw_draw 2000ms ease-in-out 126ms forwards;}.WUfMPpkw_14{stroke-dasharray:26 28;stroke-dashoffset:27;animation:WUfMPpkw_draw 2000ms ease-in-out 135ms forwards;}.WUfMPpkw_15{stroke-dasharray:26 28;stroke-dashoffset:27;animation:WUfMPpkw_draw 2000ms ease-in-out 145ms forwards;}.WUfMPpkw_16{stroke-dasharray:26 28;stroke-dashoffset:27;animation:WUfMPpkw_draw 2000ms ease-in-out 155ms forwards;}.WUfMPpkw_17{stroke-dasharray:26 28;stroke-dashoffset:27;animation:WUfMPpkw_draw 2000ms ease-in-out 165ms forwards;}.WUfMPpkw_18{stroke-dasharray:26 28;stroke-dashoffset:27;animation:WUfMPpkw_draw 2000ms ease-in-out 174ms forwards;}.WUfMPpkw_19{stroke-dasharray:26 28;stroke-dashoffset:27;animation:WUfMPpkw_draw 2000ms ease-in-out 184ms forwards;}.WUfMPpkw_20{stroke-dasharray:25 27;stroke-dashoffset:26;animation:WUfMPpkw_draw 2000ms ease-in-out 194ms forwards;}.WUfMPpkw_21{stroke-dasharray:25 27;stroke-dashoffset:26;animation:WUfMPpkw_draw 2000ms ease-in-out 203ms forwards;}.WUfMPpkw_22{stroke-dasharray:25 27;stroke-dashoffset:26;animation:WUfMPpkw_draw 2000ms ease-in-out 213ms forwards;}.WUfMPpkw_23{stroke-dasharray:25 27;stroke-dashoffset:26;animation:WUfMPpkw_draw 2000ms ease-in-out 223ms forwards;}.WUfMPpkw_24{stroke-dasharray:25 27;stroke-dashoffset:26;animation:WUfMPpkw_draw 2000ms ease-in-out 233ms forwards;}.WUfMPpkw_25{stroke-dasharray:25 27;stroke-dashoffset:26;animation:WUfMPpkw_draw 2000ms ease-in-out 242ms forwards;}.WUfMPpkw_26{stroke-dasharray:25 27;stroke-dashoffset:26;animation:WUfMPpkw_draw 2000ms ease-in-out 252ms forwards;}.WUfMPpkw_27{stroke-dasharray:25 27;stroke-dashoffset:26;animation:WUfMPpkw_draw 2000ms ease-in-out 262ms forwards;}.WUfMPpkw_28{stroke-dasharray:25 27;stroke-dashoffset:26;animation:WUfMPpkw_draw 2000ms ease-in-out 271ms forwards;}.WUfMPpkw_29{stroke-dasharray:25 27;stroke-dashoffset:26;animation:WUfMPpkw_draw 2000ms ease-in-out 281ms forwards;}.WUfMPpkw_30{stroke-dasharray:25 27;stroke-dashoffset:26;animation:WUfMPpkw_draw 2000ms ease-in-out 291ms forwards;}.WUfMPpkw_31{stroke-dasharray:25 27;stroke-dashoffset:26;animation:WUfMPpkw_draw 2000ms ease-in-out 300ms forwards;}.WUfMPpkw_32{stroke-dasharray:25 27;stroke-dashoffset:26;animation:WUfMPpkw_draw 2000ms ease-in-out 310ms forwards;}.WUfMPpkw_33{stroke-dasharray:25 27;stroke-dashoffset:26;animation:WUfMPpkw_draw 2000ms ease-in-out 320ms forwards;}.WUfMPpkw_34{stroke-dasharray:25 27;stroke-dashoffset:26;animation:WUfMPpkw_draw 2000ms ease-in-out 330ms forwards;}.WUfMPpkw_35{stroke-dasharray:25 27;stroke-dashoffset:26;animation:WUfMPpkw_draw 2000ms ease-in-out 339ms forwards;}.WUfMPpkw_36{stroke-dasharray:25 27;stroke-dashoffset:26;animation:WUfMPpkw_draw 2000ms ease-in-out 349ms forwards;}.WUfMPpkw_37{stroke-dasharray:25 27;stroke-dashoffset:26;animation:WUfMPpkw_draw 2000ms ease-in-out 359ms forwards;}.WUfMPpkw_38{stroke-dasharray:25 27;stroke-dashoffset:26;animation:WUfMPpkw_draw 2000ms ease-in-out 368ms forwards;}.WUfMPpkw_39{stroke-dasharray:25 27;stroke-dashoffset:26;animation:WUfMPpkw_draw 2000ms ease-in-out 378ms forwards;}.WUfMPpkw_40{stroke-dasharray:25 27;stroke-dashoffset:26;animation:WUfMPpkw_draw 2000ms ease-in-out 388ms forwards;}.WUfMPpkw_41{stroke-dasharray:25 27;stroke-dashoffset:26;animation:WUfMPpkw_draw 2000ms ease-in-out 398ms forwards;}.WUfMPpkw_42{stroke-dasharray:25 27;stroke-dashoffset:26;animation:WUfMPpkw_draw 2000ms ease-in-out 407ms forwards;}.WUfMPpkw_43{stroke-dasharray:25 27;stroke-dashoffset:26;animation:WUfMPpkw_draw 2000ms ease-in-out 417ms forwards;}.WUfMPpkw_44{stroke-dasharray:25 27;stroke-dashoffset:26;animation:WUfMPpkw_draw 2000ms ease-in-out 427ms forwards;}.WUfMPpkw_45{stroke-dasharray:25 27;stroke-dashoffset:26;animation:WUfMPpkw_draw 2000ms ease-in-out 436ms forwards;}.WUfMPpkw_46{stroke-dasharray:25 27;stroke-dashoffset:26;animation:WUfMPpkw_draw 2000ms ease-in-out 446ms forwards;}.WUfMPpkw_47{stroke-dasharray:25 27;stroke-dashoffset:26;animation:WUfMPpkw_draw 2000ms ease-in-out 456ms forwards;}.WUfMPpkw_48{stroke-dasharray:26 28;stroke-dashoffset:27;animation:WUfMPpkw_draw 2000ms ease-in-out 466ms forwards;}.WUfMPpkw_49{stroke-dasharray:26 28;stroke-dashoffset:27;animation:WUfMPpkw_draw 2000ms ease-in-out 475ms forwards;}.WUfMPpkw_50{stroke-dasharray:26 28;stroke-dashoffset:27;animation:WUfMPpkw_draw 2000ms ease-in-out 485ms forwards;}.WUfMPpkw_51{stroke-dasharray:26 28;stroke-dashoffset:27;animation:WUfMPpkw_draw 2000ms ease-in-out 495ms forwards;}.WUfMPpkw_52{stroke-dasharray:26 28;stroke-dashoffset:27;animation:WUfMPpkw_draw 2000ms ease-in-out 504ms forwards;}.WUfMPpkw_53{stroke-dasharray:26 28;stroke-dashoffset:27;animation:WUfMPpkw_draw 2000ms ease-in-out 514ms forwards;}.WUfMPpkw_54{stroke-dasharray:26 28;stroke-dashoffset:27;animation:WUfMPpkw_draw 2000ms ease-in-out 524ms forwards;}.WUfMPpkw_55{stroke-dasharray:26 28;stroke-dashoffset:27;animation:WUfMPpkw_draw 2000ms ease-in-out 533ms forwards;}.WUfMPpkw_56{stroke-dasharray:26 28;stroke-dashoffset:27;animation:WUfMPpkw_draw 2000ms ease-in-out 543ms forwards;}.WUfMPpkw_57{stroke-dasharray:26 28;stroke-dashoffset:27;animation:WUfMPpkw_draw 2000ms ease-in-out 553ms forwards;}.WUfMPpkw_58{stroke-dasharray:26 28;stroke-dashoffset:27;animation:WUfMPpkw_draw 2000ms ease-in-out 563ms forwards;}.WUfMPpkw_59{stroke-dasharray:26 28;stroke-dashoffset:27;animation:WUfMPpkw_draw 2000ms ease-in-out 572ms forwards;}.WUfMPpkw_60{stroke-dasharray:26 28;stroke-dashoffset:27;animation:WUfMPpkw_draw 2000ms ease-in-out 582ms forwards;}.WUfMPpkw_61{stroke-dasharray:26 28;stroke-dashoffset:27;animation:WUfMPpkw_draw 2000ms ease-in-out 592ms forwards;}.WUfMPpkw_62{stroke-dasharray:26 28;stroke-dashoffset:27;animation:WUfMPpkw_draw 2000ms ease-in-out 601ms forwards;}.WUfMPpkw_63{stroke-dasharray:26 28;stroke-dashoffset:27;animation:WUfMPpkw_draw 2000ms ease-in-out 611ms forwards;}.WUfMPpkw_64{stroke-dasharray:26 28;stroke-dashoffset:27;animation:WUfMPpkw_draw 2000ms ease-in-out 621ms forwards;}.WUfMPpkw_65{stroke-dasharray:26 28;stroke-dashoffset:27;animation:WUfMPpkw_draw 2000ms ease-in-out 631ms forwards;}.WUfMPpkw_66{stroke-dasharray:26 28;stroke-dashoffset:27;animation:WUfMPpkw_draw 2000ms ease-in-out 640ms forwards;}.WUfMPpkw_67{stroke-dasharray:26 28;stroke-dashoffset:27;animation:WUfMPpkw_draw 2000ms ease-in-out 650ms forwards;}.WUfMPpkw_68{stroke-dasharray:26 28;stroke-dashoffset:27;animation:WUfMPpkw_draw 2000ms ease-in-out 660ms forwards;}.WUfMPpkw_69{stroke-dasharray:26 28;stroke-dashoffset:27;animation:WUfMPpkw_draw 2000ms ease-in-out 669ms forwards;}.WUfMPpkw_70{stroke-dasharray:26 28;stroke-dashoffset:27;animation:WUfMPpkw_draw 2000ms ease-in-out 679ms forwards;}.WUfMPpkw_71{stroke-dasharray:26 28;stroke-dashoffset:27;animation:WUfMPpkw_draw 2000ms ease-in-out 689ms forwards;}.WUfMPpkw_72{stroke-dasharray:26 28;stroke-dashoffset:27;animation:WUfMPpkw_draw 2000ms ease-in-out 699ms forwards;}.WUfMPpkw_73{stroke-dasharray:26 28;stroke-dashoffset:27;animation:WUfMPpkw_draw 2000ms ease-in-out 708ms forwards;}.WUfMPpkw_74{stroke-dasharray:26 28;stroke-dashoffset:27;animation:WUfMPpkw_draw 2000ms ease-in-out 718ms forwards;}.WUfMPpkw_75{stroke-dasharray:26 28;stroke-dashoffset:27;animation:WUfMPpkw_draw 2000ms ease-in-out 728ms forwards;}.WUfMPpkw_76{stroke-dasharray:26 28;stroke-dashoffset:27;animation:WUfMPpkw_draw 2000ms ease-in-out 737ms forwards;}.WUfMPpkw_77{stroke-dasharray:26 28;stroke-dashoffset:27;animation:WUfMPpkw_draw 2000ms ease-in-out 747ms forwards;}.WUfMPpkw_78{stroke-dasharray:26 28;stroke-dashoffset:27;animation:WUfMPpkw_draw 2000ms ease-in-out 757ms forwards;}.WUfMPpkw_79{stroke-dasharray:26 28;stroke-dashoffset:27;animation:WUfMPpkw_draw 2000ms ease-in-out 766ms forwards;}.WUfMPpkw_80{stroke-dasharray:26 28;stroke-dashoffset:27;animation:WUfMPpkw_draw 2000ms ease-in-out 776ms forwards;}.WUfMPpkw_81{stroke-dasharray:26 28;stroke-dashoffset:27;animation:WUfMPpkw_draw 2000ms ease-in-out 786ms forwards;}.WUfMPpkw_82{stroke-dasharray:26 28;stroke-dashoffset:27;animation:WUfMPpkw_draw 2000ms ease-in-out 796ms forwards;}.WUfMPpkw_83{stroke-dasharray:26 28;stroke-dashoffset:27;animation:WUfMPpkw_draw 2000ms ease-in-out 805ms forwards;}.WUfMPpkw_84{stroke-dasharray:58 60;stroke-dashoffset:59;animation:WUfMPpkw_draw 2000ms ease-in-out 815ms forwards;}.WUfMPpkw_85{stroke-dasharray:139 141;stroke-dashoffset:140;animation:WUfMPpkw_draw 2000ms ease-in-out 825ms forwards;}.WUfMPpkw_86{stroke-dasharray:118 120;stroke-dashoffset:119;animation:WUfMPpkw_draw 2000ms ease-in-out 834ms forwards;}.WUfMPpkw_87{stroke-dasharray:119 121;stroke-dashoffset:120;animation:WUfMPpkw_draw 2000ms ease-in-out 844ms forwards;}.WUfMPpkw_88{stroke-dasharray:10 12;stroke-dashoffset:11;animation:WUfMPpkw_draw 2000ms ease-in-out 854ms forwards;}.WUfMPpkw_89{stroke-dasharray:53 55;stroke-dashoffset:54;animation:WUfMPpkw_draw 2000ms ease-in-out 864ms forwards;}.WUfMPpkw_90{stroke-dasharray:5 7;stroke-dashoffset:6;animation:WUfMPpkw_draw 2000ms ease-in-out 873ms forwards;}.WUfMPpkw_91{stroke-dasharray:18 20;stroke-dashoffset:19;animation:WUfMPpkw_draw 2000ms ease-in-out 883ms forwards;}.WUfMPpkw_92{stroke-dasharray:12 14;stroke-dashoffset:13;animation:WUfMPpkw_draw 2000ms ease-in-out 893ms forwards;}.WUfMPpkw_93{stroke-dasharray:10 12;stroke-dashoffset:11;animation:WUfMPpkw_draw 2000ms ease-in-out 902ms forwards;}.WUfMPpkw_94{stroke-dasharray:53 55;stroke-dashoffset:54;animation:WUfMPpkw_draw 2000ms ease-in-out 912ms forwards;}.WUfMPpkw_95{stroke-dasharray:5 7;stroke-dashoffset:6;animation:WUfMPpkw_draw 2000ms ease-in-out 922ms forwards;}.WUfMPpkw_96{stroke-dasharray:12 14;stroke-dashoffset:13;animation:WUfMPpkw_draw 2000ms ease-in-out 932ms forwards;}.WUfMPpkw_97{stroke-dasharray:119 121;stroke-dashoffset:120;animation:WUfMPpkw_draw 2000ms ease-in-out 941ms forwards;}.WUfMPpkw_98{stroke-dasharray:10 12;stroke-dashoffset:11;animation:WUfMPpkw_draw 2000ms ease-in-out 951ms forwards;}.WUfMPpkw_99{stroke-dasharray:53 55;stroke-dashoffset:54;animation:WUfMPpkw_draw 2000ms ease-in-out 961ms forwards;}.WUfMPpkw_100{stroke-dasharray:5 7;stroke-dashoffset:6;animation:WUfMPpkw_draw 2000ms ease-in-out 970ms forwards;}.WUfMPpkw_101{stroke-dasharray:12 14;stroke-dashoffset:13;animation:WUfMPpkw_draw 2000ms ease-in-out 980ms forwards;}.WUfMPpkw_102{stroke-dasharray:40 42;stroke-dashoffset:41;animation:WUfMPpkw_draw 2000ms ease-in-out 990ms forwards;}.WUfMPpkw_103{stroke-dasharray:32 34;stroke-dashoffset:33;animation:WUfMPpkw_draw 2000ms ease-in-out 999ms forwards;}@keyframes WUfMPpkw_draw{100%{stroke-dashoffset:0;}}@keyframes WUfMPpkw_fade{0%{stroke-opacity:1;}94.44444444444444%{stroke-opacity:1;}100%{stroke-opacity:0;}}</style></svg>
