<svg width="360" height="265" viewBox="0 0 360 265" fill="none" xmlns="http://www.w3.org/2000/svg" style="">
<g clip-path="url(#clip0)">
<path d="M271 204L305.152 241.402H224.358V268.333" stroke="white" stroke-width="4.41788" class="HbEIpUBc_0"></path>
<path d="M93.4429 235.889C93.4429 235.889 102.844 244.971 111.013 247.862" stroke="#0088FF" stroke-width="0.883576" class="HbEIpUBc_1"></path>
<path d="M140.668 180.075L84.565 245.45L76.945 238.752" stroke="#0088FF" stroke-width="0.883576" class="HbEIpUBc_2"></path>
<path d="M61.1029 239.061C56.5947 235.097 56.2044 228.288 60.2278 223.851C64.2512 219.414 71.1673 219.028 75.6755 222.991C80.1838 226.954 80.574 233.764 76.5506 238.201C72.5272 242.637 65.6111 243.024 61.1029 239.061Z" stroke="#0088FF" stroke-width="1.32536" class="HbEIpUBc_3"></path>
<path d="M63.1634 236.787C59.9304 233.945 59.6509 229.062 62.5356 225.881C65.4204 222.7 70.3796 222.422 73.6125 225.264C76.8455 228.107 77.125 232.99 74.2403 236.171C71.3555 239.352 66.3963 239.629 63.1634 236.787Z" stroke="#0088FF" stroke-width="1.32536" class="HbEIpUBc_4"></path>
<path d="M65.2263 234.514C63.2686 232.793 63.0999 229.836 64.8459 227.911C66.592 225.986 69.5943 225.817 71.552 227.538C73.5097 229.259 73.6784 232.215 71.9324 234.141C70.1863 236.066 67.184 236.235 65.2263 234.514Z" stroke="#0088FF" stroke-width="1.32536" class="HbEIpUBc_5"></path>
<path d="M112.315 251.688C110.903 250.447 110.782 248.316 112.04 246.928C113.299 245.54 115.464 245.418 116.875 246.659C118.287 247.9 118.409 250.031 117.15 251.419C115.891 252.808 113.726 252.929 112.315 251.688Z" stroke="#0088FF" stroke-width="0.883576" class="HbEIpUBc_6"></path>
<path d="M293.06 180.902C259.098 228.698 192.39 240.459 144.065 207.17C95.7392 173.881 84.0959 108.149 118.059 60.353" stroke="white" stroke-width="5.0526" class="HbEIpUBc_7"></path>
<path d="M259.084 44.0289C301.288 76.3519 309.094 135.979 276.52 177.21C259.834 198.331 235.788 210.527 210.628 213.055" stroke="white" stroke-width="5.0526" class="HbEIpUBc_8"></path>
<path d="M183.483 205.13C136.107 193.676 107.131 146.577 118.764 99.9298" stroke="#0088FF" stroke-width="9.09469" stroke-linejoin="round" class="HbEIpUBc_9"></path>
<path d="M170.008 37.8852C218.255 21.1948 271.718 33.3917 293.287 88.2465" stroke="white" stroke-width="9.09469" stroke-linejoin="round" class="HbEIpUBc_10"></path>
<path d="M247.989 19.3994C303.223 40.1079 330.949 100.982 309.916 155.365" stroke="white" stroke-width="9.09469" stroke-linejoin="round" class="HbEIpUBc_11"></path>
<path d="M246.703 89.3515L266.397 73.785" stroke="white" stroke-width="0.498179" class="HbEIpUBc_12"></path>
<path d="M147.833 167.496L167.528 151.929" stroke="white" stroke-width="0.498179" class="HbEIpUBc_13"></path>
<path d="M243.785 86.0754L262.027 68.8781" stroke="white" stroke-width="0.498179" class="HbEIpUBc_14"></path>
<path d="M152.208 172.404L170.45 155.207" stroke="white" stroke-width="0.498179" class="HbEIpUBc_15"></path>
<path d="M240.584 83.0588L257.234 64.3616" stroke="white" stroke-width="0.498179" class="HbEIpUBc_16"></path>
<path d="M157 176.919L173.65 158.222" stroke="white" stroke-width="0.498179" class="HbEIpUBc_17"></path>
<path d="M237.13 80.3299L252.062 60.275" stroke="white" stroke-width="0.498179" class="HbEIpUBc_18"></path>
<path d="M162.171 181.006L177.103 160.951" stroke="white" stroke-width="0.498179" class="HbEIpUBc_19"></path>
<path d="M233.448 77.9078L246.547 56.6478" stroke="white" stroke-width="0.498179" class="HbEIpUBc_20"></path>
<path d="M167.687 184.633L180.787 163.373" stroke="white" stroke-width="0.498179" class="HbEIpUBc_21"></path>
<path d="M229.564 75.8113L240.732 53.5082" stroke="white" stroke-width="0.498179" class="HbEIpUBc_22"></path>
<path d="M173.501 187.773L184.669 165.47" stroke="white" stroke-width="0.498179" class="HbEIpUBc_23"></path>
<path d="M225.51 74.0552L234.661 50.8785" stroke="white" stroke-width="0.498179" class="HbEIpUBc_24"></path>
<path d="M179.571 190.401L188.723 167.225" stroke="white" stroke-width="0.498179" class="HbEIpUBc_25"></path>
<path d="M221.318 72.6543L228.383 48.7805" stroke="white" stroke-width="0.498179" class="HbEIpUBc_26"></path>
<path d="M185.851 192.5L192.916 168.626" stroke="white" stroke-width="0.498179" class="HbEIpUBc_27"></path>
<path d="M217.016 71.6182L221.94 47.229" stroke="white" stroke-width="0.498179" class="HbEIpUBc_28"></path>
<path d="M192.294 194.051L197.218 169.662" stroke="white" stroke-width="0.498179" class="HbEIpUBc_29"></path>
<path d="M212.64 70.9554L215.387 46.2365" stroke="white" stroke-width="0.498179" class="HbEIpUBc_30"></path>
<path d="M198.846 195.044L201.593 170.325" stroke="white" stroke-width="0.498179" class="HbEIpUBc_31"></path>
<path d="M208.219 70.6704L208.767 45.8098" stroke="white" stroke-width="0.498179" class="HbEIpUBc_32"></path>
<path d="M205.467 195.471L206.015 170.61" stroke="white" stroke-width="0.498179" class="HbEIpUBc_33"></path>
<path d="M203.793 70.7662L202.138 45.9531" stroke="white" stroke-width="0.498179" class="HbEIpUBc_34"></path>
<path d="M212.095 195.328L210.441 170.515" stroke="white" stroke-width="0.498179" class="HbEIpUBc_35"></path>
<path d="M199.39 71.2413L195.546 46.6647" stroke="white" stroke-width="0.498179" class="HbEIpUBc_36"></path>
<path d="M218.688 194.616L214.844 170.039" stroke="white" stroke-width="0.498179" class="HbEIpUBc_37"></path>
<path d="M195.045 72.0923L189.04 47.9391" stroke="white" stroke-width="0.498179" class="HbEIpUBc_38"></path>
<path d="M225.193 193.341L219.188 169.188" stroke="white" stroke-width="0.498179" class="HbEIpUBc_39"></path>
<path d="M190.797 73.3119L182.677 49.7659" stroke="white" stroke-width="0.498179" class="HbEIpUBc_40"></path>
<path d="M231.56 191.514L223.439 167.968" stroke="white" stroke-width="0.498179" class="HbEIpUBc_41"></path>
<path d="M186.666 74.8936L176.492 52.134" stroke="white" stroke-width="0.498179" class="HbEIpUBc_42"></path>
<path d="M237.739 189.146L227.565 166.387" stroke="white" stroke-width="0.498179" class="HbEIpUBc_43"></path>
<path d="M182.696 76.8217L170.546 55.0219" stroke="white" stroke-width="0.498179" class="HbEIpUBc_44"></path>
<path d="M243.687 186.258L231.537 164.458" stroke="white" stroke-width="0.498179" class="HbEIpUBc_45"></path>
<path d="M178.912 79.083L164.878 58.4087" stroke="white" stroke-width="0.498179" class="HbEIpUBc_46"></path>
<path d="M249.355 182.87L235.322 162.196" stroke="white" stroke-width="0.498179" class="HbEIpUBc_47"></path>
<path d="M175.339 81.6631L159.529 62.2717" stroke="white" stroke-width="0.498179" class="HbEIpUBc_48"></path>
<path d="M254.705 179.008L238.895 159.617" stroke="white" stroke-width="0.498179" class="HbEIpUBc_49"></path>
<path d="M172.007 84.5385L154.541 66.5776" stroke="white" stroke-width="0.498179" class="HbEIpUBc_50"></path>
<path d="M259.689 174.702L242.223 156.742" stroke="white" stroke-width="0.498179" class="HbEIpUBc_51"></path>
<path d="M168.946 87.6885L149.957 71.2948" stroke="white" stroke-width="0.498179" class="HbEIpUBc_52"></path>
<path d="M264.275 169.985L245.285 153.592" stroke="white" stroke-width="0.498179" class="HbEIpUBc_53"></path>
<path d="M166.175 91.0898L145.806 76.3881" stroke="white" stroke-width="0.498179" class="HbEIpUBc_54"></path>
<path d="M268.426 164.892L248.057 150.191" stroke="white" stroke-width="0.498179" class="HbEIpUBc_55"></path>
<path d="M163.715 94.7149L142.122 81.817" stroke="white" stroke-width="0.498179" class="HbEIpUBc_56"></path>
<path d="M272.111 159.463L250.518 146.565" stroke="white" stroke-width="0.498179" class="HbEIpUBc_57"></path>
<path d="M161.586 98.5387L138.934 87.5428" stroke="white" stroke-width="0.498179" class="HbEIpUBc_58"></path>
<path d="M275.3 153.738L252.647 142.742" stroke="white" stroke-width="0.498179" class="HbEIpUBc_59"></path>
<path d="M159.802 102.529L136.263 93.5193" stroke="white" stroke-width="0.498179" class="HbEIpUBc_60"></path>
<path d="M277.97 147.761L254.431 138.751" stroke="white" stroke-width="0.498179" class="HbEIpUBc_61"></path>
<path d="M158.379 106.659L134.131 99.7029" stroke="white" stroke-width="0.498179" class="HbEIpUBc_62"></path>
<path d="M280.101 141.577L255.854 134.621" stroke="white" stroke-width="0.498179" class="HbEIpUBc_63"></path>
<path d="M157.327 110.894L132.556 106.045" stroke="white" stroke-width="0.498179" class="HbEIpUBc_64"></path>
<path d="M281.677 135.235L256.906 130.386" stroke="white" stroke-width="0.498179" class="HbEIpUBc_65"></path>
<path d="M156.653 115.203L131.547 112.498" stroke="white" stroke-width="0.498179" class="HbEIpUBc_66"></path>
<path d="M282.683 128.781L257.578 126.077" stroke="white" stroke-width="0.498179" class="HbEIpUBc_67"></path>
<path d="M156.364 119.555L131.114 119.015" stroke="white" stroke-width="0.498179" class="HbEIpUBc_68"></path>
<path d="M283.117 122.265L257.867 121.725" stroke="white" stroke-width="0.498179" class="HbEIpUBc_69"></path>
<path d="M156.463 123.914L131.261 125.543" stroke="white" stroke-width="0.498179" class="HbEIpUBc_70"></path>
<path d="M282.972 115.737L257.771 117.366" stroke="white" stroke-width="0.498179" class="HbEIpUBc_71"></path>
<path d="M156.944 128.249L131.983 132.034" stroke="white" stroke-width="0.498179" class="HbEIpUBc_72"></path>
<path d="M282.248 109.246L257.287 113.032" stroke="white" stroke-width="0.498179" class="HbEIpUBc_73"></path>
<path d="M157.809 132.525L133.278 138.438" stroke="white" stroke-width="0.498179" class="HbEIpUBc_74"></path>
<path d="M280.955 102.843L256.423 108.755" stroke="white" stroke-width="0.498179" class="HbEIpUBc_75"></path>
<path d="M159.048 136.711L135.134 144.707" stroke="white" stroke-width="0.498179" class="HbEIpUBc_76"></path>
<path d="M279.1 96.574L255.185 104.569" stroke="white" stroke-width="0.498179" class="HbEIpUBc_77"></path>
<path d="M160.654 140.773L137.538 150.79" stroke="white" stroke-width="0.498179" class="HbEIpUBc_78"></path>
<path d="M276.695 90.4884L253.579 100.506" stroke="white" stroke-width="0.498179" class="HbEIpUBc_79"></path>
<path d="M162.611 144.683L140.47 156.645" stroke="white" stroke-width="0.498179" class="HbEIpUBc_80"></path>
<path d="M273.762 84.6326L251.621 96.5953" stroke="white" stroke-width="0.498179" class="HbEIpUBc_81"></path>
<path d="M164.91 148.412L143.912 162.229" stroke="white" stroke-width="0.498179" class="HbEIpUBc_82"></path>
<path d="M270.32 79.0508L249.322 92.8679" stroke="white" stroke-width="0.498179" class="HbEIpUBc_83"></path>
<path d="M326.158 52.884L326.158 71.1972L290.952 87.3144" stroke="white" stroke-width="4.41788" class="HbEIpUBc_84"></path>
<path d="M206.806 122.221V125.044M206.806 105.094V108.293M206.806 139.16V143.301M210.247 146.313H237.621V139.16M203.557 146.313H183.06L135.454 202.542" stroke="white" stroke-width="1.76715" class="HbEIpUBc_85"></path>
<path d="M198.778 91.1664H184.858C183.15 91.1664 181.765 92.5509 181.765 94.2589V102.002C181.765 103.71 183.15 105.094 184.858 105.094H228.756C230.464 105.094 231.849 103.71 231.849 102.002V94.2589C231.849 92.5509 230.464 91.1664 228.756 91.1664H203.748" stroke="white" stroke-width="0.883576" class="HbEIpUBc_86"></path>
<path d="M191.132 122.033H184.858C183.15 122.033 181.765 120.649 181.765 118.941V111.198C181.765 109.49 183.15 108.106 184.858 108.106H228.756C230.464 108.106 231.849 109.49 231.849 111.198V118.941C231.849 120.649 230.464 122.033 228.756 122.033H195.337" stroke="white" stroke-width="0.883576" class="HbEIpUBc_87"></path>
<path d="M216.173 95.4953V100.201M221.143 95.3071V100.201" stroke="white" stroke-width="1.32536" class="HbEIpUBc_88"></path>
<path d="M204.941 95.593H225.111C225.721 95.593 226.215 96.0875 226.215 96.6975V99.186C226.215 99.7959 225.721 100.29 225.111 100.29H204.941C204.331 100.29 203.837 99.7959 203.837 99.186V96.6975C203.837 96.0875 204.331 95.593 204.941 95.593Z" stroke="white" stroke-width="1.32536" class="HbEIpUBc_89"></path>
<path d="M201.203 97.9418C201.203 98.315 200.894 98.6293 200.498 98.6293C200.102 98.6293 199.793 98.315 199.793 97.9418C199.793 97.5685 200.102 97.2543 200.498 97.2543C200.894 97.2543 201.203 97.5685 201.203 97.9418Z" stroke="white" stroke-width="0.883576" class="HbEIpUBc_90"></path>
<path d="M209.555 146.312C209.555 147.787 208.337 149.005 206.806 149.005C205.275 149.005 204.058 147.787 204.058 146.312C204.058 144.838 205.275 143.62 206.806 143.62C208.337 143.62 209.555 144.838 209.555 146.312Z" stroke="white" stroke-width="1.76715" class="HbEIpUBc_91"></path>
<path d="M196.292 91.166V95.1185M192.66 91.166V95.1185M189.028 91.166V95.1185" stroke="white" stroke-width="1.32536" class="HbEIpUBc_92"></path>
<path d="M216.173 111.681V116.386M221.143 111.493V116.386" stroke="white" stroke-width="1.32536" class="HbEIpUBc_93"></path>
<path d="M204.941 111.779H225.111C225.721 111.779 226.215 112.273 226.215 112.883V115.372C226.215 115.982 225.721 116.476 225.111 116.476H204.941C204.331 116.476 203.837 115.982 203.837 115.372V112.883C203.837 112.273 204.331 111.779 204.941 111.779Z" stroke="white" stroke-width="1.32536" class="HbEIpUBc_94"></path>
<path d="M201.203 114.128C201.203 114.501 200.894 114.815 200.498 114.815C200.102 114.815 199.793 114.501 199.793 114.128C199.793 113.755 200.102 113.44 200.498 113.44C200.894 113.44 201.203 113.755 201.203 114.128Z" stroke="white" stroke-width="0.883576" class="HbEIpUBc_95"></path>
<path d="M196.292 107.787V111.74M192.66 107.787V111.74M189.028 107.787V111.74" stroke="white" stroke-width="1.32536" class="HbEIpUBc_96"></path>
<path d="M218.85 138.973H184.858C183.15 138.973 181.765 137.588 181.765 135.88V128.137C181.765 126.429 183.15 125.045 184.858 125.045H228.756C230.464 125.045 231.849 126.429 231.849 128.137V135.88C231.849 137.588 230.464 138.973 228.756 138.973H222.864" stroke="white" stroke-width="0.883576" class="HbEIpUBc_97"></path>
<path d="M216.173 128.62V133.326M221.143 128.432V133.326" stroke="white" stroke-width="1.32536" class="HbEIpUBc_98"></path>
<path d="M204.941 128.718H225.111C225.721 128.718 226.215 129.213 226.215 129.823V132.311C226.215 132.921 225.721 133.416 225.111 133.416H204.941C204.331 133.416 203.837 132.921 203.837 132.311V129.823C203.837 129.213 204.331 128.718 204.941 128.718Z" stroke="white" stroke-width="1.32536" class="HbEIpUBc_99"></path>
<path d="M201.203 131.067C201.203 131.44 200.894 131.755 200.498 131.755C200.102 131.755 199.793 131.44 199.793 131.067C199.793 130.694 200.102 130.38 200.498 130.38C200.894 130.38 201.203 130.694 201.203 131.067Z" stroke="white" stroke-width="0.883576" class="HbEIpUBc_100"></path>
<path d="M196.292 124.726V128.679M192.66 124.726V128.679M189.028 124.726V128.679" stroke="white" stroke-width="1.32536" class="HbEIpUBc_101"></path>
<path d="M332.005 46.4215C332.005 49.7972 329.22 52.5705 325.738 52.5705C322.256 52.5705 319.471 49.7972 319.471 46.4215C319.471 43.0458 322.256 40.2724 325.738 40.2724C329.22 40.2724 332.005 43.0458 332.005 46.4215Z" stroke="white" stroke-width="2.78536" class="HbEIpUBc_102"></path>
<path d="M313.77 51.8068C315.71 56.6261 320.488 60.0341 326.073 60.0341C331.659 60.0341 336.436 56.6261 338.377 51.8068" stroke="white" stroke-width="2.78536" class="HbEIpUBc_103"></path>
</g>
<defs>
<clipPath id="clip0">
<path width="360" height="265" fill="white" d="M0 0 L360 0 L360 265 L0 265 Z" class="HbEIpUBc_104"></path>
</clipPath>
</defs>
<style data-made-with="vivus-instant">.HbEIpUBc_0{stroke-dasharray:159 161;stroke-dashoffset:160;animation:HbEIpUBc_draw 2000ms ease-in-out 0ms forwards;}.HbEIpUBc_1{stroke-dasharray:22 24;stroke-dashoffset:23;animation:HbEIpUBc_draw 2000ms ease-in-out 9ms forwards;}.HbEIpUBc_2{stroke-dasharray:97 99;stroke-dashoffset:98;animation:HbEIpUBc_draw 2000ms ease-in-out 19ms forwards;}.HbEIpUBc_3{stroke-dasharray:69 71;stroke-dashoffset:70;animation:HbEIpUBc_draw 2000ms ease-in-out 28ms forwards;}.HbEIpUBc_4{stroke-dasharray:49 51;stroke-dashoffset:50;animation:HbEIpUBc_draw 2000ms ease-in-out 38ms forwards;}.HbEIpUBc_5{stroke-dasharray:30 32;stroke-dashoffset:31;animation:HbEIpUBc_draw 2000ms ease-in-out 48ms forwards;}.HbEIpUBc_6{stroke-dasharray:22 24;stroke-dashoffset:23;animation:HbEIpUBc_draw 2000ms ease-in-out 57ms forwards;}.HbEIpUBc_7{stroke-dasharray:334 336;stroke-dashoffset:335;animation:HbEIpUBc_draw 2000ms ease-in-out 67ms forwards;}.HbEIpUBc_8{stroke-dasharray:227 229;stroke-dashoffset:228;animation:HbEIpUBc_draw 2000ms ease-in-out 76ms forwards;}.HbEIpUBc_9{stroke-dasharray:138 140;stroke-dashoffset:139;animation:HbEIpUBc_draw 2000ms ease-in-out 86ms forwards;}.HbEIpUBc_10{stroke-dasharray:149 151;stroke-dashoffset:150;animation:HbEIpUBc_draw 2000ms ease-in-out 96ms forwards;}.HbEIpUBc_11{stroke-dasharray:167 169;stroke-dashoffset:168;animation:HbEIpUBc_draw 2000ms ease-in-out 105ms forwards;}.HbEIpUBc_12{stroke-dasharray:26 28;stroke-dashoffset:27;animation:HbEIpUBc_draw 2000ms ease-in-out 115ms forwards;}.HbEIpUBc_13{stroke-dasharray:26 28;stroke-dashoffset:27;animation:HbEIpUBc_draw 2000ms ease-in-out 125ms forwards;}.HbEIpUBc_14{stroke-dasharray:26 28;stroke-dashoffset:27;animation:HbEIpUBc_draw 2000ms ease-in-out 134ms forwards;}.HbEIpUBc_15{stroke-dasharray:26 28;stroke-dashoffset:27;animation:HbEIpUBc_draw 2000ms ease-in-out 144ms forwards;}.HbEIpUBc_16{stroke-dasharray:26 28;stroke-dashoffset:27;animation:HbEIpUBc_draw 2000ms ease-in-out 153ms forwards;}.HbEIpUBc_17{stroke-dasharray:26 28;stroke-dashoffset:27;animation:HbEIpUBc_draw 2000ms ease-in-out 163ms forwards;}.HbEIpUBc_18{stroke-dasharray:26 28;stroke-dashoffset:27;animation:HbEIpUBc_draw 2000ms ease-in-out 173ms forwards;}.HbEIpUBc_19{stroke-dasharray:26 28;stroke-dashoffset:27;animation:HbEIpUBc_draw 2000ms ease-in-out 182ms forwards;}.HbEIpUBc_20{stroke-dasharray:25 27;stroke-dashoffset:26;animation:HbEIpUBc_draw 2000ms ease-in-out 192ms forwards;}.HbEIpUBc_21{stroke-dasharray:25 27;stroke-dashoffset:26;animation:HbEIpUBc_draw 2000ms ease-in-out 201ms forwards;}.HbEIpUBc_22{stroke-dasharray:25 27;stroke-dashoffset:26;animation:HbEIpUBc_draw 2000ms ease-in-out 211ms forwards;}.HbEIpUBc_23{stroke-dasharray:25 27;stroke-dashoffset:26;animation:HbEIpUBc_draw 2000ms ease-in-out 221ms forwards;}.HbEIpUBc_24{stroke-dasharray:25 27;stroke-dashoffset:26;animation:HbEIpUBc_draw 2000ms ease-in-out 230ms forwards;}.HbEIpUBc_25{stroke-dasharray:25 27;stroke-dashoffset:26;animation:HbEIpUBc_draw 2000ms ease-in-out 240ms forwards;}.HbEIpUBc_26{stroke-dasharray:25 27;stroke-dashoffset:26;animation:HbEIpUBc_draw 2000ms ease-in-out 250ms forwards;}.HbEIpUBc_27{stroke-dasharray:25 27;stroke-dashoffset:26;animation:HbEIpUBc_draw 2000ms ease-in-out 259ms forwards;}.HbEIpUBc_28{stroke-dasharray:25 27;stroke-dashoffset:26;animation:HbEIpUBc_draw 2000ms ease-in-out 269ms forwards;}.HbEIpUBc_29{stroke-dasharray:25 27;stroke-dashoffset:26;animation:HbEIpUBc_draw 2000ms ease-in-out 278ms forwards;}.HbEIpUBc_30{stroke-dasharray:25 27;stroke-dashoffset:26;animation:HbEIpUBc_draw 2000ms ease-in-out 288ms forwards;}.HbEIpUBc_31{stroke-dasharray:25 27;stroke-dashoffset:26;animation:HbEIpUBc_draw 2000ms ease-in-out 298ms forwards;}.HbEIpUBc_32{stroke-dasharray:25 27;stroke-dashoffset:26;animation:HbEIpUBc_draw 2000ms ease-in-out 307ms forwards;}.HbEIpUBc_33{stroke-dasharray:25 27;stroke-dashoffset:26;animation:HbEIpUBc_draw 2000ms ease-in-out 317ms forwards;}.HbEIpUBc_34{stroke-dasharray:25 27;stroke-dashoffset:26;animation:HbEIpUBc_draw 2000ms ease-in-out 326ms forwards;}.HbEIpUBc_35{stroke-dasharray:25 27;stroke-dashoffset:26;animation:HbEIpUBc_draw 2000ms ease-in-out 336ms forwards;}.HbEIpUBc_36{stroke-dasharray:25 27;stroke-dashoffset:26;animation:HbEIpUBc_draw 2000ms ease-in-out 346ms forwards;}.HbEIpUBc_37{stroke-dasharray:25 27;stroke-dashoffset:26;animation:HbEIpUBc_draw 2000ms ease-in-out 355ms forwards;}.HbEIpUBc_38{stroke-dasharray:25 27;stroke-dashoffset:26;animation:HbEIpUBc_draw 2000ms ease-in-out 365ms forwards;}.HbEIpUBc_39{stroke-dasharray:25 27;stroke-dashoffset:26;animation:HbEIpUBc_draw 2000ms ease-in-out 375ms forwards;}.HbEIpUBc_40{stroke-dasharray:25 27;stroke-dashoffset:26;animation:HbEIpUBc_draw 2000ms ease-in-out 384ms forwards;}.HbEIpUBc_41{stroke-dasharray:25 27;stroke-dashoffset:26;animation:HbEIpUBc_draw 2000ms ease-in-out 394ms forwards;}.HbEIpUBc_42{stroke-dasharray:25 27;stroke-dashoffset:26;animation:HbEIpUBc_draw 2000ms ease-in-out 403ms forwards;}.HbEIpUBc_43{stroke-dasharray:25 27;stroke-dashoffset:26;animation:HbEIpUBc_draw 2000ms ease-in-out 413ms forwards;}.HbEIpUBc_44{stroke-dasharray:25 27;stroke-dashoffset:26;animation:HbEIpUBc_draw 2000ms ease-in-out 423ms forwards;}.HbEIpUBc_45{stroke-dasharray:25 27;stroke-dashoffset:26;animation:HbEIpUBc_draw 2000ms ease-in-out 432ms forwards;}.HbEIpUBc_46{stroke-dasharray:25 27;stroke-dashoffset:26;animation:HbEIpUBc_draw 2000ms ease-in-out 442ms forwards;}.HbEIpUBc_47{stroke-dasharray:25 27;stroke-dashoffset:26;animation:HbEIpUBc_draw 2000ms ease-in-out 451ms forwards;}.HbEIpUBc_48{stroke-dasharray:26 28;stroke-dashoffset:27;animation:HbEIpUBc_draw 2000ms ease-in-out 461ms forwards;}.HbEIpUBc_49{stroke-dasharray:26 28;stroke-dashoffset:27;animation:HbEIpUBc_draw 2000ms ease-in-out 471ms forwards;}.HbEIpUBc_50{stroke-dasharray:26 28;stroke-dashoffset:27;animation:HbEIpUBc_draw 2000ms ease-in-out 480ms forwards;}.HbEIpUBc_51{stroke-dasharray:26 28;stroke-dashoffset:27;animation:HbEIpUBc_draw 2000ms ease-in-out 490ms forwards;}.HbEIpUBc_52{stroke-dasharray:26 28;stroke-dashoffset:27;animation:HbEIpUBc_draw 2000ms ease-in-out 500ms forwards;}.HbEIpUBc_53{stroke-dasharray:26 28;stroke-dashoffset:27;animation:HbEIpUBc_draw 2000ms ease-in-out 509ms forwards;}.HbEIpUBc_54{stroke-dasharray:26 28;stroke-dashoffset:27;animation:HbEIpUBc_draw 2000ms ease-in-out 519ms forwards;}.HbEIpUBc_55{stroke-dasharray:26 28;stroke-dashoffset:27;animation:HbEIpUBc_draw 2000ms ease-in-out 528ms forwards;}.HbEIpUBc_56{stroke-dasharray:26 28;stroke-dashoffset:27;animation:HbEIpUBc_draw 2000ms ease-in-out 538ms forwards;}.HbEIpUBc_57{stroke-dasharray:26 28;stroke-dashoffset:27;animation:HbEIpUBc_draw 2000ms ease-in-out 548ms forwards;}.HbEIpUBc_58{stroke-dasharray:26 28;stroke-dashoffset:27;animation:HbEIpUBc_draw 2000ms ease-in-out 557ms forwards;}.HbEIpUBc_59{stroke-dasharray:26 28;stroke-dashoffset:27;animation:HbEIpUBc_draw 2000ms ease-in-out 567ms forwards;}.HbEIpUBc_60{stroke-dasharray:26 28;stroke-dashoffset:27;animation:HbEIpUBc_draw 2000ms ease-in-out 576ms forwards;}.HbEIpUBc_61{stroke-dasharray:26 28;stroke-dashoffset:27;animation:HbEIpUBc_draw 2000ms ease-in-out 586ms forwards;}.HbEIpUBc_62{stroke-dasharray:26 28;stroke-dashoffset:27;animation:HbEIpUBc_draw 2000ms ease-in-out 596ms forwards;}.HbEIpUBc_63{stroke-dasharray:26 28;stroke-dashoffset:27;animation:HbEIpUBc_draw 2000ms ease-in-out 605ms forwards;}.HbEIpUBc_64{stroke-dasharray:26 28;stroke-dashoffset:27;animation:HbEIpUBc_draw 2000ms ease-in-out 615ms forwards;}.HbEIpUBc_65{stroke-dasharray:26 28;stroke-dashoffset:27;animation:HbEIpUBc_draw 2000ms ease-in-out 625ms forwards;}.HbEIpUBc_66{stroke-dasharray:26 28;stroke-dashoffset:27;animation:HbEIpUBc_draw 2000ms ease-in-out 634ms forwards;}.HbEIpUBc_67{stroke-dasharray:26 28;stroke-dashoffset:27;animation:HbEIpUBc_draw 2000ms ease-in-out 644ms forwards;}.HbEIpUBc_68{stroke-dasharray:26 28;stroke-dashoffset:27;animation:HbEIpUBc_draw 2000ms ease-in-out 653ms forwards;}.HbEIpUBc_69{stroke-dasharray:26 28;stroke-dashoffset:27;animation:HbEIpUBc_draw 2000ms ease-in-out 663ms forwards;}.HbEIpUBc_70{stroke-dasharray:26 28;stroke-dashoffset:27;animation:HbEIpUBc_draw 2000ms ease-in-out 673ms forwards;}.HbEIpUBc_71{stroke-dasharray:26 28;stroke-dashoffset:27;animation:HbEIpUBc_draw 2000ms ease-in-out 682ms forwards;}.HbEIpUBc_72{stroke-dasharray:26 28;stroke-dashoffset:27;animation:HbEIpUBc_draw 2000ms ease-in-out 692ms forwards;}.HbEIpUBc_73{stroke-dasharray:26 28;stroke-dashoffset:27;animation:HbEIpUBc_draw 2000ms ease-in-out 701ms forwards;}.HbEIpUBc_74{stroke-dasharray:26 28;stroke-dashoffset:27;animation:HbEIpUBc_draw 2000ms ease-in-out 711ms forwards;}.HbEIpUBc_75{stroke-dasharray:26 28;stroke-dashoffset:27;animation:HbEIpUBc_draw 2000ms ease-in-out 721ms forwards;}.HbEIpUBc_76{stroke-dasharray:26 28;stroke-dashoffset:27;animation:HbEIpUBc_draw 2000ms ease-in-out 730ms forwards;}.HbEIpUBc_77{stroke-dasharray:26 28;stroke-dashoffset:27;animation:HbEIpUBc_draw 2000ms ease-in-out 740ms forwards;}.HbEIpUBc_78{stroke-dasharray:26 28;stroke-dashoffset:27;animation:HbEIpUBc_draw 2000ms ease-in-out 750ms forwards;}.HbEIpUBc_79{stroke-dasharray:26 28;stroke-dashoffset:27;animation:HbEIpUBc_draw 2000ms ease-in-out 759ms forwards;}.HbEIpUBc_80{stroke-dasharray:26 28;stroke-dashoffset:27;animation:HbEIpUBc_draw 2000ms ease-in-out 769ms forwards;}.HbEIpUBc_81{stroke-dasharray:26 28;stroke-dashoffset:27;animation:HbEIpUBc_draw 2000ms ease-in-out 778ms forwards;}.HbEIpUBc_82{stroke-dasharray:26 28;stroke-dashoffset:27;animation:HbEIpUBc_draw 2000ms ease-in-out 788ms forwards;}.HbEIpUBc_83{stroke-dasharray:26 28;stroke-dashoffset:27;animation:HbEIpUBc_draw 2000ms ease-in-out 798ms forwards;}.HbEIpUBc_84{stroke-dasharray:58 60;stroke-dashoffset:59;animation:HbEIpUBc_draw 2000ms ease-in-out 807ms forwards;}.HbEIpUBc_85{stroke-dasharray:139 141;stroke-dashoffset:140;animation:HbEIpUBc_draw 2000ms ease-in-out 817ms forwards;}.HbEIpUBc_86{stroke-dasharray:118 120;stroke-dashoffset:119;animation:HbEIpUBc_draw 2000ms ease-in-out 826ms forwards;}.HbEIpUBc_87{stroke-dasharray:119 121;stroke-dashoffset:120;animation:HbEIpUBc_draw 2000ms ease-in-out 836ms forwards;}.HbEIpUBc_88{stroke-dasharray:10 12;stroke-dashoffset:11;animation:HbEIpUBc_draw 2000ms ease-in-out 846ms forwards;}.HbEIpUBc_89{stroke-dasharray:53 55;stroke-dashoffset:54;animation:HbEIpUBc_draw 2000ms ease-in-out 855ms forwards;}.HbEIpUBc_90{stroke-dasharray:5 7;stroke-dashoffset:6;animation:HbEIpUBc_draw 2000ms ease-in-out 865ms forwards;}.HbEIpUBc_91{stroke-dasharray:18 20;stroke-dashoffset:19;animation:HbEIpUBc_draw 2000ms ease-in-out 875ms forwards;}.HbEIpUBc_92{stroke-dasharray:12 14;stroke-dashoffset:13;animation:HbEIpUBc_draw 2000ms ease-in-out 884ms forwards;}.HbEIpUBc_93{stroke-dasharray:10 12;stroke-dashoffset:11;animation:HbEIpUBc_draw 2000ms ease-in-out 894ms forwards;}.HbEIpUBc_94{stroke-dasharray:53 55;stroke-dashoffset:54;animation:HbEIpUBc_draw 2000ms ease-in-out 903ms forwards;}.HbEIpUBc_95{stroke-dasharray:5 7;stroke-dashoffset:6;animation:HbEIpUBc_draw 2000ms ease-in-out 913ms forwards;}.HbEIpUBc_96{stroke-dasharray:12 14;stroke-dashoffset:13;animation:HbEIpUBc_draw 2000ms ease-in-out 923ms forwards;}.HbEIpUBc_97{stroke-dasharray:119 121;stroke-dashoffset:120;animation:HbEIpUBc_draw 2000ms ease-in-out 932ms forwards;}.HbEIpUBc_98{stroke-dasharray:10 12;stroke-dashoffset:11;animation:HbEIpUBc_draw 2000ms ease-in-out 942ms forwards;}.HbEIpUBc_99{stroke-dasharray:53 55;stroke-dashoffset:54;animation:HbEIpUBc_draw 2000ms ease-in-out 951ms forwards;}.HbEIpUBc_100{stroke-dasharray:5 7;stroke-dashoffset:6;animation:HbEIpUBc_draw 2000ms ease-in-out 961ms forwards;}.HbEIpUBc_101{stroke-dasharray:12 14;stroke-dashoffset:13;animation:HbEIpUBc_draw 2000ms ease-in-out 971ms forwards;}.HbEIpUBc_102{stroke-dasharray:40 42;stroke-dashoffset:41;animation:HbEIpUBc_draw 2000ms ease-in-out 980ms forwards;}.HbEIpUBc_103{stroke-dasharray:32 34;stroke-dashoffset:33;animation:HbEIpUBc_draw 2000ms ease-in-out 990ms forwards;}.HbEIpUBc_104{stroke-dasharray:1250 1252;stroke-dashoffset:1251;animation:HbEIpUBc_draw 2000ms ease-in-out 1000ms forwards;}@keyframes HbEIpUBc_draw{100%{stroke-dashoffset:0;}}@keyframes HbEIpUBc_fade{0%{stroke-opacity:1;}94.44444444444444%{stroke-opacity:1;}100%{stroke-opacity:0;}}</style></svg>
