<svg width="1440" height="440" viewBox="0 0 1440 440" fill="none" xmlns="http://www.w3.org/2000/svg" style="">
<path d="M726.401 426.987C726.401 430.409 723.589 433.217 720.078 433.217C716.568 433.217 713.756 430.409 713.756 426.987C713.756 423.565 716.568 420.756 720.078 420.756C723.589 420.756 726.401 423.565 726.401 426.987Z" stroke="#103957" stroke-width="3.51237" class="mDBErbUy_0"></path>
<path d="M1101.51 357.37C1039.59 357.37 985.427 324.907 955.91 276.461M1101.51 26.7915C1008.01 26.7915 932.218 100.794 932.218 192.081C932.218 195.11 932.301 198.12 932.466 201.109" stroke="#103957" stroke-width="7.02475" class="mDBErbUy_1"></path>
<path d="M1169.5 302.226C1229.53 265.381 1248.36 187.986 1211.54 129.357C1174.73 70.729 1096.22 53.0697 1036.18 89.9141" stroke="#103957" stroke-width="7.02475" class="mDBErbUy_2"></path>
<path d="M1169.5 302.226C1229.53 265.381 1248.36 187.986 1211.54 129.357C1174.73 70.729 1096.22 53.0697 1036.18 89.9141" stroke="#103957" stroke-width="7.02475" class="mDBErbUy_3"></path>
<path d="M1156.5 329.694C1085.27 356.042 1006.94 326.786 971.228 263.96M1051.27 51.6851C986.557 75.6258 947.893 138.012 952.457 202.15" stroke="#103957" stroke-width="11.2396" class="mDBErbUy_4"></path>
<path d="M1238.56 248.393C1268.04 173.179 1230.27 88.5784 1154.19 59.4321" stroke="#103957" stroke-width="12.6445" stroke-linejoin="round" class="mDBErbUy_5"></path>
<path d="M1238.56 248.393C1268.04 173.179 1230.27 88.5784 1154.19 59.4321" stroke="#0088FF" stroke-width="12.6445" stroke-linejoin="round" class="mDBErbUy_6"></path>
<path d="M1163.66 310.534C1114.67 330.134 1061.29 321.904 1021.43 293.358" stroke="#0088FF" stroke-width="12.6445" stroke-linejoin="round" class="mDBErbUy_7"></path>
<path d="M936 150.273L720 77.608V39.4109" stroke="#103957" stroke-width="8.4297" class="mDBErbUy_8"></path>
<path d="M720.533 412.323V332.978L901 254M697 440V422.332C697 414.573 703.29 408.283 711.049 408.283H720.533H730.017C737.776 408.283 744.067 414.573 744.067 422.332V440" stroke="#103957" stroke-width="8.4297" class="mDBErbUy_9"></path>
<path d="M979.987 239.653C979.987 260.893 962.562 278.166 940.999 278.166C919.437 278.166 902.012 260.893 902.012 239.653C902.012 218.414 919.437 201.141 940.999 201.141C962.562 201.141 979.987 218.414 979.987 239.653Z" stroke="#103957" stroke-width="5.6198" class="mDBErbUy_10"></path>
<path d="M969.8 239.306C969.8 254.822 957.074 267.421 941.35 267.421C925.626 267.421 912.899 254.822 912.899 239.306C912.899 223.79 925.626 211.191 941.35 211.191C957.074 211.191 969.8 223.79 969.8 239.306Z" stroke="#103957" stroke-width="2.10742" class="mDBErbUy_11"></path>
<path d="M957.507 239.305C957.507 248.079 950.304 255.247 941.35 255.247C932.397 255.247 925.193 248.079 925.193 239.305C925.193 230.531 932.397 223.364 941.35 223.364C950.304 223.364 957.507 230.531 957.507 239.305Z" stroke="#103957" stroke-width="5.6198" class="mDBErbUy_12"></path>
<path d="M1107.84 117.876V80.2671" stroke="#103957" stroke-width="0.702475" class="mDBErbUy_13"></path>
<path d="M1107.84 306.672V269.063" stroke="#103957" stroke-width="0.702475" class="mDBErbUy_14"></path>
<path d="M1101.17 118.164L1097.86 80.6982" stroke="#103957" stroke-width="0.702475" class="mDBErbUy_15"></path>
<path d="M1117.82 306.241L1114.5 268.775" stroke="#103957" stroke-width="0.702475" class="mDBErbUy_16"></path>
<path d="M1094.56 119.024L1087.95 81.9871" stroke="#103957" stroke-width="0.702475" class="mDBErbUy_17"></path>
<path d="M1127.72 304.952L1121.12 267.915" stroke="#103957" stroke-width="0.702475" class="mDBErbUy_18"></path>
<path d="M1088.05 120.451L1078.2 84.1243" stroke="#103957" stroke-width="0.702475" class="mDBErbUy_19"></path>
<path d="M1137.47 302.815L1127.63 266.487" stroke="#103957" stroke-width="0.702475" class="mDBErbUy_20"></path>
<path d="M1081.69 122.434L1068.68 87.0938" stroke="#103957" stroke-width="0.702475" class="mDBErbUy_21"></path>
<path d="M1147 299.844L1133.99 264.503" stroke="#103957" stroke-width="0.702475" class="mDBErbUy_22"></path>
<path d="M1075.52 124.959L1059.45 90.8735" stroke="#103957" stroke-width="0.702475" class="mDBErbUy_23"></path>
<path d="M1156.23 296.065L1140.15 261.98" stroke="#103957" stroke-width="0.702475" class="mDBErbUy_24"></path>
<path d="M1069.61 128.003L1050.59 95.4326" stroke="#103957" stroke-width="0.702475" class="mDBErbUy_25"></path>
<path d="M1165.09 291.505L1146.07 258.935" stroke="#103957" stroke-width="0.702475" class="mDBErbUy_26"></path>
<path d="M1063.98 131.547L1042.16 100.739" stroke="#103957" stroke-width="0.702475" class="mDBErbUy_27"></path>
<path d="M1173.51 286.199L1151.69 255.392" stroke="#103957" stroke-width="0.702475" class="mDBErbUy_28"></path>
<path d="M1058.69 135.562L1034.24 106.752" stroke="#103957" stroke-width="0.702475" class="mDBErbUy_29"></path>
<path d="M1181.44 280.188L1156.99 251.378" stroke="#103957" stroke-width="0.702475" class="mDBErbUy_30"></path>
<path d="M1053.77 140.016L1026.87 113.423" stroke="#103957" stroke-width="0.702475" class="mDBErbUy_31"></path>
<path d="M1188.8 273.515L1161.9 246.922" stroke="#103957" stroke-width="0.702475" class="mDBErbUy_32"></path>
<path d="M1049.26 144.879L1020.12 120.704" stroke="#103957" stroke-width="0.702475" class="mDBErbUy_33"></path>
<path d="M1195.55 266.234L1166.41 242.06" stroke="#103957" stroke-width="0.702475" class="mDBErbUy_34"></path>
<path d="M1045.2 150.11L1014.04 128.539" stroke="#103957" stroke-width="0.702475" class="mDBErbUy_35"></path>
<path d="M1201.63 258.4L1170.47 236.828" stroke="#103957" stroke-width="0.702475" class="mDBErbUy_36"></path>
<path d="M1041.62 155.672L1008.67 136.868" stroke="#103957" stroke-width="0.702475" class="mDBErbUy_37"></path>
<path d="M1207 250.07L1174.06 231.266" stroke="#103957" stroke-width="0.702475" class="mDBErbUy_38"></path>
<path d="M1038.54 161.523L1004.06 145.628" stroke="#103957" stroke-width="0.702475" class="mDBErbUy_39"></path>
<path d="M1211.61 241.311L1177.14 225.417" stroke="#103957" stroke-width="0.702475" class="mDBErbUy_40"></path>
<path d="M1035.99 167.615L1000.24 154.752" stroke="#103957" stroke-width="0.702475" class="mDBErbUy_41"></path>
<path d="M1215.43 232.187L1179.69 219.324" stroke="#103957" stroke-width="0.702475" class="mDBErbUy_42"></path>
<path d="M1033.98 173.905L997.235 164.171" stroke="#103957" stroke-width="0.702475" class="mDBErbUy_43"></path>
<path d="M1218.44 222.768L1181.69 213.034" stroke="#103957" stroke-width="0.702475" class="mDBErbUy_44"></path>
<path d="M1032.54 180.343L995.073 173.812" stroke="#103957" stroke-width="0.702475" class="mDBErbUy_45"></path>
<path d="M1220.6 213.127L1183.14 206.596" stroke="#103957" stroke-width="0.702475" class="mDBErbUy_46"></path>
<path d="M1031.67 186.88L993.77 183.602" stroke="#103957" stroke-width="0.702475" class="mDBErbUy_47"></path>
<path d="M1221.91 203.336L1184.01 200.058" stroke="#103957" stroke-width="0.702475" class="mDBErbUy_48"></path>
<path d="M1031.37 193.469H993.334" stroke="#103957" stroke-width="0.702475" class="mDBErbUy_49"></path>
<path d="M1222.34 193.469H1184.3" stroke="#103957" stroke-width="0.702475" class="mDBErbUy_50"></path>
<path d="M1031.67 200.058L993.77 203.335" stroke="#103957" stroke-width="0.702475" class="mDBErbUy_51"></path>
<path d="M1221.91 183.603L1184.01 186.881" stroke="#103957" stroke-width="0.702475" class="mDBErbUy_52"></path>
<path d="M1032.54 206.596L995.073 213.127" stroke="#103957" stroke-width="0.702475" class="mDBErbUy_53"></path>
<path d="M1220.6 173.812L1183.14 180.343" stroke="#103957" stroke-width="0.702475" class="mDBErbUy_54"></path>
<path d="M1033.98 213.034L997.235 222.768" stroke="#103957" stroke-width="0.702475" class="mDBErbUy_55"></path>
<path d="M1218.44 164.17L1181.69 173.904" stroke="#103957" stroke-width="0.702475" class="mDBErbUy_56"></path>
<path d="M1035.98 219.322L1000.24 232.185" stroke="#103957" stroke-width="0.702475" class="mDBErbUy_57"></path>
<path d="M1215.43 154.752L1179.69 167.615" stroke="#103957" stroke-width="0.702475" class="mDBErbUy_58"></path>
<path d="M1038.54 225.416L1004.06 241.31" stroke="#103957" stroke-width="0.702475" class="mDBErbUy_59"></path>
<path d="M1211.61 145.627L1177.14 161.521" stroke="#103957" stroke-width="0.702475" class="mDBErbUy_60"></path>
<path d="M1041.62 231.266L1008.68 250.071" stroke="#103957" stroke-width="0.702475" class="mDBErbUy_61"></path>
<path d="M1207 136.868L1174.06 155.673" stroke="#103957" stroke-width="0.702475" class="mDBErbUy_62"></path>
<path d="M1045.2 236.828L1014.04 258.399" stroke="#103957" stroke-width="0.702475" class="mDBErbUy_63"></path>
<path d="M1201.63 128.539L1170.47 150.111" stroke="#103957" stroke-width="0.702475" class="mDBErbUy_64"></path>
<path d="M1049.26 242.058L1020.12 266.233" stroke="#103957" stroke-width="0.702475" class="mDBErbUy_65"></path>
<path d="M1195.55 120.704L1166.41 144.879" stroke="#103957" stroke-width="0.702475" class="mDBErbUy_66"></path>
<path d="M1053.77 246.922L1026.87 273.515" stroke="#103957" stroke-width="0.702475" class="mDBErbUy_67"></path>
<path d="M1188.8 113.423L1161.9 140.016" stroke="#103957" stroke-width="0.702475" class="mDBErbUy_68"></path>
<path d="M1058.69 251.377L1034.24 280.187" stroke="#103957" stroke-width="0.702475" class="mDBErbUy_69"></path>
<path d="M1181.44 106.751L1156.99 135.561" stroke="#103957" stroke-width="0.702475" class="mDBErbUy_70"></path>
<path d="M1063.98 255.392L1042.16 286.199" stroke="#103957" stroke-width="0.702475" class="mDBErbUy_71"></path>
<path d="M1173.51 100.739L1151.69 131.547" stroke="#103957" stroke-width="0.702475" class="mDBErbUy_72"></path>
<path d="M1069.61 258.935L1050.59 291.505" stroke="#103957" stroke-width="0.702475" class="mDBErbUy_73"></path>
<path d="M1165.09 95.4331L1146.07 128.003" stroke="#103957" stroke-width="0.702475" class="mDBErbUy_74"></path>
<path d="M1075.52 261.979L1059.44 296.064" stroke="#103957" stroke-width="0.702475" class="mDBErbUy_75"></path>
<path d="M1156.23 90.8734L1140.15 124.958" stroke="#103957" stroke-width="0.702475" class="mDBErbUy_76"></path>
<path d="M1081.68 264.503L1068.67 299.844" stroke="#103957" stroke-width="0.702475" class="mDBErbUy_77"></path>
<path d="M1147 87.0942L1133.99 122.435" stroke="#103957" stroke-width="0.702475" class="mDBErbUy_78"></path>
<path d="M1088.05 266.487L1078.2 302.814" stroke="#103957" stroke-width="0.702475" class="mDBErbUy_79"></path>
<path d="M1137.47 84.1242L1127.63 120.451" stroke="#103957" stroke-width="0.702475" class="mDBErbUy_80"></path>
<path d="M1094.56 267.915L1087.95 304.952" stroke="#103957" stroke-width="0.702475" class="mDBErbUy_81"></path>
<path d="M1127.72 81.9868L1121.11 119.024" stroke="#103957" stroke-width="0.702475" class="mDBErbUy_82"></path>
<path d="M1101.17 268.776L1097.86 306.241" stroke="#103957" stroke-width="0.702475" class="mDBErbUy_83"></path>
<path d="M1117.82 80.6982L1114.5 118.164" stroke="#103957" stroke-width="0.702475" class="mDBErbUy_84"></path>
<path d="M1072.96 153.173H1137.74" stroke="#103957" stroke-width="2.8099" class="mDBErbUy_85"></path>
<path d="M1097.7 147.734H1113.22M1072.96 229.104H1138.23" stroke="#103957" stroke-width="2.8099" class="mDBErbUy_86"></path>
<path d="M1138.23 214.527V226.573C1138.23 237.824 1129.11 246.945 1117.86 246.945H1093.08C1081.83 246.945 1072.71 237.824 1072.71 226.573V153.825V153.825C1072.71 147.337 1077.97 142.077 1084.46 142.077H1123.99V142.077C1131.86 142.077 1138.23 148.45 1138.23 156.313V166.587" stroke="#103957" stroke-width="2.8099" class="mDBErbUy_87"></path>
<path d="M1111.21 237.372C1111.21 239.081 1109.58 240.754 1107.2 240.754C1104.81 240.754 1103.18 239.081 1103.18 237.372C1103.18 235.663 1104.81 233.99 1107.2 233.99C1109.58 233.99 1111.21 235.663 1111.21 237.372Z" stroke="#103957" stroke-width="2.8099" class="mDBErbUy_88"></path>
<path d="M1114.83 208.653H1112.88C1107.84 208.653 1103.75 204.564 1103.75 199.521V186.455C1103.75 181.412 1107.84 177.323 1112.88 177.323H1146.83C1151.87 177.323 1155.96 181.412 1155.96 186.455V199.521C1155.96 204.564 1151.87 208.653 1146.83 208.653H1121.73" stroke="#103957" stroke-width="2.8099" class="mDBErbUy_89"></path>
<path d="M1112.61 176.746V176.746C1112.61 173.7 1115.08 171.231 1118.13 171.231H1155.7C1160.74 171.231 1164.83 175.32 1164.83 180.363V194.129C1164.83 199.026 1160.86 202.996 1155.96 202.996V202.996" stroke="#103957" stroke-width="2.8099" class="mDBErbUy_90"></path>
<path d="M1114.83 207.542V220.262L1122.94 208.162" stroke="#103957" stroke-width="2.8099" class="mDBErbUy_91"></path>
<path d="M1109.9 183.198H1121.97M1149.81 183.198H1126.41M1109.9 188.202H1132.07M1149.81 188.202H1136.51M1109.9 192.553H1127.64M1131.58 192.553H1149.81M1109.9 197.122H1121.97M1109.9 202.126H1132.07M1126.41 197.122H1149.81M1136.51 202.126H1149.81" stroke="#0088FF" stroke-width="1.40495" class="mDBErbUy_92"></path>
<path d="M987.011 202.845C987.011 205.302 984.99 207.335 982.445 207.335C979.9 207.335 977.879 205.302 977.879 202.845C977.879 200.388 979.9 198.355 982.445 198.355C984.99 198.355 987.011 200.388 987.011 202.845Z" stroke="#0088FF" stroke-width="4.21485" class="mDBErbUy_93"></path>
<path d="M987.011 182.704C987.011 185.162 984.99 187.195 982.445 187.195C979.9 187.195 977.879 185.162 977.879 182.704C977.879 180.247 979.9 178.214 982.445 178.214C984.99 178.214 987.011 180.247 987.011 182.704Z" stroke="#0088FF" stroke-width="4.21485" class="mDBErbUy_94"></path>
<path d="M989.119 163.954C989.119 166.411 987.097 168.444 984.553 168.444C982.008 168.444 979.987 166.411 979.987 163.954C979.987 161.496 982.008 159.463 984.553 159.463C987.097 159.463 989.119 161.496 989.119 163.954Z" stroke="#0088FF" stroke-width="4.21485" class="mDBErbUy_95"></path>
<path d="M995.441 145.897C995.441 148.354 993.419 150.387 990.875 150.387C988.33 150.387 986.309 148.354 986.309 145.897C986.309 143.439 988.33 141.406 990.875 141.406C993.419 141.406 995.441 143.439 995.441 145.897Z" stroke="#0088FF" stroke-width="4.21485" class="mDBErbUy_96"></path>
<path d="M1004.57 128.534C1004.57 130.991 1002.55 133.024 1000.01 133.024C997.462 133.024 995.44 130.991 995.44 128.534C995.44 126.077 997.462 124.044 1000.01 124.044C1002.55 124.044 1004.57 126.077 1004.57 128.534Z" stroke="#0088FF" stroke-width="4.21485" class="mDBErbUy_97"></path>
<path d="M1016.51 113.255C1016.51 115.713 1014.49 117.746 1011.95 117.746C1009.4 117.746 1007.38 115.713 1007.38 113.255C1007.38 110.798 1009.4 108.765 1011.95 108.765C1014.49 108.765 1016.51 110.798 1016.51 113.255Z" stroke="#0088FF" stroke-width="4.21485" class="mDBErbUy_98"></path>
<path d="M955.128 320.596C955.128 320.596 966.263 334.801 976.885 340.277" stroke="#103957" stroke-width="1.21946" class="mDBErbUy_99"></path>
<path d="M992.462 288.27L941.176 332.087L932.025 321.483" stroke="#103957" stroke-width="1.21946" class="mDBErbUy_100"></path>
<path d="M910.3 318.988C904.888 312.716 905.642 303.293 911.988 297.939C918.334 292.586 927.866 293.335 933.278 299.606C938.69 305.877 937.937 315.301 931.59 320.654C925.244 326.007 915.712 325.259 910.3 318.988Z" stroke="#103957" stroke-width="1.82919" class="mDBErbUy_101"></path>
<path d="M913.55 316.246C909.669 311.749 910.209 304.992 914.761 301.153C919.312 297.314 926.147 297.851 930.028 302.347C933.908 306.844 933.368 313.602 928.817 317.441C924.266 321.28 917.431 320.743 913.55 316.246Z" stroke="#103957" stroke-width="1.82919" class="mDBErbUy_102"></path>
<path d="M916.801 313.505C914.452 310.783 914.778 306.691 917.534 304.366C920.291 302.041 924.429 302.367 926.778 305.089C929.127 307.811 928.801 311.903 926.045 314.228C923.288 316.552 919.15 316.227 916.801 313.505Z" stroke="#103957" stroke-width="1.82919" class="mDBErbUy_103"></path>
<path d="M977.94 345.772C976.246 343.809 976.481 340.859 978.469 339.183C980.456 337.507 983.439 337.742 985.133 339.704C986.827 341.667 986.592 344.617 984.604 346.293C982.617 347.969 979.634 347.734 977.94 345.772Z" stroke="#103957" stroke-width="1.21946" class="mDBErbUy_104"></path>
<path d="M1024.8 356.968C1024.8 356.968 1009.78 352.039 1002.16 345" stroke="#0088FF" stroke-width="1.21946" class="mDBErbUy_105"></path>
<path d="M1030.11 300.764L983.76 375.35L994.298 381.578" stroke="#0088FF" stroke-width="1.21946" class="mDBErbUy_106"></path>
<path d="M999.683 399.554C1005.87 403.208 1013.87 401.212 1017.56 395.11C1021.25 389.008 1019.24 381.096 1013.05 377.442C1006.87 373.788 998.871 375.784 995.181 381.886C991.491 387.988 993.501 395.9 999.683 399.554Z" stroke="#0088FF" stroke-width="1.82919" class="mDBErbUy_107"></path>
<path d="M1001.59 396.396C1006.01 399.008 1011.73 397.581 1014.36 393.222C1017 388.864 1015.56 383.21 1011.14 380.599C1006.73 377.987 1001.01 379.414 998.374 383.773C995.739 388.131 997.173 393.785 1001.59 396.396Z" stroke="#0088FF" stroke-width="1.82919" class="mDBErbUy_108"></path>
<path d="M1003.5 393.24C1006.16 394.809 1009.59 393.95 1011.17 391.335C1012.75 388.72 1011.89 385.325 1009.24 383.756C1006.58 382.186 1003.15 383.045 1001.57 385.66C999.986 388.275 1000.85 391.67 1003.5 393.24Z" stroke="#0088FF" stroke-width="1.82919" class="mDBErbUy_109"></path>
<path d="M1026.93 361.692C1029.01 362.485 1031.35 361.456 1032.15 359.403C1032.95 357.349 1031.91 355.038 1029.83 354.245C1027.75 353.452 1025.41 354.481 1024.61 356.534C1023.81 358.588 1024.85 360.899 1026.93 361.692Z" stroke="#0088FF" stroke-width="1.21946" class="mDBErbUy_110"></path>
<path d="M728.802 30.0265C728.802 34.953 724.751 39.015 719.669 39.015C714.588 39.015 710.537 34.953 710.537 30.0265C710.537 25.1 714.588 21.038 719.669 21.038C724.751 21.038 728.802 25.1 728.802 30.0265Z" stroke="#103957" stroke-width="7.02475" class="mDBErbUy_111"></path>
<path d="M700 28.6378V28.6378C700 18.2817 708.395 9.88647 718.751 9.88647H720.587C730.943 9.88647 739.339 18.2817 739.339 28.6378V28.6378" stroke="#103957" stroke-width="5.6198" class="mDBErbUy_112"></path>
<style data-made-with="vivus-instant">.mDBErbUy_0{stroke-dasharray:40 42;stroke-dashoffset:41;animation:mDBErbUy_draw 2000ms ease-in-out 0ms forwards;}.mDBErbUy_1{stroke-dasharray:446 448;stroke-dashoffset:447;animation:mDBErbUy_draw 2000ms ease-in-out 8ms forwards;}.mDBErbUy_2{stroke-dasharray:398 400;stroke-dashoffset:399;animation:mDBErbUy_draw 2000ms ease-in-out 17ms forwards;}.mDBErbUy_3{stroke-dasharray:398 400;stroke-dashoffset:399;animation:mDBErbUy_draw 2000ms ease-in-out 26ms forwards;}.mDBErbUy_4{stroke-dasharray:407 409;stroke-dashoffset:408;animation:mDBErbUy_draw 2000ms ease-in-out 35ms forwards;}.mDBErbUy_5{stroke-dasharray:231 233;stroke-dashoffset:232;animation:mDBErbUy_draw 2000ms ease-in-out 44ms forwards;}.mDBErbUy_6{stroke-dasharray:231 233;stroke-dashoffset:232;animation:mDBErbUy_draw 2000ms ease-in-out 53ms forwards;}.mDBErbUy_7{stroke-dasharray:150 152;stroke-dashoffset:151;animation:mDBErbUy_draw 2000ms ease-in-out 62ms forwards;}.mDBErbUy_8{stroke-dasharray:267 269;stroke-dashoffset:268;animation:mDBErbUy_draw 2000ms ease-in-out 71ms forwards;}.mDBErbUy_9{stroke-dasharray:375 377;stroke-dashoffset:376;animation:mDBErbUy_draw 2000ms ease-in-out 80ms forwards;}.mDBErbUy_10{stroke-dasharray:244 246;stroke-dashoffset:245;animation:mDBErbUy_draw 2000ms ease-in-out 89ms forwards;}.mDBErbUy_11{stroke-dasharray:178 180;stroke-dashoffset:179;animation:mDBErbUy_draw 2000ms ease-in-out 98ms forwards;}.mDBErbUy_12{stroke-dasharray:101 103;stroke-dashoffset:102;animation:mDBErbUy_draw 2000ms ease-in-out 107ms forwards;}.mDBErbUy_13{stroke-dasharray:38 40;stroke-dashoffset:39;animation:mDBErbUy_draw 2000ms ease-in-out 116ms forwards;}.mDBErbUy_14{stroke-dasharray:38 40;stroke-dashoffset:39;animation:mDBErbUy_draw 2000ms ease-in-out 125ms forwards;}.mDBErbUy_15{stroke-dasharray:38 40;stroke-dashoffset:39;animation:mDBErbUy_draw 2000ms ease-in-out 133ms forwards;}.mDBErbUy_16{stroke-dasharray:38 40;stroke-dashoffset:39;animation:mDBErbUy_draw 2000ms ease-in-out 142ms forwards;}.mDBErbUy_17{stroke-dasharray:38 40;stroke-dashoffset:39;animation:mDBErbUy_draw 2000ms ease-in-out 151ms forwards;}.mDBErbUy_18{stroke-dasharray:38 40;stroke-dashoffset:39;animation:mDBErbUy_draw 2000ms ease-in-out 160ms forwards;}.mDBErbUy_19{stroke-dasharray:38 40;stroke-dashoffset:39;animation:mDBErbUy_draw 2000ms ease-in-out 169ms forwards;}.mDBErbUy_20{stroke-dasharray:38 40;stroke-dashoffset:39;animation:mDBErbUy_draw 2000ms ease-in-out 178ms forwards;}.mDBErbUy_21{stroke-dasharray:38 40;stroke-dashoffset:39;animation:mDBErbUy_draw 2000ms ease-in-out 187ms forwards;}.mDBErbUy_22{stroke-dasharray:38 40;stroke-dashoffset:39;animation:mDBErbUy_draw 2000ms ease-in-out 196ms forwards;}.mDBErbUy_23{stroke-dasharray:38 40;stroke-dashoffset:39;animation:mDBErbUy_draw 2000ms ease-in-out 205ms forwards;}.mDBErbUy_24{stroke-dasharray:38 40;stroke-dashoffset:39;animation:mDBErbUy_draw 2000ms ease-in-out 214ms forwards;}.mDBErbUy_25{stroke-dasharray:38 40;stroke-dashoffset:39;animation:mDBErbUy_draw 2000ms ease-in-out 223ms forwards;}.mDBErbUy_26{stroke-dasharray:38 40;stroke-dashoffset:39;animation:mDBErbUy_draw 2000ms ease-in-out 232ms forwards;}.mDBErbUy_27{stroke-dasharray:38 40;stroke-dashoffset:39;animation:mDBErbUy_draw 2000ms ease-in-out 241ms forwards;}.mDBErbUy_28{stroke-dasharray:38 40;stroke-dashoffset:39;animation:mDBErbUy_draw 2000ms ease-in-out 250ms forwards;}.mDBErbUy_29{stroke-dasharray:38 40;stroke-dashoffset:39;animation:mDBErbUy_draw 2000ms ease-in-out 258ms forwards;}.mDBErbUy_30{stroke-dasharray:38 40;stroke-dashoffset:39;animation:mDBErbUy_draw 2000ms ease-in-out 267ms forwards;}.mDBErbUy_31{stroke-dasharray:38 40;stroke-dashoffset:39;animation:mDBErbUy_draw 2000ms ease-in-out 276ms forwards;}.mDBErbUy_32{stroke-dasharray:38 40;stroke-dashoffset:39;animation:mDBErbUy_draw 2000ms ease-in-out 285ms forwards;}.mDBErbUy_33{stroke-dasharray:38 40;stroke-dashoffset:39;animation:mDBErbUy_draw 2000ms ease-in-out 294ms forwards;}.mDBErbUy_34{stroke-dasharray:38 40;stroke-dashoffset:39;animation:mDBErbUy_draw 2000ms ease-in-out 303ms forwards;}.mDBErbUy_35{stroke-dasharray:38 40;stroke-dashoffset:39;animation:mDBErbUy_draw 2000ms ease-in-out 312ms forwards;}.mDBErbUy_36{stroke-dasharray:38 40;stroke-dashoffset:39;animation:mDBErbUy_draw 2000ms ease-in-out 321ms forwards;}.mDBErbUy_37{stroke-dasharray:38 40;stroke-dashoffset:39;animation:mDBErbUy_draw 2000ms ease-in-out 330ms forwards;}.mDBErbUy_38{stroke-dasharray:38 40;stroke-dashoffset:39;animation:mDBErbUy_draw 2000ms ease-in-out 339ms forwards;}.mDBErbUy_39{stroke-dasharray:38 40;stroke-dashoffset:39;animation:mDBErbUy_draw 2000ms ease-in-out 348ms forwards;}.mDBErbUy_40{stroke-dasharray:38 40;stroke-dashoffset:39;animation:mDBErbUy_draw 2000ms ease-in-out 357ms forwards;}.mDBErbUy_41{stroke-dasharray:38 40;stroke-dashoffset:39;animation:mDBErbUy_draw 2000ms ease-in-out 366ms forwards;}.mDBErbUy_42{stroke-dasharray:38 40;stroke-dashoffset:39;animation:mDBErbUy_draw 2000ms ease-in-out 375ms forwards;}.mDBErbUy_43{stroke-dasharray:39 41;stroke-dashoffset:40;animation:mDBErbUy_draw 2000ms ease-in-out 383ms forwards;}.mDBErbUy_44{stroke-dasharray:39 41;stroke-dashoffset:40;animation:mDBErbUy_draw 2000ms ease-in-out 392ms forwards;}.mDBErbUy_45{stroke-dasharray:39 41;stroke-dashoffset:40;animation:mDBErbUy_draw 2000ms ease-in-out 401ms forwards;}.mDBErbUy_46{stroke-dasharray:39 41;stroke-dashoffset:40;animation:mDBErbUy_draw 2000ms ease-in-out 410ms forwards;}.mDBErbUy_47{stroke-dasharray:39 41;stroke-dashoffset:40;animation:mDBErbUy_draw 2000ms ease-in-out 419ms forwards;}.mDBErbUy_48{stroke-dasharray:39 41;stroke-dashoffset:40;animation:mDBErbUy_draw 2000ms ease-in-out 428ms forwards;}.mDBErbUy_49{stroke-dasharray:39 41;stroke-dashoffset:40;animation:mDBErbUy_draw 2000ms ease-in-out 437ms forwards;}.mDBErbUy_50{stroke-dasharray:39 41;stroke-dashoffset:40;animation:mDBErbUy_draw 2000ms ease-in-out 446ms forwards;}.mDBErbUy_51{stroke-dasharray:39 41;stroke-dashoffset:40;animation:mDBErbUy_draw 2000ms ease-in-out 455ms forwards;}.mDBErbUy_52{stroke-dasharray:39 41;stroke-dashoffset:40;animation:mDBErbUy_draw 2000ms ease-in-out 464ms forwards;}.mDBErbUy_53{stroke-dasharray:39 41;stroke-dashoffset:40;animation:mDBErbUy_draw 2000ms ease-in-out 473ms forwards;}.mDBErbUy_54{stroke-dasharray:39 41;stroke-dashoffset:40;animation:mDBErbUy_draw 2000ms ease-in-out 482ms forwards;}.mDBErbUy_55{stroke-dasharray:39 41;stroke-dashoffset:40;animation:mDBErbUy_draw 2000ms ease-in-out 491ms forwards;}.mDBErbUy_56{stroke-dasharray:39 41;stroke-dashoffset:40;animation:mDBErbUy_draw 2000ms ease-in-out 500ms forwards;}.mDBErbUy_57{stroke-dasharray:38 40;stroke-dashoffset:39;animation:mDBErbUy_draw 2000ms ease-in-out 508ms forwards;}.mDBErbUy_58{stroke-dasharray:38 40;stroke-dashoffset:39;animation:mDBErbUy_draw 2000ms ease-in-out 517ms forwards;}.mDBErbUy_59{stroke-dasharray:38 40;stroke-dashoffset:39;animation:mDBErbUy_draw 2000ms ease-in-out 526ms forwards;}.mDBErbUy_60{stroke-dasharray:38 40;stroke-dashoffset:39;animation:mDBErbUy_draw 2000ms ease-in-out 535ms forwards;}.mDBErbUy_61{stroke-dasharray:38 40;stroke-dashoffset:39;animation:mDBErbUy_draw 2000ms ease-in-out 544ms forwards;}.mDBErbUy_62{stroke-dasharray:38 40;stroke-dashoffset:39;animation:mDBErbUy_draw 2000ms ease-in-out 553ms forwards;}.mDBErbUy_63{stroke-dasharray:38 40;stroke-dashoffset:39;animation:mDBErbUy_draw 2000ms ease-in-out 562ms forwards;}.mDBErbUy_64{stroke-dasharray:38 40;stroke-dashoffset:39;animation:mDBErbUy_draw 2000ms ease-in-out 571ms forwards;}.mDBErbUy_65{stroke-dasharray:38 40;stroke-dashoffset:39;animation:mDBErbUy_draw 2000ms ease-in-out 580ms forwards;}.mDBErbUy_66{stroke-dasharray:38 40;stroke-dashoffset:39;animation:mDBErbUy_draw 2000ms ease-in-out 589ms forwards;}.mDBErbUy_67{stroke-dasharray:38 40;stroke-dashoffset:39;animation:mDBErbUy_draw 2000ms ease-in-out 598ms forwards;}.mDBErbUy_68{stroke-dasharray:38 40;stroke-dashoffset:39;animation:mDBErbUy_draw 2000ms ease-in-out 607ms forwards;}.mDBErbUy_69{stroke-dasharray:38 40;stroke-dashoffset:39;animation:mDBErbUy_draw 2000ms ease-in-out 616ms forwards;}.mDBErbUy_70{stroke-dasharray:38 40;stroke-dashoffset:39;animation:mDBErbUy_draw 2000ms ease-in-out 625ms forwards;}.mDBErbUy_71{stroke-dasharray:38 40;stroke-dashoffset:39;animation:mDBErbUy_draw 2000ms ease-in-out 633ms forwards;}.mDBErbUy_72{stroke-dasharray:38 40;stroke-dashoffset:39;animation:mDBErbUy_draw 2000ms ease-in-out 642ms forwards;}.mDBErbUy_73{stroke-dasharray:38 40;stroke-dashoffset:39;animation:mDBErbUy_draw 2000ms ease-in-out 651ms forwards;}.mDBErbUy_74{stroke-dasharray:38 40;stroke-dashoffset:39;animation:mDBErbUy_draw 2000ms ease-in-out 660ms forwards;}.mDBErbUy_75{stroke-dasharray:38 40;stroke-dashoffset:39;animation:mDBErbUy_draw 2000ms ease-in-out 669ms forwards;}.mDBErbUy_76{stroke-dasharray:38 40;stroke-dashoffset:39;animation:mDBErbUy_draw 2000ms ease-in-out 678ms forwards;}.mDBErbUy_77{stroke-dasharray:38 40;stroke-dashoffset:39;animation:mDBErbUy_draw 2000ms ease-in-out 687ms forwards;}.mDBErbUy_78{stroke-dasharray:38 40;stroke-dashoffset:39;animation:mDBErbUy_draw 2000ms ease-in-out 696ms forwards;}.mDBErbUy_79{stroke-dasharray:38 40;stroke-dashoffset:39;animation:mDBErbUy_draw 2000ms ease-in-out 705ms forwards;}.mDBErbUy_80{stroke-dasharray:38 40;stroke-dashoffset:39;animation:mDBErbUy_draw 2000ms ease-in-out 714ms forwards;}.mDBErbUy_81{stroke-dasharray:38 40;stroke-dashoffset:39;animation:mDBErbUy_draw 2000ms ease-in-out 723ms forwards;}.mDBErbUy_82{stroke-dasharray:38 40;stroke-dashoffset:39;animation:mDBErbUy_draw 2000ms ease-in-out 732ms forwards;}.mDBErbUy_83{stroke-dasharray:38 40;stroke-dashoffset:39;animation:mDBErbUy_draw 2000ms ease-in-out 741ms forwards;}.mDBErbUy_84{stroke-dasharray:38 40;stroke-dashoffset:39;animation:mDBErbUy_draw 2000ms ease-in-out 750ms forwards;}.mDBErbUy_85{stroke-dasharray:65 67;stroke-dashoffset:66;animation:mDBErbUy_draw 2000ms ease-in-out 758ms forwards;}.mDBErbUy_86{stroke-dasharray:81 83;stroke-dashoffset:82;animation:mDBErbUy_draw 2000ms ease-in-out 767ms forwards;}.mDBErbUy_87{stroke-dasharray:265 267;stroke-dashoffset:266;animation:mDBErbUy_draw 2000ms ease-in-out 776ms forwards;}.mDBErbUy_88{stroke-dasharray:24 26;stroke-dashoffset:25;animation:mDBErbUy_draw 2000ms ease-in-out 785ms forwards;}.mDBErbUy_89{stroke-dasharray:145 147;stroke-dashoffset:146;animation:mDBErbUy_draw 2000ms ease-in-out 794ms forwards;}.mDBErbUy_90{stroke-dasharray:89 91;stroke-dashoffset:90;animation:mDBErbUy_draw 2000ms ease-in-out 803ms forwards;}.mDBErbUy_91{stroke-dasharray:28 30;stroke-dashoffset:29;animation:mDBErbUy_draw 2000ms ease-in-out 812ms forwards;}.mDBErbUy_92{stroke-dasharray:178 180;stroke-dashoffset:179;animation:mDBErbUy_draw 2000ms ease-in-out 821ms forwards;}.mDBErbUy_93{stroke-dasharray:29 31;stroke-dashoffset:30;animation:mDBErbUy_draw 2000ms ease-in-out 830ms forwards;}.mDBErbUy_94{stroke-dasharray:29 31;stroke-dashoffset:30;animation:mDBErbUy_draw 2000ms ease-in-out 839ms forwards;}.mDBErbUy_95{stroke-dasharray:29 31;stroke-dashoffset:30;animation:mDBErbUy_draw 2000ms ease-in-out 848ms forwards;}.mDBErbUy_96{stroke-dasharray:29 31;stroke-dashoffset:30;animation:mDBErbUy_draw 2000ms ease-in-out 857ms forwards;}.mDBErbUy_97{stroke-dasharray:29 31;stroke-dashoffset:30;animation:mDBErbUy_draw 2000ms ease-in-out 866ms forwards;}.mDBErbUy_98{stroke-dasharray:29 31;stroke-dashoffset:30;animation:mDBErbUy_draw 2000ms ease-in-out 875ms forwards;}.mDBErbUy_99{stroke-dasharray:30 32;stroke-dashoffset:31;animation:mDBErbUy_draw 2000ms ease-in-out 883ms forwards;}.mDBErbUy_100{stroke-dasharray:82 84;stroke-dashoffset:83;animation:mDBErbUy_draw 2000ms ease-in-out 892ms forwards;}.mDBErbUy_101{stroke-dasharray:95 97;stroke-dashoffset:96;animation:mDBErbUy_draw 2000ms ease-in-out 901ms forwards;}.mDBErbUy_102{stroke-dasharray:68 70;stroke-dashoffset:69;animation:mDBErbUy_draw 2000ms ease-in-out 910ms forwards;}.mDBErbUy_103{stroke-dasharray:41 43;stroke-dashoffset:42;animation:mDBErbUy_draw 2000ms ease-in-out 919ms forwards;}.mDBErbUy_104{stroke-dasharray:30 32;stroke-dashoffset:31;animation:mDBErbUy_draw 2000ms ease-in-out 928ms forwards;}.mDBErbUy_105{stroke-dasharray:26 28;stroke-dashoffset:27;animation:mDBErbUy_draw 2000ms ease-in-out 937ms forwards;}.mDBErbUy_106{stroke-dasharray:101 103;stroke-dashoffset:102;animation:mDBErbUy_draw 2000ms ease-in-out 946ms forwards;}.mDBErbUy_107{stroke-dasharray:82 84;stroke-dashoffset:83;animation:mDBErbUy_draw 2000ms ease-in-out 955ms forwards;}.mDBErbUy_108{stroke-dasharray:59 61;stroke-dashoffset:60;animation:mDBErbUy_draw 2000ms ease-in-out 964ms forwards;}.mDBErbUy_109{stroke-dasharray:35 37;stroke-dashoffset:36;animation:mDBErbUy_draw 2000ms ease-in-out 973ms forwards;}.mDBErbUy_110{stroke-dasharray:26 28;stroke-dashoffset:27;animation:mDBErbUy_draw 2000ms ease-in-out 982ms forwards;}.mDBErbUy_111{stroke-dasharray:57 59;stroke-dashoffset:58;animation:mDBErbUy_draw 2000ms ease-in-out 991ms forwards;}.mDBErbUy_112{stroke-dasharray:61 63;stroke-dashoffset:62;animation:mDBErbUy_draw 2000ms ease-in-out 1000ms forwards;}@keyframes mDBErbUy_draw{100%{stroke-dashoffset:0;}}@keyframes mDBErbUy_fade{0%{stroke-opacity:1;}94.44444444444444%{stroke-opacity:1;}100%{stroke-opacity:0;}}</style></svg>
