<svg width="360" height="265" viewBox="0 0 360 265" fill="none" xmlns="http://www.w3.org/2000/svg" style="">
<g clip-path="url(#clip0)">
<path d="M322.93 129.473C322.93 184.851 279.394 229.744 225.69 229.744C171.985 229.744 128.449 184.851 128.449 129.473" stroke="white" stroke-width="4.71556" class="yfiqeElu_0"></path>
<path d="M192.548 79.3138C220.27 61.071 257.861 69.2567 276.512 97.5971C295.162 125.938 287.808 163.701 260.086 181.944" stroke="white" stroke-width="4.71556" class="yfiqeElu_1"></path>
<path d="M226.229 18.9391C288.617 18.9391 339.192 69.786 339.192 132.509C339.192 195.232 288.617 246.079 226.229 246.079" stroke="#0088FF" stroke-width="3.64395" class="yfiqeElu_2"></path>
<path d="M235.946 205.388C187.057 215.409 146.973 173.504 150.92 126.132" stroke="#0088FF" stroke-width="8.48801" stroke-linejoin="round" class="yfiqeElu_3"></path>
<path d="M230.784 47.4836C282.567 52.2277 314.48 92.2658 309.736 144.048" stroke="white" stroke-width="8.48801" stroke-linejoin="round" class="yfiqeElu_4"></path>
<path d="M244.144 35.6408C282.095 41.6319 307.719 62.6475 318.785 100.814" stroke="white" stroke-width="4.71556" stroke-linejoin="round" class="yfiqeElu_5"></path>
<path d="M111.59 216.788C111.59 216.788 101.254 207.259 97.688 198.708" stroke="#0088FF" stroke-width="0.943113" class="yfiqeElu_6"></path>
<path d="M161.246 178.97L102.864 223.393L109.623 232.111" stroke="#0088FF" stroke-width="0.943113" class="yfiqeElu_7"></path>
<path d="M109.113 249.945C113.646 254.537 121.043 254.585 125.635 250.052C130.227 245.519 130.275 238.122 125.742 233.53C121.209 228.938 113.812 228.89 109.22 233.423C104.628 237.956 104.58 245.353 109.113 249.945Z" stroke="#0088FF" stroke-width="1.41467" class="yfiqeElu_8"></path>
<path d="M111.464 247.625C114.715 250.918 120.02 250.952 123.313 247.701C126.607 244.45 126.641 239.145 123.39 235.852C120.139 232.558 114.834 232.524 111.541 235.775C108.247 239.026 108.213 244.331 111.464 247.625Z" stroke="#0088FF" stroke-width="1.41467" class="yfiqeElu_9"></path>
<path d="M113.816 245.304C115.785 247.299 118.999 247.319 120.993 245.35C122.988 243.381 123.009 240.168 121.04 238.174C119.071 236.179 115.857 236.158 113.863 238.127C111.868 240.096 111.847 243.309 113.816 245.304Z" stroke="#0088FF" stroke-width="1.41467" class="yfiqeElu_10"></path>
<path d="M93.4258 198.009C94.8453 199.447 97.1618 199.462 98.5998 198.042C100.038 196.623 100.053 194.306 98.6333 192.868C97.2138 191.43 94.8973 191.415 93.4593 192.835C92.0213 194.254 92.0063 196.571 93.4258 198.009Z" stroke="#0088FF" stroke-width="0.943113" class="yfiqeElu_11"></path>
<path d="M223.533 82.2241V56.5801" stroke="white" stroke-width="0.471556" class="yfiqeElu_12"></path>
<path d="M223.533 210.956V185.312" stroke="white" stroke-width="0.471556" class="yfiqeElu_13"></path>
<path d="M219.042 82.4199L216.807 56.8735" stroke="white" stroke-width="0.471556" class="yfiqeElu_14"></path>
<path d="M230.26 210.663L228.025 185.117" stroke="white" stroke-width="0.471556" class="yfiqeElu_15"></path>
<path d="M214.582 83.0066L210.129 57.7522" stroke="white" stroke-width="0.471556" class="yfiqeElu_16"></path>
<path d="M236.934 209.784L232.481 184.529" stroke="white" stroke-width="0.471556" class="yfiqeElu_17"></path>
<path d="M210.192 83.9804L203.555 59.2102" stroke="white" stroke-width="0.471556" class="yfiqeElu_18"></path>
<path d="M243.511 208.327L236.874 183.557" stroke="white" stroke-width="0.471556" class="yfiqeElu_19"></path>
<path d="M205.904 85.3321L197.133 61.2346" stroke="white" stroke-width="0.471556" class="yfiqeElu_20"></path>
<path d="M249.933 206.301L241.163 182.204" stroke="white" stroke-width="0.471556" class="yfiqeElu_21"></path>
<path d="M201.751 87.0531L190.913 63.8118" stroke="white" stroke-width="0.471556" class="yfiqeElu_22"></path>
<path d="M256.155 203.724L245.317 180.483" stroke="white" stroke-width="0.471556" class="yfiqeElu_23"></path>
<path d="M197.76 89.1295L184.938 66.9211" stroke="white" stroke-width="0.471556" class="yfiqeElu_24"></path>
<path d="M262.126 200.615L249.304 178.407" stroke="white" stroke-width="0.471556" class="yfiqeElu_25"></path>
<path d="M193.968 91.5454L179.259 70.5391" stroke="white" stroke-width="0.471556" class="yfiqeElu_26"></path>
<path d="M267.805 196.997L253.096 175.991" stroke="white" stroke-width="0.471556" class="yfiqeElu_27"></path>
<path d="M190.401 94.2831L173.917 74.6387" stroke="white" stroke-width="0.471556" class="yfiqeElu_28"></path>
<path d="M273.148 192.898L256.665 173.253" stroke="white" stroke-width="0.471556" class="yfiqeElu_29"></path>
<path d="M187.084 97.321L168.951 79.188" stroke="white" stroke-width="0.471556" class="yfiqeElu_30"></path>
<path d="M278.113 188.349L259.979 170.216" stroke="white" stroke-width="0.471556" class="yfiqeElu_31"></path>
<path d="M184.047 100.636L164.403 84.1523" stroke="white" stroke-width="0.471556" class="yfiqeElu_32"></path>
<path d="M282.661 183.385L263.017 166.901" stroke="white" stroke-width="0.471556" class="yfiqeElu_33"></path>
<path d="M184.047 100.636L164.403 84.1523" stroke="white" stroke-width="0.471556" class="yfiqeElu_34"></path>
<path d="M282.661 183.385L263.017 166.901" stroke="white" stroke-width="0.471556" class="yfiqeElu_35"></path>
<path d="M181.31 104.203L160.303 89.4944" stroke="white" stroke-width="0.471556" class="yfiqeElu_36"></path>
<path d="M286.761 178.042L265.755 163.333" stroke="white" stroke-width="0.471556" class="yfiqeElu_37"></path>
<path d="M178.895 107.995L156.687 95.1726" stroke="white" stroke-width="0.471556" class="yfiqeElu_38"></path>
<path d="M290.38 172.362L268.172 159.54" stroke="white" stroke-width="0.471556" class="yfiqeElu_39"></path>
<path d="M176.818 111.985L153.577 101.147" stroke="white" stroke-width="0.471556" class="yfiqeElu_40"></path>
<path d="M293.49 166.389L270.249 155.552" stroke="white" stroke-width="0.471556" class="yfiqeElu_41"></path>
<path d="M175.097 116.138L151 107.367" stroke="white" stroke-width="0.471556" class="yfiqeElu_42"></path>
<path d="M296.067 160.168L271.97 151.398" stroke="white" stroke-width="0.471556" class="yfiqeElu_43"></path>
<path d="M173.745 120.426L148.975 113.789" stroke="white" stroke-width="0.471556" class="yfiqeElu_44"></path>
<path d="M298.091 153.746L273.321 147.109" stroke="white" stroke-width="0.471556" class="yfiqeElu_45"></path>
<path d="M172.77 124.816L147.516 120.363" stroke="white" stroke-width="0.471556" class="yfiqeElu_46"></path>
<path d="M299.546 147.172L274.292 142.719" stroke="white" stroke-width="0.471556" class="yfiqeElu_47"></path>
<path d="M172.184 129.276L146.637 127.041" stroke="white" stroke-width="0.471556" class="yfiqeElu_48"></path>
<path d="M300.426 140.496L274.88 138.26" stroke="white" stroke-width="0.471556" class="yfiqeElu_49"></path>
<path d="M171.988 133.768L146.344 133.768" stroke="white" stroke-width="0.471556" class="yfiqeElu_50"></path>
<path d="M300.721 133.768L275.077 133.768" stroke="white" stroke-width="0.471556" class="yfiqeElu_51"></path>
<path d="M172.184 138.259L146.637 140.494" stroke="white" stroke-width="0.471556" class="yfiqeElu_52"></path>
<path d="M300.425 127.041L274.879 129.276" stroke="white" stroke-width="0.471556" class="yfiqeElu_53"></path>
<path d="M172.77 142.718L147.515 147.171" stroke="white" stroke-width="0.471556" class="yfiqeElu_54"></path>
<path d="M299.546 120.365L274.292 124.818" stroke="white" stroke-width="0.471556" class="yfiqeElu_55"></path>
<path d="M173.744 147.107L148.974 153.745" stroke="white" stroke-width="0.471556" class="yfiqeElu_56"></path>
<path d="M298.091 113.791L273.321 120.428" stroke="white" stroke-width="0.471556" class="yfiqeElu_57"></path>
<path d="M175.096 151.397L150.999 160.168" stroke="white" stroke-width="0.471556" class="yfiqeElu_58"></path>
<path d="M296.066 107.368L271.968 116.139" stroke="white" stroke-width="0.471556" class="yfiqeElu_59"></path>
<path d="M176.818 155.552L153.577 166.389" stroke="white" stroke-width="0.471556" class="yfiqeElu_60"></path>
<path d="M293.49 101.147L270.249 111.984" stroke="white" stroke-width="0.471556" class="yfiqeElu_61"></path>
<path d="M178.893 159.54L156.685 172.362" stroke="white" stroke-width="0.471556" class="yfiqeElu_62"></path>
<path d="M290.38 95.1739L268.171 107.996" stroke="white" stroke-width="0.471556" class="yfiqeElu_63"></path>
<path d="M181.31 163.333L160.303 178.042" stroke="white" stroke-width="0.471556" class="yfiqeElu_64"></path>
<path d="M286.761 89.4951L265.755 104.204" stroke="white" stroke-width="0.471556" class="yfiqeElu_65"></path>
<path d="M184.046 166.9L164.402 183.384" stroke="white" stroke-width="0.471556" class="yfiqeElu_66"></path>
<path d="M282.661 84.1526L263.017 100.636" stroke="white" stroke-width="0.471556" class="yfiqeElu_67"></path>
<path d="M187.084 170.215L168.951 188.348" stroke="white" stroke-width="0.471556" class="yfiqeElu_68"></path>
<path d="M278.113 79.188L259.98 97.321" stroke="white" stroke-width="0.471556" class="yfiqeElu_69"></path>
<path d="M190.401 173.254L173.917 192.898" stroke="white" stroke-width="0.471556" class="yfiqeElu_70"></path>
<path d="M273.147 74.6388L256.664 94.2832" stroke="white" stroke-width="0.471556" class="yfiqeElu_71"></path>
<path d="M193.968 175.991L179.259 196.997" stroke="white" stroke-width="0.471556" class="yfiqeElu_72"></path>
<path d="M267.807 70.5391L253.098 91.5454" stroke="white" stroke-width="0.471556" class="yfiqeElu_73"></path>
<path d="M197.759 178.406L184.937 200.615" stroke="white" stroke-width="0.471556" class="yfiqeElu_74"></path>
<path d="M262.127 66.9208L249.305 89.1292" stroke="white" stroke-width="0.471556" class="yfiqeElu_75"></path>
<path d="M201.75 180.484L190.912 203.725" stroke="white" stroke-width="0.471556" class="yfiqeElu_76"></path>
<path d="M256.155 63.8119L245.317 87.0532" stroke="white" stroke-width="0.471556" class="yfiqeElu_77"></path>
<path d="M205.901 182.203L197.13 206.301" stroke="white" stroke-width="0.471556" class="yfiqeElu_78"></path>
<path d="M249.933 61.2348L241.162 85.3323" stroke="white" stroke-width="0.471556" class="yfiqeElu_79"></path>
<path d="M210.191 183.556L203.554 208.326" stroke="white" stroke-width="0.471556" class="yfiqeElu_80"></path>
<path d="M243.511 59.21L236.874 83.9802" stroke="white" stroke-width="0.471556" class="yfiqeElu_81"></path>
<path d="M214.581 184.529L210.128 209.783" stroke="white" stroke-width="0.471556" class="yfiqeElu_82"></path>
<path d="M236.935 57.7522L232.482 83.0066" stroke="white" stroke-width="0.471556" class="yfiqeElu_83"></path>
<path d="M219.04 185.116L216.805 210.663" stroke="white" stroke-width="0.471556" class="yfiqeElu_84"></path>
<path d="M230.26 56.8738L228.025 82.4202" stroke="white" stroke-width="0.471556" class="yfiqeElu_85"></path>
<path d="M366 232.141H302.862L284.835 209.032" stroke="white" stroke-width="4.71556" class="yfiqeElu_86"></path>
<path d="M212.726 110.511L197.222 110.511C195.803 110.511 194.652 111.661 194.652 113.08L194.652 119.147L193.066 119.135C191.283 119.121 189.83 120.563 189.83 122.347L189.83 124.513C189.83 126.244 191.201 127.663 192.93 127.723L194.652 127.783L194.652 136.416L204.74 136.416L204.74 140.519C204.74 142.293 206.178 143.731 207.952 143.731L208.909 143.731C210.682 143.731 212.12 142.293 212.12 140.519L212.12 136.416L221.397 136.416L221.461 127.783L217.233 127.699C214.895 127.652 213.024 125.744 213.024 123.405V123.405C213.024 121.033 214.947 119.11 217.319 119.11L221.461 119.11L221.461 113.021C221.461 111.6 220.307 110.448 218.885 110.452L212.726 110.467" stroke="white" stroke-width="0.943113" class="yfiqeElu_87"></path>
<path d="M202.18 138.651H194.669V162.366C194.669 163.522 195.606 164.461 196.762 164.464L203.488 164.479L203.964 164.48L203.959 164.955L203.942 166.533C203.926 168.055 205.154 169.298 206.676 169.302L209.043 169.308C210.518 169.311 211.731 168.146 211.788 166.672L211.853 164.954L211.871 164.499L212.326 164.5L220.688 164.52L220.713 154.917L220.714 154.446L221.185 154.447L225.459 154.457C226.972 154.461 228.202 153.237 228.206 151.724L228.208 150.778C228.212 149.264 226.988 148.034 225.474 148.031L221.201 148.021L220.73 148.02L220.731 147.548L220.753 138.751L214.731 138.678L214.669 141.147C214.596 144.019 212.244 146.308 209.372 146.302L207.453 146.299C204.53 146.294 202.166 143.918 202.174 140.995L202.18 138.651Z" stroke="white" stroke-width="0.943113" class="yfiqeElu_88"></path>
<path d="M223.146 156.631V164.344H246.861C248.017 164.344 248.956 163.408 248.959 162.252L248.974 156.128L248.975 155.653L249.45 155.657L251.028 155.674C252.55 155.69 253.793 154.462 253.797 152.94L253.802 150.573C253.806 149.098 252.641 147.885 251.167 147.828L249.448 147.763L248.994 147.745L248.995 147.29L249.015 138.928L239.412 138.904L238.941 138.902L238.942 138.431L238.952 134.157C238.956 132.644 237.732 131.414 236.219 131.41L235.273 131.408C233.759 131.404 232.529 132.628 232.525 134.142L232.515 138.415L232.514 138.886L232.043 138.885L223.246 138.863L223.172 145.939L225.64 146.002C228.516 146.074 230.802 148.46 230.795 151.33C230.789 154.248 228.418 156.646 225.491 156.637L223.146 156.631Z" stroke="white" stroke-width="0.943113" class="yfiqeElu_89"></path>
<path d="M242.2 133.065L248.895 136.895L260.672 116.31C261.246 115.306 260.899 114.027 259.897 113.45L254.589 110.396L254.177 110.159L254.417 109.749L255.215 108.388C255.984 107.074 255.536 105.386 254.217 104.627L252.165 103.447C250.886 102.711 249.255 103.12 248.474 104.371L247.564 105.83L247.323 106.216L246.928 105.989L239.679 101.819L234.89 110.142L234.655 110.551L234.246 110.316L230.542 108.185C229.23 107.43 227.555 107.882 226.8 109.194L226.329 110.013C225.574 111.325 226.025 113.001 227.337 113.755L231.041 115.886L231.45 116.121L231.215 116.53L226.828 124.154L232.933 127.733L234.212 125.621C235.704 123.161 238.909 122.362 241.397 123.792C243.928 125.247 244.831 128.496 243.371 131.032L242.2 133.065Z" stroke="#0088FF" stroke-width="0.943113" class="yfiqeElu_90"></path>
</g>
<defs>
<clipPath id="clip0">
<path width="360" height="265" fill="white" d="M0 0 L360 0 L360 265 L0 265 Z" class="yfiqeElu_91"></path>
</clipPath>
</defs>
<style data-made-with="vivus-instant">.yfiqeElu_0{stroke-dasharray:311 313;stroke-dashoffset:312;animation:yfiqeElu_draw 2000ms ease-in-out 0ms forwards;}.yfiqeElu_1{stroke-dasharray:191 193;stroke-dashoffset:192;animation:yfiqeElu_draw 2000ms ease-in-out 10ms forwards;}.yfiqeElu_2{stroke-dasharray:356 358;stroke-dashoffset:357;animation:yfiqeElu_draw 2000ms ease-in-out 21ms forwards;}.yfiqeElu_3{stroke-dasharray:135 137;stroke-dashoffset:136;animation:yfiqeElu_draw 2000ms ease-in-out 32ms forwards;}.yfiqeElu_4{stroke-dasharray:141 143;stroke-dashoffset:142;animation:yfiqeElu_draw 2000ms ease-in-out 43ms forwards;}.yfiqeElu_5{stroke-dasharray:106 108;stroke-dashoffset:107;animation:yfiqeElu_draw 2000ms ease-in-out 54ms forwards;}.yfiqeElu_6{stroke-dasharray:23 25;stroke-dashoffset:24;animation:yfiqeElu_draw 2000ms ease-in-out 65ms forwards;}.yfiqeElu_7{stroke-dasharray:85 87;stroke-dashoffset:86;animation:yfiqeElu_draw 2000ms ease-in-out 76ms forwards;}.yfiqeElu_8{stroke-dasharray:74 76;stroke-dashoffset:75;animation:yfiqeElu_draw 2000ms ease-in-out 87ms forwards;}.yfiqeElu_9{stroke-dasharray:53 55;stroke-dashoffset:54;animation:yfiqeElu_draw 2000ms ease-in-out 98ms forwards;}.yfiqeElu_10{stroke-dasharray:32 34;stroke-dashoffset:33;animation:yfiqeElu_draw 2000ms ease-in-out 109ms forwards;}.yfiqeElu_11{stroke-dasharray:23 25;stroke-dashoffset:24;animation:yfiqeElu_draw 2000ms ease-in-out 120ms forwards;}.yfiqeElu_12{stroke-dasharray:26 28;stroke-dashoffset:27;animation:yfiqeElu_draw 2000ms ease-in-out 131ms forwards;}.yfiqeElu_13{stroke-dasharray:26 28;stroke-dashoffset:27;animation:yfiqeElu_draw 2000ms ease-in-out 142ms forwards;}.yfiqeElu_14{stroke-dasharray:26 28;stroke-dashoffset:27;animation:yfiqeElu_draw 2000ms ease-in-out 153ms forwards;}.yfiqeElu_15{stroke-dasharray:26 28;stroke-dashoffset:27;animation:yfiqeElu_draw 2000ms ease-in-out 164ms forwards;}.yfiqeElu_16{stroke-dasharray:26 28;stroke-dashoffset:27;animation:yfiqeElu_draw 2000ms ease-in-out 175ms forwards;}.yfiqeElu_17{stroke-dasharray:26 28;stroke-dashoffset:27;animation:yfiqeElu_draw 2000ms ease-in-out 186ms forwards;}.yfiqeElu_18{stroke-dasharray:26 28;stroke-dashoffset:27;animation:yfiqeElu_draw 2000ms ease-in-out 197ms forwards;}.yfiqeElu_19{stroke-dasharray:26 28;stroke-dashoffset:27;animation:yfiqeElu_draw 2000ms ease-in-out 208ms forwards;}.yfiqeElu_20{stroke-dasharray:26 28;stroke-dashoffset:27;animation:yfiqeElu_draw 2000ms ease-in-out 219ms forwards;}.yfiqeElu_21{stroke-dasharray:26 28;stroke-dashoffset:27;animation:yfiqeElu_draw 2000ms ease-in-out 230ms forwards;}.yfiqeElu_22{stroke-dasharray:26 28;stroke-dashoffset:27;animation:yfiqeElu_draw 2000ms ease-in-out 241ms forwards;}.yfiqeElu_23{stroke-dasharray:26 28;stroke-dashoffset:27;animation:yfiqeElu_draw 2000ms ease-in-out 252ms forwards;}.yfiqeElu_24{stroke-dasharray:26 28;stroke-dashoffset:27;animation:yfiqeElu_draw 2000ms ease-in-out 263ms forwards;}.yfiqeElu_25{stroke-dasharray:26 28;stroke-dashoffset:27;animation:yfiqeElu_draw 2000ms ease-in-out 274ms forwards;}.yfiqeElu_26{stroke-dasharray:26 28;stroke-dashoffset:27;animation:yfiqeElu_draw 2000ms ease-in-out 285ms forwards;}.yfiqeElu_27{stroke-dasharray:26 28;stroke-dashoffset:27;animation:yfiqeElu_draw 2000ms ease-in-out 296ms forwards;}.yfiqeElu_28{stroke-dasharray:26 28;stroke-dashoffset:27;animation:yfiqeElu_draw 2000ms ease-in-out 307ms forwards;}.yfiqeElu_29{stroke-dasharray:26 28;stroke-dashoffset:27;animation:yfiqeElu_draw 2000ms ease-in-out 318ms forwards;}.yfiqeElu_30{stroke-dasharray:26 28;stroke-dashoffset:27;animation:yfiqeElu_draw 2000ms ease-in-out 329ms forwards;}.yfiqeElu_31{stroke-dasharray:26 28;stroke-dashoffset:27;animation:yfiqeElu_draw 2000ms ease-in-out 340ms forwards;}.yfiqeElu_32{stroke-dasharray:26 28;stroke-dashoffset:27;animation:yfiqeElu_draw 2000ms ease-in-out 351ms forwards;}.yfiqeElu_33{stroke-dasharray:26 28;stroke-dashoffset:27;animation:yfiqeElu_draw 2000ms ease-in-out 362ms forwards;}.yfiqeElu_34{stroke-dasharray:26 28;stroke-dashoffset:27;animation:yfiqeElu_draw 2000ms ease-in-out 373ms forwards;}.yfiqeElu_35{stroke-dasharray:26 28;stroke-dashoffset:27;animation:yfiqeElu_draw 2000ms ease-in-out 384ms forwards;}.yfiqeElu_36{stroke-dasharray:26 28;stroke-dashoffset:27;animation:yfiqeElu_draw 2000ms ease-in-out 395ms forwards;}.yfiqeElu_37{stroke-dasharray:26 28;stroke-dashoffset:27;animation:yfiqeElu_draw 2000ms ease-in-out 406ms forwards;}.yfiqeElu_38{stroke-dasharray:26 28;stroke-dashoffset:27;animation:yfiqeElu_draw 2000ms ease-in-out 417ms forwards;}.yfiqeElu_39{stroke-dasharray:26 28;stroke-dashoffset:27;animation:yfiqeElu_draw 2000ms ease-in-out 428ms forwards;}.yfiqeElu_40{stroke-dasharray:26 28;stroke-dashoffset:27;animation:yfiqeElu_draw 2000ms ease-in-out 439ms forwards;}.yfiqeElu_41{stroke-dasharray:26 28;stroke-dashoffset:27;animation:yfiqeElu_draw 2000ms ease-in-out 450ms forwards;}.yfiqeElu_42{stroke-dasharray:26 28;stroke-dashoffset:27;animation:yfiqeElu_draw 2000ms ease-in-out 461ms forwards;}.yfiqeElu_43{stroke-dasharray:26 28;stroke-dashoffset:27;animation:yfiqeElu_draw 2000ms ease-in-out 472ms forwards;}.yfiqeElu_44{stroke-dasharray:26 28;stroke-dashoffset:27;animation:yfiqeElu_draw 2000ms ease-in-out 483ms forwards;}.yfiqeElu_45{stroke-dasharray:26 28;stroke-dashoffset:27;animation:yfiqeElu_draw 2000ms ease-in-out 494ms forwards;}.yfiqeElu_46{stroke-dasharray:26 28;stroke-dashoffset:27;animation:yfiqeElu_draw 2000ms ease-in-out 505ms forwards;}.yfiqeElu_47{stroke-dasharray:26 28;stroke-dashoffset:27;animation:yfiqeElu_draw 2000ms ease-in-out 516ms forwards;}.yfiqeElu_48{stroke-dasharray:26 28;stroke-dashoffset:27;animation:yfiqeElu_draw 2000ms ease-in-out 527ms forwards;}.yfiqeElu_49{stroke-dasharray:26 28;stroke-dashoffset:27;animation:yfiqeElu_draw 2000ms ease-in-out 538ms forwards;}.yfiqeElu_50{stroke-dasharray:26 28;stroke-dashoffset:27;animation:yfiqeElu_draw 2000ms ease-in-out 549ms forwards;}.yfiqeElu_51{stroke-dasharray:26 28;stroke-dashoffset:27;animation:yfiqeElu_draw 2000ms ease-in-out 560ms forwards;}.yfiqeElu_52{stroke-dasharray:26 28;stroke-dashoffset:27;animation:yfiqeElu_draw 2000ms ease-in-out 571ms forwards;}.yfiqeElu_53{stroke-dasharray:26 28;stroke-dashoffset:27;animation:yfiqeElu_draw 2000ms ease-in-out 582ms forwards;}.yfiqeElu_54{stroke-dasharray:26 28;stroke-dashoffset:27;animation:yfiqeElu_draw 2000ms ease-in-out 593ms forwards;}.yfiqeElu_55{stroke-dasharray:26 28;stroke-dashoffset:27;animation:yfiqeElu_draw 2000ms ease-in-out 604ms forwards;}.yfiqeElu_56{stroke-dasharray:26 28;stroke-dashoffset:27;animation:yfiqeElu_draw 2000ms ease-in-out 615ms forwards;}.yfiqeElu_57{stroke-dasharray:26 28;stroke-dashoffset:27;animation:yfiqeElu_draw 2000ms ease-in-out 626ms forwards;}.yfiqeElu_58{stroke-dasharray:26 28;stroke-dashoffset:27;animation:yfiqeElu_draw 2000ms ease-in-out 637ms forwards;}.yfiqeElu_59{stroke-dasharray:26 28;stroke-dashoffset:27;animation:yfiqeElu_draw 2000ms ease-in-out 648ms forwards;}.yfiqeElu_60{stroke-dasharray:26 28;stroke-dashoffset:27;animation:yfiqeElu_draw 2000ms ease-in-out 659ms forwards;}.yfiqeElu_61{stroke-dasharray:26 28;stroke-dashoffset:27;animation:yfiqeElu_draw 2000ms ease-in-out 670ms forwards;}.yfiqeElu_62{stroke-dasharray:26 28;stroke-dashoffset:27;animation:yfiqeElu_draw 2000ms ease-in-out 681ms forwards;}.yfiqeElu_63{stroke-dasharray:26 28;stroke-dashoffset:27;animation:yfiqeElu_draw 2000ms ease-in-out 692ms forwards;}.yfiqeElu_64{stroke-dasharray:26 28;stroke-dashoffset:27;animation:yfiqeElu_draw 2000ms ease-in-out 703ms forwards;}.yfiqeElu_65{stroke-dasharray:26 28;stroke-dashoffset:27;animation:yfiqeElu_draw 2000ms ease-in-out 714ms forwards;}.yfiqeElu_66{stroke-dasharray:26 28;stroke-dashoffset:27;animation:yfiqeElu_draw 2000ms ease-in-out 725ms forwards;}.yfiqeElu_67{stroke-dasharray:26 28;stroke-dashoffset:27;animation:yfiqeElu_draw 2000ms ease-in-out 736ms forwards;}.yfiqeElu_68{stroke-dasharray:26 28;stroke-dashoffset:27;animation:yfiqeElu_draw 2000ms ease-in-out 747ms forwards;}.yfiqeElu_69{stroke-dasharray:26 28;stroke-dashoffset:27;animation:yfiqeElu_draw 2000ms ease-in-out 758ms forwards;}.yfiqeElu_70{stroke-dasharray:26 28;stroke-dashoffset:27;animation:yfiqeElu_draw 2000ms ease-in-out 769ms forwards;}.yfiqeElu_71{stroke-dasharray:26 28;stroke-dashoffset:27;animation:yfiqeElu_draw 2000ms ease-in-out 780ms forwards;}.yfiqeElu_72{stroke-dasharray:26 28;stroke-dashoffset:27;animation:yfiqeElu_draw 2000ms ease-in-out 791ms forwards;}.yfiqeElu_73{stroke-dasharray:26 28;stroke-dashoffset:27;animation:yfiqeElu_draw 2000ms ease-in-out 802ms forwards;}.yfiqeElu_74{stroke-dasharray:26 28;stroke-dashoffset:27;animation:yfiqeElu_draw 2000ms ease-in-out 813ms forwards;}.yfiqeElu_75{stroke-dasharray:26 28;stroke-dashoffset:27;animation:yfiqeElu_draw 2000ms ease-in-out 824ms forwards;}.yfiqeElu_76{stroke-dasharray:26 28;stroke-dashoffset:27;animation:yfiqeElu_draw 2000ms ease-in-out 835ms forwards;}.yfiqeElu_77{stroke-dasharray:26 28;stroke-dashoffset:27;animation:yfiqeElu_draw 2000ms ease-in-out 846ms forwards;}.yfiqeElu_78{stroke-dasharray:26 28;stroke-dashoffset:27;animation:yfiqeElu_draw 2000ms ease-in-out 857ms forwards;}.yfiqeElu_79{stroke-dasharray:26 28;stroke-dashoffset:27;animation:yfiqeElu_draw 2000ms ease-in-out 868ms forwards;}.yfiqeElu_80{stroke-dasharray:26 28;stroke-dashoffset:27;animation:yfiqeElu_draw 2000ms ease-in-out 879ms forwards;}.yfiqeElu_81{stroke-dasharray:26 28;stroke-dashoffset:27;animation:yfiqeElu_draw 2000ms ease-in-out 890ms forwards;}.yfiqeElu_82{stroke-dasharray:26 28;stroke-dashoffset:27;animation:yfiqeElu_draw 2000ms ease-in-out 901ms forwards;}.yfiqeElu_83{stroke-dasharray:26 28;stroke-dashoffset:27;animation:yfiqeElu_draw 2000ms ease-in-out 912ms forwards;}.yfiqeElu_84{stroke-dasharray:26 28;stroke-dashoffset:27;animation:yfiqeElu_draw 2000ms ease-in-out 923ms forwards;}.yfiqeElu_85{stroke-dasharray:26 28;stroke-dashoffset:27;animation:yfiqeElu_draw 2000ms ease-in-out 934ms forwards;}.yfiqeElu_86{stroke-dasharray:93 95;stroke-dashoffset:94;animation:yfiqeElu_draw 2000ms ease-in-out 945ms forwards;}.yfiqeElu_87{stroke-dasharray:136 138;stroke-dashoffset:137;animation:yfiqeElu_draw 2000ms ease-in-out 956ms forwards;}.yfiqeElu_88{stroke-dasharray:134 136;stroke-dashoffset:135;animation:yfiqeElu_draw 2000ms ease-in-out 967ms forwards;}.yfiqeElu_89{stroke-dasharray:133 135;stroke-dashoffset:134;animation:yfiqeElu_draw 2000ms ease-in-out 978ms forwards;}.yfiqeElu_90{stroke-dasharray:133 135;stroke-dashoffset:134;animation:yfiqeElu_draw 2000ms ease-in-out 989ms forwards;}.yfiqeElu_91{stroke-dasharray:1250 1252;stroke-dashoffset:1251;animation:yfiqeElu_draw 2000ms ease-in-out 1000ms forwards;}@keyframes yfiqeElu_draw{100%{stroke-dashoffset:0;}}@keyframes yfiqeElu_fade{0%{stroke-opacity:1;}94.44444444444444%{stroke-opacity:1;}100%{stroke-opacity:0;}}</style></svg>
