<svg width="360" height="265" viewBox="0 0 360 265" fill="none" xmlns="http://www.w3.org/2000/svg" style="">
<path d="M330.93 129.473C330.93 184.851 287.394 229.744 233.689 229.744C179.984 229.744 136.448 184.851 136.448 129.473" stroke="white" stroke-width="4.71556" class="QQhyaFbj_0"></path>
<path d="M200.549 79.3138C228.27 61.071 265.862 69.2567 284.512 97.5971C303.162 125.938 295.808 163.701 268.087 181.944" stroke="white" stroke-width="4.71556" class="QQhyaFbj_1"></path>
<path d="M234.229 18.9391C296.617 18.9391 347.192 69.786 347.192 132.509C347.192 195.232 296.617 246.079 234.229 246.079" stroke="#0088FF" stroke-width="3.64395" class="QQhyaFbj_2"></path>
<path d="M243.947 205.388C195.057 215.409 154.974 173.504 158.921 126.132" stroke="#0088FF" stroke-width="8.48801" stroke-linejoin="round" class="QQhyaFbj_3"></path>
<path d="M238.784 47.4836C290.567 52.2277 322.48 92.2658 317.736 144.048" stroke="white" stroke-width="8.48801" stroke-linejoin="round" class="QQhyaFbj_4"></path>
<path d="M252.144 35.6408C290.095 41.6319 315.719 62.6475 326.785 100.814" stroke="white" stroke-width="4.71556" stroke-linejoin="round" class="QQhyaFbj_5"></path>
<path d="M119.59 216.788C119.59 216.788 109.255 207.259 105.688 198.708" stroke="#0088FF" stroke-width="0.943113" class="QQhyaFbj_6"></path>
<path d="M169.246 178.97L110.864 223.393L117.623 232.111" stroke="#0088FF" stroke-width="0.943113" class="QQhyaFbj_7"></path>
<path d="M117.113 249.945C121.646 254.537 129.043 254.585 133.635 250.052C138.227 245.519 138.275 238.122 133.742 233.53C129.209 228.938 121.812 228.89 117.22 233.423C112.628 237.956 112.58 245.353 117.113 249.945Z" stroke="#0088FF" stroke-width="1.41467" class="QQhyaFbj_8"></path>
<path d="M119.464 247.625C122.715 250.918 128.021 250.952 131.314 247.701C134.607 244.45 134.642 239.145 131.391 235.852C128.14 232.558 122.834 232.524 119.541 235.775C116.248 239.026 116.213 244.331 119.464 247.625Z" stroke="#0088FF" stroke-width="1.41467" class="QQhyaFbj_9"></path>
<path d="M121.817 245.304C123.786 247.299 126.999 247.319 128.994 245.35C130.988 243.381 131.009 240.168 129.04 238.174C127.071 236.179 123.858 236.158 121.863 238.127C119.869 240.096 119.848 243.309 121.817 245.304Z" stroke="#0088FF" stroke-width="1.41467" class="QQhyaFbj_10"></path>
<path d="M101.426 198.009C102.845 199.447 105.162 199.462 106.6 198.042C108.038 196.623 108.053 194.306 106.633 192.868C105.214 191.43 102.897 191.415 101.459 192.835C100.021 194.254 100.006 196.571 101.426 198.009Z" stroke="#0088FF" stroke-width="0.943113" class="QQhyaFbj_11"></path>
<path d="M231.533 82.2241V56.5801" stroke="white" stroke-width="0.471556" class="QQhyaFbj_12"></path>
<path d="M231.533 210.956V185.312" stroke="white" stroke-width="0.471556" class="QQhyaFbj_13"></path>
<path d="M227.042 82.4199L224.807 56.8735" stroke="white" stroke-width="0.471556" class="QQhyaFbj_14"></path>
<path d="M238.26 210.663L236.025 185.117" stroke="white" stroke-width="0.471556" class="QQhyaFbj_15"></path>
<path d="M222.582 83.0066L218.129 57.7522" stroke="white" stroke-width="0.471556" class="QQhyaFbj_16"></path>
<path d="M244.934 209.784L240.481 184.529" stroke="white" stroke-width="0.471556" class="QQhyaFbj_17"></path>
<path d="M218.193 83.9804L211.556 59.2102" stroke="white" stroke-width="0.471556" class="QQhyaFbj_18"></path>
<path d="M251.511 208.327L244.874 183.557" stroke="white" stroke-width="0.471556" class="QQhyaFbj_19"></path>
<path d="M213.904 85.3321L205.133 61.2346" stroke="white" stroke-width="0.471556" class="QQhyaFbj_20"></path>
<path d="M257.933 206.301L249.162 182.204" stroke="white" stroke-width="0.471556" class="QQhyaFbj_21"></path>
<path d="M209.751 87.0531L198.913 63.8118" stroke="white" stroke-width="0.471556" class="QQhyaFbj_22"></path>
<path d="M264.154 203.724L253.316 180.483" stroke="white" stroke-width="0.471556" class="QQhyaFbj_23"></path>
<path d="M205.76 89.1295L192.938 66.9211" stroke="white" stroke-width="0.471556" class="QQhyaFbj_24"></path>
<path d="M270.127 200.615L257.305 178.407" stroke="white" stroke-width="0.471556" class="QQhyaFbj_25"></path>
<path d="M201.968 91.5454L187.259 70.5391" stroke="white" stroke-width="0.471556" class="QQhyaFbj_26"></path>
<path d="M275.805 196.997L261.097 175.991" stroke="white" stroke-width="0.471556" class="QQhyaFbj_27"></path>
<path d="M198.401 94.2831L181.917 74.6387" stroke="white" stroke-width="0.471556" class="QQhyaFbj_28"></path>
<path d="M281.149 192.898L264.665 173.253" stroke="white" stroke-width="0.471556" class="QQhyaFbj_29"></path>
<path d="M195.084 97.321L176.951 79.188" stroke="white" stroke-width="0.471556" class="QQhyaFbj_30"></path>
<path d="M286.113 188.349L267.98 170.216" stroke="white" stroke-width="0.471556" class="QQhyaFbj_31"></path>
<path d="M192.048 100.636L172.403 84.1523" stroke="white" stroke-width="0.471556" class="QQhyaFbj_32"></path>
<path d="M290.661 183.385L271.017 166.901" stroke="white" stroke-width="0.471556" class="QQhyaFbj_33"></path>
<path d="M192.048 100.636L172.403 84.1523" stroke="white" stroke-width="0.471556" class="QQhyaFbj_34"></path>
<path d="M290.661 183.385L271.017 166.901" stroke="white" stroke-width="0.471556" class="QQhyaFbj_35"></path>
<path d="M189.309 104.203L168.303 89.4944" stroke="white" stroke-width="0.471556" class="QQhyaFbj_36"></path>
<path d="M294.76 178.042L273.754 163.333" stroke="white" stroke-width="0.471556" class="QQhyaFbj_37"></path>
<path d="M186.895 107.995L164.687 95.1726" stroke="white" stroke-width="0.471556" class="QQhyaFbj_38"></path>
<path d="M298.379 172.362L276.171 159.54" stroke="white" stroke-width="0.471556" class="QQhyaFbj_39"></path>
<path d="M184.818 111.985L161.577 101.147" stroke="white" stroke-width="0.471556" class="QQhyaFbj_40"></path>
<path d="M301.49 166.389L278.249 155.552" stroke="white" stroke-width="0.471556" class="QQhyaFbj_41"></path>
<path d="M183.096 116.138L158.999 107.367" stroke="white" stroke-width="0.471556" class="QQhyaFbj_42"></path>
<path d="M304.067 160.168L279.97 151.398" stroke="white" stroke-width="0.471556" class="QQhyaFbj_43"></path>
<path d="M181.746 120.426L156.976 113.789" stroke="white" stroke-width="0.471556" class="QQhyaFbj_44"></path>
<path d="M306.09 153.746L281.32 147.109" stroke="white" stroke-width="0.471556" class="QQhyaFbj_45"></path>
<path d="M180.77 124.816L155.516 120.363" stroke="white" stroke-width="0.471556" class="QQhyaFbj_46"></path>
<path d="M307.546 147.172L282.292 142.719" stroke="white" stroke-width="0.471556" class="QQhyaFbj_47"></path>
<path d="M180.184 129.276L154.638 127.041" stroke="white" stroke-width="0.471556" class="QQhyaFbj_48"></path>
<path d="M308.427 140.496L282.881 138.26" stroke="white" stroke-width="0.471556" class="QQhyaFbj_49"></path>
<path d="M179.988 133.768L154.344 133.768" stroke="white" stroke-width="0.471556" class="QQhyaFbj_50"></path>
<path d="M308.72 133.768L283.076 133.768" stroke="white" stroke-width="0.471556" class="QQhyaFbj_51"></path>
<path d="M180.184 138.259L154.638 140.494" stroke="white" stroke-width="0.471556" class="QQhyaFbj_52"></path>
<path d="M308.425 127.041L282.879 129.276" stroke="white" stroke-width="0.471556" class="QQhyaFbj_53"></path>
<path d="M180.77 142.718L155.516 147.171" stroke="white" stroke-width="0.471556" class="QQhyaFbj_54"></path>
<path d="M307.546 120.365L282.292 124.818" stroke="white" stroke-width="0.471556" class="QQhyaFbj_55"></path>
<path d="M181.745 147.107L156.975 153.745" stroke="white" stroke-width="0.471556" class="QQhyaFbj_56"></path>
<path d="M306.09 113.791L281.32 120.428" stroke="white" stroke-width="0.471556" class="QQhyaFbj_57"></path>
<path d="M183.096 151.397L158.999 160.168" stroke="white" stroke-width="0.471556" class="QQhyaFbj_58"></path>
<path d="M304.066 107.368L279.969 116.139" stroke="white" stroke-width="0.471556" class="QQhyaFbj_59"></path>
<path d="M184.818 155.552L161.577 166.389" stroke="white" stroke-width="0.471556" class="QQhyaFbj_60"></path>
<path d="M301.49 101.147L278.249 111.984" stroke="white" stroke-width="0.471556" class="QQhyaFbj_61"></path>
<path d="M186.894 159.54L164.686 172.362" stroke="white" stroke-width="0.471556" class="QQhyaFbj_62"></path>
<path d="M298.38 95.1739L276.172 107.996" stroke="white" stroke-width="0.471556" class="QQhyaFbj_63"></path>
<path d="M189.309 163.333L168.303 178.042" stroke="white" stroke-width="0.471556" class="QQhyaFbj_64"></path>
<path d="M294.761 89.4951L273.755 104.204" stroke="white" stroke-width="0.471556" class="QQhyaFbj_65"></path>
<path d="M192.047 166.9L172.402 183.384" stroke="white" stroke-width="0.471556" class="QQhyaFbj_66"></path>
<path d="M290.661 84.1526L271.017 100.636" stroke="white" stroke-width="0.471556" class="QQhyaFbj_67"></path>
<path d="M195.084 170.215L176.951 188.348" stroke="white" stroke-width="0.471556" class="QQhyaFbj_68"></path>
<path d="M286.113 79.188L267.979 97.321" stroke="white" stroke-width="0.471556" class="QQhyaFbj_69"></path>
<path d="M198.401 173.254L181.917 192.898" stroke="white" stroke-width="0.471556" class="QQhyaFbj_70"></path>
<path d="M281.147 74.6388L264.663 94.2832" stroke="white" stroke-width="0.471556" class="QQhyaFbj_71"></path>
<path d="M201.968 175.991L187.259 196.997" stroke="white" stroke-width="0.471556" class="QQhyaFbj_72"></path>
<path d="M275.806 70.5391L261.098 91.5454" stroke="white" stroke-width="0.471556" class="QQhyaFbj_73"></path>
<path d="M205.759 178.406L192.937 200.615" stroke="white" stroke-width="0.471556" class="QQhyaFbj_74"></path>
<path d="M270.126 66.9208L257.304 89.1292" stroke="white" stroke-width="0.471556" class="QQhyaFbj_75"></path>
<path d="M209.75 180.484L198.912 203.725" stroke="white" stroke-width="0.471556" class="QQhyaFbj_76"></path>
<path d="M264.154 63.8119L253.316 87.0532" stroke="white" stroke-width="0.471556" class="QQhyaFbj_77"></path>
<path d="M213.901 182.203L205.13 206.301" stroke="white" stroke-width="0.471556" class="QQhyaFbj_78"></path>
<path d="M257.933 61.2348L249.162 85.3323" stroke="white" stroke-width="0.471556" class="QQhyaFbj_79"></path>
<path d="M218.191 183.556L211.554 208.326" stroke="white" stroke-width="0.471556" class="QQhyaFbj_80"></path>
<path d="M251.511 59.21L244.874 83.9802" stroke="white" stroke-width="0.471556" class="QQhyaFbj_81"></path>
<path d="M222.582 184.529L218.129 209.783" stroke="white" stroke-width="0.471556" class="QQhyaFbj_82"></path>
<path d="M244.936 57.7522L240.483 83.0066" stroke="white" stroke-width="0.471556" class="QQhyaFbj_83"></path>
<path d="M227.041 185.116L224.806 210.663" stroke="white" stroke-width="0.471556" class="QQhyaFbj_84"></path>
<path d="M238.26 56.8738L236.025 82.4202" stroke="white" stroke-width="0.471556" class="QQhyaFbj_85"></path>
<path d="M292.835 209.032L310.862 232.141H336.671V264.906" stroke="white" stroke-width="4.71556" class="QQhyaFbj_86"></path>
<path d="M220.726 110.511L205.222 110.511C203.803 110.511 202.652 111.661 202.652 113.08L202.652 119.147L201.066 119.135C199.283 119.121 197.83 120.563 197.83 122.347L197.83 124.513C197.83 126.244 199.201 127.663 200.93 127.723L202.652 127.783L202.652 136.416L212.74 136.416L212.74 140.519C212.74 142.293 214.178 143.731 215.952 143.731L216.909 143.731C218.682 143.731 220.12 142.293 220.12 140.519L220.12 136.416L229.397 136.416L229.461 127.783L225.233 127.699C222.895 127.652 221.024 125.744 221.024 123.405V123.405C221.024 121.033 222.947 119.11 225.319 119.11L229.461 119.11L229.461 113.021C229.461 111.6 228.307 110.448 226.885 110.452L220.726 110.467" stroke="white" stroke-width="0.943113" class="QQhyaFbj_87"></path>
<path d="M210.173 140.995L210.18 138.651H202.669V162.366C202.669 163.522 203.605 164.461 204.762 164.464L211.488 164.479L211.963 164.48L211.958 164.955L211.942 166.533C211.926 168.055 213.153 169.298 214.675 169.302L217.042 169.308C218.518 169.311 219.731 168.146 219.787 166.672L219.853 164.954L219.87 164.499L220.325 164.5L228.688 164.52L228.712 154.917L228.713 154.446L229.185 154.447L233.458 154.457C234.972 154.461 236.201 153.237 236.205 151.724L236.208 150.778C236.211 149.264 234.987 148.034 233.474 148.031L229.201 148.021L228.729 148.02L228.73 147.548L228.753 138.751L222.731 138.678L222.668 141.147C222.596 144.019 220.244 146.308 217.371 146.302L215.453 146.299C212.53 146.294 210.165 143.918 210.173 140.995Z" stroke="white" stroke-width="0.943113" class="QQhyaFbj_88"></path>
<path d="M233.491 156.637L231.146 156.631V164.344H254.861C256.017 164.344 256.956 163.408 256.959 162.252L256.974 156.128L256.975 155.653L257.45 155.657L259.028 155.674C260.55 155.69 261.793 154.462 261.797 152.94L261.802 150.573C261.806 149.098 260.641 147.885 259.167 147.828L257.448 147.763L256.994 147.745L256.995 147.29L257.015 138.928L247.412 138.904L246.941 138.902L246.942 138.431L246.952 134.157C246.956 132.644 245.732 131.414 244.219 131.41L243.273 131.408C241.759 131.404 240.529 132.628 240.525 134.142L240.515 138.415L240.514 138.886L240.043 138.885L231.246 138.863L231.172 145.939L233.64 146.002C236.516 146.074 238.802 148.46 238.795 151.33C238.789 154.248 236.418 156.646 233.491 156.637Z" stroke="white" stroke-width="0.943113" class="QQhyaFbj_89"></path>
<path d="M251.371 131.032L250.2 133.065L256.895 136.895L268.672 116.31C269.246 115.306 268.899 114.027 267.897 113.45L262.589 110.396L262.177 110.159L262.417 109.749L263.215 108.388C263.984 107.074 263.536 105.386 262.217 104.627L260.165 103.447C258.886 102.711 257.255 103.12 256.474 104.371L255.564 105.83L255.323 106.216L254.928 105.989L247.679 101.819L242.89 110.142L242.655 110.551L242.246 110.316L238.542 108.185C237.23 107.43 235.555 107.882 234.8 109.194L234.329 110.013C233.574 111.325 234.025 113.001 235.337 113.755L239.041 115.886L239.45 116.121L239.215 116.53L234.828 124.154L240.933 127.733L242.212 125.621C243.704 123.161 246.909 122.362 249.397 123.792C251.928 125.247 252.831 128.496 251.371 131.032Z" stroke="#0088FF" stroke-width="0.943113" class="QQhyaFbj_90"></path>
<style data-made-with="vivus-instant">.QQhyaFbj_0{stroke-dasharray:311 313;stroke-dashoffset:312;animation:QQhyaFbj_draw 2000ms ease-in-out 0ms forwards;}.QQhyaFbj_1{stroke-dasharray:191 193;stroke-dashoffset:192;animation:QQhyaFbj_draw 2000ms ease-in-out 11ms forwards;}.QQhyaFbj_2{stroke-dasharray:356 358;stroke-dashoffset:357;animation:QQhyaFbj_draw 2000ms ease-in-out 22ms forwards;}.QQhyaFbj_3{stroke-dasharray:135 137;stroke-dashoffset:136;animation:QQhyaFbj_draw 2000ms ease-in-out 33ms forwards;}.QQhyaFbj_4{stroke-dasharray:141 143;stroke-dashoffset:142;animation:QQhyaFbj_draw 2000ms ease-in-out 44ms forwards;}.QQhyaFbj_5{stroke-dasharray:106 108;stroke-dashoffset:107;animation:QQhyaFbj_draw 2000ms ease-in-out 55ms forwards;}.QQhyaFbj_6{stroke-dasharray:23 25;stroke-dashoffset:24;animation:QQhyaFbj_draw 2000ms ease-in-out 66ms forwards;}.QQhyaFbj_7{stroke-dasharray:85 87;stroke-dashoffset:86;animation:QQhyaFbj_draw 2000ms ease-in-out 77ms forwards;}.QQhyaFbj_8{stroke-dasharray:74 76;stroke-dashoffset:75;animation:QQhyaFbj_draw 2000ms ease-in-out 88ms forwards;}.QQhyaFbj_9{stroke-dasharray:53 55;stroke-dashoffset:54;animation:QQhyaFbj_draw 2000ms ease-in-out 100ms forwards;}.QQhyaFbj_10{stroke-dasharray:32 34;stroke-dashoffset:33;animation:QQhyaFbj_draw 2000ms ease-in-out 111ms forwards;}.QQhyaFbj_11{stroke-dasharray:23 25;stroke-dashoffset:24;animation:QQhyaFbj_draw 2000ms ease-in-out 122ms forwards;}.QQhyaFbj_12{stroke-dasharray:26 28;stroke-dashoffset:27;animation:QQhyaFbj_draw 2000ms ease-in-out 133ms forwards;}.QQhyaFbj_13{stroke-dasharray:26 28;stroke-dashoffset:27;animation:QQhyaFbj_draw 2000ms ease-in-out 144ms forwards;}.QQhyaFbj_14{stroke-dasharray:26 28;stroke-dashoffset:27;animation:QQhyaFbj_draw 2000ms ease-in-out 155ms forwards;}.QQhyaFbj_15{stroke-dasharray:26 28;stroke-dashoffset:27;animation:QQhyaFbj_draw 2000ms ease-in-out 166ms forwards;}.QQhyaFbj_16{stroke-dasharray:26 28;stroke-dashoffset:27;animation:QQhyaFbj_draw 2000ms ease-in-out 177ms forwards;}.QQhyaFbj_17{stroke-dasharray:26 28;stroke-dashoffset:27;animation:QQhyaFbj_draw 2000ms ease-in-out 188ms forwards;}.QQhyaFbj_18{stroke-dasharray:26 28;stroke-dashoffset:27;animation:QQhyaFbj_draw 2000ms ease-in-out 200ms forwards;}.QQhyaFbj_19{stroke-dasharray:26 28;stroke-dashoffset:27;animation:QQhyaFbj_draw 2000ms ease-in-out 211ms forwards;}.QQhyaFbj_20{stroke-dasharray:26 28;stroke-dashoffset:27;animation:QQhyaFbj_draw 2000ms ease-in-out 222ms forwards;}.QQhyaFbj_21{stroke-dasharray:26 28;stroke-dashoffset:27;animation:QQhyaFbj_draw 2000ms ease-in-out 233ms forwards;}.QQhyaFbj_22{stroke-dasharray:26 28;stroke-dashoffset:27;animation:QQhyaFbj_draw 2000ms ease-in-out 244ms forwards;}.QQhyaFbj_23{stroke-dasharray:26 28;stroke-dashoffset:27;animation:QQhyaFbj_draw 2000ms ease-in-out 255ms forwards;}.QQhyaFbj_24{stroke-dasharray:26 28;stroke-dashoffset:27;animation:QQhyaFbj_draw 2000ms ease-in-out 266ms forwards;}.QQhyaFbj_25{stroke-dasharray:26 28;stroke-dashoffset:27;animation:QQhyaFbj_draw 2000ms ease-in-out 277ms forwards;}.QQhyaFbj_26{stroke-dasharray:26 28;stroke-dashoffset:27;animation:QQhyaFbj_draw 2000ms ease-in-out 288ms forwards;}.QQhyaFbj_27{stroke-dasharray:26 28;stroke-dashoffset:27;animation:QQhyaFbj_draw 2000ms ease-in-out 300ms forwards;}.QQhyaFbj_28{stroke-dasharray:26 28;stroke-dashoffset:27;animation:QQhyaFbj_draw 2000ms ease-in-out 311ms forwards;}.QQhyaFbj_29{stroke-dasharray:26 28;stroke-dashoffset:27;animation:QQhyaFbj_draw 2000ms ease-in-out 322ms forwards;}.QQhyaFbj_30{stroke-dasharray:26 28;stroke-dashoffset:27;animation:QQhyaFbj_draw 2000ms ease-in-out 333ms forwards;}.QQhyaFbj_31{stroke-dasharray:26 28;stroke-dashoffset:27;animation:QQhyaFbj_draw 2000ms ease-in-out 344ms forwards;}.QQhyaFbj_32{stroke-dasharray:26 28;stroke-dashoffset:27;animation:QQhyaFbj_draw 2000ms ease-in-out 355ms forwards;}.QQhyaFbj_33{stroke-dasharray:26 28;stroke-dashoffset:27;animation:QQhyaFbj_draw 2000ms ease-in-out 366ms forwards;}.QQhyaFbj_34{stroke-dasharray:26 28;stroke-dashoffset:27;animation:QQhyaFbj_draw 2000ms ease-in-out 377ms forwards;}.QQhyaFbj_35{stroke-dasharray:26 28;stroke-dashoffset:27;animation:QQhyaFbj_draw 2000ms ease-in-out 388ms forwards;}.QQhyaFbj_36{stroke-dasharray:26 28;stroke-dashoffset:27;animation:QQhyaFbj_draw 2000ms ease-in-out 400ms forwards;}.QQhyaFbj_37{stroke-dasharray:26 28;stroke-dashoffset:27;animation:QQhyaFbj_draw 2000ms ease-in-out 411ms forwards;}.QQhyaFbj_38{stroke-dasharray:26 28;stroke-dashoffset:27;animation:QQhyaFbj_draw 2000ms ease-in-out 422ms forwards;}.QQhyaFbj_39{stroke-dasharray:26 28;stroke-dashoffset:27;animation:QQhyaFbj_draw 2000ms ease-in-out 433ms forwards;}.QQhyaFbj_40{stroke-dasharray:26 28;stroke-dashoffset:27;animation:QQhyaFbj_draw 2000ms ease-in-out 444ms forwards;}.QQhyaFbj_41{stroke-dasharray:26 28;stroke-dashoffset:27;animation:QQhyaFbj_draw 2000ms ease-in-out 455ms forwards;}.QQhyaFbj_42{stroke-dasharray:26 28;stroke-dashoffset:27;animation:QQhyaFbj_draw 2000ms ease-in-out 466ms forwards;}.QQhyaFbj_43{stroke-dasharray:26 28;stroke-dashoffset:27;animation:QQhyaFbj_draw 2000ms ease-in-out 477ms forwards;}.QQhyaFbj_44{stroke-dasharray:26 28;stroke-dashoffset:27;animation:QQhyaFbj_draw 2000ms ease-in-out 488ms forwards;}.QQhyaFbj_45{stroke-dasharray:26 28;stroke-dashoffset:27;animation:QQhyaFbj_draw 2000ms ease-in-out 500ms forwards;}.QQhyaFbj_46{stroke-dasharray:26 28;stroke-dashoffset:27;animation:QQhyaFbj_draw 2000ms ease-in-out 511ms forwards;}.QQhyaFbj_47{stroke-dasharray:26 28;stroke-dashoffset:27;animation:QQhyaFbj_draw 2000ms ease-in-out 522ms forwards;}.QQhyaFbj_48{stroke-dasharray:26 28;stroke-dashoffset:27;animation:QQhyaFbj_draw 2000ms ease-in-out 533ms forwards;}.QQhyaFbj_49{stroke-dasharray:26 28;stroke-dashoffset:27;animation:QQhyaFbj_draw 2000ms ease-in-out 544ms forwards;}.QQhyaFbj_50{stroke-dasharray:26 28;stroke-dashoffset:27;animation:QQhyaFbj_draw 2000ms ease-in-out 555ms forwards;}.QQhyaFbj_51{stroke-dasharray:26 28;stroke-dashoffset:27;animation:QQhyaFbj_draw 2000ms ease-in-out 566ms forwards;}.QQhyaFbj_52{stroke-dasharray:26 28;stroke-dashoffset:27;animation:QQhyaFbj_draw 2000ms ease-in-out 577ms forwards;}.QQhyaFbj_53{stroke-dasharray:26 28;stroke-dashoffset:27;animation:QQhyaFbj_draw 2000ms ease-in-out 588ms forwards;}.QQhyaFbj_54{stroke-dasharray:26 28;stroke-dashoffset:27;animation:QQhyaFbj_draw 2000ms ease-in-out 600ms forwards;}.QQhyaFbj_55{stroke-dasharray:26 28;stroke-dashoffset:27;animation:QQhyaFbj_draw 2000ms ease-in-out 611ms forwards;}.QQhyaFbj_56{stroke-dasharray:26 28;stroke-dashoffset:27;animation:QQhyaFbj_draw 2000ms ease-in-out 622ms forwards;}.QQhyaFbj_57{stroke-dasharray:26 28;stroke-dashoffset:27;animation:QQhyaFbj_draw 2000ms ease-in-out 633ms forwards;}.QQhyaFbj_58{stroke-dasharray:26 28;stroke-dashoffset:27;animation:QQhyaFbj_draw 2000ms ease-in-out 644ms forwards;}.QQhyaFbj_59{stroke-dasharray:26 28;stroke-dashoffset:27;animation:QQhyaFbj_draw 2000ms ease-in-out 655ms forwards;}.QQhyaFbj_60{stroke-dasharray:26 28;stroke-dashoffset:27;animation:QQhyaFbj_draw 2000ms ease-in-out 666ms forwards;}.QQhyaFbj_61{stroke-dasharray:26 28;stroke-dashoffset:27;animation:QQhyaFbj_draw 2000ms ease-in-out 677ms forwards;}.QQhyaFbj_62{stroke-dasharray:26 28;stroke-dashoffset:27;animation:QQhyaFbj_draw 2000ms ease-in-out 688ms forwards;}.QQhyaFbj_63{stroke-dasharray:26 28;stroke-dashoffset:27;animation:QQhyaFbj_draw 2000ms ease-in-out 700ms forwards;}.QQhyaFbj_64{stroke-dasharray:26 28;stroke-dashoffset:27;animation:QQhyaFbj_draw 2000ms ease-in-out 711ms forwards;}.QQhyaFbj_65{stroke-dasharray:26 28;stroke-dashoffset:27;animation:QQhyaFbj_draw 2000ms ease-in-out 722ms forwards;}.QQhyaFbj_66{stroke-dasharray:26 28;stroke-dashoffset:27;animation:QQhyaFbj_draw 2000ms ease-in-out 733ms forwards;}.QQhyaFbj_67{stroke-dasharray:26 28;stroke-dashoffset:27;animation:QQhyaFbj_draw 2000ms ease-in-out 744ms forwards;}.QQhyaFbj_68{stroke-dasharray:26 28;stroke-dashoffset:27;animation:QQhyaFbj_draw 2000ms ease-in-out 755ms forwards;}.QQhyaFbj_69{stroke-dasharray:26 28;stroke-dashoffset:27;animation:QQhyaFbj_draw 2000ms ease-in-out 766ms forwards;}.QQhyaFbj_70{stroke-dasharray:26 28;stroke-dashoffset:27;animation:QQhyaFbj_draw 2000ms ease-in-out 777ms forwards;}.QQhyaFbj_71{stroke-dasharray:26 28;stroke-dashoffset:27;animation:QQhyaFbj_draw 2000ms ease-in-out 788ms forwards;}.QQhyaFbj_72{stroke-dasharray:26 28;stroke-dashoffset:27;animation:QQhyaFbj_draw 2000ms ease-in-out 800ms forwards;}.QQhyaFbj_73{stroke-dasharray:26 28;stroke-dashoffset:27;animation:QQhyaFbj_draw 2000ms ease-in-out 811ms forwards;}.QQhyaFbj_74{stroke-dasharray:26 28;stroke-dashoffset:27;animation:QQhyaFbj_draw 2000ms ease-in-out 822ms forwards;}.QQhyaFbj_75{stroke-dasharray:26 28;stroke-dashoffset:27;animation:QQhyaFbj_draw 2000ms ease-in-out 833ms forwards;}.QQhyaFbj_76{stroke-dasharray:26 28;stroke-dashoffset:27;animation:QQhyaFbj_draw 2000ms ease-in-out 844ms forwards;}.QQhyaFbj_77{stroke-dasharray:26 28;stroke-dashoffset:27;animation:QQhyaFbj_draw 2000ms ease-in-out 855ms forwards;}.QQhyaFbj_78{stroke-dasharray:26 28;stroke-dashoffset:27;animation:QQhyaFbj_draw 2000ms ease-in-out 866ms forwards;}.QQhyaFbj_79{stroke-dasharray:26 28;stroke-dashoffset:27;animation:QQhyaFbj_draw 2000ms ease-in-out 877ms forwards;}.QQhyaFbj_80{stroke-dasharray:26 28;stroke-dashoffset:27;animation:QQhyaFbj_draw 2000ms ease-in-out 888ms forwards;}.QQhyaFbj_81{stroke-dasharray:26 28;stroke-dashoffset:27;animation:QQhyaFbj_draw 2000ms ease-in-out 900ms forwards;}.QQhyaFbj_82{stroke-dasharray:26 28;stroke-dashoffset:27;animation:QQhyaFbj_draw 2000ms ease-in-out 911ms forwards;}.QQhyaFbj_83{stroke-dasharray:26 28;stroke-dashoffset:27;animation:QQhyaFbj_draw 2000ms ease-in-out 922ms forwards;}.QQhyaFbj_84{stroke-dasharray:26 28;stroke-dashoffset:27;animation:QQhyaFbj_draw 2000ms ease-in-out 933ms forwards;}.QQhyaFbj_85{stroke-dasharray:26 28;stroke-dashoffset:27;animation:QQhyaFbj_draw 2000ms ease-in-out 944ms forwards;}.QQhyaFbj_86{stroke-dasharray:88 90;stroke-dashoffset:89;animation:QQhyaFbj_draw 2000ms ease-in-out 955ms forwards;}.QQhyaFbj_87{stroke-dasharray:136 138;stroke-dashoffset:137;animation:QQhyaFbj_draw 2000ms ease-in-out 966ms forwards;}.QQhyaFbj_88{stroke-dasharray:134 136;stroke-dashoffset:135;animation:QQhyaFbj_draw 2000ms ease-in-out 977ms forwards;}.QQhyaFbj_89{stroke-dasharray:133 135;stroke-dashoffset:134;animation:QQhyaFbj_draw 2000ms ease-in-out 988ms forwards;}.QQhyaFbj_90{stroke-dasharray:133 135;stroke-dashoffset:134;animation:QQhyaFbj_draw 2000ms ease-in-out 1000ms forwards;}@keyframes QQhyaFbj_draw{100%{stroke-dashoffset:0;}}@keyframes QQhyaFbj_fade{0%{stroke-opacity:1;}94.44444444444444%{stroke-opacity:1;}100%{stroke-opacity:0;}}</style></svg>
