<svg width="360" height="121" viewBox="0 0 360 121" fill="none" xmlns="http://www.w3.org/2000/svg" style="">
<path d="M185.658 42.3882C185.658 45.5196 183.119 48.058 179.988 48.058C176.857 48.058 174.318 45.5196 174.318 42.3882C174.318 39.2569 176.857 36.7184 179.988 36.7184C183.119 36.7184 185.658 39.2569 185.658 42.3882Z" stroke="#103957" stroke-width="1.07996" class="hqxcDdrd_0"></path>
<path d="M180.258 78.57C193.028 78.57 204.18 71.7305 210.166 61.5576" stroke="#0088FF" stroke-width="5.3998" class="hqxcDdrd_1"></path>
<path d="M244.922 68.3483C244.922 68.3483 241.288 81.6956 235.438 88.6877" stroke="#0088FF" stroke-width="1.07996" class="hqxcDdrd_2"></path>
<path d="M206.718 52.3781L256.936 72.8972L261.526 59.9378" stroke="#0088FF" stroke-width="1.07996" class="hqxcDdrd_3"></path>
<path d="M276.19 49.4511C276.19 43.1648 271.094 38.0687 264.808 38.0687C258.521 38.0687 253.425 43.1648 253.425 49.4511C253.425 55.7375 258.521 60.8336 264.808 60.8336C271.094 60.8336 276.19 55.7375 276.19 49.4511Z" stroke="#0088FF" stroke-width="1.61994" class="hqxcDdrd_4"></path>
<path d="M272.838 47.1538L272.958 47.8114C273.653 51.619 271.612 55.3986 268.047 56.9064V56.9064C264.394 58.4517 260.158 57.1834 257.955 53.8848L257.842 53.715" stroke="#103957" stroke-width="2.15992" class="hqxcDdrd_5"></path>
<path d="M236.247 92.8796C236.846 91.0278 235.831 89.0409 233.979 88.4418C232.127 87.8427 230.14 88.8582 229.541 90.71C228.942 92.5619 229.958 94.5488 231.809 95.1479C233.661 95.747 235.648 94.7314 236.247 92.8796Z" stroke="#0088FF" stroke-width="1.07996" class="hqxcDdrd_6"></path>
<path d="M207.483 41.9244C207.483 57.0357 195.233 69.2859 180.121 69.2859C165.01 69.2859 152.76 57.0357 152.76 41.9244C152.76 26.813 165.01 14.5628 180.121 14.5628C195.233 14.5628 207.483 26.813 207.483 41.9244Z" stroke="#103957" stroke-width="3.23988" class="hqxcDdrd_7"></path>
<path d="M180.258 0V15.1319" stroke="#103957" stroke-width="5.3998" class="hqxcDdrd_8"></path>
<path d="M192.301 42.2839C192.301 49.0381 186.825 54.5135 180.071 54.5135C173.317 54.5135 167.842 49.0381 167.842 42.2839C167.842 35.5297 173.317 30.0543 180.071 30.0543C186.825 30.0543 192.301 35.5297 192.301 42.2839Z" stroke="#0088FF" stroke-width="3.23988" class="hqxcDdrd_9"></path>
<path d="M116 53.9466L137.146 50.218" stroke="#103957" stroke-width="0.53998" class="hqxcDdrd_10"></path>
<path d="M117.219 59.4515L137.96 53.894" stroke="#103957" stroke-width="0.53998" class="hqxcDdrd_11"></path>
<path d="M118.916 64.8288L139.094 57.4849" stroke="#103957" stroke-width="0.53998" class="hqxcDdrd_12"></path>
<path d="M121.074 70.0382L140.534 60.9636" stroke="#103957" stroke-width="0.53998" class="hqxcDdrd_13"></path>
<path d="M123.677 75.0393L142.272 64.3032" stroke="#103957" stroke-width="0.53998" class="hqxcDdrd_14"></path>
<path d="M126.707 79.7945L144.296 67.4785" stroke="#103957" stroke-width="0.53998" class="hqxcDdrd_15"></path>
<path d="M130.138 84.2676L146.587 70.4656" stroke="#103957" stroke-width="0.53998" class="hqxcDdrd_16"></path>
<path d="M133.948 88.4248L149.131 73.2417" stroke="#103957" stroke-width="0.53998" class="hqxcDdrd_17"></path>
<path d="M138.105 92.2341L151.907 75.7854" stroke="#103957" stroke-width="0.53998" class="hqxcDdrd_18"></path>
<path d="M142.578 95.6664L154.894 78.0774" stroke="#103957" stroke-width="0.53998" class="hqxcDdrd_19"></path>
<path d="M147.333 98.6961L158.069 80.1006" stroke="#103957" stroke-width="0.53998" class="hqxcDdrd_20"></path>
<path d="M152.335 101.299L161.409 81.8389" stroke="#103957" stroke-width="0.53998" class="hqxcDdrd_21"></path>
<path d="M157.544 103.457L164.888 83.2798" stroke="#103957" stroke-width="0.53998" class="hqxcDdrd_22"></path>
<path d="M162.921 105.153L168.479 84.4121" stroke="#103957" stroke-width="0.53998" class="hqxcDdrd_23"></path>
<path d="M168.426 106.373L172.154 85.2271" stroke="#103957" stroke-width="0.53998" class="hqxcDdrd_24"></path>
<path d="M174.016 107.109L175.888 85.7185" stroke="#103957" stroke-width="0.53998" class="hqxcDdrd_25"></path>
<path d="M179.649 107.355L179.649 85.8826" stroke="#103957" stroke-width="0.53998" class="hqxcDdrd_26"></path>
<path d="M185.283 107.109L183.411 85.7185" stroke="#103957" stroke-width="0.53998" class="hqxcDdrd_27"></path>
<path d="M190.872 106.373L187.144 85.2271" stroke="#103957" stroke-width="0.53998" class="hqxcDdrd_28"></path>
<path d="M196.378 105.153L190.82 84.4124" stroke="#103957" stroke-width="0.53998" class="hqxcDdrd_29"></path>
<path d="M201.755 103.457L194.411 83.2798" stroke="#103957" stroke-width="0.53998" class="hqxcDdrd_30"></path>
<path d="M206.963 101.299L197.889 81.8389" stroke="#103957" stroke-width="0.53998" class="hqxcDdrd_31"></path>
<path d="M211.965 98.6961L201.229 80.1006" stroke="#103957" stroke-width="0.53998" class="hqxcDdrd_32"></path>
<path d="M216.721 95.6664L204.405 78.0774" stroke="#103957" stroke-width="0.53998" class="hqxcDdrd_33"></path>
<path d="M221.194 92.2341L207.392 75.7854" stroke="#103957" stroke-width="0.53998" class="hqxcDdrd_34"></path>
<path d="M225.351 88.4248L210.168 73.2417" stroke="#103957" stroke-width="0.53998" class="hqxcDdrd_35"></path>
<path d="M229.16 84.2676L212.711 70.4656" stroke="#103957" stroke-width="0.53998" class="hqxcDdrd_36"></path>
<style data-made-with="vivus-instant">.hqxcDdrd_0{stroke-dasharray:36 38;stroke-dashoffset:37;animation:hqxcDdrd_draw 2000ms ease-in-out 0ms forwards;}.hqxcDdrd_1{stroke-dasharray:37 39;stroke-dashoffset:38;animation:hqxcDdrd_draw 2000ms ease-in-out 27ms forwards;}.hqxcDdrd_2{stroke-dasharray:23 25;stroke-dashoffset:24;animation:hqxcDdrd_draw 2000ms ease-in-out 55ms forwards;}.hqxcDdrd_3{stroke-dasharray:68 70;stroke-dashoffset:69;animation:hqxcDdrd_draw 2000ms ease-in-out 83ms forwards;}.hqxcDdrd_4{stroke-dasharray:72 74;stroke-dashoffset:73;animation:hqxcDdrd_draw 2000ms ease-in-out 111ms forwards;}.hqxcDdrd_5{stroke-dasharray:24 26;stroke-dashoffset:25;animation:hqxcDdrd_draw 2000ms ease-in-out 138ms forwards;}.hqxcDdrd_6{stroke-dasharray:23 25;stroke-dashoffset:24;animation:hqxcDdrd_draw 2000ms ease-in-out 166ms forwards;}.hqxcDdrd_7{stroke-dasharray:172 174;stroke-dashoffset:173;animation:hqxcDdrd_draw 2000ms ease-in-out 194ms forwards;}.hqxcDdrd_8{stroke-dasharray:16 18;stroke-dashoffset:17;animation:hqxcDdrd_draw 2000ms ease-in-out 222ms forwards;}.hqxcDdrd_9{stroke-dasharray:77 79;stroke-dashoffset:78;animation:hqxcDdrd_draw 2000ms ease-in-out 250ms forwards;}.hqxcDdrd_10{stroke-dasharray:22 24;stroke-dashoffset:23;animation:hqxcDdrd_draw 2000ms ease-in-out 277ms forwards;}.hqxcDdrd_11{stroke-dasharray:22 24;stroke-dashoffset:23;animation:hqxcDdrd_draw 2000ms ease-in-out 305ms forwards;}.hqxcDdrd_12{stroke-dasharray:22 24;stroke-dashoffset:23;animation:hqxcDdrd_draw 2000ms ease-in-out 333ms forwards;}.hqxcDdrd_13{stroke-dasharray:22 24;stroke-dashoffset:23;animation:hqxcDdrd_draw 2000ms ease-in-out 361ms forwards;}.hqxcDdrd_14{stroke-dasharray:22 24;stroke-dashoffset:23;animation:hqxcDdrd_draw 2000ms ease-in-out 388ms forwards;}.hqxcDdrd_15{stroke-dasharray:22 24;stroke-dashoffset:23;animation:hqxcDdrd_draw 2000ms ease-in-out 416ms forwards;}.hqxcDdrd_16{stroke-dasharray:22 24;stroke-dashoffset:23;animation:hqxcDdrd_draw 2000ms ease-in-out 444ms forwards;}.hqxcDdrd_17{stroke-dasharray:22 24;stroke-dashoffset:23;animation:hqxcDdrd_draw 2000ms ease-in-out 472ms forwards;}.hqxcDdrd_18{stroke-dasharray:22 24;stroke-dashoffset:23;animation:hqxcDdrd_draw 2000ms ease-in-out 500ms forwards;}.hqxcDdrd_19{stroke-dasharray:22 24;stroke-dashoffset:23;animation:hqxcDdrd_draw 2000ms ease-in-out 527ms forwards;}.hqxcDdrd_20{stroke-dasharray:22 24;stroke-dashoffset:23;animation:hqxcDdrd_draw 2000ms ease-in-out 555ms forwards;}.hqxcDdrd_21{stroke-dasharray:22 24;stroke-dashoffset:23;animation:hqxcDdrd_draw 2000ms ease-in-out 583ms forwards;}.hqxcDdrd_22{stroke-dasharray:22 24;stroke-dashoffset:23;animation:hqxcDdrd_draw 2000ms ease-in-out 611ms forwards;}.hqxcDdrd_23{stroke-dasharray:22 24;stroke-dashoffset:23;animation:hqxcDdrd_draw 2000ms ease-in-out 638ms forwards;}.hqxcDdrd_24{stroke-dasharray:22 24;stroke-dashoffset:23;animation:hqxcDdrd_draw 2000ms ease-in-out 666ms forwards;}.hqxcDdrd_25{stroke-dasharray:22 24;stroke-dashoffset:23;animation:hqxcDdrd_draw 2000ms ease-in-out 694ms forwards;}.hqxcDdrd_26{stroke-dasharray:22 24;stroke-dashoffset:23;animation:hqxcDdrd_draw 2000ms ease-in-out 722ms forwards;}.hqxcDdrd_27{stroke-dasharray:22 24;stroke-dashoffset:23;animation:hqxcDdrd_draw 2000ms ease-in-out 750ms forwards;}.hqxcDdrd_28{stroke-dasharray:22 24;stroke-dashoffset:23;animation:hqxcDdrd_draw 2000ms ease-in-out 777ms forwards;}.hqxcDdrd_29{stroke-dasharray:22 24;stroke-dashoffset:23;animation:hqxcDdrd_draw 2000ms ease-in-out 805ms forwards;}.hqxcDdrd_30{stroke-dasharray:22 24;stroke-dashoffset:23;animation:hqxcDdrd_draw 2000ms ease-in-out 833ms forwards;}.hqxcDdrd_31{stroke-dasharray:22 24;stroke-dashoffset:23;animation:hqxcDdrd_draw 2000ms ease-in-out 861ms forwards;}.hqxcDdrd_32{stroke-dasharray:22 24;stroke-dashoffset:23;animation:hqxcDdrd_draw 2000ms ease-in-out 888ms forwards;}.hqxcDdrd_33{stroke-dasharray:22 24;stroke-dashoffset:23;animation:hqxcDdrd_draw 2000ms ease-in-out 916ms forwards;}.hqxcDdrd_34{stroke-dasharray:22 24;stroke-dashoffset:23;animation:hqxcDdrd_draw 2000ms ease-in-out 944ms forwards;}.hqxcDdrd_35{stroke-dasharray:22 24;stroke-dashoffset:23;animation:hqxcDdrd_draw 2000ms ease-in-out 972ms forwards;}.hqxcDdrd_36{stroke-dasharray:22 24;stroke-dashoffset:23;animation:hqxcDdrd_draw 2000ms ease-in-out 1000ms forwards;}@keyframes hqxcDdrd_draw{100%{stroke-dashoffset:0;}}@keyframes hqxcDdrd_fade{0%{stroke-opacity:1;}94.44444444444444%{stroke-opacity:1;}100%{stroke-opacity:0;}}</style></svg>
