<svg width="1440" height="212" viewBox="0 0 1440 212" fill="none" xmlns="http://www.w3.org/2000/svg" style="">
<path d="M730 78.5C730 84.299 725.299 89 719.5 89C713.701 89 709 84.299 709 78.5C709 72.701 713.701 68 719.5 68C725.299 68 730 72.701 730 78.5Z" stroke="#103957" stroke-width="2" class="DVRTSGNs_0"></path>
<path d="M720 145.506C743.649 145.506 764.303 132.839 775.388 114" stroke="#0088FF" stroke-width="10" class="DVRTSGNs_1"></path>
<path d="M839.753 126.575C839.753 126.575 833.022 151.293 822.188 164.242" stroke="#0088FF" stroke-width="2" class="DVRTSGNs_2"></path>
<path d="M769.001 97L862.001 135L870.501 111" stroke="#0088FF" stroke-width="2" class="DVRTSGNs_3"></path>
<path d="M897.659 91.5795C897.659 79.9377 888.222 70.5001 876.58 70.5001C864.938 70.5001 855.5 79.9377 855.5 91.5795C855.5 103.221 864.938 112.659 876.58 112.659C888.222 112.659 897.659 103.221 897.659 91.5795Z" stroke="#0088FF" stroke-width="3" class="DVRTSGNs_4"></path>
<path d="M891.452 87.3247L891.674 88.5425C892.96 95.5938 889.18 102.593 882.579 105.386V105.386C875.813 108.247 867.969 105.899 863.889 99.7899L863.678 99.4754" stroke="#103957" stroke-width="4" class="DVRTSGNs_5"></path>
<path d="M823.688 172.005C824.798 168.576 822.917 164.896 819.488 163.787C816.058 162.677 812.379 164.558 811.269 167.988C810.16 171.417 812.04 175.097 815.47 176.206C818.899 177.316 822.579 175.435 823.688 172.005Z" stroke="#0088FF" stroke-width="2" class="DVRTSGNs_6"></path>
<path d="M770.419 77.6407C770.419 105.626 747.733 128.312 719.748 128.312C691.763 128.312 669.076 105.626 669.076 77.6407C669.076 49.6556 691.763 26.9692 719.748 26.9692C747.733 26.9692 770.419 49.6556 770.419 77.6407Z" stroke="#103957" stroke-width="6" class="DVRTSGNs_7"></path>
<path d="M720 0V28.0231" stroke="#103957" stroke-width="10" class="DVRTSGNs_8"></path>
<path d="M742.304 78.3065C742.304 90.8148 732.164 100.955 719.656 100.955C707.148 100.955 697.008 90.8148 697.008 78.3065C697.008 65.7982 707.148 55.6582 719.656 55.6582C732.164 55.6582 742.304 65.7982 742.304 78.3065Z" stroke="#0088FF" stroke-width="6" class="DVRTSGNs_9"></path>
<path d="M601 99.9051L640.161 93" stroke="#103957" class="DVRTSGNs_10"></path>
<path d="M603.261 110.1L641.67 99.8076" stroke="#103957" class="DVRTSGNs_11"></path>
<path d="M606.4 120.058L643.767 106.458" stroke="#103957" class="DVRTSGNs_12"></path>
<path d="M610.396 129.705L646.436 112.9" stroke="#103957" class="DVRTSGNs_13"></path>
<path d="M615.218 138.967L649.655 119.085" stroke="#103957" class="DVRTSGNs_14"></path>
<path d="M620.828 147.774L653.401 124.965" stroke="#103957" class="DVRTSGNs_15"></path>
<path d="M627.185 156.057L657.646 130.497" stroke="#103957" class="DVRTSGNs_16"></path>
<path d="M634.238 163.756L662.356 135.638" stroke="#103957" class="DVRTSGNs_17"></path>
<path d="M641.938 170.81L667.498 140.349" stroke="#103957" class="DVRTSGNs_18"></path>
<path d="M650.221 177.167L673.029 144.593" stroke="#103957" class="DVRTSGNs_19"></path>
<path d="M659.028 182.777L678.91 148.34" stroke="#103957" class="DVRTSGNs_20"></path>
<path d="M668.29 187.599L685.096 151.56" stroke="#103957" class="DVRTSGNs_21"></path>
<path d="M677.938 191.595L691.538 154.228" stroke="#103957" class="DVRTSGNs_22"></path>
<path d="M687.896 194.735L698.188 156.325" stroke="#103957" class="DVRTSGNs_23"></path>
<path d="M698.09 196.995L704.995 157.834" stroke="#103957" class="DVRTSGNs_24"></path>
<path d="M708.442 198.358L711.908 158.744" stroke="#103957" class="DVRTSGNs_25"></path>
<path d="M718.874 198.813L718.874 159.048" stroke="#103957" class="DVRTSGNs_26"></path>
<path d="M729.306 198.358L725.84 158.744" stroke="#103957" class="DVRTSGNs_27"></path>
<path d="M739.658 196.995L732.753 157.834" stroke="#103957" class="DVRTSGNs_28"></path>
<path d="M749.853 194.735L739.561 156.325" stroke="#103957" class="DVRTSGNs_29"></path>
<path d="M759.811 191.595L746.211 154.228" stroke="#103957" class="DVRTSGNs_30"></path>
<path d="M769.458 187.599L752.653 151.56" stroke="#103957" class="DVRTSGNs_31"></path>
<path d="M778.72 182.777L758.838 148.34" stroke="#103957" class="DVRTSGNs_32"></path>
<path d="M787.527 177.167L764.719 144.594" stroke="#103957" class="DVRTSGNs_33"></path>
<path d="M795.811 170.81L770.25 140.349" stroke="#103957" class="DVRTSGNs_34"></path>
<path d="M803.51 163.756L775.392 135.638" stroke="#103957" class="DVRTSGNs_35"></path>
<path d="M810.564 156.057L780.102 130.497" stroke="#103957" class="DVRTSGNs_36"></path>
<style data-made-with="vivus-instant">.DVRTSGNs_0{stroke-dasharray:66 68;stroke-dashoffset:67;animation:DVRTSGNs_draw 2000ms ease-in-out 0ms forwards;}.DVRTSGNs_1{stroke-dasharray:67 69;stroke-dashoffset:68;animation:DVRTSGNs_draw 2000ms ease-in-out 27ms forwards;}.DVRTSGNs_2{stroke-dasharray:42 44;stroke-dashoffset:43;animation:DVRTSGNs_draw 2000ms ease-in-out 55ms forwards;}.DVRTSGNs_3{stroke-dasharray:126 128;stroke-dashoffset:127;animation:DVRTSGNs_draw 2000ms ease-in-out 83ms forwards;}.DVRTSGNs_4{stroke-dasharray:133 135;stroke-dashoffset:134;animation:DVRTSGNs_draw 2000ms ease-in-out 111ms forwards;}.DVRTSGNs_5{stroke-dasharray:44 46;stroke-dashoffset:45;animation:DVRTSGNs_draw 2000ms ease-in-out 138ms forwards;}.DVRTSGNs_6{stroke-dasharray:42 44;stroke-dashoffset:43;animation:DVRTSGNs_draw 2000ms ease-in-out 166ms forwards;}.DVRTSGNs_7{stroke-dasharray:319 321;stroke-dashoffset:320;animation:DVRTSGNs_draw 2000ms ease-in-out 194ms forwards;}.DVRTSGNs_8{stroke-dasharray:29 31;stroke-dashoffset:30;animation:DVRTSGNs_draw 2000ms ease-in-out 222ms forwards;}.DVRTSGNs_9{stroke-dasharray:143 145;stroke-dashoffset:144;animation:DVRTSGNs_draw 2000ms ease-in-out 250ms forwards;}.DVRTSGNs_10{stroke-dasharray:40 42;stroke-dashoffset:41;animation:DVRTSGNs_draw 2000ms ease-in-out 277ms forwards;}.DVRTSGNs_11{stroke-dasharray:40 42;stroke-dashoffset:41;animation:DVRTSGNs_draw 2000ms ease-in-out 305ms forwards;}.DVRTSGNs_12{stroke-dasharray:40 42;stroke-dashoffset:41;animation:DVRTSGNs_draw 2000ms ease-in-out 333ms forwards;}.DVRTSGNs_13{stroke-dasharray:40 42;stroke-dashoffset:41;animation:DVRTSGNs_draw 2000ms ease-in-out 361ms forwards;}.DVRTSGNs_14{stroke-dasharray:40 42;stroke-dashoffset:41;animation:DVRTSGNs_draw 2000ms ease-in-out 388ms forwards;}.DVRTSGNs_15{stroke-dasharray:40 42;stroke-dashoffset:41;animation:DVRTSGNs_draw 2000ms ease-in-out 416ms forwards;}.DVRTSGNs_16{stroke-dasharray:40 42;stroke-dashoffset:41;animation:DVRTSGNs_draw 2000ms ease-in-out 444ms forwards;}.DVRTSGNs_17{stroke-dasharray:40 42;stroke-dashoffset:41;animation:DVRTSGNs_draw 2000ms ease-in-out 472ms forwards;}.DVRTSGNs_18{stroke-dasharray:40 42;stroke-dashoffset:41;animation:DVRTSGNs_draw 2000ms ease-in-out 500ms forwards;}.DVRTSGNs_19{stroke-dasharray:40 42;stroke-dashoffset:41;animation:DVRTSGNs_draw 2000ms ease-in-out 527ms forwards;}.DVRTSGNs_20{stroke-dasharray:40 42;stroke-dashoffset:41;animation:DVRTSGNs_draw 2000ms ease-in-out 555ms forwards;}.DVRTSGNs_21{stroke-dasharray:40 42;stroke-dashoffset:41;animation:DVRTSGNs_draw 2000ms ease-in-out 583ms forwards;}.DVRTSGNs_22{stroke-dasharray:40 42;stroke-dashoffset:41;animation:DVRTSGNs_draw 2000ms ease-in-out 611ms forwards;}.DVRTSGNs_23{stroke-dasharray:40 42;stroke-dashoffset:41;animation:DVRTSGNs_draw 2000ms ease-in-out 638ms forwards;}.DVRTSGNs_24{stroke-dasharray:40 42;stroke-dashoffset:41;animation:DVRTSGNs_draw 2000ms ease-in-out 666ms forwards;}.DVRTSGNs_25{stroke-dasharray:40 42;stroke-dashoffset:41;animation:DVRTSGNs_draw 2000ms ease-in-out 694ms forwards;}.DVRTSGNs_26{stroke-dasharray:40 42;stroke-dashoffset:41;animation:DVRTSGNs_draw 2000ms ease-in-out 722ms forwards;}.DVRTSGNs_27{stroke-dasharray:40 42;stroke-dashoffset:41;animation:DVRTSGNs_draw 2000ms ease-in-out 750ms forwards;}.DVRTSGNs_28{stroke-dasharray:40 42;stroke-dashoffset:41;animation:DVRTSGNs_draw 2000ms ease-in-out 777ms forwards;}.DVRTSGNs_29{stroke-dasharray:40 42;stroke-dashoffset:41;animation:DVRTSGNs_draw 2000ms ease-in-out 805ms forwards;}.DVRTSGNs_30{stroke-dasharray:40 42;stroke-dashoffset:41;animation:DVRTSGNs_draw 2000ms ease-in-out 833ms forwards;}.DVRTSGNs_31{stroke-dasharray:40 42;stroke-dashoffset:41;animation:DVRTSGNs_draw 2000ms ease-in-out 861ms forwards;}.DVRTSGNs_32{stroke-dasharray:40 42;stroke-dashoffset:41;animation:DVRTSGNs_draw 2000ms ease-in-out 888ms forwards;}.DVRTSGNs_33{stroke-dasharray:40 42;stroke-dashoffset:41;animation:DVRTSGNs_draw 2000ms ease-in-out 916ms forwards;}.DVRTSGNs_34{stroke-dasharray:40 42;stroke-dashoffset:41;animation:DVRTSGNs_draw 2000ms ease-in-out 944ms forwards;}.DVRTSGNs_35{stroke-dasharray:40 42;stroke-dashoffset:41;animation:DVRTSGNs_draw 2000ms ease-in-out 972ms forwards;}.DVRTSGNs_36{stroke-dasharray:40 42;stroke-dashoffset:41;animation:DVRTSGNs_draw 2000ms ease-in-out 1000ms forwards;}@keyframes DVRTSGNs_draw{100%{stroke-dashoffset:0;}}@keyframes DVRTSGNs_fade{0%{stroke-opacity:1;}94.44444444444444%{stroke-opacity:1;}100%{stroke-opacity:0;}}</style></svg>
