<svg width="80" height="90" viewBox="0 0 80 90" fill="none" xmlns="http://www.w3.org/2000/svg">
<path d="M20 2.16165C20 2.37767 20 8.75189 20 13.8933C20 17.458 17.1102 20.3477 13.5455 20.3477H12.1477C12.1477 20.3477 12.1477 20.3477 12.1477 20.3477C12.1477 20.3477 2 20.3477 2 20.7115C2 21.8852 2 64.9579 2 81.563C2 85.1278 4.88979 88 8.45454 88H58.9414C62.5062 88 65.396 85.1102 65.396 81.5455V75.9971M20 2.16165C20 1.88372 46.5064 2.03054 59.0106 2.11527C62.555 2.13928 65.396 5.02012 65.396 8.56469V22.53M20 2.16165L2 20.3477M13.7785 37.7142H31.5772M13.7785 48.5357H31.5772M13.7785 58.9022H31.5772M13.7785 68.905H22.6778H31.5772M48.5 21.5L77.9597 40.3524M48.5 21.5L52.047 33.4416M48.5 21.5L60 19" stroke="#103957" stroke-width="3"/>
<path d="M40.4343 38.4343H45.5657V69.5657H40.4343V38.4343Z" stroke="#0088FF" stroke-width="2.86869"/>
<path d="M51.4343 46.4343H56.5657V69.5657H51.4343V46.4343Z" stroke="#0088FF" stroke-width="2.86869"/>
<path d="M62.4343 53.4343H67.5657V69.5657H62.4343V53.4343Z" stroke="#0088FF" stroke-width="2.86869"/>
<path d="M73.4343 61.4343H78.5657V69.5657H73.4343V61.4343Z" stroke="#0088FF" stroke-width="2.86869"/>
</svg>
