<svg width="718" height="630" viewBox="0 0 718 630" fill="none" xmlns="http://www.w3.org/2000/svg" style="">
<path d="M432 529C565.101 529 673 422.444 673 291C673 159.556 565.101 53 432 53" stroke="#103957" stroke-width="10" class="AIEnogmL_0"></path>
<path d="M531.776 445.599C617.237 392.547 644.035 281.105 591.629 196.686C539.224 112.267 427.461 86.8391 342 139.891" stroke="#103957" stroke-width="10" class="AIEnogmL_1"></path>
<path d="M531.776 445.599C617.237 392.547 644.035 281.105 591.629 196.686C539.224 112.267 427.461 86.8391 342 139.891" stroke="#103957" stroke-width="10" class="AIEnogmL_2"></path>
<path d="M278.232 349.463C303.16 411.953 358.401 453.178 419.868 462.613" stroke="#0088FF" stroke-width="10" class="AIEnogmL_3"></path>
<path d="M630.095 368.084C672.063 259.784 618.29 137.968 509.99 96" stroke="#103957" stroke-width="18" stroke-linejoin="round" class="AIEnogmL_4"></path>
<path d="M274 161.164C326.203 96.9694 408.437 71.5806 484 88.7784" stroke="#0088FF" stroke-width="18" stroke-linejoin="round" class="AIEnogmL_5"></path>
<path d="M662.5 164C620 68.5 506 37.5 506 37.5V0.5" stroke="#103957" stroke-width="12" class="AIEnogmL_6"></path>
<path d="M94 578.5V532H6V437L49.5 423.5L94 410" stroke="#103957" stroke-width="12" class="AIEnogmL_7"></path>
<path d="M94 578.5V532H6V437L49.5 423.5L94 410" stroke="#103957" stroke-width="12" class="AIEnogmL_8"></path>
<path d="M295.5 421L207 509L186.5 489" stroke="#0088FF" stroke-width="9" class="AIEnogmL_9"></path>
<path d="M211 518L223 530" stroke="#103957" stroke-width="3" class="AIEnogmL_10"></path>
<path d="M217 512L229 524" stroke="#103957" stroke-width="3" class="AIEnogmL_11"></path>
<path d="M217 512L229 524" stroke="#103957" stroke-width="3" class="AIEnogmL_12"></path>
<path d="M223 506L235 518" stroke="#103957" stroke-width="3" class="AIEnogmL_13"></path>
<path d="M223 506L235 518" stroke="#103957" stroke-width="3" class="AIEnogmL_14"></path>
<path d="M229 500L241 512" stroke="#103957" stroke-width="3" class="AIEnogmL_15"></path>
<path d="M229 500L241 512" stroke="#103957" stroke-width="3" class="AIEnogmL_16"></path>
<path d="M235 494L247 506" stroke="#103957" stroke-width="3" class="AIEnogmL_17"></path>
<path d="M235 494L247 506" stroke="#103957" stroke-width="3" class="AIEnogmL_18"></path>
<path d="M241 488L253 500" stroke="#103957" stroke-width="3" class="AIEnogmL_19"></path>
<path d="M241 488L253 500" stroke="#103957" stroke-width="3" class="AIEnogmL_20"></path>
<path d="M247 482L271.5 506.5" stroke="#103957" stroke-width="3" class="AIEnogmL_21"></path>
<path d="M253 476L283.5 506.5" stroke="#103957" stroke-width="3" class="AIEnogmL_22"></path>
<path d="M259 470L295.5 506.5" stroke="#103957" stroke-width="3" class="AIEnogmL_23"></path>
<path d="M156.192 402.287C156.192 420.289 141.598 434.883 123.596 434.883C105.594 434.883 91 420.289 91 402.287C91 384.285 105.594 369.691 123.596 369.691C141.598 369.691 156.192 384.285 156.192 402.287Z" stroke="#103957" stroke-width="4" class="AIEnogmL_24"></path>
<path d="M147.466 402.287C147.466 415.47 136.779 426.158 123.596 426.158C110.413 426.158 99.7256 415.47 99.7256 402.287C99.7256 389.104 110.413 378.417 123.596 378.417C136.779 378.417 147.466 389.104 147.466 402.287Z" stroke="#103957" stroke-width="3" class="AIEnogmL_25"></path>
<path d="M138.741 402.287C138.741 410.651 131.96 417.432 123.596 417.432C115.232 417.432 108.451 410.651 108.451 402.287C108.451 393.923 115.232 387.142 123.596 387.142C131.96 387.142 138.741 393.923 138.741 402.287Z" stroke="#103957" stroke-width="2" class="AIEnogmL_26"></path>
<path d="M122.356 358.467L121.787 336.714" stroke="#103957" class="AIEnogmL_27"></path>
<path d="M125.213 467.669L124.644 445.915" stroke="#103957" class="AIEnogmL_28"></path>
<path d="M118.549 358.733L116.086 337.112" stroke="#103957" class="AIEnogmL_29"></path>
<path d="M130.914 467.27L128.451 445.649" stroke="#103957" class="AIEnogmL_30"></path>
<path d="M114.781 359.33L110.443 338.006" stroke="#103957" class="AIEnogmL_31"></path>
<path d="M136.558 466.377L132.22 445.052" stroke="#103957" class="AIEnogmL_32"></path>
<path d="M111.078 360.253L104.898 339.388" stroke="#103957" class="AIEnogmL_33"></path>
<path d="M142.102 464.994L135.922 444.129" stroke="#103957" class="AIEnogmL_34"></path>
<path d="M107.471 361.495L99.4956 341.248" stroke="#103957" class="AIEnogmL_35"></path>
<path d="M147.505 463.134L139.53 442.887" stroke="#103957" class="AIEnogmL_36"></path>
<path d="M103.985 363.047L94.2754 343.572" stroke="#103957" class="AIEnogmL_37"></path>
<path d="M152.725 460.81L143.016 441.335" stroke="#103957" class="AIEnogmL_38"></path>
<path d="M100.647 364.897L89.2773 346.343" stroke="#103957" class="AIEnogmL_39"></path>
<path d="M157.723 458.04L146.353 439.485" stroke="#103957" class="AIEnogmL_40"></path>
<path d="M97.4836 367.031L84.54 349.538" stroke="#103957" class="AIEnogmL_41"></path>
<path d="M162.46 454.844L149.516 437.352" stroke="#103957" class="AIEnogmL_42"></path>
<path d="M94.5185 369.432L80.0996 353.134" stroke="#103957" class="AIEnogmL_43"></path>
<path d="M166.901 451.249L152.482 434.95" stroke="#103957" class="AIEnogmL_44"></path>
<path d="M91.7732 372.083L75.9888 357.103" stroke="#103957" class="AIEnogmL_45"></path>
<path d="M171.011 447.279L155.227 432.3" stroke="#103957" class="AIEnogmL_46"></path>
<path d="M89.2702 374.962L72.2402 361.416" stroke="#103957" class="AIEnogmL_47"></path>
<path d="M174.76 442.967L157.73 429.42" stroke="#103957" class="AIEnogmL_48"></path>
<path d="M87.0272 378.049L68.8813 366.038" stroke="#103957" class="AIEnogmL_49"></path>
<path d="M178.119 438.344L159.973 426.333" stroke="#103957" class="AIEnogmL_50"></path>
<path d="M85.0616 381.32L65.938 370.936" stroke="#103957" class="AIEnogmL_51"></path>
<path d="M181.062 433.446L161.938 423.062" stroke="#103957" class="AIEnogmL_52"></path>
<path d="M83.3889 384.75L63.4331 376.072" stroke="#103957" class="AIEnogmL_53"></path>
<path d="M183.567 428.31L163.611 419.633" stroke="#103957" class="AIEnogmL_54"></path>
<path d="M82.0214 388.312L61.3853 381.407" stroke="#103957" class="AIEnogmL_55"></path>
<path d="M185.615 422.976L164.979 416.071" stroke="#103957" class="AIEnogmL_56"></path>
<path d="M80.9695 391.98L59.8101 386.899" stroke="#103957" class="AIEnogmL_57"></path>
<path d="M187.19 417.483L166.031 412.403" stroke="#103957" class="AIEnogmL_58"></path>
<path d="M80.2414 395.725L58.7197 392.508" stroke="#103957" class="AIEnogmL_59"></path>
<path d="M188.281 411.874L166.759 408.657" stroke="#103957" class="AIEnogmL_60"></path>
<path d="M79.8427 399.52L58.1226 398.191" stroke="#103957" class="AIEnogmL_61"></path>
<path d="M188.878 406.191L167.158 404.862" stroke="#103957" class="AIEnogmL_62"></path>
<path d="M79.7758 403.335L58.0225 403.905" stroke="#103957" class="AIEnogmL_63"></path>
<path d="M188.978 400.478L167.224 401.047" stroke="#103957" class="AIEnogmL_64"></path>
<path d="M80.0419 407.142L58.4209 409.605" stroke="#103957" class="AIEnogmL_65"></path>
<path d="M188.579 394.777L166.958 397.24" stroke="#103957" class="AIEnogmL_66"></path>
<path d="M80.639 410.911L59.3149 415.249" stroke="#103957" class="AIEnogmL_67"></path>
<path d="M187.686 389.134L166.362 393.472" stroke="#103957" class="AIEnogmL_68"></path>
<path d="M81.5621 414.613L60.6973 420.793" stroke="#103957" class="AIEnogmL_69"></path>
<path d="M186.303 383.589L165.438 389.769" stroke="#103957" class="AIEnogmL_70"></path>
<path d="M82.8039 418.221L62.5571 426.196" stroke="#103957" class="AIEnogmL_71"></path>
<path d="M184.443 378.186L164.196 386.161" stroke="#103957" class="AIEnogmL_72"></path>
<path d="M84.356 421.707L64.8813 431.416" stroke="#103957" class="AIEnogmL_73"></path>
<path d="M182.119 372.966L162.644 382.676" stroke="#103957" class="AIEnogmL_74"></path>
<path d="M86.2057 425.044L67.6514 436.414" stroke="#103957" class="AIEnogmL_75"></path>
<path d="M179.349 367.969L160.794 379.338" stroke="#103957" class="AIEnogmL_76"></path>
<path d="M88.3395 428.208L70.8467 441.151" stroke="#103957" class="AIEnogmL_77"></path>
<path d="M176.153 363.231L158.661 376.175" stroke="#103957" class="AIEnogmL_78"></path>
<path d="M90.741 431.173L74.4429 445.592" stroke="#103957" class="AIEnogmL_79"></path>
<path d="M172.558 358.79L156.26 373.209" stroke="#103957" class="AIEnogmL_80"></path>
<path d="M93.3915 433.918L78.4121 449.702" stroke="#103957" class="AIEnogmL_81"></path>
<path d="M168.588 354.68L153.609 370.464" stroke="#103957" class="AIEnogmL_82"></path>
<path d="M96.2713 436.421L82.7246 453.451" stroke="#103957" class="AIEnogmL_83"></path>
<path d="M164.276 350.931L150.729 367.961" stroke="#103957" class="AIEnogmL_84"></path>
<path d="M99.3581 438.664L87.3472 456.81" stroke="#103957" class="AIEnogmL_85"></path>
<path d="M159.653 347.572L147.642 365.718" stroke="#103957" class="AIEnogmL_86"></path>
<path d="M102.629 440.63L92.2451 459.753" stroke="#103957" class="AIEnogmL_87"></path>
<path d="M154.755 344.629L144.371 363.753" stroke="#103957" class="AIEnogmL_88"></path>
<path d="M106.058 442.302L97.3809 462.258" stroke="#103957" class="AIEnogmL_89"></path>
<path d="M149.619 342.124L140.942 362.08" stroke="#103957" class="AIEnogmL_90"></path>
<path d="M109.621 443.67L102.715 464.306" stroke="#103957" class="AIEnogmL_91"></path>
<path d="M144.285 340.076L137.379 360.712" stroke="#103957" class="AIEnogmL_92"></path>
<path d="M113.289 444.722L108.208 465.881" stroke="#103957" class="AIEnogmL_93"></path>
<path d="M138.792 338.501L133.712 359.661" stroke="#103957" class="AIEnogmL_94"></path>
<path d="M117.034 445.45L113.817 466.972" stroke="#103957" class="AIEnogmL_95"></path>
<path d="M133.183 337.411L129.966 358.933" stroke="#103957" class="AIEnogmL_96"></path>
<path d="M120.829 445.849L119.5 467.569" stroke="#103957" class="AIEnogmL_97"></path>
<path d="M127.5 336.813L126.171 358.534" stroke="#103957" class="AIEnogmL_98"></path>
<path d="M444 180.153V126" stroke="#103957" class="AIEnogmL_99"></path>
<path d="M444 452V397.847" stroke="#103957" class="AIEnogmL_100"></path>
<path d="M434.513 180.567L429.794 126.62" stroke="#103957" class="AIEnogmL_101"></path>
<path d="M458.207 451.38L453.487 397.433" stroke="#103957" class="AIEnogmL_102"></path>
<path d="M425.099 181.807L415.695 128.477" stroke="#103957" class="AIEnogmL_103"></path>
<path d="M472.305 449.524L462.901 396.194" stroke="#103957" class="AIEnogmL_104"></path>
<path d="M415.828 183.862L401.812 131.554" stroke="#103957" class="AIEnogmL_105"></path>
<path d="M486.187 446.446L472.172 394.138" stroke="#103957" class="AIEnogmL_106"></path>
<path d="M406.772 186.717L388.251 135.83" stroke="#103957" class="AIEnogmL_107"></path>
<path d="M499.749 442.17L481.228 391.283" stroke="#103957" class="AIEnogmL_108"></path>
<path d="M397.999 190.351L375.113 141.272" stroke="#103957" class="AIEnogmL_109"></path>
<path d="M512.887 436.728L490.001 387.649" stroke="#103957" class="AIEnogmL_110"></path>
<path d="M389.576 194.736L362.5 147.838" stroke="#103957" class="AIEnogmL_111"></path>
<path d="M525.5 430.162L498.424 383.265" stroke="#103957" class="AIEnogmL_112"></path>
<path d="M381.568 199.838L350.507 155.478" stroke="#103957" class="AIEnogmL_113"></path>
<path d="M537.493 422.522L506.432 378.163" stroke="#103957" class="AIEnogmL_114"></path>
<path d="M374.034 205.618L339.226 164.135" stroke="#103957" class="AIEnogmL_115"></path>
<path d="M548.774 413.865L513.966 372.382" stroke="#103957" class="AIEnogmL_116"></path>
<path d="M367.034 212.034L328.742 173.742" stroke="#103957" class="AIEnogmL_117"></path>
<path d="M559.259 404.259L520.967 365.967" stroke="#103957" class="AIEnogmL_118"></path>
<path d="M360.618 219.034L319.135 184.226" stroke="#103957" class="AIEnogmL_119"></path>
<path d="M568.865 393.774L527.382 358.966" stroke="#103957" class="AIEnogmL_120"></path>
<path d="M354.838 226.568L310.478 195.507" stroke="#103957" class="AIEnogmL_121"></path>
<path d="M577.522 382.493L533.162 351.432" stroke="#103957" class="AIEnogmL_122"></path>
<path d="M349.736 234.577L302.838 207.5" stroke="#103957" class="AIEnogmL_123"></path>
<path d="M585.162 370.5L538.264 343.424" stroke="#103957" class="AIEnogmL_124"></path>
<path d="M345.351 242.999L296.272 220.113" stroke="#103957" class="AIEnogmL_125"></path>
<path d="M591.728 357.887L542.649 335.001" stroke="#103957" class="AIEnogmL_126"></path>
<path d="M341.717 251.772L290.83 233.251" stroke="#103957" class="AIEnogmL_127"></path>
<path d="M597.17 344.749L546.283 326.228" stroke="#103957" class="AIEnogmL_128"></path>
<path d="M338.862 260.828L286.554 246.813" stroke="#103957" class="AIEnogmL_129"></path>
<path d="M601.446 331.188L549.138 317.172" stroke="#103957" class="AIEnogmL_130"></path>
<path d="M336.806 270.099L283.476 260.695" stroke="#103957" class="AIEnogmL_131"></path>
<path d="M604.524 317.305L551.194 307.901" stroke="#103957" class="AIEnogmL_132"></path>
<path d="M335.567 279.513L281.62 274.794" stroke="#103957" class="AIEnogmL_133"></path>
<path d="M606.38 303.207L552.433 298.487" stroke="#103957" class="AIEnogmL_134"></path>
<path d="M335.153 289H281" stroke="#103957" class="AIEnogmL_135"></path>
<path d="M607 289H552.847" stroke="#103957" class="AIEnogmL_136"></path>
<path d="M335.567 298.487L281.62 303.206" stroke="#103957" class="AIEnogmL_137"></path>
<path d="M606.38 274.794L552.433 279.513" stroke="#103957" class="AIEnogmL_138"></path>
<path d="M336.806 307.901L283.476 317.305" stroke="#103957" class="AIEnogmL_139"></path>
<path d="M604.524 260.696L551.194 270.099" stroke="#103957" class="AIEnogmL_140"></path>
<path d="M338.862 317.172L286.554 331.188" stroke="#103957" class="AIEnogmL_141"></path>
<path d="M601.446 246.813L549.138 260.829" stroke="#103957" class="AIEnogmL_142"></path>
<path d="M341.717 326.227L290.83 344.748" stroke="#103957" class="AIEnogmL_143"></path>
<path d="M597.17 233.251L546.283 251.772" stroke="#103957" class="AIEnogmL_144"></path>
<path d="M345.351 335.001L296.272 357.887" stroke="#103957" class="AIEnogmL_145"></path>
<path d="M591.728 220.113L542.649 242.999" stroke="#103957" class="AIEnogmL_146"></path>
<path d="M349.736 343.424L302.838 370.5" stroke="#103957" class="AIEnogmL_147"></path>
<path d="M585.162 207.5L538.264 234.577" stroke="#103957" class="AIEnogmL_148"></path>
<path d="M354.837 351.432L310.478 382.492" stroke="#103957" class="AIEnogmL_149"></path>
<path d="M577.522 195.507L533.162 226.568" stroke="#103957" class="AIEnogmL_150"></path>
<path d="M360.618 358.965L319.134 393.774" stroke="#103957" class="AIEnogmL_151"></path>
<path d="M568.865 184.226L527.382 219.035" stroke="#103957" class="AIEnogmL_152"></path>
<path d="M367.033 365.966L328.741 404.258" stroke="#103957" class="AIEnogmL_153"></path>
<path d="M559.258 173.742L520.967 212.034" stroke="#103957" class="AIEnogmL_154"></path>
<path d="M374.034 372.382L339.226 413.865" stroke="#103957" class="AIEnogmL_155"></path>
<path d="M548.774 164.135L513.966 205.618" stroke="#103957" class="AIEnogmL_156"></path>
<path d="M381.568 378.163L350.507 422.522" stroke="#103957" class="AIEnogmL_157"></path>
<path d="M537.493 155.478L506.432 199.838" stroke="#103957" class="AIEnogmL_158"></path>
<path d="M389.576 383.265L362.5 430.162" stroke="#103957" class="AIEnogmL_159"></path>
<path d="M525.5 147.838L498.424 194.736" stroke="#103957" class="AIEnogmL_160"></path>
<path d="M397.999 387.649L375.113 436.728" stroke="#103957" class="AIEnogmL_161"></path>
<path d="M512.887 141.272L490.001 190.351" stroke="#103957" class="AIEnogmL_162"></path>
<path d="M406.772 391.283L388.251 442.17" stroke="#103957" class="AIEnogmL_163"></path>
<path d="M499.749 135.83L481.228 186.717" stroke="#103957" class="AIEnogmL_164"></path>
<path d="M415.828 394.138L401.812 446.446" stroke="#103957" class="AIEnogmL_165"></path>
<path d="M486.188 131.554L472.172 183.862" stroke="#103957" class="AIEnogmL_166"></path>
<path d="M425.099 396.194L415.695 449.524" stroke="#103957" class="AIEnogmL_167"></path>
<path d="M472.305 128.476L462.901 181.807" stroke="#103957" class="AIEnogmL_168"></path>
<path d="M434.513 397.433L429.794 451.38" stroke="#103957" class="AIEnogmL_169"></path>
<path d="M458.207 126.62L453.487 180.567" stroke="#103957" class="AIEnogmL_170"></path>
<path d="M408.5 229C408.5 229.295 408.5 237.956 408.5 245.001C408.5 249.972 404.471 254 399.5 254H393.5C393.5 254 393.5 254 393.5 254C393.5 254 382 254 382 254.5C382 256.111 382 315.113 382 338.029C382 342.999 386.029 347 391 347H475C479.971 347 484 342.971 484 338V330.5M408.5 229C408.5 228.607 455.094 228.832 475.075 228.946C480.022 228.974 484 232.993 484 237.941V257M408.5 229L382 254M404.5 271H438.5M404.5 290H438.5M404.5 307H438.5M404.5 323.5H438.5M454.5 254.5L508 281.5M454.5 254.5L458.5 272M454.5 254.5L470.5 247.5" stroke="#103957" stroke-width="6" class="AIEnogmL_171"></path>
<path d="M461 322V279H471V322H461Z" stroke="#0088FF" stroke-width="4" class="AIEnogmL_172"></path>
<path d="M481 322V290H491V322H481Z" stroke="#0088FF" stroke-width="4" class="AIEnogmL_173"></path>
<path d="M500 322V300H510V322H500Z" stroke="#0088FF" stroke-width="4" class="AIEnogmL_174"></path>
<path d="M519 322V311H529V322H519Z" stroke="#0088FF" stroke-width="4" class="AIEnogmL_175"></path>
<path d="M41.0001 427.018C54.6215 472.52 102.55 498.364 148.051 484.742C193.553 471.121 219.397 423.193 205.775 377.691" stroke="#103957" stroke-width="4" class="AIEnogmL_176"></path>
<path d="M223.401 375C239.671 429.35 208.802 486.598 154.453 502.868C126.031 511.376 96.817 506.994 73.0847 493.103" stroke="#0088FF" stroke-width="9" class="AIEnogmL_177"></path>
<path d="M267.268 377.19C309.746 467.235 420.955 512.479 511 470" stroke="#0088FF" stroke-width="9" class="AIEnogmL_178"></path>
<path d="M144 630C144 601.833 121.167 579 93 579C64.8335 579 42 601.833 42 630" stroke="#103957" stroke-width="8" class="AIEnogmL_179"></path>
<path d="M124 630C124 612.879 109.897 599 92.5 599C75.103 599 61 612.879 61 630" stroke="#103957" stroke-width="6" class="AIEnogmL_180"></path>
<path d="M56.328 422.43C67.4152 459.466 106.427 480.502 143.463 469.414C180.499 458.327 201.534 419.316 190.447 382.28" stroke="#103957" stroke-width="2" class="AIEnogmL_181"></path>
<path d="M159.564 333.573C159.564 333.573 151.442 326.663 143.743 327.638" stroke="#103957" stroke-width="2" class="AIEnogmL_182"></path>
<path d="M139.017 373.178L180.5 296.5L190.668 302.513" stroke="#103957" stroke-width="2" class="AIEnogmL_183"></path>
<path d="M214.215 297.584C222.006 302.292 224.505 312.424 219.798 320.215C215.09 328.006 204.957 330.506 197.166 325.798C189.375 321.09 186.876 310.957 191.584 303.166C196.292 295.376 206.424 292.876 214.215 297.584Z" stroke="#103957" stroke-width="3" class="AIEnogmL_184"></path>
<path d="M211.735 301.688C217.26 305.026 219.032 312.211 215.693 317.735C212.355 323.26 205.171 325.032 199.646 321.693C194.122 318.355 192.35 311.171 195.688 305.646C199.026 300.122 206.211 298.35 211.735 301.688Z" stroke="#103957" stroke-width="3" class="AIEnogmL_185"></path>
<path d="M209.772 304.937C213.503 307.191 214.699 312.042 212.445 315.772C210.191 319.503 205.34 320.699 201.609 318.445C197.879 316.191 196.682 311.34 198.937 307.609C201.191 303.879 206.042 302.682 209.772 304.937Z" stroke="#103957" class="AIEnogmL_186"></path>
<path d="M142.28 325.911C143.433 326.607 143.803 328.107 143.106 329.26C142.409 330.413 140.91 330.783 139.756 330.086C138.603 329.39 138.233 327.89 138.93 326.737C139.627 325.584 141.127 325.214 142.28 325.911Z" stroke="#103957" stroke-width="2" class="AIEnogmL_187"></path>
<style data-made-with="vivus-instant">.AIEnogmL_0{stroke-dasharray:753 755;stroke-dashoffset:754;animation:AIEnogmL_draw 2000ms linear 0ms forwards;}.AIEnogmL_1{stroke-dasharray:569 571;stroke-dashoffset:570;animation:AIEnogmL_draw 2000ms linear 5ms forwards;}.AIEnogmL_2{stroke-dasharray:569 571;stroke-dashoffset:570;animation:AIEnogmL_draw 2000ms linear 10ms forwards;}.AIEnogmL_3{stroke-dasharray:190 192;stroke-dashoffset:191;animation:AIEnogmL_draw 2000ms linear 16ms forwards;}.AIEnogmL_4{stroke-dasharray:331 333;stroke-dashoffset:332;animation:AIEnogmL_draw 2000ms linear 21ms forwards;}.AIEnogmL_5{stroke-dasharray:235 237;stroke-dashoffset:236;animation:AIEnogmL_draw 2000ms linear 26ms forwards;}.AIEnogmL_6{stroke-dasharray:245 247;stroke-dashoffset:246;animation:AIEnogmL_draw 2000ms linear 32ms forwards;}.AIEnogmL_7{stroke-dasharray:322 324;stroke-dashoffset:323;animation:AIEnogmL_draw 2000ms linear 37ms forwards;}.AIEnogmL_8{stroke-dasharray:322 324;stroke-dashoffset:323;animation:AIEnogmL_draw 2000ms linear 42ms forwards;}.AIEnogmL_9{stroke-dasharray:154 156;stroke-dashoffset:155;animation:AIEnogmL_draw 2000ms linear 48ms forwards;}.AIEnogmL_10{stroke-dasharray:17 19;stroke-dashoffset:18;animation:AIEnogmL_draw 2000ms linear 53ms forwards;}.AIEnogmL_11{stroke-dasharray:17 19;stroke-dashoffset:18;animation:AIEnogmL_draw 2000ms linear 58ms forwards;}.AIEnogmL_12{stroke-dasharray:17 19;stroke-dashoffset:18;animation:AIEnogmL_draw 2000ms linear 64ms forwards;}.AIEnogmL_13{stroke-dasharray:17 19;stroke-dashoffset:18;animation:AIEnogmL_draw 2000ms linear 69ms forwards;}.AIEnogmL_14{stroke-dasharray:17 19;stroke-dashoffset:18;animation:AIEnogmL_draw 2000ms linear 74ms forwards;}.AIEnogmL_15{stroke-dasharray:17 19;stroke-dashoffset:18;animation:AIEnogmL_draw 2000ms linear 80ms forwards;}.AIEnogmL_16{stroke-dasharray:17 19;stroke-dashoffset:18;animation:AIEnogmL_draw 2000ms linear 85ms forwards;}.AIEnogmL_17{stroke-dasharray:17 19;stroke-dashoffset:18;animation:AIEnogmL_draw 2000ms linear 90ms forwards;}.AIEnogmL_18{stroke-dasharray:17 19;stroke-dashoffset:18;animation:AIEnogmL_draw 2000ms linear 96ms forwards;}.AIEnogmL_19{stroke-dasharray:17 19;stroke-dashoffset:18;animation:AIEnogmL_draw 2000ms linear 101ms forwards;}.AIEnogmL_20{stroke-dasharray:17 19;stroke-dashoffset:18;animation:AIEnogmL_draw 2000ms linear 106ms forwards;}.AIEnogmL_21{stroke-dasharray:35 37;stroke-dashoffset:36;animation:AIEnogmL_draw 2000ms linear 112ms forwards;}.AIEnogmL_22{stroke-dasharray:44 46;stroke-dashoffset:45;animation:AIEnogmL_draw 2000ms linear 117ms forwards;}.AIEnogmL_23{stroke-dasharray:52 54;stroke-dashoffset:53;animation:AIEnogmL_draw 2000ms linear 122ms forwards;}.AIEnogmL_24{stroke-dasharray:205 207;stroke-dashoffset:206;animation:AIEnogmL_draw 2000ms linear 128ms forwards;}.AIEnogmL_25{stroke-dasharray:151 153;stroke-dashoffset:152;animation:AIEnogmL_draw 2000ms linear 133ms forwards;}.AIEnogmL_26{stroke-dasharray:96 98;stroke-dashoffset:97;animation:AIEnogmL_draw 2000ms linear 139ms forwards;}.AIEnogmL_27{stroke-dasharray:22 24;stroke-dashoffset:23;animation:AIEnogmL_draw 2000ms linear 144ms forwards;}.AIEnogmL_28{stroke-dasharray:22 24;stroke-dashoffset:23;animation:AIEnogmL_draw 2000ms linear 149ms forwards;}.AIEnogmL_29{stroke-dasharray:22 24;stroke-dashoffset:23;animation:AIEnogmL_draw 2000ms linear 155ms forwards;}.AIEnogmL_30{stroke-dasharray:22 24;stroke-dashoffset:23;animation:AIEnogmL_draw 2000ms linear 160ms forwards;}.AIEnogmL_31{stroke-dasharray:22 24;stroke-dashoffset:23;animation:AIEnogmL_draw 2000ms linear 165ms forwards;}.AIEnogmL_32{stroke-dasharray:22 24;stroke-dashoffset:23;animation:AIEnogmL_draw 2000ms linear 171ms forwards;}.AIEnogmL_33{stroke-dasharray:22 24;stroke-dashoffset:23;animation:AIEnogmL_draw 2000ms linear 176ms forwards;}.AIEnogmL_34{stroke-dasharray:22 24;stroke-dashoffset:23;animation:AIEnogmL_draw 2000ms linear 181ms forwards;}.AIEnogmL_35{stroke-dasharray:22 24;stroke-dashoffset:23;animation:AIEnogmL_draw 2000ms linear 187ms forwards;}.AIEnogmL_36{stroke-dasharray:22 24;stroke-dashoffset:23;animation:AIEnogmL_draw 2000ms linear 192ms forwards;}.AIEnogmL_37{stroke-dasharray:22 24;stroke-dashoffset:23;animation:AIEnogmL_draw 2000ms linear 197ms forwards;}.AIEnogmL_38{stroke-dasharray:22 24;stroke-dashoffset:23;animation:AIEnogmL_draw 2000ms linear 203ms forwards;}.AIEnogmL_39{stroke-dasharray:22 24;stroke-dashoffset:23;animation:AIEnogmL_draw 2000ms linear 208ms forwards;}.AIEnogmL_40{stroke-dasharray:22 24;stroke-dashoffset:23;animation:AIEnogmL_draw 2000ms linear 213ms forwards;}.AIEnogmL_41{stroke-dasharray:22 24;stroke-dashoffset:23;animation:AIEnogmL_draw 2000ms linear 219ms forwards;}.AIEnogmL_42{stroke-dasharray:22 24;stroke-dashoffset:23;animation:AIEnogmL_draw 2000ms linear 224ms forwards;}.AIEnogmL_43{stroke-dasharray:22 24;stroke-dashoffset:23;animation:AIEnogmL_draw 2000ms linear 229ms forwards;}.AIEnogmL_44{stroke-dasharray:22 24;stroke-dashoffset:23;animation:AIEnogmL_draw 2000ms linear 235ms forwards;}.AIEnogmL_45{stroke-dasharray:22 24;stroke-dashoffset:23;animation:AIEnogmL_draw 2000ms linear 240ms forwards;}.AIEnogmL_46{stroke-dasharray:22 24;stroke-dashoffset:23;animation:AIEnogmL_draw 2000ms linear 245ms forwards;}.AIEnogmL_47{stroke-dasharray:22 24;stroke-dashoffset:23;animation:AIEnogmL_draw 2000ms linear 251ms forwards;}.AIEnogmL_48{stroke-dasharray:22 24;stroke-dashoffset:23;animation:AIEnogmL_draw 2000ms linear 256ms forwards;}.AIEnogmL_49{stroke-dasharray:22 24;stroke-dashoffset:23;animation:AIEnogmL_draw 2000ms linear 262ms forwards;}.AIEnogmL_50{stroke-dasharray:22 24;stroke-dashoffset:23;animation:AIEnogmL_draw 2000ms linear 267ms forwards;}.AIEnogmL_51{stroke-dasharray:22 24;stroke-dashoffset:23;animation:AIEnogmL_draw 2000ms linear 272ms forwards;}.AIEnogmL_52{stroke-dasharray:22 24;stroke-dashoffset:23;animation:AIEnogmL_draw 2000ms linear 278ms forwards;}.AIEnogmL_53{stroke-dasharray:22 24;stroke-dashoffset:23;animation:AIEnogmL_draw 2000ms linear 283ms forwards;}.AIEnogmL_54{stroke-dasharray:22 24;stroke-dashoffset:23;animation:AIEnogmL_draw 2000ms linear 288ms forwards;}.AIEnogmL_55{stroke-dasharray:22 24;stroke-dashoffset:23;animation:AIEnogmL_draw 2000ms linear 294ms forwards;}.AIEnogmL_56{stroke-dasharray:22 24;stroke-dashoffset:23;animation:AIEnogmL_draw 2000ms linear 299ms forwards;}.AIEnogmL_57{stroke-dasharray:22 24;stroke-dashoffset:23;animation:AIEnogmL_draw 2000ms linear 304ms forwards;}.AIEnogmL_58{stroke-dasharray:22 24;stroke-dashoffset:23;animation:AIEnogmL_draw 2000ms linear 310ms forwards;}.AIEnogmL_59{stroke-dasharray:22 24;stroke-dashoffset:23;animation:AIEnogmL_draw 2000ms linear 315ms forwards;}.AIEnogmL_60{stroke-dasharray:22 24;stroke-dashoffset:23;animation:AIEnogmL_draw 2000ms linear 320ms forwards;}.AIEnogmL_61{stroke-dasharray:22 24;stroke-dashoffset:23;animation:AIEnogmL_draw 2000ms linear 326ms forwards;}.AIEnogmL_62{stroke-dasharray:22 24;stroke-dashoffset:23;animation:AIEnogmL_draw 2000ms linear 331ms forwards;}.AIEnogmL_63{stroke-dasharray:22 24;stroke-dashoffset:23;animation:AIEnogmL_draw 2000ms linear 336ms forwards;}.AIEnogmL_64{stroke-dasharray:22 24;stroke-dashoffset:23;animation:AIEnogmL_draw 2000ms linear 342ms forwards;}.AIEnogmL_65{stroke-dasharray:22 24;stroke-dashoffset:23;animation:AIEnogmL_draw 2000ms linear 347ms forwards;}.AIEnogmL_66{stroke-dasharray:22 24;stroke-dashoffset:23;animation:AIEnogmL_draw 2000ms linear 352ms forwards;}.AIEnogmL_67{stroke-dasharray:22 24;stroke-dashoffset:23;animation:AIEnogmL_draw 2000ms linear 358ms forwards;}.AIEnogmL_68{stroke-dasharray:22 24;stroke-dashoffset:23;animation:AIEnogmL_draw 2000ms linear 363ms forwards;}.AIEnogmL_69{stroke-dasharray:22 24;stroke-dashoffset:23;animation:AIEnogmL_draw 2000ms linear 368ms forwards;}.AIEnogmL_70{stroke-dasharray:22 24;stroke-dashoffset:23;animation:AIEnogmL_draw 2000ms linear 374ms forwards;}.AIEnogmL_71{stroke-dasharray:22 24;stroke-dashoffset:23;animation:AIEnogmL_draw 2000ms linear 379ms forwards;}.AIEnogmL_72{stroke-dasharray:22 24;stroke-dashoffset:23;animation:AIEnogmL_draw 2000ms linear 385ms forwards;}.AIEnogmL_73{stroke-dasharray:22 24;stroke-dashoffset:23;animation:AIEnogmL_draw 2000ms linear 390ms forwards;}.AIEnogmL_74{stroke-dasharray:22 24;stroke-dashoffset:23;animation:AIEnogmL_draw 2000ms linear 395ms forwards;}.AIEnogmL_75{stroke-dasharray:22 24;stroke-dashoffset:23;animation:AIEnogmL_draw 2000ms linear 401ms forwards;}.AIEnogmL_76{stroke-dasharray:22 24;stroke-dashoffset:23;animation:AIEnogmL_draw 2000ms linear 406ms forwards;}.AIEnogmL_77{stroke-dasharray:22 24;stroke-dashoffset:23;animation:AIEnogmL_draw 2000ms linear 411ms forwards;}.AIEnogmL_78{stroke-dasharray:22 24;stroke-dashoffset:23;animation:AIEnogmL_draw 2000ms linear 417ms forwards;}.AIEnogmL_79{stroke-dasharray:22 24;stroke-dashoffset:23;animation:AIEnogmL_draw 2000ms linear 422ms forwards;}.AIEnogmL_80{stroke-dasharray:22 24;stroke-dashoffset:23;animation:AIEnogmL_draw 2000ms linear 427ms forwards;}.AIEnogmL_81{stroke-dasharray:22 24;stroke-dashoffset:23;animation:AIEnogmL_draw 2000ms linear 433ms forwards;}.AIEnogmL_82{stroke-dasharray:22 24;stroke-dashoffset:23;animation:AIEnogmL_draw 2000ms linear 438ms forwards;}.AIEnogmL_83{stroke-dasharray:22 24;stroke-dashoffset:23;animation:AIEnogmL_draw 2000ms linear 443ms forwards;}.AIEnogmL_84{stroke-dasharray:22 24;stroke-dashoffset:23;animation:AIEnogmL_draw 2000ms linear 449ms forwards;}.AIEnogmL_85{stroke-dasharray:22 24;stroke-dashoffset:23;animation:AIEnogmL_draw 2000ms linear 454ms forwards;}.AIEnogmL_86{stroke-dasharray:22 24;stroke-dashoffset:23;animation:AIEnogmL_draw 2000ms linear 459ms forwards;}.AIEnogmL_87{stroke-dasharray:22 24;stroke-dashoffset:23;animation:AIEnogmL_draw 2000ms linear 465ms forwards;}.AIEnogmL_88{stroke-dasharray:22 24;stroke-dashoffset:23;animation:AIEnogmL_draw 2000ms linear 470ms forwards;}.AIEnogmL_89{stroke-dasharray:22 24;stroke-dashoffset:23;animation:AIEnogmL_draw 2000ms linear 475ms forwards;}.AIEnogmL_90{stroke-dasharray:22 24;stroke-dashoffset:23;animation:AIEnogmL_draw 2000ms linear 481ms forwards;}.AIEnogmL_91{stroke-dasharray:22 24;stroke-dashoffset:23;animation:AIEnogmL_draw 2000ms linear 486ms forwards;}.AIEnogmL_92{stroke-dasharray:22 24;stroke-dashoffset:23;animation:AIEnogmL_draw 2000ms linear 491ms forwards;}.AIEnogmL_93{stroke-dasharray:22 24;stroke-dashoffset:23;animation:AIEnogmL_draw 2000ms linear 497ms forwards;}.AIEnogmL_94{stroke-dasharray:22 24;stroke-dashoffset:23;animation:AIEnogmL_draw 2000ms linear 502ms forwards;}.AIEnogmL_95{stroke-dasharray:22 24;stroke-dashoffset:23;animation:AIEnogmL_draw 2000ms linear 508ms forwards;}.AIEnogmL_96{stroke-dasharray:22 24;stroke-dashoffset:23;animation:AIEnogmL_draw 2000ms linear 513ms forwards;}.AIEnogmL_97{stroke-dasharray:22 24;stroke-dashoffset:23;animation:AIEnogmL_draw 2000ms linear 518ms forwards;}.AIEnogmL_98{stroke-dasharray:22 24;stroke-dashoffset:23;animation:AIEnogmL_draw 2000ms linear 524ms forwards;}.AIEnogmL_99{stroke-dasharray:55 57;stroke-dashoffset:56;animation:AIEnogmL_draw 2000ms linear 529ms forwards;}.AIEnogmL_100{stroke-dasharray:55 57;stroke-dashoffset:56;animation:AIEnogmL_draw 2000ms linear 534ms forwards;}.AIEnogmL_101{stroke-dasharray:55 57;stroke-dashoffset:56;animation:AIEnogmL_draw 2000ms linear 540ms forwards;}.AIEnogmL_102{stroke-dasharray:55 57;stroke-dashoffset:56;animation:AIEnogmL_draw 2000ms linear 545ms forwards;}.AIEnogmL_103{stroke-dasharray:55 57;stroke-dashoffset:56;animation:AIEnogmL_draw 2000ms linear 550ms forwards;}.AIEnogmL_104{stroke-dasharray:55 57;stroke-dashoffset:56;animation:AIEnogmL_draw 2000ms linear 556ms forwards;}.AIEnogmL_105{stroke-dasharray:55 57;stroke-dashoffset:56;animation:AIEnogmL_draw 2000ms linear 561ms forwards;}.AIEnogmL_106{stroke-dasharray:55 57;stroke-dashoffset:56;animation:AIEnogmL_draw 2000ms linear 566ms forwards;}.AIEnogmL_107{stroke-dasharray:55 57;stroke-dashoffset:56;animation:AIEnogmL_draw 2000ms linear 572ms forwards;}.AIEnogmL_108{stroke-dasharray:55 57;stroke-dashoffset:56;animation:AIEnogmL_draw 2000ms linear 577ms forwards;}.AIEnogmL_109{stroke-dasharray:55 57;stroke-dashoffset:56;animation:AIEnogmL_draw 2000ms linear 582ms forwards;}.AIEnogmL_110{stroke-dasharray:55 57;stroke-dashoffset:56;animation:AIEnogmL_draw 2000ms linear 588ms forwards;}.AIEnogmL_111{stroke-dasharray:55 57;stroke-dashoffset:56;animation:AIEnogmL_draw 2000ms linear 593ms forwards;}.AIEnogmL_112{stroke-dasharray:55 57;stroke-dashoffset:56;animation:AIEnogmL_draw 2000ms linear 598ms forwards;}.AIEnogmL_113{stroke-dasharray:55 57;stroke-dashoffset:56;animation:AIEnogmL_draw 2000ms linear 604ms forwards;}.AIEnogmL_114{stroke-dasharray:55 57;stroke-dashoffset:56;animation:AIEnogmL_draw 2000ms linear 609ms forwards;}.AIEnogmL_115{stroke-dasharray:55 57;stroke-dashoffset:56;animation:AIEnogmL_draw 2000ms linear 614ms forwards;}.AIEnogmL_116{stroke-dasharray:55 57;stroke-dashoffset:56;animation:AIEnogmL_draw 2000ms linear 620ms forwards;}.AIEnogmL_117{stroke-dasharray:55 57;stroke-dashoffset:56;animation:AIEnogmL_draw 2000ms linear 625ms forwards;}.AIEnogmL_118{stroke-dasharray:55 57;stroke-dashoffset:56;animation:AIEnogmL_draw 2000ms linear 631ms forwards;}.AIEnogmL_119{stroke-dasharray:55 57;stroke-dashoffset:56;animation:AIEnogmL_draw 2000ms linear 636ms forwards;}.AIEnogmL_120{stroke-dasharray:55 57;stroke-dashoffset:56;animation:AIEnogmL_draw 2000ms linear 641ms forwards;}.AIEnogmL_121{stroke-dasharray:55 57;stroke-dashoffset:56;animation:AIEnogmL_draw 2000ms linear 647ms forwards;}.AIEnogmL_122{stroke-dasharray:55 57;stroke-dashoffset:56;animation:AIEnogmL_draw 2000ms linear 652ms forwards;}.AIEnogmL_123{stroke-dasharray:55 57;stroke-dashoffset:56;animation:AIEnogmL_draw 2000ms linear 657ms forwards;}.AIEnogmL_124{stroke-dasharray:55 57;stroke-dashoffset:56;animation:AIEnogmL_draw 2000ms linear 663ms forwards;}.AIEnogmL_125{stroke-dasharray:55 57;stroke-dashoffset:56;animation:AIEnogmL_draw 2000ms linear 668ms forwards;}.AIEnogmL_126{stroke-dasharray:55 57;stroke-dashoffset:56;animation:AIEnogmL_draw 2000ms linear 673ms forwards;}.AIEnogmL_127{stroke-dasharray:55 57;stroke-dashoffset:56;animation:AIEnogmL_draw 2000ms linear 679ms forwards;}.AIEnogmL_128{stroke-dasharray:55 57;stroke-dashoffset:56;animation:AIEnogmL_draw 2000ms linear 684ms forwards;}.AIEnogmL_129{stroke-dasharray:55 57;stroke-dashoffset:56;animation:AIEnogmL_draw 2000ms linear 689ms forwards;}.AIEnogmL_130{stroke-dasharray:55 57;stroke-dashoffset:56;animation:AIEnogmL_draw 2000ms linear 695ms forwards;}.AIEnogmL_131{stroke-dasharray:55 57;stroke-dashoffset:56;animation:AIEnogmL_draw 2000ms linear 700ms forwards;}.AIEnogmL_132{stroke-dasharray:55 57;stroke-dashoffset:56;animation:AIEnogmL_draw 2000ms linear 705ms forwards;}.AIEnogmL_133{stroke-dasharray:55 57;stroke-dashoffset:56;animation:AIEnogmL_draw 2000ms linear 711ms forwards;}.AIEnogmL_134{stroke-dasharray:55 57;stroke-dashoffset:56;animation:AIEnogmL_draw 2000ms linear 716ms forwards;}.AIEnogmL_135{stroke-dasharray:55 57;stroke-dashoffset:56;animation:AIEnogmL_draw 2000ms linear 721ms forwards;}.AIEnogmL_136{stroke-dasharray:55 57;stroke-dashoffset:56;animation:AIEnogmL_draw 2000ms linear 727ms forwards;}.AIEnogmL_137{stroke-dasharray:55 57;stroke-dashoffset:56;animation:AIEnogmL_draw 2000ms linear 732ms forwards;}.AIEnogmL_138{stroke-dasharray:55 57;stroke-dashoffset:56;animation:AIEnogmL_draw 2000ms linear 737ms forwards;}.AIEnogmL_139{stroke-dasharray:55 57;stroke-dashoffset:56;animation:AIEnogmL_draw 2000ms linear 743ms forwards;}.AIEnogmL_140{stroke-dasharray:55 57;stroke-dashoffset:56;animation:AIEnogmL_draw 2000ms linear 748ms forwards;}.AIEnogmL_141{stroke-dasharray:55 57;stroke-dashoffset:56;animation:AIEnogmL_draw 2000ms linear 754ms forwards;}.AIEnogmL_142{stroke-dasharray:55 57;stroke-dashoffset:56;animation:AIEnogmL_draw 2000ms linear 759ms forwards;}.AIEnogmL_143{stroke-dasharray:55 57;stroke-dashoffset:56;animation:AIEnogmL_draw 2000ms linear 764ms forwards;}.AIEnogmL_144{stroke-dasharray:55 57;stroke-dashoffset:56;animation:AIEnogmL_draw 2000ms linear 770ms forwards;}.AIEnogmL_145{stroke-dasharray:55 57;stroke-dashoffset:56;animation:AIEnogmL_draw 2000ms linear 775ms forwards;}.AIEnogmL_146{stroke-dasharray:55 57;stroke-dashoffset:56;animation:AIEnogmL_draw 2000ms linear 780ms forwards;}.AIEnogmL_147{stroke-dasharray:55 57;stroke-dashoffset:56;animation:AIEnogmL_draw 2000ms linear 786ms forwards;}.AIEnogmL_148{stroke-dasharray:55 57;stroke-dashoffset:56;animation:AIEnogmL_draw 2000ms linear 791ms forwards;}.AIEnogmL_149{stroke-dasharray:55 57;stroke-dashoffset:56;animation:AIEnogmL_draw 2000ms linear 796ms forwards;}.AIEnogmL_150{stroke-dasharray:55 57;stroke-dashoffset:56;animation:AIEnogmL_draw 2000ms linear 802ms forwards;}.AIEnogmL_151{stroke-dasharray:55 57;stroke-dashoffset:56;animation:AIEnogmL_draw 2000ms linear 807ms forwards;}.AIEnogmL_152{stroke-dasharray:55 57;stroke-dashoffset:56;animation:AIEnogmL_draw 2000ms linear 812ms forwards;}.AIEnogmL_153{stroke-dasharray:55 57;stroke-dashoffset:56;animation:AIEnogmL_draw 2000ms linear 818ms forwards;}.AIEnogmL_154{stroke-dasharray:55 57;stroke-dashoffset:56;animation:AIEnogmL_draw 2000ms linear 823ms forwards;}.AIEnogmL_155{stroke-dasharray:55 57;stroke-dashoffset:56;animation:AIEnogmL_draw 2000ms linear 828ms forwards;}.AIEnogmL_156{stroke-dasharray:55 57;stroke-dashoffset:56;animation:AIEnogmL_draw 2000ms linear 834ms forwards;}.AIEnogmL_157{stroke-dasharray:55 57;stroke-dashoffset:56;animation:AIEnogmL_draw 2000ms linear 839ms forwards;}.AIEnogmL_158{stroke-dasharray:55 57;stroke-dashoffset:56;animation:AIEnogmL_draw 2000ms linear 844ms forwards;}.AIEnogmL_159{stroke-dasharray:55 57;stroke-dashoffset:56;animation:AIEnogmL_draw 2000ms linear 850ms forwards;}.AIEnogmL_160{stroke-dasharray:55 57;stroke-dashoffset:56;animation:AIEnogmL_draw 2000ms linear 855ms forwards;}.AIEnogmL_161{stroke-dasharray:55 57;stroke-dashoffset:56;animation:AIEnogmL_draw 2000ms linear 860ms forwards;}.AIEnogmL_162{stroke-dasharray:55 57;stroke-dashoffset:56;animation:AIEnogmL_draw 2000ms linear 866ms forwards;}.AIEnogmL_163{stroke-dasharray:55 57;stroke-dashoffset:56;animation:AIEnogmL_draw 2000ms linear 871ms forwards;}.AIEnogmL_164{stroke-dasharray:55 57;stroke-dashoffset:56;animation:AIEnogmL_draw 2000ms linear 877ms forwards;}.AIEnogmL_165{stroke-dasharray:55 57;stroke-dashoffset:56;animation:AIEnogmL_draw 2000ms linear 882ms forwards;}.AIEnogmL_166{stroke-dasharray:55 57;stroke-dashoffset:56;animation:AIEnogmL_draw 2000ms linear 887ms forwards;}.AIEnogmL_167{stroke-dasharray:55 57;stroke-dashoffset:56;animation:AIEnogmL_draw 2000ms linear 893ms forwards;}.AIEnogmL_168{stroke-dasharray:55 57;stroke-dashoffset:56;animation:AIEnogmL_draw 2000ms linear 898ms forwards;}.AIEnogmL_169{stroke-dasharray:55 57;stroke-dashoffset:56;animation:AIEnogmL_draw 2000ms linear 903ms forwards;}.AIEnogmL_170{stroke-dasharray:55 57;stroke-dashoffset:56;animation:AIEnogmL_draw 2000ms linear 909ms forwards;}.AIEnogmL_171{stroke-dasharray:619 621;stroke-dashoffset:620;animation:AIEnogmL_draw 2000ms linear 914ms forwards;}.AIEnogmL_172{stroke-dasharray:106 108;stroke-dashoffset:107;animation:AIEnogmL_draw 2000ms linear 919ms forwards;}.AIEnogmL_173{stroke-dasharray:84 86;stroke-dashoffset:85;animation:AIEnogmL_draw 2000ms linear 925ms forwards;}.AIEnogmL_174{stroke-dasharray:64 66;stroke-dashoffset:65;animation:AIEnogmL_draw 2000ms linear 930ms forwards;}.AIEnogmL_175{stroke-dasharray:42 44;stroke-dashoffset:43;animation:AIEnogmL_draw 2000ms linear 935ms forwards;}.AIEnogmL_176{stroke-dasharray:271 273;stroke-dashoffset:272;animation:AIEnogmL_draw 2000ms linear 941ms forwards;}.AIEnogmL_177{stroke-dasharray:246 248;stroke-dashoffset:247;animation:AIEnogmL_draw 2000ms linear 946ms forwards;}.AIEnogmL_178{stroke-dasharray:289 291;stroke-dashoffset:290;animation:AIEnogmL_draw 2000ms linear 951ms forwards;}.AIEnogmL_179{stroke-dasharray:161 163;stroke-dashoffset:162;animation:AIEnogmL_draw 2000ms linear 957ms forwards;}.AIEnogmL_180{stroke-dasharray:99 101;stroke-dashoffset:100;animation:AIEnogmL_draw 2000ms linear 962ms forwards;}.AIEnogmL_181{stroke-dasharray:220 222;stroke-dashoffset:221;animation:AIEnogmL_draw 2000ms linear 967ms forwards;}.AIEnogmL_182{stroke-dasharray:18 20;stroke-dashoffset:19;animation:AIEnogmL_draw 2000ms linear 973ms forwards;}.AIEnogmL_183{stroke-dasharray:99 101;stroke-dashoffset:100;animation:AIEnogmL_draw 2000ms linear 978ms forwards;}.AIEnogmL_184{stroke-dasharray:104 106;stroke-dashoffset:105;animation:AIEnogmL_draw 2000ms linear 983ms forwards;}.AIEnogmL_185{stroke-dasharray:74 76;stroke-dashoffset:75;animation:AIEnogmL_draw 2000ms linear 989ms forwards;}.AIEnogmL_186{stroke-dasharray:50 52;stroke-dashoffset:51;animation:AIEnogmL_draw 2000ms linear 994ms forwards;}.AIEnogmL_187{stroke-dasharray:16 18;stroke-dashoffset:17;animation:AIEnogmL_draw 2000ms linear 1000ms forwards;}@keyframes AIEnogmL_draw{100%{stroke-dashoffset:0;}}@keyframes AIEnogmL_fade{0%{stroke-opacity:1;}94.44444444444444%{stroke-opacity:1;}100%{stroke-opacity:0;}}</style></svg>
