<svg width="79" height="88" viewBox="0 0 79 88" fill="none" xmlns="http://www.w3.org/2000/svg">
<path d="M62.0652 61.6776L71.561 61.6776C74.5649 61.6776 77 59.2511 77 56.2473C77 44.1093 77 15.777 77 14.9844C77 14.732 71.3688 14.732 71.3688 14.732C71.3688 14.732 71.3688 14.732 71.3688 14.732L69.4628 14.732C66.459 14.732 64.0238 12.2977 64.0238 9.29381C64.0238 5.93921 64.0238 2.24887 64.0238 2.11218M64.0238 2.11218C64.0238 1.9205 42.7028 2.01995 32.4439 2.07889C29.4546 2.09607 27.0541 4.52476 27.0541 7.51412L27.0541 14.732M64.0238 2.11218L77 14.732" stroke="#0088FF" stroke-width="3"/>
<path d="M28.0443 76.2971L57.9771 76.2971C60.9809 76.2971 63.416 73.879 63.416 70.8752C63.416 58.3487 63.416 28.4017 63.416 27.6039C63.416 27.3515 57.6049 27.3515 57.6049 27.3515C57.6049 27.3515 57.6049 27.3515 57.6049 27.3515L55.4643 27.3515C52.4604 27.3515 50.0253 24.9172 50.0253 21.9133C50.0253 18.5587 50.0253 14.8684 50.0253 14.7317M50.0253 14.7317C50.0253 14.539 27.7805 14.6406 17.2628 14.6994C14.273 14.7161 11.8744 17.145 11.8744 20.1348L11.8744 58.0124M50.0253 14.7317L63.416 27.3515M52.0465 35.9329L23.4965 35.9329M52.0465 44.4211L23.4965 44.4211M52.0465 53.0026L23.4965 53.0026M52.0465 61.3317L23.4965 61.3317M11.8744 64.0604L11.8744 87.8143M23.4965 76.2971L-0.000431761 76.2971" stroke="#103957" stroke-width="3"/>
</svg>
