<svg width="954" height="976" viewBox="0 0 954 976" fill="none" xmlns="http://www.w3.org/2000/svg">
<path d="M579.5 735.001L424.994 735.001L412 695.001" stroke="white" stroke-width="10"/>
<path d="M609 746L609 834.5" stroke="white" stroke-width="10"/>
<path d="M207.389 681.141C207.389 681.141 182.838 664.228 172.792 647.343" stroke="#0088FF" stroke-width="2"/>
<path d="M527.406 618.626C456.889 711.338 325.565 730.089 234.086 660.51C142.607 590.93 125.613 459.367 196.13 366.656" stroke="white" stroke-width="10"/>
<path d="M408.933 623.334C337.567 650.603 257.877 615.562 230.94 545.066C204.003 474.57 240.02 395.316 311.386 368.046" stroke="white" stroke-width="10"/>
<path d="M318.772 658.888C225.995 632.154 172.457 535.27 199.191 442.493" stroke="#0088FF" stroke-width="18" stroke-linejoin="round"/>
<path d="M424.212 323C516.86 350.18 569.933 447.319 542.753 539.967" stroke="white" stroke-width="18" stroke-linejoin="round"/>
<path d="M257.5 617L189.64 705.055L208.044 719.054" stroke="#0088FF" stroke-width="2"/>
<path d="M214.171 754.402C225.062 762.686 240.606 760.572 248.89 749.681C257.174 738.79 255.06 723.246 244.169 714.962C233.278 706.678 217.734 708.792 209.45 719.683C201.166 730.574 203.28 746.118 214.171 754.402Z" stroke="#0088FF" stroke-width="3"/>
<path d="M218.413 748.825C226.224 754.766 237.372 753.25 243.313 745.439C249.254 737.628 247.738 726.48 239.927 720.539C232.116 714.598 220.968 716.114 215.027 723.925C209.086 731.736 210.602 742.884 218.413 748.825Z" stroke="#0088FF" stroke-width="3"/>
<path d="M591.852 757.907C604.417 767.464 622.35 765.025 631.907 752.461C641.464 739.896 639.025 721.963 626.461 712.406C613.896 702.849 595.963 705.288 586.406 717.852C576.849 730.417 579.288 748.35 591.852 757.907Z" stroke="white" stroke-width="3"/>
<path d="M600.88 743.15C606.611 747.509 614.791 746.397 619.15 740.666C623.509 734.935 622.397 726.755 616.666 722.396C610.935 718.037 602.755 719.149 598.396 724.88C594.037 730.611 595.149 738.791 600.88 743.15Z" stroke="white" stroke-width="5"/>
<path d="M222.655 743.248C227.385 746.846 234.138 745.928 237.736 741.197C241.334 736.467 240.416 729.715 235.685 726.116C230.954 722.518 224.202 723.436 220.604 728.167C217.006 732.898 217.924 739.65 222.655 743.248Z" stroke="#0088FF" stroke-width="3"/>
<path d="M163.591 646.131C167.001 648.725 171.869 648.063 174.463 644.652C177.057 641.242 176.395 636.374 172.985 633.78C169.574 631.186 164.706 631.848 162.112 635.258C159.518 638.669 160.18 643.536 163.591 646.131Z" stroke="#0088FF" stroke-width="2"/>
<path d="M364.055 383.646L362.632 329.283" stroke="white"/>
<path d="M371.197 656.548L369.774 602.185" stroke="white"/>
<path d="M354.542 384.31L348.387 330.278" stroke="white"/>
<path d="M385.441 655.551L379.286 601.519" stroke="white"/>
<path d="M345.124 385.802L334.283 332.512" stroke="white"/>
<path d="M399.546 653.318L388.705 600.028" stroke="white"/>
<path d="M335.872 388.108L320.428 335.966" stroke="white"/>
<path d="M413.401 649.864L397.957 597.721" stroke="white"/>
<path d="M326.855 391.213L306.925 340.615" stroke="white"/>
<path d="M426.904 645.215L406.974 594.617" stroke="white"/>
<path d="M318.143 395.092L293.879 346.424" stroke="white"/>
<path d="M439.949 639.407L415.685 590.739" stroke="white"/>
<path d="M309.803 399.714L281.39 353.346" stroke="white"/>
<path d="M452.439 632.484L424.025 586.115" stroke="white"/>
<path d="M301.897 405.046L269.551 361.331" stroke="white"/>
<path d="M464.277 624.499L431.931 580.784" stroke="white"/>
<path d="M294.487 411.048L258.453 370.318" stroke="white"/>
<path d="M475.375 615.513L439.342 574.782" stroke="white"/>
<path d="M287.627 417.671L248.181 380.237" stroke="white"/>
<path d="M485.648 605.593L446.201 568.158" stroke="white"/>
<path d="M281.371 424.868L238.812 391.014" stroke="white"/>
<path d="M495.016 594.816L452.458 560.962" stroke="white"/>
<path d="M275.765 432.583L230.418 402.567" stroke="white"/>
<path d="M503.41 583.263L458.062 553.247" stroke="white"/>
<path d="M270.854 440.756L223.063 414.806" stroke="white"/>
<path d="M510.765 571.023L462.974 545.074" stroke="white"/>
<path d="M266.674 449.327L216.803 427.642" stroke="white"/>
<path d="M517.026 558.188L467.155 536.502" stroke="white"/>
<path d="M263.256 458.229L211.685 440.973" stroke="white"/>
<path d="M522.143 544.857L470.572 527.6" stroke="white"/>
<path d="M260.628 467.396L207.749 454.7" stroke="white"/>
<path d="M526.079 531.13L473.2 518.434" stroke="white"/>
<path d="M258.809 476.755L205.024 468.716" stroke="white"/>
<path d="M528.804 517.113L475.02 509.074" stroke="white"/>
<path d="M257.811 486.24L203.531 482.919" stroke="white"/>
<path d="M530.297 502.911L476.017 499.59" stroke="white"/>
<path d="M257.645 495.774L203.282 497.197" stroke="white"/>
<path d="M530.547 488.633L476.184 490.055" stroke="white"/>
<path d="M258.309 505.285L204.277 511.44" stroke="white"/>
<path d="M529.551 474.388L475.519 480.543" stroke="white"/>
<path d="M259.801 514.705L206.511 525.546" stroke="white"/>
<path d="M527.317 460.284L474.027 471.125" stroke="white"/>
<path d="M262.108 523.957L209.965 539.402" stroke="white"/>
<path d="M523.863 446.428L471.72 461.872" stroke="white"/>
<path d="M265.212 532.973L214.614 552.903" stroke="white"/>
<path d="M519.214 432.925L468.616 452.855" stroke="white"/>
<path d="M269.091 541.686L220.422 565.95" stroke="white"/>
<path d="M513.406 419.88L464.737 444.144" stroke="white"/>
<path d="M273.713 550.025L227.345 578.439" stroke="white"/>
<path d="M506.483 407.391L460.114 435.804" stroke="white"/>
<path d="M279.045 557.931L235.33 590.278" stroke="white"/>
<path d="M498.498 395.552L454.782 427.899" stroke="white"/>
<path d="M285.046 565.341L244.316 601.375" stroke="white"/>
<path d="M489.512 384.454L448.782 420.488" stroke="white"/>
<path d="M291.67 572.201L254.236 611.648" stroke="white"/>
<path d="M479.592 374.182L442.157 413.628" stroke="white"/>
<path d="M298.867 578.458L265.013 621.017" stroke="white"/>
<path d="M468.815 364.813L434.96 407.372" stroke="white"/>
<path d="M306.582 584.063L276.566 629.411" stroke="white"/>
<path d="M457.262 356.419L427.246 401.766" stroke="white"/>
<path d="M314.755 588.975L288.806 636.766" stroke="white"/>
<path d="M445.022 349.065L419.072 396.856" stroke="white"/>
<path d="M323.326 593.155L301.641 643.026" stroke="white"/>
<path d="M432.187 342.804L410.501 392.675" stroke="white"/>
<path d="M332.229 596.573L314.972 648.144" stroke="white"/>
<path d="M418.856 337.686L401.6 389.257" stroke="white"/>
<path d="M341.395 599.201L328.699 652.08" stroke="white"/>
<path d="M405.129 333.75L392.433 386.629" stroke="white"/>
<path d="M350.755 601.021L342.716 654.805" stroke="white"/>
<path d="M391.111 331.025L383.072 384.809" stroke="white"/>
<path d="M360.239 602.018L356.918 656.298" stroke="white"/>
<path d="M376.91 329.532L373.589 383.812" stroke="white"/>
<path d="M666.999 217L666.999 306L526.5 405" stroke="white" stroke-width="10"/>
<path d="M634 187C634 204.121 648.103 218 665.5 218C682.897 218 697 204.121 697 187" stroke="white" stroke-width="6"/>
<path d="M345.359 544.633L394.829 544.633C399.8 544.633 403.829 540.618 403.829 535.647C403.829 515.562 403.829 468.68 403.829 467.368C403.829 466.95 394.223 466.95 394.223 466.95C394.223 466.95 394.223 466.95 394.223 466.95L390.694 466.95C385.723 466.95 381.694 462.922 381.694 457.952C381.694 452.401 381.694 446.294 381.694 446.068M381.694 446.068C381.694 445.749 344.935 445.917 327.546 446.015C322.598 446.042 318.629 450.061 318.629 455.009L318.629 514.377M381.694 446.068L403.829 466.95M385.035 481.15L337.841 481.15M385.035 497.021L337.841 497.021M385.035 511.221L337.841 511.221M385.035 525.003L337.841 525.003M318.629 522.73L318.629 567M337.841 544.633L299 544.633" stroke="white" stroke-width="4"/>
<path d="M404.247 523.75L420.723 523.75C425.694 523.75 429.723 519.735 429.723 514.765C429.723 494.68 429.723 447.797 429.723 446.486C429.723 446.068 420.117 446.068 420.117 446.068C420.117 446.068 420.117 446.068 420.117 446.068L416.588 446.068C411.617 446.068 407.588 442.04 407.588 437.069C407.588 431.518 407.588 425.412 407.588 425.186M407.588 425.186C407.588 424.867 370.829 425.035 353.44 425.132C348.492 425.16 344.523 429.179 344.523 434.126L344.523 446.068M407.588 425.186L429.723 446.068" stroke="white" stroke-width="4"/>
</svg>
