<svg width="733" height="630" viewBox="0 0 733 630" fill="none" xmlns="http://www.w3.org/2000/svg">
<path d="M447 529C580.101 529 688 422.444 688 291C688 159.556 580.101 53 447 53" stroke="#103957" stroke-width="10"/>
<path d="M546.776 445.599C632.237 392.547 659.035 281.105 606.629 196.686C554.224 112.267 442.461 86.8391 357 139.891" stroke="#103957" stroke-width="10"/>
<path d="M546.776 445.599C632.237 392.547 659.035 281.105 606.629 196.686C554.224 112.267 442.461 86.8391 357 139.891" stroke="#103957" stroke-width="10"/>
<path d="M293.232 349.463C318.16 411.953 373.401 453.178 434.868 462.613" stroke="#0088FF" stroke-width="10"/>
<path d="M645.095 368.084C687.063 259.784 633.29 137.968 524.99 96" stroke="#103957" stroke-width="18" stroke-linejoin="round"/>
<path d="M289 161.164C341.203 96.9694 423.437 71.5806 499 88.7784" stroke="#0088FF" stroke-width="18" stroke-linejoin="round"/>
<path d="M677.5 164C635 68.5 521 37.5 521 37.5V0.5" stroke="#103957" stroke-width="12"/>
<path d="M139 578.5V532H6.5V437L64.5 423.5L109 410" stroke="#103957" stroke-width="12"/>
<path d="M310.5 421L222 509L201.5 489" stroke="#0088FF" stroke-width="9"/>
<path d="M226 518L238 530" stroke="#103957" stroke-width="3"/>
<path d="M232 512L244 524" stroke="#103957" stroke-width="3"/>
<path d="M232 512L244 524" stroke="#103957" stroke-width="3"/>
<path d="M238 506L250 518" stroke="#103957" stroke-width="3"/>
<path d="M238 506L250 518" stroke="#103957" stroke-width="3"/>
<path d="M244 500L256 512" stroke="#103957" stroke-width="3"/>
<path d="M244 500L256 512" stroke="#103957" stroke-width="3"/>
<path d="M250 494L262 506" stroke="#103957" stroke-width="3"/>
<path d="M250 494L262 506" stroke="#103957" stroke-width="3"/>
<path d="M256 488L268 500" stroke="#103957" stroke-width="3"/>
<path d="M256 488L268 500" stroke="#103957" stroke-width="3"/>
<path d="M262 482L286.5 506.5" stroke="#103957" stroke-width="3"/>
<path d="M268 476L298.5 506.5" stroke="#103957" stroke-width="3"/>
<path d="M274 470L310.5 506.5" stroke="#103957" stroke-width="3"/>
<path d="M171.192 402.287C171.192 420.289 156.598 434.883 138.596 434.883C120.594 434.883 106 420.289 106 402.287C106 384.285 120.594 369.691 138.596 369.691C156.598 369.691 171.192 384.285 171.192 402.287Z" stroke="#103957" stroke-width="4"/>
<path d="M162.466 402.287C162.466 415.47 151.779 426.158 138.596 426.158C125.413 426.158 114.726 415.47 114.726 402.287C114.726 389.104 125.413 378.417 138.596 378.417C151.779 378.417 162.466 389.104 162.466 402.287Z" stroke="#103957" stroke-width="3"/>
<path d="M153.741 402.287C153.741 410.651 146.96 417.432 138.596 417.432C130.232 417.432 123.451 410.651 123.451 402.287C123.451 393.923 130.232 387.142 138.596 387.142C146.96 387.142 153.741 393.923 153.741 402.287Z" stroke="#103957" stroke-width="2"/>
<path d="M137.356 358.467L136.787 336.714" stroke="#103957"/>
<path d="M140.213 467.669L139.644 445.915" stroke="#103957"/>
<path d="M133.549 358.733L131.086 337.112" stroke="#103957"/>
<path d="M145.914 467.27L143.451 445.649" stroke="#103957"/>
<path d="M129.781 359.33L125.443 338.006" stroke="#103957"/>
<path d="M151.558 466.377L147.22 445.052" stroke="#103957"/>
<path d="M126.078 360.253L119.898 339.388" stroke="#103957"/>
<path d="M157.102 464.994L150.922 444.129" stroke="#103957"/>
<path d="M122.471 361.495L114.496 341.248" stroke="#103957"/>
<path d="M162.505 463.134L154.53 442.887" stroke="#103957"/>
<path d="M118.985 363.047L109.275 343.572" stroke="#103957"/>
<path d="M167.725 460.81L158.016 441.335" stroke="#103957"/>
<path d="M115.647 364.897L104.277 346.343" stroke="#103957"/>
<path d="M172.723 458.04L161.353 439.485" stroke="#103957"/>
<path d="M112.484 367.031L99.54 349.538" stroke="#103957"/>
<path d="M177.46 454.844L164.516 437.352" stroke="#103957"/>
<path d="M109.518 369.432L95.0996 353.134" stroke="#103957"/>
<path d="M181.901 451.249L167.482 434.95" stroke="#103957"/>
<path d="M106.773 372.083L90.9888 357.103" stroke="#103957"/>
<path d="M186.011 447.279L170.227 432.3" stroke="#103957"/>
<path d="M104.27 374.962L87.2402 361.416" stroke="#103957"/>
<path d="M189.76 442.967L172.73 429.42" stroke="#103957"/>
<path d="M102.027 378.049L83.8813 366.038" stroke="#103957"/>
<path d="M193.119 438.344L174.973 426.333" stroke="#103957"/>
<path d="M100.062 381.32L80.938 370.936" stroke="#103957"/>
<path d="M196.062 433.446L176.938 423.062" stroke="#103957"/>
<path d="M98.3889 384.75L78.4331 376.072" stroke="#103957"/>
<path d="M198.567 428.31L178.611 419.633" stroke="#103957"/>
<path d="M97.0214 388.312L76.3853 381.407" stroke="#103957"/>
<path d="M200.615 422.976L179.979 416.071" stroke="#103957"/>
<path d="M95.9695 391.98L74.8101 386.899" stroke="#103957"/>
<path d="M202.19 417.483L181.031 412.403" stroke="#103957"/>
<path d="M95.2414 395.725L73.7197 392.508" stroke="#103957"/>
<path d="M203.281 411.874L181.759 408.657" stroke="#103957"/>
<path d="M94.8427 399.52L73.1226 398.191" stroke="#103957"/>
<path d="M203.878 406.191L182.158 404.862" stroke="#103957"/>
<path d="M94.7758 403.335L73.0225 403.905" stroke="#103957"/>
<path d="M203.978 400.478L182.224 401.047" stroke="#103957"/>
<path d="M95.0419 407.142L73.4209 409.605" stroke="#103957"/>
<path d="M203.579 394.777L181.958 397.24" stroke="#103957"/>
<path d="M95.639 410.911L74.3149 415.249" stroke="#103957"/>
<path d="M202.686 389.134L181.362 393.472" stroke="#103957"/>
<path d="M96.5621 414.613L75.6973 420.793" stroke="#103957"/>
<path d="M201.303 383.589L180.438 389.769" stroke="#103957"/>
<path d="M97.8039 418.221L77.5571 426.196" stroke="#103957"/>
<path d="M199.443 378.186L179.196 386.161" stroke="#103957"/>
<path d="M99.356 421.707L79.8813 431.416" stroke="#103957"/>
<path d="M197.119 372.966L177.644 382.676" stroke="#103957"/>
<path d="M101.206 425.044L82.6514 436.414" stroke="#103957"/>
<path d="M194.349 367.969L175.794 379.338" stroke="#103957"/>
<path d="M103.339 428.208L85.8467 441.151" stroke="#103957"/>
<path d="M191.153 363.231L173.661 376.175" stroke="#103957"/>
<path d="M105.741 431.173L89.4429 445.592" stroke="#103957"/>
<path d="M187.558 358.79L171.26 373.209" stroke="#103957"/>
<path d="M108.392 433.918L93.4121 449.702" stroke="#103957"/>
<path d="M183.588 354.68L168.609 370.464" stroke="#103957"/>
<path d="M111.271 436.421L97.7246 453.451" stroke="#103957"/>
<path d="M179.276 350.931L165.729 367.961" stroke="#103957"/>
<path d="M114.358 438.664L102.347 456.81" stroke="#103957"/>
<path d="M174.653 347.572L162.642 365.718" stroke="#103957"/>
<path d="M117.629 440.63L107.245 459.753" stroke="#103957"/>
<path d="M169.755 344.629L159.371 363.753" stroke="#103957"/>
<path d="M121.058 442.302L112.381 462.258" stroke="#103957"/>
<path d="M164.619 342.124L155.942 362.08" stroke="#103957"/>
<path d="M124.621 443.67L117.715 464.306" stroke="#103957"/>
<path d="M159.285 340.076L152.379 360.712" stroke="#103957"/>
<path d="M128.289 444.722L123.208 465.881" stroke="#103957"/>
<path d="M153.792 338.501L148.712 359.661" stroke="#103957"/>
<path d="M132.034 445.45L128.817 466.972" stroke="#103957"/>
<path d="M148.183 337.411L144.966 358.933" stroke="#103957"/>
<path d="M135.829 445.849L134.5 467.569" stroke="#103957"/>
<path d="M142.5 336.813L141.171 358.534" stroke="#103957"/>
<path d="M459 180.153V126" stroke="#103957"/>
<path d="M459 452V397.847" stroke="#103957"/>
<path d="M449.513 180.567L444.794 126.62" stroke="#103957"/>
<path d="M473.207 451.38L468.487 397.433" stroke="#103957"/>
<path d="M440.099 181.807L430.695 128.477" stroke="#103957"/>
<path d="M487.305 449.524L477.901 396.194" stroke="#103957"/>
<path d="M430.828 183.862L416.812 131.554" stroke="#103957"/>
<path d="M501.187 446.446L487.172 394.138" stroke="#103957"/>
<path d="M421.772 186.717L403.251 135.83" stroke="#103957"/>
<path d="M514.749 442.17L496.228 391.283" stroke="#103957"/>
<path d="M412.999 190.351L390.113 141.272" stroke="#103957"/>
<path d="M527.887 436.728L505.001 387.649" stroke="#103957"/>
<path d="M404.576 194.736L377.5 147.838" stroke="#103957"/>
<path d="M540.5 430.162L513.424 383.265" stroke="#103957"/>
<path d="M396.568 199.838L365.507 155.478" stroke="#103957"/>
<path d="M552.493 422.522L521.432 378.163" stroke="#103957"/>
<path d="M389.034 205.618L354.226 164.135" stroke="#103957"/>
<path d="M563.774 413.865L528.966 372.382" stroke="#103957"/>
<path d="M382.034 212.034L343.742 173.742" stroke="#103957"/>
<path d="M574.259 404.259L535.967 365.967" stroke="#103957"/>
<path d="M375.618 219.034L334.135 184.226" stroke="#103957"/>
<path d="M583.865 393.774L542.382 358.966" stroke="#103957"/>
<path d="M369.838 226.568L325.478 195.507" stroke="#103957"/>
<path d="M592.522 382.493L548.162 351.432" stroke="#103957"/>
<path d="M364.736 234.577L317.838 207.5" stroke="#103957"/>
<path d="M600.162 370.5L553.264 343.424" stroke="#103957"/>
<path d="M360.351 242.999L311.272 220.113" stroke="#103957"/>
<path d="M606.728 357.887L557.649 335.001" stroke="#103957"/>
<path d="M356.717 251.772L305.83 233.251" stroke="#103957"/>
<path d="M612.17 344.749L561.283 326.228" stroke="#103957"/>
<path d="M353.862 260.828L301.554 246.813" stroke="#103957"/>
<path d="M616.446 331.188L564.138 317.172" stroke="#103957"/>
<path d="M351.806 270.099L298.476 260.695" stroke="#103957"/>
<path d="M619.524 317.305L566.194 307.901" stroke="#103957"/>
<path d="M350.567 279.513L296.62 274.794" stroke="#103957"/>
<path d="M621.38 303.207L567.433 298.487" stroke="#103957"/>
<path d="M350.153 289H296" stroke="#103957"/>
<path d="M622 289H567.847" stroke="#103957"/>
<path d="M350.567 298.487L296.62 303.206" stroke="#103957"/>
<path d="M621.38 274.794L567.433 279.513" stroke="#103957"/>
<path d="M351.806 307.901L298.476 317.305" stroke="#103957"/>
<path d="M619.524 260.696L566.194 270.099" stroke="#103957"/>
<path d="M353.862 317.172L301.554 331.188" stroke="#103957"/>
<path d="M616.446 246.813L564.138 260.829" stroke="#103957"/>
<path d="M356.717 326.227L305.83 344.748" stroke="#103957"/>
<path d="M612.17 233.251L561.283 251.772" stroke="#103957"/>
<path d="M360.351 335.001L311.272 357.887" stroke="#103957"/>
<path d="M606.728 220.113L557.649 242.999" stroke="#103957"/>
<path d="M364.736 343.424L317.838 370.5" stroke="#103957"/>
<path d="M600.162 207.5L553.264 234.577" stroke="#103957"/>
<path d="M369.837 351.432L325.478 382.492" stroke="#103957"/>
<path d="M592.522 195.507L548.162 226.568" stroke="#103957"/>
<path d="M375.618 358.965L334.134 393.774" stroke="#103957"/>
<path d="M583.865 184.226L542.382 219.035" stroke="#103957"/>
<path d="M382.033 365.966L343.741 404.258" stroke="#103957"/>
<path d="M574.258 173.742L535.967 212.034" stroke="#103957"/>
<path d="M389.034 372.382L354.226 413.865" stroke="#103957"/>
<path d="M563.774 164.135L528.966 205.618" stroke="#103957"/>
<path d="M396.568 378.163L365.507 422.522" stroke="#103957"/>
<path d="M552.493 155.478L521.432 199.838" stroke="#103957"/>
<path d="M404.576 383.265L377.5 430.162" stroke="#103957"/>
<path d="M540.5 147.838L513.424 194.736" stroke="#103957"/>
<path d="M412.999 387.649L390.113 436.728" stroke="#103957"/>
<path d="M527.887 141.272L505.001 190.351" stroke="#103957"/>
<path d="M421.772 391.283L403.251 442.17" stroke="#103957"/>
<path d="M514.749 135.83L496.228 186.717" stroke="#103957"/>
<path d="M430.828 394.138L416.812 446.446" stroke="#103957"/>
<path d="M501.188 131.554L487.172 183.862" stroke="#103957"/>
<path d="M440.099 396.194L430.695 449.524" stroke="#103957"/>
<path d="M487.305 128.476L477.901 181.807" stroke="#103957"/>
<path d="M449.513 397.433L444.794 451.38" stroke="#103957"/>
<path d="M473.207 126.62L468.487 180.567" stroke="#103957"/>
<path d="M423.5 229C423.5 229.295 423.5 237.956 423.5 245.001C423.5 249.972 419.471 254 414.5 254H408.5C408.5 254 408.5 254 408.5 254C408.5 254 397 254 397 254.5C397 256.111 397 315.113 397 338.029C397 342.999 401.029 347 406 347H490C494.971 347 499 342.971 499 338V330.5M423.5 229C423.5 228.607 470.094 228.832 490.075 228.946C495.022 228.974 499 232.993 499 237.941V257M423.5 229L397 254M419.5 271H453.5M419.5 290H453.5M419.5 307H453.5M419.5 323.5H453.5M469.5 254.5L523 281.5M469.5 254.5L473.5 272M469.5 254.5L485.5 247.5" stroke="#103957" stroke-width="6"/>
<path d="M476 322V279H486V322H476Z" stroke="#0088FF" stroke-width="4"/>
<path d="M496 322V290H506V322H496Z" stroke="#0088FF" stroke-width="4"/>
<path d="M515 322V300H525V322H515Z" stroke="#0088FF" stroke-width="4"/>
<path d="M534 322V311H544V322H534Z" stroke="#0088FF" stroke-width="4"/>
<path d="M56.0001 427.018C69.6215 472.52 117.55 498.364 163.051 484.742C208.553 471.121 234.397 423.193 220.775 377.691" stroke="#103957" stroke-width="4"/>
<path d="M238.401 375C254.671 429.35 223.802 486.598 169.453 502.868C141.031 511.376 111.817 506.994 88.0847 493.103" stroke="#0088FF" stroke-width="9"/>
<path d="M282.268 377.19C324.746 467.235 435.955 512.479 526 470" stroke="#0088FF" stroke-width="9"/>
<path d="M190 630C190 601.833 167.167 579 139 579C110.833 579 88 601.833 88 630" stroke="#103957" stroke-width="8"/>
<path d="M170 630C170 612.879 155.897 599 138.5 599C121.103 599 107 612.879 107 630" stroke="#103957" stroke-width="6"/>
<path d="M71.328 422.43C82.4152 459.466 121.427 480.502 158.463 469.414C195.499 458.327 216.534 419.316 205.447 382.28" stroke="#103957" stroke-width="2"/>
<path d="M174.564 333.573C174.564 333.573 166.442 326.663 158.743 327.638" stroke="#103957" stroke-width="2"/>
<path d="M154.017 373.178L195.5 296.5L205.668 302.513" stroke="#103957" stroke-width="2"/>
<path d="M229.215 297.584C237.006 302.292 239.505 312.424 234.798 320.215C230.09 328.006 219.957 330.506 212.166 325.798C204.375 321.09 201.876 310.957 206.584 303.166C211.292 295.376 221.424 292.876 229.215 297.584Z" stroke="#103957" stroke-width="3"/>
<path d="M226.735 301.688C232.26 305.026 234.032 312.211 230.693 317.735C227.355 323.26 220.171 325.032 214.646 321.693C209.122 318.355 207.35 311.171 210.688 305.646C214.026 300.122 221.211 298.35 226.735 301.688Z" stroke="#103957" stroke-width="3"/>
<path d="M224.772 304.937C228.503 307.191 229.699 312.042 227.445 315.772C225.191 319.503 220.34 320.699 216.609 318.445C212.879 316.191 211.682 311.34 213.937 307.609C216.191 303.879 221.042 302.682 224.772 304.937Z" stroke="#103957"/>
<path d="M157.28 325.911C158.433 326.607 158.803 328.107 158.106 329.26C157.409 330.413 155.91 330.783 154.756 330.086C153.603 329.39 153.233 327.89 153.93 326.737C154.627 325.584 156.127 325.214 157.28 325.911Z" stroke="#103957" stroke-width="2"/>
</svg>
