<svg width="79" height="89" viewBox="0 0 79 89" fill="none" xmlns="http://www.w3.org/2000/svg">
<path d="M19.622 33.2109C20.4591 33.2109 21.1375 33.8893 21.1375 34.7265C21.1375 35.5636 20.4591 36.242 19.622 36.242C18.7848 36.242 18.1064 35.5636 18.1064 34.7265C18.1064 33.8893 18.7848 33.2109 19.622 33.2109ZM47.3725 34.7265C47.3725 35.5636 46.6941 36.242 45.8569 36.242C45.0198 36.242 44.3414 35.5636 44.3414 34.7265C44.3414 33.8893 45.0198 33.2109 45.8569 33.2109C46.6941 33.2109 47.3725 33.8893 47.3725 34.7265ZM60.4899 34.7265C60.4899 35.5636 59.8116 36.242 58.9744 36.242C58.1372 36.242 57.4589 35.5636 57.4589 34.7265C57.4589 33.8893 58.1372 33.2109 58.9744 33.2109C59.8116 33.2109 60.4899 33.8893 60.4899 34.7265ZM19.622 46.3284C20.4591 46.3284 21.1375 47.0068 21.1375 47.8439C21.1375 48.6811 20.4591 49.3595 19.622 49.3595C18.7848 49.3595 18.1064 48.6811 18.1064 47.8439C18.1064 47.0068 18.7848 46.3284 19.622 46.3284ZM18.1064 60.9614C18.1064 60.1243 18.7848 59.4459 19.622 59.4459C20.4591 59.4459 21.1375 60.1243 21.1375 60.9614C21.1375 61.7986 20.4591 62.4769 19.622 62.4769C18.7848 62.4769 18.1064 61.7986 18.1064 60.9614ZM34.255 34.7265C34.255 35.5636 33.5766 36.242 32.7394 36.242C31.9023 36.242 31.2239 35.5636 31.2239 34.7265C31.2239 33.8893 31.9023 33.2109 32.7394 33.2109C33.5766 33.2109 34.255 33.8893 34.255 34.7265ZM32.7394 49.3595C31.9023 49.3595 31.2239 48.6811 31.2239 47.8439C31.2239 47.0068 31.9023 46.3284 32.7394 46.3284C33.5766 46.3284 34.255 47.0068 34.255 47.8439C34.255 48.6811 33.5766 49.3595 32.7394 49.3595ZM32.7394 59.4459C33.5766 59.4459 34.255 60.1243 34.255 60.9614C34.255 61.7986 33.5766 62.4769 32.7394 62.4769C31.9023 62.4769 31.2239 61.7986 31.2239 60.9614C31.2239 60.1243 31.9023 59.4459 32.7394 59.4459ZM45.8569 49.3595C45.0198 49.3595 44.3414 48.6811 44.3414 47.8439C44.3414 47.0068 45.0198 46.3284 45.8569 46.3284C46.6941 46.3284 47.3725 47.0068 47.3725 47.8439C47.3725 48.6811 46.6941 49.3595 45.8569 49.3595Z" stroke="#103957" stroke-width="3"/>
<path d="M27.4261 79.0352H13.7461C7.25893 79.0352 2 73.7763 2 67.2891V22.1616C2 15.6744 7.25892 10.4155 13.7461 10.4155H65.0004C71.4876 10.4155 76.7465 15.6744 76.7465 22.1616V42.8874M28.3451 87L46.7253 68.3134C51.9331 62.493 54.3838 72.2958 58.3662 69.2324C62.3486 66.169 74.9084 53.3028 74.9084 53.3028" stroke="#103957" stroke-width="3"/>
<path d="M19.7676 0V10.9899V25.1197" stroke="#0088FF" stroke-width="3"/>
<path d="M32.79 0V10.9899V25.1197" stroke="#0088FF" stroke-width="3"/>
<path d="M46.4971 0V10.9899V25.1197" stroke="#0088FF" stroke-width="3"/>
<path d="M60.2041 0V10.9899V25.1197" stroke="#0088FF" stroke-width="3"/>
<path d="M60.2041 51.4648H76.7464V67.3944" stroke="#103957" stroke-width="3"/>
</svg>
