<svg width="754" height="645" viewBox="0 0 754 645" fill="none" xmlns="http://www.w3.org/2000/svg">
<path d="M471 554.009C337.899 554.009 230 447.453 230 316.009C230 184.565 337.899 78.0088 471 78.0088" stroke="#103957" stroke-width="10"/>
<path d="M567.776 474.608C653.237 421.556 680.035 310.114 627.629 225.695C575.224 141.276 463.461 115.848 378 168.9" stroke="#103957" stroke-width="10"/>
<path d="M567.776 474.608C653.237 421.556 680.035 310.114 627.629 225.695C575.224 141.276 463.461 115.848 378 168.9" stroke="#103957" stroke-width="10"/>
<path d="M549.269 514.16C437.363 556.035 313.113 500.369 271.75 389.828C230.386 279.287 287.571 155.729 399.478 113.854" stroke="#103957" stroke-width="16"/>
<path d="M206 445.79C232.114 519.094 309.5 581.5 397.5 593.5" stroke="#0088FF" stroke-width="10"/>
<path d="M666.095 397.094C708.063 288.793 654.29 166.977 545.989 125.009" stroke="#103957" stroke-width="18" stroke-linejoin="round"/>
<path d="M666.095 397.094C708.063 288.793 654.29 166.977 545.989 125.009" stroke="#0088FF" stroke-width="18" stroke-linejoin="round"/>
<path d="M344 190C260 275 273 401 375 472" stroke="#0088FF" stroke-width="18" stroke-linejoin="round"/>
<path d="M293.821 110.671C234.744 159.191 210.782 220.169 206.743 253.828" stroke="#103957" stroke-width="18" stroke-linejoin="round"/>
<path d="M249.5 215.509L52 113.509L54.5 35" stroke="#103957" stroke-width="12"/>
<path d="M130 596V438.01L158 428.01" stroke="#103957" stroke-width="12"/>
<path d="M223.192 417.605C223.192 435.607 208.598 450.2 190.596 450.2C172.594 450.2 158 435.607 158 417.605C158 399.602 172.594 385.009 190.596 385.009C208.598 385.009 223.192 399.602 223.192 417.605Z" stroke="#103957" stroke-width="4"/>
<path d="M162 642.741C163.417 638.962 164.192 634.87 164.192 630.596C164.192 611.489 148.703 596 129.596 596C110.489 596 95 611.489 95 630.596C95 634.87 95.7749 638.962 97.1919 642.741" stroke="#103957" stroke-width="8"/>
<path d="M214.467 417.605C214.467 430.789 203.779 441.476 190.596 441.476C177.413 441.476 166.726 430.789 166.726 417.605C166.726 404.422 177.413 393.735 190.596 393.735C203.779 393.735 214.467 404.422 214.467 417.605Z" stroke="#0088FF" stroke-width="3"/>
<path d="M205.741 417.606C205.741 425.97 198.96 432.75 190.596 432.75C182.232 432.75 175.451 425.97 175.451 417.606C175.451 409.241 182.232 402.461 190.596 402.461C198.96 402.461 205.741 409.241 205.741 417.606Z" stroke="#0088FF" stroke-width="2"/>
<path d="M139 630.5C139 635.747 134.747 640 129.5 640C124.253 640 120 635.747 120 630.5C120 625.253 124.253 621 129.5 621C134.747 621 139 625.253 139 630.5Z" stroke="#103957" stroke-width="4"/>
<path d="M67.2896 22.1448C67.2896 28.8522 61.8522 34.2896 55.1448 34.2896C48.4374 34.2896 43 28.8522 43 22.1448C43 15.4374 48.4374 10 55.1448 10C61.8522 10 67.2896 15.4374 67.2896 22.1448Z" stroke="#103957" stroke-width="8"/>
<path d="M480 209.162V155.009" stroke="#103957"/>
<path d="M480 481.009V426.856" stroke="#103957"/>
<path d="M470.513 209.576L465.794 155.63" stroke="#103957"/>
<path d="M494.207 480.389L489.487 426.442" stroke="#103957"/>
<path d="M461.099 210.816L451.695 157.486" stroke="#103957"/>
<path d="M508.305 478.533L498.901 425.203" stroke="#103957"/>
<path d="M451.828 212.871L437.812 160.563" stroke="#103957"/>
<path d="M522.187 475.455L508.172 423.148" stroke="#103957"/>
<path d="M442.772 215.726L424.251 164.839" stroke="#103957"/>
<path d="M535.749 471.179L517.228 420.292" stroke="#103957"/>
<path d="M433.999 219.36L411.113 170.281" stroke="#103957"/>
<path d="M548.887 465.737L526.001 416.658" stroke="#103957"/>
<path d="M425.576 223.745L398.5 176.847" stroke="#103957"/>
<path d="M561.5 459.171L534.424 412.274" stroke="#103957"/>
<path d="M417.568 228.847L386.507 184.487" stroke="#103957"/>
<path d="M573.493 451.531L542.432 407.172" stroke="#103957"/>
<path d="M410.034 234.628L375.226 193.144" stroke="#103957"/>
<path d="M584.774 442.875L549.966 401.391" stroke="#103957"/>
<path d="M403.034 241.043L364.742 202.751" stroke="#103957"/>
<path d="M595.259 433.268L556.967 394.976" stroke="#103957"/>
<path d="M396.618 248.044L355.135 213.235" stroke="#103957"/>
<path d="M604.865 422.784L563.382 387.975" stroke="#103957"/>
<path d="M390.838 255.577L346.478 224.516" stroke="#103957"/>
<path d="M613.522 411.502L569.162 380.442" stroke="#103957"/>
<path d="M385.736 263.586L338.838 236.509" stroke="#103957"/>
<path d="M621.162 399.509L574.264 372.433" stroke="#103957"/>
<path d="M381.351 272.009L332.272 249.123" stroke="#103957"/>
<path d="M627.728 386.896L578.649 364.01" stroke="#103957"/>
<path d="M377.717 280.781L326.83 262.26" stroke="#103957"/>
<path d="M633.17 373.758L582.283 355.237" stroke="#103957"/>
<path d="M374.862 289.838L322.554 275.822" stroke="#103957"/>
<path d="M637.446 360.197L585.138 346.181" stroke="#103957"/>
<path d="M372.806 299.108L319.476 289.705" stroke="#103957"/>
<path d="M640.524 346.314L587.194 336.91" stroke="#103957"/>
<path d="M371.567 308.523L317.62 303.803" stroke="#103957"/>
<path d="M642.38 332.216L588.433 327.496" stroke="#103957"/>
<path d="M371.153 318.009H317" stroke="#103957"/>
<path d="M643 318.009H588.847" stroke="#103957"/>
<path d="M371.567 327.496L317.62 332.216" stroke="#103957"/>
<path d="M642.38 303.803L588.433 308.522" stroke="#103957"/>
<path d="M372.806 336.91L319.476 346.314" stroke="#103957"/>
<path d="M640.524 289.705L587.194 299.108" stroke="#103957"/>
<path d="M374.862 346.181L322.554 360.197" stroke="#103957"/>
<path d="M637.446 275.822L585.138 289.838" stroke="#103957"/>
<path d="M377.717 355.236L326.83 373.757" stroke="#103957"/>
<path d="M633.17 262.26L582.283 280.782" stroke="#103957"/>
<path d="M381.351 364.01L332.272 386.896" stroke="#103957"/>
<path d="M627.728 249.122L578.649 272.008" stroke="#103957"/>
<path d="M385.736 372.433L338.838 399.509" stroke="#103957"/>
<path d="M621.162 236.509L574.264 263.586" stroke="#103957"/>
<path d="M390.837 380.441L346.478 411.501" stroke="#103957"/>
<path d="M613.522 224.516L569.162 255.577" stroke="#103957"/>
<path d="M396.618 387.974L355.134 422.783" stroke="#103957"/>
<path d="M604.865 213.235L563.382 248.044" stroke="#103957"/>
<path d="M403.033 394.975L364.741 433.267" stroke="#103957"/>
<path d="M595.258 202.751L556.967 241.043" stroke="#103957"/>
<path d="M410.034 401.391L375.226 442.875" stroke="#103957"/>
<path d="M584.774 193.144L549.966 234.627" stroke="#103957"/>
<path d="M417.568 407.172L386.507 451.531" stroke="#103957"/>
<path d="M573.493 184.488L542.432 228.847" stroke="#103957"/>
<path d="M425.576 412.274L398.5 459.171" stroke="#103957"/>
<path d="M561.5 176.847L534.424 223.745" stroke="#103957"/>
<path d="M433.999 416.658L411.113 465.738" stroke="#103957"/>
<path d="M548.887 170.281L526.001 219.361" stroke="#103957"/>
<path d="M442.772 420.292L424.251 471.179" stroke="#103957"/>
<path d="M535.749 164.839L517.228 215.726" stroke="#103957"/>
<path d="M451.828 423.147L437.812 475.455" stroke="#103957"/>
<path d="M522.188 160.563L508.172 212.871" stroke="#103957"/>
<path d="M461.099 425.203L451.695 478.533" stroke="#103957"/>
<path d="M508.305 157.486L498.901 210.816" stroke="#103957"/>
<path d="M470.513 426.442L465.794 480.389" stroke="#103957"/>
<path d="M494.207 155.63L489.487 209.576" stroke="#103957"/>
<path d="M106 0C106 28.1665 83.1665 51 55 51C26.8335 51 4 28.1665 4 0" stroke="#103957" stroke-width="8"/>
<path d="M451.004 299.094C452.728 299.094 454.125 300.492 454.125 302.216C454.125 303.939 452.728 305.337 451.004 305.337C449.28 305.337 447.883 303.939 447.883 302.216C447.883 300.492 449.28 299.094 451.004 299.094ZM494.328 302.216C494.328 303.939 492.931 305.337 491.207 305.337C489.483 305.337 488.086 303.939 488.086 302.216C488.086 300.492 489.483 299.094 491.207 299.094C492.931 299.094 494.328 300.492 494.328 302.216ZM514.429 302.216C514.429 303.939 513.032 305.337 511.308 305.337C509.584 305.337 508.187 303.939 508.187 302.216C508.187 300.492 509.584 299.094 511.308 299.094C513.032 299.094 514.429 300.492 514.429 302.216ZM451.004 319.196C452.728 319.196 454.125 320.593 454.125 322.317C454.125 324.041 452.728 325.438 451.004 325.438C449.28 325.438 447.883 324.041 447.883 322.317C447.883 320.593 449.28 319.196 451.004 319.196ZM447.883 342.419C447.883 340.695 449.28 339.298 451.004 339.298C452.728 339.298 454.125 340.695 454.125 342.419C454.125 344.143 452.728 345.54 451.004 345.54C449.28 345.54 447.883 344.143 447.883 342.419ZM474.226 302.216C474.226 303.939 472.829 305.337 471.105 305.337C469.381 305.337 467.984 303.939 467.984 302.216C467.984 300.492 469.381 299.094 471.105 299.094C472.829 299.094 474.226 300.492 474.226 302.216ZM471.105 325.438C469.381 325.438 467.984 324.041 467.984 322.317C467.984 320.593 469.381 319.196 471.105 319.196C472.829 319.196 474.226 320.593 474.226 322.317C474.226 324.041 472.829 325.438 471.105 325.438ZM471.105 339.298C472.829 339.298 474.226 340.695 474.226 342.419C474.226 344.143 472.829 345.54 471.105 345.54C469.381 345.54 467.984 344.143 467.984 342.419C467.984 340.695 469.381 339.298 471.105 339.298ZM491.207 325.438C489.483 325.438 488.086 324.041 488.086 322.317C488.086 320.593 489.483 319.196 491.207 319.196C492.931 319.196 494.328 320.593 494.328 322.317C494.328 324.041 492.931 325.438 491.207 325.438Z" stroke="#103957" stroke-width="3"/>
<path d="M462.963 370.115H442C432.059 370.115 424 362.056 424 352.115V282.961C424 273.02 432.059 264.961 442 264.961H520.543C530.484 264.961 538.543 273.02 538.543 282.961V314.721M464.372 382.321L492.538 353.685C500.519 344.766 504.274 359.788 510.377 355.093C516.479 350.399 535.726 330.682 535.726 330.682" stroke="#103957" stroke-width="6"/>
<path d="M451.228 249V265.841V287.494" stroke="#0088FF" stroke-width="7"/>
<path d="M471.183 249V265.841V287.494" stroke="#0088FF" stroke-width="7"/>
<path d="M492.188 249V265.841V287.494" stroke="#0088FF" stroke-width="7"/>
<path d="M513.194 249V265.841V287.494" stroke="#0088FF" stroke-width="7"/>
<path d="M513.193 327.866H538.543V352.277" stroke="#103957" stroke-width="6"/>
<path d="M161.5 266.5L210.348 275.771" stroke="#103957" stroke-width="4"/>
<path d="M159 290L207.136 295.276" stroke="#103957" stroke-width="4"/>
<path d="M158 314.982L205.641 314.982" stroke="#103957" stroke-width="4"/>
<path d="M159 338.5L205.872 334.743" stroke="#103957" stroke-width="4"/>
<path d="M161 362L207.83 354.407" stroke="#103957" stroke-width="4"/>
</svg>
