<svg width="1033" height="1073" viewBox="0 0 1033 1073" fill="none" xmlns="http://www.w3.org/2000/svg">
<path d="M691.5 774.001L397.994 774.001L385 734.001" stroke="white" stroke-width="10"/>
<path d="M720 786L720 851" stroke="white" stroke-width="10"/>
<path d="M180.39 720.141C180.39 720.141 155.839 703.229 145.792 686.344" stroke="#0088FF" stroke-width="2"/>
<path d="M500.406 657.626C429.889 750.338 298.566 769.089 207.086 699.51C115.607 629.93 98.6136 498.367 169.13 405.656" stroke="white" stroke-width="10"/>
<path d="M381.934 662.334C310.567 689.603 230.877 654.562 203.94 584.066C177.004 513.57 213.021 434.316 284.387 407.046" stroke="white" stroke-width="10"/>
<path d="M291.772 697.888C198.995 671.154 145.457 574.27 172.191 481.493" stroke="#0088FF" stroke-width="18" stroke-linejoin="round"/>
<path d="M397.213 362C489.861 389.18 542.933 486.319 515.754 578.967" stroke="white" stroke-width="18" stroke-linejoin="round"/>
<path d="M230.5 656L162.64 744.055L181.044 758.054" stroke="#0088FF" stroke-width="2"/>
<path d="M187.172 793.402C198.063 801.686 213.607 799.572 221.891 788.681C230.174 777.79 228.061 762.246 217.17 753.962C206.279 745.678 190.735 747.792 182.451 758.683C174.167 769.574 176.281 785.118 187.172 793.402Z" stroke="#0088FF" stroke-width="3"/>
<path d="M191.413 787.825C199.224 793.766 210.372 792.25 216.313 784.439C222.254 776.629 220.738 765.48 212.927 759.539C205.116 753.598 193.968 755.114 188.027 762.925C182.086 770.736 183.602 781.884 191.413 787.825Z" stroke="#0088FF" stroke-width="3"/>
<path d="M702.852 797.907C715.417 807.464 733.35 805.025 742.907 792.461C752.464 779.896 750.025 761.963 737.461 752.406C724.896 742.849 706.963 745.288 697.406 757.852C687.849 770.417 690.288 788.35 702.852 797.907Z" stroke="white" stroke-width="3"/>
<path d="M711.88 783.15C717.611 787.509 725.79 786.397 730.149 780.666C734.508 774.935 733.396 766.755 727.665 762.396C721.934 758.037 713.755 759.149 709.396 764.88C705.037 770.611 706.149 778.791 711.88 783.15Z" stroke="white" stroke-width="5"/>
<path d="M195.655 782.248C200.386 785.847 207.138 784.928 210.736 780.198C214.335 775.467 213.417 768.715 208.686 765.116C203.955 761.518 197.203 762.436 193.605 767.167C190.006 771.898 190.924 778.65 195.655 782.248Z" stroke="#0088FF" stroke-width="3"/>
<path d="M136.591 685.131C140.001 687.725 144.869 687.063 147.463 683.652C150.057 680.242 149.395 675.374 145.985 672.78C142.574 670.186 137.706 670.848 135.112 674.258C132.518 677.669 133.18 682.537 136.591 685.131Z" stroke="#0088FF" stroke-width="2"/>
<path d="M337.055 422.646L335.633 368.283" stroke="white"/>
<path d="M344.197 695.548L342.774 641.185" stroke="white"/>
<path d="M327.542 423.31L321.387 369.278" stroke="white"/>
<path d="M358.441 694.551L352.286 640.519" stroke="white"/>
<path d="M318.124 424.802L307.283 371.512" stroke="white"/>
<path d="M372.546 692.318L361.705 639.028" stroke="white"/>
<path d="M308.873 427.108L293.428 374.966" stroke="white"/>
<path d="M386.402 688.864L370.958 636.721" stroke="white"/>
<path d="M299.855 430.213L279.925 379.615" stroke="white"/>
<path d="M399.904 684.215L379.974 633.617" stroke="white"/>
<path d="M291.144 434.092L266.88 385.424" stroke="white"/>
<path d="M412.95 678.407L388.686 629.739" stroke="white"/>
<path d="M282.804 438.714L254.39 392.346" stroke="white"/>
<path d="M425.439 671.484L397.026 625.115" stroke="white"/>
<path d="M274.898 444.046L242.551 400.331" stroke="white"/>
<path d="M437.278 663.499L404.931 619.784" stroke="white"/>
<path d="M267.487 450.048L231.454 409.318" stroke="white"/>
<path d="M448.376 654.513L412.342 613.782" stroke="white"/>
<path d="M260.627 456.671L221.181 419.237" stroke="white"/>
<path d="M458.648 644.593L419.202 607.158" stroke="white"/>
<path d="M254.371 463.868L211.812 430.014" stroke="white"/>
<path d="M468.017 633.816L425.458 599.962" stroke="white"/>
<path d="M248.766 471.583L203.418 441.567" stroke="white"/>
<path d="M476.41 622.263L431.063 592.247" stroke="white"/>
<path d="M243.855 479.756L196.064 453.806" stroke="white"/>
<path d="M483.765 610.023L435.974 584.074" stroke="white"/>
<path d="M239.675 488.327L189.804 466.642" stroke="white"/>
<path d="M490.026 597.188L440.155 575.502" stroke="white"/>
<path d="M236.257 497.229L184.686 479.973" stroke="white"/>
<path d="M495.143 583.857L443.572 566.6" stroke="white"/>
<path d="M233.628 506.396L180.75 493.7" stroke="white"/>
<path d="M499.079 570.13L446.201 557.434" stroke="white"/>
<path d="M231.809 515.755L178.025 507.716" stroke="white"/>
<path d="M501.805 556.113L448.021 548.074" stroke="white"/>
<path d="M230.812 525.24L176.532 521.919" stroke="white"/>
<path d="M503.298 541.911L449.018 538.59" stroke="white"/>
<path d="M230.645 534.774L176.282 536.197" stroke="white"/>
<path d="M503.547 527.633L449.184 529.055" stroke="white"/>
<path d="M231.309 544.285L177.277 550.44" stroke="white"/>
<path d="M502.551 513.388L448.519 519.543" stroke="white"/>
<path d="M232.802 553.705L179.512 564.546" stroke="white"/>
<path d="M500.318 499.284L447.028 510.125" stroke="white"/>
<path d="M235.108 562.957L182.966 578.402" stroke="white"/>
<path d="M496.863 485.428L444.721 500.872" stroke="white"/>
<path d="M238.212 571.973L187.614 591.903" stroke="white"/>
<path d="M492.214 471.925L441.616 491.855" stroke="white"/>
<path d="M242.091 580.686L193.423 604.95" stroke="white"/>
<path d="M486.406 458.88L437.738 483.144" stroke="white"/>
<path d="M246.714 589.025L200.345 617.439" stroke="white"/>
<path d="M479.483 446.391L433.115 474.804" stroke="white"/>
<path d="M252.046 596.931L208.33 629.278" stroke="white"/>
<path d="M471.498 434.552L427.783 466.899" stroke="white"/>
<path d="M258.046 604.341L217.316 640.375" stroke="white"/>
<path d="M462.512 423.454L421.782 459.488" stroke="white"/>
<path d="M264.671 611.201L227.236 650.648" stroke="white"/>
<path d="M452.592 413.182L415.158 452.628" stroke="white"/>
<path d="M271.868 617.458L238.014 660.017" stroke="white"/>
<path d="M441.815 403.813L407.961 446.372" stroke="white"/>
<path d="M279.582 623.063L249.566 668.411" stroke="white"/>
<path d="M430.263 395.419L400.247 440.766" stroke="white"/>
<path d="M287.756 627.975L261.806 675.766" stroke="white"/>
<path d="M418.022 388.065L392.073 435.856" stroke="white"/>
<path d="M296.327 632.155L274.641 682.026" stroke="white"/>
<path d="M405.187 381.804L383.502 431.675" stroke="white"/>
<path d="M305.229 635.573L287.973 687.144" stroke="white"/>
<path d="M391.857 376.686L374.6 428.257" stroke="white"/>
<path d="M314.395 638.201L301.699 691.08" stroke="white"/>
<path d="M378.13 372.75L365.434 425.629" stroke="white"/>
<path d="M323.756 640.021L315.717 693.805" stroke="white"/>
<path d="M364.112 370.025L356.073 423.809" stroke="white"/>
<path d="M333.239 641.018L329.918 695.298" stroke="white"/>
<path d="M349.91 368.532L346.589 422.812" stroke="white"/>
<path d="M720 258L720 347L499.5 444" stroke="white" stroke-width="10"/>
<path d="M688 226C688 243.121 702.103 257 719.5 257C736.897 257 751 243.121 751 226" stroke="white" stroke-width="6"/>
<path d="M318.359 583.633L367.83 583.633C372.8 583.633 376.83 579.618 376.83 574.647C376.83 554.562 376.83 507.68 376.83 506.368C376.83 505.95 367.224 505.95 367.224 505.95C367.224 505.95 367.224 505.95 367.224 505.95L363.694 505.95C358.724 505.95 354.694 501.922 354.694 496.952C354.694 491.401 354.694 485.294 354.694 485.068M354.694 485.068C354.694 484.749 317.936 484.917 300.546 485.015C295.599 485.042 291.63 489.061 291.63 494.009L291.63 553.377M354.694 485.068L376.83 505.95M358.035 520.15L310.841 520.15M358.035 536.021L310.841 536.021M358.035 550.221L310.841 550.221M358.035 564.003L310.841 564.003M291.63 561.73L291.63 606M310.841 583.633L272 583.633" stroke="white" stroke-width="4"/>
<path d="M377.247 562.75L393.724 562.75C398.694 562.75 402.724 558.735 402.724 553.765C402.724 533.68 402.724 486.797 402.724 485.486C402.724 485.068 393.118 485.068 393.118 485.068C393.118 485.068 393.118 485.068 393.118 485.068L389.588 485.068C384.618 485.068 380.588 481.04 380.588 476.069C380.588 470.518 380.588 464.412 380.588 464.186M380.588 464.186C380.588 463.867 343.83 464.035 326.44 464.132C321.493 464.16 317.524 468.179 317.524 473.126L317.524 485.068M380.588 464.186L402.724 485.068" stroke="white" stroke-width="4"/>
</svg>
