<svg width="80" height="88" viewBox="0 0 80 88" fill="none" xmlns="http://www.w3.org/2000/svg">
<path d="M39.6055 44.1843V48.1556M39.6055 20.0918V24.5926M39.6055 68.0121V75.5M44.4238 78.0727H78.4238V48.1556M35.4238 78.0727H9.69164L2 86.662" stroke="#103957" stroke-width="3"/>
<path d="M29.8246 1.5L11.5163 1.5C9.8084 1.5 8.42383 2.88457 8.42383 4.59252V16.4075C8.42383 18.1154 9.8084 19.5 11.5163 19.5L68.3313 19.5C70.0393 19.5 71.4238 18.1154 71.4238 16.4075V4.59252C71.4238 2.88457 70.0393 1.5 68.3313 1.5L36.0765 1.5" stroke="#103957" stroke-width="3"/>
<path d="M20.2063 43.5H11.5163C9.8084 43.5 8.42383 42.1154 8.42383 40.4075V28.5925C8.42383 26.8846 9.8084 25.5 11.5163 25.5L68.3313 25.5C70.0393 25.5 71.4238 26.8846 71.4238 28.5925V40.4075C71.4238 42.1154 70.0393 43.5 68.3313 43.5H25.4963" stroke="#103957" stroke-width="3"/>
<path d="M51.4043 7.58995V14.2088M57.6653 7.3252V14.2088" stroke="#0088FF" stroke-width="2"/>
<path d="M36.7964 7.79517L63.1224 7.79517C63.5461 7.79517 63.8896 8.13863 63.8896 8.56232V13.5001C63.8896 13.9238 63.5461 14.2673 63.1224 14.2673H36.7964C36.3728 14.2673 36.0293 13.9238 36.0293 13.5001V8.56232C36.0293 8.13863 36.3728 7.79517 36.7964 7.79517Z" stroke="#0088FF" stroke-width="2"/>
<path d="M32.4238 11C32.4238 11.2761 32.2 11.5 31.9238 11.5C31.6477 11.5 31.4238 11.2761 31.4238 11C31.4238 10.7239 31.6477 10.5 31.9238 10.5C32.2 10.5 32.4238 10.7239 32.4238 11Z" stroke="#103957" stroke-width="2"/>
<path d="M44.4238 79.0994C44.4238 81.539 42.42 83.5363 39.9238 83.5363C37.4276 83.5363 35.4238 81.539 35.4238 79.0994C35.4238 76.6598 37.4276 74.6625 39.9238 74.6625C42.42 74.6625 44.4238 76.6598 44.4238 79.0994Z" stroke="#103957" stroke-width="2"/>
<path d="M26.3597 1.5V7.05981M21.7844 1.5V7.05981M17.209 1.5V7.05981" stroke="#103957" stroke-width="2"/>
<path d="M51.4043 30.3576V36.9765M57.6653 30.0929V36.9765" stroke="#0088FF" stroke-width="2"/>
<path d="M36.7964 30.5634H63.1224C63.5461 30.5634 63.8896 30.9068 63.8896 31.3305V36.2683C63.8896 36.692 63.5461 37.0354 63.1224 37.0354H36.7964C36.3728 37.0354 36.0293 36.692 36.0293 36.2683V31.3305C36.0293 30.9068 36.3728 30.5634 36.7964 30.5634Z" stroke="#0088FF" stroke-width="2"/>
<path d="M32.4238 34C32.4238 34.2761 32.2 34.5 31.9238 34.5C31.6477 34.5 31.4238 34.2761 31.4238 34C31.4238 33.7239 31.6477 33.5 31.9238 33.5C32.2 33.5 32.4238 33.7239 32.4238 34Z" stroke="#103957" stroke-width="2"/>
<path d="M26.3597 24.8807V30.4405M21.7844 24.8807V30.4405M17.209 24.8807V30.4405" stroke="#103957" stroke-width="2"/>
<path d="M55.0727 67.5H11.5163C9.8084 67.5 8.42383 66.1154 8.42383 64.4075V52.5925C8.42383 50.8846 9.8084 49.5 11.5163 49.5H68.3313C70.0393 49.5 71.4238 50.8846 71.4238 52.5925V64.4075C71.4238 66.1154 70.0393 67.5 68.3313 67.5H60.1223" stroke="#103957" stroke-width="3"/>
<path d="M51.4043 54.1857V60.8045M57.6653 53.9209V60.8045" stroke="#0088FF" stroke-width="2"/>
<path d="M36.7964 54.3914H63.1224C63.5461 54.3914 63.8896 54.7348 63.8896 55.1585V60.0963C63.8896 60.52 63.5461 60.8634 63.1224 60.8634H36.7964C36.3728 60.8634 36.0293 60.52 36.0293 60.0963V55.1585C36.0293 54.7348 36.3728 54.3914 36.7964 54.3914Z" stroke="#0088FF" stroke-width="2"/>
<path d="M32.4238 58C32.4238 58.2761 32.2 58.5 31.9238 58.5C31.6477 58.5 31.4238 58.2761 31.4238 58C31.4238 57.7239 31.6477 57.5 31.9238 57.5C32.2 57.5 32.4238 57.7239 32.4238 58Z" stroke="#103957" stroke-width="2"/>
<path d="M26.3597 48.7084V54.2682M21.7844 48.7084V54.2682M17.209 48.7084V54.2682" stroke="#103957" stroke-width="2"/>
</svg>
