<svg width="757" height="661" viewBox="0 0 757 661" fill="none" xmlns="http://www.w3.org/2000/svg">
<path d="M474 571.009C340.899 571.009 233 464.453 233 333.009C233 201.565 340.899 95.0088 474 95.0088" stroke="#103957" stroke-width="10"/>
<path d="M570.776 491.608C656.237 438.556 683.035 327.114 630.629 242.695C578.224 158.276 466.461 132.848 381 185.9" stroke="#103957" stroke-width="10"/>
<path d="M570.776 491.608C656.237 438.556 683.035 327.114 630.629 242.695C578.224 158.276 466.461 132.848 381 185.9" stroke="#103957" stroke-width="10"/>
<path d="M552.269 531.16C440.363 573.035 316.113 517.369 274.75 406.828C233.386 296.287 290.571 172.729 402.478 130.854" stroke="#103957" stroke-width="16"/>
<path d="M209 462.79C235.114 536.094 312.5 598.5 400.5 610.5" stroke="#0088FF" stroke-width="10"/>
<path d="M669.095 414.094C711.063 305.793 657.29 183.977 548.989 142.009" stroke="#103957" stroke-width="18" stroke-linejoin="round"/>
<path d="M669.095 414.094C711.063 305.793 657.29 183.977 548.989 142.009" stroke="#0088FF" stroke-width="18" stroke-linejoin="round"/>
<path d="M347 207C263 292 276 418 378 489" stroke="#0088FF" stroke-width="18" stroke-linejoin="round"/>
<path d="M296.821 127.671C237.744 176.191 213.782 237.169 209.743 270.828" stroke="#103957" stroke-width="18" stroke-linejoin="round"/>
<path d="M252.5 232.509L145 127V32" stroke="#103957" stroke-width="12"/>
<path d="M144.5 602.5V455.5L164 446" stroke="#103957" stroke-width="12"/>
<path d="M226.192 434.605C226.192 452.607 211.598 467.2 193.596 467.2C175.594 467.2 161 452.607 161 434.605C161 416.602 175.594 402.009 193.596 402.009C211.598 402.009 226.192 416.602 226.192 434.605Z" stroke="#103957" stroke-width="4"/>
<path d="M177 622.741C178.417 618.962 179.192 614.87 179.192 610.596C179.192 591.489 163.703 576 144.596 576C125.489 576 110 591.489 110 610.596C110 614.87 110.775 618.962 112.192 622.741" stroke="#103957" stroke-width="8"/>
<path d="M217.467 434.605C217.467 447.789 206.779 458.476 193.596 458.476C180.413 458.476 169.726 447.789 169.726 434.605C169.726 421.422 180.413 410.735 193.596 410.735C206.779 410.735 217.467 421.422 217.467 434.605Z" stroke="#0088FF" stroke-width="3"/>
<path d="M208.741 434.606C208.741 442.97 201.96 449.75 193.596 449.75C185.232 449.75 178.451 442.97 178.451 434.606C178.451 426.241 185.232 419.461 193.596 419.461C201.96 419.461 208.741 426.241 208.741 434.606Z" stroke="#0088FF" stroke-width="2"/>
<path d="M154 610.5C154 615.747 149.747 620 144.5 620C139.253 620 135 615.747 135 610.5C135 605.253 139.253 601 144.5 601C149.747 601 154 605.253 154 610.5Z" stroke="#103957" stroke-width="4"/>
<path d="M157.29 20.1448C157.29 26.8522 151.852 32.2896 145.145 32.2896C138.437 32.2896 133 26.8522 133 20.1448C133 13.4374 138.437 8 145.145 8C151.852 8 157.29 13.4374 157.29 20.1448Z" stroke="#103957" stroke-width="8"/>
<path d="M483 226.162V172.009" stroke="#103957"/>
<path d="M483 498.009V443.856" stroke="#103957"/>
<path d="M473.513 226.576L468.794 172.63" stroke="#103957"/>
<path d="M497.207 497.389L492.487 443.442" stroke="#103957"/>
<path d="M464.099 227.816L454.695 174.486" stroke="#103957"/>
<path d="M511.305 495.533L501.901 442.203" stroke="#103957"/>
<path d="M454.828 229.871L440.812 177.563" stroke="#103957"/>
<path d="M525.187 492.455L511.172 440.148" stroke="#103957"/>
<path d="M445.772 232.726L427.251 181.839" stroke="#103957"/>
<path d="M538.749 488.179L520.228 437.292" stroke="#103957"/>
<path d="M436.999 236.36L414.113 187.281" stroke="#103957"/>
<path d="M551.887 482.737L529.001 433.658" stroke="#103957"/>
<path d="M428.576 240.745L401.5 193.847" stroke="#103957"/>
<path d="M564.5 476.171L537.424 429.274" stroke="#103957"/>
<path d="M420.568 245.847L389.507 201.487" stroke="#103957"/>
<path d="M576.493 468.531L545.432 424.172" stroke="#103957"/>
<path d="M413.034 251.628L378.226 210.144" stroke="#103957"/>
<path d="M587.774 459.875L552.966 418.391" stroke="#103957"/>
<path d="M406.034 258.043L367.742 219.751" stroke="#103957"/>
<path d="M598.259 450.268L559.967 411.976" stroke="#103957"/>
<path d="M399.618 265.044L358.135 230.235" stroke="#103957"/>
<path d="M607.865 439.784L566.382 404.975" stroke="#103957"/>
<path d="M393.838 272.577L349.478 241.516" stroke="#103957"/>
<path d="M616.522 428.502L572.162 397.442" stroke="#103957"/>
<path d="M388.736 280.586L341.838 253.509" stroke="#103957"/>
<path d="M624.162 416.509L577.264 389.433" stroke="#103957"/>
<path d="M384.351 289.009L335.272 266.123" stroke="#103957"/>
<path d="M630.728 403.896L581.649 381.01" stroke="#103957"/>
<path d="M380.717 297.781L329.83 279.26" stroke="#103957"/>
<path d="M636.17 390.758L585.283 372.237" stroke="#103957"/>
<path d="M377.862 306.838L325.554 292.822" stroke="#103957"/>
<path d="M640.446 377.197L588.138 363.181" stroke="#103957"/>
<path d="M375.806 316.108L322.476 306.705" stroke="#103957"/>
<path d="M643.524 363.314L590.194 353.91" stroke="#103957"/>
<path d="M374.567 325.523L320.62 320.803" stroke="#103957"/>
<path d="M645.38 349.216L591.433 344.496" stroke="#103957"/>
<path d="M374.153 335.009H320" stroke="#103957"/>
<path d="M646 335.009H591.847" stroke="#103957"/>
<path d="M374.567 344.496L320.62 349.216" stroke="#103957"/>
<path d="M645.38 320.803L591.433 325.522" stroke="#103957"/>
<path d="M375.806 353.91L322.476 363.314" stroke="#103957"/>
<path d="M643.524 306.705L590.194 316.108" stroke="#103957"/>
<path d="M377.862 363.181L325.554 377.197" stroke="#103957"/>
<path d="M640.446 292.822L588.138 306.838" stroke="#103957"/>
<path d="M380.717 372.236L329.83 390.757" stroke="#103957"/>
<path d="M636.17 279.26L585.283 297.782" stroke="#103957"/>
<path d="M384.351 381.01L335.272 403.896" stroke="#103957"/>
<path d="M630.728 266.122L581.649 289.008" stroke="#103957"/>
<path d="M388.736 389.433L341.838 416.509" stroke="#103957"/>
<path d="M624.162 253.509L577.264 280.586" stroke="#103957"/>
<path d="M393.837 397.441L349.478 428.501" stroke="#103957"/>
<path d="M616.522 241.516L572.162 272.577" stroke="#103957"/>
<path d="M399.618 404.974L358.134 439.783" stroke="#103957"/>
<path d="M607.865 230.235L566.382 265.044" stroke="#103957"/>
<path d="M406.033 411.975L367.741 450.267" stroke="#103957"/>
<path d="M598.258 219.751L559.967 258.043" stroke="#103957"/>
<path d="M413.034 418.391L378.226 459.875" stroke="#103957"/>
<path d="M587.774 210.144L552.966 251.627" stroke="#103957"/>
<path d="M420.568 424.172L389.507 468.531" stroke="#103957"/>
<path d="M576.493 201.488L545.432 245.847" stroke="#103957"/>
<path d="M428.576 429.274L401.5 476.171" stroke="#103957"/>
<path d="M564.5 193.847L537.424 240.745" stroke="#103957"/>
<path d="M436.999 433.658L414.113 482.738" stroke="#103957"/>
<path d="M551.887 187.281L529.001 236.361" stroke="#103957"/>
<path d="M445.772 437.292L427.251 488.179" stroke="#103957"/>
<path d="M538.749 181.839L520.228 232.726" stroke="#103957"/>
<path d="M454.828 440.147L440.812 492.455" stroke="#103957"/>
<path d="M525.188 177.563L511.172 229.871" stroke="#103957"/>
<path d="M464.099 442.203L454.695 495.533" stroke="#103957"/>
<path d="M511.305 174.486L501.901 227.816" stroke="#103957"/>
<path d="M473.513 443.442L468.794 497.389" stroke="#103957"/>
<path d="M497.207 172.63L492.487 226.576" stroke="#103957"/>
<path d="M196 0C196 28.1665 173.167 51 145 51C116.833 51 94 28.1665 94 0" stroke="#103957" stroke-width="8"/>
<path d="M454.004 316.094C455.728 316.094 457.125 317.492 457.125 319.216C457.125 320.939 455.728 322.337 454.004 322.337C452.28 322.337 450.883 320.939 450.883 319.216C450.883 317.492 452.28 316.094 454.004 316.094ZM497.328 319.216C497.328 320.939 495.931 322.337 494.207 322.337C492.483 322.337 491.086 320.939 491.086 319.216C491.086 317.492 492.483 316.094 494.207 316.094C495.931 316.094 497.328 317.492 497.328 319.216ZM517.429 319.216C517.429 320.939 516.032 322.337 514.308 322.337C512.584 322.337 511.187 320.939 511.187 319.216C511.187 317.492 512.584 316.094 514.308 316.094C516.032 316.094 517.429 317.492 517.429 319.216ZM454.004 336.196C455.728 336.196 457.125 337.593 457.125 339.317C457.125 341.041 455.728 342.438 454.004 342.438C452.28 342.438 450.883 341.041 450.883 339.317C450.883 337.593 452.28 336.196 454.004 336.196ZM450.883 359.419C450.883 357.695 452.28 356.298 454.004 356.298C455.728 356.298 457.125 357.695 457.125 359.419C457.125 361.143 455.728 362.54 454.004 362.54C452.28 362.54 450.883 361.143 450.883 359.419ZM477.226 319.216C477.226 320.939 475.829 322.337 474.105 322.337C472.381 322.337 470.984 320.939 470.984 319.216C470.984 317.492 472.381 316.094 474.105 316.094C475.829 316.094 477.226 317.492 477.226 319.216ZM474.105 342.438C472.381 342.438 470.984 341.041 470.984 339.317C470.984 337.593 472.381 336.196 474.105 336.196C475.829 336.196 477.226 337.593 477.226 339.317C477.226 341.041 475.829 342.438 474.105 342.438ZM474.105 356.298C475.829 356.298 477.226 357.695 477.226 359.419C477.226 361.143 475.829 362.54 474.105 362.54C472.381 362.54 470.984 361.143 470.984 359.419C470.984 357.695 472.381 356.298 474.105 356.298ZM494.207 342.438C492.483 342.438 491.086 341.041 491.086 339.317C491.086 337.593 492.483 336.196 494.207 336.196C495.931 336.196 497.328 337.593 497.328 339.317C497.328 341.041 495.931 342.438 494.207 342.438Z" stroke="#103957" stroke-width="3"/>
<path d="M465.963 387.115H445C435.059 387.115 427 379.056 427 369.115V299.961C427 290.02 435.059 281.961 445 281.961H523.543C533.484 281.961 541.543 290.02 541.543 299.961V331.721M467.372 399.321L495.538 370.685C503.519 361.766 507.274 376.788 513.377 372.093C519.479 367.399 538.726 347.682 538.726 347.682" stroke="#103957" stroke-width="6"/>
<path d="M454.228 266V282.841V304.494" stroke="#0088FF" stroke-width="7"/>
<path d="M474.183 266V282.841V304.494" stroke="#0088FF" stroke-width="7"/>
<path d="M495.188 266V282.841V304.494" stroke="#0088FF" stroke-width="7"/>
<path d="M516.194 266V282.841V304.494" stroke="#0088FF" stroke-width="7"/>
<path d="M516.193 344.866H541.543V369.277" stroke="#103957" stroke-width="6"/>
<path d="M164.5 283.5L213.348 292.771" stroke="#103957" stroke-width="4"/>
<path d="M162 307L210.136 312.276" stroke="#103957" stroke-width="4"/>
<path d="M161 331.982L208.641 331.982" stroke="#103957" stroke-width="4"/>
<path d="M162 355.5L208.872 351.743" stroke="#103957" stroke-width="4"/>
<path d="M164 379L210.83 371.407" stroke="#103957" stroke-width="4"/>
</svg>
