<svg width="958" height="980" viewBox="0 0 958 980" fill="none" xmlns="http://www.w3.org/2000/svg">
<path d="M410 678.086L424.5 722.586L627.001 722.586L627.001 818" stroke="white" stroke-width="10"/>
<path d="M611 817.5L611 742.5L611 672L499.001 672L484 647" stroke="white" stroke-width="8"/>
<path d="M597.501 669.5L597.5 699L597.501 817.5" stroke="white" stroke-width="5"/>
<path d="M525.406 601.712C454.889 694.423 323.566 713.175 232.086 643.596C140.607 574.016 123.614 442.453 194.13 349.742" stroke="white" stroke-width="10"/>
<path d="M475.84 325.783C556.718 394.028 567.389 514.407 499.674 594.658C464.987 635.767 416.458 658.372 366.5 661.469" stroke="white" stroke-width="10"/>
<path d="M316.772 641.974C223.995 615.24 170.457 518.356 197.191 425.579" stroke="#0088FF" stroke-width="18" stroke-linejoin="round"/>
<path d="M315 296.214C406.425 265.168 505.707 314.115 536.753 405.539" stroke="white" stroke-width="18" stroke-linejoin="round"/>
<path d="M459.185 274C566.761 319.942 616.726 444.393 570.784 551.969" stroke="white" stroke-width="18" stroke-linejoin="round"/>
<path d="M197.838 671.336C197.838 671.336 219.184 692.148 237.694 698.736" stroke="#0088FF" stroke-width="2"/>
<path d="M251.066 609.758L177.812 693.379L160.516 678.032" stroke="#0088FF" stroke-width="2"/>
<path d="M124.651 678.863C114.415 669.782 113.48 654.122 122.562 643.887C131.643 633.652 147.303 632.716 157.538 641.798C167.773 650.88 168.708 666.539 159.627 676.774C150.545 687.01 134.886 687.945 124.651 678.863Z" stroke="#0088FF" stroke-width="3"/>
<path d="M129.301 673.622C121.96 667.109 121.29 655.878 127.803 648.538C134.316 641.197 145.547 640.526 152.887 647.039C160.228 653.553 160.899 664.783 154.386 672.124C147.872 679.465 136.642 680.135 129.301 673.622Z" stroke="#0088FF" stroke-width="3"/>
<path d="M133.951 668.381C129.505 664.436 129.099 657.634 133.044 653.188C136.989 648.742 143.791 648.336 148.237 652.281C152.683 656.225 153.089 663.028 149.144 667.474C145.199 671.919 138.397 672.326 133.951 668.381Z" stroke="#0088FF" stroke-width="3"/>
<path d="M240.665 707.529C237.46 704.685 237.167 699.781 240.011 696.576C242.854 693.371 247.758 693.078 250.963 695.922C254.169 698.766 254.462 703.67 251.618 706.875C248.774 710.08 243.87 710.373 240.665 707.529Z" stroke="#0088FF" stroke-width="2"/>
<path d="M360.806 372.767L359.479 322.088" stroke="white"/>
<path d="M367.463 627.173L366.137 576.495" stroke="white"/>
<path d="M351.938 373.387L346.2 323.017" stroke="white"/>
<path d="M380.742 626.244L375.004 575.874" stroke="white"/>
<path d="M343.158 374.777L333.051 325.099" stroke="white"/>
<path d="M393.891 624.162L383.785 574.484" stroke="white"/>
<path d="M334.534 376.927L320.136 328.319" stroke="white"/>
<path d="M406.808 620.942L392.41 572.334" stroke="white"/>
<path d="M326.127 379.822L307.547 332.653" stroke="white"/>
<path d="M419.395 616.608L400.815 569.44" stroke="white"/>
<path d="M318.006 383.438L295.386 338.068" stroke="white"/>
<path d="M431.556 611.194L408.937 565.824" stroke="white"/>
<path d="M310.231 387.747L283.743 344.521" stroke="white"/>
<path d="M443.199 604.74L416.711 561.514" stroke="white"/>
<path d="M302.861 392.717L272.707 351.964" stroke="white"/>
<path d="M454.236 597.296L424.082 556.544" stroke="white"/>
<path d="M295.952 398.312L262.361 360.342" stroke="white"/>
<path d="M464.581 588.919L430.99 550.95" stroke="white"/>
<path d="M289.558 404.486L252.785 369.589" stroke="white"/>
<path d="M474.157 579.672L437.384 544.774" stroke="white"/>
<path d="M283.726 411.196L244.051 379.636" stroke="white"/>
<path d="M482.891 569.625L443.217 538.065" stroke="white"/>
<path d="M278.501 418.387L236.227 390.405" stroke="white"/>
<path d="M490.716 558.856L448.442 530.874" stroke="white"/>
<path d="M273.922 426.007L229.37 401.816" stroke="white"/>
<path d="M497.572 547.445L453.021 523.254" stroke="white"/>
<path d="M270.024 433.997L223.534 413.781" stroke="white"/>
<path d="M503.408 535.48L456.917 515.264" stroke="white"/>
<path d="M266.839 442.296L218.763 426.209" stroke="white"/>
<path d="M508.179 523.052L460.104 506.965" stroke="white"/>
<path d="M264.388 450.841L215.093 439.006" stroke="white"/>
<path d="M511.849 510.256L462.554 498.42" stroke="white"/>
<path d="M262.693 459.565L212.554 452.071" stroke="white"/>
<path d="M514.389 497.189L464.25 489.695" stroke="white"/>
<path d="M261.763 468.408L211.162 465.312" stroke="white"/>
<path d="M515.781 483.949L465.18 480.853" stroke="white"/>
<path d="M261.607 477.296L210.929 478.622" stroke="white"/>
<path d="M516.013 470.638L465.334 471.965" stroke="white"/>
<path d="M262.227 486.162L211.857 491.9" stroke="white"/>
<path d="M515.085 457.359L464.715 463.097" stroke="white"/>
<path d="M263.618 494.945L213.939 505.051" stroke="white"/>
<path d="M513.003 444.211L463.324 454.317" stroke="white"/>
<path d="M265.768 503.569L217.16 517.967" stroke="white"/>
<path d="M509.782 431.294L461.174 445.692" stroke="white"/>
<path d="M268.662 511.974L221.493 530.553" stroke="white"/>
<path d="M505.449 418.707L458.28 437.286" stroke="white"/>
<path d="M272.278 520.096L226.908 542.715" stroke="white"/>
<path d="M500.034 406.546L454.664 429.165" stroke="white"/>
<path d="M276.587 527.87L233.361 554.358" stroke="white"/>
<path d="M493.581 394.903L450.355 421.39" stroke="white"/>
<path d="M281.558 535.241L240.805 565.395" stroke="white"/>
<path d="M486.137 383.866L445.384 414.021" stroke="white"/>
<path d="M287.152 542.149L249.182 575.74" stroke="white"/>
<path d="M477.759 373.52L439.79 407.112" stroke="white"/>
<path d="M293.328 548.544L258.43 585.317" stroke="white"/>
<path d="M468.512 363.944L433.615 400.717" stroke="white"/>
<path d="M300.036 554.376L268.477 594.051" stroke="white"/>
<path d="M458.465 355.211L426.906 394.885" stroke="white"/>
<path d="M307.228 559.601L279.246 601.875" stroke="white"/>
<path d="M447.696 347.386L419.714 389.66" stroke="white"/>
<path d="M314.847 564.18L290.657 608.732" stroke="white"/>
<path d="M436.285 340.53L412.095 385.082" stroke="white"/>
<path d="M322.837 568.077L302.622 614.568" stroke="white"/>
<path d="M424.32 334.693L404.104 381.184" stroke="white"/>
<path d="M331.137 571.263L315.05 619.339" stroke="white"/>
<path d="M411.893 329.923L395.806 377.999" stroke="white"/>
<path d="M339.681 573.713L327.846 623.008" stroke="white"/>
<path d="M399.096 326.253L387.26 375.548" stroke="white"/>
<path d="M348.408 575.41L340.914 625.549" stroke="white"/>
<path d="M386.029 323.713L378.535 373.852" stroke="white"/>
<path d="M357.249 576.339L354.153 626.94" stroke="white"/>
<path d="M372.79 322.321L369.694 372.922" stroke="white"/>
<path d="M645 267L467 267L448 305" stroke="white" stroke-width="10"/>
<path d="M448 305L467 267L653 267L653 226" stroke="white" stroke-width="10"/>
<path d="M362.75 475.394L362.75 481.885M362.75 436.019L362.75 443.375M362.75 514.337L362.75 523.856M370.538 530.779L432.5 530.779L432.5 514.337M355.394 530.779L309 530.779L216 631.5" stroke="white" stroke-width="4"/>
<path d="M344.577 404L313.067 404C309.201 404 306.067 407.134 306.067 411L306.067 429.019C306.067 432.885 309.201 436.019 313.067 436.019L412.433 436.019C416.299 436.019 419.433 432.885 419.433 429.019L419.433 411C419.433 407.134 416.299 404 412.433 404L355.827 404" stroke="white" stroke-width="2"/>
<path d="M327.269 474.962L313.067 474.962C309.201 474.962 306.067 471.828 306.067 467.962L306.067 449.942C306.067 446.076 309.201 442.942 313.067 442.942L412.433 442.942C416.299 442.942 419.433 446.076 419.433 449.942L419.433 467.962C419.433 471.828 416.299 474.962 412.433 474.962L336.789 474.962" stroke="white" stroke-width="2"/>
<path d="M383.952 413.952L383.952 424.769M395.202 413.519L395.202 424.769" stroke="white" stroke-width="3"/>
<path d="M358.529 414.154L404.183 414.154C405.563 414.154 406.683 415.273 406.683 416.654L406.683 422.5C406.683 423.881 405.563 425 404.183 425L358.529 425C357.148 425 356.029 423.881 356.029 422.5L356.029 416.654C356.029 415.273 357.148 414.154 358.529 414.154Z" stroke="white" stroke-width="3"/>
<path d="M350.067 419.577C350.067 420.458 349.353 421.173 348.471 421.173C347.59 421.173 346.875 420.458 346.875 419.577C346.875 418.695 347.59 417.981 348.471 417.981C349.353 417.981 350.067 418.695 350.067 419.577Z" stroke="white" stroke-width="2"/>
<path d="M368.971 530.779C368.971 534.215 366.186 537 362.75 537C359.314 537 356.529 534.215 356.529 530.779C356.529 527.343 359.314 524.558 362.75 524.558C366.186 524.558 368.971 527.343 368.971 530.779Z" stroke="white" stroke-width="4"/>
<path d="M338.952 404L338.952 413.087M330.731 404L330.731 413.087M322.51 404L322.51 413.087" stroke="white" stroke-width="3"/>
<path d="M383.952 451.164L383.952 461.981M395.202 450.731L395.202 461.981" stroke="white" stroke-width="3"/>
<path d="M358.529 451.365L404.183 451.365C405.563 451.365 406.683 452.485 406.683 453.865L406.683 459.712C406.683 461.092 405.563 462.212 404.183 462.212L358.529 462.212C357.148 462.212 356.029 461.092 356.029 459.712L356.029 453.865C356.029 452.485 357.148 451.365 358.529 451.365Z" stroke="white" stroke-width="3"/>
<path d="M350.067 456.789C350.067 457.67 349.353 458.385 348.471 458.385C347.59 458.385 346.875 457.67 346.875 456.789C346.875 455.907 347.59 455.192 348.471 455.192C349.353 455.192 350.067 455.907 350.067 456.789Z" stroke="white" stroke-width="2"/>
<path d="M338.952 442.211L338.952 451.298M330.731 442.211L330.731 451.298M322.51 442.211L322.51 451.298" stroke="white" stroke-width="3"/>
<path d="M390.01 513.904L313.067 513.904C309.201 513.904 306.067 510.77 306.067 506.904L306.067 488.885C306.067 485.019 309.201 481.885 313.067 481.885L412.433 481.885C416.299 481.885 419.433 485.019 419.433 488.885L419.433 506.904C419.433 510.77 416.299 513.904 412.433 513.904L399.096 513.904" stroke="white" stroke-width="2"/>
<path d="M383.952 490.106L383.952 500.923M395.202 489.673L395.202 500.923" stroke="white" stroke-width="3"/>
<path d="M358.529 490.308L404.183 490.308C405.563 490.308 406.683 491.427 406.683 492.808L406.683 498.654C406.683 500.034 405.563 501.154 404.183 501.154L358.529 501.154C357.148 501.154 356.029 500.034 356.029 498.654L356.029 492.808C356.029 491.427 357.148 490.308 358.529 490.308Z" stroke="white" stroke-width="3"/>
<path d="M350.067 495.731C350.067 496.612 349.353 497.327 348.471 497.327C347.59 497.327 346.875 496.612 346.875 495.731C346.875 494.849 347.59 494.135 348.471 494.135C349.353 494.135 350.067 494.849 350.067 495.731Z" stroke="white" stroke-width="2"/>
<path d="M338.952 481.154L338.952 490.24M330.731 481.154L330.731 490.24M322.51 481.154L322.51 490.24" stroke="white" stroke-width="3"/>
<path d="M666 210.5C666 217.956 659.956 224 652.5 224C645.044 224 639 217.956 639 210.5C639 203.044 645.044 197 652.5 197C659.956 197 666 203.044 666 210.5Z" stroke="white" stroke-width="6"/>
<path d="M624.997 170C629.177 180.544 639.468 188 651.5 188C663.532 188 673.823 180.544 678.004 170" stroke="white" stroke-width="6"/>
</svg>
