<svg width="83" height="89" viewBox="0 0 83 89" fill="none" xmlns="http://www.w3.org/2000/svg">
<path d="M1 16.2642H53.0145" stroke="#103957" stroke-width="3"/>
<path d="M21.9228 8.79199H34.3825M2.05762 72.5395H54.4677" stroke="#103957" stroke-width="3"/>
<path d="M54.4677 60.7241V71.8278C54.4677 80.2072 47.6749 87 39.2955 87H17.0321C8.6527 87 1.85986 80.2072 1.85986 71.8278V11.5228V11.5228C1.85986 6.26351 6.12338 2 11.3827 2H43.0366V2C49.3498 2 54.4677 7.11788 54.4677 13.4311V21.8669" stroke="#103957" stroke-width="3"/>
<path d="M29.81 79.0299C29.81 79.9245 29.1389 80.5187 28.4685 80.5187C27.7981 80.5187 27.127 79.9245 27.127 79.0299C27.127 78.1353 27.7981 77.541 28.4685 77.541C29.1389 77.541 29.81 78.1353 29.81 79.0299Z" stroke="#103957" stroke-width="3"/>
<path d="M42.3622 56.9589V55.9589H41.3622H39.2637C36.0597 55.9589 33.4624 53.3615 33.4624 50.1576V38.366C33.4624 35.162 36.0597 32.5647 39.2637 32.5647H67.5891C70.7931 32.5647 73.3904 35.162 73.3904 38.366V50.1576C73.3904 53.3615 70.7931 55.9589 67.5891 55.9589H51.2005H50.7639L50.4671 56.2791L42.3622 65.0228V56.9589Z" stroke="#103957" stroke-width="2"/>
<path d="M39.5825 31.0969V31.0969C39.5825 28.6282 41.5838 26.627 44.0525 26.627H74.8555C78.5542 26.627 81.5748 29.5826 81.6552 33.2804L81.849 42.1921C81.9319 46.0053 78.8635 49.1413 75.0493 49.1413H74.8803" stroke="#103957" stroke-width="2"/>
<path d="M37.4067 36.3262H47.0977M69.4461 36.3262H50.6576M37.4067 40.3822H55.2064M69.4461 40.3822H58.7663M37.4067 43.9092H51.6465M54.8108 43.9092H69.4461M37.4067 47.6125H47.0977M37.4067 51.6685H55.2064M50.6576 47.6125H69.4461M58.7663 51.6685H69.4461" stroke="#0088FF"/>
</svg>
