<svg width="988" height="1016" viewBox="0 0 988 1016" fill="none" xmlns="http://www.w3.org/2000/svg">
<path d="M410 708.087L424.5 752.587L681.5 752.587L681.5 790.5" stroke="white" stroke-width="10"/>
<path d="M664.5 790.5L664.5 772.5L664.5 702L499.001 702L484 677" stroke="white" stroke-width="8"/>
<path d="M649 701.5L649 701.5L649.001 790" stroke="white" stroke-width="5"/>
<path d="M525.406 631.712C454.889 724.424 323.566 743.176 232.086 673.596C140.607 604.016 123.614 472.453 194.13 379.742" stroke="white" stroke-width="10"/>
<path d="M475.84 355.784C556.719 424.028 567.39 544.408 499.675 624.658C464.987 665.768 416.459 688.372 366.5 691.47" stroke="white" stroke-width="10"/>
<path d="M316.772 671.975C223.995 645.24 170.457 548.357 197.191 455.58" stroke="#0088FF" stroke-width="18" stroke-linejoin="round"/>
<path d="M315.001 326.214C406.425 295.168 505.708 344.115 536.753 435.54" stroke="white" stroke-width="18" stroke-linejoin="round"/>
<path d="M459.186 304C566.762 349.942 616.726 474.393 570.785 581.969" stroke="white" stroke-width="18" stroke-linejoin="round"/>
<path d="M197.838 701.336C197.838 701.336 219.184 722.149 237.694 728.737" stroke="#0088FF" stroke-width="2"/>
<path d="M251.066 639.758L177.812 723.379L160.516 708.033" stroke="#0088FF" stroke-width="2"/>
<path d="M124.651 708.864C114.415 699.782 113.48 684.123 122.562 673.888C131.643 663.652 147.303 662.717 157.538 671.799C167.773 680.88 168.708 696.54 159.627 706.775C150.545 717.01 134.886 717.945 124.651 708.864Z" stroke="#0088FF" stroke-width="3"/>
<path d="M129.301 703.623C121.96 697.109 121.29 685.879 127.803 678.538C134.316 671.197 145.547 670.527 152.887 677.04C160.228 683.553 160.899 694.784 154.386 702.124C147.872 709.465 136.642 710.136 129.301 703.623Z" stroke="#0088FF" stroke-width="3"/>
<path d="M133.951 698.381C129.505 694.437 129.099 687.634 133.044 683.189C136.989 678.743 143.791 678.336 148.237 682.281C152.683 686.226 153.089 693.028 149.144 697.474C145.199 701.92 138.397 702.326 133.951 698.381Z" stroke="#0088FF" stroke-width="3"/>
<path d="M240.665 737.53C237.46 734.686 237.167 729.782 240.011 726.577C242.854 723.371 247.758 723.079 250.963 725.922C254.169 728.766 254.462 733.67 251.618 736.875C248.774 740.081 243.87 740.374 240.665 737.53Z" stroke="#0088FF" stroke-width="2"/>
<path d="M360.806 402.767L359.479 352.089" stroke="white"/>
<path d="M367.463 657.173L366.137 606.495" stroke="white"/>
<path d="M351.938 403.387L346.2 353.017" stroke="white"/>
<path d="M380.742 656.245L375.004 605.875" stroke="white"/>
<path d="M343.158 404.778L333.051 355.099" stroke="white"/>
<path d="M393.891 654.162L383.785 604.484" stroke="white"/>
<path d="M334.534 406.928L320.136 358.319" stroke="white"/>
<path d="M406.808 650.943L392.41 602.334" stroke="white"/>
<path d="M326.127 409.822L307.547 362.653" stroke="white"/>
<path d="M419.395 646.609L400.815 599.44" stroke="white"/>
<path d="M318.006 413.438L295.386 368.068" stroke="white"/>
<path d="M431.556 641.194L408.937 595.824" stroke="white"/>
<path d="M310.231 417.747L283.743 374.521" stroke="white"/>
<path d="M443.199 634.74L416.711 591.515" stroke="white"/>
<path d="M302.861 422.717L272.707 381.965" stroke="white"/>
<path d="M454.236 627.297L424.082 586.544" stroke="white"/>
<path d="M295.952 428.312L262.361 390.343" stroke="white"/>
<path d="M464.581 618.919L430.99 580.95" stroke="white"/>
<path d="M289.558 434.486L252.785 399.589" stroke="white"/>
<path d="M474.157 609.672L437.384 574.774" stroke="white"/>
<path d="M283.726 441.196L244.051 409.636" stroke="white"/>
<path d="M482.891 599.625L443.217 568.066" stroke="white"/>
<path d="M278.501 448.387L236.227 420.405" stroke="white"/>
<path d="M490.716 588.856L448.442 560.874" stroke="white"/>
<path d="M273.922 456.007L229.37 431.816" stroke="white"/>
<path d="M497.572 577.445L453.021 553.254" stroke="white"/>
<path d="M270.024 463.997L223.534 443.781" stroke="white"/>
<path d="M503.408 565.48L456.917 545.264" stroke="white"/>
<path d="M266.839 472.296L218.763 456.209" stroke="white"/>
<path d="M508.179 553.052L460.104 536.965" stroke="white"/>
<path d="M264.388 480.841L215.093 469.006" stroke="white"/>
<path d="M511.849 540.256L462.554 528.42" stroke="white"/>
<path d="M262.693 489.565L212.554 482.071" stroke="white"/>
<path d="M514.389 527.189L464.25 519.695" stroke="white"/>
<path d="M261.763 498.408L211.162 495.312" stroke="white"/>
<path d="M515.781 513.949L465.18 510.854" stroke="white"/>
<path d="M261.607 507.296L210.929 508.623" stroke="white"/>
<path d="M516.013 500.639L465.334 501.965" stroke="white"/>
<path d="M262.227 516.162L211.857 521.9" stroke="white"/>
<path d="M515.085 487.36L464.715 493.098" stroke="white"/>
<path d="M263.618 524.945L213.939 535.051" stroke="white"/>
<path d="M513.003 474.211L463.324 484.318" stroke="white"/>
<path d="M265.768 533.569L217.16 547.967" stroke="white"/>
<path d="M509.782 461.294L461.174 475.692" stroke="white"/>
<path d="M268.662 541.974L221.493 560.553" stroke="white"/>
<path d="M505.449 448.707L458.28 467.286" stroke="white"/>
<path d="M272.278 550.096L226.908 572.715" stroke="white"/>
<path d="M500.034 436.546L454.664 459.166" stroke="white"/>
<path d="M276.587 557.871L233.361 584.358" stroke="white"/>
<path d="M493.581 424.903L450.355 451.391" stroke="white"/>
<path d="M281.558 565.241L240.805 595.395" stroke="white"/>
<path d="M486.137 413.866L445.384 444.021" stroke="white"/>
<path d="M287.152 572.149L249.182 605.74" stroke="white"/>
<path d="M477.759 403.52L439.79 437.112" stroke="white"/>
<path d="M293.328 578.544L258.43 615.317" stroke="white"/>
<path d="M468.512 393.945L433.615 430.718" stroke="white"/>
<path d="M300.036 584.377L268.477 624.051" stroke="white"/>
<path d="M458.465 385.211L426.906 424.885" stroke="white"/>
<path d="M307.228 589.602L279.246 631.876" stroke="white"/>
<path d="M447.696 377.386L419.714 419.66" stroke="white"/>
<path d="M314.847 594.18L290.657 638.732" stroke="white"/>
<path d="M436.285 370.53L412.095 415.082" stroke="white"/>
<path d="M322.837 598.077L302.622 644.568" stroke="white"/>
<path d="M424.32 364.694L404.104 411.184" stroke="white"/>
<path d="M331.137 601.263L315.05 649.339" stroke="white"/>
<path d="M411.893 359.923L395.806 407.999" stroke="white"/>
<path d="M339.681 603.713L327.846 653.008" stroke="white"/>
<path d="M399.096 356.253L387.26 405.548" stroke="white"/>
<path d="M348.408 605.41L340.914 655.549" stroke="white"/>
<path d="M386.029 353.713L378.535 403.852" stroke="white"/>
<path d="M357.249 606.339L354.153 656.94" stroke="white"/>
<path d="M372.79 352.321L369.694 402.922" stroke="white"/>
<path d="M645 297L467 297L448 335" stroke="white" stroke-width="10"/>
<path d="M448 335L467 297L663.5 297L663.5 209.5" stroke="white" stroke-width="10"/>
<path d="M362.751 505.394L362.751 511.885M362.751 466.019L362.751 473.375M362.751 544.337L362.751 553.856M370.539 560.779L432.5 560.779L432.5 544.337M355.395 560.779L309 560.779L216 661.5" stroke="white" stroke-width="4"/>
<path d="M344.577 434L313.068 434C309.202 434 306.068 437.134 306.068 441L306.068 459.019C306.068 462.885 309.202 466.019 313.068 466.019L412.433 466.019C416.299 466.019 419.433 462.885 419.433 459.019L419.433 441C419.433 437.134 416.299 434 412.433 434L355.827 434" stroke="white" stroke-width="2"/>
<path d="M327.27 504.962L313.068 504.962C309.202 504.962 306.068 501.828 306.068 497.962L306.068 479.942C306.068 476.076 309.202 472.942 313.068 472.942L412.433 472.942C416.299 472.942 419.433 476.076 419.433 479.942L419.433 497.962C419.433 501.828 416.299 504.962 412.433 504.962L336.789 504.962" stroke="white" stroke-width="2"/>
<path d="M383.953 443.952L383.953 454.769M395.203 443.519L395.203 454.769" stroke="white" stroke-width="3"/>
<path d="M358.529 444.154L404.183 444.154C405.564 444.154 406.683 445.273 406.683 446.654L406.683 452.5C406.683 453.881 405.564 455 404.183 455L358.529 455C357.149 455 356.029 453.881 356.029 452.5L356.029 446.654C356.029 445.273 357.149 444.154 358.529 444.154Z" stroke="white" stroke-width="3"/>
<path d="M350.068 449.577C350.068 450.458 349.353 451.173 348.472 451.173C347.59 451.173 346.875 450.458 346.875 449.577C346.875 448.695 347.59 447.981 348.472 447.981C349.353 447.981 350.068 448.695 350.068 449.577Z" stroke="white" stroke-width="2"/>
<path d="M368.972 560.779C368.972 564.215 366.186 567 362.75 567C359.315 567 356.529 564.215 356.529 560.779C356.529 557.343 359.315 554.558 362.75 554.558C366.186 554.558 368.972 557.343 368.972 560.779Z" stroke="white" stroke-width="4"/>
<path d="M338.953 434L338.953 443.087M330.731 434L330.731 443.087M322.51 434L322.51 443.087" stroke="white" stroke-width="3"/>
<path d="M383.953 481.164L383.953 491.981M395.203 480.731L395.203 491.981" stroke="white" stroke-width="3"/>
<path d="M358.529 481.365L404.183 481.365C405.564 481.365 406.683 482.485 406.683 483.865L406.683 489.712C406.683 491.092 405.564 492.212 404.183 492.212L358.529 492.212C357.149 492.212 356.029 491.092 356.029 489.712L356.029 483.865C356.029 482.485 357.149 481.365 358.529 481.365Z" stroke="white" stroke-width="3"/>
<path d="M350.068 486.789C350.068 487.67 349.353 488.385 348.472 488.385C347.59 488.385 346.875 487.67 346.875 486.789C346.875 485.907 347.59 485.192 348.472 485.192C349.353 485.192 350.068 485.907 350.068 486.789Z" stroke="white" stroke-width="2"/>
<path d="M338.953 472.211L338.953 481.298M330.731 472.211L330.731 481.298M322.51 472.211L322.51 481.298" stroke="white" stroke-width="3"/>
<path d="M390.01 543.904L313.068 543.904C309.202 543.904 306.068 540.77 306.068 536.904L306.068 518.885C306.068 515.019 309.202 511.885 313.068 511.885L412.433 511.885C416.299 511.885 419.433 515.019 419.433 518.885L419.433 536.904C419.433 540.77 416.299 543.904 412.433 543.904L399.097 543.904" stroke="white" stroke-width="2"/>
<path d="M383.953 520.106L383.953 530.923M395.203 519.673L395.203 530.923" stroke="white" stroke-width="3"/>
<path d="M358.529 520.308L404.183 520.308C405.564 520.308 406.683 521.427 406.683 522.808L406.683 528.654C406.683 530.034 405.564 531.154 404.183 531.154L358.529 531.154C357.149 531.154 356.029 530.034 356.029 528.654L356.029 522.808C356.029 521.427 357.149 520.308 358.529 520.308Z" stroke="white" stroke-width="3"/>
<path d="M350.068 525.731C350.068 526.612 349.353 527.327 348.472 527.327C347.59 527.327 346.875 526.612 346.875 525.731C346.875 524.849 347.59 524.135 348.472 524.135C349.353 524.135 350.068 524.849 350.068 525.731Z" stroke="white" stroke-width="2"/>
<path d="M338.953 511.154L338.953 520.24M330.731 511.154L330.731 520.24M322.51 511.154L322.51 520.24" stroke="white" stroke-width="3"/>
<path d="M677 195.5C677 202.956 670.956 209 663.5 209C656.044 209 650 202.956 650 195.5C650 188.044 656.044 182 663.5 182C670.956 182 677 188.044 677 195.5Z" stroke="white" stroke-width="6"/>
<path d="M636.999 162C641.18 172.544 651.47 180 663.502 180C675.535 180 685.825 172.544 690.006 162" stroke="white" stroke-width="6"/>
</svg>
