<svg width="84" height="91" viewBox="0 0 84 91" fill="none" xmlns="http://www.w3.org/2000/svg">
<path d="M26.9972 19.0797L10.0719 19.0815C8.65259 19.0817 7.50166 20.2326 7.50152 21.652L7.50079 29.4712L5.28554 29.4532C3.50109 29.4387 2.04626 30.8816 2.0461 32.6662L2.04576 36.5649C2.04561 38.292 3.41135 39.7093 5.13726 39.7732L7.49982 39.8605L7.49885 49.2987L17.0149 49.2975L17.0145 52.9914C17.0143 54.7649 18.4516 56.2021 20.225 56.202L22.1488 56.2018C23.923 56.2016 25.3617 54.7629 25.3619 52.9888L25.3623 49.2966L34.908 49.2955L34.9808 39.8574L32.0216 39.7795C29.412 39.7109 27.3329 37.5761 27.3331 34.9655L27.3332 34.2432C27.3334 31.5819 29.4913 29.4239 32.1526 29.4236L34.9817 29.4232L34.9824 21.5768C34.9825 20.1548 33.8276 19.0037 32.4056 19.0084L26.9972 19.0265" stroke="#103957" stroke-width="2.6"/>
<path d="M74.7467 37.9279L80.7773 20.9593C81.2526 19.6219 80.5537 18.1519 79.2164 17.6764L71.3053 14.863L72.1682 12.4971C72.7796 10.8206 71.9073 8.96644 70.226 8.36851L66.017 6.87174C64.3897 6.29304 62.5968 7.1051 61.9585 8.70991L60.9727 11.1885L51.5862 7.85027L48.2225 17.3151L44.3808 15.9488C42.7098 15.3545 40.8741 16.2273 40.2802 17.8983L39.4807 20.148C38.8866 21.8198 39.7602 23.6572 41.4318 24.2517L45.2719 25.6174L41.8977 35.1118L51.2588 38.5214L52.4763 35.3627C53.4152 32.9268 56.1231 31.6829 58.5828 32.5576L59.799 32.9901C62.3064 33.8818 63.6169 36.6379 62.7257 39.1455L61.6361 42.2117L69.5745 45.0348C70.9143 45.5112 72.3858 44.8087 72.8577 43.4672L74.7996 37.9467" stroke="#0088FF" stroke-width="3"/>
<path d="M27.3957 83.2712L35.1101 83.293L35.1349 74.3853L35.1386 73.0847L36.4392 73.089L39.7668 73.0999C40.8238 73.1033 41.683 72.2485 41.6849 71.1915L41.6943 65.9079C41.6962 64.8532 40.8435 63.9962 39.7888 63.9928L36.4515 63.9818L35.1524 63.9776L35.1558 62.6785L35.1786 53.7811L29.9003 53.7128L29.8607 55.034C29.7617 58.3442 27.0465 60.9746 23.7348 60.9687L19.3857 60.9608C16.0035 60.9547 13.268 58.2053 13.2791 54.8232L13.2829 53.6709H7.3V81.9586C7.3 82.6582 7.86605 83.2259 8.56567 83.228L14.5828 83.2458L15.8917 83.2497L15.8789 84.5585L15.854 87.1091C15.8436 88.1707 16.7002 89.0375 17.7619 89.0396L24.0822 89.052C25.1128 89.0541 25.9596 88.2388 25.9965 87.2088L26.0929 84.5246L26.138 83.2677L27.3957 83.2712Z" stroke="#103957" stroke-width="2.6"/>
<path d="M39.9827 77.1229L39.312 77.1203V83.0582H65.9065C66.6064 83.0582 67.1742 82.4918 67.176 81.7919L67.1936 74.8264L67.1969 73.5153L68.5079 73.5298L70.7496 73.5545C71.8122 73.5663 72.6805 72.7092 72.6825 71.6465L72.6941 65.5773C72.6961 64.5501 71.886 63.705 70.8597 63.6634L68.465 63.5664L67.2145 63.5157L67.2176 62.2643L67.2385 53.8574L58.3645 53.8308L57.0647 53.8269L57.0684 52.5271L57.0796 48.5921C57.0826 47.5354 56.2278 46.6767 55.1712 46.6748L48.8053 46.6637C47.7502 46.6619 46.8932 47.5151 46.8902 48.5701L46.8789 52.5123L46.8752 53.8134L45.5741 53.8085L39.418 53.7854L39.3501 59.9348L40.2231 59.9647C43.5222 60.0777 46.1368 62.7878 46.1313 66.0889L46.1233 71.0153C46.1177 74.399 43.3664 77.1355 39.9827 77.1229Z" stroke="#103957" stroke-width="2.6"/>
</svg>
