<svg width="760" height="634" viewBox="0 0 760 634" fill="none" xmlns="http://www.w3.org/2000/svg">
<path d="M150.5 608.5C150.5 613.471 146.471 617.5 141.5 617.5C136.529 617.5 132.5 613.471 132.5 608.5C132.5 603.529 136.529 599.5 141.5 599.5C146.471 599.5 150.5 603.529 150.5 608.5Z" stroke="#103957" stroke-width="5"/>
<path d="M477 520C388.845 520 311.745 473.257 269.726 403.5M477 44C343.899 44 236 150.556 236 282C236 286.362 236.119 290.696 236.353 295" stroke="#103957" stroke-width="10"/>
<path d="M573.776 440.599C659.237 387.547 686.034 276.104 633.629 191.685C581.224 107.267 469.461 81.8389 384 134.891" stroke="#103957" stroke-width="10"/>
<path d="M573.776 440.599C659.237 387.547 686.034 276.104 633.629 191.685C581.224 107.267 469.461 81.8389 384 134.891" stroke="#103957" stroke-width="10"/>
<path d="M555.269 480.15C453.882 518.089 342.362 475.962 291.531 385.5M405.477 79.8447C313.353 114.317 258.313 204.147 264.81 296.5" stroke="#103957" stroke-width="16"/>
<path d="M672.095 363.084C714.063 254.784 660.29 132.968 551.989 91" stroke="#103957" stroke-width="18" stroke-linejoin="round"/>
<path d="M672.095 363.084C714.063 254.784 660.29 132.968 551.989 91" stroke="#0088FF" stroke-width="18" stroke-linejoin="round"/>
<path d="M565.461 452.562C495.731 480.784 419.735 468.934 363 427.831" stroke="#0088FF" stroke-width="18" stroke-linejoin="round"/>
<path d="M258.5 179L141 101V46" stroke="#103957" stroke-width="12"/>
<path d="M142.5 586.5V478.5H6.5V451L194 371M109 624.172V601C109 589.954 117.954 581 129 581H142.5H156C167.046 581 176 589.954 176 601V624.172" stroke="#103957" stroke-width="12"/>
<path d="M304 350.5C304 381.152 279.152 406 248.5 406C217.848 406 193 381.152 193 350.5C193 319.848 217.848 295 248.5 295C279.152 295 304 319.848 304 350.5Z" stroke="#103957" stroke-width="8"/>
<path d="M289.5 350C289.5 372.368 271.368 390.5 249 390.5C226.632 390.5 208.5 372.368 208.5 350C208.5 327.632 226.632 309.5 249 309.5C271.368 309.5 289.5 327.632 289.5 350Z" stroke="#103957" stroke-width="3"/>
<path d="M272 350C272 362.703 261.703 373 249 373C236.297 373 226 362.703 226 350C226 337.297 236.297 327 249 327C261.703 327 272 337.297 272 350Z" stroke="#103957" stroke-width="8"/>
<path d="M486 175.153V121" stroke="#103957"/>
<path d="M486 447V392.847" stroke="#103957"/>
<path d="M476.513 175.567L471.793 121.62" stroke="#103957"/>
<path d="M500.206 446.38L495.487 392.433" stroke="#103957"/>
<path d="M467.099 176.806L457.695 123.476" stroke="#103957"/>
<path d="M514.304 444.523L504.901 391.193" stroke="#103957"/>
<path d="M457.828 178.862L443.812 126.554" stroke="#103957"/>
<path d="M528.187 441.446L514.171 389.138" stroke="#103957"/>
<path d="M448.772 181.717L430.25 130.83" stroke="#103957"/>
<path d="M541.749 437.17L523.228 386.283" stroke="#103957"/>
<path d="M439.999 185.351L417.113 136.272" stroke="#103957"/>
<path d="M554.887 431.728L532.001 382.649" stroke="#103957"/>
<path d="M431.576 189.736L404.5 142.838" stroke="#103957"/>
<path d="M567.5 425.162L540.423 378.264" stroke="#103957"/>
<path d="M423.568 194.838L392.507 150.478" stroke="#103957"/>
<path d="M579.493 417.522L548.432 373.163" stroke="#103957"/>
<path d="M416.034 200.618L381.225 159.135" stroke="#103957"/>
<path d="M590.774 408.865L555.965 367.382" stroke="#103957"/>
<path d="M409.033 207.034L370.741 168.742" stroke="#103957"/>
<path d="M601.258 399.258L562.967 360.967" stroke="#103957"/>
<path d="M402.618 214.034L361.135 179.226" stroke="#103957"/>
<path d="M610.865 388.774L569.382 353.966" stroke="#103957"/>
<path d="M396.837 221.568L352.478 190.507" stroke="#103957"/>
<path d="M619.522 377.493L575.162 346.432" stroke="#103957"/>
<path d="M391.735 229.576L344.838 202.5" stroke="#103957"/>
<path d="M627.162 365.5L580.264 338.424" stroke="#103957"/>
<path d="M387.351 237.999L338.272 215.113" stroke="#103957"/>
<path d="M633.728 352.887L584.649 330.001" stroke="#103957"/>
<path d="M383.717 246.772L332.83 228.251" stroke="#103957"/>
<path d="M639.17 339.749L588.283 321.228" stroke="#103957"/>
<path d="M380.862 255.828L328.554 241.812" stroke="#103957"/>
<path d="M643.446 326.187L591.138 312.172" stroke="#103957"/>
<path d="M378.806 265.099L325.476 255.695" stroke="#103957"/>
<path d="M646.523 312.305L593.193 302.901" stroke="#103957"/>
<path d="M377.567 274.513L323.62 269.794" stroke="#103957"/>
<path d="M648.38 298.207L594.433 293.487" stroke="#103957"/>
<path d="M377.153 284H323" stroke="#103957"/>
<path d="M649 284H594.847" stroke="#103957"/>
<path d="M377.567 293.487L323.62 298.206" stroke="#103957"/>
<path d="M648.38 269.793L594.433 274.513" stroke="#103957"/>
<path d="M378.806 302.901L325.476 312.305" stroke="#103957"/>
<path d="M646.523 255.695L593.193 265.099" stroke="#103957"/>
<path d="M380.862 312.172L328.554 326.188" stroke="#103957"/>
<path d="M643.446 241.813L591.138 255.829" stroke="#103957"/>
<path d="M383.717 321.227L332.83 339.748" stroke="#103957"/>
<path d="M639.17 228.251L588.283 246.772" stroke="#103957"/>
<path d="M387.351 330.001L338.272 352.887" stroke="#103957"/>
<path d="M633.728 215.113L584.649 237.999" stroke="#103957"/>
<path d="M391.735 338.424L344.838 365.5" stroke="#103957"/>
<path d="M627.162 202.5L580.264 229.576" stroke="#103957"/>
<path d="M396.837 346.431L352.478 377.492" stroke="#103957"/>
<path d="M619.522 190.507L575.162 221.568" stroke="#103957"/>
<path d="M402.617 353.965L361.134 388.774" stroke="#103957"/>
<path d="M610.865 179.226L569.381 214.035" stroke="#103957"/>
<path d="M409.033 360.966L370.741 399.258" stroke="#103957"/>
<path d="M601.258 168.742L562.966 207.033" stroke="#103957"/>
<path d="M416.034 367.382L381.225 408.865" stroke="#103957"/>
<path d="M590.774 159.135L555.965 200.618" stroke="#103957"/>
<path d="M423.568 373.163L392.507 417.522" stroke="#103957"/>
<path d="M579.493 150.478L548.432 194.838" stroke="#103957"/>
<path d="M431.576 378.264L404.5 425.162" stroke="#103957"/>
<path d="M567.5 142.838L540.423 189.736" stroke="#103957"/>
<path d="M439.999 382.649L417.113 431.728" stroke="#103957"/>
<path d="M554.886 136.272L532 185.351" stroke="#103957"/>
<path d="M448.772 386.283L430.25 437.17" stroke="#103957"/>
<path d="M541.749 130.83L523.228 181.717" stroke="#103957"/>
<path d="M457.828 389.138L443.812 441.446" stroke="#103957"/>
<path d="M528.187 126.554L514.172 178.862" stroke="#103957"/>
<path d="M467.099 391.194L457.695 444.524" stroke="#103957"/>
<path d="M514.304 123.476L504.901 176.806" stroke="#103957"/>
<path d="M476.513 392.433L471.793 446.38" stroke="#103957"/>
<path d="M500.206 121.62L495.487 175.567" stroke="#103957"/>
<path d="M436.35 225.977H528.564" stroke="#103957" stroke-width="4"/>
<path d="M471.568 218.145H493.657M436.35 335.311H529.265" stroke="#103957" stroke-width="4"/>
<path d="M529.265 314.322V332C529.265 348.016 516.282 361 500.265 361H465C448.983 361 436 348.016 436 332V226.917V226.917C436 217.574 443.574 210 452.917 210H509V210C520.192 210 529.265 219.073 529.265 230.266V245.293" stroke="#103957" stroke-width="4"/>
<path d="M490.801 347.216C490.801 349.712 488.46 352.108 485.087 352.108C481.714 352.108 479.373 349.712 479.373 347.216C479.373 344.72 481.714 342.324 485.087 342.324C488.46 342.324 490.801 344.72 490.801 347.216Z" stroke="#103957" stroke-width="4"/>
<path d="M495.956 305.863H493.178C485.999 305.863 480.178 300.043 480.178 292.863V273.751C480.178 266.571 485.999 260.751 493.178 260.751H541.51C548.69 260.751 554.51 266.571 554.51 273.751V292.863C554.51 300.043 548.69 305.863 541.51 305.863H505.774" stroke="#103957" stroke-width="4"/>
<path d="M492.801 259.92V259.92C492.801 255.534 496.356 251.979 500.741 251.979H554.132C561.312 251.979 567.132 257.8 567.132 264.979V285.095C567.132 292.067 561.481 297.718 554.51 297.718V297.718" stroke="#103957" stroke-width="4"/>
<path d="M495.956 304.263V322.58L507.5 305.157" stroke="#103957" stroke-width="4"/>
<path d="M488.944 269.21H506.124M545.745 269.21H512.436M488.944 276.415H520.5M545.745 276.415H526.811M488.944 282.681H514.189M519.799 282.681H545.745M488.944 289.26H506.124M488.944 296.465H520.5M512.436 289.26H545.745M526.811 296.465H545.745" stroke="#0088FF" stroke-width="2"/>
<path d="M314 297.5C314 301.09 311.09 304 307.5 304C303.91 304 301 301.09 301 297.5C301 293.91 303.91 291 307.5 291C311.09 291 314 293.91 314 297.5Z" stroke="#0088FF" stroke-width="6"/>
<path d="M314 268.5C314 272.09 311.09 275 307.5 275C303.91 275 301 272.09 301 268.5C301 264.91 303.91 262 307.5 262C311.09 262 314 264.91 314 268.5Z" stroke="#0088FF" stroke-width="6"/>
<path d="M317 241.5C317 245.09 314.09 248 310.5 248C306.91 248 304 245.09 304 241.5C304 237.91 306.91 235 310.5 235C314.09 235 317 237.91 317 241.5Z" stroke="#0088FF" stroke-width="6"/>
<path d="M326 215.5C326 219.09 323.09 222 319.5 222C315.91 222 313 219.09 313 215.5C313 211.91 315.91 209 319.5 209C323.09 209 326 211.91 326 215.5Z" stroke="#0088FF" stroke-width="6"/>
<path d="M339 190.5C339 194.09 336.09 197 332.5 197C328.91 197 326 194.09 326 190.5C326 186.91 328.91 184 332.5 184C336.09 184 339 186.91 339 190.5Z" stroke="#0088FF" stroke-width="6"/>
<path d="M356 168.5C356 172.09 353.09 175 349.5 175C345.91 175 343 172.09 343 168.5C343 164.91 345.91 162 349.5 162C353.09 162 356 164.91 356 168.5Z" stroke="#0088FF" stroke-width="6"/>
<path d="M268.612 467.051C268.612 467.051 284.464 487.504 299.585 495.388" stroke="#103957" stroke-width="1.73595"/>
<path d="M321.759 420.504L248.752 483.596L235.725 468.328" stroke="#103957" stroke-width="1.73595"/>
<path d="M204.793 464.738C197.085 455.703 198.16 442.129 207.195 434.421C216.231 426.712 229.804 427.787 237.513 436.822C245.222 445.858 244.146 459.431 235.111 467.14C226.076 474.849 212.502 473.774 204.793 464.738Z" stroke="#103957" stroke-width="2.60393"/>
<path d="M209.42 460.791C203.892 454.311 204.663 444.576 211.143 439.047C217.623 433.519 227.358 434.29 232.886 440.77C238.415 447.25 237.644 456.985 231.164 462.513C224.684 468.042 214.949 467.271 209.42 460.791Z" stroke="#103957" stroke-width="2.60393"/>
<path d="M214.047 456.843C210.699 452.919 211.166 447.022 215.09 443.674C219.015 440.325 224.911 440.793 228.26 444.717C231.608 448.642 231.141 454.538 227.216 457.887C223.292 461.235 217.396 460.768 214.047 456.843Z" stroke="#103957" stroke-width="2.60393"/>
<path d="M301.084 503.304C298.67 500.474 299.007 496.224 301.836 493.81C304.666 491.396 308.916 491.732 311.33 494.562C313.744 497.391 313.407 501.642 310.578 504.056C307.749 506.47 303.498 506.133 301.084 503.304Z" stroke="#103957" stroke-width="1.73595"/>
<path d="M313.249 552.716C313.249 552.716 288.807 539.623 277.775 525.056" stroke="#0088FF" stroke-width="1.73595"/>
<path d="M380.5 444.5L299.317 576.656L317.776 587.691" stroke="#0088FF" stroke-width="1.73595"/>
<path d="M327.048 619.809C338.015 626.366 352.221 622.79 358.778 611.822C365.334 600.855 361.758 586.649 350.791 580.092C339.823 573.536 325.617 577.112 319.061 588.079C312.504 599.047 316.08 613.253 327.048 619.809Z" stroke="#0088FF" stroke-width="2.60393"/>
<path d="M330.392 614.216C338.27 618.925 348.475 616.357 353.184 608.478C357.894 600.6 355.325 590.395 347.447 585.686C339.569 580.976 329.364 583.545 324.654 591.423C319.945 599.301 322.513 609.506 330.392 614.216Z" stroke="#0088FF" stroke-width="2.60393"/>
<path d="M333.736 608.622C338.525 611.485 344.728 609.924 347.591 605.135C350.454 600.346 348.892 594.143 344.103 591.28C339.314 588.417 333.111 589.978 330.248 594.767C327.385 599.556 328.947 605.759 333.736 608.622Z" stroke="#0088FF" stroke-width="2.60393"/>
<path d="M269.112 524.94C272.563 527.002 277.031 525.878 279.094 522.427C281.156 518.977 280.032 514.508 276.581 512.446C273.131 510.383 268.662 511.508 266.6 514.958C264.537 518.409 265.662 522.877 269.112 524.94Z" stroke="#0088FF" stroke-width="1.73595"/>
<path d="M154 33C154 40.1797 148.18 46 141 46C133.82 46 128 40.1797 128 33C128 25.8203 133.82 20 141 20C148.18 20 154 25.8203 154 33Z" stroke="#103957" stroke-width="10"/>
<path d="M113 31V31C113 16.0883 125.088 4 140 4H142C156.912 4 169 16.0883 169 31V31" stroke="#103957" stroke-width="8"/>
</svg>
