<svg width="1021" height="1022" viewBox="0 0 1021 1022" fill="none" xmlns="http://www.w3.org/2000/svg">
<path d="M207.389 669.218C207.389 669.218 182.838 652.305 172.792 635.42" stroke="#0088FF" stroke-width="2"/>
<path d="M527.404 606.704C456.888 699.416 325.564 718.168 234.084 648.588C142.605 579.008 125.612 447.445 196.128 354.734" stroke="white" stroke-width="10"/>
<path d="M298 364.992C364.532 327.44 448.538 350.276 485.632 415.998C522.726 481.719 498.86 565.439 432.328 602.99" stroke="white" stroke-width="10"/>
<path d="M318.77 646.967C225.993 620.232 172.455 523.349 199.189 430.572" stroke="#0088FF" stroke-width="18" stroke-linejoin="round"/>
<path d="M424.211 311.078C516.859 338.258 569.931 435.397 542.752 528.045" stroke="white" stroke-width="18" stroke-linejoin="round"/>
<path d="M443.499 291.499C510.5 315.999 563 376.999 569.5 450.499" stroke="white" stroke-width="10" stroke-linejoin="round"/>
<path d="M257.499 605.078L189.639 693.133L208.043 707.131" stroke="#0088FF" stroke-width="2"/>
<path d="M214.17 742.479C225.061 750.763 240.605 748.649 248.889 737.758C257.173 726.867 255.059 711.323 244.168 703.039C233.277 694.755 217.733 696.869 209.449 707.76C201.165 718.651 203.279 734.195 214.17 742.479Z" stroke="#0088FF" stroke-width="3"/>
<path d="M218.412 736.902C226.223 742.843 237.371 741.327 243.312 733.516C249.253 725.705 247.737 714.557 239.926 708.616C232.115 702.675 220.967 704.191 215.026 712.002C209.085 719.813 210.601 730.961 218.412 736.902Z" stroke="#0088FF" stroke-width="3"/>
<path d="M222.654 731.325C227.384 734.924 234.137 734.005 237.735 729.275C241.333 724.544 240.415 717.792 235.684 714.193C230.953 710.595 224.201 711.513 220.603 716.244C217.005 720.975 217.923 727.727 222.654 731.325Z" stroke="#0088FF" stroke-width="3"/>
<path d="M163.59 634.208C167 636.802 171.868 636.14 174.462 632.729C177.056 629.319 176.394 624.451 172.984 621.857C169.573 619.263 164.705 619.925 162.111 623.335C159.517 626.746 160.179 631.614 163.59 634.208Z" stroke="#0088FF" stroke-width="2"/>
<path d="M364.053 371.724L362.631 317.361" stroke="white"/>
<path d="M371.195 644.626L369.772 590.263" stroke="white"/>
<path d="M354.54 372.388L348.385 318.356" stroke="white"/>
<path d="M385.439 643.63L379.284 589.597" stroke="white"/>
<path d="M345.122 373.88L334.281 320.59" stroke="white"/>
<path d="M399.544 641.396L388.703 588.106" stroke="white"/>
<path d="M335.871 376.187L320.426 324.044" stroke="white"/>
<path d="M413.4 637.942L397.956 585.8" stroke="white"/>
<path d="M326.853 379.291L306.923 328.693" stroke="white"/>
<path d="M426.902 633.293L406.972 582.695" stroke="white"/>
<path d="M318.142 383.17L293.878 334.502" stroke="white"/>
<path d="M439.948 627.485L415.684 578.817" stroke="white"/>
<path d="M309.802 387.793L281.388 341.424" stroke="white"/>
<path d="M452.437 620.562L424.024 574.194" stroke="white"/>
<path d="M301.896 393.124L269.549 349.409" stroke="white"/>
<path d="M464.276 612.577L431.929 568.862" stroke="white"/>
<path d="M294.485 399.126L258.452 358.396" stroke="white"/>
<path d="M475.374 603.591L439.34 562.861" stroke="white"/>
<path d="M287.626 405.749L248.179 368.315" stroke="white"/>
<path d="M485.646 593.671L446.2 556.236" stroke="white"/>
<path d="M281.369 412.946L238.811 379.092" stroke="white"/>
<path d="M495.015 582.894L452.456 549.04" stroke="white"/>
<path d="M281.369 412.946L238.811 379.092" stroke="white"/>
<path d="M495.015 582.894L452.456 549.04" stroke="white"/>
<path d="M275.764 420.661L230.417 390.645" stroke="white"/>
<path d="M503.409 571.341L458.061 541.325" stroke="white"/>
<path d="M270.853 428.834L223.062 402.884" stroke="white"/>
<path d="M510.763 559.101L462.972 533.152" stroke="white"/>
<path d="M266.673 437.405L216.802 415.72" stroke="white"/>
<path d="M517.024 546.266L467.153 524.581" stroke="white"/>
<path d="M263.255 446.307L211.684 429.051" stroke="white"/>
<path d="M522.141 532.934L470.57 515.678" stroke="white"/>
<path d="M260.626 455.474L207.748 442.778" stroke="white"/>
<path d="M526.078 519.208L473.199 506.512" stroke="white"/>
<path d="M258.807 464.833L205.023 456.794" stroke="white"/>
<path d="M528.803 505.191L475.019 497.152" stroke="white"/>
<path d="M257.81 474.318L203.53 470.997" stroke="white"/>
<path d="M530.296 490.989L476.016 487.668" stroke="white"/>
<path d="M257.643 483.852L203.28 485.275" stroke="white"/>
<path d="M530.545 476.711L476.182 478.133" stroke="white"/>
<path d="M258.308 493.363L204.275 499.518" stroke="white"/>
<path d="M529.549 462.466L475.517 468.621" stroke="white"/>
<path d="M259.8 502.784L206.51 513.625" stroke="white"/>
<path d="M527.316 448.362L474.026 459.203" stroke="white"/>
<path d="M262.106 512.036L209.964 527.48" stroke="white"/>
<path d="M523.861 434.506L471.719 449.95" stroke="white"/>
<path d="M265.21 521.051L214.612 540.981" stroke="white"/>
<path d="M519.212 421.004L468.614 440.934" stroke="white"/>
<path d="M269.089 529.764L220.421 554.028" stroke="white"/>
<path d="M513.404 407.958L464.736 432.222" stroke="white"/>
<path d="M273.712 538.104L227.343 566.517" stroke="white"/>
<path d="M506.481 395.469L460.113 423.882" stroke="white"/>
<path d="M279.044 546.01L235.328 578.356" stroke="white"/>
<path d="M498.496 383.63L454.781 415.977" stroke="white"/>
<path d="M285.044 553.42L244.314 589.453" stroke="white"/>
<path d="M489.51 372.532L448.78 408.565" stroke="white"/>
<path d="M291.669 560.279L254.234 599.726" stroke="white"/>
<path d="M479.59 362.26L442.156 401.706" stroke="white"/>
<path d="M298.866 566.537L265.012 609.095" stroke="white"/>
<path d="M468.813 352.891L434.959 395.45" stroke="white"/>
<path d="M306.58 572.142L276.564 617.489" stroke="white"/>
<path d="M457.261 344.497L427.245 389.844" stroke="white"/>
<path d="M314.754 577.053L288.804 624.844" stroke="white"/>
<path d="M445.02 337.143L419.071 384.934" stroke="white"/>
<path d="M323.325 581.233L301.639 631.104" stroke="white"/>
<path d="M432.185 330.882L410.5 380.753" stroke="white"/>
<path d="M332.227 584.651L314.971 636.222" stroke="white"/>
<path d="M418.855 325.764L401.598 377.335" stroke="white"/>
<path d="M341.393 587.279L328.697 640.158" stroke="white"/>
<path d="M405.128 321.828L392.432 374.707" stroke="white"/>
<path d="M350.754 589.099L342.715 642.883" stroke="white"/>
<path d="M391.11 319.103L383.071 372.887" stroke="white"/>
<path d="M360.237 590.096L356.917 644.376" stroke="white"/>
<path d="M376.908 317.61L373.587 371.89" stroke="white"/>
<path d="M411.999 683.078L429 728.08L697 728.08L697 825" stroke="white" stroke-width="10"/>
<path d="M698 194.499L698 292.499L527.998 388.078" stroke="white" stroke-width="10"/>
<path d="M687 194.5L687 285L514 380.157" stroke="white" stroke-width="4"/>
<path d="M342.643 432.55L309.764 432.55C306.755 432.55 304.315 434.989 304.315 437.999L304.315 450.864L300.952 450.838C297.17 450.808 294.089 453.866 294.089 457.649L294.089 462.243C294.089 465.913 296.995 468.923 300.662 469.05L304.315 469.178L304.315 487.485L325.708 487.485L325.708 496.185C325.708 499.947 328.758 502.996 332.519 502.996L334.548 502.996C338.309 502.996 341.359 499.947 341.359 496.185L341.359 487.485L361.032 487.485L361.167 469.178L352.202 468.999C347.243 468.9 343.275 464.852 343.275 459.893V459.893C343.275 454.863 347.353 450.785 352.383 450.785L361.167 450.785L361.167 437.873C361.167 434.858 358.719 432.417 355.704 432.424L342.643 432.456" stroke="white" stroke-width="2"/>
<path d="M320.279 492.224L304.351 492.224L304.351 542.514C304.351 544.967 306.337 546.957 308.79 546.963L323.053 546.996L324.061 546.998L324.05 548.006L324.015 551.352C323.982 554.579 326.585 557.216 329.812 557.224L334.832 557.236C337.961 557.243 340.533 554.773 340.653 551.647L340.792 548.002L340.829 547.038L341.794 547.04L359.528 547.083L359.579 526.719L359.582 525.719L360.582 525.722L369.645 525.743C372.854 525.751 375.462 523.156 375.47 519.947L375.475 517.941C375.483 514.731 372.887 512.123 369.678 512.115L360.616 512.093L359.616 512.091L359.618 511.091L359.665 492.436L346.895 492.281L346.763 497.517C346.609 503.607 341.622 508.461 335.529 508.45L331.461 508.442C325.263 508.431 320.248 503.394 320.265 497.195L320.279 492.224Z" stroke="white" stroke-width="2"/>
<path d="M364.738 530.354L364.738 546.711L415.029 546.711C417.482 546.711 419.472 544.726 419.478 542.273L419.51 529.287L419.512 528.279L420.52 528.289L423.866 528.324C427.094 528.358 429.73 525.755 429.738 522.528L429.75 517.508C429.757 514.379 427.287 511.806 424.161 511.687L420.517 511.548L419.552 511.511L419.555 510.546L419.597 492.812L399.233 492.761L398.234 492.758L398.236 491.758L398.258 482.695C398.265 479.486 395.67 476.878 392.461 476.87L390.455 476.865C387.245 476.857 384.637 479.453 384.63 482.662L384.608 491.724L384.605 492.724L383.605 492.721L364.952 492.675L364.794 507.68L370.028 507.813C376.127 507.967 380.974 513.026 380.961 519.112C380.947 525.301 375.918 530.385 369.713 530.368L364.738 530.354Z" stroke="white" stroke-width="2"/>
<path d="M405.147 480.378L419.345 488.5L444.318 444.848C445.536 442.719 444.801 440.005 442.675 438.782L431.419 432.306L430.545 431.804L431.055 430.934L432.746 428.047C434.378 425.262 433.428 421.681 430.63 420.072L426.279 417.569C423.567 416.009 420.107 416.876 418.451 419.53L416.521 422.624L416.01 423.442L415.174 422.961L399.801 414.118L389.645 431.768L389.146 432.635L388.28 432.136L380.424 427.617C377.642 426.017 374.09 426.975 372.489 429.756L371.489 431.495C369.888 434.277 370.846 437.83 373.628 439.43L381.483 443.949L382.35 444.447L381.851 445.314L372.547 461.482L385.494 469.071L388.208 464.593C391.37 459.376 398.168 457.681 403.444 460.714C408.81 463.8 410.725 470.689 407.629 476.067L405.147 480.378Z" stroke="#0088FF" stroke-width="2"/>
</svg>
