<svg width="373" height="367" viewBox="0 0 373 367" fill="none" xmlns="http://www.w3.org/2000/svg">
<path d="M140.031 179.242C148.385 202.693 168.242 218.7 190.841 223.037" stroke="#0088FF" stroke-width="10"/>
<path d="M111.029 180.211C111.029 180.211 102.786 154.533 104.917 136.888" stroke="#0088FF" stroke-width="2"/>
<path d="M182.358 161.948L85.104 187.536L90.5542 207.731" stroke="#0088FF" stroke-width="2"/>
<path d="M75.5535 236.399C78.7582 248.273 90.982 255.301 102.856 252.096C114.73 248.892 121.758 236.668 118.554 224.794C115.349 212.92 103.125 205.892 91.2511 209.096C79.3769 212.301 72.3489 224.525 75.5535 236.399Z" stroke="#0088FF" stroke-width="3"/>
<path d="M83.1061 239L82.5462 237.823C79.3049 231.009 81.2262 222.859 87.1696 218.21V218.21C93.2609 213.446 101.878 213.681 107.7 218.771L108 219.033" stroke="#103957" stroke-width="4"/>
<path d="M99.088 130.911C100.084 134.603 103.884 136.788 107.576 135.791C111.267 134.795 113.452 130.995 112.456 127.304C111.46 123.612 107.66 121.427 103.968 122.423C100.277 123.42 98.0917 127.22 99.088 130.911Z" stroke="#0088FF" stroke-width="2"/>
<path d="M259.031 155.611C259.031 185.159 235.078 209.111 205.531 209.111C175.984 209.111 152.031 185.159 152.031 155.611C152.031 126.064 175.984 102.111 205.531 102.111C235.078 102.111 259.031 126.064 259.031 155.611Z" stroke="#103957" stroke-width="6"/>
<path d="M206.031 72.6113L206.031 102.111" stroke="#103957" stroke-width="10"/>
<path d="M230.031 156.111C230.031 169.366 219.286 180.111 206.031 180.111C192.776 180.111 182.031 169.366 182.031 156.111C182.031 142.856 192.776 132.111 206.031 132.111C219.286 132.111 230.031 142.856 230.031 156.111Z" stroke="#0088FF" stroke-width="6"/>
<path d="M124.849 253.665L150.906 220.903" stroke="#103957"/>
<path d="M133.743 260.124L156.845 225.216" stroke="#103957"/>
<path d="M143.166 265.785L163.138 228.997" stroke="#103957"/>
<path d="M153.045 270.604L169.735 232.214" stroke="#103957"/>
<path d="M163.307 274.542L176.588 234.844" stroke="#103957"/>
<path d="M173.874 277.572L183.644 236.867" stroke="#103957"/>
<path d="M184.664 279.668L190.85 238.267" stroke="#103957"/>
<path d="M195.596 280.817L198.149 239.035" stroke="#103957"/>
<path d="M206.586 281.008L205.488 239.162" stroke="#103957"/>
<path d="M217.551 280.241L212.81 238.65" stroke="#103957"/>
<path d="M228.408 278.521L220.061 237.501" stroke="#103957"/>
<path d="M239.074 275.861L227.183 235.725" stroke="#103957"/>
<path d="M249.467 272.281L234.123 233.334" stroke="#103957"/>
<path d="M259.508 267.81L240.828 230.349" stroke="#103957"/>
<path d="M269.122 262.48L247.248 226.79" stroke="#103957"/>
<path d="M278.235 256.334L253.333 222.685" stroke="#103957"/>
<path d="M286.777 249.415L259.037 218.065" stroke="#103957"/>
<path d="M294.683 241.78L264.317 212.966" stroke="#103957"/>
<path d="M301.894 233.483L269.132 207.426" stroke="#103957"/>
<path d="M308.355 224.59L273.447 201.487" stroke="#103957"/>
<path d="M314.016 215.167L277.227 195.195" stroke="#103957"/>
<path d="M318.834 205.288L280.444 188.598" stroke="#103957"/>
<path d="M322.772 195.026L283.074 181.745" stroke="#103957"/>
<path d="M325.802 184.458L285.098 174.688" stroke="#103957"/>
<path d="M327.899 173.669L286.498 167.484" stroke="#103957"/>
<path d="M329.047 162.736L287.265 160.183" stroke="#103957"/>
<path d="M329.238 151.746L287.392 152.844" stroke="#103957"/>
</svg>
