<svg width="19" height="17" viewBox="0 0 19 17" fill="none" xmlns="http://www.w3.org/2000/svg">
<path d="M18.8406 2.48555C18.1318 2.83213 17.4231 3.00542 16.5963 3.12095C17.4231 2.60107 18.0138 1.85014 18.309 0.868165C17.5412 1.33027 16.7143 1.67686 15.8284 1.85014C15.1788 1.09922 14.1156 0.579346 13.0526 0.579346C10.9263 0.579346 9.21357 2.37002 9.21357 4.62281C9.21357 4.91162 9.27263 5.25821 9.3317 5.54703C6.08332 5.43149 3.18931 3.75635 1.29935 1.33027C0.944977 1.90791 0.767798 2.60107 0.767798 3.352C0.767798 4.73833 1.47654 6.00914 2.48058 6.76007C1.8309 6.76007 1.24028 6.58677 0.708736 6.24019V6.29796C0.708736 8.26191 2.06715 9.87931 3.77993 10.2836C3.54369 10.3991 3.18931 10.3991 2.83494 10.3991C2.5987 10.3991 2.36246 10.3991 2.12621 10.3414C2.5987 11.9588 4.01617 13.1141 5.72895 13.1718C4.4296 14.2693 2.71682 14.9047 0.944977 14.9047C0.649675 14.9047 0.295307 14.9047 0 14.847C1.71278 16.0023 3.72086 16.6954 5.90613 16.6954C12.9935 16.6954 16.8915 10.5147 16.8915 5.14267C16.8915 4.96939 16.8915 4.7961 16.8915 4.62281C17.6594 4.04517 18.309 3.29424 18.8406 2.48555Z" fill="#103957"/>
</svg>
