<svg width="19" height="18" viewBox="0 0 19 18" fill="none" xmlns="http://www.w3.org/2000/svg">
<path d="M4.16565 6.34033H0.49707V17.9043H4.16565V6.34033Z" fill="#103957"/>
<path d="M14.1768 6.21875C12.0626 6.21875 10.7569 7.3201 10.5082 8.11551V6.27994H6.4043C6.46647 7.25891 6.4043 17.844 6.4043 17.844H10.5082V11.6643C10.5082 11.2972 10.5082 10.9913 10.5704 10.7465C10.8812 10.0735 11.4409 9.33922 12.5601 9.33922C13.9902 9.33922 14.612 10.3794 14.612 11.9702V17.9664H18.778V11.4807C18.8403 7.87077 16.7883 6.21875 14.1768 6.21875Z" fill="#103957"/>
<path d="M2.23855 0.893555C0.870546 0.893555 0 1.75052 0 2.91355C0 4.01536 0.870547 4.93353 2.17637 4.93353C3.54437 4.93353 4.41492 4.07657 4.41492 2.91355C4.41492 1.75052 3.60655 0.893555 2.23855 0.893555Z" fill="#103957"/>
</svg>
