<svg width="692" height="663" viewBox="0 0 692 663" fill="none" xmlns="http://www.w3.org/2000/svg">
<path d="M409 489C320.845 489 243.745 442.257 201.726 372.5M409 13C275.899 13 168 119.556 168 251C168 255.362 168.119 259.696 168.353 264" stroke="#103957" stroke-width="10"/>
<path d="M505.776 409.599C591.237 356.547 618.034 245.104 565.629 160.685C513.224 76.2666 401.461 50.8389 316 103.891" stroke="#103957" stroke-width="10"/>
<path d="M505.776 409.599C591.237 356.547 618.034 245.104 565.629 160.685C513.224 76.2666 401.461 50.8389 316 103.891" stroke="#103957" stroke-width="10"/>
<path d="M487.269 449.15C385.882 487.089 274.362 444.962 223.531 354.5M337.477 48.8447C245.353 83.3171 190.313 173.147 196.81 265.5" stroke="#103957" stroke-width="16"/>
<path d="M604.095 332.084C646.063 223.784 592.29 101.968 483.989 60" stroke="#103957" stroke-width="18" stroke-linejoin="round"/>
<path d="M604.095 332.084C646.063 223.784 592.29 101.968 483.989 60" stroke="#0088FF" stroke-width="18" stroke-linejoin="round"/>
<path d="M497.461 421.562C427.731 449.784 351.735 437.934 295 396.831" stroke="#0088FF" stroke-width="18" stroke-linejoin="round"/>
<path d="M190.5 148L22.5 57V16.5" stroke="#103957" stroke-width="12"/>
<path d="M74.5 617.348V495.794H6V435.266L126 341M41 662.172V640C41 628.954 49.9543 620 61 620H74.5H88C99.0457 620 108 628.954 108 640V662.172" stroke="#103957" stroke-width="12"/>
<path d="M236 319.5C236 350.152 211.152 375 180.5 375C149.848 375 125 350.152 125 319.5C125 288.848 149.848 264 180.5 264C211.152 264 236 288.848 236 319.5Z" stroke="#103957" stroke-width="8"/>
<path d="M221.5 319C221.5 341.368 203.368 359.5 181 359.5C158.632 359.5 140.5 341.368 140.5 319C140.5 296.632 158.632 278.5 181 278.5C203.368 278.5 221.5 296.632 221.5 319Z" stroke="#103957" stroke-width="3"/>
<path d="M204 319C204 331.703 193.703 342 181 342C168.297 342 158 331.703 158 319C158 306.297 168.297 296 181 296C193.703 296 204 306.297 204 319Z" stroke="#103957" stroke-width="8"/>
<path d="M418 144.153V90" stroke="#103957"/>
<path d="M418 416V361.847" stroke="#103957"/>
<path d="M408.513 144.567L403.793 90.6204" stroke="#103957"/>
<path d="M432.206 415.38L427.487 361.433" stroke="#103957"/>
<path d="M399.099 145.806L389.695 92.4763" stroke="#103957"/>
<path d="M446.304 413.523L436.901 360.193" stroke="#103957"/>
<path d="M389.828 147.862L375.812 95.5542" stroke="#103957"/>
<path d="M460.187 410.446L446.171 358.138" stroke="#103957"/>
<path d="M380.772 150.717L362.25 99.8301" stroke="#103957"/>
<path d="M473.749 406.17L455.228 355.283" stroke="#103957"/>
<path d="M371.999 154.351L349.113 105.272" stroke="#103957"/>
<path d="M486.887 400.728L464.001 351.649" stroke="#103957"/>
<path d="M363.576 158.736L336.5 111.838" stroke="#103957"/>
<path d="M499.5 394.162L472.423 347.264" stroke="#103957"/>
<path d="M355.568 163.838L324.507 119.478" stroke="#103957"/>
<path d="M511.493 386.522L480.432 342.163" stroke="#103957"/>
<path d="M348.034 169.618L313.225 128.135" stroke="#103957"/>
<path d="M522.774 377.865L487.965 336.382" stroke="#103957"/>
<path d="M341.033 176.034L302.741 137.742" stroke="#103957"/>
<path d="M533.258 368.258L494.967 329.967" stroke="#103957"/>
<path d="M334.618 183.034L293.135 148.226" stroke="#103957"/>
<path d="M542.865 357.774L501.382 322.966" stroke="#103957"/>
<path d="M328.837 190.568L284.478 159.507" stroke="#103957"/>
<path d="M551.522 346.493L507.162 315.432" stroke="#103957"/>
<path d="M323.735 198.576L276.838 171.5" stroke="#103957"/>
<path d="M559.162 334.5L512.264 307.424" stroke="#103957"/>
<path d="M319.351 206.999L270.272 184.113" stroke="#103957"/>
<path d="M565.728 321.887L516.649 299.001" stroke="#103957"/>
<path d="M315.717 215.772L264.83 197.251" stroke="#103957"/>
<path d="M571.17 308.749L520.283 290.228" stroke="#103957"/>
<path d="M312.862 224.828L260.554 210.812" stroke="#103957"/>
<path d="M575.446 295.187L523.138 281.172" stroke="#103957"/>
<path d="M310.806 234.099L257.476 224.695" stroke="#103957"/>
<path d="M578.523 281.305L525.193 271.901" stroke="#103957"/>
<path d="M309.567 243.513L255.62 238.794" stroke="#103957"/>
<path d="M580.38 267.207L526.433 262.487" stroke="#103957"/>
<path d="M309.153 253L255 253" stroke="#103957"/>
<path d="M581 253L526.847 253" stroke="#103957"/>
<path d="M309.567 262.487L255.62 267.206" stroke="#103957"/>
<path d="M580.38 238.793L526.433 243.513" stroke="#103957"/>
<path d="M310.806 271.901L257.476 281.305" stroke="#103957"/>
<path d="M578.523 224.695L525.193 234.099" stroke="#103957"/>
<path d="M312.862 281.172L260.554 295.188" stroke="#103957"/>
<path d="M575.446 210.813L523.138 224.829" stroke="#103957"/>
<path d="M315.717 290.227L264.83 308.748" stroke="#103957"/>
<path d="M571.17 197.251L520.283 215.772" stroke="#103957"/>
<path d="M319.351 299.001L270.272 321.887" stroke="#103957"/>
<path d="M565.728 184.113L516.649 206.999" stroke="#103957"/>
<path d="M323.735 307.424L276.838 334.5" stroke="#103957"/>
<path d="M559.162 171.5L512.264 198.576" stroke="#103957"/>
<path d="M328.837 315.431L284.478 346.492" stroke="#103957"/>
<path d="M551.522 159.507L507.162 190.568" stroke="#103957"/>
<path d="M334.617 322.965L293.134 357.774" stroke="#103957"/>
<path d="M542.865 148.226L501.381 183.035" stroke="#103957"/>
<path d="M341.033 329.966L302.741 368.258" stroke="#103957"/>
<path d="M533.258 137.742L494.966 176.033" stroke="#103957"/>
<path d="M348.034 336.382L313.225 377.865" stroke="#103957"/>
<path d="M522.774 128.135L487.965 169.618" stroke="#103957"/>
<path d="M355.568 342.163L324.507 386.522" stroke="#103957"/>
<path d="M511.493 119.478L480.432 163.838" stroke="#103957"/>
<path d="M363.576 347.264L336.5 394.162" stroke="#103957"/>
<path d="M499.5 111.838L472.423 158.736" stroke="#103957"/>
<path d="M371.999 351.649L349.113 400.728" stroke="#103957"/>
<path d="M486.886 105.272L464 154.351" stroke="#103957"/>
<path d="M380.772 355.283L362.25 406.17" stroke="#103957"/>
<path d="M473.749 99.8303L455.228 150.717" stroke="#103957"/>
<path d="M389.828 358.138L375.812 410.446" stroke="#103957"/>
<path d="M460.187 95.554L446.172 147.862" stroke="#103957"/>
<path d="M399.099 360.194L389.695 413.524" stroke="#103957"/>
<path d="M446.304 92.4763L436.901 145.806" stroke="#103957"/>
<path d="M408.513 361.433L403.793 415.38" stroke="#103957"/>
<path d="M432.206 90.6204L427.487 144.567" stroke="#103957"/>
<path d="M368.35 194.977H460.564" stroke="#103957" stroke-width="4"/>
<path d="M403.568 187.145H425.657M368.35 304.311H461.265" stroke="#103957" stroke-width="4"/>
<path d="M461.265 283.322V301C461.265 317.016 448.282 330 432.265 330H397C380.983 330 368 317.016 368 301V195.917V195.917C368 186.574 375.574 179 384.917 179H441V179C452.192 179 461.265 188.073 461.265 199.266V214.293" stroke="#103957" stroke-width="4"/>
<path d="M422.801 316.216C422.801 318.712 420.46 321.108 417.087 321.108C413.714 321.108 411.373 318.712 411.373 316.216C411.373 313.72 413.714 311.324 417.087 311.324C420.46 311.324 422.801 313.72 422.801 316.216Z" stroke="#103957" stroke-width="4"/>
<path d="M427.956 274.863H425.178C417.999 274.863 412.178 269.043 412.178 261.863V242.751C412.178 235.571 417.999 229.751 425.178 229.751H473.51C480.69 229.751 486.51 235.571 486.51 242.751V261.863C486.51 269.043 480.69 274.863 473.51 274.863H437.774" stroke="#103957" stroke-width="4"/>
<path d="M424.801 228.92V228.92C424.801 224.534 428.356 220.979 432.741 220.979H486.132C493.312 220.979 499.132 226.8 499.132 233.979V254.095C499.132 261.067 493.481 266.718 486.51 266.718V266.718" stroke="#103957" stroke-width="4"/>
<path d="M427.956 273.263V291.58L439.5 274.157" stroke="#103957" stroke-width="4"/>
<path d="M420.944 238.21H438.124M477.745 238.21H444.436M420.944 245.415H452.5M477.745 245.415H458.811M420.944 251.681H446.189M451.799 251.681H477.745M420.944 258.26H438.124M420.944 265.465H452.5M444.436 258.26H477.745M458.811 265.465H477.745" stroke="#0088FF" stroke-width="2"/>
<path d="M246 266.5C246 270.09 243.09 273 239.5 273C235.91 273 233 270.09 233 266.5C233 262.91 235.91 260 239.5 260C243.09 260 246 262.91 246 266.5Z" stroke="#0088FF" stroke-width="6"/>
<path d="M246 237.5C246 241.09 243.09 244 239.5 244C235.91 244 233 241.09 233 237.5C233 233.91 235.91 231 239.5 231C243.09 231 246 233.91 246 237.5Z" stroke="#0088FF" stroke-width="6"/>
<path d="M249 210.5C249 214.09 246.09 217 242.5 217C238.91 217 236 214.09 236 210.5C236 206.91 238.91 204 242.5 204C246.09 204 249 206.91 249 210.5Z" stroke="#0088FF" stroke-width="6"/>
<path d="M258 184.5C258 188.09 255.09 191 251.5 191C247.91 191 245 188.09 245 184.5C245 180.91 247.91 178 251.5 178C255.09 178 258 180.91 258 184.5Z" stroke="#0088FF" stroke-width="6"/>
<path d="M271 159.5C271 163.09 268.09 166 264.5 166C260.91 166 258 163.09 258 159.5C258 155.91 260.91 153 264.5 153C268.09 153 271 155.91 271 159.5Z" stroke="#0088FF" stroke-width="6"/>
<path d="M288 137.5C288 141.09 285.09 144 281.5 144C277.91 144 275 141.09 275 137.5C275 133.91 277.91 131 281.5 131C285.09 131 288 133.91 288 137.5Z" stroke="#0088FF" stroke-width="6"/>
<path d="M200.612 436.051C200.612 436.051 216.464 456.504 231.585 464.388" stroke="#103957" stroke-width="1.73595"/>
<path d="M253.759 389.504L180.752 452.596L167.725 437.328" stroke="#103957" stroke-width="1.73595"/>
<path d="M136.793 433.738C129.085 424.703 130.16 411.129 139.195 403.421C148.231 395.712 161.804 396.787 169.513 405.822C177.222 414.858 176.146 428.431 167.111 436.14C158.076 443.849 144.502 442.774 136.793 433.738Z" stroke="#103957" stroke-width="2.60393"/>
<path d="M141.42 429.791C135.892 423.311 136.663 413.576 143.143 408.047C149.623 402.519 159.358 403.29 164.886 409.77C170.415 416.25 169.644 425.985 163.164 431.513C156.684 437.042 146.949 436.271 141.42 429.791Z" stroke="#103957" stroke-width="2.60393"/>
<path d="M146.047 425.843C142.699 421.919 143.166 416.022 147.09 412.674C151.015 409.325 156.911 409.793 160.26 413.717C163.608 417.642 163.141 423.538 159.216 426.887C155.292 430.235 149.396 429.768 146.047 425.843Z" stroke="#103957" stroke-width="2.60393"/>
<path d="M233.084 472.304C230.67 469.474 231.007 465.224 233.836 462.81C236.666 460.396 240.916 460.732 243.33 463.562C245.744 466.391 245.407 470.642 242.578 473.056C239.749 475.47 235.498 475.133 233.084 472.304Z" stroke="#103957" stroke-width="1.73595"/>
<path d="M245.249 521.716C245.249 521.716 220.807 508.623 209.775 494.056" stroke="#0088FF" stroke-width="1.73595"/>
<path d="M312.5 413.5L231.317 545.656L249.776 556.691" stroke="#0088FF" stroke-width="1.73595"/>
<path d="M259.048 588.809C270.015 595.366 284.221 591.79 290.778 580.822C297.334 569.855 293.758 555.649 282.791 549.092C271.823 542.536 257.617 546.112 251.061 557.079C244.504 568.047 248.08 582.253 259.048 588.809Z" stroke="#0088FF" stroke-width="2.60393"/>
<path d="M262.392 583.216C270.27 587.925 280.475 585.357 285.184 577.478C289.894 569.6 287.325 559.395 279.447 554.686C271.569 549.976 261.364 552.545 256.654 560.423C251.945 568.301 254.513 578.506 262.392 583.216Z" stroke="#0088FF" stroke-width="2.60393"/>
<path d="M265.736 577.622C270.525 580.485 276.728 578.924 279.591 574.135C282.454 569.346 280.892 563.143 276.103 560.28C271.314 557.417 265.111 558.978 262.248 563.767C259.385 568.556 260.947 574.759 265.736 577.622Z" stroke="#0088FF" stroke-width="2.60393"/>
<path d="M201.112 493.94C204.563 496.002 209.031 494.878 211.094 491.427C213.156 487.977 212.032 483.508 208.581 481.446C205.131 479.383 200.662 480.508 198.6 483.958C196.537 487.409 197.662 491.877 201.112 493.94Z" stroke="#0088FF" stroke-width="1.73595"/>
</svg>
