<svg width="360" height="217" viewBox="0 0 360 217" fill="none" xmlns="http://www.w3.org/2000/svg" style="">
<path d="M322.219 249.67C385.243 249.67 436.334 199.215 436.334 136.976C436.334 74.7369 385.243 24.282 322.219 24.282" stroke="white" stroke-width="4.73505" class="VqLaGGQM_0"></path>
<path d="M369.464 210.18C409.93 185.059 422.619 132.291 397.805 92.3181C372.991 52.3453 320.07 40.3051 279.604 65.4257" stroke="white" stroke-width="4.73505" class="VqLaGGQM_1"></path>
<path d="M369.464 210.18C409.93 185.059 422.619 132.291 397.805 92.3181C372.991 52.3453 320.07 40.3051 279.604 65.4257" stroke="white" stroke-width="4.73505" class="VqLaGGQM_2"></path>
<path d="M249.409 164.659C261.213 194.248 287.37 213.768 316.475 218.236" stroke="#0088FF" stroke-width="4.73505" class="VqLaGGQM_3"></path>
<path d="M416.019 173.476C435.891 122.195 410.429 64.5146 359.148 44.6426" stroke="white" stroke-width="8.52309" stroke-linejoin="round" class="VqLaGGQM_4"></path>
<path d="M247.406 75.4983C272.124 45.1019 311.062 33.0802 346.842 41.2234" stroke="#0088FF" stroke-width="8.52309" stroke-linejoin="round" class="VqLaGGQM_5"></path>
<path d="M257.586 198.533L215.68 240.201L205.974 230.731" stroke="#0088FF" stroke-width="4.26155" class="VqLaGGQM_6"></path>
<path d="M191.623 189.672C191.623 198.196 184.712 205.106 176.188 205.106C167.664 205.106 160.754 198.196 160.754 189.672C160.754 181.147 167.664 174.237 176.188 174.237C184.712 174.237 191.623 181.147 191.623 189.672Z" stroke="white" stroke-width="1.89402" class="VqLaGGQM_7"></path>
<path d="M187.491 189.672C187.491 195.914 182.431 200.974 176.188 200.974C169.946 200.974 164.886 195.914 164.886 189.672C164.886 183.429 169.946 178.369 176.188 178.369C182.431 178.369 187.491 183.429 187.491 189.672Z" stroke="white" stroke-width="1.42052" class="VqLaGGQM_8"></path>
<path d="M183.359 189.672C183.359 193.632 180.149 196.843 176.188 196.843C172.228 196.843 169.017 193.632 169.017 189.672C169.017 185.711 172.228 182.501 176.188 182.501C180.149 182.501 183.359 185.711 183.359 189.672Z" stroke="white" stroke-width="0.94701" class="VqLaGGQM_9"></path>
<path d="M175.601 168.922L175.332 158.622" stroke="white" stroke-width="0.473505" class="VqLaGGQM_10"></path>
<path d="M176.954 220.63L176.684 210.33" stroke="white" stroke-width="0.473505" class="VqLaGGQM_11"></path>
<path d="M173.8 169.048L172.633 158.81" stroke="white" stroke-width="0.473505" class="VqLaGGQM_12"></path>
<path d="M179.653 220.441L178.487 210.204" stroke="white" stroke-width="0.473505" class="VqLaGGQM_13"></path>
<path d="M172.014 169.331L169.96 159.234" stroke="white" stroke-width="0.473505" class="VqLaGGQM_14"></path>
<path d="M182.326 220.018L180.271 209.921" stroke="white" stroke-width="0.473505" class="VqLaGGQM_15"></path>
<path d="M170.261 169.768L167.335 159.888" stroke="white" stroke-width="0.473505" class="VqLaGGQM_16"></path>
<path d="M184.951 219.363L182.025 209.484" stroke="white" stroke-width="0.473505" class="VqLaGGQM_17"></path>
<path d="M168.553 170.356L164.777 160.769" stroke="white" stroke-width="0.473505" class="VqLaGGQM_18"></path>
<path d="M187.509 218.482L183.733 208.896" stroke="white" stroke-width="0.473505" class="VqLaGGQM_19"></path>
<path d="M166.902 171.091L162.305 161.869" stroke="white" stroke-width="0.473505" class="VqLaGGQM_20"></path>
<path d="M189.981 217.382L185.384 208.161" stroke="white" stroke-width="0.473505" class="VqLaGGQM_21"></path>
<path d="M165.322 171.967L159.938 163.181" stroke="white" stroke-width="0.473505" class="VqLaGGQM_22"></path>
<path d="M192.347 216.07L186.964 207.285" stroke="white" stroke-width="0.473505" class="VqLaGGQM_23"></path>
<path d="M163.824 172.977L157.695 164.694" stroke="white" stroke-width="0.473505" class="VqLaGGQM_24"></path>
<path d="M194.59 214.557L188.462 206.275" stroke="white" stroke-width="0.473505" class="VqLaGGQM_25"></path>
<path d="M162.42 174.114L155.592 166.397" stroke="white" stroke-width="0.473505" class="VqLaGGQM_26"></path>
<path d="M196.693 212.855L189.866 205.138" stroke="white" stroke-width="0.473505" class="VqLaGGQM_27"></path>
<path d="M161.12 175.369L153.646 168.276" stroke="white" stroke-width="0.473505" class="VqLaGGQM_28"></path>
<path d="M198.64 210.975L191.166 203.883" stroke="white" stroke-width="0.473505" class="VqLaGGQM_29"></path>
<path d="M159.935 176.733L151.871 170.318" stroke="white" stroke-width="0.473505" class="VqLaGGQM_30"></path>
<path d="M200.415 208.933L192.351 202.519" stroke="white" stroke-width="0.473505" class="VqLaGGQM_31"></path>
<path d="M158.873 178.195L150.28 172.507" stroke="white" stroke-width="0.473505" class="VqLaGGQM_32"></path>
<path d="M202.005 206.744L193.413 201.057" stroke="white" stroke-width="0.473505" class="VqLaGGQM_33"></path>
<path d="M157.942 179.743L148.887 174.827" stroke="white" stroke-width="0.473505" class="VqLaGGQM_34"></path>
<path d="M203.398 204.425L194.343 199.509" stroke="white" stroke-width="0.473505" class="VqLaGGQM_35"></path>
<path d="M157.15 181.367L147.701 177.258" stroke="white" stroke-width="0.473505" class="VqLaGGQM_36"></path>
<path d="M204.585 201.993L195.135 197.884" stroke="white" stroke-width="0.473505" class="VqLaGGQM_37"></path>
<path d="M156.502 183.054L146.731 179.784" stroke="white" stroke-width="0.473505" class="VqLaGGQM_38"></path>
<path d="M205.554 199.467L195.783 196.198" stroke="white" stroke-width="0.473505" class="VqLaGGQM_39"></path>
<path d="M156.004 184.791L145.985 182.385" stroke="white" stroke-width="0.473505" class="VqLaGGQM_40"></path>
<path d="M206.3 196.867L196.281 194.461" stroke="white" stroke-width="0.473505" class="VqLaGGQM_41"></path>
<path d="M155.66 186.564L145.469 185.041" stroke="white" stroke-width="0.473505" class="VqLaGGQM_42"></path>
<path d="M206.817 194.211L196.626 192.688" stroke="white" stroke-width="0.473505" class="VqLaGGQM_43"></path>
<path d="M155.471 188.36L145.186 187.731" stroke="white" stroke-width="0.473505" class="VqLaGGQM_44"></path>
<path d="M207.099 191.52L196.815 190.891" stroke="white" stroke-width="0.473505" class="VqLaGGQM_45"></path>
<path d="M155.439 190.168L145.139 190.437" stroke="white" stroke-width="0.473505" class="VqLaGGQM_46"></path>
<path d="M207.147 188.815L196.846 189.084" stroke="white" stroke-width="0.473505" class="VqLaGGQM_47"></path>
<path d="M155.565 191.97L145.328 193.136" stroke="white" stroke-width="0.473505" class="VqLaGGQM_48"></path>
<path d="M206.958 186.116L196.72 187.282" stroke="white" stroke-width="0.473505" class="VqLaGGQM_49"></path>
<path d="M155.848 193.755L145.751 195.809" stroke="white" stroke-width="0.473505" class="VqLaGGQM_50"></path>
<path d="M206.535 183.443L196.438 185.497" stroke="white" stroke-width="0.473505" class="VqLaGGQM_51"></path>
<path d="M156.285 195.508L146.405 198.434" stroke="white" stroke-width="0.473505" class="VqLaGGQM_52"></path>
<path d="M205.88 180.818L196.001 183.744" stroke="white" stroke-width="0.473505" class="VqLaGGQM_53"></path>
<path d="M156.873 197.216L147.286 200.992" stroke="white" stroke-width="0.473505" class="VqLaGGQM_54"></path>
<path d="M204.999 178.26L195.412 182.036" stroke="white" stroke-width="0.473505" class="VqLaGGQM_55"></path>
<path d="M157.607 198.866L148.386 203.464" stroke="white" stroke-width="0.473505" class="VqLaGGQM_56"></path>
<path d="M203.899 175.788L194.678 180.385" stroke="white" stroke-width="0.473505" class="VqLaGGQM_57"></path>
<path d="M158.484 200.447L149.698 205.831" stroke="white" stroke-width="0.473505" class="VqLaGGQM_58"></path>
<path d="M202.587 173.421L193.802 178.805" stroke="white" stroke-width="0.473505" class="VqLaGGQM_59"></path>
<path d="M159.494 201.945L151.211 208.073" stroke="white" stroke-width="0.473505" class="VqLaGGQM_60"></path>
<path d="M201.074 171.178L192.791 177.307" stroke="white" stroke-width="0.473505" class="VqLaGGQM_61"></path>
<path d="M160.631 203.349L152.914 210.176" stroke="white" stroke-width="0.473505" class="VqLaGGQM_62"></path>
<path d="M199.372 169.075L191.654 175.903" stroke="white" stroke-width="0.473505" class="VqLaGGQM_63"></path>
<path d="M161.886 204.649L154.793 212.123" stroke="white" stroke-width="0.473505" class="VqLaGGQM_64"></path>
<path d="M197.492 167.129L190.399 174.603" stroke="white" stroke-width="0.473505" class="VqLaGGQM_65"></path>
<path d="M163.249 205.834L156.835 213.898" stroke="white" stroke-width="0.473505" class="VqLaGGQM_66"></path>
<path d="M195.45 165.354L189.036 173.418" stroke="white" stroke-width="0.473505" class="VqLaGGQM_67"></path>
<path d="M164.711 206.896L159.024 215.488" stroke="white" stroke-width="0.473505" class="VqLaGGQM_68"></path>
<path d="M193.261 163.764L187.574 172.356" stroke="white" stroke-width="0.473505" class="VqLaGGQM_69"></path>
<path d="M166.26 207.827L161.343 216.882" stroke="white" stroke-width="0.473505" class="VqLaGGQM_70"></path>
<path d="M190.942 162.37L186.025 171.425" stroke="white" stroke-width="0.473505" class="VqLaGGQM_71"></path>
<path d="M167.883 208.619L163.775 218.068" stroke="white" stroke-width="0.473505" class="VqLaGGQM_72"></path>
<path d="M188.51 161.184L184.401 170.633" stroke="white" stroke-width="0.473505" class="VqLaGGQM_73"></path>
<path d="M169.571 209.266L166.301 219.038" stroke="white" stroke-width="0.473505" class="VqLaGGQM_74"></path>
<path d="M185.984 160.214L182.715 169.986" stroke="white" stroke-width="0.473505" class="VqLaGGQM_75"></path>
<path d="M171.307 209.764L168.901 219.783" stroke="white" stroke-width="0.473505" class="VqLaGGQM_76"></path>
<path d="M183.384 159.468L180.978 169.487" stroke="white" stroke-width="0.473505" class="VqLaGGQM_77"></path>
<path d="M173.08 210.109L171.557 220.3" stroke="white" stroke-width="0.473505" class="VqLaGGQM_78"></path>
<path d="M180.728 158.952L179.204 169.143" stroke="white" stroke-width="0.473505" class="VqLaGGQM_79"></path>
<path d="M174.878 210.298L174.249 220.583" stroke="white" stroke-width="0.473505" class="VqLaGGQM_80"></path>
<path d="M178.037 158.669L177.407 168.954" stroke="white" stroke-width="0.473505" class="VqLaGGQM_81"></path>
<path d="M327.901 84.4895V58.8479" stroke="white" stroke-width="0.473505" class="VqLaGGQM_82"></path>
<path d="M327.902 213.211V187.569" stroke="white" stroke-width="0.473505" class="VqLaGGQM_83"></path>
<path d="M323.409 84.6856L321.175 59.1415" stroke="white" stroke-width="0.473505" class="VqLaGGQM_84"></path>
<path d="M334.628 212.917L332.394 187.373" stroke="white" stroke-width="0.473505" class="VqLaGGQM_85"></path>
<path d="M318.952 85.2725L314.499 60.0204" stroke="white" stroke-width="0.473505" class="VqLaGGQM_86"></path>
<path d="M341.304 212.038L336.851 186.786" stroke="white" stroke-width="0.473505" class="VqLaGGQM_87"></path>
<path d="M314.562 86.2456L307.925 61.4777" stroke="white" stroke-width="0.473505" class="VqLaGGQM_88"></path>
<path d="M347.878 210.581L341.241 185.813" stroke="white" stroke-width="0.473505" class="VqLaGGQM_89"></path>
<path d="M310.274 87.5977L301.504 63.5024" stroke="white" stroke-width="0.473505" class="VqLaGGQM_90"></path>
<path d="M354.299 208.556L345.529 184.461" stroke="white" stroke-width="0.473505" class="VqLaGGQM_91"></path>
<path d="M306.12 89.3183L295.283 66.0791" stroke="white" stroke-width="0.473505" class="VqLaGGQM_92"></path>
<path d="M360.52 205.979L349.683 182.74" stroke="white" stroke-width="0.473505" class="VqLaGGQM_93"></path>
<path d="M302.133 91.3938L289.312 69.1875" stroke="white" stroke-width="0.473505" class="VqLaGGQM_94"></path>
<path d="M366.492 202.87L353.671 180.664" stroke="white" stroke-width="0.473505" class="VqLaGGQM_95"></path>
<path d="M298.34 93.8097L283.633 72.8053" stroke="white" stroke-width="0.473505" class="VqLaGGQM_96"></path>
<path d="M372.171 199.252L357.463 178.248" stroke="white" stroke-width="0.473505" class="VqLaGGQM_97"></path>
<path d="M294.773 96.5475L278.29 76.9048" stroke="white" stroke-width="0.473505" class="VqLaGGQM_98"></path>
<path d="M291.458 99.5846L273.327 81.4532" stroke="white" stroke-width="0.473505" class="VqLaGGQM_99"></path>
<path d="M288.42 102.9L268.777 86.418" stroke="white" stroke-width="0.473505" class="VqLaGGQM_100"></path>
<path d="M285.683 106.467L264.678 91.7598" stroke="white" stroke-width="0.473505" class="VqLaGGQM_101"></path>
<path d="M283.267 110.259L261.06 97.4384" stroke="white" stroke-width="0.473505" class="VqLaGGQM_102"></path>
<path d="M281.191 114.248L257.952 103.411" stroke="white" stroke-width="0.473505" class="VqLaGGQM_103"></path>
<path d="M279.47 118.402L255.375 109.632" stroke="white" stroke-width="0.473505" class="VqLaGGQM_104"></path>
<path d="M278.118 122.69L253.35 116.053" stroke="white" stroke-width="0.473505" class="VqLaGGQM_105"></path>
<path d="M277.145 127.079L251.893 122.627" stroke="white" stroke-width="0.473505" class="VqLaGGQM_106"></path>
<path d="M276.558 131.537L251.014 129.302" stroke="white" stroke-width="0.473505" class="VqLaGGQM_107"></path>
<path d="M276.362 136.029H250.72" stroke="white" stroke-width="0.473505" class="VqLaGGQM_108"></path>
<path d="M276.558 140.521L251.014 142.756" stroke="white" stroke-width="0.473505" class="VqLaGGQM_109"></path>
<path d="M277.145 144.979L251.893 149.432" stroke="white" stroke-width="0.473505" class="VqLaGGQM_110"></path>
<path d="M278.118 149.368L253.35 156.004" stroke="white" stroke-width="0.473505" class="VqLaGGQM_111"></path>
<path d="M279.47 153.657L255.375 162.427" stroke="white" stroke-width="0.473505" class="VqLaGGQM_112"></path>
<path d="M281.191 157.811L257.952 168.647" stroke="white" stroke-width="0.473505" class="VqLaGGQM_113"></path>
<path d="M283.267 161.799L261.06 174.62" stroke="white" stroke-width="0.473505" class="VqLaGGQM_114"></path>
<path d="M285.682 165.59L264.677 180.297" stroke="white" stroke-width="0.473505" class="VqLaGGQM_115"></path>
<path d="M288.419 169.158L268.777 185.64" stroke="white" stroke-width="0.473505" class="VqLaGGQM_116"></path>
<path d="M291.458 172.473L273.326 190.605" stroke="white" stroke-width="0.473505" class="VqLaGGQM_117"></path>
<path d="M294.773 175.511L278.29 195.153" stroke="white" stroke-width="0.473505" class="VqLaGGQM_118"></path>
<path d="M298.34 178.248L283.632 199.252" stroke="white" stroke-width="0.473505" class="VqLaGGQM_119"></path>
<path d="M372.171 72.806L357.463 93.8104" stroke="white" stroke-width="0.473505" class="VqLaGGQM_120"></path>
<path d="M302.132 180.664L289.311 202.87" stroke="white" stroke-width="0.473505" class="VqLaGGQM_121"></path>
<path d="M366.492 69.1882L353.671 91.3945" stroke="white" stroke-width="0.473505" class="VqLaGGQM_122"></path>
<path d="M306.118 182.739L295.282 205.979" stroke="white" stroke-width="0.473505" class="VqLaGGQM_123"></path>
<path d="M360.52 66.0792L349.683 89.3184" stroke="white" stroke-width="0.473505" class="VqLaGGQM_124"></path>
<path d="M310.274 184.461L301.504 208.556" stroke="white" stroke-width="0.473505" class="VqLaGGQM_125"></path>
<path d="M354.299 63.5023L345.529 87.5975" stroke="white" stroke-width="0.473505" class="VqLaGGQM_126"></path>
<path d="M314.561 185.813L307.925 210.58" stroke="white" stroke-width="0.473505" class="VqLaGGQM_127"></path>
<path d="M347.878 61.4777L341.241 86.2457" stroke="white" stroke-width="0.473505" class="VqLaGGQM_128"></path>
<path d="M318.951 186.786L314.499 212.038" stroke="white" stroke-width="0.473505" class="VqLaGGQM_129"></path>
<path d="M341.304 60.0203L336.851 85.2724" stroke="white" stroke-width="0.473505" class="VqLaGGQM_130"></path>
<path d="M323.41 187.373L321.175 212.917" stroke="white" stroke-width="0.473505" class="VqLaGGQM_131"></path>
<path d="M334.628 59.1417L332.394 84.6857" stroke="white" stroke-width="0.473505" class="VqLaGGQM_132"></path>
<path d="M311.092 107.619C311.092 107.759 311.092 111.86 311.092 115.196C311.092 117.549 309.184 119.457 306.831 119.457H303.989C303.989 119.457 303.989 119.457 303.989 119.457C303.989 119.457 298.544 119.457 298.544 119.693C298.544 120.456 298.544 148.394 298.544 159.245C298.544 161.598 300.452 163.493 302.806 163.493H342.58C344.934 163.493 346.842 161.585 346.842 159.231V155.68M311.092 107.619C311.092 107.433 333.154 107.539 342.616 107.593C344.958 107.607 346.842 109.51 346.842 111.852V120.877M311.092 107.619L298.544 119.457M309.198 127.506H325.297M309.198 136.503H325.297M309.198 144.552H325.297M309.198 152.365H325.297M332.873 119.693L350 129M332.873 119.693L334.767 127.98M332.873 119.693L340.449 116.379" stroke="white" stroke-width="1.65977" class="VqLaGGQM_133"></path>
<path d="M335.951 151.655V131.294H340.686V151.655H335.951Z" stroke="#0088FF" stroke-width="1.89402" class="VqLaGGQM_134"></path>
<path d="M345.421 151.655V136.503H350.156V151.655H345.421Z" stroke="#0088FF" stroke-width="1.89402" class="VqLaGGQM_135"></path>
<path d="M223.446 176.751C231.15 202.486 216.534 229.593 190.799 237.297C177.341 241.326 163.508 239.251 152.271 232.673" stroke="#0088FF" stroke-width="4.26155" class="VqLaGGQM_136"></path>
<path d="M244.218 177.788C264.332 220.424 316.99 241.847 359.626 221.734" stroke="#0088FF" stroke-width="4.26155" class="VqLaGGQM_137"></path>
<path d="M144.336 199.209C149.586 216.746 168.058 226.707 185.595 221.457C203.132 216.207 213.092 197.735 207.843 180.198" stroke="white" stroke-width="0.94701" class="VqLaGGQM_138"></path>
<path d="M217.734 188.825C217.61 211.798 198.887 230.322 175.914 230.198C152.942 230.075 134.418 211.352 134.542 188.379L113 188.379L82 140L-1.12302 140" stroke="white" stroke-width="1.8769" class="VqLaGGQM_139"></path>
<path d="M193.22 157.135C193.22 157.135 189.374 153.863 185.728 154.325" stroke="white" stroke-width="0.94701" class="VqLaGGQM_140"></path>
<path d="M183.49 175.888L203.133 139.581L207.947 142.428" stroke="white" stroke-width="0.94701" class="VqLaGGQM_141"></path>
<path d="M219.097 140.094C222.786 142.323 223.97 147.121 221.741 150.81C219.511 154.499 214.714 155.683 211.025 153.453C207.336 151.224 206.152 146.426 208.381 142.737C210.611 139.048 215.408 137.865 219.097 140.094Z" stroke="white" stroke-width="1.42052" class="VqLaGGQM_142"></path>
<path d="M217.923 142.037C220.539 143.618 221.378 147.02 219.797 149.636C218.216 152.251 214.815 153.091 212.199 151.51C209.583 149.929 208.744 146.527 210.325 143.912C211.905 141.296 215.307 140.457 217.923 142.037Z" stroke="white" stroke-width="1.42052" class="VqLaGGQM_143"></path>
<path d="M216.994 143.576C218.76 144.643 219.326 146.94 218.259 148.706C217.192 150.473 214.895 151.039 213.128 149.972C211.362 148.905 210.795 146.608 211.863 144.841C212.93 143.075 215.227 142.508 216.994 143.576Z" stroke="white" stroke-width="0.473505" class="VqLaGGQM_144"></path>
<path d="M185.035 153.507C185.581 153.837 185.757 154.547 185.427 155.093C185.097 155.639 184.387 155.814 183.841 155.484C183.295 155.154 183.119 154.444 183.449 153.898C183.779 153.352 184.489 153.177 185.035 153.507Z" stroke="white" stroke-width="0.94701" class="VqLaGGQM_145"></path>
<style data-made-with="vivus-instant">.VqLaGGQM_0{stroke-dasharray:357 359;stroke-dashoffset:358;animation:VqLaGGQM_draw 2000ms ease-in-out 0ms forwards;}.VqLaGGQM_1{stroke-dasharray:270 272;stroke-dashoffset:271;animation:VqLaGGQM_draw 2000ms ease-in-out 6ms forwards;}.VqLaGGQM_2{stroke-dasharray:270 272;stroke-dashoffset:271;animation:VqLaGGQM_draw 2000ms ease-in-out 13ms forwards;}.VqLaGGQM_3{stroke-dasharray:90 92;stroke-dashoffset:91;animation:VqLaGGQM_draw 2000ms ease-in-out 20ms forwards;}.VqLaGGQM_4{stroke-dasharray:157 159;stroke-dashoffset:158;animation:VqLaGGQM_draw 2000ms ease-in-out 27ms forwards;}.VqLaGGQM_5{stroke-dasharray:111 113;stroke-dashoffset:112;animation:VqLaGGQM_draw 2000ms ease-in-out 34ms forwards;}.VqLaGGQM_6{stroke-dasharray:73 75;stroke-dashoffset:74;animation:VqLaGGQM_draw 2000ms ease-in-out 41ms forwards;}.VqLaGGQM_7{stroke-dasharray:97 99;stroke-dashoffset:98;animation:VqLaGGQM_draw 2000ms ease-in-out 48ms forwards;}.VqLaGGQM_8{stroke-dasharray:72 74;stroke-dashoffset:73;animation:VqLaGGQM_draw 2000ms ease-in-out 55ms forwards;}.VqLaGGQM_9{stroke-dasharray:46 48;stroke-dashoffset:47;animation:VqLaGGQM_draw 2000ms ease-in-out 62ms forwards;}.VqLaGGQM_10{stroke-dasharray:11 13;stroke-dashoffset:12;animation:VqLaGGQM_draw 2000ms ease-in-out 68ms forwards;}.VqLaGGQM_11{stroke-dasharray:11 13;stroke-dashoffset:12;animation:VqLaGGQM_draw 2000ms ease-in-out 75ms forwards;}.VqLaGGQM_12{stroke-dasharray:11 13;stroke-dashoffset:12;animation:VqLaGGQM_draw 2000ms ease-in-out 82ms forwards;}.VqLaGGQM_13{stroke-dasharray:11 13;stroke-dashoffset:12;animation:VqLaGGQM_draw 2000ms ease-in-out 89ms forwards;}.VqLaGGQM_14{stroke-dasharray:11 13;stroke-dashoffset:12;animation:VqLaGGQM_draw 2000ms ease-in-out 96ms forwards;}.VqLaGGQM_15{stroke-dasharray:11 13;stroke-dashoffset:12;animation:VqLaGGQM_draw 2000ms ease-in-out 103ms forwards;}.VqLaGGQM_16{stroke-dasharray:11 13;stroke-dashoffset:12;animation:VqLaGGQM_draw 2000ms ease-in-out 110ms forwards;}.VqLaGGQM_17{stroke-dasharray:11 13;stroke-dashoffset:12;animation:VqLaGGQM_draw 2000ms ease-in-out 117ms forwards;}.VqLaGGQM_18{stroke-dasharray:11 13;stroke-dashoffset:12;animation:VqLaGGQM_draw 2000ms ease-in-out 124ms forwards;}.VqLaGGQM_19{stroke-dasharray:11 13;stroke-dashoffset:12;animation:VqLaGGQM_draw 2000ms ease-in-out 131ms forwards;}.VqLaGGQM_20{stroke-dasharray:11 13;stroke-dashoffset:12;animation:VqLaGGQM_draw 2000ms ease-in-out 137ms forwards;}.VqLaGGQM_21{stroke-dasharray:11 13;stroke-dashoffset:12;animation:VqLaGGQM_draw 2000ms ease-in-out 144ms forwards;}.VqLaGGQM_22{stroke-dasharray:11 13;stroke-dashoffset:12;animation:VqLaGGQM_draw 2000ms ease-in-out 151ms forwards;}.VqLaGGQM_23{stroke-dasharray:11 13;stroke-dashoffset:12;animation:VqLaGGQM_draw 2000ms ease-in-out 158ms forwards;}.VqLaGGQM_24{stroke-dasharray:11 13;stroke-dashoffset:12;animation:VqLaGGQM_draw 2000ms ease-in-out 165ms forwards;}.VqLaGGQM_25{stroke-dasharray:11 13;stroke-dashoffset:12;animation:VqLaGGQM_draw 2000ms ease-in-out 172ms forwards;}.VqLaGGQM_26{stroke-dasharray:11 13;stroke-dashoffset:12;animation:VqLaGGQM_draw 2000ms ease-in-out 179ms forwards;}.VqLaGGQM_27{stroke-dasharray:11 13;stroke-dashoffset:12;animation:VqLaGGQM_draw 2000ms ease-in-out 186ms forwards;}.VqLaGGQM_28{stroke-dasharray:11 13;stroke-dashoffset:12;animation:VqLaGGQM_draw 2000ms ease-in-out 193ms forwards;}.VqLaGGQM_29{stroke-dasharray:11 13;stroke-dashoffset:12;animation:VqLaGGQM_draw 2000ms ease-in-out 200ms forwards;}.VqLaGGQM_30{stroke-dasharray:11 13;stroke-dashoffset:12;animation:VqLaGGQM_draw 2000ms ease-in-out 206ms forwards;}.VqLaGGQM_31{stroke-dasharray:11 13;stroke-dashoffset:12;animation:VqLaGGQM_draw 2000ms ease-in-out 213ms forwards;}.VqLaGGQM_32{stroke-dasharray:11 13;stroke-dashoffset:12;animation:VqLaGGQM_draw 2000ms ease-in-out 220ms forwards;}.VqLaGGQM_33{stroke-dasharray:11 13;stroke-dashoffset:12;animation:VqLaGGQM_draw 2000ms ease-in-out 227ms forwards;}.VqLaGGQM_34{stroke-dasharray:11 13;stroke-dashoffset:12;animation:VqLaGGQM_draw 2000ms ease-in-out 234ms forwards;}.VqLaGGQM_35{stroke-dasharray:11 13;stroke-dashoffset:12;animation:VqLaGGQM_draw 2000ms ease-in-out 241ms forwards;}.VqLaGGQM_36{stroke-dasharray:11 13;stroke-dashoffset:12;animation:VqLaGGQM_draw 2000ms ease-in-out 248ms forwards;}.VqLaGGQM_37{stroke-dasharray:11 13;stroke-dashoffset:12;animation:VqLaGGQM_draw 2000ms ease-in-out 255ms forwards;}.VqLaGGQM_38{stroke-dasharray:11 13;stroke-dashoffset:12;animation:VqLaGGQM_draw 2000ms ease-in-out 262ms forwards;}.VqLaGGQM_39{stroke-dasharray:11 13;stroke-dashoffset:12;animation:VqLaGGQM_draw 2000ms ease-in-out 268ms forwards;}.VqLaGGQM_40{stroke-dasharray:11 13;stroke-dashoffset:12;animation:VqLaGGQM_draw 2000ms ease-in-out 275ms forwards;}.VqLaGGQM_41{stroke-dasharray:11 13;stroke-dashoffset:12;animation:VqLaGGQM_draw 2000ms ease-in-out 282ms forwards;}.VqLaGGQM_42{stroke-dasharray:11 13;stroke-dashoffset:12;animation:VqLaGGQM_draw 2000ms ease-in-out 289ms forwards;}.VqLaGGQM_43{stroke-dasharray:11 13;stroke-dashoffset:12;animation:VqLaGGQM_draw 2000ms ease-in-out 296ms forwards;}.VqLaGGQM_44{stroke-dasharray:11 13;stroke-dashoffset:12;animation:VqLaGGQM_draw 2000ms ease-in-out 303ms forwards;}.VqLaGGQM_45{stroke-dasharray:11 13;stroke-dashoffset:12;animation:VqLaGGQM_draw 2000ms ease-in-out 310ms forwards;}.VqLaGGQM_46{stroke-dasharray:11 13;stroke-dashoffset:12;animation:VqLaGGQM_draw 2000ms ease-in-out 317ms forwards;}.VqLaGGQM_47{stroke-dasharray:11 13;stroke-dashoffset:12;animation:VqLaGGQM_draw 2000ms ease-in-out 324ms forwards;}.VqLaGGQM_48{stroke-dasharray:11 13;stroke-dashoffset:12;animation:VqLaGGQM_draw 2000ms ease-in-out 331ms forwards;}.VqLaGGQM_49{stroke-dasharray:11 13;stroke-dashoffset:12;animation:VqLaGGQM_draw 2000ms ease-in-out 337ms forwards;}.VqLaGGQM_50{stroke-dasharray:11 13;stroke-dashoffset:12;animation:VqLaGGQM_draw 2000ms ease-in-out 344ms forwards;}.VqLaGGQM_51{stroke-dasharray:11 13;stroke-dashoffset:12;animation:VqLaGGQM_draw 2000ms ease-in-out 351ms forwards;}.VqLaGGQM_52{stroke-dasharray:11 13;stroke-dashoffset:12;animation:VqLaGGQM_draw 2000ms ease-in-out 358ms forwards;}.VqLaGGQM_53{stroke-dasharray:11 13;stroke-dashoffset:12;animation:VqLaGGQM_draw 2000ms ease-in-out 365ms forwards;}.VqLaGGQM_54{stroke-dasharray:11 13;stroke-dashoffset:12;animation:VqLaGGQM_draw 2000ms ease-in-out 372ms forwards;}.VqLaGGQM_55{stroke-dasharray:11 13;stroke-dashoffset:12;animation:VqLaGGQM_draw 2000ms ease-in-out 379ms forwards;}.VqLaGGQM_56{stroke-dasharray:11 13;stroke-dashoffset:12;animation:VqLaGGQM_draw 2000ms ease-in-out 386ms forwards;}.VqLaGGQM_57{stroke-dasharray:11 13;stroke-dashoffset:12;animation:VqLaGGQM_draw 2000ms ease-in-out 393ms forwards;}.VqLaGGQM_58{stroke-dasharray:11 13;stroke-dashoffset:12;animation:VqLaGGQM_draw 2000ms ease-in-out 400ms forwards;}.VqLaGGQM_59{stroke-dasharray:11 13;stroke-dashoffset:12;animation:VqLaGGQM_draw 2000ms ease-in-out 406ms forwards;}.VqLaGGQM_60{stroke-dasharray:11 13;stroke-dashoffset:12;animation:VqLaGGQM_draw 2000ms ease-in-out 413ms forwards;}.VqLaGGQM_61{stroke-dasharray:11 13;stroke-dashoffset:12;animation:VqLaGGQM_draw 2000ms ease-in-out 420ms forwards;}.VqLaGGQM_62{stroke-dasharray:11 13;stroke-dashoffset:12;animation:VqLaGGQM_draw 2000ms ease-in-out 427ms forwards;}.VqLaGGQM_63{stroke-dasharray:11 13;stroke-dashoffset:12;animation:VqLaGGQM_draw 2000ms ease-in-out 434ms forwards;}.VqLaGGQM_64{stroke-dasharray:11 13;stroke-dashoffset:12;animation:VqLaGGQM_draw 2000ms ease-in-out 441ms forwards;}.VqLaGGQM_65{stroke-dasharray:11 13;stroke-dashoffset:12;animation:VqLaGGQM_draw 2000ms ease-in-out 448ms forwards;}.VqLaGGQM_66{stroke-dasharray:11 13;stroke-dashoffset:12;animation:VqLaGGQM_draw 2000ms ease-in-out 455ms forwards;}.VqLaGGQM_67{stroke-dasharray:11 13;stroke-dashoffset:12;animation:VqLaGGQM_draw 2000ms ease-in-out 462ms forwards;}.VqLaGGQM_68{stroke-dasharray:11 13;stroke-dashoffset:12;animation:VqLaGGQM_draw 2000ms ease-in-out 468ms forwards;}.VqLaGGQM_69{stroke-dasharray:11 13;stroke-dashoffset:12;animation:VqLaGGQM_draw 2000ms ease-in-out 475ms forwards;}.VqLaGGQM_70{stroke-dasharray:11 13;stroke-dashoffset:12;animation:VqLaGGQM_draw 2000ms ease-in-out 482ms forwards;}.VqLaGGQM_71{stroke-dasharray:11 13;stroke-dashoffset:12;animation:VqLaGGQM_draw 2000ms ease-in-out 489ms forwards;}.VqLaGGQM_72{stroke-dasharray:11 13;stroke-dashoffset:12;animation:VqLaGGQM_draw 2000ms ease-in-out 496ms forwards;}.VqLaGGQM_73{stroke-dasharray:11 13;stroke-dashoffset:12;animation:VqLaGGQM_draw 2000ms ease-in-out 503ms forwards;}.VqLaGGQM_74{stroke-dasharray:11 13;stroke-dashoffset:12;animation:VqLaGGQM_draw 2000ms ease-in-out 510ms forwards;}.VqLaGGQM_75{stroke-dasharray:11 13;stroke-dashoffset:12;animation:VqLaGGQM_draw 2000ms ease-in-out 517ms forwards;}.VqLaGGQM_76{stroke-dasharray:11 13;stroke-dashoffset:12;animation:VqLaGGQM_draw 2000ms ease-in-out 524ms forwards;}.VqLaGGQM_77{stroke-dasharray:11 13;stroke-dashoffset:12;animation:VqLaGGQM_draw 2000ms ease-in-out 531ms forwards;}.VqLaGGQM_78{stroke-dasharray:11 13;stroke-dashoffset:12;animation:VqLaGGQM_draw 2000ms ease-in-out 537ms forwards;}.VqLaGGQM_79{stroke-dasharray:11 13;stroke-dashoffset:12;animation:VqLaGGQM_draw 2000ms ease-in-out 544ms forwards;}.VqLaGGQM_80{stroke-dasharray:11 13;stroke-dashoffset:12;animation:VqLaGGQM_draw 2000ms ease-in-out 551ms forwards;}.VqLaGGQM_81{stroke-dasharray:11 13;stroke-dashoffset:12;animation:VqLaGGQM_draw 2000ms ease-in-out 558ms forwards;}.VqLaGGQM_82{stroke-dasharray:26 28;stroke-dashoffset:27;animation:VqLaGGQM_draw 2000ms ease-in-out 565ms forwards;}.VqLaGGQM_83{stroke-dasharray:26 28;stroke-dashoffset:27;animation:VqLaGGQM_draw 2000ms ease-in-out 572ms forwards;}.VqLaGGQM_84{stroke-dasharray:26 28;stroke-dashoffset:27;animation:VqLaGGQM_draw 2000ms ease-in-out 579ms forwards;}.VqLaGGQM_85{stroke-dasharray:26 28;stroke-dashoffset:27;animation:VqLaGGQM_draw 2000ms ease-in-out 586ms forwards;}.VqLaGGQM_86{stroke-dasharray:26 28;stroke-dashoffset:27;animation:VqLaGGQM_draw 2000ms ease-in-out 593ms forwards;}.VqLaGGQM_87{stroke-dasharray:26 28;stroke-dashoffset:27;animation:VqLaGGQM_draw 2000ms ease-in-out 600ms forwards;}.VqLaGGQM_88{stroke-dasharray:26 28;stroke-dashoffset:27;animation:VqLaGGQM_draw 2000ms ease-in-out 606ms forwards;}.VqLaGGQM_89{stroke-dasharray:26 28;stroke-dashoffset:27;animation:VqLaGGQM_draw 2000ms ease-in-out 613ms forwards;}.VqLaGGQM_90{stroke-dasharray:26 28;stroke-dashoffset:27;animation:VqLaGGQM_draw 2000ms ease-in-out 620ms forwards;}.VqLaGGQM_91{stroke-dasharray:26 28;stroke-dashoffset:27;animation:VqLaGGQM_draw 2000ms ease-in-out 627ms forwards;}.VqLaGGQM_92{stroke-dasharray:26 28;stroke-dashoffset:27;animation:VqLaGGQM_draw 2000ms ease-in-out 634ms forwards;}.VqLaGGQM_93{stroke-dasharray:26 28;stroke-dashoffset:27;animation:VqLaGGQM_draw 2000ms ease-in-out 641ms forwards;}.VqLaGGQM_94{stroke-dasharray:26 28;stroke-dashoffset:27;animation:VqLaGGQM_draw 2000ms ease-in-out 648ms forwards;}.VqLaGGQM_95{stroke-dasharray:26 28;stroke-dashoffset:27;animation:VqLaGGQM_draw 2000ms ease-in-out 655ms forwards;}.VqLaGGQM_96{stroke-dasharray:26 28;stroke-dashoffset:27;animation:VqLaGGQM_draw 2000ms ease-in-out 662ms forwards;}.VqLaGGQM_97{stroke-dasharray:26 28;stroke-dashoffset:27;animation:VqLaGGQM_draw 2000ms ease-in-out 668ms forwards;}.VqLaGGQM_98{stroke-dasharray:26 28;stroke-dashoffset:27;animation:VqLaGGQM_draw 2000ms ease-in-out 675ms forwards;}.VqLaGGQM_99{stroke-dasharray:26 28;stroke-dashoffset:27;animation:VqLaGGQM_draw 2000ms ease-in-out 682ms forwards;}.VqLaGGQM_100{stroke-dasharray:26 28;stroke-dashoffset:27;animation:VqLaGGQM_draw 2000ms ease-in-out 689ms forwards;}.VqLaGGQM_101{stroke-dasharray:26 28;stroke-dashoffset:27;animation:VqLaGGQM_draw 2000ms ease-in-out 696ms forwards;}.VqLaGGQM_102{stroke-dasharray:26 28;stroke-dashoffset:27;animation:VqLaGGQM_draw 2000ms ease-in-out 703ms forwards;}.VqLaGGQM_103{stroke-dasharray:26 28;stroke-dashoffset:27;animation:VqLaGGQM_draw 2000ms ease-in-out 710ms forwards;}.VqLaGGQM_104{stroke-dasharray:26 28;stroke-dashoffset:27;animation:VqLaGGQM_draw 2000ms ease-in-out 717ms forwards;}.VqLaGGQM_105{stroke-dasharray:26 28;stroke-dashoffset:27;animation:VqLaGGQM_draw 2000ms ease-in-out 724ms forwards;}.VqLaGGQM_106{stroke-dasharray:26 28;stroke-dashoffset:27;animation:VqLaGGQM_draw 2000ms ease-in-out 731ms forwards;}.VqLaGGQM_107{stroke-dasharray:26 28;stroke-dashoffset:27;animation:VqLaGGQM_draw 2000ms ease-in-out 737ms forwards;}.VqLaGGQM_108{stroke-dasharray:26 28;stroke-dashoffset:27;animation:VqLaGGQM_draw 2000ms ease-in-out 744ms forwards;}.VqLaGGQM_109{stroke-dasharray:26 28;stroke-dashoffset:27;animation:VqLaGGQM_draw 2000ms ease-in-out 751ms forwards;}.VqLaGGQM_110{stroke-dasharray:26 28;stroke-dashoffset:27;animation:VqLaGGQM_draw 2000ms ease-in-out 758ms forwards;}.VqLaGGQM_111{stroke-dasharray:26 28;stroke-dashoffset:27;animation:VqLaGGQM_draw 2000ms ease-in-out 765ms forwards;}.VqLaGGQM_112{stroke-dasharray:26 28;stroke-dashoffset:27;animation:VqLaGGQM_draw 2000ms ease-in-out 772ms forwards;}.VqLaGGQM_113{stroke-dasharray:26 28;stroke-dashoffset:27;animation:VqLaGGQM_draw 2000ms ease-in-out 779ms forwards;}.VqLaGGQM_114{stroke-dasharray:26 28;stroke-dashoffset:27;animation:VqLaGGQM_draw 2000ms ease-in-out 786ms forwards;}.VqLaGGQM_115{stroke-dasharray:26 28;stroke-dashoffset:27;animation:VqLaGGQM_draw 2000ms ease-in-out 793ms forwards;}.VqLaGGQM_116{stroke-dasharray:26 28;stroke-dashoffset:27;animation:VqLaGGQM_draw 2000ms ease-in-out 800ms forwards;}.VqLaGGQM_117{stroke-dasharray:26 28;stroke-dashoffset:27;animation:VqLaGGQM_draw 2000ms ease-in-out 806ms forwards;}.VqLaGGQM_118{stroke-dasharray:26 28;stroke-dashoffset:27;animation:VqLaGGQM_draw 2000ms ease-in-out 813ms forwards;}.VqLaGGQM_119{stroke-dasharray:26 28;stroke-dashoffset:27;animation:VqLaGGQM_draw 2000ms ease-in-out 820ms forwards;}.VqLaGGQM_120{stroke-dasharray:26 28;stroke-dashoffset:27;animation:VqLaGGQM_draw 2000ms ease-in-out 827ms forwards;}.VqLaGGQM_121{stroke-dasharray:26 28;stroke-dashoffset:27;animation:VqLaGGQM_draw 2000ms ease-in-out 834ms forwards;}.VqLaGGQM_122{stroke-dasharray:26 28;stroke-dashoffset:27;animation:VqLaGGQM_draw 2000ms ease-in-out 841ms forwards;}.VqLaGGQM_123{stroke-dasharray:26 28;stroke-dashoffset:27;animation:VqLaGGQM_draw 2000ms ease-in-out 848ms forwards;}.VqLaGGQM_124{stroke-dasharray:26 28;stroke-dashoffset:27;animation:VqLaGGQM_draw 2000ms ease-in-out 855ms forwards;}.VqLaGGQM_125{stroke-dasharray:26 28;stroke-dashoffset:27;animation:VqLaGGQM_draw 2000ms ease-in-out 862ms forwards;}.VqLaGGQM_126{stroke-dasharray:26 28;stroke-dashoffset:27;animation:VqLaGGQM_draw 2000ms ease-in-out 868ms forwards;}.VqLaGGQM_127{stroke-dasharray:26 28;stroke-dashoffset:27;animation:VqLaGGQM_draw 2000ms ease-in-out 875ms forwards;}.VqLaGGQM_128{stroke-dasharray:26 28;stroke-dashoffset:27;animation:VqLaGGQM_draw 2000ms ease-in-out 882ms forwards;}.VqLaGGQM_129{stroke-dasharray:26 28;stroke-dashoffset:27;animation:VqLaGGQM_draw 2000ms ease-in-out 889ms forwards;}.VqLaGGQM_130{stroke-dasharray:26 28;stroke-dashoffset:27;animation:VqLaGGQM_draw 2000ms ease-in-out 896ms forwards;}.VqLaGGQM_131{stroke-dasharray:26 28;stroke-dashoffset:27;animation:VqLaGGQM_draw 2000ms ease-in-out 903ms forwards;}.VqLaGGQM_132{stroke-dasharray:26 28;stroke-dashoffset:27;animation:VqLaGGQM_draw 2000ms ease-in-out 910ms forwards;}.VqLaGGQM_133{stroke-dasharray:284 286;stroke-dashoffset:285;animation:VqLaGGQM_draw 2000ms ease-in-out 917ms forwards;}.VqLaGGQM_134{stroke-dasharray:51 53;stroke-dashoffset:52;animation:VqLaGGQM_draw 2000ms ease-in-out 924ms forwards;}.VqLaGGQM_135{stroke-dasharray:40 42;stroke-dashoffset:41;animation:VqLaGGQM_draw 2000ms ease-in-out 931ms forwards;}.VqLaGGQM_136{stroke-dasharray:117 119;stroke-dashoffset:118;animation:VqLaGGQM_draw 2000ms ease-in-out 937ms forwards;}.VqLaGGQM_137{stroke-dasharray:137 139;stroke-dashoffset:138;animation:VqLaGGQM_draw 2000ms ease-in-out 944ms forwards;}.VqLaGGQM_138{stroke-dasharray:105 107;stroke-dashoffset:106;animation:VqLaGGQM_draw 2000ms ease-in-out 951ms forwards;}.VqLaGGQM_139{stroke-dasharray:293 295;stroke-dashoffset:294;animation:VqLaGGQM_draw 2000ms ease-in-out 958ms forwards;}.VqLaGGQM_140{stroke-dasharray:9 11;stroke-dashoffset:10;animation:VqLaGGQM_draw 2000ms ease-in-out 965ms forwards;}.VqLaGGQM_141{stroke-dasharray:47 49;stroke-dashoffset:48;animation:VqLaGGQM_draw 2000ms ease-in-out 972ms forwards;}.VqLaGGQM_142{stroke-dasharray:50 52;stroke-dashoffset:51;animation:VqLaGGQM_draw 2000ms ease-in-out 979ms forwards;}.VqLaGGQM_143{stroke-dasharray:35 37;stroke-dashoffset:36;animation:VqLaGGQM_draw 2000ms ease-in-out 986ms forwards;}.VqLaGGQM_144{stroke-dasharray:24 26;stroke-dashoffset:25;animation:VqLaGGQM_draw 2000ms ease-in-out 993ms forwards;}.VqLaGGQM_145{stroke-dasharray:8 10;stroke-dashoffset:9;animation:VqLaGGQM_draw 2000ms ease-in-out 999ms forwards;}@keyframes VqLaGGQM_draw{100%{stroke-dashoffset:0;}}@keyframes VqLaGGQM_fade{0%{stroke-opacity:1;}94.44444444444444%{stroke-opacity:1;}100%{stroke-opacity:0;}}</style></svg>
