<svg width="498" height="367" viewBox="0 0 498 367" fill="none" xmlns="http://www.w3.org/2000/svg">
<mask id="mask0" mask-type="alpha" maskUnits="userSpaceOnUse" x="0" y="0" width="500" height="367">
<rect width="500" height="367" fill="#C4C4C4"/>
</mask>
<g mask="url(#mask0)">
<path d="M375.423 57.79C269.976 57.79 184.494 142.208 184.494 246.342C184.494 249.797 184.589 253.231 184.774 256.641" stroke="white" stroke-width="10"/>
<path d="M447.833 369.294C515.538 327.264 536.768 238.976 495.25 172.096C453.733 105.217 365.191 85.072 297.486 127.102" stroke="#103957" stroke-width="10"/>
<path d="M447.833 369.294C515.538 327.264 536.768 238.976 495.25 172.096C453.733 105.217 365.191 85.072 297.486 127.102" stroke="#0088FF" stroke-width="10"/>
<path d="M430.656 403.24C362.213 427.943 288.525 406.92 243.68 355.923C235.67 346.815 228.58 336.749 222.604 325.818M315.7 84.7388C242.401 111.194 197.968 181.846 202.26 255.066" stroke="white" stroke-width="12"/>
<path d="M525.724 307.885C558.973 222.085 516.372 125.578 430.572 92.3298" stroke="#103957" stroke-width="18" stroke-linejoin="round"/>
<path d="M525.724 307.885C558.973 222.085 516.372 125.578 430.572 92.3298" stroke="white" stroke-width="18" stroke-linejoin="round"/>
<path d="M441.245 378.771C386.003 401.13 325.796 391.742 280.849 359.179" stroke="#0088FF" stroke-width="18" stroke-linejoin="round"/>
<path d="M233.276 297.915C233.276 321.739 213.962 341.053 190.138 341.053C166.314 341.053 147 321.739 147 297.915C147 274.09 166.314 254.777 190.138 254.777C213.962 254.777 233.276 274.09 233.276 297.915Z" stroke="white" stroke-width="8"/>
<path d="M222.308 297.518C222.308 315.067 208.082 329.292 190.534 329.292C172.986 329.292 158.76 315.067 158.76 297.518C158.76 279.97 172.986 265.745 190.534 265.745C208.082 265.745 222.308 279.97 222.308 297.518Z" stroke="white" stroke-width="3"/>
<path d="M207.924 297.519C207.924 307.123 200.138 314.909 190.534 314.909C180.929 314.909 173.144 307.123 173.144 297.519C173.144 287.914 180.929 280.128 190.534 280.128C200.138 280.128 207.924 287.914 207.924 297.519Z" stroke="#0088FF" stroke-width="8"/>
<path d="M378.293 158.999V116.097" stroke="white"/>
<path d="M378.293 374.365V331.464" stroke="white"/>
<path d="M370.778 159.327L367.039 116.588" stroke="white"/>
<path d="M389.548 373.874L385.809 331.135" stroke="white"/>
<path d="M363.319 160.309L355.87 118.059" stroke="white"/>
<path d="M400.718 372.403L393.268 330.153" stroke="white"/>
<path d="M355.975 161.937L344.871 120.497" stroke="white"/>
<path d="M411.716 369.965L400.612 328.525" stroke="white"/>
<path d="M348.801 164.199L334.128 123.884" stroke="white"/>
<path d="M422.46 366.578L407.787 326.263" stroke="white"/>
<path d="M341.85 167.078L323.719 128.196" stroke="white"/>
<path d="M432.868 362.266L414.737 323.384" stroke="white"/>
<path d="M335.177 170.552L313.726 133.398" stroke="white"/>
<path d="M442.861 357.065L421.41 319.911" stroke="white"/>
<path d="M328.833 174.594L304.225 139.451" stroke="white"/>
<path d="M452.362 351.012L427.754 315.869" stroke="white"/>
<path d="M322.864 179.173L295.288 146.309" stroke="white"/>
<path d="M461.299 344.154L433.723 311.289" stroke="white"/>
<path d="M317.318 184.256L286.982 153.919" stroke="white"/>
<path d="M469.605 336.543L439.269 306.207" stroke="white"/>
<path d="M312.236 189.802L279.371 162.225" stroke="white"/>
<path d="M477.216 328.237L444.351 300.66" stroke="white"/>
<path d="M307.656 195.77L272.513 171.163" stroke="white"/>
<path d="M484.074 319.3L448.931 294.692" stroke="white"/>
<path d="M303.614 202.115L266.46 180.664" stroke="white"/>
<path d="M490.127 309.798L452.973 288.347" stroke="white"/>
<path d="M300.14 208.788L261.258 190.657" stroke="white"/>
<path d="M495.329 299.806L456.447 281.675" stroke="white"/>
<path d="M297.261 215.738L256.947 201.065" stroke="white"/>
<path d="M499.64 289.397L459.325 274.724" stroke="white"/>
<path d="M294.999 222.913L253.559 211.809" stroke="white"/>
<path d="M503.028 278.654L461.588 267.55" stroke="white"/>
<path d="M293.371 230.256L251.121 222.807" stroke="white"/>
<path d="M505.466 267.655L463.216 260.205" stroke="white"/>
<path d="M292.389 237.714L249.651 233.975" stroke="white"/>
<path d="M506.936 256.486L464.198 252.747" stroke="white"/>
<path d="M292.061 245.231H249.159" stroke="white"/>
<path d="M507.428 245.231H464.526" stroke="white"/>
<path d="M292.389 252.747L249.651 256.486" stroke="white"/>
<path d="M506.936 233.976L464.198 237.715" stroke="white"/>
<path d="M293.371 260.205L251.121 267.655" stroke="white"/>
<path d="M505.466 222.808L463.216 230.257" stroke="white"/>
<path d="M294.999 267.549L253.559 278.653" stroke="white"/>
<path d="M503.028 211.809L461.588 222.913" stroke="white"/>
<path d="M297.261 274.723L256.946 289.396" stroke="white"/>
<path d="M499.64 201.065L459.325 215.738" stroke="white"/>
<path d="M300.14 281.675L261.258 299.806" stroke="white"/>
<path d="M495.329 190.656L456.447 208.787" stroke="white"/>
<path d="M303.613 288.346L266.459 309.797" stroke="white"/>
<path d="M490.127 180.664L452.973 202.115" stroke="white"/>
<path d="M307.655 294.691L272.512 319.299" stroke="white"/>
<path d="M484.074 171.163L448.931 195.77" stroke="white"/>
<path d="M312.235 300.66L279.37 328.236" stroke="white"/>
<path d="M477.216 162.226L444.352 189.802" stroke="white"/>
<path d="M317.317 306.205L286.981 336.542" stroke="white"/>
<path d="M469.605 153.92L439.269 184.256" stroke="white"/>
<path d="M322.864 311.289L295.287 344.154" stroke="white"/>
<path d="M461.299 146.308L433.723 179.173" stroke="white"/>
<path d="M328.833 315.869L304.225 351.012" stroke="white"/>
<path d="M452.362 139.451L427.754 174.594" stroke="white"/>
<path d="M335.176 319.91L313.725 357.064" stroke="white"/>
<path d="M442.86 133.398L421.41 170.552" stroke="white"/>
<path d="M341.85 323.384L323.719 362.266" stroke="white"/>
<path d="M432.868 128.196L414.737 167.078" stroke="white"/>
<path d="M348.8 326.263L334.127 366.578" stroke="white"/>
<path d="M422.46 123.885L407.787 164.199" stroke="white"/>
<path d="M355.975 328.525L344.871 369.965" stroke="white"/>
<path d="M411.716 120.497L400.612 161.937" stroke="white"/>
<path d="M363.319 330.154L355.87 372.404" stroke="white"/>
<path d="M400.717 118.059L393.268 160.309" stroke="white"/>
<path d="M370.778 331.136L367.039 373.874" stroke="white"/>
<path d="M389.548 116.588L385.809 159.327" stroke="white"/>
<path d="M343.239 273.755L343.643 271.93H341.774H333C326.649 271.93 321.5 266.782 321.5 260.43V224.174C321.5 217.823 326.649 212.674 333 212.674H409.581C415.932 212.674 421.081 217.823 421.081 224.174V260.43C421.081 266.782 415.932 271.93 409.581 271.93H363.5H362.848L362.403 272.408L337.655 298.953L343.239 273.755Z" stroke="white" stroke-width="3"/>
<path d="M337.419 209V209C337.419 203.515 341.866 199.069 347.35 199.069H427C434.18 199.069 440 204.889 440 212.069V249.19C440 256.37 434.18 262.19 427 262.19H425.5" stroke="white" stroke-width="2"/>
<path d="M332.097 222.848H355.807M410.484 222.848H364.516M332.097 232.791H375.645M410.484 232.791H384.355M332.097 241.438H366.936M374.678 241.438H410.484M332.097 250.517H355.807M332.097 260.461H375.645M364.516 250.517H410.484M384.355 260.461H410.484" stroke="#0088FF" stroke-width="2"/>
<path d="M241.406 255.926C241.406 258.426 239.379 260.452 236.879 260.452C234.38 260.452 232.353 258.426 232.353 255.926C232.353 253.426 234.38 251.4 236.879 251.4C239.379 251.4 241.406 253.426 241.406 255.926Z" stroke="#0088FF" stroke-width="6"/>
<path d="M241.406 232.951C241.406 235.451 239.379 237.478 236.879 237.478C234.38 237.478 232.353 235.451 232.353 232.951C232.353 230.452 234.38 228.425 236.879 228.425C239.379 228.425 241.406 230.452 241.406 232.951Z" stroke="#0088FF" stroke-width="6"/>
<path d="M243.782 211.561C243.782 214.061 241.756 216.087 239.256 216.087C236.756 216.087 234.73 214.061 234.73 211.561C234.73 209.061 236.756 207.035 239.256 207.035C241.756 207.035 243.782 209.061 243.782 211.561Z" stroke="#0088FF" stroke-width="6"/>
<path d="M250.913 190.963C250.913 193.463 248.886 195.489 246.386 195.489C243.887 195.489 241.86 193.463 241.86 190.963C241.86 188.463 243.887 186.437 246.386 186.437C248.886 186.437 250.913 188.463 250.913 190.963Z" stroke="#0088FF" stroke-width="6"/>
<path d="M261.212 171.157C261.212 173.657 259.185 175.683 256.685 175.683C254.186 175.683 252.159 173.657 252.159 171.157C252.159 168.657 254.186 166.631 256.685 166.631C259.185 166.631 261.212 168.657 261.212 171.157Z" stroke="#0088FF" stroke-width="6"/>
<path d="M274.68 153.728C274.68 156.228 272.653 158.254 270.153 158.254C267.654 158.254 265.627 156.228 265.627 153.728C265.627 151.228 267.654 149.202 270.153 149.202C272.653 149.202 274.68 151.228 274.68 153.728Z" stroke="#0088FF" stroke-width="6"/>
<path d="M229.38 71.0191C229.38 71.0191 213.436 83.9047 207.435 96.0093" stroke="white" stroke-width="1.73595"/>
<path d="M267.107 112.364L215.954 55.555L227.838 44.9906" stroke="white" stroke-width="1.73595"/>
<path d="M230.361 20.6353C237.281 14.4828 247.879 15.1054 254.032 22.0258C260.184 28.9463 259.562 39.544 252.641 45.6964C245.721 51.8489 235.123 51.2263 228.97 44.3059C222.818 37.3855 223.441 26.7878 230.361 20.6353Z" stroke="white" stroke-width="2.60393"/>
<path d="M233.563 24.2358C238.495 19.8514 246.047 20.2951 250.431 25.2267C254.816 30.1584 254.372 37.7106 249.44 42.0951C244.508 46.4795 236.956 46.0358 232.572 41.1041C228.187 36.1724 228.631 28.6202 233.563 24.2358Z" stroke="white" stroke-width="2.60393"/>
<path d="M236.764 27.8369C239.707 25.2205 244.214 25.4853 246.83 28.4282C249.447 31.3711 249.182 35.8778 246.239 38.4942C243.296 41.1105 238.789 40.8458 236.173 37.9028C233.557 34.9599 233.821 30.4532 236.764 27.8369Z" stroke="white" stroke-width="2.60393"/>
<path d="M201.31 97.4588C203.437 95.5672 206.696 95.7586 208.587 97.8863C210.479 100.014 210.287 103.272 208.16 105.164C206.032 107.055 202.774 106.864 200.882 104.736C198.991 102.609 199.182 99.3504 201.31 97.4588Z" stroke="white" stroke-width="1.73595"/>
<path d="M139.752 112.97C116.865 103.175 91.6298 106.878 73.0979 120.519" stroke="#0088FF" stroke-width="10"/>
<path d="M158.737 91.0254C158.737 91.0254 183.183 102.415 194.687 115.963" stroke="#0088FF" stroke-width="2"/>
<path d="M123.698 155.783L170.969 67.0216L152.444 57.3065" stroke="#0088FF" stroke-width="2"/>
<path d="M141.59 26.8256C130.698 21.1132 117.238 25.3121 111.525 36.2041C105.813 47.0961 110.012 60.5566 120.904 66.2689C131.796 71.9813 145.256 67.7824 150.969 56.8905C156.681 45.9985 152.482 32.538 141.59 26.8256Z" stroke="#0088FF" stroke-width="3"/>
<path d="M134.552 30.6026L135.796 30.9909C142.998 33.2394 147.676 40.1853 147.051 47.7048V47.7048C146.411 55.4115 140.386 61.5765 132.696 62.3933L132.3 62.4354" stroke="white" stroke-width="4"/>
<path d="M203.033 115.744C199.646 113.968 195.462 115.273 193.686 118.659C191.91 122.045 193.215 126.23 196.602 128.006C199.988 129.782 204.172 128.476 205.948 125.09C207.724 121.704 206.419 117.519 203.033 115.744Z" stroke="#0088FF" stroke-width="2"/>
<path d="M76.2769 216.363C54.5897 196.295 53.2767 162.447 73.3442 140.759C93.4117 119.072 127.261 117.759 148.948 137.827C170.635 157.894 171.948 191.743 151.88 213.43C131.813 235.117 97.9641 236.43 76.2769 216.363Z" stroke="white" stroke-width="6"/>
<path d="M146 303L114 303L114 233" stroke="white" stroke-width="8"/>
<path d="M95.6043 194.738C85.8754 185.736 85.2864 170.551 94.2886 160.822C103.291 151.094 118.475 150.505 128.204 159.507C137.933 168.509 138.522 183.694 129.52 193.422C120.518 203.151 105.333 203.74 95.6043 194.738Z" stroke="#0088FF" stroke-width="6"/>
<path d="M45.6142 114.938L67.0342 136.004" stroke="white"/>
<path d="M40.3331 120.799L63.5076 139.918" stroke="white"/>
<path d="M35.5831 127.097L60.3357 144.124" stroke="white"/>
<path d="M31.3996 133.786L57.542 148.59" stroke="white"/>
<path d="M27.8155 140.814L55.1487 153.283" stroke="white"/>
<path d="M24.8574 148.127L53.1733 158.167" stroke="white"/>
<path d="M22.5482 155.671L51.6313 163.204" stroke="white"/>
<path d="M20.9046 163.386L50.5337 168.356" stroke="white"/>
<path d="M19.9404 171.216L49.8899 173.585" stroke="white"/>
<path d="M19.6614 179.1L49.7034 178.849" stroke="white"/>
<path d="M20.0715 186.978L49.9773 184.111" stroke="white"/>
<path d="M21.1669 194.791L50.709 189.328" stroke="white"/>
<path d="M22.9384 202.479L51.8918 194.461" stroke="white"/>
<path d="M25.373 209.983L53.5176 199.472" stroke="white"/>
<path d="M28.4528 217.246L55.5742 204.323" stroke="white"/>
<path d="M32.1538 224.213L58.0457 208.975" stroke="white"/>
<path d="M36.4478 230.831L60.9131 213.394" stroke="white"/>
<path d="M41.3021 237.049L64.1545 217.546" stroke="white"/>
<path d="M46.6801 242.82L67.7458 221.4" stroke="white"/>
<path d="M52.541 248.102L71.6597 224.927" stroke="white"/>
<path d="M58.8396 252.852L75.8657 228.099" stroke="white"/>
<path d="M65.528 257.035L80.332 230.892" stroke="white"/>
<path d="M72.5559 260.619L85.0251 233.286" stroke="white"/>
<path d="M79.8694 263.577L89.9089 235.261" stroke="white"/>
<path d="M87.4124 265.886L94.9458 236.803" stroke="white"/>
<path d="M95.1286 267.53L100.099 237.901" stroke="white"/>
<path d="M102.958 268.494L105.327 238.544" stroke="white"/>
</g>
</svg>
