<svg width="1272" height="739" viewBox="0 0 1272 739" fill="none" xmlns="http://www.w3.org/2000/svg">
<path d="M1077.05 600.774C1228.93 600.774 1352.06 479.179 1352.06 329.184C1352.06 179.189 1228.93 57.5943 1077.05 57.5943" stroke="white" stroke-width="11.4113"/>
<path d="M1190.9 505.603C1288.43 445.063 1319 317.892 1259.2 221.559C1199.4 125.225 1071.87 96.209 974.343 156.749" stroke="white" stroke-width="11.4113"/>
<path d="M1190.9 505.603C1288.43 445.063 1319 317.892 1259.2 221.559C1199.4 125.225 1071.87 96.209 974.343 156.749" stroke="white" stroke-width="11.4113"/>
<path d="M901.575 395.898C930.021 467.208 993.059 514.251 1063.2 525.018" stroke="#0088FF" stroke-width="11.4113"/>
<path d="M1303.1 417.148C1350.99 293.563 1289.63 154.554 1166.04 106.663" stroke="white" stroke-width="20.5404" stroke-linejoin="round"/>
<path d="M896.746 181.024C956.316 107.769 1050.16 78.7971 1136.38 98.4221" stroke="#0088FF" stroke-width="20.5404" stroke-linejoin="round"/>
<path d="M921.28 477.532L820.289 577.952L796.896 555.129" stroke="#0088FF" stroke-width="10.2702"/>
<path d="M824.854 588.221L838.548 601.915" stroke="white" stroke-width="3.4234"/>
<path d="M831.701 581.375L845.394 595.068" stroke="white" stroke-width="3.4234"/>
<path d="M831.701 581.375L845.394 595.068" stroke="white" stroke-width="3.4234"/>
<path d="M838.548 574.528L852.241 588.221" stroke="white" stroke-width="3.4234"/>
<path d="M838.548 574.528L852.241 588.221" stroke="white" stroke-width="3.4234"/>
<path d="M845.394 567.681L859.088 581.375" stroke="white" stroke-width="3.4234"/>
<path d="M845.394 567.681L859.088 581.375" stroke="white" stroke-width="3.4234"/>
<path d="M852.241 560.835L865.935 574.528" stroke="white" stroke-width="3.4234"/>
<path d="M852.241 560.835L865.935 574.528" stroke="white" stroke-width="3.4234"/>
<path d="M859.088 553.988L872.782 567.681" stroke="white" stroke-width="3.4234"/>
<path d="M859.088 553.988L872.782 567.681" stroke="white" stroke-width="3.4234"/>
<path d="M865.935 547.141L893.893 575.099" stroke="white" stroke-width="3.4234"/>
<path d="M872.782 540.294L907.586 575.099" stroke="white" stroke-width="3.4234"/>
<path d="M879.629 533.447L921.28 575.099" stroke="white" stroke-width="3.4234"/>
<path d="M762.311 456.178C762.311 476.721 745.657 493.374 725.114 493.374C704.571 493.374 687.918 476.721 687.918 456.178C687.918 435.635 704.571 418.981 725.114 418.981C745.657 418.981 762.311 435.635 762.311 456.178Z" stroke="white" stroke-width="4.56454"/>
<path d="M752.354 456.178C752.354 471.222 740.158 483.417 725.114 483.417C710.071 483.417 697.875 471.222 697.875 456.178C697.875 441.134 710.071 428.938 725.114 428.938C740.158 428.938 752.354 441.134 752.354 456.178Z" stroke="white" stroke-width="3.4234"/>
<path d="M742.397 456.178C742.397 465.722 734.659 473.46 725.114 473.46C715.57 473.46 707.832 465.722 707.832 456.178C707.832 446.633 715.57 438.895 725.114 438.895C734.659 438.895 742.397 446.633 742.397 456.178Z" stroke="white" stroke-width="2.28227"/>
<path d="M723.699 406.173L723.05 381.349" stroke="white" stroke-width="1.14113"/>
<path d="M726.96 530.787L726.31 505.963" stroke="white" stroke-width="1.14113"/>
<path d="M719.355 406.477L716.545 381.804" stroke="white" stroke-width="1.14113"/>
<path d="M733.465 530.332L730.654 505.66" stroke="white" stroke-width="1.14113"/>
<path d="M715.055 407.158L710.104 382.824" stroke="white" stroke-width="1.14113"/>
<path d="M739.905 529.312L734.955 504.979" stroke="white" stroke-width="1.14113"/>
<path d="M710.83 408.211L703.778 384.401" stroke="white" stroke-width="1.14113"/>
<path d="M746.232 527.735L739.18 503.925" stroke="white" stroke-width="1.14113"/>
<path d="M706.713 409.629L697.612 386.524" stroke="white" stroke-width="1.14113"/>
<path d="M752.397 525.612L743.297 502.508" stroke="white" stroke-width="1.14113"/>
<path d="M702.735 411.4L691.655 389.176" stroke="white" stroke-width="1.14113"/>
<path d="M758.354 522.96L747.275 500.737" stroke="white" stroke-width="1.14113"/>
<path d="M698.926 413.51L685.952 392.338" stroke="white" stroke-width="1.14113"/>
<path d="M764.057 519.799L751.083 498.626" stroke="white" stroke-width="1.14113"/>
<path d="M695.317 415.945L680.546 395.984" stroke="white" stroke-width="1.14113"/>
<path d="M769.463 516.153L754.693 496.191" stroke="white" stroke-width="1.14113"/>
<path d="M691.933 418.685L675.479 400.087" stroke="white" stroke-width="1.14113"/>
<path d="M774.531 512.049L758.077 493.451" stroke="white" stroke-width="1.14113"/>
<path d="M688.8 421.71L670.788 404.617" stroke="white" stroke-width="1.14113"/>
<path d="M779.222 507.52L761.209 490.426" stroke="white" stroke-width="1.14113"/>
<path d="M685.944 424.996L666.51 409.538" stroke="white" stroke-width="1.14113"/>
<path d="M783.499 502.599L764.066 487.14" stroke="white" stroke-width="1.14113"/>
<path d="M683.384 428.519L662.677 414.813" stroke="white" stroke-width="1.14113"/>
<path d="M787.332 497.323L766.625 483.617" stroke="white" stroke-width="1.14113"/>
<path d="M681.141 432.251L659.319 420.402" stroke="white" stroke-width="1.14113"/>
<path d="M790.691 491.734L768.868 479.885" stroke="white" stroke-width="1.14113"/>
<path d="M679.233 436.165L656.46 426.263" stroke="white" stroke-width="1.14113"/>
<path d="M793.549 485.874L770.777 475.971" stroke="white" stroke-width="1.14113"/>
<path d="M677.672 440.23L654.123 432.35" stroke="white" stroke-width="1.14113"/>
<path d="M795.886 479.786L772.338 471.906" stroke="white" stroke-width="1.14113"/>
<path d="M676.472 444.416L652.326 438.618" stroke="white" stroke-width="1.14113"/>
<path d="M797.684 473.518L773.538 467.721" stroke="white" stroke-width="1.14113"/>
<path d="M675.641 448.69L651.082 445.019" stroke="white" stroke-width="1.14113"/>
<path d="M798.928 467.117L774.369 463.447" stroke="white" stroke-width="1.14113"/>
<path d="M675.186 453.02L650.4 451.504" stroke="white" stroke-width="1.14113"/>
<path d="M799.61 460.633L774.824 459.116" stroke="white" stroke-width="1.14113"/>
<path d="M675.11 457.374L650.286 458.023" stroke="white" stroke-width="1.14113"/>
<path d="M799.724 454.113L774.9 454.762" stroke="white" stroke-width="1.14113"/>
<path d="M675.413 461.717L650.741 464.528" stroke="white" stroke-width="1.14113"/>
<path d="M799.269 447.608L774.596 450.419" stroke="white" stroke-width="1.14113"/>
<path d="M676.094 466.018L651.761 470.968" stroke="white" stroke-width="1.14113"/>
<path d="M798.249 441.168L773.915 446.118" stroke="white" stroke-width="1.14113"/>
<path d="M677.148 470.243L653.338 477.295" stroke="white" stroke-width="1.14113"/>
<path d="M796.671 434.841L772.862 441.893" stroke="white" stroke-width="1.14113"/>
<path d="M678.565 474.36L655.461 483.461" stroke="white" stroke-width="1.14113"/>
<path d="M794.549 428.676L771.444 437.776" stroke="white" stroke-width="1.14113"/>
<path d="M680.336 478.338L658.113 489.418" stroke="white" stroke-width="1.14113"/>
<path d="M791.897 422.719L769.673 433.798" stroke="white" stroke-width="1.14113"/>
<path d="M682.447 482.147L661.274 495.121" stroke="white" stroke-width="1.14113"/>
<path d="M788.735 417.016L767.562 429.99" stroke="white" stroke-width="1.14113"/>
<path d="M684.882 485.756L664.92 500.527" stroke="white" stroke-width="1.14113"/>
<path d="M785.089 411.61L765.128 426.38" stroke="white" stroke-width="1.14113"/>
<path d="M687.622 489.14L669.024 505.594" stroke="white" stroke-width="1.14113"/>
<path d="M780.986 406.542L762.388 422.996" stroke="white" stroke-width="1.14113"/>
<path d="M690.647 492.273L673.553 510.285" stroke="white" stroke-width="1.14113"/>
<path d="M776.456 401.852L759.363 419.864" stroke="white" stroke-width="1.14113"/>
<path d="M693.933 495.129L678.474 514.563" stroke="white" stroke-width="1.14113"/>
<path d="M771.535 397.573L756.077 417.007" stroke="white" stroke-width="1.14113"/>
<path d="M697.456 497.689L683.75 518.396" stroke="white" stroke-width="1.14113"/>
<path d="M766.26 393.741L752.554 414.447" stroke="white" stroke-width="1.14113"/>
<path d="M701.188 499.932L689.339 521.754" stroke="white" stroke-width="1.14113"/>
<path d="M760.671 390.382L748.822 412.205" stroke="white" stroke-width="1.14113"/>
<path d="M705.102 501.84L695.199 524.613" stroke="white" stroke-width="1.14113"/>
<path d="M754.81 387.524L744.908 410.296" stroke="white" stroke-width="1.14113"/>
<path d="M709.167 503.401L701.287 526.95" stroke="white" stroke-width="1.14113"/>
<path d="M748.723 385.187L740.843 408.735" stroke="white" stroke-width="1.14113"/>
<path d="M713.352 504.601L707.555 528.747" stroke="white" stroke-width="1.14113"/>
<path d="M742.455 383.389L736.657 407.535" stroke="white" stroke-width="1.14113"/>
<path d="M717.626 505.432L713.956 529.991" stroke="white" stroke-width="1.14113"/>
<path d="M736.054 382.145L732.383 406.704" stroke="white" stroke-width="1.14113"/>
<path d="M721.957 505.887L720.44 530.673" stroke="white" stroke-width="1.14113"/>
<path d="M729.569 381.463L728.053 406.249" stroke="white" stroke-width="1.14113"/>
<path d="M1090.74 202.693V140.897" stroke="white" stroke-width="1.14113"/>
<path d="M1090.74 512.907V451.111" stroke="white" stroke-width="1.14113"/>
<path d="M1079.91 203.165L1074.53 141.605" stroke="white" stroke-width="1.14113"/>
<path d="M1106.95 512.199L1101.56 450.638" stroke="white" stroke-width="1.14113"/>
<path d="M1069.17 204.58L1058.44 143.723" stroke="white" stroke-width="1.14113"/>
<path d="M1123.04 510.081L1112.31 449.224" stroke="white" stroke-width="1.14113"/>
<path d="M1058.59 206.925L1042.6 147.235" stroke="white" stroke-width="1.14113"/>
<path d="M1138.88 506.569L1122.89 446.879" stroke="white" stroke-width="1.14113"/>
<path d="M1048.26 210.183L1027.12 152.114" stroke="white" stroke-width="1.14113"/>
<path d="M1154.36 501.689L1133.22 443.62" stroke="white" stroke-width="1.14113"/>
<path d="M1038.25 214.33L1012.13 158.324" stroke="white" stroke-width="1.14113"/>
<path d="M1169.35 495.48L1143.23 439.474" stroke="white" stroke-width="1.14113"/>
<path d="M1028.63 219.334L997.736 165.817" stroke="white" stroke-width="1.14113"/>
<path d="M1183.74 487.987L1152.84 434.47" stroke="white" stroke-width="1.14113"/>
<path d="M1019.49 225.156L984.05 174.535" stroke="white" stroke-width="1.14113"/>
<path d="M1197.43 479.268L1161.98 428.648" stroke="white" stroke-width="1.14113"/>
<path d="M1010.9 231.752L971.177 184.414" stroke="white" stroke-width="1.14113"/>
<path d="M1210.3 469.39L1170.58 422.052" stroke="white" stroke-width="1.14113"/>
<path d="M1002.91 239.073L959.213 195.377" stroke="white" stroke-width="1.14113"/>
<path d="M1222.26 458.427L1178.57 414.731" stroke="white" stroke-width="1.14113"/>
<path d="M995.589 247.062L948.25 207.34" stroke="white" stroke-width="1.14113"/>
<path d="M1233.23 446.463L1185.89 406.742" stroke="white" stroke-width="1.14113"/>
<path d="M988.992 255.658L938.372 220.214" stroke="white" stroke-width="1.14113"/>
<path d="M1243.1 433.59L1192.48 398.145" stroke="white" stroke-width="1.14113"/>
<path d="M983.17 264.797L929.653 233.899" stroke="white" stroke-width="1.14113"/>
<path d="M1251.82 419.904L1198.31 389.007" stroke="white" stroke-width="1.14113"/>
<path d="M978.167 274.409L922.161 248.293" stroke="white" stroke-width="1.14113"/>
<path d="M1259.32 405.511L1203.31 379.395" stroke="white" stroke-width="1.14113"/>
<path d="M974.02 284.42L915.951 263.285" stroke="white" stroke-width="1.14113"/>
<path d="M1265.53 390.519L1207.46 369.384" stroke="white" stroke-width="1.14113"/>
<path d="M970.761 294.754L911.071 278.76" stroke="white" stroke-width="1.14113"/>
<path d="M1270.41 375.044L1210.72 359.05" stroke="white" stroke-width="1.14113"/>
<path d="M968.416 305.333L907.559 294.602" stroke="white" stroke-width="1.14113"/>
<path d="M1273.92 359.201L1213.06 348.471" stroke="white" stroke-width="1.14113"/>
<path d="M967.002 316.076L905.441 310.691" stroke="white" stroke-width="1.14113"/>
<path d="M1276.04 343.113L1214.47 337.727" stroke="white" stroke-width="1.14113"/>
<path d="M966.529 326.902H904.733" stroke="white" stroke-width="1.14113"/>
<path d="M1276.74 326.902H1214.95" stroke="white" stroke-width="1.14113"/>
<path d="M967.002 337.727L905.441 343.113" stroke="white" stroke-width="1.14113"/>
<path d="M1276.04 310.69L1214.47 316.076" stroke="white" stroke-width="1.14113"/>
<path d="M968.416 348.471L907.559 359.201" stroke="white" stroke-width="1.14113"/>
<path d="M1273.92 294.603L1213.06 305.333" stroke="white" stroke-width="1.14113"/>
<path d="M970.761 359.05L911.071 375.044" stroke="white" stroke-width="1.14113"/>
<path d="M1270.41 278.76L1210.72 294.754" stroke="white" stroke-width="1.14113"/>
<path d="M974.019 369.383L915.951 390.518" stroke="white" stroke-width="1.14113"/>
<path d="M1265.53 263.285L1207.46 284.42" stroke="white" stroke-width="1.14113"/>
<path d="M978.167 379.395L922.161 405.511" stroke="white" stroke-width="1.14113"/>
<path d="M1259.32 248.293L1203.31 274.409" stroke="white" stroke-width="1.14113"/>
<path d="M983.17 389.007L929.653 419.904" stroke="white" stroke-width="1.14113"/>
<path d="M1251.82 233.9L1198.31 264.797" stroke="white" stroke-width="1.14113"/>
<path d="M988.992 398.145L938.372 433.589" stroke="white" stroke-width="1.14113"/>
<path d="M1243.1 220.214L1192.48 255.658" stroke="white" stroke-width="1.14113"/>
<path d="M995.588 406.741L948.25 446.463" stroke="white" stroke-width="1.14113"/>
<path d="M1233.23 207.34L1185.89 247.062" stroke="white" stroke-width="1.14113"/>
<path d="M1002.91 414.731L959.213 458.427" stroke="white" stroke-width="1.14113"/>
<path d="M1222.26 195.377L1178.57 239.073" stroke="white" stroke-width="1.14113"/>
<path d="M1010.9 422.052L971.177 469.39" stroke="white" stroke-width="1.14113"/>
<path d="M1210.3 184.414L1170.58 231.752" stroke="white" stroke-width="1.14113"/>
<path d="M1019.49 428.648L984.05 479.268" stroke="white" stroke-width="1.14113"/>
<path d="M1197.43 174.536L1161.98 225.156" stroke="white" stroke-width="1.14113"/>
<path d="M1028.63 434.47L997.736 487.987" stroke="white" stroke-width="1.14113"/>
<path d="M1183.74 165.817L1152.84 219.334" stroke="white" stroke-width="1.14113"/>
<path d="M1038.25 439.474L1012.13 495.48" stroke="white" stroke-width="1.14113"/>
<path d="M1169.35 158.324L1143.23 214.33" stroke="white" stroke-width="1.14113"/>
<path d="M1048.26 443.62L1027.12 501.689" stroke="white" stroke-width="1.14113"/>
<path d="M1154.36 152.114L1133.22 210.183" stroke="white" stroke-width="1.14113"/>
<path d="M1058.59 446.879L1042.6 506.569" stroke="white" stroke-width="1.14113"/>
<path d="M1138.88 147.235L1122.89 206.925" stroke="white" stroke-width="1.14113"/>
<path d="M1069.17 449.224L1058.44 510.081" stroke="white" stroke-width="1.14113"/>
<path d="M1123.04 143.723L1112.31 204.58" stroke="white" stroke-width="1.14113"/>
<path d="M1079.91 450.639L1074.53 512.199" stroke="white" stroke-width="1.14113"/>
<path d="M1106.95 141.605L1101.56 203.165" stroke="white" stroke-width="1.14113"/>
<path d="M1050.23 258.434C1050.23 258.771 1050.23 268.654 1050.23 276.693C1050.23 282.365 1045.63 286.962 1039.96 286.962H1033.11C1033.11 286.962 1033.11 286.962 1033.11 286.962C1033.11 286.962 1019.99 286.962 1019.99 287.533C1019.99 289.371 1019.99 356.7 1019.99 382.85C1019.99 388.522 1024.59 393.088 1030.26 393.088H1126.11C1131.79 393.088 1136.38 388.49 1136.38 382.818V374.259M1050.23 258.434C1050.23 257.986 1103.4 258.242 1126.2 258.372C1131.84 258.404 1136.38 262.991 1136.38 268.636V290.386M1050.23 258.434L1019.99 286.962M1045.66 306.361H1084.46M1045.66 328.043H1084.46M1045.66 347.442H1084.46M1045.66 366.271H1084.46M1102.72 287.533L1163.77 318.343M1102.72 287.533L1107.28 307.502M1102.72 287.533L1120.98 279.545" stroke="white" stroke-width="6.84681"/>
<path d="M1110.14 364.559V315.491H1121.55V364.559H1110.14Z" stroke="#0088FF" stroke-width="4.56454"/>
<path d="M1132.96 364.559V328.043H1144.37V364.559H1132.96Z" stroke="#0088FF" stroke-width="4.56454"/>
<path d="M1154.64 364.559V339.454H1166.05V364.559H1154.64Z" stroke="#0088FF" stroke-width="4.56454"/>
<path d="M1176.32 364.559V352.007H1187.73V364.559H1176.32Z" stroke="#0088FF" stroke-width="4.56454"/>
<path d="M818.892 428.11C834.436 480.034 804.944 534.726 753.021 550.27C701.098 565.814 646.405 536.323 630.861 484.4L578 484.399L462 297L1.49999 297" stroke="white" stroke-width="4.56454"/>
<path d="M839.005 425.04C857.572 487.059 822.346 552.388 760.326 570.954C727.893 580.663 694.556 575.662 667.474 559.811" stroke="#0088FF" stroke-width="10.2702"/>
<path d="M889.064 427.539C937.537 530.292 1064.44 581.921 1167.19 533.447" stroke="#0088FF" stroke-width="10.2702"/>
<path d="M648.352 479.163C661.004 521.426 705.522 545.431 747.785 532.779C790.048 520.127 814.052 475.61 801.401 433.347" stroke="white" stroke-width="2.28227"/>
<path d="M766.159 377.766C766.159 377.766 756.89 369.881 748.104 370.993" stroke="white" stroke-width="2.28227"/>
<path d="M742.712 422.96L790.05 335.46L801.652 342.322" stroke="white" stroke-width="2.28227"/>
<path d="M828.523 336.698C837.414 342.07 840.266 353.632 834.893 362.523C829.521 371.413 817.958 374.265 809.068 368.893C800.177 363.521 797.325 351.958 802.698 343.068C808.07 334.177 819.633 331.325 828.523 336.698Z" stroke="white" stroke-width="3.4234"/>
<path d="M825.693 341.381C831.997 345.19 834.019 353.389 830.21 359.693C826.4 365.997 818.202 368.019 811.898 364.209C805.594 360.4 803.572 352.202 807.381 345.898C811.191 339.594 819.389 337.571 825.693 341.381Z" stroke="white" stroke-width="3.4234"/>
<path d="M823.453 345.088C827.71 347.66 829.075 353.196 826.503 357.453C823.931 361.71 818.395 363.075 814.138 360.503C809.881 357.931 808.516 352.394 811.088 348.138C813.66 343.881 819.196 342.515 823.453 345.088Z" stroke="white" stroke-width="1.14113"/>
<path d="M746.435 369.022C747.751 369.817 748.173 371.528 747.378 372.844C746.583 374.16 744.871 374.582 743.555 373.787C742.24 372.992 741.817 371.28 742.613 369.965C743.408 368.649 745.119 368.227 746.435 369.022Z" stroke="white" stroke-width="2.28227"/>
</svg>
