<svg width="367" height="626" viewBox="0 0 367 626" fill="none" xmlns="http://www.w3.org/2000/svg">
<path d="M217 244L211 244C157.428 244 114 200.572 114 147L164 147L164.268 148.325C169.057 171.988 189.857 189 214 189C238.125 189.862 259.235 172.909 263.602 149.167L264 147L314 147C314 200.572 270.572 244 217 244Z" fill="#103957" stroke="#103957"/>
<path d="M214.649 99.4369C236.235 99.4968 253.685 117.044 253.625 138.63C253.565 160.216 236.018 177.666 214.432 177.606C192.846 177.546 175.396 159.999 175.456 138.413C175.516 116.827 193.063 99.377 214.649 99.4369Z" stroke="white" stroke-width="4.79627"/>
<path d="M214.619 109.899C230.427 109.943 243.206 122.793 243.162 138.6C243.118 154.408 230.268 167.187 214.46 167.143C198.653 167.099 185.874 154.249 185.918 138.442C185.962 122.634 198.812 109.855 214.619 109.899Z" stroke="#0088FF" stroke-width="3.5972"/>
<path d="M214.59 120.361C224.619 120.389 232.727 128.541 232.699 138.571C232.672 148.6 224.519 156.708 214.489 156.68C204.46 156.652 196.352 148.499 196.38 138.47C196.408 128.441 204.561 120.333 214.59 120.361Z" stroke="#0088FF" stroke-width="2.39814"/>
<path d="M161.993 139.863L135.907 140.474" stroke="white" stroke-width="1.19907"/>
<path d="M292.942 136.8L266.857 137.411" stroke="white" stroke-width="1.19907"/>
<path d="M162.299 144.428L136.366 147.31" stroke="white" stroke-width="1.19907"/>
<path d="M292.483 129.964L266.55 132.845" stroke="white" stroke-width="1.19907"/>
<path d="M163.002 148.95L137.419 154.08" stroke="white" stroke-width="1.19907"/>
<path d="M291.43 123.194L265.847 128.324" stroke="white" stroke-width="1.19907"/>
<path d="M164.096 153.391L139.057 160.732" stroke="white" stroke-width="1.19907"/>
<path d="M289.791 116.541L264.752 123.882" stroke="white" stroke-width="1.19907"/>
<path d="M165.574 157.722L141.271 167.217" stroke="white" stroke-width="1.19907"/>
<path d="M287.579 110.057L263.275 119.552" stroke="white" stroke-width="1.19907"/>
<path d="M167.423 161.907L144.04 173.484" stroke="white" stroke-width="1.19907"/>
<path d="M284.809 103.79L261.425 115.367" stroke="white" stroke-width="1.19907"/>
<path d="M169.63 165.915L147.345 179.486" stroke="white" stroke-width="1.19907"/>
<path d="M281.504 97.7877L259.219 111.359" stroke="white" stroke-width="1.19907"/>
<path d="M172.178 169.715L151.16 185.177" stroke="white" stroke-width="1.19907"/>
<path d="M277.689 92.0967L256.671 107.559" stroke="white" stroke-width="1.19907"/>
<path d="M175.048 173.279L155.457 190.514" stroke="white" stroke-width="1.19907"/>
<path d="M273.392 86.7599L253.801 103.995" stroke="white" stroke-width="1.19907"/>
<path d="M178.217 176.579L160.203 195.456" stroke="white" stroke-width="1.19907"/>
<path d="M268.646 81.8179L250.632 100.695" stroke="white" stroke-width="1.19907"/>
<path d="M181.661 179.591L165.361 199.965" stroke="white" stroke-width="1.19907"/>
<path d="M263.488 77.3085L247.188 97.6834" stroke="white" stroke-width="1.19907"/>
<path d="M185.355 182.29L170.893 204.008" stroke="white" stroke-width="1.19907"/>
<path d="M257.956 73.2657L243.494 94.9837" stroke="white" stroke-width="1.19907"/>
<path d="M189.271 184.658L176.756 207.553" stroke="white" stroke-width="1.19907"/>
<path d="M252.093 69.7205L239.579 92.6164" stroke="white" stroke-width="1.19907"/>
<path d="M193.377 186.675L182.906 210.574" stroke="white" stroke-width="1.19907"/>
<path d="M245.943 66.6998L235.472 90.5992" stroke="white" stroke-width="1.19907"/>
<path d="M197.644 188.326L189.296 213.047" stroke="white" stroke-width="1.19907"/>
<path d="M239.553 64.2266L231.205 88.9477" stroke="white" stroke-width="1.19907"/>
<path d="M202.039 189.6L195.877 214.954" stroke="white" stroke-width="1.19907"/>
<path d="M232.973 62.3197L226.811 87.6743" stroke="white" stroke-width="1.19907"/>
<path d="M206.527 190.485L202.599 216.281" stroke="white" stroke-width="1.19907"/>
<path d="M226.25 60.9933L222.321 86.7885" stroke="white" stroke-width="1.19907"/>
<path d="M211.077 190.976L209.411 217.016" stroke="white" stroke-width="1.19907"/>
<path d="M219.438 60.2581L217.772 86.2976" stroke="white" stroke-width="1.19907"/>
<path d="M215.651 191.069L216.261 217.154" stroke="white" stroke-width="1.19907"/>
<path d="M212.588 60.1195L213.198 86.205" stroke="white" stroke-width="1.19907"/>
<path d="M220.216 190.763L223.097 216.696" stroke="white" stroke-width="1.19907"/>
<path d="M205.751 60.5783L208.633 86.5114" stroke="white" stroke-width="1.19907"/>
<path d="M224.737 190.059L229.868 215.643" stroke="white" stroke-width="1.19907"/>
<path d="M198.981 61.6312L204.112 87.2145" stroke="white" stroke-width="1.19907"/>
<path d="M229.18 188.965L236.521 214.004" stroke="white" stroke-width="1.19907"/>
<path d="M192.329 63.2701L199.669 88.3089" stroke="white" stroke-width="1.19907"/>
<path d="M233.509 187.488L243.004 211.791" stroke="white" stroke-width="1.19907"/>
<path d="M185.844 65.4828L195.339 89.7865" stroke="white" stroke-width="1.19907"/>
<path d="M237.695 185.638L249.272 209.022" stroke="white" stroke-width="1.19907"/>
<path d="M179.577 68.2521L191.154 91.6358" stroke="white" stroke-width="1.19907"/>
<path d="M241.703 183.431L255.274 205.717" stroke="white" stroke-width="1.19907"/>
<path d="M173.575 71.5571L187.146 93.8427" stroke="white" stroke-width="1.19907"/>
<path d="M245.503 180.883L260.965 201.901" stroke="white" stroke-width="1.19907"/>
<path d="M167.884 75.3726L183.346 96.3907" stroke="white" stroke-width="1.19907"/>
<path d="M249.066 178.014L266.301 197.604" stroke="white" stroke-width="1.19907"/>
<path d="M162.547 79.6697L179.782 99.2601" stroke="white" stroke-width="1.19907"/>
<path d="M252.367 174.845L271.244 192.859" stroke="white" stroke-width="1.19907"/>
<path d="M157.606 84.4154L176.482 102.429" stroke="white" stroke-width="1.19907"/>
<path d="M255.378 171.4L275.753 187.7" stroke="white" stroke-width="1.19907"/>
<path d="M153.096 89.5738L173.471 105.874" stroke="white" stroke-width="1.19907"/>
<path d="M258.078 167.706L279.796 182.168" stroke="white" stroke-width="1.19907"/>
<path d="M149.053 95.1056L170.771 109.568" stroke="white" stroke-width="1.19907"/>
<path d="M260.445 163.791L283.341 176.305" stroke="white" stroke-width="1.19907"/>
<path d="M145.508 100.969L168.404 113.483" stroke="white" stroke-width="1.19907"/>
<path d="M262.462 159.684L286.362 170.155" stroke="white" stroke-width="1.19907"/>
<path d="M142.487 107.119L166.387 117.59" stroke="white" stroke-width="1.19907"/>
<path d="M264.114 155.417L288.835 163.766" stroke="white" stroke-width="1.19907"/>
<path d="M140.014 113.508L164.735 121.857" stroke="white" stroke-width="1.19907"/>
<path d="M265.387 151.023L290.742 157.185" stroke="white" stroke-width="1.19907"/>
<path d="M138.107 120.089L163.461 126.251" stroke="white" stroke-width="1.19907"/>
<path d="M266.273 146.534L292.068 150.463" stroke="white" stroke-width="1.19907"/>
<path d="M136.781 126.811L162.576 130.74" stroke="white" stroke-width="1.19907"/>
<path d="M266.764 141.985L292.803 143.651" stroke="white" stroke-width="1.19907"/>
<path d="M136.045 133.623L162.085 135.289" stroke="white" stroke-width="1.19907"/>
<path d="M214.535 261.935L214.535 407L153 435L153 622" stroke="#103957" stroke-width="8"/>
<path d="M169 232.587C220.226 257.474 281.828 236.327 306.591 185.355C331.354 134.383 309.902 72.8868 258.675 48.0002" stroke="#0088FF" stroke-width="4.79627"/>
<path d="M89.3929 137.746C89.1111 208.136 144.433 265.421 212.958 265.695C281.484 265.969 337.263 209.129 337.544 138.739" stroke="#103957" stroke-width="10"/>
<path d="M238.469 219.245C282.914 206.074 308.267 159.367 295.096 114.922C281.925 70.4763 235.218 45.1233 190.772 58.2943" stroke="#0088FF" stroke-width="2.39814"/>
<path d="M132.267 95.1626C132.267 95.1626 123.955 104.879 125.098 114.114" stroke="white" stroke-width="2.39814"/>
<path d="M179.688 119.932L87.884 69.936L95.1281 57.7641" stroke="white" stroke-width="2.39814"/>
<path d="M89.2959 29.5129C94.9669 20.1867 107.125 17.2236 116.451 22.8947C125.777 28.5657 128.74 40.7234 123.069 50.0495C117.398 59.3757 105.24 62.3388 95.914 56.6677C86.5879 50.9967 83.6248 38.839 89.2959 29.5129Z" stroke="white" stroke-width="3.5972"/>
<path d="M94.2089 32.5002C98.2301 25.8873 106.851 23.7863 113.463 27.8075C120.076 31.8286 122.177 40.4492 118.156 47.062C114.135 53.6749 105.514 55.7758 98.9016 51.7547C92.2888 47.7336 90.1878 39.113 94.2089 32.5002Z" stroke="white" stroke-width="3.5972"/>
<path d="M98.0974 34.8647C100.813 30.3993 106.634 28.9806 111.099 31.6959C115.565 34.4112 116.983 40.2323 114.268 44.6977C111.553 49.163 105.732 50.5817 101.266 47.8664C96.8008 45.1511 95.3821 39.3301 98.0974 34.8647Z" stroke="white" stroke-width="1.19907"/>
<path d="M123.022 115.862C123.861 114.482 125.661 114.043 127.041 114.883C128.421 115.722 128.86 117.522 128.021 118.902C127.181 120.282 125.382 120.721 124.001 119.882C122.621 119.042 122.182 117.243 123.022 115.862Z" stroke="white" stroke-width="2.39814"/>
</svg>
