<svg width="1056" height="1151" viewBox="0 0 1056 1151" fill="none" xmlns="http://www.w3.org/2000/svg">
<path d="M466 849.086L480.5 893.586L683 893.586L683 989" stroke="white" stroke-width="10"/>
<path d="M667 988.5L667 913.5L667 843L555 843L540 818" stroke="white" stroke-width="8"/>
<path d="M653.5 840.5L653.5 870L653.5 988.5" stroke="white" stroke-width="5"/>
<path d="M581.406 772.712C510.889 865.423 379.566 884.175 288.086 814.596C196.607 745.016 179.614 613.453 250.13 520.742" stroke="white" stroke-width="10"/>
<path d="M531.84 496.784C612.718 565.028 623.389 685.408 555.674 765.658C520.987 806.768 472.458 829.372 422.5 832.47" stroke="white" stroke-width="10"/>
<path d="M372.772 812.975C279.995 786.24 226.457 689.357 253.191 596.58" stroke="#0088FF" stroke-width="18" stroke-linejoin="round"/>
<path d="M371 467.214C462.425 436.168 561.707 485.115 592.753 576.539" stroke="white" stroke-width="18" stroke-linejoin="round"/>
<path d="M515.185 445C622.761 490.942 672.726 615.393 626.784 722.969" stroke="white" stroke-width="18" stroke-linejoin="round"/>
<path d="M253.838 842.336C253.838 842.336 275.184 863.149 293.694 869.737" stroke="#0088FF" stroke-width="2"/>
<path d="M307.066 780.758L233.812 864.379L216.516 849.032" stroke="#0088FF" stroke-width="2"/>
<path d="M180.651 849.864C170.415 840.782 169.48 825.123 178.562 814.887C187.643 804.652 203.303 803.717 213.538 812.798C223.773 821.88 224.708 837.539 215.627 847.775C206.545 858.01 190.886 858.945 180.651 849.864Z" stroke="#0088FF" stroke-width="3"/>
<path d="M185.301 844.622C177.96 838.109 177.29 826.878 183.803 819.538C190.316 812.197 201.547 811.526 208.887 818.04C216.228 824.553 216.899 835.784 210.386 843.124C203.872 850.465 192.642 851.136 185.301 844.622Z" stroke="#0088FF" stroke-width="3"/>
<path d="M189.951 839.381C185.505 835.436 185.099 828.634 189.044 824.188C192.989 819.742 199.791 819.336 204.237 823.281C208.683 827.226 209.089 834.028 205.144 838.474C201.199 842.92 194.397 843.326 189.951 839.381Z" stroke="#0088FF" stroke-width="3"/>
<path d="M296.665 878.529C293.46 875.685 293.167 870.782 296.011 867.576C298.854 864.371 303.758 864.078 306.963 866.922C310.169 869.766 310.462 874.67 307.618 877.875C304.774 881.08 299.87 881.373 296.665 878.529Z" stroke="#0088FF" stroke-width="2"/>
<path fill-rule="evenodd" clip-rule="evenodd" d="M391.499 62.4982C390.093 63.5267 389.798 64.3315 389.798 67.1275C389.798 70.1669 389.952 70.5123 391.31 70.5123C392.641 70.5123 392.821 70.1669 392.821 67.6272C392.821 65.8167 393.224 64.4661 393.902 64.0021C394.801 63.3858 399.978 63.262 424.896 63.262L454.81 63.262L454.81 68.199L454.81 73.1364L457.43 74.9314C459.041 76.035 460.788 76.7269 461.966 76.7269C463.019 76.7269 463.881 76.9599 463.881 77.2448C463.881 77.5467 466.401 77.7627 469.929 77.7627L475.976 77.7627L475.976 104.47C475.976 126.926 475.805 131.296 474.896 131.918C474.219 132.382 472.247 132.658 469.604 132.658C465.897 132.658 465.393 132.782 465.393 133.694C465.393 134.624 465.897 134.729 470.36 134.729C475.468 134.729 477.488 134.079 477.488 132.436C477.488 131.988 477.828 131.622 478.244 131.622C478.738 131.622 479 121.955 479 103.657C479 85.3584 478.738 75.6911 478.244 75.6911C477.828 75.6911 477.488 75.225 477.488 74.6554C477.488 73.965 476.984 73.6196 475.976 73.6196C475.105 73.6196 474.464 73.2742 474.464 72.806C474.464 71.8718 472.697 70.5123 471.482 70.5123C470.218 70.5123 459.345 62.8653 459.345 61.9756C459.345 61.2853 455.343 61.1941 426.272 61.2221L393.199 61.2537L391.499 62.4982ZM460.857 66.8872C460.857 67.172 461.537 67.4051 462.369 67.4051C463.24 67.4051 463.881 67.7505 463.881 68.2187C463.881 69.2653 465.701 70.5123 467.229 70.5123C467.882 70.5123 468.417 70.9272 468.417 71.4337C468.417 71.9407 469.097 72.6911 469.929 73.1017C472.418 74.3307 471.696 74.6554 466.473 74.6554C461.365 74.6554 459.345 74.0054 459.345 72.3617C459.345 71.9142 459.005 71.5481 458.589 71.5481C458.174 71.5481 457.833 70.3829 457.833 68.9587C457.833 66.7147 458.035 66.3693 459.345 66.3693C460.177 66.3693 460.857 66.6024 460.857 66.8872ZM373.356 74.9273L371.655 76.1722L371.655 100.79C371.655 125.062 371.676 125.408 373.167 125.408C374.657 125.408 374.679 125.062 374.679 101.289C374.679 81.0771 374.853 77.0511 375.759 76.4312C376.658 75.8149 381.835 75.6911 406.753 75.6911L436.667 75.6911L436.667 80.352C436.667 83.1139 436.974 85.013 437.423 85.013C437.838 85.013 438.179 85.3729 438.179 85.8131C438.179 86.8494 441.546 89.156 443.058 89.156C443.701 89.156 444.226 89.389 444.226 89.6739C444.226 89.981 446.998 90.1917 451.03 90.1917L457.833 90.1917L457.833 116.899C457.833 139.356 457.662 143.725 456.753 144.347C455.859 144.96 451.181 145.087 429.539 145.087C403.909 145.087 403.405 145.107 403.405 146.123C403.405 147.139 403.909 147.158 430.295 147.158C458.546 147.158 459.345 147.095 459.345 144.865C459.345 144.417 459.685 144.051 460.101 144.051C460.596 144.051 460.857 134.384 460.857 116.086C460.857 97.7875 460.596 88.1202 460.101 88.1202C459.685 88.1202 459.345 87.6541 459.345 87.0845C459.345 86.4879 458.841 86.0487 458.158 86.0487C456.773 86.0487 454.81 84.8338 454.81 83.9772C454.81 83.2247 452.908 81.9057 451.824 81.9057C450.56 81.9057 442.714 76.339 442.714 75.4436C442.714 75.0008 442.052 74.6554 441.202 74.6554C440.371 74.6554 439.69 74.4223 439.69 74.1375C439.69 73.7998 428.445 73.6305 407.374 73.6512L375.057 73.6828L373.356 74.9273ZM441.202 78.2805C441.202 78.5654 441.883 78.7984 442.714 78.7984C443.578 78.7984 444.226 79.1438 444.226 79.6037C444.226 80.047 446.267 81.7819 448.762 83.4593C451.257 85.1367 453.298 86.6386 453.298 86.797C453.298 86.955 451.071 87.0845 448.35 87.0845C444.104 87.0845 443.138 86.9043 441.546 85.8131C439.954 84.7224 439.69 84.0611 439.69 81.1522C439.69 79.2376 440.019 77.7627 440.446 77.7627C440.862 77.7627 441.202 77.9957 441.202 78.2805ZM389.798 94.3348C389.798 95.3509 390.302 95.3705 416.256 95.3705C442.21 95.3705 442.714 95.3509 442.714 94.3348C442.714 93.3187 442.21 93.299 416.256 93.299C390.302 93.299 389.798 93.3187 389.798 94.3348ZM438.179 102.103C438.179 102.438 429.611 102.621 413.988 102.621C390.302 102.621 389.798 102.643 389.798 103.657C389.798 104.673 390.302 104.692 416.256 104.692L442.714 104.692L442.714 103.139C442.714 101.561 441.691 101.053 440.887 102.232C440.535 102.75 440.358 102.75 440.006 102.232C439.48 101.46 438.179 101.368 438.179 102.103ZM389.798 111.943C389.798 112.959 390.302 112.978 416.256 112.978C442.21 112.978 442.714 112.959 442.714 111.943C442.714 110.927 442.21 110.907 416.256 110.907C390.302 110.907 389.798 110.927 389.798 111.943ZM389.798 120.229C389.798 121.245 390.302 121.264 417.012 121.264C431.98 121.264 444.226 121.131 444.226 120.969C444.226 120.806 443.74 120.34 443.146 119.933C442.252 119.32 437.574 119.193 415.932 119.193C390.302 119.193 389.798 119.213 389.798 120.229ZM389.798 128.515C389.798 129.531 390.302 129.551 416.256 129.551C442.21 129.551 442.714 129.531 442.714 128.515C442.714 127.499 442.21 127.479 416.256 127.479C390.302 127.479 389.798 127.499 389.798 128.515ZM371.655 138.354L371.655 145.087L361.827 145.087C352.504 145.087 352 145.14 352 146.123C352 147.099 352.504 147.158 360.747 147.158C367.321 147.158 369.763 147.342 370.575 147.898C371.386 148.454 371.655 150.127 371.655 154.631C371.655 160.278 371.742 160.623 373.167 160.623C374.601 160.623 374.679 160.278 374.679 153.891L374.679 147.158L384.506 147.158C393.829 147.158 394.333 147.105 394.333 146.123C394.333 145.14 393.829 145.087 384.506 145.087L374.679 145.087L374.679 138.354C374.679 131.967 374.601 131.622 373.167 131.622C371.733 131.622 371.655 131.967 371.655 138.354Z" fill="white"/>
<path d="M416.806 543.767L415.479 493.089" stroke="white"/>
<path d="M423.463 798.173L422.137 747.495" stroke="white"/>
<path d="M407.938 544.387L402.2 494.017" stroke="white"/>
<path d="M436.742 797.245L431.004 746.875" stroke="white"/>
<path d="M399.158 545.778L389.051 496.099" stroke="white"/>
<path d="M449.891 795.162L439.785 745.484" stroke="white"/>
<path d="M390.534 547.928L376.136 499.319" stroke="white"/>
<path d="M462.808 791.943L448.41 743.334" stroke="white"/>
<path d="M382.127 550.822L363.547 503.653" stroke="white"/>
<path d="M475.395 787.609L456.815 740.44" stroke="white"/>
<path d="M374.006 554.438L351.386 509.068" stroke="white"/>
<path d="M487.556 782.194L464.937 736.824" stroke="white"/>
<path d="M366.231 558.747L339.743 515.521" stroke="white"/>
<path d="M499.199 775.74L472.711 732.515" stroke="white"/>
<path d="M358.861 563.717L328.707 522.965" stroke="white"/>
<path d="M510.236 768.297L480.082 727.544" stroke="white"/>
<path d="M351.952 569.312L318.361 531.343" stroke="white"/>
<path d="M520.581 759.919L486.99 721.95" stroke="white"/>
<path d="M345.558 575.486L308.785 540.589" stroke="white"/>
<path d="M530.157 750.672L493.384 715.774" stroke="white"/>
<path d="M339.726 582.196L300.051 550.636" stroke="white"/>
<path d="M538.891 740.625L499.217 709.066" stroke="white"/>
<path d="M334.501 589.387L292.227 561.405" stroke="white"/>
<path d="M546.716 729.856L504.442 701.874" stroke="white"/>
<path d="M329.922 597.007L285.37 572.816" stroke="white"/>
<path d="M553.572 718.445L509.021 694.254" stroke="white"/>
<path d="M326.024 604.997L279.534 584.781" stroke="white"/>
<path d="M559.408 706.48L512.917 686.264" stroke="white"/>
<path d="M322.839 613.296L274.763 597.209" stroke="white"/>
<path d="M564.179 694.052L516.104 677.965" stroke="white"/>
<path d="M320.388 621.841L271.093 610.006" stroke="white"/>
<path d="M567.849 681.256L518.554 669.42" stroke="white"/>
<path d="M318.693 630.565L268.554 623.071" stroke="white"/>
<path d="M570.389 668.189L520.25 660.695" stroke="white"/>
<path d="M317.763 639.408L267.162 636.312" stroke="white"/>
<path d="M571.781 654.949L521.18 651.854" stroke="white"/>
<path d="M317.607 648.296L266.929 649.623" stroke="white"/>
<path d="M572.013 641.639L521.334 642.965" stroke="white"/>
<path d="M318.227 657.162L267.857 662.9" stroke="white"/>
<path d="M571.085 628.36L520.715 634.098" stroke="white"/>
<path d="M319.618 665.945L269.939 676.051" stroke="white"/>
<path d="M569.003 615.211L519.324 625.318" stroke="white"/>
<path d="M321.768 674.569L273.16 688.967" stroke="white"/>
<path d="M565.782 602.294L517.174 616.692" stroke="white"/>
<path d="M324.662 682.974L277.493 701.553" stroke="white"/>
<path d="M561.449 589.707L514.28 608.286" stroke="white"/>
<path d="M328.278 691.096L282.908 713.715" stroke="white"/>
<path d="M556.034 577.546L510.664 600.166" stroke="white"/>
<path d="M332.587 698.871L289.361 725.358" stroke="white"/>
<path d="M549.581 565.903L506.355 592.391" stroke="white"/>
<path d="M337.558 706.241L296.805 736.395" stroke="white"/>
<path d="M542.137 554.866L501.384 585.021" stroke="white"/>
<path d="M343.152 713.149L305.182 746.74" stroke="white"/>
<path d="M533.759 544.52L495.79 578.112" stroke="white"/>
<path d="M349.328 719.544L314.43 756.317" stroke="white"/>
<path d="M524.512 534.945L489.615 571.718" stroke="white"/>
<path d="M356.036 725.377L324.477 765.051" stroke="white"/>
<path d="M514.465 526.211L482.906 565.885" stroke="white"/>
<path d="M363.228 730.602L335.246 772.876" stroke="white"/>
<path d="M503.696 518.386L475.714 560.66" stroke="white"/>
<path d="M370.847 735.18L346.657 779.732" stroke="white"/>
<path d="M492.285 511.53L468.095 556.082" stroke="white"/>
<path d="M378.837 739.077L358.622 785.568" stroke="white"/>
<path d="M480.32 505.694L460.104 552.184" stroke="white"/>
<path d="M387.137 742.263L371.05 790.339" stroke="white"/>
<path d="M467.893 500.923L451.806 548.999" stroke="white"/>
<path d="M395.681 744.713L383.846 794.008" stroke="white"/>
<path d="M455.096 497.253L443.26 546.548" stroke="white"/>
<path d="M404.408 746.41L396.914 796.549" stroke="white"/>
<path d="M442.029 494.713L434.535 544.852" stroke="white"/>
<path d="M413.249 747.339L410.153 797.94" stroke="white"/>
<path d="M428.79 493.321L425.694 543.922" stroke="white"/>
<path d="M701 438L523 438L504 476" stroke="white" stroke-width="10"/>
<path d="M504 476L523 438L709 438L709 397" stroke="white" stroke-width="10"/>
<path d="M418.75 646.395L418.75 652.885M418.75 607.02L418.75 614.375M418.75 685.337L418.75 694.856M426.538 701.779L488.5 701.779L488.5 685.337M411.394 701.779L365 701.779L272 802.5" stroke="white" stroke-width="4"/>
<path d="M400.577 575L369.067 575C365.201 575 362.067 578.134 362.067 582L362.067 600.019C362.067 603.885 365.201 607.019 369.067 607.019L468.433 607.019C472.299 607.019 475.433 603.885 475.433 600.019L475.433 582C475.433 578.134 472.299 575 468.433 575L411.827 575" stroke="white" stroke-width="2"/>
<path d="M383.269 645.962L369.067 645.962C365.201 645.962 362.067 642.828 362.067 638.962L362.067 620.943C362.067 617.077 365.201 613.943 369.067 613.943L468.433 613.943C472.299 613.943 475.433 617.077 475.433 620.943L475.433 638.962C475.433 642.828 472.299 645.962 468.433 645.962L392.789 645.962" stroke="white" stroke-width="2"/>
<path d="M439.952 584.952L439.952 595.769M451.202 584.519L451.202 595.769" stroke="white" stroke-width="3"/>
<path d="M414.529 585.154L460.183 585.154C461.563 585.154 462.683 586.273 462.683 587.654L462.683 593.5C462.683 594.881 461.563 596 460.183 596L414.529 596C413.148 596 412.029 594.881 412.029 593.5L412.029 587.654C412.029 586.273 413.148 585.154 414.529 585.154Z" stroke="white" stroke-width="3"/>
<path d="M406.067 590.577C406.067 591.459 405.353 592.173 404.471 592.173C403.59 592.173 402.875 591.459 402.875 590.577C402.875 589.696 403.59 588.981 404.471 588.981C405.353 588.981 406.067 589.696 406.067 590.577Z" stroke="white" stroke-width="2"/>
<path d="M424.971 701.779C424.971 705.215 422.186 708 418.75 708C415.314 708 412.529 705.215 412.529 701.779C412.529 698.343 415.314 695.558 418.75 695.558C422.186 695.558 424.971 698.343 424.971 701.779Z" stroke="white" stroke-width="4"/>
<path d="M394.952 575L394.952 584.087M386.731 575L386.731 584.087M378.51 575L378.51 584.087" stroke="white" stroke-width="3"/>
<path d="M439.952 622.164L439.952 632.981M451.202 621.731L451.202 632.981" stroke="white" stroke-width="3"/>
<path d="M414.529 622.366L460.183 622.366C461.563 622.366 462.683 623.485 462.683 624.866L462.683 630.712C462.683 632.093 461.563 633.212 460.183 633.212L414.529 633.212C413.148 633.212 412.029 632.093 412.029 630.712L412.029 624.866C412.029 623.485 413.148 622.366 414.529 622.366Z" stroke="white" stroke-width="3"/>
<path d="M406.067 627.789C406.067 628.67 405.353 629.385 404.471 629.385C403.59 629.385 402.875 628.67 402.875 627.789C402.875 626.907 403.59 626.193 404.471 626.193C405.353 626.193 406.067 626.907 406.067 627.789Z" stroke="white" stroke-width="2"/>
<path d="M394.952 613.212L394.952 622.298M386.731 613.212L386.731 622.298M378.51 613.212L378.51 622.298" stroke="white" stroke-width="3"/>
<path d="M446.01 684.904L369.067 684.904C365.201 684.904 362.067 681.77 362.067 677.904L362.067 659.885C362.067 656.019 365.201 652.885 369.067 652.885L468.433 652.885C472.299 652.885 475.433 656.019 475.433 659.885L475.433 677.904C475.433 681.77 472.299 684.904 468.433 684.904L455.096 684.904" stroke="white" stroke-width="2"/>
<path d="M439.952 661.106L439.952 671.923M451.202 660.673L451.202 671.923" stroke="white" stroke-width="3"/>
<path d="M414.529 661.308L460.183 661.308C461.563 661.308 462.683 662.427 462.683 663.808L462.683 669.654C462.683 671.035 461.563 672.154 460.183 672.154L414.529 672.154C413.148 672.154 412.029 671.035 412.029 669.654L412.029 663.808C412.029 662.427 413.148 661.308 414.529 661.308Z" stroke="white" stroke-width="3"/>
<path d="M406.067 666.731C406.067 667.612 405.353 668.327 404.471 668.327C403.59 668.327 402.875 667.612 402.875 666.731C402.875 665.849 403.59 665.135 404.471 665.135C405.353 665.135 406.067 665.849 406.067 666.731Z" stroke="white" stroke-width="2"/>
<path d="M394.952 652.154L394.952 661.241M386.731 652.154L386.731 661.241M378.51 652.154L378.51 661.241" stroke="white" stroke-width="3"/>
<path d="M722 381.5C722 388.956 715.956 395 708.5 395C701.044 395 695 388.956 695 381.5C695 374.044 701.044 368 708.5 368C715.956 368 722 374.044 722 381.5Z" stroke="white" stroke-width="6"/>
<path d="M680.997 340C685.177 350.544 695.468 358 707.5 358C719.532 358 729.823 350.544 734.004 340" stroke="white" stroke-width="6"/>
</svg>
