<svg width="373" height="367" viewBox="0 0 373 367" fill="none" xmlns="http://www.w3.org/2000/svg">
<path d="M140.03 179.242C148.385 202.693 168.242 218.7 190.84 223.038" stroke="#0088FF" stroke-width="10"/>
<path d="M111.029 180.211C111.029 180.211 102.786 154.534 104.917 136.889" stroke="#0088FF" stroke-width="2"/>
<path d="M182.358 161.949L85.1036 187.537L90.5538 207.731" stroke="#0088FF" stroke-width="2"/>
<path d="M75.5531 236.399C78.7577 248.274 90.9816 255.302 102.856 252.097C114.73 248.892 121.758 236.668 118.553 224.794C115.349 212.92 103.125 205.892 91.2506 209.097C79.3764 212.301 72.3484 224.525 75.5531 236.399Z" stroke="#0088FF" stroke-width="3"/>
<path d="M83.1056 239L82.5457 237.824C79.3044 231.01 81.2257 222.859 87.1691 218.211V218.211C93.2604 213.446 101.877 213.682 107.7 218.771L108 219.033" stroke="#103957" stroke-width="4"/>
<path d="M99.0875 130.912C100.084 134.603 103.884 136.788 107.575 135.792C111.267 134.796 113.452 130.996 112.455 127.304C111.459 123.613 107.659 121.428 103.968 122.424C100.276 123.42 98.0912 127.22 99.0875 130.912Z" stroke="#0088FF" stroke-width="2"/>
<path d="M259.03 155.612C259.03 185.159 235.078 209.112 205.53 209.112C175.983 209.112 152.03 185.159 152.03 155.612C152.03 126.065 175.983 102.112 205.53 102.112C235.078 102.112 259.03 126.065 259.03 155.612Z" stroke="#103957" stroke-width="6"/>
<path d="M206.03 72.6118L206.03 102.112" stroke="#103957" stroke-width="10"/>
<path d="M230.03 156.112C230.03 169.367 219.285 180.112 206.03 180.112C192.775 180.112 182.03 169.367 182.03 156.112C182.03 142.857 192.775 132.112 206.03 132.112C219.285 132.112 230.03 142.857 230.03 156.112Z" stroke="#0088FF" stroke-width="6"/>
<path d="M124.849 253.665L150.906 220.903" stroke="#103957"/>
<path d="M133.742 260.125L156.845 225.217" stroke="#103957"/>
<path d="M143.165 265.786L163.137 228.997" stroke="#103957"/>
<path d="M153.045 270.604L169.734 232.215" stroke="#103957"/>
<path d="M163.307 274.543L176.587 234.845" stroke="#103957"/>
<path d="M173.873 277.572L183.643 236.868" stroke="#103957"/>
<path d="M184.664 279.669L190.849 238.268" stroke="#103957"/>
<path d="M195.595 280.818L198.148 239.035" stroke="#103957"/>
<path d="M206.586 281.008L205.488 239.162" stroke="#103957"/>
<path d="M217.551 280.242L212.81 238.65" stroke="#103957"/>
<path d="M228.408 278.521L220.06 237.501" stroke="#103957"/>
<path d="M239.074 275.861L227.182 235.725" stroke="#103957"/>
<path d="M249.467 272.282L234.123 233.335" stroke="#103957"/>
<path d="M259.508 267.811L240.828 230.349" stroke="#103957"/>
<path d="M269.122 262.481L247.248 226.79" stroke="#103957"/>
<path d="M278.234 256.334L253.333 222.686" stroke="#103957"/>
<path d="M286.776 249.416L259.037 218.065" stroke="#103957"/>
<path d="M294.682 241.78L264.316 212.967" stroke="#103957"/>
<path d="M301.893 233.484L269.132 207.427" stroke="#103957"/>
<path d="M308.354 224.59L273.446 201.488" stroke="#103957"/>
<path d="M314.015 215.168L277.226 195.196" stroke="#103957"/>
<path d="M318.833 205.288L280.444 188.599" stroke="#103957"/>
<path d="M322.772 195.026L283.074 181.746" stroke="#103957"/>
<path d="M325.802 184.459L285.097 174.689" stroke="#103957"/>
<path d="M327.898 173.67L286.497 167.484" stroke="#103957"/>
<path d="M329.047 162.737L287.264 160.184" stroke="#103957"/>
<path d="M329.237 151.747L287.391 152.845" stroke="#103957"/>
</svg>
