<svg width="69" height="77" viewBox="0 0 69 77" fill="none" xmlns="http://www.w3.org/2000/svg">
<path d="M17.3238 28.3104C18.3666 28.3104 19.2116 29.1555 19.2116 30.1982C19.2116 31.241 18.3666 32.086 17.3238 32.086C16.2811 32.086 15.4361 31.241 15.4361 30.1982C15.4361 29.1555 16.2811 28.3104 17.3238 28.3104ZM42.0257 30.1982C42.0257 31.241 41.1807 32.086 40.1379 32.086C39.0952 32.086 38.2502 31.241 38.2502 30.1982C38.2502 29.1555 39.0952 28.3104 40.1379 28.3104C41.1807 28.3104 42.0257 29.1555 42.0257 30.1982ZM53.4328 30.1982C53.4328 31.241 52.5877 32.086 51.545 32.086C50.5022 32.086 49.6572 31.241 49.6572 30.1982C49.6572 29.1555 50.5022 28.3104 51.545 28.3104C52.5877 28.3104 53.4328 29.1555 53.4328 30.1982ZM17.3238 39.7175C18.3666 39.7175 19.2116 40.5625 19.2116 41.6053C19.2116 42.648 18.3666 43.4931 17.3238 43.4931C16.2811 43.4931 15.4361 42.648 15.4361 41.6053C15.4361 40.5625 16.2811 39.7175 17.3238 39.7175ZM15.4361 53.0123C15.4361 51.9696 16.2811 51.1245 17.3238 51.1245C18.3666 51.1245 19.2116 51.9696 19.2116 53.0123C19.2116 54.0551 18.3666 54.9001 17.3238 54.9001C16.2811 54.9001 15.4361 54.0551 15.4361 53.0123ZM30.6187 30.1982C30.6187 31.241 29.7736 32.086 28.7309 32.086C27.6881 32.086 26.8431 31.241 26.8431 30.1982C26.8431 29.1555 27.6881 28.3104 28.7309 28.3104C29.7736 28.3104 30.6187 29.1555 30.6187 30.1982ZM28.7309 43.4931C27.6881 43.4931 26.8431 42.648 26.8431 41.6053C26.8431 40.5625 27.6881 39.7175 28.7309 39.7175C29.7736 39.7175 30.6187 40.5625 30.6187 41.6053C30.6187 42.648 29.7736 43.4931 28.7309 43.4931ZM28.7309 51.1245C29.7736 51.1245 30.6187 51.9696 30.6187 53.0123C30.6187 54.0551 29.7736 54.9001 28.7309 54.9001C27.6881 54.9001 26.8431 54.0551 26.8431 53.0123C26.8431 51.9696 27.6881 51.1245 28.7309 51.1245ZM40.1379 43.4931C39.0952 43.4931 38.2502 42.648 38.2502 41.6053C38.2502 40.5625 39.0952 39.7175 40.1379 39.7175C41.1807 39.7175 42.0257 40.5625 42.0257 41.6053C42.0257 42.648 41.1807 43.4931 40.1379 43.4931Z" stroke="white" stroke-width="1.46904"/>
<path d="M24.1107 68.7295H12.2145C6.57319 68.7295 2 64.1563 2 58.515V19.2719C2 13.6306 6.57319 9.05737 12.2145 9.05737H56.7855C62.4268 9.05737 67 13.6306 67 19.2719V37.2951M24.9098 75.6557L40.8934 59.4057C45.4221 54.3442 47.5533 62.8688 51.0164 60.2049C54.4795 57.541 65.4016 46.3524 65.4016 46.3524" stroke="white" stroke-width="2.20357"/>
<path d="M17.4508 0V9.55686V21.8443" stroke="#0088FF" stroke-width="2.93809"/>
<path d="M28.7748 0V9.55686V21.8443" stroke="#0088FF" stroke-width="2.93809"/>
<path d="M40.6947 0V9.55686V21.8443" stroke="#0088FF" stroke-width="2.93809"/>
<path d="M52.615 0V9.55686V21.8443" stroke="#0088FF" stroke-width="2.93809"/>
<path d="M52.6147 44.7542H67V58.6066" stroke="white" stroke-width="2.20357"/>
</svg>
