<svg width="79" height="89" viewBox="0 0 79 89" fill="none" xmlns="http://www.w3.org/2000/svg">
<path d="M19.6216 33.2109C20.4588 33.2109 21.1371 33.8893 21.1371 34.7265C21.1371 35.5636 20.4588 36.242 19.6216 36.242C18.7844 36.242 18.1061 35.5636 18.1061 34.7265C18.1061 33.8893 18.7844 33.2109 19.6216 33.2109ZM47.3721 34.7265C47.3721 35.5636 46.6937 36.242 45.8566 36.242C45.0194 36.242 44.3411 35.5636 44.3411 34.7265C44.3411 33.8893 45.0194 33.2109 45.8566 33.2109C46.6937 33.2109 47.3721 33.8893 47.3721 34.7265ZM60.4896 34.7265C60.4896 35.5636 59.8112 36.242 58.9741 36.242C58.1369 36.242 57.4585 35.5636 57.4585 34.7265C57.4585 33.8893 58.1369 33.2109 58.9741 33.2109C59.8112 33.2109 60.4896 33.8893 60.4896 34.7265ZM19.6216 46.3284C20.4588 46.3284 21.1371 47.0068 21.1371 47.8439C21.1371 48.6811 20.4588 49.3595 19.6216 49.3595C18.7844 49.3595 18.1061 48.6811 18.1061 47.8439C18.1061 47.0068 18.7844 46.3284 19.6216 46.3284ZM18.1061 60.9614C18.1061 60.1243 18.7844 59.4459 19.6216 59.4459C20.4588 59.4459 21.1371 60.1243 21.1371 60.9614C21.1371 61.7986 20.4588 62.4769 19.6216 62.4769C18.7844 62.4769 18.1061 61.7986 18.1061 60.9614ZM34.2546 34.7265C34.2546 35.5636 33.5763 36.242 32.7391 36.242C31.9019 36.242 31.2236 35.5636 31.2236 34.7265C31.2236 33.8893 31.9019 33.2109 32.7391 33.2109C33.5763 33.2109 34.2546 33.8893 34.2546 34.7265ZM32.7391 49.3595C31.9019 49.3595 31.2236 48.6811 31.2236 47.8439C31.2236 47.0068 31.9019 46.3284 32.7391 46.3284C33.5763 46.3284 34.2546 47.0068 34.2546 47.8439C34.2546 48.6811 33.5763 49.3595 32.7391 49.3595ZM32.7391 59.4459C33.5763 59.4459 34.2546 60.1243 34.2546 60.9614C34.2546 61.7986 33.5763 62.4769 32.7391 62.4769C31.9019 62.4769 31.2236 61.7986 31.2236 60.9614C31.2236 60.1243 31.9019 59.4459 32.7391 59.4459ZM45.8566 49.3595C45.0194 49.3595 44.3411 48.6811 44.3411 47.8439C44.3411 47.0068 45.0194 46.3284 45.8566 46.3284C46.6937 46.3284 47.3721 47.0068 47.3721 47.8439C47.3721 48.6811 46.6937 49.3595 45.8566 49.3595Z" stroke="#103957" stroke-width="3"/>
<path d="M27.4261 79.0352H13.7461C7.25893 79.0352 2 73.7763 2 67.2891V22.1616C2 15.6744 7.25892 10.4155 13.7461 10.4155H65.0004C71.4876 10.4155 76.7465 15.6744 76.7465 22.1616V42.8874M28.3451 87L46.7253 68.3134C51.9331 62.493 54.3838 72.2958 58.3662 69.2324C62.3486 66.169 74.9084 53.3028 74.9084 53.3028" stroke="#103957" stroke-width="3"/>
<path d="M19.7676 0V10.9899V25.1197" stroke="#0088FF" stroke-width="3"/>
<path d="M32.7896 0V10.9899V25.1197" stroke="#0088FF" stroke-width="3"/>
<path d="M46.4969 0V10.9899V25.1197" stroke="#0088FF" stroke-width="3"/>
<path d="M60.2042 0V10.9899V25.1197" stroke="#0088FF" stroke-width="3"/>
<path d="M60.2042 51.4648H76.7465V67.3944" stroke="#103957" stroke-width="3"/>
</svg>
