<svg width="16" height="11" viewBox="0 0 16 11" fill="none" xmlns="http://www.w3.org/2000/svg">
<path fill-rule="evenodd" clip-rule="evenodd" d="M1.46193 0.0390071C1.46193 0.060461 1.38883 0.0780142 1.29949 0.0780142C1.16414 0.0780142 1.13706 0.0910035 1.13706 0.156028C1.13706 0.200809 1.16414 0.234043 1.20061 0.234043C1.23557 0.234043 1.35314 0.321809 1.46193 0.429078C1.57072 0.536348 1.68037 0.624114 1.70558 0.624114C1.7308 0.624114 1.84045 0.711879 1.94924 0.819149C2.05803 0.926418 2.16768 1.01418 2.19289 1.01418C2.21811 1.01418 2.32776 1.10195 2.43655 1.20922C2.54534 1.31649 2.65498 1.40426 2.6802 1.40426C2.70542 1.40426 2.81507 1.49202 2.92386 1.59929C3.03265 1.70656 3.14229 1.79433 3.16751 1.79433C3.19273 1.79433 3.30238 1.88209 3.41117 1.98936C3.51996 2.09663 3.6296 2.1844 3.65482 2.1844C3.68004 2.1844 3.78969 2.27216 3.89848 2.37943C4.00727 2.4867 4.11691 2.57447 4.14213 2.57447C4.16735 2.57447 4.27699 2.66223 4.38579 2.7695C4.49458 2.87677 4.60402 2.96454 4.62904 2.96454C4.65409 2.96454 4.78217 3.06986 4.91371 3.19858C5.04524 3.32731 5.17332 3.43262 5.19838 3.43262C5.22339 3.43262 5.33283 3.52039 5.44162 3.62766C5.55042 3.73493 5.66006 3.8227 5.68528 3.8227C5.7105 3.8227 5.82014 3.91046 5.92893 4.01773C6.03773 4.125 6.14737 4.21277 6.17259 4.21277C6.19781 4.21277 6.30745 4.30053 6.41624 4.4078C6.52504 4.51507 6.63468 4.60284 6.6599 4.60284C6.68512 4.60284 6.79476 4.6906 6.90355 4.79787C7.01234 4.90514 7.12199 4.99291 7.14721 4.99291C7.17243 4.99291 7.28207 5.08067 7.39086 5.18794C7.49965 5.29521 7.60954 5.38298 7.63505 5.38298C7.66059 5.38298 7.75338 5.45483 7.84122 5.54267L8.00093 5.70233L8.11829 5.58168C8.18282 5.51529 8.25689 5.46099 8.28288 5.46099C8.30887 5.46099 8.41913 5.37323 8.52792 5.26596C8.63671 5.15869 8.74636 5.07092 8.77157 5.07092C8.79679 5.07092 8.90644 4.98316 9.01523 4.87589C9.12402 4.76862 9.23366 4.68085 9.25888 4.68085C9.2841 4.68085 9.39375 4.59309 9.50254 4.48582C9.61133 4.37855 9.72097 4.29078 9.74619 4.29078C9.77141 4.29078 9.88106 4.20301 9.98985 4.09574C10.0986 3.98848 10.2083 3.90071 10.2335 3.90071C10.2587 3.90071 10.3684 3.81294 10.4772 3.70567C10.5859 3.5984 10.6956 3.51064 10.7208 3.51064C10.746 3.51064 10.8557 3.42287 10.9645 3.3156C11.0733 3.20833 11.1829 3.12057 11.2081 3.12057C11.2333 3.12057 11.343 3.0328 11.4518 2.92553C11.5606 2.81826 11.6702 2.7305 11.6954 2.7305C11.7206 2.7305 11.8303 2.64273 11.9391 2.53546C12.0479 2.42819 12.1575 2.34043 12.1827 2.34043C12.208 2.34043 12.3176 2.25266 12.4264 2.14539C12.5352 2.03812 12.6448 1.95035 12.6701 1.95035C12.6953 1.95035 12.8049 1.86259 12.9137 1.75532C13.0225 1.64805 13.1321 1.56028 13.1574 1.56028C13.1826 1.56028 13.2922 1.47252 13.401 1.36525C13.5098 1.25798 13.6195 1.17021 13.6447 1.17021C13.6699 1.17021 13.7795 1.08245 13.8883 0.975177C13.9971 0.867908 14.1068 0.780142 14.132 0.780142C14.1572 0.780142 14.2668 0.692376 14.3756 0.585106C14.4844 0.477837 14.5937 0.390071 14.6185 0.390071C14.6858 0.390071 14.8629 0.207557 14.8629 0.13828C14.8629 0.093968 14.8199 0.0780142 14.7005 0.0780142C14.6112 0.0780142 14.5381 0.060461 14.5381 0.0390071C14.5381 0.0131454 12.3317 0 8 0C3.66835 0 1.46193 0.0131454 1.46193 0.0390071ZM0.162437 1.01418C0.162437 1.05709 0.144162 1.0922 0.121827 1.0922C0.0994924 1.0922 0.0812183 1.16241 0.0812183 1.24823C0.0812183 1.33404 0.0629442 1.40426 0.0406091 1.40426C0.0138071 1.40426 0 2.79552 0 5.5C0 8.20448 0.0138071 9.59575 0.0406091 9.59575C0.0629442 9.59575 0.0812183 9.66596 0.0812183 9.75177C0.0812183 9.83759 0.0994924 9.9078 0.121827 9.9078C0.144162 9.9078 0.162437 9.94291 0.162437 9.98582C0.162437 10.0287 0.180711 10.0638 0.203046 10.0638C0.225381 10.0638 0.243655 10.0989 0.243655 10.1418C0.243655 10.1848 0.261929 10.2199 0.284264 10.2199C0.306599 10.2199 0.324873 10.2468 0.324873 10.2797C0.324873 10.3527 0.585706 10.6099 0.659736 10.6099C0.689056 10.6099 0.739371 10.645 0.771574 10.6879C0.803777 10.7309 0.862619 10.766 0.902376 10.766C0.942091 10.766 0.974619 10.7835 0.974619 10.805C0.974619 10.8264 1.01117 10.844 1.05584 10.844C1.10051 10.844 1.13706 10.8615 1.13706 10.883C1.13706 10.9044 1.21015 10.922 1.29949 10.922C1.38883 10.922 1.46193 10.9395 1.46193 10.961C1.46193 10.9869 3.66835 11 8 11C12.3317 11 14.5381 10.9869 14.5381 10.961C14.5381 10.9395 14.6112 10.922 14.7005 10.922C14.7898 10.922 14.8629 10.9044 14.8629 10.883C14.8629 10.8615 14.8995 10.844 14.9442 10.844C14.9888 10.844 15.0254 10.8264 15.0254 10.805C15.0254 10.7835 15.0619 10.766 15.1066 10.766C15.1513 10.766 15.1878 10.7484 15.1878 10.727C15.1878 10.7055 15.2157 10.6879 15.2498 10.6879C15.2839 10.6879 15.3935 10.6094 15.4934 10.5134C15.5934 10.4175 15.6751 10.3121 15.6751 10.2794C15.6751 10.2467 15.6934 10.2199 15.7157 10.2199C15.7381 10.2199 15.7563 10.1848 15.7563 10.1418C15.7563 10.0989 15.7746 10.0638 15.797 10.0638C15.8193 10.0638 15.8376 10.0287 15.8376 9.98582C15.8376 9.94291 15.8558 9.9078 15.8782 9.9078C15.9005 9.9078 15.9188 9.83759 15.9188 9.75177C15.9188 9.66596 15.9371 9.59575 15.9594 9.59575C15.9862 9.59575 16 8.20448 16 5.5C16 2.79552 15.9862 1.40426 15.9594 1.40426C15.9371 1.40426 15.9188 1.33404 15.9188 1.24823C15.9188 1.16241 15.9005 1.0922 15.8782 1.0922C15.8558 1.0922 15.8376 1.05709 15.8376 1.01418C15.8376 0.89061 15.7237 0.921855 15.5533 1.0922C15.4675 1.17801 15.3763 1.24823 15.3508 1.24823C15.3253 1.24823 15.2154 1.33599 15.1066 1.44326C14.9978 1.55053 14.8882 1.6383 14.8629 1.6383C14.8377 1.6383 14.7281 1.72606 14.6193 1.83333C14.5105 1.9406 14.4009 2.02837 14.3756 2.02837C14.3504 2.02837 14.2408 2.11613 14.132 2.2234C14.0232 2.33067 13.9135 2.41844 13.8883 2.41844C13.8631 2.41844 13.7535 2.50621 13.6447 2.61348C13.5359 2.72074 13.4262 2.80851 13.401 2.80851C13.3758 2.80851 13.2662 2.89628 13.1574 3.00355C13.0486 3.11082 12.9389 3.19858 12.9137 3.19858C12.8885 3.19858 12.7788 3.28635 12.6701 3.39362C12.5613 3.50089 12.4516 3.58865 12.4264 3.58865C12.4012 3.58865 12.2915 3.67642 12.1827 3.78369C12.0739 3.89096 11.9643 3.97872 11.9391 3.97872C11.9139 3.97872 11.8042 4.06649 11.6954 4.17376C11.5866 4.28103 11.477 4.36879 11.4518 4.36879C11.4266 4.36879 11.3169 4.45656 11.2081 4.56383C11.0993 4.6711 10.9897 4.75887 10.9645 4.75887C10.9392 4.75887 10.8296 4.84663 10.7208 4.9539C10.612 5.06117 10.5021 5.14894 10.4766 5.14894C10.4511 5.14894 10.36 5.21915 10.2741 5.30496C10.1883 5.39078 10.0971 5.46099 10.0716 5.46099C10.0461 5.46099 9.9362 5.54876 9.82741 5.65603C9.71862 5.7633 9.60897 5.85106 9.58376 5.85106C9.55854 5.85106 9.44889 5.93883 9.3401 6.0461C9.23131 6.15337 9.12167 6.24114 9.09645 6.24114C9.07123 6.24114 8.96158 6.3289 8.85279 6.43617C8.744 6.54344 8.63375 6.63121 8.60776 6.63121C8.58177 6.63121 8.50928 6.68387 8.4467 6.74823C8.38412 6.81259 8.30367 6.86525 8.26798 6.86525C8.23224 6.86525 8.20305 6.8828 8.20305 6.90426C8.20305 6.92571 8.11168 6.94326 8 6.94326C7.88832 6.94326 7.79695 6.92571 7.79695 6.90426C7.79695 6.8828 7.76776 6.86525 7.73202 6.86525C7.69632 6.86525 7.61588 6.81259 7.5533 6.74823C7.49072 6.68387 7.41823 6.63121 7.39224 6.63121C7.36625 6.63121 7.256 6.54344 7.14721 6.43617C7.03842 6.3289 6.92877 6.24114 6.90355 6.24114C6.87833 6.24114 6.76869 6.15337 6.6599 6.0461C6.55111 5.93883 6.44146 5.85106 6.41624 5.85106C6.39103 5.85106 6.28138 5.7633 6.17259 5.65603C6.0638 5.54876 5.95415 5.46099 5.92893 5.46099C5.90372 5.46099 5.79407 5.37323 5.68528 5.26596C5.57649 5.15869 5.46684 5.07092 5.44162 5.07092C5.41641 5.07092 5.30676 4.98316 5.19797 4.87589C5.08918 4.76862 4.97953 4.68085 4.95431 4.68085C4.9291 4.68085 4.81945 4.59309 4.71066 4.48582C4.60187 4.37855 4.49243 4.29078 4.46741 4.29078C4.44236 4.29078 4.31427 4.18546 4.18274 4.05674C4.05121 3.92801 3.92313 3.8227 3.89807 3.8227C3.87306 3.8227 3.76361 3.73493 3.65482 3.62766C3.54603 3.52039 3.43639 3.43262 3.41117 3.43262C3.38595 3.43262 3.2763 3.34486 3.16751 3.23759C3.05872 3.13032 2.94908 3.04255 2.92386 3.04255C2.89864 3.04255 2.78899 2.95479 2.6802 2.84752C2.57141 2.74025 2.46177 2.65248 2.43655 2.65248C2.41133 2.65248 2.30169 2.56472 2.19289 2.45745C2.0841 2.35018 1.97446 2.26241 1.94924 2.26241C1.92402 2.26241 1.81438 2.17465 1.70558 2.06738C1.59679 1.96011 1.48715 1.87234 1.46193 1.87234C1.43671 1.87234 1.32707 1.78457 1.21827 1.6773C1.10948 1.57004 0.999838 1.48227 0.974619 1.48227C0.949401 1.48227 0.839756 1.3945 0.730964 1.28723C0.622173 1.17996 0.508629 1.0922 0.478619 1.0922C0.448568 1.0922 0.397685 1.05709 0.365482 1.01418C0.333279 0.971277 0.274437 0.93617 0.23468 0.93617C0.189523 0.93617 0.162437 0.965387 0.162437 1.01418Z" fill="white"/>
</svg>
