<svg width="83" height="89" viewBox="0 0 83 89" fill="none" xmlns="http://www.w3.org/2000/svg">
<path d="M1 16.2642H53.0145" stroke="#103957" stroke-width="3"/>
<path d="M21.9229 8.79199H34.3826M2.05774 72.5395H54.4678" stroke="#103957" stroke-width="3"/>
<path d="M54.4678 60.7241V71.8278C54.4678 80.2072 47.675 87 39.2956 87H17.0322C8.65282 87 1.85999 80.2072 1.85999 71.8278V11.5228V11.5228C1.85999 6.26351 6.1235 2 11.3828 2H43.0367V2C49.3499 2 54.4678 7.11788 54.4678 13.4311V21.8669" stroke="#103957" stroke-width="3"/>
<path d="M29.8098 79.0299C29.8098 79.9245 29.1386 80.5187 28.4683 80.5187C27.7979 80.5187 27.1267 79.9245 27.1267 79.0299C27.1267 78.1353 27.7979 77.541 28.4683 77.541C29.1386 77.541 29.8098 78.1353 29.8098 79.0299Z" stroke="#103957" stroke-width="3"/>
<path d="M42.3624 56.9589V55.9589H41.3624H39.2639C36.0599 55.9589 33.4626 53.3615 33.4626 50.1576V38.366C33.4626 35.162 36.0599 32.5647 39.2639 32.5647H67.5893C70.7933 32.5647 73.3906 35.162 73.3906 38.366V50.1576C73.3906 53.3615 70.7933 55.9589 67.5893 55.9589H51.2006H50.764L50.4672 56.2791L42.3624 65.0228V56.9589Z" stroke="#103957" stroke-width="2"/>
<path d="M39.5824 31.0969V31.0969C39.5824 28.6282 41.5837 26.627 44.0523 26.627H74.8554C78.5541 26.627 81.5747 29.5826 81.6551 33.2804L81.8489 42.1921C81.9318 46.0053 78.8633 49.1413 75.0492 49.1413H74.8802" stroke="#103957" stroke-width="2"/>
<path d="M37.4068 36.3262H47.0977M69.4462 36.3262H50.6576M37.4068 40.3822H55.2064M69.4462 40.3822H58.7664M37.4068 43.9092H51.6465M54.8109 43.9092H69.4462M37.4068 47.6125H47.0977M37.4068 51.6685H55.2064M50.6576 47.6125H69.4462M58.7664 51.6685H69.4462" stroke="#0088FF"/>
</svg>
