<svg width="13" height="18" viewBox="0 0 13 18" fill="none" xmlns="http://www.w3.org/2000/svg">
<path fill-rule="evenodd" clip-rule="evenodd" d="M5.77778 0.0708661C5.77778 0.110268 5.58516 0.141732 5.34444 0.141732C5.10373 0.141732 4.91111 0.173197 4.91111 0.212598C4.91111 0.251575 4.81361 0.283465 4.69444 0.283465C4.57528 0.283465 4.47778 0.315354 4.47778 0.354331C4.47778 0.393307 4.38028 0.425197 4.26111 0.425197C4.14194 0.425197 4.04444 0.457087 4.04444 0.496063C4.04444 0.535039 3.97944 0.566929 3.9 0.566929C3.82056 0.566929 3.75556 0.598819 3.75556 0.637795C3.75556 0.676772 3.69056 0.708661 3.61111 0.708661C3.53167 0.708661 3.46667 0.740551 3.46667 0.779528C3.46667 0.818504 3.40167 0.850394 3.32222 0.850394C3.24278 0.850394 3.17778 0.882284 3.17778 0.92126C3.17778 0.960236 3.1265 0.992126 3.06381 0.992126C3.00105 0.992126 2.8249 1.11969 2.67222 1.27559C2.51954 1.4315 2.35878 1.55906 2.31487 1.55906C2.21101 1.55906 1.58889 2.1695 1.58889 2.2714C1.58889 2.31449 1.45889 2.47224 1.3 2.62205C1.14111 2.77186 1.01111 2.9447 1.01111 3.00628C1.01111 3.0678 0.978611 3.11811 0.938889 3.11811C0.899167 3.11811 0.866667 3.18189 0.866667 3.25984C0.866667 3.3378 0.834167 3.40158 0.794445 3.40158C0.754722 3.40158 0.722222 3.46535 0.722222 3.54331C0.722222 3.62126 0.689722 3.68504 0.65 3.68504C0.610278 3.68504 0.577778 3.74882 0.577778 3.82677C0.577778 3.90472 0.545278 3.9685 0.505556 3.9685C0.465833 3.9685 0.433333 4.06417 0.433333 4.1811C0.433333 4.29803 0.400833 4.3937 0.361111 4.3937C0.321389 4.3937 0.288889 4.48937 0.288889 4.6063C0.288889 4.72323 0.256389 4.8189 0.216667 4.8189C0.176511 4.8189 0.144444 5.0079 0.144444 5.24409C0.144444 5.48029 0.112378 5.66929 0.0722222 5.66929C0.0280944 5.66929 0 6.00002 0 6.51969C0 7.03935 0.0280944 7.37008 0.0722222 7.37008C0.111944 7.37008 0.144444 7.49764 0.144444 7.65354C0.144444 7.80945 0.176944 7.93701 0.216667 7.93701C0.256389 7.93701 0.288889 8.06457 0.288889 8.22047C0.288889 8.37638 0.321389 8.50394 0.361111 8.50394C0.400833 8.50394 0.433333 8.56772 0.433333 8.64567C0.433333 8.72362 0.465833 8.7874 0.505556 8.7874C0.545278 8.7874 0.577778 8.88307 0.577778 9C0.577778 9.11693 0.610278 9.2126 0.65 9.2126C0.689722 9.2126 0.722222 9.26936 0.722222 9.33867C0.722222 9.40805 0.787222 9.51073 0.866667 9.56693C0.946111 9.62313 1.01111 9.72581 1.01111 9.79519C1.01111 9.8645 1.04361 9.92126 1.08333 9.92126C1.12306 9.92126 1.15556 9.97802 1.15556 10.0473C1.15556 10.1167 1.22056 10.2194 1.3 10.2756C1.37944 10.3318 1.44444 10.4275 1.44444 10.4882C1.44444 10.5489 1.50944 10.6446 1.58889 10.7008C1.66833 10.757 1.73333 10.8527 1.73333 10.9134C1.73333 10.9741 1.79833 11.0698 1.87778 11.126C1.95722 11.1822 2.02222 11.2779 2.02222 11.3386C2.02222 11.3993 2.08722 11.495 2.16667 11.5512C2.24611 11.6074 2.31111 11.7101 2.31111 11.7794C2.31111 11.8487 2.34361 11.9055 2.38333 11.9055C2.42306 11.9055 2.45556 11.9623 2.45556 12.0316C2.45556 12.101 2.52056 12.2036 2.6 12.2598C2.67944 12.316 2.74444 12.4117 2.74444 12.4724C2.74444 12.5332 2.80944 12.6288 2.88889 12.685C2.96833 12.7412 3.03333 12.8369 3.03333 12.8976C3.03333 12.9584 3.09833 13.054 3.17778 13.1102C3.25722 13.1664 3.32222 13.2621 3.32222 13.3228C3.32222 13.3836 3.38722 13.4792 3.46667 13.5354C3.54611 13.5916 3.61111 13.6873 3.61111 13.748C3.61111 13.8088 3.67611 13.9044 3.75556 13.9606C3.835 14.0168 3.9 14.1195 3.9 14.1889C3.9 14.2582 3.9325 14.315 3.97222 14.315C4.01194 14.315 4.04444 14.3717 4.04444 14.441C4.04444 14.5104 4.10944 14.6131 4.18889 14.6693C4.26833 14.7255 4.33333 14.8212 4.33333 14.8819C4.33333 14.9426 4.39833 15.0383 4.47778 15.0945C4.55722 15.1507 4.62222 15.2464 4.62222 15.3071C4.62222 15.3678 4.68722 15.4635 4.76667 15.5197C4.84611 15.5759 4.91111 15.6716 4.91111 15.7323C4.91111 15.793 4.97611 15.8887 5.05556 15.9449C5.135 16.0011 5.2 16.0967 5.2 16.1575C5.2 16.2182 5.265 16.3139 5.34444 16.3701C5.42389 16.4263 5.48889 16.529 5.48889 16.5983C5.48889 16.6676 5.52139 16.7244 5.56111 16.7244C5.60083 16.7244 5.63333 16.7812 5.63333 16.8505C5.63333 16.9199 5.69833 17.0225 5.77778 17.0787C5.85722 17.1349 5.92222 17.2306 5.92222 17.2913C5.92222 17.3521 5.98722 17.4477 6.06667 17.5039C6.14611 17.5601 6.21111 17.6491 6.21111 17.7018C6.21111 17.8186 6.3869 18 6.5 18C6.6131 18 6.78889 17.8186 6.78889 17.7018C6.78889 17.6491 6.85389 17.5601 6.93333 17.5039C7.01278 17.4477 7.07778 17.3521 7.07778 17.2913C7.07778 17.2306 7.14278 17.1349 7.22222 17.0787C7.30167 17.0225 7.36667 16.9199 7.36667 16.8505C7.36667 16.7812 7.39917 16.7244 7.43889 16.7244C7.47861 16.7244 7.51111 16.6676 7.51111 16.5983C7.51111 16.529 7.57611 16.4263 7.65556 16.3701C7.735 16.3139 7.8 16.2182 7.8 16.1575C7.8 16.0967 7.865 16.0011 7.94444 15.9449C8.02389 15.8887 8.08889 15.793 8.08889 15.7323C8.08889 15.6716 8.15389 15.5759 8.23333 15.5197C8.31278 15.4635 8.37778 15.3678 8.37778 15.3071C8.37778 15.2464 8.44278 15.1507 8.52222 15.0945C8.60167 15.0383 8.66667 14.9426 8.66667 14.8819C8.66667 14.8212 8.73167 14.7255 8.81111 14.6693C8.89056 14.6131 8.95556 14.5104 8.95556 14.441C8.95556 14.3717 8.98806 14.315 9.02778 14.315C9.0675 14.315 9.1 14.2582 9.1 14.1889C9.1 14.1195 9.165 14.0168 9.24444 13.9606C9.32389 13.9044 9.38889 13.8088 9.38889 13.748C9.38889 13.6873 9.45389 13.5916 9.53333 13.5354C9.61278 13.4792 9.67778 13.3836 9.67778 13.3228C9.67778 13.2621 9.74278 13.1664 9.82222 13.1102C9.90167 13.054 9.96667 12.9584 9.96667 12.8976C9.96667 12.8369 10.0317 12.7412 10.1111 12.685C10.1906 12.6288 10.2556 12.5332 10.2556 12.4724C10.2556 12.4117 10.3206 12.316 10.4 12.2598C10.4794 12.2036 10.5444 12.101 10.5444 12.0316C10.5444 11.9623 10.5769 11.9055 10.6167 11.9055C10.6564 11.9055 10.6889 11.8487 10.6889 11.7794C10.6889 11.7101 10.7539 11.6074 10.8333 11.5512C10.9128 11.495 10.9778 11.3993 10.9778 11.3386C10.9778 11.2779 11.0428 11.1822 11.1222 11.126C11.2017 11.0698 11.2667 10.9741 11.2667 10.9134C11.2667 10.8527 11.3317 10.757 11.4111 10.7008C11.4906 10.6446 11.5556 10.5489 11.5556 10.4882C11.5556 10.4275 11.6206 10.3318 11.7 10.2756C11.7794 10.2194 11.8444 10.1167 11.8444 10.0473C11.8444 9.97802 11.8769 9.92126 11.9167 9.92126C11.9564 9.92126 11.9889 9.8645 11.9889 9.79519C11.9889 9.72581 12.0539 9.62313 12.1333 9.56693C12.2128 9.51073 12.2778 9.40805 12.2778 9.33867C12.2778 9.26936 12.3103 9.2126 12.35 9.2126C12.3897 9.2126 12.4222 9.11693 12.4222 9C12.4222 8.88307 12.4547 8.7874 12.4944 8.7874C12.5342 8.7874 12.5667 8.72362 12.5667 8.64567C12.5667 8.56772 12.5992 8.50394 12.6389 8.50394C12.6786 8.50394 12.7111 8.37638 12.7111 8.22047C12.7111 8.06457 12.7436 7.93701 12.7833 7.93701C12.8231 7.93701 12.8556 7.80945 12.8556 7.65354C12.8556 7.49764 12.8881 7.37008 12.9278 7.37008C12.9719 7.37008 13 7.03935 13 6.51969C13 6.00002 12.9719 5.66929 12.9278 5.66929C12.8876 5.66929 12.8556 5.48029 12.8556 5.24409C12.8556 5.0079 12.8235 4.8189 12.7833 4.8189C12.7436 4.8189 12.7111 4.72323 12.7111 4.6063C12.7111 4.48937 12.6786 4.3937 12.6389 4.3937C12.5992 4.3937 12.5667 4.29803 12.5667 4.1811C12.5667 4.06417 12.5342 3.9685 12.4944 3.9685C12.4547 3.9685 12.4222 3.90472 12.4222 3.82677C12.4222 3.74882 12.3897 3.68504 12.35 3.68504C12.3103 3.68504 12.2778 3.62126 12.2778 3.54331C12.2778 3.46535 12.2453 3.40158 12.2056 3.40158C12.1658 3.40158 12.1333 3.3378 12.1333 3.25984C12.1333 3.18189 12.1008 3.11811 12.0611 3.11811C12.0214 3.11811 11.9889 3.0678 11.9889 3.00628C11.9889 2.9447 11.8589 2.77186 11.7 2.62205C11.5411 2.47224 11.4111 2.31449 11.4111 2.2714C11.4111 2.1695 10.789 1.55906 10.6851 1.55906C10.6412 1.55906 10.4805 1.4315 10.3278 1.27559C10.1751 1.11969 9.99895 0.992126 9.93619 0.992126C9.8735 0.992126 9.82222 0.960236 9.82222 0.92126C9.82222 0.882284 9.75722 0.850394 9.67778 0.850394C9.59833 0.850394 9.53333 0.818504 9.53333 0.779528C9.53333 0.740551 9.46833 0.708661 9.38889 0.708661C9.30944 0.708661 9.24444 0.676772 9.24444 0.637795C9.24444 0.598819 9.17945 0.566929 9.1 0.566929C9.02056 0.566929 8.95556 0.535039 8.95556 0.496063C8.95556 0.457087 8.85806 0.425197 8.73889 0.425197C8.61972 0.425197 8.52222 0.393307 8.52222 0.354331C8.52222 0.315354 8.42472 0.283465 8.30556 0.283465C8.18639 0.283465 8.08889 0.251575 8.08889 0.212598C8.08889 0.173197 7.89627 0.141732 7.65556 0.141732C7.41484 0.141732 7.22222 0.110268 7.22222 0.0708661C7.22222 0.0283465 6.93333 0 6.5 0C6.06667 0 5.77778 0.0283465 5.77778 0.0708661ZM7.36667 3.33071C7.36667 3.36969 7.46417 3.40158 7.58333 3.40158C7.7025 3.40158 7.8 3.43346 7.8 3.47244C7.8 3.51142 7.865 3.54331 7.94444 3.54331C8.02389 3.54331 8.08889 3.5752 8.08889 3.61417C8.08889 3.65315 8.13822 3.68504 8.1986 3.68504C8.34138 3.68504 9.24444 4.57115 9.24444 4.71125C9.24444 4.7705 9.27695 4.8189 9.31667 4.8189C9.35639 4.8189 9.38889 4.88268 9.38889 4.96063C9.38889 5.03858 9.42139 5.10236 9.46111 5.10236C9.50083 5.10236 9.53333 5.19803 9.53333 5.31496C9.53333 5.43189 9.56583 5.52756 9.60556 5.52756C9.64968 5.52756 9.67778 5.85829 9.67778 6.37795C9.67778 6.89761 9.64968 7.22835 9.60556 7.22835C9.56583 7.22835 9.53333 7.32402 9.53333 7.44095C9.53333 7.55787 9.50083 7.65354 9.46111 7.65354C9.42139 7.65354 9.38889 7.71732 9.38889 7.79528C9.38889 7.87323 9.35639 7.93701 9.31667 7.93701C9.27695 7.93701 9.24444 7.98541 9.24444 8.04465C9.24444 8.17554 8.34593 9.07087 8.21448 9.07087C8.16299 9.07087 8.07394 9.13465 8.01667 9.2126C7.95549 9.2958 7.82968 9.35433 7.71182 9.35433C7.60146 9.35433 7.51111 9.38622 7.51111 9.4252C7.51111 9.46417 7.34861 9.49606 7.15 9.49606C6.95139 9.49606 6.78889 9.52795 6.78889 9.56693C6.78889 9.60591 6.65889 9.6378 6.5 9.6378C6.34111 9.6378 6.21111 9.60591 6.21111 9.56693C6.21111 9.52795 6.04861 9.49606 5.85 9.49606C5.65139 9.49606 5.48889 9.46417 5.48889 9.4252C5.48889 9.38622 5.39854 9.35433 5.28818 9.35433C5.17032 9.35433 5.04451 9.2958 4.98333 9.2126C4.92606 9.13465 4.83701 9.07087 4.78552 9.07087C4.65407 9.07087 3.75556 8.17554 3.75556 8.04465C3.75556 7.98541 3.72306 7.93701 3.68333 7.93701C3.64361 7.93701 3.61111 7.87323 3.61111 7.79528C3.61111 7.71732 3.57861 7.65354 3.53889 7.65354C3.49917 7.65354 3.46667 7.55787 3.46667 7.44095C3.46667 7.32402 3.43417 7.22835 3.39444 7.22835C3.35032 7.22835 3.32222 6.89761 3.32222 6.37795C3.32222 5.85829 3.35032 5.52756 3.39444 5.52756C3.43417 5.52756 3.46667 5.43189 3.46667 5.31496C3.46667 5.19803 3.49917 5.10236 3.53889 5.10236C3.57861 5.10236 3.61111 5.03858 3.61111 4.96063C3.61111 4.88268 3.64361 4.8189 3.68333 4.8189C3.72306 4.8189 3.75556 4.7705 3.75556 4.71125C3.75556 4.65208 3.96623 4.39696 4.22363 4.14432C4.4811 3.89176 4.7411 3.68504 4.80141 3.68504C4.86178 3.68504 4.91111 3.65315 4.91111 3.61417C4.91111 3.5752 4.97611 3.54331 5.05556 3.54331C5.135 3.54331 5.2 3.51142 5.2 3.47244C5.2 3.43346 5.2975 3.40158 5.41667 3.40158C5.53583 3.40158 5.63333 3.36969 5.63333 3.33071C5.63333 3.28741 5.97039 3.25984 6.5 3.25984C7.02961 3.25984 7.36667 3.28741 7.36667 3.33071Z" fill="white"/>
</svg>
