<svg width="91" height="73" viewBox="0 0 91 73" fill="none" xmlns="http://www.w3.org/2000/svg">
<path d="M16.9149 1.13346C16.9149 1.29631 16.9149 5.69858 16.9149 9.694C16.9149 13.2587 14.0251 16.1476 10.4604 16.1476H7.90648C7.90648 16.1476 7.90648 16.1476 7.90648 16.1476C7.90648 16.1476 1 16.1476 1 16.4478C1 17.3913 1 51.1251 1 65.5564C1 69.1212 3.88979 72 7.45454 72H55.803C59.3677 72 62.2575 69.1102 62.2575 65.5455V62.0907M16.9149 1.13346C16.9149 0.904106 43.3667 1.02511 55.863 1.09507C59.4111 1.11493 62.2575 3.99733 62.2575 7.5454V17.9492M16.9149 1.13346L1 16.1476M14.5127 26.3571H34.9319M14.5127 37.7678H34.9319M14.5127 47.9774H34.9319M14.5127 57.8867H34.9319M44.5409 16.4478L76.671 32.663M44.5409 16.4478L46.9431 26.9576M44.5409 16.4478L54.1499 12.2438" stroke="white" stroke-width="1.73755"/>
<path d="M48.678 56.7526V31.3948H54.2172V56.7526H48.678Z" stroke="#0088FF" stroke-width="2.86869"/>
<path d="M60.6888 56.7526V38.001H66.228V56.7526H60.6888Z" stroke="#0088FF" stroke-width="2.86869"/>
<path d="M72.0998 56.7526V44.0066H77.639V56.7526H72.0998Z" stroke="#0088FF" stroke-width="2.86869"/>
<path d="M83.5106 56.7526V50.6128H89.0498V56.7526H83.5106Z" stroke="#0088FF" stroke-width="2.86869"/>
</svg>
