<svg width="80" height="87" viewBox="0 0 80 87" fill="none" xmlns="http://www.w3.org/2000/svg">
<path d="M28.0161 73.3468L57.9126 73.3468C60.9165 73.3468 63.3516 70.9203 63.3516 67.9165C63.3516 55.7785 63.3516 27.4462 63.3516 26.6536C63.3516 26.4012 57.5465 26.4012 57.5465 26.4012C57.5465 26.4012 57.5465 26.4012 57.5465 26.4012L55.4135 26.4012C52.4097 26.4012 49.9746 23.9669 49.9746 20.963C49.9746 17.6084 49.9746 13.9181 49.9746 13.7814M49.9746 13.7814C49.9746 13.5887 27.7604 13.6902 17.2512 13.749C14.2615 13.7658 11.8628 16.1946 11.8628 19.1844L11.8628 55.0621M49.9746 13.7814L63.3516 26.4012M51.9937 34.9826L23.473 34.9826M51.9937 44.5736L23.473 44.5736M51.9937 53.1551L23.473 53.1551M51.9937 61.4842L23.473 61.4842M11.8628 60.11L11.8628 86.864M23.473 73.3468L0.000174798 73.3468" stroke="white" stroke-width="1.73363"/>
<path d="M63.6038 60.7272L73.561 60.7272C76.5649 60.7272 79 58.3007 79 55.2968C79 43.1589 79 14.8266 79 14.0339C79 13.7815 73.1949 13.7815 73.1949 13.7815C73.1949 13.7815 73.1949 13.7815 73.1949 13.7815L71.062 13.7815C68.0581 13.7815 65.623 11.3472 65.623 8.34337C65.623 4.98877 65.623 1.29843 65.623 1.16174M65.623 1.16174C65.623 0.969042 43.4088 1.07058 32.8997 1.12939C29.9099 1.14612 27.5112 3.575 27.5112 6.56479L27.5112 13.7815M65.623 1.16174L79 13.7815" stroke="#0088FF" stroke-width="1.73363"/>
</svg>
