<svg width="76" height="80" viewBox="0 0 76 80" fill="none" xmlns="http://www.w3.org/2000/svg">
<path d="M59.6471 56.1142L68.561 56.1142C71.5649 56.1142 74 53.6914 74 50.6876C74 39.4223 74 14.482 74 13.7739C74 13.545 68.5882 13.545 68.5882 13.545C68.5882 13.545 68.5882 13.545 68.5882 13.545L66.9684 13.545C63.9645 13.545 61.5294 11.1102 61.5294 8.10638C61.5294 5.21129 61.5294 2.21881 61.5294 2.10172M61.5294 2.10172C61.5294 1.92919 41.338 2.01678 31.398 2.07036C28.4079 2.08648 26 4.51557 26 7.50575L26 13.545M61.5294 2.10172L74 13.545" stroke="#0088FF" stroke-width="3"/>
<path d="M26.9521 67.5573L55.5067 67.5573C58.5106 67.5573 60.9457 65.1345 60.9457 62.1307C60.9457 50.8655 60.9457 25.9251 60.9457 25.217C60.9457 24.9882 55.361 24.9882 55.361 24.9882C55.361 24.9882 55.361 24.9882 55.361 24.9882L53.5156 24.9882C50.5118 24.9882 48.0767 22.5533 48.0767 19.5495C48.0767 16.6544 48.0767 13.6619 48.0767 13.5448M48.0767 13.5448C48.0767 13.3713 26.9991 13.4609 16.8062 13.5144C13.8157 13.5301 11.4122 15.9593 11.4122 18.9499L11.4122 50.9772M48.0767 13.5448L60.9457 24.9882M50.0192 32.7696L22.5815 32.7696M50.0192 40.4665L22.5815 40.4665M50.0192 48.248L22.5815 48.248M50.0192 55.8006L22.5815 55.8006M11.4122 55.5545L11.4122 79.8144M22.5815 67.5573L3.20012e-06 67.5573" stroke="#103957" stroke-width="3"/>
</svg>
