<svg width="16" height="16" viewBox="0 0 16 16" fill="none" xmlns="http://www.w3.org/2000/svg">
<path fill-rule="evenodd" clip-rule="evenodd" d="M2.90233 0.0355556C2.90233 0.0551111 2.9693 0.0711111 3.05116 0.0711111C3.13302 0.0711111 3.2 0.0871111 3.2 0.106667C3.2 0.126222 3.25023 0.142222 3.31163 0.142222C3.37302 0.142222 3.42326 0.158222 3.42326 0.177778C3.42326 0.197333 3.45306 0.213333 3.48945 0.213333C3.52588 0.213333 3.5798 0.245333 3.6093 0.284444C3.63881 0.323556 3.68904 0.355556 3.72093 0.355556C3.75282 0.355556 3.80305 0.387556 3.83256 0.426667C3.86207 0.465778 3.90891 0.497778 3.93671 0.497778C3.9645 0.497778 4.05157 0.561778 4.13023 0.64C4.20889 0.718222 4.29154 0.782222 4.3139 0.782222C4.36662 0.782222 4.98605 1.37365 4.98605 1.42404C4.98605 1.44512 5.06977 1.5403 5.17209 1.63556C5.27442 1.73081 5.35814 1.83022 5.35814 1.8565C5.35814 1.88281 5.39163 1.92736 5.43256 1.95556C5.47349 1.98375 5.50698 2.03527 5.50698 2.07008C5.50698 2.10485 5.52372 2.13333 5.54419 2.13333C5.56465 2.13333 5.5814 2.16181 5.5814 2.19659C5.5814 2.2314 5.61488 2.28292 5.65581 2.31111C5.69674 2.33931 5.73023 2.39083 5.73023 2.42564C5.73023 2.46041 5.74698 2.48889 5.76744 2.48889C5.78791 2.48889 5.80465 2.53689 5.80465 2.59556C5.80465 2.65422 5.82139 2.70222 5.84186 2.70222C5.86233 2.70222 5.87907 2.75022 5.87907 2.80889C5.87907 2.86756 5.89581 2.91556 5.91628 2.91556C5.93674 2.91556 5.95349 2.99424 5.95349 3.09038C5.95349 3.19545 5.97206 3.27346 6 3.28594C6.03721 3.30251 6.03721 3.31083 6 3.3274C5.97206 3.33988 5.95349 3.41788 5.95349 3.52295C5.95349 3.61913 5.93674 3.69778 5.91628 3.69778C5.89581 3.69778 5.87907 3.74578 5.87907 3.80444C5.87907 3.86311 5.86233 3.91111 5.84186 3.91111C5.82139 3.91111 5.80465 3.94311 5.80465 3.98222C5.80465 4.02133 5.78791 4.05333 5.76744 4.05333C5.74698 4.05333 5.73023 4.08533 5.73023 4.12444C5.73023 4.16356 5.71349 4.19556 5.69302 4.19556C5.67256 4.19556 5.65581 4.22756 5.65581 4.26667C5.65581 4.30578 5.63907 4.33778 5.6186 4.33778C5.59814 4.33778 5.5814 4.36626 5.5814 4.40103C5.5814 4.43584 5.54791 4.48736 5.50698 4.51556C5.46605 4.54375 5.43256 4.59175 5.43256 4.62222C5.43256 4.65269 5.39907 4.70069 5.35814 4.72889C5.31721 4.75708 5.28372 4.80508 5.28372 4.83556C5.28372 4.86603 5.25023 4.91403 5.2093 4.94222C5.16837 4.97042 5.13488 5.02194 5.13488 5.05675C5.13488 5.09152 5.11814 5.12 5.09767 5.12C5.07721 5.12 5.06046 5.152 5.06046 5.19111C5.06046 5.23022 5.04372 5.26222 5.02326 5.26222C5.00279 5.26222 4.98605 5.31022 4.98605 5.36889C4.98605 5.42756 4.9693 5.47556 4.94884 5.47556C4.92651 5.47556 4.91163 5.61778 4.91163 5.83111C4.91163 6.04444 4.92651 6.18667 4.94884 6.18667C4.9693 6.18667 4.98605 6.23467 4.98605 6.29333C4.98605 6.352 5.00279 6.4 5.02326 6.4C5.04372 6.4 5.06046 6.448 5.06046 6.50667C5.06046 6.56533 5.07721 6.61333 5.09767 6.61333C5.11814 6.61333 5.13488 6.64181 5.13488 6.67659C5.13488 6.7114 5.16837 6.76292 5.2093 6.79111C5.25023 6.81931 5.28372 6.86731 5.28372 6.89778C5.28372 6.92825 5.31721 6.97625 5.35814 7.00444C5.39907 7.03264 5.43256 7.08064 5.43256 7.11111C5.43256 7.14158 5.46605 7.18958 5.50698 7.21778C5.54791 7.24597 5.5814 7.29109 5.5814 7.31804C5.5814 7.34496 5.63163 7.41188 5.69302 7.46667C5.75442 7.52146 5.80465 7.58492 5.80465 7.60768C5.80465 7.63044 5.88837 7.72697 5.9907 7.82222C6.09302 7.91748 6.17674 8.01291 6.17674 8.03428C6.17674 8.05568 6.37767 8.26425 6.62326 8.49778C6.86884 8.73131 7.06977 8.93892 7.06977 8.95918C7.06977 9.00839 8.50925 10.3822 8.56082 10.3822C8.58303 10.3822 8.66553 10.4462 8.74419 10.5244C8.82285 10.6027 8.9069 10.6667 8.93098 10.6667C8.95509 10.6667 9.02173 10.7147 9.07907 10.7733C9.13641 10.832 9.21012 10.88 9.24283 10.88C9.27557 10.88 9.30233 10.896 9.30233 10.9156C9.30233 10.9351 9.33581 10.9511 9.37674 10.9511C9.41767 10.9511 9.45116 10.9671 9.45116 10.9867C9.45116 11.0062 9.5014 11.0222 9.56279 11.0222C9.62419 11.0222 9.67442 11.0382 9.67442 11.0578C9.67442 11.0773 9.7414 11.0933 9.82326 11.0933C9.90512 11.0933 9.97209 11.1093 9.97209 11.1289C9.97209 11.1492 10.0837 11.1644 10.2326 11.1644C10.3814 11.1644 10.493 11.1492 10.493 11.1289C10.493 11.1093 10.56 11.0933 10.6419 11.0933C10.7237 11.0933 10.7907 11.0773 10.7907 11.0578C10.7907 11.0382 10.8205 11.0222 10.8569 11.0222C10.8933 11.0222 10.9472 10.9902 10.9767 10.9511C11.0063 10.912 11.0602 10.88 11.0966 10.88C11.133 10.88 11.1628 10.864 11.1628 10.8444C11.1628 10.8249 11.1963 10.8089 11.2372 10.8089C11.2781 10.8089 11.3116 10.7929 11.3116 10.7733C11.3116 10.7538 11.3414 10.7378 11.3778 10.7378C11.4143 10.7378 11.4682 10.7058 11.4977 10.6667C11.5272 10.6276 11.5811 10.5956 11.6175 10.5956C11.6539 10.5956 11.6837 10.5796 11.6837 10.56C11.6837 10.5404 11.734 10.5244 11.7953 10.5244C11.8567 10.5244 11.907 10.5084 11.907 10.4889C11.907 10.4693 11.9405 10.4533 11.9814 10.4533C12.0223 10.4533 12.0558 10.4373 12.0558 10.4178C12.0558 10.3982 12.106 10.3822 12.1674 10.3822C12.2288 10.3822 12.2791 10.3662 12.2791 10.3467C12.2791 10.3253 12.4279 10.3111 12.6512 10.3111C12.8744 10.3111 13.0233 10.3253 13.0233 10.3467C13.0233 10.3662 13.0735 10.3822 13.1349 10.3822C13.1963 10.3822 13.2465 10.3982 13.2465 10.4178C13.2465 10.4373 13.2967 10.4533 13.3581 10.4533C13.4195 10.4533 13.4698 10.4693 13.4698 10.4889C13.4698 10.5084 13.4996 10.5244 13.536 10.5244C13.5724 10.5244 13.6263 10.5564 13.6558 10.5956C13.6853 10.6347 13.7356 10.6667 13.7674 10.6667C13.7993 10.6667 13.8496 10.6987 13.8791 10.7378C13.9086 10.7769 13.9552 10.8089 13.9827 10.8089C14.0102 10.8089 14.1143 10.8889 14.214 10.9867C14.3136 11.0844 14.4134 11.1644 14.4356 11.1644C14.4883 11.1644 14.8837 11.5423 14.8837 11.5926C14.8837 11.6139 14.9674 11.7092 15.0698 11.8044C15.1721 11.8997 15.2558 11.9962 15.2558 12.019C15.2558 12.0417 15.306 12.1052 15.3674 12.16C15.4288 12.2148 15.4791 12.2817 15.4791 12.3086C15.4791 12.3356 15.5126 12.3807 15.5535 12.4089C15.5944 12.4371 15.6279 12.4886 15.6279 12.5234C15.6279 12.5582 15.6447 12.5867 15.6651 12.5867C15.6856 12.5867 15.7023 12.6187 15.7023 12.6578C15.7023 12.6969 15.7191 12.7289 15.7395 12.7289C15.76 12.7289 15.7767 12.7609 15.7767 12.8C15.7767 12.8391 15.7935 12.8711 15.814 12.8711C15.8344 12.8711 15.8512 12.9191 15.8512 12.9778C15.8512 13.0364 15.8679 13.0844 15.8884 13.0844C15.9088 13.0844 15.9256 13.1324 15.9256 13.1911C15.9256 13.2498 15.9423 13.2978 15.9628 13.2978C15.9845 13.2978 16 13.4163 16 13.5822C16 13.7482 15.9845 13.8667 15.9628 13.8667C15.9423 13.8667 15.9256 13.9307 15.9256 14.0089C15.9256 14.0871 15.9088 14.1511 15.8884 14.1511C15.8679 14.1511 15.8512 14.1796 15.8512 14.2144C15.8512 14.2492 15.8177 14.3007 15.7767 14.3289C15.7358 14.3571 15.7023 14.4009 15.7023 14.4261C15.7023 14.4822 15.0875 15.0756 15.0294 15.0756C15.0066 15.0756 14.9411 15.1236 14.8837 15.1822C14.8264 15.2409 14.7564 15.2889 14.7282 15.2889C14.7 15.2889 14.6528 15.3209 14.6233 15.36C14.5937 15.3991 14.5465 15.4311 14.5183 15.4311C14.4902 15.4311 14.4201 15.4791 14.3628 15.5378C14.3055 15.5964 14.2354 15.6444 14.2073 15.6444C14.1791 15.6444 14.1318 15.6764 14.1023 15.7156C14.0728 15.7547 14.0189 15.7867 13.9825 15.7867C13.9461 15.7867 13.9163 15.8027 13.9163 15.8222C13.9163 15.8418 13.8828 15.8578 13.8419 15.8578C13.8009 15.8578 13.7674 15.8738 13.7674 15.8933C13.7674 15.9129 13.7172 15.9289 13.6558 15.9289C13.5944 15.9289 13.5442 15.9449 13.5442 15.9644C13.5442 15.9855 13.4077 16 13.2093 16C13.0109 16 12.8744 15.9855 12.8744 15.9644C12.8744 15.9449 12.7907 15.9289 12.6884 15.9289C12.586 15.9289 12.5023 15.9129 12.5023 15.8933C12.5023 15.8738 12.4353 15.8578 12.3535 15.8578C12.2716 15.8578 12.2047 15.8418 12.2047 15.8222C12.2047 15.8027 12.1544 15.7867 12.093 15.7867C12.0316 15.7867 11.9814 15.7707 11.9814 15.7511C11.9814 15.7316 11.9479 15.7156 11.907 15.7156C11.866 15.7156 11.8326 15.6996 11.8326 15.68C11.8326 15.6604 11.7823 15.6444 11.7209 15.6444C11.6595 15.6444 11.6093 15.6284 11.6093 15.6089C11.6093 15.5893 11.5758 15.5733 11.5349 15.5733C11.494 15.5733 11.4605 15.5573 11.4605 15.5378C11.4605 15.5182 11.427 15.5022 11.386 15.5022C11.3451 15.5022 11.3116 15.4862 11.3116 15.4667C11.3116 15.4471 11.2614 15.4311 11.2 15.4311C11.1386 15.4311 11.0884 15.4151 11.0884 15.3956C11.0884 15.376 11.0549 15.36 11.014 15.36C10.973 15.36 10.9395 15.344 10.9395 15.3244C10.9395 15.3049 10.9097 15.2889 10.8733 15.2889C10.8369 15.2889 10.783 15.2569 10.7535 15.2178C10.724 15.1787 10.6701 15.1467 10.6336 15.1467C10.5972 15.1467 10.5674 15.1307 10.5674 15.1111C10.5674 15.0916 10.534 15.0756 10.493 15.0756C10.4521 15.0756 10.4186 15.0596 10.4186 15.04C10.4186 15.0204 10.3851 15.0044 10.3442 15.0044C10.3033 15.0044 10.2698 14.9884 10.2698 14.9689C10.2698 14.9493 10.24 14.9333 10.2036 14.9333C10.1671 14.9333 10.1132 14.9013 10.0837 14.8622C10.0542 14.8231 10.0003 14.7911 9.96387 14.7911C9.92748 14.7911 9.89767 14.7751 9.89767 14.7556C9.89767 14.736 9.86787 14.72 9.83148 14.72C9.79505 14.72 9.74114 14.688 9.71163 14.6489C9.68212 14.6098 9.63189 14.5778 9.6 14.5778C9.56811 14.5778 9.51788 14.5458 9.48837 14.5067C9.45887 14.4676 9.40863 14.4356 9.37674 14.4356C9.34486 14.4356 9.29462 14.4036 9.26512 14.3644C9.23561 14.3253 9.18538 14.2933 9.15349 14.2933C9.1216 14.2933 9.07137 14.2613 9.04186 14.2222C9.01235 14.1831 8.96513 14.1511 8.93693 14.1511C8.90876 14.1511 8.83874 14.1031 8.7814 14.0444C8.72406 13.9858 8.65403 13.9378 8.62586 13.9378C8.59766 13.9378 8.55044 13.9058 8.52093 13.8667C8.49142 13.8276 8.4442 13.7956 8.416 13.7956C8.38783 13.7956 8.3178 13.7476 8.26047 13.6889C8.20313 13.6302 8.13648 13.5822 8.11237 13.5822C8.0883 13.5822 8.00424 13.5182 7.92558 13.44C7.84692 13.3618 7.76287 13.2978 7.73879 13.2978C7.71468 13.2978 7.64804 13.2498 7.5907 13.1911C7.53336 13.1324 7.46709 13.0844 7.44346 13.0844C7.41987 13.0844 7.30192 12.9884 7.1814 12.8711C7.06087 12.7538 6.94352 12.6578 6.92056 12.6578C6.89764 12.6578 6.79736 12.5778 6.69767 12.48C6.59799 12.3822 6.49808 12.3022 6.47565 12.3022C6.45321 12.3022 6.25172 12.1262 6.02791 11.9111C5.80409 11.696 5.60357 11.52 5.58229 11.52C5.53168 11.52 4.3907 10.4296 4.3907 10.3813C4.3907 10.3609 4.22326 10.1853 4.0186 9.99111C3.81395 9.79691 3.64651 9.62044 3.64651 9.59893C3.64651 9.57742 3.56279 9.48192 3.46047 9.38667C3.35814 9.29141 3.27442 9.19541 3.27442 9.17333C3.27442 9.15125 3.1907 9.05525 3.08837 8.96C2.98605 8.86475 2.90233 8.76821 2.90233 8.74546C2.90233 8.7227 2.85209 8.65924 2.7907 8.60444C2.7293 8.54965 2.67907 8.48565 2.67907 8.46222C2.67907 8.43879 2.62884 8.37479 2.56744 8.32C2.50605 8.26521 2.45581 8.20121 2.45581 8.17778C2.45581 8.15435 2.40558 8.09035 2.34419 8.03556C2.28279 7.98076 2.23256 7.91385 2.23256 7.88693C2.23256 7.85998 2.19907 7.81486 2.15814 7.78667C2.11721 7.75847 2.08372 7.71047 2.08372 7.68C2.08372 7.64953 2.05023 7.60153 2.0093 7.57333C1.96837 7.54514 1.93488 7.49714 1.93488 7.46667C1.93488 7.4362 1.9014 7.3882 1.86047 7.36C1.81954 7.3318 1.78605 7.2838 1.78605 7.25333C1.78605 7.22286 1.75256 7.17486 1.71163 7.14667C1.6707 7.11847 1.63721 7.06695 1.63721 7.03214C1.63721 6.99737 1.62047 6.96889 1.6 6.96889C1.57953 6.96889 1.56279 6.94041 1.56279 6.90564C1.56279 6.87083 1.5293 6.81931 1.48837 6.79111C1.44744 6.76292 1.41395 6.7114 1.41395 6.67659C1.41395 6.64181 1.39721 6.61333 1.37674 6.61333C1.35628 6.61333 1.33953 6.58133 1.33953 6.54222C1.33953 6.50311 1.32279 6.47111 1.30233 6.47111C1.28186 6.47111 1.26512 6.43911 1.26512 6.4C1.26512 6.36089 1.24837 6.32889 1.22791 6.32889C1.20744 6.32889 1.1907 6.30041 1.1907 6.26564C1.1907 6.23083 1.15721 6.17931 1.11628 6.15111C1.07535 6.12292 1.04186 6.0714 1.04186 6.03659C1.04186 6.00181 1.02512 5.97333 1.00465 5.97333C0.984186 5.97333 0.967442 5.94133 0.967442 5.90222C0.967442 5.86311 0.950698 5.83111 0.930233 5.83111C0.909767 5.83111 0.893023 5.79911 0.893023 5.76C0.893023 5.72089 0.876279 5.68889 0.855814 5.68889C0.835349 5.68889 0.818604 5.65689 0.818604 5.61778C0.818604 5.57867 0.801861 5.54667 0.781395 5.54667C0.76093 5.54667 0.744186 5.49867 0.744186 5.44C0.744186 5.38133 0.727442 5.33333 0.706977 5.33333C0.686512 5.33333 0.669767 5.30133 0.669767 5.26222C0.669767 5.22311 0.653024 5.19111 0.632558 5.19111C0.612093 5.19111 0.595349 5.15911 0.595349 5.12C0.595349 5.08089 0.578605 5.04889 0.55814 5.04889C0.537675 5.04889 0.52093 5.00089 0.52093 4.94222C0.52093 4.88356 0.504186 4.83556 0.483721 4.83556C0.463256 4.83556 0.446511 4.80356 0.446511 4.76444C0.446511 4.72533 0.429768 4.69333 0.409303 4.69333C0.388837 4.69333 0.372093 4.64533 0.372093 4.58667C0.372093 4.528 0.355349 4.48 0.334884 4.48C0.314419 4.48 0.297674 4.432 0.297674 4.37333C0.297674 4.31467 0.280931 4.26667 0.260466 4.26667C0.24 4.26667 0.223256 4.20267 0.223256 4.12444C0.223256 4.04622 0.206511 3.98222 0.186047 3.98222C0.165582 3.98222 0.148837 3.91822 0.148837 3.84C0.148837 3.76178 0.132093 3.69778 0.111628 3.69778C0.0909395 3.69778 0.074419 3.60295 0.074419 3.48444C0.074419 3.36594 0.0578976 3.27111 0.0372095 3.27111C0.0146608 3.27111 0 3.11705 0 2.88C0 2.64295 0.0146608 2.48889 0.0372095 2.48889C0.0576744 2.48889 0.074419 2.40889 0.074419 2.31111C0.074419 2.21333 0.0911627 2.13333 0.111628 2.13333C0.132093 2.13333 0.148837 2.10133 0.148837 2.06222C0.148837 2.02311 0.165582 1.99111 0.186047 1.99111C0.206511 1.99111 0.223256 1.96587 0.223256 1.935C0.223256 1.90411 0.290233 1.81739 0.372093 1.74222C0.453954 1.66706 0.52093 1.58727 0.52093 1.56491C0.52093 1.54258 0.604651 1.44636 0.706977 1.35111C0.809302 1.25586 0.893023 1.16075 0.893023 1.1397C0.893023 1.08508 1.73835 0.284444 1.79606 0.284444C1.82244 0.284444 1.86817 0.252444 1.89767 0.213333C1.92919 0.171591 1.99401 0.142222 2.05474 0.142222C2.11159 0.142222 2.15814 0.126222 2.15814 0.106667C2.15814 0.0871111 2.20837 0.0711111 2.26977 0.0711111C2.33116 0.0711111 2.3814 0.0551111 2.3814 0.0355556C2.3814 0.0152533 2.49302 0 2.64186 0C2.7907 0 2.90233 0.0152533 2.90233 0.0355556Z" fill="white"/>
</svg>
