<svg width="77" height="80" viewBox="0 0 77 80" fill="none" xmlns="http://www.w3.org/2000/svg">
<path d="M17.5635 2.14286C17.5635 2.32337 17.5635 7.36978 17.5635 11.7599C17.5635 15.3246 14.6737 18.2143 11.1089 18.2143H8.75397C8.75397 18.2143 8.75397 18.2143 8.75397 18.2143C8.75397 18.2143 2 18.2143 2 18.5357C2 19.5559 2 56.3966 2 71.5697C2 75.1344 4.8898 78 8.45454 78H55.4502C59.015 78 61.9048 75.1102 61.9048 71.5455V67.3928M17.5635 2.14286C17.5635 1.89828 43.2363 2.0259 55.5126 2.10091C59.059 2.12258 61.9048 5.00429 61.9048 8.55078V20.1428M17.5635 2.14286L2 18.2143M15.2143 30.1428H35.1825M15.2143 41.3571H35.1825M15.2143 52.2857H35.1825M15.2143 62.8928H35.1825M44.5794 18.5357L76 35.8928M44.5794 18.5357L46.5 27M44.5794 18.5357L52.5 16" stroke="#103957" stroke-width="3"/>
<path d="M45.678 35.5048H51.2172V62.8504H45.678V35.5048Z" stroke="#0088FF" stroke-width="2.86869"/>
<path d="M57.6889 42.5762H63.2281V62.8504H57.6889V42.5762Z" stroke="#0088FF" stroke-width="2.86869"/>
<path d="M69.0999 49.0048H74.6391V62.8504H69.0999V49.0048Z" stroke="#0088FF" stroke-width="2.86869"/>
</svg>
