<svg width="203" height="26" viewBox="0 0 203 26" fill="none" xmlns="http://www.w3.org/2000/svg">
<path fill-rule="evenodd" clip-rule="evenodd" d="M1.54218 0.216657C0.863855 0.438183 0.424235 0.851941 0.164229 1.51368C-0.000790547 1.93334 -0.0175044 3.22162 0.011686 13.2262C0.0438189 24.2289 0.0494686 24.4755 0.279931 24.8642C0.575601 25.3631 0.740738 25.5015 1.38681 25.7926C2.30195 26.2048 3.3581 25.9119 3.98993 25.0705L4.34068 24.6034V19.9789C4.34068 16.2142 4.37046 15.3307 4.50111 15.2262C4.61717 15.1333 6.49465 15.1059 11.2985 15.1272L17.9354 15.1565L18.0101 16.0648C18.0933 17.0759 18.2059 17.4201 18.5767 17.7971C19.07 18.2986 19.3826 18.4209 20.1717 18.4209C21.2056 18.4209 21.7179 18.0991 22.2054 17.1435C22.391 16.7796 22.4081 16.114 22.4081 9.25211C22.4081 2.14828 22.3967 1.73748 22.1879 1.36074C21.8779 0.8013 21.6489 0.573642 21.1475 0.326796C20.3602 -0.060847 19.1119 0.151255 18.5421 0.769508C18.0372 1.31736 18.0048 1.65187 17.9994 6.38601L17.9942 10.9003L4.39953 10.8417L4.34068 6.05628C4.28442 1.47882 4.27159 1.25923 4.04642 1.00534C3.32137 0.18793 2.4605 -0.0832154 1.54218 0.216657ZM39.8281 0.117759C39.2005 0.257874 38.8946 0.422173 38.4745 0.845128L38.0626 1.25991V9.003C38.0626 16.7025 38.0641 16.7513 38.3294 17.6692C38.4761 18.1769 38.6798 18.7645 38.7822 18.975C39.2538 19.9452 39.4796 20.384 39.5342 20.4363C39.5667 20.4675 39.7874 20.7741 40.0244 21.1176C40.5082 21.8185 41.6856 23.0223 42.4581 23.6059C44.223 24.9393 46.0725 25.6526 48.4052 25.8994C49.598 26.0257 49.9576 26.0194 51.2723 25.8497C52.6853 25.6672 53.3467 25.498 54.3901 25.0517C54.6308 24.9488 54.8823 24.8645 54.9492 24.8645C55.016 24.8645 55.0706 24.819 55.0706 24.7633C55.0706 24.7076 55.1994 24.6309 55.3567 24.5928C55.514 24.5547 55.7126 24.4596 55.798 24.3816C55.8835 24.3035 56.176 24.1002 56.448 23.9296C57.8318 23.0621 59.6083 20.9895 60.375 19.348C60.886 18.2542 60.8992 18.2177 61.1467 17.2003C61.351 16.3606 61.3678 15.7337 61.3678 8.91148V1.53105L61.0362 1.03872C60.2254 -0.165195 58.4584 -0.211862 57.494 0.945389L57.1304 1.38152L57.0694 8.60968C57.0029 16.4781 56.9973 16.5439 56.3045 17.729C56.146 18.0003 55.9652 18.3332 55.9029 18.4689C55.7976 18.6983 54.2701 20.2345 53.8875 20.496C53.4542 20.792 52.8299 21.0952 52.1281 21.3503C51.4447 21.5988 51.1808 21.6285 49.6563 21.6285C47.883 21.6285 47.3191 21.5121 46.1904 20.9134C45.4176 20.5034 43.6535 18.9762 43.6535 18.7171C43.6535 18.6724 43.5841 18.5683 43.4994 18.4857C43.2976 18.2894 42.9853 17.6925 42.6781 16.9164C42.4389 16.3122 42.4286 16.0541 42.3653 8.96825C42.3048 2.19609 42.2839 1.61633 42.0877 1.26956C41.605 0.41661 40.6563 -0.0669784 39.8281 0.117759ZM78.3792 0.222675C77.6914 0.485304 77.1122 1.13399 77.0219 1.74293C76.9835 2.00113 76.968 7.24521 76.9873 13.3965C77.0214 24.3354 77.0274 24.5882 77.256 24.9213C77.5582 25.3614 77.7427 25.5103 78.317 25.7767C78.8558 26.0266 79.1892 26.0488 79.8279 25.8778C80.3093 25.7488 81.0358 25.1128 81.2118 24.6661C81.2718 24.5139 81.3184 20.9226 81.3184 16.4548C81.3184 12.0874 81.3587 8.51407 81.408 8.51407C81.4573 8.51407 81.6294 8.67269 81.7905 8.86663C81.9516 9.06045 82.1377 9.27766 82.2041 9.34919C82.2705 9.42073 82.5817 9.80769 82.8959 10.2091C83.5364 11.0278 83.6521 11.1675 83.9169 11.4433C84.019 11.5496 84.2573 11.8409 84.4466 12.0906C84.9151 12.709 84.997 12.8096 85.213 13.0329C85.3158 13.1392 85.6333 13.5328 85.9186 13.9075C86.2038 14.2822 86.5036 14.6296 86.5849 14.6796C86.6662 14.7295 86.7327 14.8402 86.7327 14.9255C86.7327 15.0109 86.7779 15.0978 86.8331 15.1186C86.9811 15.1744 88.0275 16.4413 88.0275 16.5648C88.0275 16.6228 88.0733 16.6874 88.1292 16.7083C88.1851 16.7291 88.6656 17.274 89.197 17.9191C90.1808 19.1137 90.5235 19.3588 91.4024 19.4964C92.0083 19.5912 92.9338 19.0958 93.5021 18.3724C94.0414 17.6858 96.2041 15.0359 96.7963 14.3361C96.8611 14.2596 97.02 14.0639 97.1494 13.9012C97.2789 13.7385 97.4397 13.5456 97.5068 13.4726C97.5738 13.3995 97.8079 13.097 98.0269 12.8004C98.246 12.5037 98.4692 12.2611 98.523 12.2611C98.5767 12.2611 98.6207 12.1869 98.6207 12.0964C98.6207 12.0058 98.6891 11.8909 98.7727 11.8409C98.8561 11.791 99.1872 11.4186 99.5083 11.0133C99.8293 10.6081 100.145 10.2166 100.21 10.1432C100.274 10.0698 100.442 9.8648 100.583 9.68767C100.723 9.51054 101.026 9.16128 101.255 8.91148L101.671 8.4573L101.679 10.8985C101.685 13.0226 101.715 13.3999 101.904 13.8029C102.161 14.3476 102.554 14.6715 103.285 14.9408C103.786 15.1256 103.851 15.1256 104.454 14.9421C105.175 14.7228 105.726 14.2353 105.945 13.6236C106.045 13.3416 106.097 11.65 106.124 7.79522C106.166 1.80651 106.119 1.27365 105.49 0.712054C105.125 0.385498 104.153 -0.00259843 103.707 1.31088e-05C102.921 0.00466845 102.562 0.371192 98.6577 5.16688C96.5741 7.72596 94.76 9.93917 94.6264 10.085C94.4928 10.2308 94.3834 10.372 94.3834 10.3988C94.3834 10.4256 94.1395 10.7406 93.8415 11.0988C92.9999 12.1103 92.7788 12.3808 92.1956 13.1126C91.8969 13.4873 91.5943 13.7939 91.5231 13.7939C91.4519 13.7939 90.7289 12.9711 89.9165 11.9654C89.1041 10.9597 87.6947 9.22248 86.7846 8.10486C85.8746 6.98723 84.2631 4.99985 83.2037 3.68841C82.1441 2.37696 81.2055 1.22732 81.1177 1.13365C81.0299 1.03997 80.867 0.855688 80.7558 0.72409C80.4755 0.392992 79.6291 -0.00418806 79.2339 0.0100051C79.0532 0.0164771 78.6687 0.112196 78.3792 0.222675ZM143.031 0.204508C142.369 0.463958 141.84 0.973321 141.695 1.49086C141.618 1.76655 141.588 5.89754 141.609 13.2565L141.641 24.5974L141.918 24.9865C142.288 25.506 142.633 25.7412 143.262 25.9035C144.216 26.1495 145.275 25.6725 145.745 24.7851C145.918 24.4587 145.937 23.5935 145.937 16.2976C145.937 9.15185 145.959 8.17344 146.114 8.17344C146.211 8.17344 146.29 8.2209 146.29 8.27892C146.29 8.33683 146.357 8.45208 146.438 8.53508C146.519 8.61796 146.948 9.09417 147.393 9.59343C148.483 10.8188 148.612 10.9648 149.292 11.747C149.616 12.1196 150.56 13.1924 151.39 14.131C152.22 15.0697 153.099 16.0677 153.344 16.3487C153.589 16.6297 154.154 17.2733 154.601 17.7788C155.047 18.2843 155.651 18.9705 155.942 19.3038C156.453 19.888 157.016 20.524 157.772 21.3679C157.969 21.5882 158.658 22.3736 159.302 23.1132C161.24 25.3376 161.654 25.7283 162.238 25.8862C163.169 26.1376 164.325 25.7359 164.772 25.0065C165 24.6321 165.005 24.3916 165.005 13.0065C165.005 2.81797 164.983 1.37118 164.829 1.24719C164.732 1.16941 164.652 1.04133 164.652 0.962534C164.652 0.640634 163.544 0.111741 162.869 0.111741C162.051 0.111741 161.432 0.457486 160.938 1.19042C160.717 1.5189 160.708 1.82332 160.676 9.73468C160.658 14.2467 160.605 17.9348 160.558 17.9305C160.512 17.9262 159.997 17.3618 159.414 16.6765C158.832 15.991 158.223 15.2871 158.061 15.1122C157.738 14.7632 157.455 14.4445 156.635 13.5068C156.336 13.1651 155.955 12.7323 155.789 12.5449C155.46 12.174 154.195 10.7319 153.353 9.76783C153.061 9.43447 152.762 9.10121 152.687 9.02729C152.572 8.91364 151.573 7.7624 151.179 7.29017C151.112 7.21035 150.898 6.9786 150.704 6.77536C150.51 6.572 150.115 6.12633 149.827 5.78502C149.538 5.4437 149.114 4.95886 148.885 4.70747C148.656 4.45609 148.23 3.97556 147.938 3.63958C147.647 3.30372 147.17 2.76574 146.879 2.44418C146.588 2.12262 146.059 1.53809 145.705 1.14534C144.705 0.0364611 144.048 -0.194489 143.031 0.204508ZM182.484 0.101749C181.838 0.254581 181.439 0.504266 181.048 1.00057C180.709 1.42909 180.66 1.5784 180.66 2.16838C180.66 2.85192 180.789 3.16701 181.299 3.72883C181.746 4.22071 181.975 4.25012 185.839 4.31109L189.546 4.36968L189.605 10.8985C189.671 18.1827 189.628 17.8243 190.508 18.4717C190.894 18.7556 191.037 18.7899 191.832 18.7899C192.826 18.7899 193.123 18.6502 193.624 17.9467L193.901 17.5578L194.019 4.36968L197.785 4.31291C200.423 4.27317 201.626 4.21492 201.801 4.11852C202.251 3.86917 202.744 3.22401 202.904 2.67343C203.043 2.19348 203.037 2.06687 202.85 1.56603C202.609 0.918251 202.226 0.505402 201.621 0.240047C201.244 0.0746122 200.226 0.0530386 192.018 0.0365746C186.969 0.0263555 182.678 0.0557637 182.484 0.101749ZM122.916 0.28433C122.42 0.494047 121.835 1.16215 121.751 1.61383C121.713 1.8181 121.697 7.0968 121.715 13.3444L121.749 24.7034L122.133 25.1712C122.52 25.6426 123.279 26 123.893 26C124.603 26 125.438 25.4491 125.822 24.7272C126.037 24.3214 126.046 23.8903 126.046 13.0276C126.046 2.43805 126.033 1.72522 125.836 1.3529C125.27 0.281491 124.011 -0.179274 122.916 0.28433ZM19.3446 21.905C17.9028 22.5245 17.5637 24.3074 18.6873 25.3614C20.0812 26.6693 22.3492 25.7287 22.3492 23.8426C22.3492 22.9232 21.8336 22.2137 20.9207 21.8774C20.2742 21.6392 19.95 21.6449 19.3446 21.905ZM103.157 21.8657C102.56 22.0767 102.176 22.4215 101.903 22.9911C101.335 24.1789 102.028 25.5626 103.363 25.9049C104.562 26.2124 105.836 25.3939 106 24.2093C106.151 23.1259 105.577 22.206 104.538 21.8646C103.889 21.6511 103.765 21.6512 103.157 21.8657ZM190.907 21.8913C189.762 22.433 189.29 23.7092 189.845 24.7602C190.179 25.3919 190.44 25.6133 191.123 25.8473C191.636 26.0232 191.788 26.0311 192.278 25.9075C193.587 25.5774 194.125 24.7302 193.909 23.3395C193.715 22.0929 192.114 21.3205 190.907 21.8913Z" fill="white"/>
</svg>
