<svg width="19" height="17" viewBox="0 0 19 17" fill="none" xmlns="http://www.w3.org/2000/svg">
<path d="M18.9998 2.48579C18.291 2.83238 17.5823 3.00567 16.7555 3.12119C17.5823 2.60132 18.1729 1.85039 18.4682 0.868409C17.7004 1.33052 16.8735 1.6771 15.9876 1.85039C15.338 1.09946 14.2748 0.57959 13.2117 0.57959C11.0855 0.57959 9.37275 2.37026 9.37275 4.62305C9.37275 4.91187 9.43181 5.25845 9.49088 5.54727C6.2425 5.43174 3.34849 3.7566 1.45853 1.33052C1.10416 1.90815 0.926977 2.60132 0.926977 3.35224C0.926977 4.73858 1.63572 6.00938 2.63976 6.76031C1.99008 6.76031 1.39946 6.58702 0.867916 6.24043V6.2982C0.867916 8.26216 2.22633 9.87955 3.93911 10.2839C3.70287 10.3994 3.34849 10.3994 2.99412 10.3994C2.75788 10.3994 2.52164 10.3994 2.28539 10.3416C2.75788 11.9591 4.17535 13.1143 5.88813 13.1721C4.58878 14.2696 2.876 14.905 1.10416 14.905C0.808855 14.905 0.454487 14.905 0.15918 14.8472C1.87196 16.0025 3.88004 16.6957 6.06531 16.6957C13.1527 16.6957 17.0507 10.515 17.0507 5.14292C17.0507 4.96964 17.0507 4.79634 17.0507 4.62305C17.8185 4.04541 18.4682 3.29449 18.9998 2.48579Z" fill="white"/>
</svg>
