<svg width="20" height="18" viewBox="0 0 20 18" fill="none" xmlns="http://www.w3.org/2000/svg">
<path d="M5.04944 6.34033H1.38086V17.9043H5.04944V6.34033Z" fill="white"/>
<path d="M15.0606 6.21875C12.9464 6.21875 11.6407 7.3201 11.392 8.11551V6.27994H7.28809C7.35026 7.25891 7.28809 17.844 7.28809 17.844H11.392V11.6643C11.392 11.2972 11.392 10.9913 11.4542 10.7465C11.765 10.0735 12.3247 9.33922 13.4439 9.33922C14.874 9.33922 15.4958 10.3794 15.4958 11.9702V17.9664H19.6618V11.4807C19.7241 7.87077 17.6721 6.21875 15.0606 6.21875Z" fill="white"/>
<path d="M3.12234 0.893555C1.75434 0.893555 0.883789 1.75052 0.883789 2.91355C0.883789 4.01536 1.75434 4.93353 3.06015 4.93353C4.42816 4.93353 5.29871 4.07657 5.29871 2.91355C5.29871 1.75052 4.49034 0.893555 3.12234 0.893555Z" fill="white"/>
</svg>
