<svg width="21" height="14" viewBox="0 0 21 14" fill="none" xmlns="http://www.w3.org/2000/svg">
<path fill-rule="evenodd" clip-rule="evenodd" d="M18.6446 0.978197C19.5068 1.19932 20.1798 1.83987 20.4114 2.65955C20.8286 4.14161 20.8286 7.23717 20.8286 7.23717C20.8286 7.23717 20.8286 10.3327 20.4114 11.8148C20.1816 12.6332 19.5057 13.2778 18.6446 13.4962C17.0854 13.8948 10.8347 13.8948 10.8347 13.8948C10.8347 13.8948 4.58406 13.8948 3.02475 13.4962C2.1659 13.2778 1.48774 12.6332 1.25798 11.8148C0.84082 10.3327 0.84082 7.23717 0.84082 7.23717C0.84082 7.23717 0.84082 4.14161 1.25798 2.65743C1.48879 1.83735 2.16221 1.19649 3.02475 0.976076C4.58406 0.57959 10.8347 0.57959 10.8347 0.57959C10.8347 0.57959 17.0854 0.57959 18.6446 0.978197ZM8.84945 4.39622V10.0785L14.0248 7.21615L8.84945 4.39622Z" fill="white"/>
</svg>
