<svg width="19" height="18" viewBox="0 0 19 18" fill="none" xmlns="http://www.w3.org/2000/svg">
<path fill-rule="evenodd" clip-rule="evenodd" d="M18.5149 8.83685C18.5147 8.9794 18.5145 9.12206 18.5145 9.26488C18.5145 9.42461 18.5148 9.58413 18.515 9.74348C18.5166 10.7518 18.5182 11.7542 18.4565 12.7629C18.3873 14.1198 18.0639 15.3218 17.0177 16.3161C15.9737 17.3082 14.7067 17.6177 13.2789 17.6835C12.1998 17.7412 11.1275 17.74 10.0486 17.739H10.0442C9.89568 17.7388 9.74701 17.7386 9.59818 17.7386C9.44967 17.7386 9.30131 17.7388 9.15304 17.739H9.14855C8.07104 17.74 6.99853 17.7412 5.91741 17.6835C4.48973 17.6177 3.22488 17.3104 2.17866 16.3161C1.13466 15.3239 0.808969 14.1198 0.739816 12.7629C0.6791 11.7373 0.68029 10.7166 0.681484 9.6922C0.68165 9.54985 0.681816 9.40741 0.681816 9.26488C0.681816 9.12234 0.68165 8.97991 0.681484 8.83759C0.68029 7.81357 0.679101 6.7943 0.739816 5.76685C0.808969 4.41003 1.13243 3.20798 2.17866 2.21369C3.22266 1.22152 4.48973 0.911999 5.91741 0.846279C6.99654 0.788579 8.06879 0.789707 9.14775 0.790842H9.14796H9.14818C9.29804 0.791 9.44803 0.791158 9.59818 0.791158C9.74817 0.791158 9.89802 0.791 10.0478 0.790842C11.1253 0.789707 12.1978 0.788578 13.2789 0.846279C14.7067 0.911999 15.9714 1.2194 17.0177 2.21369C18.0617 3.20587 18.3873 4.41003 18.4565 5.76685C18.5173 6.79242 18.516 7.81145 18.5149 8.83685ZM6.62216 9.26522C6.62216 7.70912 7.95838 6.43923 9.59576 6.43923C11.2331 6.43923 12.5694 7.70912 12.5694 9.26522C12.5694 10.8213 11.2331 12.0912 9.59576 12.0912C7.95838 12.0912 6.62216 10.8213 6.62216 9.26522ZM9.59583 13.6126C7.06391 13.6126 5.02054 11.6706 5.02054 9.2644C5.02054 6.85818 7.06391 4.91624 9.59583 4.91624C12.1278 4.91624 14.1711 6.85818 14.1711 9.2644C14.1711 11.6706 12.1278 13.6126 9.59583 13.6126ZM13.29 4.73921C13.29 5.30102 13.7673 5.75471 14.3585 5.75471C14.642 5.75505 14.9139 5.64816 15.1144 5.45765C15.3149 5.26714 15.4273 5.00864 15.427 4.73921C15.427 4.17741 14.9496 3.72373 14.3585 3.72373C13.7673 3.72373 13.29 4.17741 13.29 4.73921Z" fill="white"/>
</svg>
