<svg width="89" height="90" viewBox="0 0 89 90" fill="none" xmlns="http://www.w3.org/2000/svg">
<path d="M35.0435 1H86C87.1046 1 88 1.89543 88 3V61.3761C88 62.4806 87.1046 63.3761 86 63.3761H61.5217M35.0435 63.3761H61.5217M61.5217 63.3761V80.8718M61.5217 80.8718L42.6087 88.4786M61.5217 80.8718L77.4087 88.4786M17.2243 61.094V75.547V90M25.9652 90V39.0342L44.8783 31.4273L50.5746 28.2864C53.5972 26.6197 51.876 22.0053 48.5002 22.7253L43.3652 23.8205L25.9652 27.6239H8C4.13401 27.6239 1 30.7579 1 34.6239V59.8547C1 60.9593 1.89543 61.8547 3 61.8547H7.8087M7.8087 45.1197V90M10.0783 10.4648V11.3129C10.0783 15.7 13.6347 19.2564 18.0217 19.2564V19.2564C22.4088 19.2564 25.9652 15.7 25.9652 11.3129V10.4648C25.9652 6.07778 22.4088 2.52137 18.0217 2.52137V2.52137C13.6347 2.52137 10.0783 6.07778 10.0783 10.4648Z" stroke="black" stroke-width="2"/>
<path d="M66.8174 25.3418H65.3044C64.4687 25.3418 63.7913 26.023 63.7913 26.8632V50.4444C63.7913 51.2846 64.4687 51.9658 65.3044 51.9658H66.8174C67.653 51.9658 68.3305 51.2846 68.3305 50.4444V26.8632C68.3305 26.023 67.653 25.3418 66.8174 25.3418Z" stroke="#0088FF" stroke-width="2"/>
<path d="M75.8957 16.2136H74.3826C73.547 16.2136 72.8696 16.8948 72.8696 17.735V50.4444C72.8696 51.2846 73.547 51.9658 74.3826 51.9658H75.8957C76.7313 51.9658 77.4087 51.2846 77.4087 50.4444V17.735C77.4087 16.8948 76.7313 16.2136 75.8957 16.2136Z" stroke="#0088FF" stroke-width="2"/>
</svg>
