<svg width="90" height="89" viewBox="0 0 90 89" fill="none" xmlns="http://www.w3.org/2000/svg">
<path d="M62.8723 22.9072H78.4255C81.1869 22.9072 83.4255 25.1458 83.4255 27.9072V46.567" stroke="#103957" stroke-width="2"/>
<path d="M14.617 46.567V32.5464M36.0638 46.567V26.4124M53.4893 46.567V27.2886M76.2765 46.567V30.7938M3.89355 46.567H86.9999" stroke="#103957" stroke-width="2"/>
<path d="M28.915 12.0835V12.6998C28.915 16.4013 25.9144 19.402 22.2129 19.402C18.5114 19.402 15.5107 16.4013 15.5107 12.6998V12.0835C15.5107 8.38199 18.5114 5.38135 22.2129 5.38135C25.9144 5.38135 28.915 8.38199 28.915 12.0835Z" stroke="#103957" stroke-width="2"/>
<path d="M51.2553 7.70212V8.31849C51.2553 12.02 48.2547 15.0206 44.5532 15.0206C40.8517 15.0206 37.8511 12.02 37.8511 8.31849V7.70213C37.8511 4.00065 40.8517 1 44.5532 1C48.2547 1 51.2553 4.00064 51.2553 7.70212Z" stroke="#103957" stroke-width="2"/>
<path d="M74.4895 11.2073V11.8236C74.4895 15.5251 71.4888 18.5257 67.7873 18.5257C64.0858 18.5257 61.0852 15.5251 61.0852 11.8236V11.2073C61.0852 7.50577 64.0858 4.50513 67.7873 4.50513C71.4888 4.50513 74.4895 7.50577 74.4895 11.2073Z" stroke="#103957" stroke-width="2"/>
<path d="M8.36182 46.5668V27.907C8.36182 25.1456 10.6004 22.907 13.3618 22.907H27.1278M29.8086 46.5668V22.4019C29.8086 20.745 31.1518 19.4019 32.8086 19.4019H57.1916C58.8485 19.4019 60.1916 20.745 60.1916 22.4019V46.5668" stroke="#103957" stroke-width="2"/>
<path d="M45 78.9895L32.4893 85.9999L35.1702 71.9793L24.4468 63.2164L38.7446 62.3401L45 50.072L50.3617 62.3401L64.6595 63.2164L53.9361 71.9793L56.617 85.9999L45 78.9895Z" stroke="#103957" stroke-width="2"/>
<path d="M44.7556 75.0976L37.6 79L39.1333 71.1952L33 66.3171L41.1778 65.8293L44.7556 59L47.8222 65.8293L56 66.3171L49.8667 71.1952L51.4 79L44.7556 75.0976Z" stroke="#0088FF"/>
<path d="M76.526 67.3414L69.5433 71.1031L70.5409 64.05L65.5532 58.4076L73.0347 57.9374L76.526 51.8247L79.5186 57.9374L87 58.8778L82.0124 64.05L83.0099 71.1031L76.526 67.3414Z" stroke="#0088FF" stroke-width="2"/>
<path d="M13.9728 65.5887L6.9901 69.3504L7.98763 62.2973L3 56.6549L10.4814 56.1847L13.9728 50.072L16.9654 56.1847L24.4468 57.1251L19.4592 62.2973L20.4567 69.3504L13.9728 65.5887Z" stroke="#0088FF" stroke-width="2"/>
</svg>
