<svg width="89" height="91" viewBox="0 0 89 91" fill="none" xmlns="http://www.w3.org/2000/svg">
<path d="M54.1858 74.1189H72.691C74.5977 74.1189 76.1434 75.6646 76.1434 77.5713V77.5713C76.1434 79.478 74.5977 81.0237 72.691 81.0237H68.352" stroke="#103957" stroke-width="2"/>
<path d="M23.5 64.5L41.0874 79.7964C41.7459 80.3691 42.5382 80.7556 43.3827 80.9255C42.3244 80.8288 41.2897 80.4028 40.443 79.6459L23.5 64.5Z" fill="#C4C4C4"/>
<path d="M0 70.3213H7.7914L36.8806 88.4824C38.469 89.4741 40.3039 89.9998 42.1765 89.9998H72.3635C74.8422 89.9998 76.8516 87.9905 76.8516 85.5117V85.5117C76.8516 83.033 74.8422 81.0237 72.3635 81.0237H44.3687C43.1627 81.0237 41.9974 80.5878 41.0874 79.7964L23.5 64.5L40.443 79.6459C42.4107 81.4049 45.3941 81.3768 47.3283 79.5811V79.5811C49.5027 77.5623 49.5076 74.1227 47.3388 72.0978L31.1509 56.9842C27.9742 54.0184 23.7903 52.3689 19.4444 52.3689H0" stroke="#103957" stroke-width="2"/>
<path d="M57.3731 54.5V50.7976V40.4651M65.5187 54.5V37.6331C65.5187 35.3838 63.6952 33.5604 61.4459 33.5604V33.5604C59.1966 33.5604 57.3731 35.3838 57.3731 37.6331V40.4651M57.3731 40.4651L50.29 25.274C61.2688 18.7145 72 25.274 72 25.274L65.5187 40.4651H57.3731Z" stroke="#0088FF" stroke-width="3"/>
<path d="M51.1149 57.3125V55.8832L50.1386 53.598C49.1366 51.2524 47.5244 49.2181 45.4698 47.7067L44.8289 47.2352C38.6491 42.6893 35 35.4751 35 27.8034V27.1921C35 12.7266 46.7266 1 61.1921 1V1C75.1906 1 86.7148 12.0073 87.3567 25.991L87.394 26.8041C87.7719 35.0372 83.9579 42.9022 77.2591 47.7035L76.7841 48.044C74.9761 49.3398 73.4999 51.0444 72.4757 53.0189L71.527 54.8477V57.3125M51.1149 57.3125H71.527M51.1149 57.3125V62.625M71.527 57.3125V62.625M51.1149 62.625V62.625C51.1149 63.3959 51.4 64.1395 51.9154 64.7127L53.268 66.217C54.8607 67.9884 57.1307 69 59.5128 69H64.2773C66.7816 69 69.1086 67.7075 70.432 65.5814L70.8943 64.8388C71.3078 64.1745 71.527 63.4076 71.527 62.625V62.625M51.1149 62.625H71.527" stroke="#103957" stroke-width="2"/>
</svg>
